solid OpenSCAD_Model
  facet normal 1 -0 0
    outer loop
      vertex -1.2 0 1.25
      vertex -1.2 51.5 -0.25
      vertex -1.2 51.5 1.25
    endloop
  endfacet
  facet normal 1 0 0
    outer loop
      vertex -1.2 51.5 -0.25
      vertex -1.2 0 1.25
      vertex -1.2 0 -0.25
    endloop
  endfacet
  facet normal -0 0 1
    outer loop
      vertex -2.2 51.5 2.25
      vertex -0.2 0 2.25
      vertex -0.2 51.5 2.25
    endloop
  endfacet
  facet normal 0 0 1
    outer loop
      vertex -0.2 0 2.25
      vertex -2.2 51.5 2.25
      vertex -2.2 0 2.25
    endloop
  endfacet
  facet normal 1 -0 0
    outer loop
      vertex -0.2 0 2.25
      vertex -0.2 51.5 1.25
      vertex -0.2 51.5 2.25
    endloop
  endfacet
  facet normal 1 0 0
    outer loop
      vertex -0.2 51.5 1.25
      vertex -0.2 0 2.25
      vertex -0.2 0 1.25
    endloop
  endfacet
  facet normal 0 0 -1
    outer loop
      vertex -1.2 0 1.25
      vertex -0.2 51.5 1.25
      vertex -0.2 0 1.25
    endloop
  endfacet
  facet normal -0 0 -1
    outer loop
      vertex -0.2 51.5 1.25
      vertex -1.2 0 1.25
      vertex -1.2 51.5 1.25
    endloop
  endfacet
  facet normal 0 -1 0
    outer loop
      vertex -2.2 0 2.25
      vertex -1.2 0 1.25
      vertex -0.2 0 2.25
    endloop
  endfacet
  facet normal 0 -1 0
    outer loop
      vertex -2.2 0 2.25
      vertex -1.2 0 -0.25
      vertex -1.2 0 1.25
    endloop
  endfacet
  facet normal 0 -1 -0
    outer loop
      vertex -1.2 0 -0.25
      vertex -2.2 0 -1.5
      vertex 45.6 0 -0.25
    endloop
  endfacet
  facet normal 0 -1 0
    outer loop
      vertex -2.2 0 -1.5
      vertex -1.2 0 -0.25
      vertex -2.2 0 2.25
    endloop
  endfacet
  facet normal 0 -1 -0
    outer loop
      vertex -0.2 0 2.25
      vertex -1.2 0 1.25
      vertex -0.2 0 1.25
    endloop
  endfacet
  facet normal 0 -1 0
    outer loop
      vertex 45.6 0 1.25
      vertex 44.7 0 2.25
      vertex 44.7 0 1.25
    endloop
  endfacet
  facet normal 0 -1 0
    outer loop
      vertex 44.7 0 2.25
      vertex 45.6 0 1.25
      vertex 46.6 0 2.25
    endloop
  endfacet
  facet normal 0 -1 0
    outer loop
      vertex 45.6 0 -0.25
      vertex 46.6 0 2.25
      vertex 45.6 0 1.25
    endloop
  endfacet
  facet normal 0 -1 0
    outer loop
      vertex 45.6 0 -0.25
      vertex 46.6 0 -1.5
      vertex 46.6 0 2.25
    endloop
  endfacet
  facet normal 0 -1 0
    outer loop
      vertex 46.6 0 -1.5
      vertex 45.6 0 -0.25
      vertex -2.2 0 -1.5
    endloop
  endfacet
  facet normal 0 1 0
    outer loop
      vertex 46.6 51.5 2.25
      vertex 45.6 51.5 1.25
      vertex 44.7 51.5 2.25
    endloop
  endfacet
  facet normal 0 1 0
    outer loop
      vertex 46.6 51.5 2.25
      vertex 45.6 51.5 -0.25
      vertex 45.6 51.5 1.25
    endloop
  endfacet
  facet normal 0 1 0
    outer loop
      vertex 45.6 51.5 -0.25
      vertex 46.6 51.5 -1.5
      vertex -1.2 51.5 -0.25
    endloop
  endfacet
  facet normal 0 1 -0
    outer loop
      vertex 46.6 51.5 -1.5
      vertex 45.6 51.5 -0.25
      vertex 46.6 51.5 2.25
    endloop
  endfacet
  facet normal 0 1 0
    outer loop
      vertex 44.7 51.5 2.25
      vertex 45.6 51.5 1.25
      vertex 44.7 51.5 1.25
    endloop
  endfacet
  facet normal 0 1 0
    outer loop
      vertex -1.2 51.5 1.25
      vertex -0.2 51.5 2.25
      vertex -0.2 51.5 1.25
    endloop
  endfacet
  facet normal 0 1 0
    outer loop
      vertex -0.2 51.5 2.25
      vertex -1.2 51.5 1.25
      vertex -2.2 51.5 2.25
    endloop
  endfacet
  facet normal 0 1 -0
    outer loop
      vertex -1.2 51.5 -0.25
      vertex -2.2 51.5 2.25
      vertex -1.2 51.5 1.25
    endloop
  endfacet
  facet normal 0 1 0
    outer loop
      vertex -1.2 51.5 -0.25
      vertex -2.2 51.5 -1.5
      vertex -2.2 51.5 2.25
    endloop
  endfacet
  facet normal 0 1 0
    outer loop
      vertex -2.2 51.5 -1.5
      vertex -1.2 51.5 -0.25
      vertex 46.6 51.5 -1.5
    endloop
  endfacet
  facet normal -1 0 0
    outer loop
      vertex -2.2 0 -1.5
      vertex -2.2 51.5 2.25
      vertex -2.2 51.5 -1.5
    endloop
  endfacet
  facet normal -1 -0 0
    outer loop
      vertex -2.2 51.5 2.25
      vertex -2.2 0 -1.5
      vertex -2.2 0 2.25
    endloop
  endfacet
  facet normal -0 0 1
    outer loop
      vertex -1.2 51.5 -0.25
      vertex 45.6 0 -0.25
      vertex 45.6 51.5 -0.25
    endloop
  endfacet
  facet normal 0 0 1
    outer loop
      vertex 45.6 0 -0.25
      vertex -1.2 51.5 -0.25
      vertex -1.2 0 -0.25
    endloop
  endfacet
  facet normal 1 -0 0
    outer loop
      vertex 46.6 0 2.25
      vertex 46.6 51.5 -1.5
      vertex 46.6 51.5 2.25
    endloop
  endfacet
  facet normal 1 0 0
    outer loop
      vertex 46.6 51.5 -1.5
      vertex 46.6 0 2.25
      vertex 46.6 0 -1.5
    endloop
  endfacet
  facet normal 0 0 -1
    outer loop
      vertex -2.2 0 -1.5
      vertex 46.6 51.5 -1.5
      vertex 46.6 0 -1.5
    endloop
  endfacet
  facet normal -0 0 -1
    outer loop
      vertex 46.6 51.5 -1.5
      vertex -2.2 0 -1.5
      vertex -2.2 51.5 -1.5
    endloop
  endfacet
  facet normal -1 0 0
    outer loop
      vertex 44.7 0 1.25
      vertex 44.7 51.5 2.25
      vertex 44.7 51.5 1.25
    endloop
  endfacet
  facet normal -1 -0 0
    outer loop
      vertex 44.7 51.5 2.25
      vertex 44.7 0 1.25
      vertex 44.7 0 2.25
    endloop
  endfacet
  facet normal -0 0 1
    outer loop
      vertex 44.7 51.5 2.25
      vertex 46.6 0 2.25
      vertex 46.6 51.5 2.25
    endloop
  endfacet
  facet normal 0 0 1
    outer loop
      vertex 46.6 0 2.25
      vertex 44.7 51.5 2.25
      vertex 44.7 0 2.25
    endloop
  endfacet
  facet normal 0 0 -1
    outer loop
      vertex 44.7 0 1.25
      vertex 45.6 51.5 1.25
      vertex 45.6 0 1.25
    endloop
  endfacet
  facet normal -0 0 -1
    outer loop
      vertex 45.6 51.5 1.25
      vertex 44.7 0 1.25
      vertex 44.7 51.5 1.25
    endloop
  endfacet
  facet normal -1 0 0
    outer loop
      vertex 45.6 0 -0.25
      vertex 45.6 51.5 1.25
      vertex 45.6 51.5 -0.25
    endloop
  endfacet
  facet normal -1 -0 0
    outer loop
      vertex 45.6 51.5 1.25
      vertex 45.6 0 -0.25
      vertex 45.6 0 1.25
    endloop
  endfacet
endsolid OpenSCAD_Model
