solid OpenSCAD_Model
  facet normal -1 0 0
    outer loop
      vertex -2.5 0 -1.5
      vertex -2.5 51.5 2.5
      vertex -2.5 51.5 -1.5
    endloop
  endfacet
  facet normal -1 -0 0
    outer loop
      vertex -2.5 51.5 2.5
      vertex -2.5 0 -1.5
      vertex -2.5 0 2.5
    endloop
  endfacet
  facet normal -0 0 1
    outer loop
      vertex -2.5 51.5 2.5
      vertex -0.5 0 2.5
      vertex -0.5 51.5 2.5
    endloop
  endfacet
  facet normal 0 0 1
    outer loop
      vertex -0.5 0 2.5
      vertex -2.5 51.5 2.5
      vertex -2.5 0 2.5
    endloop
  endfacet
  facet normal 1 0 0
    outer loop
      vertex -0.5 51.5 2.5
      vertex -0.5 50.5 1.5
      vertex -0.5 51.5 -0.25
    endloop
  endfacet
  facet normal 1 -0 0
    outer loop
      vertex -0.5 0 2.5
      vertex -0.5 50.5 1.5
      vertex -0.5 51.5 2.5
    endloop
  endfacet
  facet normal 1 0 0
    outer loop
      vertex -0.5 50.5 1.5
      vertex -0.5 0 2.5
      vertex -0.5 0 1.5
    endloop
  endfacet
  facet normal 1 0 0
    outer loop
      vertex -0.5 51.5 -0.25
      vertex -0.5 50.5 1.5
      vertex -0.5 50.5 -0.25
    endloop
  endfacet
  facet normal 0 0 -1
    outer loop
      vertex -1.5 0 1.5
      vertex -0.5 50.5 1.5
      vertex -0.5 0 1.5
    endloop
  endfacet
  facet normal -0 0 -1
    outer loop
      vertex -0.5 50.5 1.5
      vertex -1.5 0 1.5
      vertex -1.5 50.5 1.5
    endloop
  endfacet
  facet normal 0 -1 0
    outer loop
      vertex -2.5 0 2.5
      vertex -1.5 0 1.5
      vertex -0.5 0 2.5
    endloop
  endfacet
  facet normal 0 -1 0
    outer loop
      vertex -2.5 0 2.5
      vertex -1.5 0 -0.25
      vertex -1.5 0 1.5
    endloop
  endfacet
  facet normal 0 -1 -0
    outer loop
      vertex -1.5 0 -0.25
      vertex -2.5 0 -1.5
      vertex 46.25 0 -0.25
    endloop
  endfacet
  facet normal 0 -1 0
    outer loop
      vertex -2.5 0 -1.5
      vertex -1.5 0 -0.25
      vertex -2.5 0 2.5
    endloop
  endfacet
  facet normal 0 -1 -0
    outer loop
      vertex -0.5 0 2.5
      vertex -1.5 0 1.5
      vertex -0.5 0 1.5
    endloop
  endfacet
  facet normal 0 -1 0
    outer loop
      vertex 46.25 0 1.5
      vertex 45.25 0 2.5
      vertex 45.25 0 1.5
    endloop
  endfacet
  facet normal 0 -1 0
    outer loop
      vertex 45.25 0 2.5
      vertex 46.25 0 1.5
      vertex 47.25 0 2.5
    endloop
  endfacet
  facet normal 0 -1 0
    outer loop
      vertex 46.25 0 -0.25
      vertex 47.25 0 2.5
      vertex 46.25 0 1.5
    endloop
  endfacet
  facet normal 0 -1 0
    outer loop
      vertex 46.25 0 -0.25
      vertex 47.25 0 -1.5
      vertex 47.25 0 2.5
    endloop
  endfacet
  facet normal 0 -1 0
    outer loop
      vertex 47.25 0 -1.5
      vertex 46.25 0 -0.25
      vertex -2.5 0 -1.5
    endloop
  endfacet
  facet normal 0 1 0
    outer loop
      vertex 47.25 51.5 2.5
      vertex 45.25 51.5 -0.25
      vertex 45.25 51.5 2.5
    endloop
  endfacet
  facet normal 0 1 0
    outer loop
      vertex 45.25 51.5 -0.25
      vertex 47.25 51.5 -1.5
      vertex -0.5 51.5 -0.25
    endloop
  endfacet
  facet normal 0 1 -0
    outer loop
      vertex 47.25 51.5 -1.5
      vertex 45.25 51.5 -0.25
      vertex 47.25 51.5 2.5
    endloop
  endfacet
  facet normal 0 1 -0
    outer loop
      vertex -0.5 51.5 -0.25
      vertex -2.5 51.5 2.5
      vertex -0.5 51.5 2.5
    endloop
  endfacet
  facet normal 0 1 0
    outer loop
      vertex -0.5 51.5 -0.25
      vertex -2.5 51.5 -1.5
      vertex -2.5 51.5 2.5
    endloop
  endfacet
  facet normal 0 1 0
    outer loop
      vertex -2.5 51.5 -1.5
      vertex -0.5 51.5 -0.25
      vertex 47.25 51.5 -1.5
    endloop
  endfacet
  facet normal -1 0 0
    outer loop
      vertex 45.25 50.5 1.5
      vertex 45.25 51.5 -0.25
      vertex 45.25 50.5 -0.25
    endloop
  endfacet
  facet normal -1 0 0
    outer loop
      vertex 45.25 51.5 -0.25
      vertex 45.25 50.5 1.5
      vertex 45.25 51.5 2.5
    endloop
  endfacet
  facet normal -1 0 0
    outer loop
      vertex 45.25 0 2.5
      vertex 45.25 50.5 1.5
      vertex 45.25 0 1.5
    endloop
  endfacet
  facet normal -1 0 0
    outer loop
      vertex 45.25 50.5 1.5
      vertex 45.25 0 2.5
      vertex 45.25 51.5 2.5
    endloop
  endfacet
  facet normal -0 0 1
    outer loop
      vertex 45.25 51.5 2.5
      vertex 47.25 0 2.5
      vertex 47.25 51.5 2.5
    endloop
  endfacet
  facet normal 0 0 1
    outer loop
      vertex 47.25 0 2.5
      vertex 45.25 51.5 2.5
      vertex 45.25 0 2.5
    endloop
  endfacet
  facet normal 1 -0 0
    outer loop
      vertex 47.25 0 2.5
      vertex 47.25 51.5 -1.5
      vertex 47.25 51.5 2.5
    endloop
  endfacet
  facet normal 1 0 0
    outer loop
      vertex 47.25 51.5 -1.5
      vertex 47.25 0 2.5
      vertex 47.25 0 -1.5
    endloop
  endfacet
  facet normal 0 0 -1
    outer loop
      vertex 45.25 0 1.5
      vertex 46.25 50.5 1.5
      vertex 46.25 0 1.5
    endloop
  endfacet
  facet normal -0 0 -1
    outer loop
      vertex 46.25 50.5 1.5
      vertex 45.25 0 1.5
      vertex 45.25 50.5 1.5
    endloop
  endfacet
  facet normal 1 -0 0
    outer loop
      vertex -1.5 0 1.5
      vertex -1.5 50.5 -0.25
      vertex -1.5 50.5 1.5
    endloop
  endfacet
  facet normal 1 0 0
    outer loop
      vertex -1.5 50.5 -0.25
      vertex -1.5 0 1.5
      vertex -1.5 0 -0.25
    endloop
  endfacet
  facet normal 0 0 -1
    outer loop
      vertex 11.0418 41.1411 -1.5
      vertex 47.25 51.5 -1.5
      vertex 47.25 0 -1.5
    endloop
  endfacet
  facet normal 0 0 -1
    outer loop
      vertex 47.25 51.5 -1.5
      vertex 11.0418 41.1411 -1.5
      vertex 11.5 43 -1.5
    endloop
  endfacet
  facet normal 0 0 -1
    outer loop
      vertex 47.25 0 -1.5
      vertex 9.77226 39.7081 -1.5
      vertex 11.0418 41.1411 -1.5
    endloop
  endfacet
  facet normal 0 0 -1
    outer loop
      vertex -2.5 0 -1.5
      vertex 9.77226 39.7081 -1.5
      vertex 47.25 0 -1.5
    endloop
  endfacet
  facet normal 0 0 -1
    outer loop
      vertex 9.77226 39.7081 -1.5
      vertex -2.5 0 -1.5
      vertex 7.98215 39.0292 -1.5
    endloop
  endfacet
  facet normal -0 0 -1
    outer loop
      vertex 7.98215 39.0292 -1.5
      vertex -2.5 0 -1.5
      vertex 6.08158 39.2599 -1.5
    endloop
  endfacet
  facet normal 0 0 -1
    outer loop
      vertex -2.5 51.5 -1.5
      vertex 3.61623 42.0427 -1.5
      vertex -2.5 0 -1.5
    endloop
  endfacet
  facet normal -0 0 -1
    outer loop
      vertex 4.50596 40.3475 -1.5
      vertex -2.5 0 -1.5
      vertex 3.61623 42.0427 -1.5
    endloop
  endfacet
  facet normal -0 0 -1
    outer loop
      vertex 6.08158 39.2599 -1.5
      vertex -2.5 0 -1.5
      vertex 4.50596 40.3475 -1.5
    endloop
  endfacet
  facet normal 0 0 -1
    outer loop
      vertex 11.0418 44.8589 -1.5
      vertex 47.25 51.5 -1.5
      vertex 11.5 43 -1.5
    endloop
  endfacet
  facet normal 0 0 -1
    outer loop
      vertex 9.77226 46.2919 -1.5
      vertex 47.25 51.5 -1.5
      vertex 11.0418 44.8589 -1.5
    endloop
  endfacet
  facet normal 0 0 -1
    outer loop
      vertex 7.98215 46.9708 -1.5
      vertex 47.25 51.5 -1.5
      vertex 9.77226 46.2919 -1.5
    endloop
  endfacet
  facet normal 0 0 -1
    outer loop
      vertex 7.98215 46.9708 -1.5
      vertex -2.5 51.5 -1.5
      vertex 47.25 51.5 -1.5
    endloop
  endfacet
  facet normal 0 0 -1
    outer loop
      vertex 6.08158 46.7401 -1.5
      vertex -2.5 51.5 -1.5
      vertex 7.98215 46.9708 -1.5
    endloop
  endfacet
  facet normal 0 0 -1
    outer loop
      vertex 4.50596 45.6525 -1.5
      vertex -2.5 51.5 -1.5
      vertex 6.08158 46.7401 -1.5
    endloop
  endfacet
  facet normal 0 0 -1
    outer loop
      vertex 3.61623 43.9573 -1.5
      vertex -2.5 51.5 -1.5
      vertex 4.50596 45.6525 -1.5
    endloop
  endfacet
  facet normal 0 0 -1
    outer loop
      vertex 3.61623 42.0427 -1.5
      vertex -2.5 51.5 -1.5
      vertex 3.61623 43.9573 -1.5
    endloop
  endfacet
  facet normal -1 0 0
    outer loop
      vertex 46.25 0 -0.25
      vertex 46.25 50.5 1.5
      vertex 46.25 50.5 -0.25
    endloop
  endfacet
  facet normal -1 -0 0
    outer loop
      vertex 46.25 50.5 1.5
      vertex 46.25 0 -0.25
      vertex 46.25 0 1.5
    endloop
  endfacet
  facet normal 0 -1 0
    outer loop
      vertex 45.25 50.5 -0.25
      vertex 46.25 50.5 1.5
      vertex 45.25 50.5 1.5
    endloop
  endfacet
  facet normal 0 -1 -0
    outer loop
      vertex 46.25 50.5 1.5
      vertex 45.25 50.5 -0.25
      vertex 46.25 50.5 -0.25
    endloop
  endfacet
  facet normal 0 -1 0
    outer loop
      vertex -1.5 50.5 -0.25
      vertex -0.5 50.5 1.5
      vertex -1.5 50.5 1.5
    endloop
  endfacet
  facet normal 0 -1 -0
    outer loop
      vertex -0.5 50.5 1.5
      vertex -1.5 50.5 -0.25
      vertex -0.5 50.5 -0.25
    endloop
  endfacet
  facet normal 0 0 1
    outer loop
      vertex 11.0418 44.8589 -0.25
      vertex 45.25 50.5 -0.25
      vertex 45.25 51.5 -0.25
    endloop
  endfacet
  facet normal 0 0 1
    outer loop
      vertex 45.25 50.5 -0.25
      vertex 11.0418 44.8589 -0.25
      vertex 11.5 43 -0.25
    endloop
  endfacet
  facet normal 0 0 1
    outer loop
      vertex 45.25 51.5 -0.25
      vertex 9.77226 46.2919 -0.25
      vertex 11.0418 44.8589 -0.25
    endloop
  endfacet
  facet normal 0 0 1
    outer loop
      vertex 45.25 51.5 -0.25
      vertex 7.98215 46.9708 -0.25
      vertex 9.77226 46.2919 -0.25
    endloop
  endfacet
  facet normal -0 0 1
    outer loop
      vertex -0.5 51.5 -0.25
      vertex 7.98215 46.9708 -0.25
      vertex 45.25 51.5 -0.25
    endloop
  endfacet
  facet normal 0 0 1
    outer loop
      vertex 4.50596 45.6525 -0.25
      vertex -0.5 50.5 -0.25
      vertex 3.61623 43.9573 -0.25
    endloop
  endfacet
  facet normal 0 0 1
    outer loop
      vertex 6.08158 46.7401 -0.25
      vertex -0.5 50.5 -0.25
      vertex 4.50596 45.6525 -0.25
    endloop
  endfacet
  facet normal -0 0 1
    outer loop
      vertex -0.5 50.5 -0.25
      vertex 6.08158 46.7401 -0.25
      vertex -0.5 51.5 -0.25
    endloop
  endfacet
  facet normal 0 0 1
    outer loop
      vertex 7.98215 46.9708 -0.25
      vertex -0.5 51.5 -0.25
      vertex 6.08158 46.7401 -0.25
    endloop
  endfacet
  facet normal -0 0 1
    outer loop
      vertex 45.25 50.5 -0.25
      vertex 46.25 0 -0.25
      vertex 46.25 50.5 -0.25
    endloop
  endfacet
  facet normal 0 0 1
    outer loop
      vertex 11.0418 41.1411 -0.25
      vertex 45.25 50.5 -0.25
      vertex 11.5 43 -0.25
    endloop
  endfacet
  facet normal 0 0 1
    outer loop
      vertex 45.25 50.5 -0.25
      vertex 11.0418 41.1411 -0.25
      vertex 46.25 0 -0.25
    endloop
  endfacet
  facet normal -0 0 1
    outer loop
      vertex 9.77226 39.7081 -0.25
      vertex 46.25 0 -0.25
      vertex 11.0418 41.1411 -0.25
    endloop
  endfacet
  facet normal 0 0 1
    outer loop
      vertex -1.5 0 -0.25
      vertex 9.77226 39.7081 -0.25
      vertex 7.98215 39.0292 -0.25
    endloop
  endfacet
  facet normal 0 0 1
    outer loop
      vertex -1.5 0 -0.25
      vertex 7.98215 39.0292 -0.25
      vertex 6.08158 39.2599 -0.25
    endloop
  endfacet
  facet normal 0 0 1
    outer loop
      vertex -1.5 0 -0.25
      vertex 6.08158 39.2599 -0.25
      vertex 4.50596 40.3475 -0.25
    endloop
  endfacet
  facet normal -0 0 1
    outer loop
      vertex -1.5 50.5 -0.25
      vertex 3.61623 43.9573 -0.25
      vertex -0.5 50.5 -0.25
    endloop
  endfacet
  facet normal 0 0 1
    outer loop
      vertex 3.61623 43.9573 -0.25
      vertex -1.5 50.5 -0.25
      vertex 3.61623 42.0427 -0.25
    endloop
  endfacet
  facet normal 0 0 1
    outer loop
      vertex -1.5 0 -0.25
      vertex 3.61623 42.0427 -0.25
      vertex -1.5 50.5 -0.25
    endloop
  endfacet
  facet normal 0 0 1
    outer loop
      vertex 9.77226 39.7081 -0.25
      vertex -1.5 0 -0.25
      vertex 46.25 0 -0.25
    endloop
  endfacet
  facet normal 0 0 1
    outer loop
      vertex 3.61623 42.0427 -0.25
      vertex -1.5 0 -0.25
      vertex 4.50596 40.3475 -0.25
    endloop
  endfacet
  facet normal -0.970942 -0.239316 0
    outer loop
      vertex 11.5 43 -1.5
      vertex 11.0418 44.8589 -0.25
      vertex 11.0418 44.8589 -1.5
    endloop
  endfacet
  facet normal -0.970942 -0.239316 0
    outer loop
      vertex 11.0418 44.8589 -0.25
      vertex 11.5 43 -1.5
      vertex 11.5 43 -0.25
    endloop
  endfacet
  facet normal 1 -0 0
    outer loop
      vertex 3.61623 42.0427 -0.25
      vertex 3.61623 43.9573 -1.5
      vertex 3.61623 43.9573 -0.25
    endloop
  endfacet
  facet normal 1 0 0
    outer loop
      vertex 3.61623 43.9573 -1.5
      vertex 3.61623 42.0427 -0.25
      vertex 3.61623 42.0427 -1.5
    endloop
  endfacet
  facet normal 0.120535 -0.992709 0
    outer loop
      vertex 6.08158 46.7401 -1.5
      vertex 7.98215 46.9708 -0.25
      vertex 6.08158 46.7401 -0.25
    endloop
  endfacet
  facet normal 0.120535 -0.992709 0
    outer loop
      vertex 7.98215 46.9708 -0.25
      vertex 6.08158 46.7401 -1.5
      vertex 7.98215 46.9708 -1.5
    endloop
  endfacet
  facet normal -0.74851 -0.663123 0
    outer loop
      vertex 11.0418 44.8589 -1.5
      vertex 9.77226 46.2919 -0.25
      vertex 9.77226 46.2919 -1.5
    endloop
  endfacet
  facet normal -0.74851 -0.663123 0
    outer loop
      vertex 9.77226 46.2919 -0.25
      vertex 11.0418 44.8589 -1.5
      vertex 11.0418 44.8589 -0.25
    endloop
  endfacet
  facet normal 0.568066 -0.822983 0
    outer loop
      vertex 4.50596 45.6525 -1.5
      vertex 6.08158 46.7401 -0.25
      vertex 4.50596 45.6525 -0.25
    endloop
  endfacet
  facet normal 0.568066 -0.822983 0
    outer loop
      vertex 6.08158 46.7401 -0.25
      vertex 4.50596 45.6525 -1.5
      vertex 6.08158 46.7401 -1.5
    endloop
  endfacet
  facet normal -0.970942 0.239316 0
    outer loop
      vertex 11.0418 41.1411 -1.5
      vertex 11.5 43 -0.25
      vertex 11.5 43 -1.5
    endloop
  endfacet
  facet normal -0.970942 0.239316 0
    outer loop
      vertex 11.5 43 -0.25
      vertex 11.0418 41.1411 -1.5
      vertex 11.0418 41.1411 -0.25
    endloop
  endfacet
  facet normal -0.354604 -0.935017 0
    outer loop
      vertex 7.98215 46.9708 -1.5
      vertex 9.77226 46.2919 -0.25
      vertex 7.98215 46.9708 -0.25
    endloop
  endfacet
  facet normal -0.354604 -0.935017 -0
    outer loop
      vertex 9.77226 46.2919 -0.25
      vertex 7.98215 46.9708 -1.5
      vertex 9.77226 46.2919 -1.5
    endloop
  endfacet
  facet normal 0.885456 0.464723 0
    outer loop
      vertex 4.50596 40.3475 -0.25
      vertex 3.61623 42.0427 -1.5
      vertex 3.61623 42.0427 -0.25
    endloop
  endfacet
  facet normal 0.885456 0.464723 0
    outer loop
      vertex 3.61623 42.0427 -1.5
      vertex 4.50596 40.3475 -0.25
      vertex 4.50596 40.3475 -1.5
    endloop
  endfacet
  facet normal -0.74851 0.663123 0
    outer loop
      vertex 9.77226 39.7081 -1.5
      vertex 11.0418 41.1411 -0.25
      vertex 11.0418 41.1411 -1.5
    endloop
  endfacet
  facet normal -0.74851 0.663123 0
    outer loop
      vertex 11.0418 41.1411 -0.25
      vertex 9.77226 39.7081 -1.5
      vertex 9.77226 39.7081 -0.25
    endloop
  endfacet
  facet normal 0.885456 -0.464723 0
    outer loop
      vertex 3.61623 43.9573 -0.25
      vertex 4.50596 45.6525 -1.5
      vertex 4.50596 45.6525 -0.25
    endloop
  endfacet
  facet normal 0.885456 -0.464723 0
    outer loop
      vertex 4.50596 45.6525 -1.5
      vertex 3.61623 43.9573 -0.25
      vertex 3.61623 43.9573 -1.5
    endloop
  endfacet
  facet normal 0.568065 0.822984 -0
    outer loop
      vertex 6.08158 39.2599 -1.5
      vertex 4.50596 40.3475 -0.25
      vertex 6.08158 39.2599 -0.25
    endloop
  endfacet
  facet normal 0.568065 0.822984 0
    outer loop
      vertex 4.50596 40.3475 -0.25
      vertex 6.08158 39.2599 -1.5
      vertex 4.50596 40.3475 -1.5
    endloop
  endfacet
  facet normal -0.354606 0.935016 0
    outer loop
      vertex 9.77226 39.7081 -1.5
      vertex 7.98215 39.0292 -0.25
      vertex 9.77226 39.7081 -0.25
    endloop
  endfacet
  facet normal -0.354606 0.935016 0
    outer loop
      vertex 7.98215 39.0292 -0.25
      vertex 9.77226 39.7081 -1.5
      vertex 7.98215 39.0292 -1.5
    endloop
  endfacet
  facet normal 0.120536 0.992709 -0
    outer loop
      vertex 7.98215 39.0292 -1.5
      vertex 6.08158 39.2599 -0.25
      vertex 7.98215 39.0292 -0.25
    endloop
  endfacet
  facet normal 0.120536 0.992709 0
    outer loop
      vertex 6.08158 39.2599 -0.25
      vertex 7.98215 39.0292 -1.5
      vertex 6.08158 39.2599 -1.5
    endloop
  endfacet
endsolid OpenSCAD_Model
