solid OpenSCAD_Model
  facet normal -1 0 0
    outer loop
      vertex -1.5 10 -1.5
      vertex -1.5 61.5 2.25
      vertex -1.5 61.5 -1.5
    endloop
  endfacet
  facet normal -1 -0 0
    outer loop
      vertex -1.5 61.5 2.25
      vertex -1.5 10 -1.5
      vertex -1.5 10 2.25
    endloop
  endfacet
  facet normal -0 0 1
    outer loop
      vertex -1.5 61.5 2.25
      vertex 0.5 10 2.25
      vertex 0.5 61.5 2.25
    endloop
  endfacet
  facet normal 0 0 1
    outer loop
      vertex 0.5 10 2.25
      vertex -1.5 61.5 2.25
      vertex -1.5 10 2.25
    endloop
  endfacet
  facet normal 1 0 0
    outer loop
      vertex 0.5 61.5 2.25
      vertex 0.5 60.5 1.25
      vertex 0.5 61.5 -0.25
    endloop
  endfacet
  facet normal 1 -0 0
    outer loop
      vertex 0.5 10 2.25
      vertex 0.5 60.5 1.25
      vertex 0.5 61.5 2.25
    endloop
  endfacet
  facet normal 1 0 0
    outer loop
      vertex 0.5 60.5 1.25
      vertex 0.5 10 2.25
      vertex 0.5 10 1.25
    endloop
  endfacet
  facet normal 1 0 0
    outer loop
      vertex 0.5 61.5 -0.25
      vertex 0.5 60.5 1.25
      vertex 0.5 60.5 -0.25
    endloop
  endfacet
  facet normal 0 1 0
    outer loop
      vertex 48 61.5 2.25
      vertex 46 61.5 -0.25
      vertex 46 61.5 2.25
    endloop
  endfacet
  facet normal 0 1 0
    outer loop
      vertex 46 61.5 -0.25
      vertex 48 61.5 -1.5
      vertex 0.5 61.5 -0.25
    endloop
  endfacet
  facet normal 0 1 -0
    outer loop
      vertex 48 61.5 -1.5
      vertex 46 61.5 -0.25
      vertex 48 61.5 2.25
    endloop
  endfacet
  facet normal 0 1 -0
    outer loop
      vertex 0.5 61.5 -0.25
      vertex -1.5 61.5 2.25
      vertex 0.5 61.5 2.25
    endloop
  endfacet
  facet normal 0 1 0
    outer loop
      vertex 0.5 61.5 -0.25
      vertex -1.5 61.5 -1.5
      vertex -1.5 61.5 2.25
    endloop
  endfacet
  facet normal 0 1 0
    outer loop
      vertex -1.5 61.5 -1.5
      vertex 0.5 61.5 -0.25
      vertex 48 61.5 -1.5
    endloop
  endfacet
  facet normal 0 0 -1
    outer loop
      vertex -0.5 10 1.25
      vertex 0.5 60.5 1.25
      vertex 0.5 10 1.25
    endloop
  endfacet
  facet normal -0 0 -1
    outer loop
      vertex 0.5 60.5 1.25
      vertex -0.5 10 1.25
      vertex -0.5 60.5 1.25
    endloop
  endfacet
  facet normal 0 -1 0
    outer loop
      vertex -1.5 10 2.25
      vertex -0.5 10 1.25
      vertex 0.5 10 2.25
    endloop
  endfacet
  facet normal 0 -1 0
    outer loop
      vertex -1.5 10 2.25
      vertex -0.5 10 -0.25
      vertex -0.5 10 1.25
    endloop
  endfacet
  facet normal 0 -1 -0
    outer loop
      vertex -0.5 10 -0.25
      vertex -1.5 10 -1.5
      vertex 47 10 -0.25
    endloop
  endfacet
  facet normal 0 -1 0
    outer loop
      vertex -1.5 10 -1.5
      vertex -0.5 10 -0.25
      vertex -1.5 10 2.25
    endloop
  endfacet
  facet normal 0 -1 -0
    outer loop
      vertex 0.5 10 2.25
      vertex -0.5 10 1.25
      vertex 0.5 10 1.25
    endloop
  endfacet
  facet normal 0 -1 0
    outer loop
      vertex 47 10 1.25
      vertex 46 10 2.25
      vertex 46 10 1.25
    endloop
  endfacet
  facet normal 0 -1 0
    outer loop
      vertex 46 10 2.25
      vertex 47 10 1.25
      vertex 48 10 2.25
    endloop
  endfacet
  facet normal 0 -1 0
    outer loop
      vertex 47 10 -0.25
      vertex 48 10 2.25
      vertex 47 10 1.25
    endloop
  endfacet
  facet normal 0 -1 0
    outer loop
      vertex 47 10 -0.25
      vertex 48 10 -1.5
      vertex 48 10 2.25
    endloop
  endfacet
  facet normal 0 -1 0
    outer loop
      vertex 48 10 -1.5
      vertex 47 10 -0.25
      vertex -1.5 10 -1.5
    endloop
  endfacet
  facet normal -1 0 0
    outer loop
      vertex 46 60.5 1.25
      vertex 46 61.5 -0.25
      vertex 46 60.5 -0.25
    endloop
  endfacet
  facet normal -1 0 0
    outer loop
      vertex 46 61.5 -0.25
      vertex 46 60.5 1.25
      vertex 46 61.5 2.25
    endloop
  endfacet
  facet normal -1 0 0
    outer loop
      vertex 46 10 2.25
      vertex 46 60.5 1.25
      vertex 46 10 1.25
    endloop
  endfacet
  facet normal -1 0 0
    outer loop
      vertex 46 60.5 1.25
      vertex 46 10 2.25
      vertex 46 61.5 2.25
    endloop
  endfacet
  facet normal -0 0 1
    outer loop
      vertex 46 61.5 2.25
      vertex 48 10 2.25
      vertex 48 61.5 2.25
    endloop
  endfacet
  facet normal 0 0 1
    outer loop
      vertex 48 10 2.25
      vertex 46 61.5 2.25
      vertex 46 10 2.25
    endloop
  endfacet
  facet normal 1 -0 0
    outer loop
      vertex 48 10 2.25
      vertex 48 61.5 -1.5
      vertex 48 61.5 2.25
    endloop
  endfacet
  facet normal 1 0 0
    outer loop
      vertex 48 61.5 -1.5
      vertex 48 10 2.25
      vertex 48 10 -1.5
    endloop
  endfacet
  facet normal 0 0 -1
    outer loop
      vertex 46 10 1.25
      vertex 47 60.5 1.25
      vertex 47 10 1.25
    endloop
  endfacet
  facet normal -0 0 -1
    outer loop
      vertex 47 60.5 1.25
      vertex 46 10 1.25
      vertex 46 60.5 1.25
    endloop
  endfacet
  facet normal 1 -0 0
    outer loop
      vertex -0.5 10 1.25
      vertex -0.5 60.5 -0.25
      vertex -0.5 60.5 1.25
    endloop
  endfacet
  facet normal 1 0 0
    outer loop
      vertex -0.5 60.5 -0.25
      vertex -0.5 10 1.25
      vertex -0.5 10 -0.25
    endloop
  endfacet
  facet normal 0 0 -1
    outer loop
      vertex -1.5 10 -1.5
      vertex 48 61.5 -1.5
      vertex 48 10 -1.5
    endloop
  endfacet
  facet normal -0 0 -1
    outer loop
      vertex 48 61.5 -1.5
      vertex -1.5 10 -1.5
      vertex -1.5 61.5 -1.5
    endloop
  endfacet
  facet normal -1 0 0
    outer loop
      vertex 47 10 -0.25
      vertex 47 60.5 1.25
      vertex 47 60.5 -0.25
    endloop
  endfacet
  facet normal -1 -0 0
    outer loop
      vertex 47 60.5 1.25
      vertex 47 10 -0.25
      vertex 47 10 1.25
    endloop
  endfacet
  facet normal 0 -1 0
    outer loop
      vertex 46 60.5 -0.25
      vertex 47 60.5 1.25
      vertex 46 60.5 1.25
    endloop
  endfacet
  facet normal 0 -1 -0
    outer loop
      vertex 47 60.5 1.25
      vertex 46 60.5 -0.25
      vertex 47 60.5 -0.25
    endloop
  endfacet
  facet normal 0 -1 0
    outer loop
      vertex -0.5 60.5 -0.25
      vertex 0.5 60.5 1.25
      vertex -0.5 60.5 1.25
    endloop
  endfacet
  facet normal 0 -1 -0
    outer loop
      vertex 0.5 60.5 1.25
      vertex -0.5 60.5 -0.25
      vertex 0.5 60.5 -0.25
    endloop
  endfacet
  facet normal 0 0 1
    outer loop
      vertex 46 61.5 -0.25
      vertex 0.5 61.5 -0.25
      vertex 46 60.5 -0.25
    endloop
  endfacet
  facet normal -0 0 1
    outer loop
      vertex 46 60.5 -0.25
      vertex 47 10 -0.25
      vertex 47 60.5 -0.25
    endloop
  endfacet
  facet normal 0 0 1
    outer loop
      vertex 0.5 60.5 -0.25
      vertex 46 60.5 -0.25
      vertex 0.5 61.5 -0.25
    endloop
  endfacet
  facet normal 0 0 1
    outer loop
      vertex 46 60.5 -0.25
      vertex 0.5 60.5 -0.25
      vertex 47 10 -0.25
    endloop
  endfacet
  facet normal 0 0 1
    outer loop
      vertex -0.5 10 -0.25
      vertex 0.5 60.5 -0.25
      vertex -0.5 60.5 -0.25
    endloop
  endfacet
  facet normal 0 0 1
    outer loop
      vertex 0.5 60.5 -0.25
      vertex -0.5 10 -0.25
      vertex 47 10 -0.25
    endloop
  endfacet
endsolid OpenSCAD_Model
