solid OpenSCAD_Model
  facet normal -1 0 0
    outer loop
      vertex -2.5 52.4 -1.5
      vertex -2.5 23 1
      vertex -2.5 52.4 2.6
    endloop
  endfacet
  facet normal -1 0 0
    outer loop
      vertex -2.5 0 -1.5
      vertex -2.5 23 1
      vertex -2.5 52.4 -1.5
    endloop
  endfacet
  facet normal -1 -0 0
    outer loop
      vertex -2.5 23 1
      vertex -2.5 0 -1.5
      vertex -2.5 10 1
    endloop
  endfacet
  facet normal -1 0 0
    outer loop
      vertex -2.5 0 2.6
      vertex -2.5 10 1
      vertex -2.5 0 -1.5
    endloop
  endfacet
  facet normal -1 0 0
    outer loop
      vertex -2.5 10 1
      vertex -2.5 0 2.6
      vertex -2.5 10 2.6
    endloop
  endfacet
  facet normal -1 -0 0
    outer loop
      vertex -2.5 52.4 2.6
      vertex -2.5 23 1
      vertex -2.5 23 2.6
    endloop
  endfacet
  facet normal -0 0 1
    outer loop
      vertex -2.5 10 2.6
      vertex -0.5 0 2.6
      vertex -0.5 10 2.6
    endloop
  endfacet
  facet normal 0 0 1
    outer loop
      vertex -0.5 0 2.6
      vertex -2.5 10 2.6
      vertex -2.5 0 2.6
    endloop
  endfacet
  facet normal -0 0 1
    outer loop
      vertex -2.5 52.4 2.6
      vertex -0.5 23 2.6
      vertex -0.5 52.4 2.6
    endloop
  endfacet
  facet normal 0 0 1
    outer loop
      vertex -0.5 23 2.6
      vertex -2.5 52.4 2.6
      vertex -2.5 23 2.6
    endloop
  endfacet
  facet normal 1 -0 0
    outer loop
      vertex -0.5 0 2.6
      vertex -0.5 10 1.6
      vertex -0.5 10 2.6
    endloop
  endfacet
  facet normal 1 0 0
    outer loop
      vertex -0.5 10 1.6
      vertex -0.5 0 2.6
      vertex -0.5 0 1.6
    endloop
  endfacet
  facet normal 1 -0 0
    outer loop
      vertex -0.5 23 2.6
      vertex -0.5 52.4 1.6
      vertex -0.5 52.4 2.6
    endloop
  endfacet
  facet normal 1 0 0
    outer loop
      vertex -0.5 52.4 1.6
      vertex -0.5 23 2.6
      vertex -0.5 23 1.6
    endloop
  endfacet
  facet normal 0 1 0
    outer loop
      vertex 45.65 52.4 2.6
      vertex 44.65 52.4 1.6
      vertex 43.65 52.4 2.6
    endloop
  endfacet
  facet normal 0 1 0
    outer loop
      vertex 45.65 52.4 2.6
      vertex 44.65 52.4 -0.25
      vertex 44.65 52.4 1.6
    endloop
  endfacet
  facet normal 0 1 0
    outer loop
      vertex 44.65 52.4 -0.25
      vertex 45.65 52.4 -1.5
      vertex -1.5 52.4 -0.25
    endloop
  endfacet
  facet normal 0 1 -0
    outer loop
      vertex 45.65 52.4 -1.5
      vertex 44.65 52.4 -0.25
      vertex 45.65 52.4 2.6
    endloop
  endfacet
  facet normal 0 1 0
    outer loop
      vertex 43.65 52.4 2.6
      vertex 44.65 52.4 1.6
      vertex 43.65 52.4 1.6
    endloop
  endfacet
  facet normal 0 1 0
    outer loop
      vertex -1.5 52.4 1.6
      vertex -0.5 52.4 2.6
      vertex -0.5 52.4 1.6
    endloop
  endfacet
  facet normal 0 1 0
    outer loop
      vertex -0.5 52.4 2.6
      vertex -1.5 52.4 1.6
      vertex -2.5 52.4 2.6
    endloop
  endfacet
  facet normal 0 1 -0
    outer loop
      vertex -1.5 52.4 -0.25
      vertex -2.5 52.4 2.6
      vertex -1.5 52.4 1.6
    endloop
  endfacet
  facet normal 0 1 0
    outer loop
      vertex -1.5 52.4 -0.25
      vertex -2.5 52.4 -1.5
      vertex -2.5 52.4 2.6
    endloop
  endfacet
  facet normal 0 1 0
    outer loop
      vertex -2.5 52.4 -1.5
      vertex -1.5 52.4 -0.25
      vertex 45.65 52.4 -1.5
    endloop
  endfacet
  facet normal 0 0 -1
    outer loop
      vertex -1.5 0 1.6
      vertex -0.5 10 1.6
      vertex -0.5 0 1.6
    endloop
  endfacet
  facet normal -0 0 -1
    outer loop
      vertex -0.5 10 1.6
      vertex -1.5 0 1.6
      vertex -1.5 10 1.6
    endloop
  endfacet
  facet normal 0 0 -1
    outer loop
      vertex -1.5 23 1.6
      vertex -0.5 52.4 1.6
      vertex -0.5 23 1.6
    endloop
  endfacet
  facet normal -0 0 -1
    outer loop
      vertex -0.5 52.4 1.6
      vertex -1.5 23 1.6
      vertex -1.5 52.4 1.6
    endloop
  endfacet
  facet normal 0 -1 0
    outer loop
      vertex -2.5 0 2.6
      vertex -1.5 0 1.6
      vertex -0.5 0 2.6
    endloop
  endfacet
  facet normal 0 -1 0
    outer loop
      vertex -2.5 0 2.6
      vertex -1.5 0 -0.25
      vertex -1.5 0 1.6
    endloop
  endfacet
  facet normal 0 -1 -0
    outer loop
      vertex -1.5 0 -0.25
      vertex -2.5 0 -1.5
      vertex 44.65 0 -0.25
    endloop
  endfacet
  facet normal 0 -1 0
    outer loop
      vertex -2.5 0 -1.5
      vertex -1.5 0 -0.25
      vertex -2.5 0 2.6
    endloop
  endfacet
  facet normal 0 -1 -0
    outer loop
      vertex -0.5 0 2.6
      vertex -1.5 0 1.6
      vertex -0.5 0 1.6
    endloop
  endfacet
  facet normal 0 -1 0
    outer loop
      vertex 44.65 0 1.6
      vertex 43.65 0 2.6
      vertex 43.65 0 1.6
    endloop
  endfacet
  facet normal 0 -1 0
    outer loop
      vertex 43.65 0 2.6
      vertex 44.65 0 1.6
      vertex 45.65 0 2.6
    endloop
  endfacet
  facet normal 0 -1 0
    outer loop
      vertex 44.65 0 -0.25
      vertex 45.65 0 2.6
      vertex 44.65 0 1.6
    endloop
  endfacet
  facet normal 0 -1 0
    outer loop
      vertex 44.65 0 -0.25
      vertex 45.65 0 -1.5
      vertex 45.65 0 2.6
    endloop
  endfacet
  facet normal 0 -1 0
    outer loop
      vertex 45.65 0 -1.5
      vertex 44.65 0 -0.25
      vertex -2.5 0 -1.5
    endloop
  endfacet
  facet normal -1 0 0
    outer loop
      vertex 43.65 0 1.6
      vertex 43.65 52.4 2.6
      vertex 43.65 52.4 1.6
    endloop
  endfacet
  facet normal -1 -0 0
    outer loop
      vertex 43.65 52.4 2.6
      vertex 43.65 0 1.6
      vertex 43.65 0 2.6
    endloop
  endfacet
  facet normal -0 0 1
    outer loop
      vertex 43.65 52.4 2.6
      vertex 45.65 0 2.6
      vertex 45.65 52.4 2.6
    endloop
  endfacet
  facet normal 0 0 1
    outer loop
      vertex 45.65 0 2.6
      vertex 43.65 52.4 2.6
      vertex 43.65 0 2.6
    endloop
  endfacet
  facet normal 1 -0 0
    outer loop
      vertex 45.65 0 2.6
      vertex 45.65 52.4 -1.5
      vertex 45.65 52.4 2.6
    endloop
  endfacet
  facet normal 1 0 0
    outer loop
      vertex 45.65 52.4 -1.5
      vertex 45.65 0 2.6
      vertex 45.65 0 -1.5
    endloop
  endfacet
  facet normal 0 0 -1
    outer loop
      vertex 43.65 0 1.6
      vertex 44.65 52.4 1.6
      vertex 44.65 0 1.6
    endloop
  endfacet
  facet normal -0 0 -1
    outer loop
      vertex 44.65 52.4 1.6
      vertex 43.65 0 1.6
      vertex 43.65 52.4 1.6
    endloop
  endfacet
  facet normal 1 0 0
    outer loop
      vertex -1.5 10 1.6
      vertex -1.5 0 1.6
      vertex -1.5 10 1
    endloop
  endfacet
  facet normal 1 0 0
    outer loop
      vertex -1.5 23 1
      vertex -1.5 52.4 1.6
      vertex -1.5 23 1.6
    endloop
  endfacet
  facet normal 1 0 0
    outer loop
      vertex -1.5 52.4 1.6
      vertex -1.5 23 1
      vertex -1.5 52.4 -0.25
    endloop
  endfacet
  facet normal 1 0 0
    outer loop
      vertex -1.5 0 -0.25
      vertex -1.5 23 1
      vertex -1.5 10 1
    endloop
  endfacet
  facet normal 1 0 0
    outer loop
      vertex -1.5 23 1
      vertex -1.5 0 -0.25
      vertex -1.5 52.4 -0.25
    endloop
  endfacet
  facet normal 1 0 0
    outer loop
      vertex -1.5 0 -0.25
      vertex -1.5 10 1
      vertex -1.5 0 1.6
    endloop
  endfacet
  facet normal 0 0 -1
    outer loop
      vertex 45.65 0 -1.5
      vertex 8.2 38.2 -1.5
      vertex 45.65 52.4 -1.5
    endloop
  endfacet
  facet normal 0 0 -1
    outer loop
      vertex 45.65 0 -1.5
      vertex 7.44698 36.6363 -1.5
      vertex 8.2 38.2 -1.5
    endloop
  endfacet
  facet normal 0 0 -1
    outer loop
      vertex -2.5 0 -1.5
      vertex 7.44698 36.6363 -1.5
      vertex 45.65 0 -1.5
    endloop
  endfacet
  facet normal 0 0 -1
    outer loop
      vertex 7.44698 36.6363 -1.5
      vertex -2.5 0 -1.5
      vertex 5.75496 36.2501 -1.5
    endloop
  endfacet
  facet normal 0 0 -1
    outer loop
      vertex -2.5 52.4 -1.5
      vertex 4.39806 37.3322 -1.5
      vertex -2.5 0 -1.5
    endloop
  endfacet
  facet normal -0 0 -1
    outer loop
      vertex 5.75496 36.2501 -1.5
      vertex -2.5 0 -1.5
      vertex 4.39806 37.3322 -1.5
    endloop
  endfacet
  facet normal 0 0 -1
    outer loop
      vertex 7.44698 39.7637 -1.5
      vertex 45.65 52.4 -1.5
      vertex 8.2 38.2 -1.5
    endloop
  endfacet
  facet normal 0 0 -1
    outer loop
      vertex -2.5 52.4 -1.5
      vertex 7.44698 39.7637 -1.5
      vertex 5.75496 40.1499 -1.5
    endloop
  endfacet
  facet normal 0 0 -1
    outer loop
      vertex 7.44698 39.7637 -1.5
      vertex -2.5 52.4 -1.5
      vertex 45.65 52.4 -1.5
    endloop
  endfacet
  facet normal 0 0 -1
    outer loop
      vertex 4.39806 39.0678 -1.5
      vertex -2.5 52.4 -1.5
      vertex 5.75496 40.1499 -1.5
    endloop
  endfacet
  facet normal 0 0 -1
    outer loop
      vertex 4.39806 37.3322 -1.5
      vertex -2.5 52.4 -1.5
      vertex 4.39806 39.0678 -1.5
    endloop
  endfacet
  facet normal -1 0 0
    outer loop
      vertex 44.65 0 -0.25
      vertex 44.65 52.4 1.6
      vertex 44.65 52.4 -0.25
    endloop
  endfacet
  facet normal -1 -0 0
    outer loop
      vertex 44.65 52.4 1.6
      vertex 44.65 0 -0.25
      vertex 44.65 0 1.6
    endloop
  endfacet
  facet normal 0 0 1
    outer loop
      vertex 44.65 52.4 -0.25
      vertex 8.2 38.2 -0.25
      vertex 44.65 0 -0.25
    endloop
  endfacet
  facet normal 0 0 1
    outer loop
      vertex 44.65 52.4 -0.25
      vertex 7.44698 39.7637 -0.25
      vertex 8.2 38.2 -0.25
    endloop
  endfacet
  facet normal -0 0 1
    outer loop
      vertex -1.5 52.4 -0.25
      vertex 7.44698 39.7637 -0.25
      vertex 44.65 52.4 -0.25
    endloop
  endfacet
  facet normal 0 0 1
    outer loop
      vertex 4.39806 39.0678 -0.25
      vertex -1.5 52.4 -0.25
      vertex 4.39806 37.3322 -0.25
    endloop
  endfacet
  facet normal 0 0 1
    outer loop
      vertex 5.75496 40.1499 -0.25
      vertex -1.5 52.4 -0.25
      vertex 4.39806 39.0678 -0.25
    endloop
  endfacet
  facet normal 0 0 1
    outer loop
      vertex 7.44698 39.7637 -0.25
      vertex -1.5 52.4 -0.25
      vertex 5.75496 40.1499 -0.25
    endloop
  endfacet
  facet normal -0 0 1
    outer loop
      vertex 7.44698 36.6363 -0.25
      vertex 44.65 0 -0.25
      vertex 8.2 38.2 -0.25
    endloop
  endfacet
  facet normal 0 0 1
    outer loop
      vertex -1.5 0 -0.25
      vertex 7.44698 36.6363 -0.25
      vertex 5.75496 36.2501 -0.25
    endloop
  endfacet
  facet normal 0 0 1
    outer loop
      vertex -1.5 0 -0.25
      vertex 5.75496 36.2501 -0.25
      vertex 4.39806 37.3322 -0.25
    endloop
  endfacet
  facet normal 0 0 1
    outer loop
      vertex 7.44698 36.6363 -0.25
      vertex -1.5 0 -0.25
      vertex 44.65 0 -0.25
    endloop
  endfacet
  facet normal 0 0 1
    outer loop
      vertex -1.5 0 -0.25
      vertex 4.39806 37.3322 -0.25
      vertex -1.5 52.4 -0.25
    endloop
  endfacet
  facet normal -0.900969 -0.433884 0
    outer loop
      vertex 8.2 38.2 -1.5
      vertex 7.44698 39.7637 -0.25
      vertex 7.44698 39.7637 -1.5
    endloop
  endfacet
  facet normal -0.900969 -0.433884 0
    outer loop
      vertex 7.44698 39.7637 -0.25
      vertex 8.2 38.2 -1.5
      vertex 8.2 38.2 -0.25
    endloop
  endfacet
  facet normal 1 -0 0
    outer loop
      vertex 4.39806 37.3322 -0.25
      vertex 4.39806 39.0678 -1.5
      vertex 4.39806 39.0678 -0.25
    endloop
  endfacet
  facet normal 1 0 0
    outer loop
      vertex 4.39806 39.0678 -1.5
      vertex 4.39806 37.3322 -0.25
      vertex 4.39806 37.3322 -1.5
    endloop
  endfacet
  facet normal -0.222521 -0.974928 0
    outer loop
      vertex 5.75496 40.1499 -1.5
      vertex 7.44698 39.7637 -0.25
      vertex 5.75496 40.1499 -0.25
    endloop
  endfacet
  facet normal -0.222521 -0.974928 -0
    outer loop
      vertex 7.44698 39.7637 -0.25
      vertex 5.75496 40.1499 -1.5
      vertex 7.44698 39.7637 -1.5
    endloop
  endfacet
  facet normal 0.62349 -0.781831 0
    outer loop
      vertex 4.39806 39.0678 -1.5
      vertex 5.75496 40.1499 -0.25
      vertex 4.39806 39.0678 -0.25
    endloop
  endfacet
  facet normal 0.62349 -0.781831 0
    outer loop
      vertex 5.75496 40.1499 -0.25
      vertex 4.39806 39.0678 -1.5
      vertex 5.75496 40.1499 -1.5
    endloop
  endfacet
  facet normal -0.900969 0.433884 0
    outer loop
      vertex 7.44698 36.6363 -1.5
      vertex 8.2 38.2 -0.25
      vertex 8.2 38.2 -1.5
    endloop
  endfacet
  facet normal -0.900969 0.433884 0
    outer loop
      vertex 8.2 38.2 -0.25
      vertex 7.44698 36.6363 -1.5
      vertex 7.44698 36.6363 -0.25
    endloop
  endfacet
  facet normal 0.62349 0.781831 -0
    outer loop
      vertex 5.75496 36.2501 -1.5
      vertex 4.39806 37.3322 -0.25
      vertex 5.75496 36.2501 -0.25
    endloop
  endfacet
  facet normal 0.62349 0.781831 0
    outer loop
      vertex 4.39806 37.3322 -0.25
      vertex 5.75496 36.2501 -1.5
      vertex 4.39806 37.3322 -1.5
    endloop
  endfacet
  facet normal -0.222521 0.974928 0
    outer loop
      vertex 7.44698 36.6363 -1.5
      vertex 5.75496 36.2501 -0.25
      vertex 7.44698 36.6363 -0.25
    endloop
  endfacet
  facet normal -0.222521 0.974928 0
    outer loop
      vertex 5.75496 36.2501 -0.25
      vertex 7.44698 36.6363 -1.5
      vertex 5.75496 36.2501 -1.5
    endloop
  endfacet
  facet normal -0 0 1
    outer loop
      vertex -2.5 23 1
      vertex -1.5 10 1
      vertex -1.5 23 1
    endloop
  endfacet
  facet normal 0 0 1
    outer loop
      vertex -1.5 10 1
      vertex -2.5 23 1
      vertex -2.5 10 1
    endloop
  endfacet
  facet normal 0 1 0
    outer loop
      vertex -1.5 10 1.6
      vertex -0.5 10 2.6
      vertex -0.5 10 1.6
    endloop
  endfacet
  facet normal 0 1 0
    outer loop
      vertex -0.5 10 2.6
      vertex -1.5 10 1.6
      vertex -2.5 10 2.6
    endloop
  endfacet
  facet normal 0 1 0
    outer loop
      vertex -2.5 10 1
      vertex -1.5 10 1.6
      vertex -1.5 10 1
    endloop
  endfacet
  facet normal 0 1 0
    outer loop
      vertex -1.5 10 1.6
      vertex -2.5 10 1
      vertex -2.5 10 2.6
    endloop
  endfacet
  facet normal 0 -1 0
    outer loop
      vertex -2.5 23 2.6
      vertex -1.5 23 1.6
      vertex -0.5 23 2.6
    endloop
  endfacet
  facet normal 0 -1 0
    outer loop
      vertex -2.5 23 1
      vertex -1.5 23 1.6
      vertex -2.5 23 2.6
    endloop
  endfacet
  facet normal 0 -1 -0
    outer loop
      vertex -1.5 23 1.6
      vertex -2.5 23 1
      vertex -1.5 23 1
    endloop
  endfacet
  facet normal 0 -1 -0
    outer loop
      vertex -0.5 23 2.6
      vertex -1.5 23 1.6
      vertex -0.5 23 1.6
    endloop
  endfacet
endsolid OpenSCAD_Model
