solid OpenSCAD_Model
  facet normal -1 0 0
    outer loop
      vertex 0 1 0
      vertex 0 0 0
      vertex 0 1 1
    endloop
  endfacet
  facet normal -1 0 0
    outer loop
      vertex 0 51.4 1
      vertex 0 52.4 0
      vertex 0 51.4 0
    endloop
  endfacet
  facet normal -1 0 0
    outer loop
      vertex 0 52.4 0
      vertex 0 51.4 1
      vertex 0 52.4 9.4
    endloop
  endfacet
  facet normal -1 0 0
    outer loop
      vertex 0 51.4 1
      vertex 0 38.4 9.4
      vertex 0 52.4 9.4
    endloop
  endfacet
  facet normal -1 0 0
    outer loop
      vertex 0 51.4 1
      vertex 0 23 3
      vertex 0 38.4 9.4
    endloop
  endfacet
  facet normal -1 0 0
    outer loop
      vertex 0 1 1
      vertex 0 23 3
      vertex 0 51.4 1
    endloop
  endfacet
  facet normal -1 -0 0
    outer loop
      vertex 0 10 3
      vertex 0 1 1
      vertex 0 10 7
    endloop
  endfacet
  facet normal -1 -0 0
    outer loop
      vertex 0 23 3
      vertex 0 1 1
      vertex 0 10 3
    endloop
  endfacet
  facet normal -1 0 0
    outer loop
      vertex 0 23 7
      vertex 0 38.4 9.4
      vertex 0 23 3
    endloop
  endfacet
  facet normal -1 0 0
    outer loop
      vertex 0 0 9.4
      vertex 0 23 7
      vertex 0 10 7
    endloop
  endfacet
  facet normal -1 0 0
    outer loop
      vertex 0 23 7
      vertex 0 0 9.4
      vertex 0 38.4 9.4
    endloop
  endfacet
  facet normal -1 0 0
    outer loop
      vertex 0 1 1
      vertex 0 0 9.4
      vertex 0 10 7
    endloop
  endfacet
  facet normal -1 0 0
    outer loop
      vertex 0 0 9.4
      vertex 0 1 1
      vertex 0 0 0
    endloop
  endfacet
  facet normal 0 0 1
    outer loop
      vertex 0.732233 36.6322 9.4
      vertex 1.2 31.16 9.4
      vertex 1.2 36.4385 9.4
    endloop
  endfacet
  facet normal 0 0 1
    outer loop
      vertex 0 38.4 9.4
      vertex 1.2 31.16 9.4
      vertex 0.732233 36.6322 9.4
    endloop
  endfacet
  facet normal 0 0 1
    outer loop
      vertex 1.2 31.16 9.4
      vertex 0 38.4 9.4
      vertex 1.2 28.16 9.4
    endloop
  endfacet
  facet normal 0 0 1
    outer loop
      vertex 41.7 49.08 9.4
      vertex 41.4353 46.08 9.4
      vertex 41.7 46.08 9.4
    endloop
  endfacet
  facet normal 0 0 1
    outer loop
      vertex 41.7 49.08 9.4
      vertex 37.6774 46.08 9.4
      vertex 41.4353 46.08 9.4
    endloop
  endfacet
  facet normal 0 0 1
    outer loop
      vertex 41.7 49.08 9.4
      vertex 31.4353 46.08 9.4
      vertex 37.6774 46.08 9.4
    endloop
  endfacet
  facet normal 0 0 1
    outer loop
      vertex 41.7 49.08 9.4
      vertex 27.6774 46.08 9.4
      vertex 31.4353 46.08 9.4
    endloop
  endfacet
  facet normal -0 0 1
    outer loop
      vertex 10.5 49.08 9.4
      vertex 27.6774 46.08 9.4
      vertex 41.7 49.08 9.4
    endloop
  endfacet
  facet normal 0 0 1
    outer loop
      vertex 27.6774 46.08 9.4
      vertex 10.5 49.08 9.4
      vertex 21.4353 46.08 9.4
    endloop
  endfacet
  facet normal 0 0 1
    outer loop
      vertex 21.4353 46.08 9.4
      vertex 10.5 49.08 9.4
      vertex 17.6774 46.08 9.4
    endloop
  endfacet
  facet normal 0 0 1
    outer loop
      vertex 17.6774 46.08 9.4
      vertex 10.5 49.08 9.4
      vertex 11.88 46.08 9.4
    endloop
  endfacet
  facet normal -0 0 1
    outer loop
      vertex 10.5 48.9426 9.4
      vertex 11.88 46.08 9.4
      vertex 10.5 49.08 9.4
    endloop
  endfacet
  facet normal 0 0 1
    outer loop
      vertex 4.26777 40.1678 9.4
      vertex 11.88 46.08 9.4
      vertex 10.5 48.9426 9.4
    endloop
  endfacet
  facet normal 0 0 1
    outer loop
      vertex 11.88 46.08 9.4
      vertex 4.26777 40.1678 9.4
      vertex 4.76569 38.9657 9.4
    endloop
  endfacet
  facet normal 0 0 1
    outer loop
      vertex 10.5 48.9426 9.4
      vertex 2.5 40.9 9.4
      vertex 4.26777 40.1678 9.4
    endloop
  endfacet
  facet normal 0 -0 1
    outer loop
      vertex 2.5 40.9 9.4
      vertex 10.5 48.9426 9.4
      vertex 2.42721 40.8699 9.4
    endloop
  endfacet
  facet normal -0 0 1
    outer loop
      vertex 41.7 46.08 9.4
      vertex 42.9 38.4 9.4
      vertex 42.9 52.4 9.4
    endloop
  endfacet
  facet normal 0 0 1
    outer loop
      vertex 41.7 49.08 9.4
      vertex 42.9 52.4 9.4
      vertex 41.7 51.2 9.4
    endloop
  endfacet
  facet normal 0 0 1
    outer loop
      vertex 42.9 52.4 9.4
      vertex 1.2 51.2 9.4
      vertex 41.7 51.2 9.4
    endloop
  endfacet
  facet normal 0 0 1
    outer loop
      vertex 1.2 51.2 9.4
      vertex 0.732233 40.1678 9.4
      vertex 1.2 40.3615 9.4
    endloop
  endfacet
  facet normal -0 0 1
    outer loop
      vertex 0 52.4 9.4
      vertex 1.2 51.2 9.4
      vertex 42.9 52.4 9.4
    endloop
  endfacet
  facet normal 0 0 1
    outer loop
      vertex 0 52.4 9.4
      vertex 0.732233 40.1678 9.4
      vertex 1.2 51.2 9.4
    endloop
  endfacet
  facet normal 0 0 1
    outer loop
      vertex 0.732233 40.1678 9.4
      vertex 0 52.4 9.4
      vertex 0 38.4 9.4
    endloop
  endfacet
  facet normal 0 0 1
    outer loop
      vertex 41.7 46.08 9.4
      vertex 42.9 52.4 9.4
      vertex 41.7 49.08 9.4
    endloop
  endfacet
  facet normal 0 0 1
    outer loop
      vertex 42.9 38.4 9.4
      vertex 41.7 46.08 9.4
      vertex 42.1678 40.1678 9.4
    endloop
  endfacet
  facet normal 0 0 1
    outer loop
      vertex 42.1678 40.1678 9.4
      vertex 41.7 46.08 9.4
      vertex 41.7 40.3615 9.4
    endloop
  endfacet
  facet normal -0 0 1
    outer loop
      vertex 37.6774 46.08 9.4
      vertex 41.6777 45.8377 9.4
      vertex 41.4353 46.08 9.4
    endloop
  endfacet
  facet normal 0 0 1
    outer loop
      vertex 37.6774 46.08 9.4
      vertex 27 31.16 9.4
      vertex 41.6777 45.8377 9.4
    endloop
  endfacet
  facet normal 0 -0 1
    outer loop
      vertex 27 31.16 9.4
      vertex 37.6774 46.08 9.4
      vertex 22.7574 31.16 9.4
    endloop
  endfacet
  facet normal -0 0 1
    outer loop
      vertex 27.6774 46.08 9.4
      vertex 31.6777 45.8377 9.4
      vertex 31.4353 46.08 9.4
    endloop
  endfacet
  facet normal 0 0 1
    outer loop
      vertex 27.6774 46.08 9.4
      vertex 17 31.16 9.4
      vertex 31.6777 45.8377 9.4
    endloop
  endfacet
  facet normal 0 -0 1
    outer loop
      vertex 17 31.16 9.4
      vertex 27.6774 46.08 9.4
      vertex 12.7574 31.16 9.4
    endloop
  endfacet
  facet normal 0 0 1
    outer loop
      vertex 38.6322 36.6322 9.4
      vertex 32.4 28.16 9.4
      vertex 40.2162 35.9762 9.4
    endloop
  endfacet
  facet normal 0 0 1
    outer loop
      vertex 31.1574 31.16 9.4
      vertex 38.6322 36.6322 9.4
      vertex 38.0457 38.0483 9.4
    endloop
  endfacet
  facet normal 0 0 1
    outer loop
      vertex 38.6322 36.6322 9.4
      vertex 31.1574 31.16 9.4
      vertex 32.4 28.16 9.4
    endloop
  endfacet
  facet normal -0 0 1
    outer loop
      vertex 27 31.16 9.4
      vertex 32.4 28.16 9.4
      vertex 31.1574 31.16 9.4
    endloop
  endfacet
  facet normal -0 0 1
    outer loop
      vertex 22.7574 31.16 9.4
      vertex 32.4 28.16 9.4
      vertex 27 31.16 9.4
    endloop
  endfacet
  facet normal -0 0 1
    outer loop
      vertex 17 31.16 9.4
      vertex 32.4 28.16 9.4
      vertex 22.7574 31.16 9.4
    endloop
  endfacet
  facet normal 0 0 1
    outer loop
      vertex 1.2 28.16 9.4
      vertex 17 31.16 9.4
      vertex 12.7574 31.16 9.4
    endloop
  endfacet
  facet normal 0 0 1
    outer loop
      vertex 1.2 28.16 9.4
      vertex 12.7574 31.16 9.4
      vertex 7 31.16 9.4
    endloop
  endfacet
  facet normal 0 0 1
    outer loop
      vertex 1.2 28.16 9.4
      vertex 7 31.16 9.4
      vertex 2.75736 31.16 9.4
    endloop
  endfacet
  facet normal 0 0 1
    outer loop
      vertex 1.2 28.16 9.4
      vertex 2.75736 31.16 9.4
      vertex 1.2 31.16 9.4
    endloop
  endfacet
  facet normal 0 0 1
    outer loop
      vertex 17 31.16 9.4
      vertex 1.2 28.16 9.4
      vertex 32.4 28.16 9.4
    endloop
  endfacet
  facet normal 0 0 1
    outer loop
      vertex 41.7 25 9.4
      vertex 42.9 38.4 9.4
      vertex 42.1678 36.6322 9.4
    endloop
  endfacet
  facet normal 0 0 1
    outer loop
      vertex 41.7 25 9.4
      vertex 42.1678 36.6322 9.4
      vertex 41.7 36.4385 9.4
    endloop
  endfacet
  facet normal 0 0 1
    outer loop
      vertex 42.9 38.4 9.4
      vertex 41.7 25 9.4
      vertex 42.9 0 9.4
    endloop
  endfacet
  facet normal -0 0 1
    outer loop
      vertex 1.2 25 9.4
      vertex 42.9 0 9.4
      vertex 41.7 25 9.4
    endloop
  endfacet
  facet normal 0 0 1
    outer loop
      vertex 1.2 28.16 9.4
      vertex 0 38.4 9.4
      vertex 1.2 25 9.4
    endloop
  endfacet
  facet normal 0 0 1
    outer loop
      vertex 1.2 25 9.4
      vertex 0 0 9.4
      vertex 42.9 0 9.4
    endloop
  endfacet
  facet normal 0 0 1
    outer loop
      vertex 0 0 9.4
      vertex 1.2 25 9.4
      vertex 0 38.4 9.4
    endloop
  endfacet
  facet normal -0 0 1
    outer loop
      vertex 17.6774 46.08 9.4
      vertex 21.6777 45.8377 9.4
      vertex 21.4353 46.08 9.4
    endloop
  endfacet
  facet normal 0 0 1
    outer loop
      vertex 17.6774 46.08 9.4
      vertex 7 31.16 9.4
      vertex 21.6777 45.8377 9.4
    endloop
  endfacet
  facet normal 0 -0 1
    outer loop
      vertex 7 31.16 9.4
      vertex 17.6774 46.08 9.4
      vertex 2.75736 31.16 9.4
    endloop
  endfacet
  facet normal 0 0 1
    outer loop
      vertex 2.73176 39.1133 9.4
      vertex 2.69776 39.1022 9.4
      vertex 2.85147 38.9485 9.4
    endloop
  endfacet
  facet normal 0 0 1
    outer loop
      vertex 39.7932 38.4444 9.4
      vertex 39.7932 37.9592 9.4
      vertex 40.5121 37.7256 9.4
    endloop
  endfacet
  facet normal 1 -0 0
    outer loop
      vertex 42.9 0 9.4
      vertex 42.9 38.4 8.2
      vertex 42.9 38.4 9.4
    endloop
  endfacet
  facet normal 1 0 0
    outer loop
      vertex 42.9 38.4 8.2
      vertex 42.9 0 9.4
      vertex 42.9 1 1
    endloop
  endfacet
  facet normal 1 0 0
    outer loop
      vertex 42.9 0 0
      vertex 42.9 1 1
      vertex 42.9 0 9.4
    endloop
  endfacet
  facet normal 1 0 0
    outer loop
      vertex 42.9 1 1
      vertex 42.9 0 0
      vertex 42.9 1 0
    endloop
  endfacet
  facet normal 1 0 0
    outer loop
      vertex 42.9 52.4 9.4
      vertex 42.9 51.4 1
      vertex 42.9 52.4 0
    endloop
  endfacet
  facet normal 1 0 0
    outer loop
      vertex 42.9 38.4 8.2
      vertex 42.9 52.4 9.4
      vertex 42.9 38.4 9.4
    endloop
  endfacet
  facet normal 1 0 0
    outer loop
      vertex 42.9 52.4 9.4
      vertex 42.9 38.4 8.2
      vertex 42.9 51.4 1
    endloop
  endfacet
  facet normal 1 0 0
    outer loop
      vertex 42.9 51.4 1
      vertex 42.9 38.4 8.2
      vertex 42.9 1 1
    endloop
  endfacet
  facet normal 1 0 0
    outer loop
      vertex 42.9 52.4 0
      vertex 42.9 51.4 1
      vertex 42.9 51.4 0
    endloop
  endfacet
  facet normal 0 0 -1
    outer loop
      vertex -1 51.4 0
      vertex 1.2 51.2 0
      vertex -1 1 0
    endloop
  endfacet
  facet normal 0 0 -1
    outer loop
      vertex 1.2 51.2 0
      vertex -1 51.4 0
      vertex 0 51.4 0
    endloop
  endfacet
  facet normal 0 0 -1
    outer loop
      vertex 41.7 1.2 0
      vertex 42.9 1 0
      vertex 42.9 0 0
    endloop
  endfacet
  facet normal 0 0 -1
    outer loop
      vertex 42.9 1 0
      vertex 41.7 1.2 0
      vertex 42.9 51.4 0
    endloop
  endfacet
  facet normal 0 0 -1
    outer loop
      vertex 41.7 51.2 0
      vertex 42.9 51.4 0
      vertex 41.7 1.2 0
    endloop
  endfacet
  facet normal 0 0 -1
    outer loop
      vertex 42.9 0 0
      vertex 1.2 1.2 0
      vertex 41.7 1.2 0
    endloop
  endfacet
  facet normal 0 0 -1
    outer loop
      vertex 0 1 0
      vertex 1.2 1.2 0
      vertex 0 0 0
    endloop
  endfacet
  facet normal 0 0 -1
    outer loop
      vertex 0 0 0
      vertex 1.2 1.2 0
      vertex 42.9 0 0
    endloop
  endfacet
  facet normal 0 0 -1
    outer loop
      vertex 42.9 1 0
      vertex 43.9 51.4 0
      vertex 43.9 1 0
    endloop
  endfacet
  facet normal -0 0 -1
    outer loop
      vertex 43.9 51.4 0
      vertex 42.9 1 0
      vertex 42.9 51.4 0
    endloop
  endfacet
  facet normal -0 0 -1
    outer loop
      vertex 42.9 51.4 0
      vertex 41.7 51.2 0
      vertex 42.9 52.4 0
    endloop
  endfacet
  facet normal 0 0 -1
    outer loop
      vertex 1.2 51.2 0
      vertex 42.9 52.4 0
      vertex 41.7 51.2 0
    endloop
  endfacet
  facet normal 0 0 -1
    outer loop
      vertex -1 1 0
      vertex 1.2 1.2 0
      vertex 0 1 0
    endloop
  endfacet
  facet normal -0 0 -1
    outer loop
      vertex 1.2 1.2 0
      vertex -1 1 0
      vertex 1.2 51.2 0
    endloop
  endfacet
  facet normal 0 0 -1
    outer loop
      vertex 0 52.4 0
      vertex 1.2 51.2 0
      vertex 0 51.4 0
    endloop
  endfacet
  facet normal 0 0 -1
    outer loop
      vertex 1.2 51.2 0
      vertex 0 52.4 0
      vertex 42.9 52.4 0
    endloop
  endfacet
  facet normal 0 -1 0
    outer loop
      vertex 0 0 0
      vertex 42.9 0 9.4
      vertex 0 0 9.4
    endloop
  endfacet
  facet normal 0 -1 -0
    outer loop
      vertex 42.9 0 9.4
      vertex 0 0 0
      vertex 42.9 0 0
    endloop
  endfacet
  facet normal 0 1 0
    outer loop
      vertex 42.9 52.4 9.4
      vertex 4.95 52.4 8.05
      vertex 0 52.4 9.4
    endloop
  endfacet
  facet normal 0 1 0
    outer loop
      vertex 42.9 52.4 9.4
      vertex 6.725 52.4 7.57439
      vertex 4.95 52.4 8.05
    endloop
  endfacet
  facet normal 0 1 0
    outer loop
      vertex 42.9 52.4 9.4
      vertex 8.02439 52.4 6.275
      vertex 6.725 52.4 7.57439
    endloop
  endfacet
  facet normal 0 1 0
    outer loop
      vertex 42.9 52.4 9.4
      vertex 8.5 52.4 4.5
      vertex 8.02439 52.4 6.275
    endloop
  endfacet
  facet normal 0 1 -0
    outer loop
      vertex 42.9 52.4 0
      vertex 8.5 52.4 4.5
      vertex 42.9 52.4 9.4
    endloop
  endfacet
  facet normal 0 1 0
    outer loop
      vertex 8.5 52.4 4.5
      vertex 42.9 52.4 0
      vertex 8.02439 52.4 2.725
    endloop
  endfacet
  facet normal 0 1 0
    outer loop
      vertex 8.02439 52.4 2.725
      vertex 42.9 52.4 0
      vertex 6.725 52.4 1.42561
    endloop
  endfacet
  facet normal 0 1 0
    outer loop
      vertex 6.725 52.4 1.42561
      vertex 42.9 52.4 0
      vertex 4.95 52.4 0.95
    endloop
  endfacet
  facet normal 0 1 -0
    outer loop
      vertex 3.175 52.4 7.57439
      vertex 0 52.4 9.4
      vertex 4.95 52.4 8.05
    endloop
  endfacet
  facet normal 0 1 -0
    outer loop
      vertex 1.87561 52.4 6.275
      vertex 0 52.4 9.4
      vertex 3.175 52.4 7.57439
    endloop
  endfacet
  facet normal 0 1 -0
    outer loop
      vertex 1.4 52.4 4.5
      vertex 0 52.4 9.4
      vertex 1.87561 52.4 6.275
    endloop
  endfacet
  facet normal 0 1 0
    outer loop
      vertex 0 52.4 0
      vertex 1.4 52.4 4.5
      vertex 1.87561 52.4 2.725
    endloop
  endfacet
  facet normal 0 1 0
    outer loop
      vertex 1.4 52.4 4.5
      vertex 0 52.4 0
      vertex 0 52.4 9.4
    endloop
  endfacet
  facet normal 0 1 0
    outer loop
      vertex 3.175 52.4 1.42561
      vertex 0 52.4 0
      vertex 1.87561 52.4 2.725
    endloop
  endfacet
  facet normal 0 1 0
    outer loop
      vertex 4.95 52.4 0.95
      vertex 0 52.4 0
      vertex 3.175 52.4 1.42561
    endloop
  endfacet
  facet normal 0 1 0
    outer loop
      vertex 0 52.4 0
      vertex 4.95 52.4 0.95
      vertex 42.9 52.4 0
    endloop
  endfacet
  facet normal 1 0 0
    outer loop
      vertex 1.2 10 4
      vertex 1.2 1.2 4
      vertex 1.2 10 3
    endloop
  endfacet
  facet normal 1 0 0
    outer loop
      vertex 1.2 28.16 9.4
      vertex 1.2 25 9.4
      vertex 1.2 28.16 8.2
    endloop
  endfacet
  facet normal 1 0 0
    outer loop
      vertex 1.2 31.16 8.2
      vertex 1.2 36.4385 8.2
      vertex 1.2 36.4385 9.4
    endloop
  endfacet
  facet normal 1 0 0
    outer loop
      vertex 1.2 31.16 8.2
      vertex 1.2 36.4385 9.4
      vertex 1.2 31.16 9.4
    endloop
  endfacet
  facet normal 1 0 0
    outer loop
      vertex 1.2 36.4385 8.2
      vertex 1.2 31.16 8.2
      vertex 1.2 33.4 5
    endloop
  endfacet
  facet normal 1 -0 0
    outer loop
      vertex 1.2 28.16 8.2
      vertex 1.2 33.4 5
      vertex 1.2 31.16 8.2
    endloop
  endfacet
  facet normal 1 0 0
    outer loop
      vertex 1.2 25 8.2
      vertex 1.2 28.16 8.2
      vertex 1.2 25 9.4
    endloop
  endfacet
  facet normal 1 0 0
    outer loop
      vertex 1.2 23 5
      vertex 1.2 28.16 8.2
      vertex 1.2 25 8.2
    endloop
  endfacet
  facet normal 1 0 0
    outer loop
      vertex 1.2 23 5
      vertex 1.2 25 8.2
      vertex 1.2 23 7
    endloop
  endfacet
  facet normal 1 0 0
    outer loop
      vertex 1.2 28.16 8.2
      vertex 1.2 23 5
      vertex 1.2 33.4 5
    endloop
  endfacet
  facet normal 1 0 0
    outer loop
      vertex 1.2 40.3615 8.2
      vertex 1.2 51.2 9.4
      vertex 1.2 40.3615 9.4
    endloop
  endfacet
  facet normal 1 0 0
    outer loop
      vertex 1.2 51.2 9.4
      vertex 1.2 40.3615 8.2
      vertex 1.2 51.2 0
    endloop
  endfacet
  facet normal 1 0 0
    outer loop
      vertex 1.2 33.4 4
      vertex 1.2 40.3615 8.2
      vertex 1.2 36.4385 8.2
    endloop
  endfacet
  facet normal 1 0 0
    outer loop
      vertex 1.2 33.4 4
      vertex 1.2 36.4385 8.2
      vertex 1.2 33.4 5
    endloop
  endfacet
  facet normal 1 0 0
    outer loop
      vertex 1.2 40.3615 8.2
      vertex 1.2 33.4 4
      vertex 1.2 51.2 0
    endloop
  endfacet
  facet normal 1 0 0
    outer loop
      vertex 1.2 23 3
      vertex 1.2 33.4 4
      vertex 1.2 23 4
    endloop
  endfacet
  facet normal 1 0 0
    outer loop
      vertex 1.2 33.4 4
      vertex 1.2 23 3
      vertex 1.2 51.2 0
    endloop
  endfacet
  facet normal 1 0 0
    outer loop
      vertex 1.2 1.2 0
      vertex 1.2 23 3
      vertex 1.2 10 3
    endloop
  endfacet
  facet normal 1 0 0
    outer loop
      vertex 1.2 23 3
      vertex 1.2 1.2 0
      vertex 1.2 51.2 0
    endloop
  endfacet
  facet normal 1 0 0
    outer loop
      vertex 1.2 1.2 0
      vertex 1.2 10 3
      vertex 1.2 1.2 4
    endloop
  endfacet
  facet normal 1 0 0
    outer loop
      vertex 1.2 25 8.2
      vertex 1.2 10 7
      vertex 1.2 23 7
    endloop
  endfacet
  facet normal 1 -0 0
    outer loop
      vertex 1.2 1.2 8.2
      vertex 1.2 10 7
      vertex 1.2 25 8.2
    endloop
  endfacet
  facet normal 1 0 0
    outer loop
      vertex 1.2 1.2 5
      vertex 1.2 10 7
      vertex 1.2 1.2 8.2
    endloop
  endfacet
  facet normal 1 0 0
    outer loop
      vertex 1.2 10 7
      vertex 1.2 1.2 5
      vertex 1.2 10 5
    endloop
  endfacet
  facet normal -1 0 0
    outer loop
      vertex 41.7 51.2 5
      vertex 41.7 49.08 8.2
      vertex 41.7 51.2 9.4
    endloop
  endfacet
  facet normal -1 0 0
    outer loop
      vertex 41.7 51.2 5
      vertex 41.7 46.08 8.2
      vertex 41.7 49.08 8.2
    endloop
  endfacet
  facet normal -1 0 0
    outer loop
      vertex 41.7 46.08 8.2
      vertex 41.7 40.3615 8.2
      vertex 41.7 46.08 9.4
    endloop
  endfacet
  facet normal -1 0 0
    outer loop
      vertex 41.7 51.2 5
      vertex 41.7 40.3615 8.2
      vertex 41.7 46.08 8.2
    endloop
  endfacet
  facet normal -1 0 0
    outer loop
      vertex 41.7 51.2 5
      vertex 41.7 36.4385 8.2
      vertex 41.7 40.3615 8.2
    endloop
  endfacet
  facet normal -1 0 0
    outer loop
      vertex 41.7 36.4385 8.2
      vertex 41.7 25 8.2
      vertex 41.7 36.4385 9.4
    endloop
  endfacet
  facet normal -1 0 0
    outer loop
      vertex 41.7 51.2 5
      vertex 41.7 25 8.2
      vertex 41.7 36.4385 8.2
    endloop
  endfacet
  facet normal -1 0 0
    outer loop
      vertex 41.7 1.2 5
      vertex 41.7 25 8.2
      vertex 41.7 51.2 5
    endloop
  endfacet
  facet normal -1 -0 0
    outer loop
      vertex 41.7 25 8.2
      vertex 41.7 1.2 5
      vertex 41.7 1.2 8.2
    endloop
  endfacet
  facet normal -1 -0 0
    outer loop
      vertex 41.7 51.2 9.4
      vertex 41.7 49.08 8.2
      vertex 41.7 49.08 9.4
    endloop
  endfacet
  facet normal -1 -0 0
    outer loop
      vertex 41.7 46.08 9.4
      vertex 41.7 40.3615 8.2
      vertex 41.7 40.3615 9.4
    endloop
  endfacet
  facet normal -1 -0 0
    outer loop
      vertex 41.7 36.4385 9.4
      vertex 41.7 25 8.2
      vertex 41.7 25 9.4
    endloop
  endfacet
  facet normal -1 0 0
    outer loop
      vertex 41.7 1.2 0
      vertex 41.7 51.2 4
      vertex 41.7 51.2 0
    endloop
  endfacet
  facet normal -1 -0 0
    outer loop
      vertex 41.7 51.2 4
      vertex 41.7 1.2 0
      vertex 41.7 1.2 4
    endloop
  endfacet
  facet normal 0 -1 0
    outer loop
      vertex 8.5 51.2 4.5
      vertex 40.9 51.2 5
      vertex 8.02439 51.2 6.275
    endloop
  endfacet
  facet normal 0 -1 0
    outer loop
      vertex 8.5 51.2 4.5
      vertex 40.9 51.2 4
      vertex 40.9 51.2 5
    endloop
  endfacet
  facet normal 0 -1 0
    outer loop
      vertex 8.02439 51.2 2.725
      vertex 40.9 51.2 4
      vertex 8.5 51.2 4.5
    endloop
  endfacet
  facet normal 0 -1 0
    outer loop
      vertex 41.7 51.2 0
      vertex 40.9 51.2 4
      vertex 8.02439 51.2 2.725
    endloop
  endfacet
  facet normal 0 -1 0
    outer loop
      vertex 41.7 51.2 0
      vertex 8.02439 51.2 2.725
      vertex 6.725 51.2 1.42561
    endloop
  endfacet
  facet normal 0 -1 0
    outer loop
      vertex 41.7 51.2 0
      vertex 6.725 51.2 1.42561
      vertex 4.95 51.2 0.95
    endloop
  endfacet
  facet normal 0 -1 0
    outer loop
      vertex 41.7 51.2 0
      vertex 4.95 51.2 0.95
      vertex 1.2 51.2 0
    endloop
  endfacet
  facet normal 0 -1 0
    outer loop
      vertex 40.9 51.2 4
      vertex 41.7 51.2 0
      vertex 41.7 51.2 4
    endloop
  endfacet
  facet normal 0 -1 0
    outer loop
      vertex 6.725 51.2 7.57439
      vertex 1.2 51.2 9.4
      vertex 4.95 51.2 8.05
    endloop
  endfacet
  facet normal 0 -1 0
    outer loop
      vertex 1.2 51.2 9.4
      vertex 3.175 51.2 7.57439
      vertex 4.95 51.2 8.05
    endloop
  endfacet
  facet normal 0 -1 0
    outer loop
      vertex 1.2 51.2 9.4
      vertex 1.87561 51.2 6.275
      vertex 3.175 51.2 7.57439
    endloop
  endfacet
  facet normal 0 -1 0
    outer loop
      vertex 1.2 51.2 9.4
      vertex 1.4 51.2 4.5
      vertex 1.87561 51.2 6.275
    endloop
  endfacet
  facet normal 0 -1 -0
    outer loop
      vertex 3.175 51.2 1.42561
      vertex 1.2 51.2 0
      vertex 4.95 51.2 0.95
    endloop
  endfacet
  facet normal 0 -1 -0
    outer loop
      vertex 1.87561 51.2 2.725
      vertex 1.2 51.2 0
      vertex 3.175 51.2 1.42561
    endloop
  endfacet
  facet normal 0 -1 -0
    outer loop
      vertex 1.4 51.2 4.5
      vertex 1.2 51.2 0
      vertex 1.87561 51.2 2.725
    endloop
  endfacet
  facet normal 0 -1 0
    outer loop
      vertex 1.2 51.2 0
      vertex 1.4 51.2 4.5
      vertex 1.2 51.2 9.4
    endloop
  endfacet
  facet normal 0 -1 0
    outer loop
      vertex 1.2 51.2 9.4
      vertex 6.725 51.2 7.57439
      vertex 41.7 51.2 9.4
    endloop
  endfacet
  facet normal 0 -1 0
    outer loop
      vertex 8.02439 51.2 6.275
      vertex 41.7 51.2 9.4
      vertex 6.725 51.2 7.57439
    endloop
  endfacet
  facet normal 0 -1 0
    outer loop
      vertex 40.9 51.2 5
      vertex 41.7 51.2 9.4
      vertex 8.02439 51.2 6.275
    endloop
  endfacet
  facet normal 0 -1 -0
    outer loop
      vertex 41.7 51.2 9.4
      vertex 40.9 51.2 5
      vertex 41.7 51.2 5
    endloop
  endfacet
  facet normal 0 1 -0
    outer loop
      vertex 41.7 1.2 0
      vertex 40.9 1.2 4
      vertex 41.7 1.2 4
    endloop
  endfacet
  facet normal 0 1 0
    outer loop
      vertex 40.9 1.2 4
      vertex 41.7 1.2 0
      vertex 2.2 1.2 4
    endloop
  endfacet
  facet normal 0 1 0
    outer loop
      vertex 1.2 1.2 0
      vertex 2.2 1.2 4
      vertex 41.7 1.2 0
    endloop
  endfacet
  facet normal 0 1 0
    outer loop
      vertex 2.2 1.2 4
      vertex 1.2 1.2 0
      vertex 1.2 1.2 4
    endloop
  endfacet
  facet normal 0 1 -0
    outer loop
      vertex 40.9 1.2 4
      vertex 2.2 1.2 5
      vertex 40.9 1.2 5
    endloop
  endfacet
  facet normal 0 1 0
    outer loop
      vertex 2.2 1.2 5
      vertex 40.9 1.2 4
      vertex 2.2 1.2 4
    endloop
  endfacet
  facet normal 0 1 0
    outer loop
      vertex 40.9 1.2 5
      vertex 41.7 1.2 8.2
      vertex 41.7 1.2 5
    endloop
  endfacet
  facet normal 0 1 0
    outer loop
      vertex 2.2 1.2 5
      vertex 41.7 1.2 8.2
      vertex 40.9 1.2 5
    endloop
  endfacet
  facet normal 0 1 0
    outer loop
      vertex 41.7 1.2 8.2
      vertex 2.2 1.2 5
      vertex 1.2 1.2 8.2
    endloop
  endfacet
  facet normal 0 1 0
    outer loop
      vertex 1.2 1.2 8.2
      vertex 2.2 1.2 5
      vertex 1.2 1.2 5
    endloop
  endfacet
  facet normal -1 0 0
    outer loop
      vertex -1 1 0
      vertex -1 51.4 1
      vertex -1 51.4 0
    endloop
  endfacet
  facet normal -1 -0 0
    outer loop
      vertex -1 51.4 1
      vertex -1 1 0
      vertex -1 1 1
    endloop
  endfacet
  facet normal -0 0 1
    outer loop
      vertex -1 51.4 1
      vertex 0 1 1
      vertex 0 51.4 1
    endloop
  endfacet
  facet normal 0 0 1
    outer loop
      vertex 0 1 1
      vertex -1 51.4 1
      vertex -1 1 1
    endloop
  endfacet
  facet normal 0 -1 0
    outer loop
      vertex -1 1 0
      vertex 0 1 1
      vertex -1 1 1
    endloop
  endfacet
  facet normal 0 -1 -0
    outer loop
      vertex 0 1 1
      vertex -1 1 0
      vertex 0 1 0
    endloop
  endfacet
  facet normal 0 1 -0
    outer loop
      vertex 0 51.4 0
      vertex -1 51.4 1
      vertex 0 51.4 1
    endloop
  endfacet
  facet normal 0 1 0
    outer loop
      vertex -1 51.4 1
      vertex 0 51.4 0
      vertex -1 51.4 0
    endloop
  endfacet
  facet normal -0 0 1
    outer loop
      vertex 42.9 51.4 1
      vertex 43.9 1 1
      vertex 43.9 51.4 1
    endloop
  endfacet
  facet normal 0 0 1
    outer loop
      vertex 43.9 1 1
      vertex 42.9 51.4 1
      vertex 42.9 1 1
    endloop
  endfacet
  facet normal 1 -0 0
    outer loop
      vertex 43.9 1 1
      vertex 43.9 51.4 0
      vertex 43.9 51.4 1
    endloop
  endfacet
  facet normal 1 0 0
    outer loop
      vertex 43.9 51.4 0
      vertex 43.9 1 1
      vertex 43.9 1 0
    endloop
  endfacet
  facet normal 0 -1 0
    outer loop
      vertex 42.9 1 0
      vertex 43.9 1 1
      vertex 42.9 1 1
    endloop
  endfacet
  facet normal 0 -1 -0
    outer loop
      vertex 43.9 1 1
      vertex 42.9 1 0
      vertex 43.9 1 0
    endloop
  endfacet
  facet normal 0 1 -0
    outer loop
      vertex 43.9 51.4 0
      vertex 42.9 51.4 1
      vertex 43.9 51.4 1
    endloop
  endfacet
  facet normal 0 1 0
    outer loop
      vertex 42.9 51.4 1
      vertex 43.9 51.4 0
      vertex 42.9 51.4 0
    endloop
  endfacet
  facet normal -0.92388 0.382683 0
    outer loop
      vertex 37.9 38.4 8.2
      vertex 38.6322 40.1678 9.4
      vertex 38.6322 40.1678 8.2
    endloop
  endfacet
  facet normal -0.92388 0.382683 0
    outer loop
      vertex 38.6322 40.1678 9.4
      vertex 37.9 38.4 8.2
      vertex 37.9 38.4 9.4
    endloop
  endfacet
  facet normal 0.382684 0.923879 -0
    outer loop
      vertex 41.7 40.3615 8.2
      vertex 40.4 40.9 9.4
      vertex 41.7 40.3615 9.4
    endloop
  endfacet
  facet normal 0.382684 0.923879 0
    outer loop
      vertex 40.4 40.9 9.4
      vertex 41.7 40.3615 8.2
      vertex 40.4 40.9 8.2
    endloop
  endfacet
  facet normal 0 0 1
    outer loop
      vertex 41.7 40.3615 9.4
      vertex 40.4 40.9 9.4
      vertex 42.1678 40.1678 9.4
    endloop
  endfacet
  facet normal 0 0 -1
    outer loop
      vertex 39.7932 38.4444 8.2
      vertex 39.1175 39.1202 8.2
      vertex 39.7932 38.8408 8.2
    endloop
  endfacet
  facet normal 0 0 -1
    outer loop
      vertex 41.2388 36.9988 8.2
      vertex 40.6318 37.6867 8.2
      vertex 41.15 38.4 8.2
    endloop
  endfacet
  facet normal -0 -0 -1
    outer loop
      vertex 40.6318 37.6867 8.2
      vertex 41.2388 36.9988 8.2
      vertex 40.5121 37.7256 8.2
    endloop
  endfacet
  facet normal 0 0 -1
    outer loop
      vertex 41.15 38.4 8.2
      vertex 41.7 36.4385 8.2
      vertex 41.2388 36.9988 8.2
    endloop
  endfacet
  facet normal 0 0 -1
    outer loop
      vertex 40.4 35.9 8.2
      vertex 41.2388 36.9988 8.2
      vertex 41.7 36.4385 8.2
    endloop
  endfacet
  facet normal 0 0 -1
    outer loop
      vertex 41.2388 36.9988 8.2
      vertex 40.4 35.9 8.2
      vertex 40.2162 35.9762 8.2
    endloop
  endfacet
  facet normal 0 0 -1
    outer loop
      vertex 41.7 36.4385 8.2
      vertex 41.15 38.4 8.2
      vertex 41.7 40.3615 8.2
    endloop
  endfacet
  facet normal 0 0 -1
    outer loop
      vertex 40.6318 39.1133 8.2
      vertex 41.7 40.3615 8.2
      vertex 41.15 38.4 8.2
    endloop
  endfacet
  facet normal 0 0 -1
    outer loop
      vertex 40.6318 39.1133 8.2
      vertex 40.4 40.9 8.2
      vertex 41.7 40.3615 8.2
    endloop
  endfacet
  facet normal 0 0 -1
    outer loop
      vertex 39.7932 38.8408 8.2
      vertex 40.4 40.9 8.2
      vertex 40.6318 39.1133 8.2
    endloop
  endfacet
  facet normal 0 0 -1
    outer loop
      vertex 39.1175 39.1202 8.2
      vertex 40.4 40.9 8.2
      vertex 39.7932 38.8408 8.2
    endloop
  endfacet
  facet normal 0 0 -1
    outer loop
      vertex 39.1175 39.1202 8.2
      vertex 38.6322 40.1678 8.2
      vertex 40.4 40.9 8.2
    endloop
  endfacet
  facet normal 0 0 -1
    outer loop
      vertex 37.9 38.4 8.2
      vertex 39.1175 39.1202 8.2
      vertex 38.0457 38.0483 8.2
    endloop
  endfacet
  facet normal -0 0 -1
    outer loop
      vertex 39.1175 39.1202 8.2
      vertex 37.9 38.4 8.2
      vertex 38.6322 40.1678 8.2
    endloop
  endfacet
  facet normal 0 0 1
    outer loop
      vertex 41.15 38.4 9.4
      vertex 42.9 38.4 9.4
      vertex 42.1678 40.1678 9.4
    endloop
  endfacet
  facet normal 0 0 1
    outer loop
      vertex 42.9 38.4 9.4
      vertex 41.15 38.4 9.4
      vertex 42.1678 36.6322 9.4
    endloop
  endfacet
  facet normal 0 0 1
    outer loop
      vertex 42.1678 40.1678 9.4
      vertex 40.6318 39.1133 9.4
      vertex 41.15 38.4 9.4
    endloop
  endfacet
  facet normal 0 0 1
    outer loop
      vertex 40.4 40.9 9.4
      vertex 40.6318 39.1133 9.4
      vertex 42.1678 40.1678 9.4
    endloop
  endfacet
  facet normal 0 0 1
    outer loop
      vertex 40.4 40.9 9.4
      vertex 39.7932 38.8408 9.4
      vertex 40.6318 39.1133 9.4
    endloop
  endfacet
  facet normal 0 0 1
    outer loop
      vertex 37.9 38.4 9.4
      vertex 39.7932 38.8408 9.4
      vertex 38.6322 40.1678 9.4
    endloop
  endfacet
  facet normal -0 0 1
    outer loop
      vertex 38.6322 40.1678 9.4
      vertex 39.7932 38.8408 9.4
      vertex 40.4 40.9 9.4
    endloop
  endfacet
  facet normal -0 0 1
    outer loop
      vertex 40.6318 37.6867 9.4
      vertex 42.1678 36.6322 9.4
      vertex 41.15 38.4 9.4
    endloop
  endfacet
  facet normal 0 0 1
    outer loop
      vertex 40.6318 37.6867 9.4
      vertex 40.4 35.9 9.4
      vertex 42.1678 36.6322 9.4
    endloop
  endfacet
  facet normal 0 0 1
    outer loop
      vertex 39.7932 37.9592 9.4
      vertex 40.4 35.9 9.4
      vertex 40.6318 37.6867 9.4
    endloop
  endfacet
  facet normal 0 0 1
    outer loop
      vertex 39.7932 38.8408 9.4
      vertex 37.9 38.4 9.4
      vertex 39.7932 37.9592 9.4
    endloop
  endfacet
  facet normal 0 0 1
    outer loop
      vertex 39.7932 37.9592 9.4
      vertex 38.6322 36.6322 9.4
      vertex 40.4 35.9 9.4
    endloop
  endfacet
  facet normal 0 0 1
    outer loop
      vertex 39.7932 37.9592 9.4
      vertex 37.9 38.4 9.4
      vertex 38.6322 36.6322 9.4
    endloop
  endfacet
  facet normal -0.382684 0.923879 0
    outer loop
      vertex 40.4 40.9 8.2
      vertex 38.6322 40.1678 9.4
      vertex 40.4 40.9 9.4
    endloop
  endfacet
  facet normal -0.382684 0.923879 0
    outer loop
      vertex 38.6322 40.1678 9.4
      vertex 40.4 40.9 8.2
      vertex 38.6322 40.1678 8.2
    endloop
  endfacet
  facet normal 0.382682 -0.92388 0
    outer loop
      vertex 40.4 35.9 8.2
      vertex 41.7 36.4385 9.4
      vertex 40.4 35.9 9.4
    endloop
  endfacet
  facet normal 0.382682 -0.92388 0
    outer loop
      vertex 41.7 36.4385 9.4
      vertex 40.4 35.9 8.2
      vertex 41.7 36.4385 8.2
    endloop
  endfacet
  facet normal 0 -0 1
    outer loop
      vertex 41.7 36.4385 9.4
      vertex 42.1678 36.6322 9.4
      vertex 40.4 35.9 9.4
    endloop
  endfacet
  facet normal -0.923882 -0.382678 0
    outer loop
      vertex 38.0457 38.0483 8.2
      vertex 37.9 38.4 9.4
      vertex 37.9 38.4 8.2
    endloop
  endfacet
  facet normal -0.923882 -0.382678 0
    outer loop
      vertex 37.9 38.4 9.4
      vertex 38.0457 38.0483 8.2
      vertex 38.0457 38.0483 9.4
    endloop
  endfacet
  facet normal 0 0 1
    outer loop
      vertex 37.9 38.4 9.4
      vertex 38.0457 38.0483 9.4
      vertex 38.6322 36.6322 9.4
    endloop
  endfacet
  facet normal -0.382667 -0.923886 0
    outer loop
      vertex 40.2162 35.9762 8.2
      vertex 40.4 35.9 9.4
      vertex 40.2162 35.9762 9.4
    endloop
  endfacet
  facet normal -0.382667 -0.923886 -0
    outer loop
      vertex 40.4 35.9 9.4
      vertex 40.2162 35.9762 8.2
      vertex 40.4 35.9 8.2
    endloop
  endfacet
  facet normal 0 0 1
    outer loop
      vertex 40.4 35.9 9.4
      vertex 38.6322 36.6322 9.4
      vertex 40.2162 35.9762 9.4
    endloop
  endfacet
  facet normal -0.809016 -0.587787 0
    outer loop
      vertex 41.15 38.4 8.2
      vertex 40.6318 39.1133 9.4
      vertex 40.6318 39.1133 8.2
    endloop
  endfacet
  facet normal -0.809016 -0.587787 0
    outer loop
      vertex 40.6318 39.1133 9.4
      vertex 41.15 38.4 8.2
      vertex 41.15 38.4 9.4
    endloop
  endfacet
  facet normal 1 -0 0
    outer loop
      vertex 39.7932 38.4444 9.4
      vertex 39.7932 38.8408 8.2
      vertex 39.7932 38.8408 9.4
    endloop
  endfacet
  facet normal 1 0 0
    outer loop
      vertex 39.7932 38.8408 8.2
      vertex 39.7932 38.4444 9.4
      vertex 39.7932 38.4444 8.2
    endloop
  endfacet
  facet normal 0 0 0
    outer loop
      vertex 39.7932 38.4444 9.4
      vertex 39.7932 38.8408 9.4
      vertex 39.7932 37.9592 9.4
    endloop
  endfacet
  facet normal 0.309017 -0.951056 0
    outer loop
      vertex 39.7932 38.8408 8.2
      vertex 40.6318 39.1133 9.4
      vertex 39.7932 38.8408 9.4
    endloop
  endfacet
  facet normal 0.309017 -0.951056 0
    outer loop
      vertex 40.6318 39.1133 9.4
      vertex 39.7932 38.8408 8.2
      vertex 40.6318 39.1133 8.2
    endloop
  endfacet
  facet normal -0.809018 0.587784 0
    outer loop
      vertex 40.6318 37.6867 8.2
      vertex 41.15 38.4 9.4
      vertex 41.15 38.4 8.2
    endloop
  endfacet
  facet normal -0.809018 0.587784 0
    outer loop
      vertex 41.15 38.4 9.4
      vertex 40.6318 37.6867 8.2
      vertex 40.6318 37.6867 9.4
    endloop
  endfacet
  facet normal 0.309017 0.951057 -0
    outer loop
      vertex 40.6318 37.6867 8.2
      vertex 40.5121 37.7256 9.4
      vertex 40.6318 37.6867 9.4
    endloop
  endfacet
  facet normal 0.309017 0.951057 0
    outer loop
      vertex 40.5121 37.7256 9.4
      vertex 40.6318 37.6867 8.2
      vertex 40.5121 37.7256 8.2
    endloop
  endfacet
  facet normal 0 0 -1
    outer loop
      vertex 40.5121 37.7256 9.4
      vertex 39.7932 37.9592 9.4
      vertex 40.6318 37.6867 9.4
    endloop
  endfacet
  facet normal 0.923879 0.382684 0
    outer loop
      vertex 5 38.4 9.4
      vertex 4.76569 38.9657 8.2
      vertex 4.76569 38.9657 9.4
    endloop
  endfacet
  facet normal 0.923879 0.382684 0
    outer loop
      vertex 4.76569 38.9657 8.2
      vertex 5 38.4 9.4
      vertex 5 38.4 8.2
    endloop
  endfacet
  facet normal 0 0 -1
    outer loop
      vertex 5 38.4 9.4
      vertex 4.76569 38.9657 9.4
      vertex 4.26777 40.1678 9.4
    endloop
  endfacet
  facet normal 0 0 -1
    outer loop
      vertex 3.8 38 8.2
      vertex 5 38.4 8.2
      vertex 4.26777 36.6322 8.2
    endloop
  endfacet
  facet normal -0 0 -1
    outer loop
      vertex 5 38.4 8.2
      vertex 3.8 38 8.2
      vertex 4.76569 38.9657 8.2
    endloop
  endfacet
  facet normal 0 0 -1
    outer loop
      vertex 2.73176 37.6867 8.2
      vertex 3.8 38 8.2
      vertex 4.26777 36.6322 8.2
    endloop
  endfacet
  facet normal -0 0 -1
    outer loop
      vertex 3.8 38 8.2
      vertex 2.73176 37.6867 8.2
      vertex 3.25 38.4 8.2
    endloop
  endfacet
  facet normal 0 0 -1
    outer loop
      vertex 2.5 35.9 8.2
      vertex 2.73176 37.6867 8.2
      vertex 4.26777 36.6322 8.2
    endloop
  endfacet
  facet normal 0 0 -1
    outer loop
      vertex 1.2 36.4385 8.2
      vertex 2.73176 37.6867 8.2
      vertex 2.5 35.9 8.2
    endloop
  endfacet
  facet normal 0 0 -1
    outer loop
      vertex 1.2 40.3615 8.2
      vertex 1.89324 38.8408 8.2
      vertex 1.89324 37.9592 8.2
    endloop
  endfacet
  facet normal 0 0 -1
    outer loop
      vertex 1.2 40.3615 8.2
      vertex 1.89324 37.9592 8.2
      vertex 1.2 36.4385 8.2
    endloop
  endfacet
  facet normal -0 0 -1
    outer loop
      vertex 2.73176 37.6867 8.2
      vertex 1.2 36.4385 8.2
      vertex 1.89324 37.9592 8.2
    endloop
  endfacet
  facet normal 0 0 -1
    outer loop
      vertex 3.8 38 8.2
      vertex 3.25 38.4 8.2
      vertex 2.85147 38.9485 8.2
    endloop
  endfacet
  facet normal -0 0 -1
    outer loop
      vertex 2.69776 39.1022 8.2
      vertex 1.89324 38.8408 8.2
      vertex 1.67868 40.1213 8.2
    endloop
  endfacet
  facet normal 0 0 -1
    outer loop
      vertex 1.67868 40.1213 8.2
      vertex 1.2 40.3615 8.2
      vertex 2.42721 40.8699 8.2
    endloop
  endfacet
  facet normal 0 0 -1
    outer loop
      vertex 1.89324 38.8408 8.2
      vertex 1.2 40.3615 8.2
      vertex 1.67868 40.1213 8.2
    endloop
  endfacet
  facet normal 0 0 1
    outer loop
      vertex 3.25 38.4 9.4
      vertex 5 38.4 9.4
      vertex 4.26777 40.1678 9.4
    endloop
  endfacet
  facet normal 0 0 1
    outer loop
      vertex 5 38.4 9.4
      vertex 3.25 38.4 9.4
      vertex 4.26777 36.6322 9.4
    endloop
  endfacet
  facet normal 0 0 1
    outer loop
      vertex 4.26777 40.1678 9.4
      vertex 2.73176 39.1133 9.4
      vertex 3.25 38.4 9.4
    endloop
  endfacet
  facet normal 0 0 1
    outer loop
      vertex 2.5 40.9 9.4
      vertex 2.73176 39.1133 9.4
      vertex 4.26777 40.1678 9.4
    endloop
  endfacet
  facet normal 0 0 1
    outer loop
      vertex 2.5 40.9 9.4
      vertex 1.89324 38.8408 9.4
      vertex 2.73176 39.1133 9.4
    endloop
  endfacet
  facet normal 0 0 1
    outer loop
      vertex 0 38.4 9.4
      vertex 1.89324 38.8408 9.4
      vertex 0.732233 40.1678 9.4
    endloop
  endfacet
  facet normal -0 0 1
    outer loop
      vertex 0.732233 40.1678 9.4
      vertex 1.89324 38.8408 9.4
      vertex 2.5 40.9 9.4
    endloop
  endfacet
  facet normal -0 0 1
    outer loop
      vertex 2.73176 37.6867 9.4
      vertex 4.26777 36.6322 9.4
      vertex 3.25 38.4 9.4
    endloop
  endfacet
  facet normal 0 0 1
    outer loop
      vertex 2.73176 37.6867 9.4
      vertex 2.5 35.9 9.4
      vertex 4.26777 36.6322 9.4
    endloop
  endfacet
  facet normal 0 0 1
    outer loop
      vertex 1.89324 37.9592 9.4
      vertex 2.5 35.9 9.4
      vertex 2.73176 37.6867 9.4
    endloop
  endfacet
  facet normal 0 0 1
    outer loop
      vertex 1.89324 38.8408 9.4
      vertex 0 38.4 9.4
      vertex 1.89324 37.9592 9.4
    endloop
  endfacet
  facet normal 0 0 1
    outer loop
      vertex 1.89324 37.9592 9.4
      vertex 0.732233 36.6322 9.4
      vertex 2.5 35.9 9.4
    endloop
  endfacet
  facet normal 0 0 1
    outer loop
      vertex 1.89324 37.9592 9.4
      vertex 0 38.4 9.4
      vertex 0.732233 36.6322 9.4
    endloop
  endfacet
  facet normal -0.382684 0.923879 0
    outer loop
      vertex 2.42721 40.8699 8.2
      vertex 1.2 40.3615 9.4
      vertex 2.42721 40.8699 9.4
    endloop
  endfacet
  facet normal -0.382684 0.923879 0
    outer loop
      vertex 1.2 40.3615 9.4
      vertex 2.42721 40.8699 8.2
      vertex 1.2 40.3615 8.2
    endloop
  endfacet
  facet normal 0 0 1
    outer loop
      vertex 2.42721 40.8699 9.4
      vertex 1.2 40.3615 9.4
      vertex 0.732233 40.1678 9.4
    endloop
  endfacet
  facet normal -0 0 -1
    outer loop
      vertex 2.42721 40.8699 9.4
      vertex 0.732233 40.1678 9.4
      vertex 2.5 40.9 9.4
    endloop
  endfacet
  facet normal 0.382683 -0.92388 0
    outer loop
      vertex 2.5 35.9 8.2
      vertex 4.26777 36.6322 9.4
      vertex 2.5 35.9 9.4
    endloop
  endfacet
  facet normal 0.382683 -0.92388 0
    outer loop
      vertex 4.26777 36.6322 9.4
      vertex 2.5 35.9 8.2
      vertex 4.26777 36.6322 8.2
    endloop
  endfacet
  facet normal 0.92388 -0.382683 0
    outer loop
      vertex 4.26777 36.6322 9.4
      vertex 5 38.4 8.2
      vertex 5 38.4 9.4
    endloop
  endfacet
  facet normal 0.92388 -0.382683 0
    outer loop
      vertex 5 38.4 8.2
      vertex 4.26777 36.6322 9.4
      vertex 4.26777 36.6322 8.2
    endloop
  endfacet
  facet normal -0.382682 -0.92388 0
    outer loop
      vertex 1.2 36.4385 8.2
      vertex 2.5 35.9 9.4
      vertex 1.2 36.4385 9.4
    endloop
  endfacet
  facet normal -0.382682 -0.92388 -0
    outer loop
      vertex 2.5 35.9 9.4
      vertex 1.2 36.4385 8.2
      vertex 2.5 35.9 8.2
    endloop
  endfacet
  facet normal 0 0 1
    outer loop
      vertex 2.5 35.9 9.4
      vertex 0.732233 36.6322 9.4
      vertex 1.2 36.4385 9.4
    endloop
  endfacet
  facet normal -0.809016 -0.587787 0
    outer loop
      vertex 3.25 38.4 8.2
      vertex 2.85147 38.9485 9.4
      vertex 2.85147 38.9485 8.2
    endloop
  endfacet
  facet normal -0.809016 -0.587787 0
    outer loop
      vertex 2.85147 38.9485 9.4
      vertex 3.25 38.4 8.2
      vertex 3.25 38.4 9.4
    endloop
  endfacet
  facet normal 0 0 1
    outer loop
      vertex 3.25 38.4 9.4
      vertex 2.73176 39.1133 9.4
      vertex 2.85147 38.9485 9.4
    endloop
  endfacet
  facet normal 1 -0 0
    outer loop
      vertex 1.89324 37.9592 9.4
      vertex 1.89324 38.8408 8.2
      vertex 1.89324 38.8408 9.4
    endloop
  endfacet
  facet normal 1 0 0
    outer loop
      vertex 1.89324 38.8408 8.2
      vertex 1.89324 37.9592 9.4
      vertex 1.89324 37.9592 8.2
    endloop
  endfacet
  facet normal 0.309015 -0.951057 0
    outer loop
      vertex 1.89324 38.8408 8.2
      vertex 2.69776 39.1022 9.4
      vertex 1.89324 38.8408 9.4
    endloop
  endfacet
  facet normal 0.309015 -0.951057 0
    outer loop
      vertex 2.69776 39.1022 9.4
      vertex 1.89324 38.8408 8.2
      vertex 2.69776 39.1022 8.2
    endloop
  endfacet
  facet normal 0 0 1
    outer loop
      vertex 1.89324 38.8408 9.4
      vertex 2.69776 39.1022 9.4
      vertex 2.73176 39.1133 9.4
    endloop
  endfacet
  facet normal -0.809018 0.587784 0
    outer loop
      vertex 2.73176 37.6867 8.2
      vertex 3.25 38.4 9.4
      vertex 3.25 38.4 8.2
    endloop
  endfacet
  facet normal -0.809018 0.587784 0
    outer loop
      vertex 3.25 38.4 9.4
      vertex 2.73176 37.6867 8.2
      vertex 2.73176 37.6867 9.4
    endloop
  endfacet
  facet normal 0.309017 0.951056 -0
    outer loop
      vertex 2.73176 37.6867 8.2
      vertex 1.89324 37.9592 9.4
      vertex 2.73176 37.6867 9.4
    endloop
  endfacet
  facet normal 0.309017 0.951056 0
    outer loop
      vertex 1.89324 37.9592 9.4
      vertex 2.73176 37.6867 8.2
      vertex 1.89324 37.9592 8.2
    endloop
  endfacet
  facet normal 0 1 -0
    outer loop
      vertex 31.1574 31.16 8.2
      vertex 27 31.16 9.4
      vertex 31.1574 31.16 9.4
    endloop
  endfacet
  facet normal 0 1 0
    outer loop
      vertex 27 31.16 9.4
      vertex 31.1574 31.16 8.2
      vertex 27 31.16 8.2
    endloop
  endfacet
  facet normal 0 1 -0
    outer loop
      vertex 2.75736 31.16 8.2
      vertex 1.2 31.16 9.4
      vertex 2.75736 31.16 9.4
    endloop
  endfacet
  facet normal 0 1 0
    outer loop
      vertex 1.2 31.16 9.4
      vertex 2.75736 31.16 8.2
      vertex 1.2 31.16 8.2
    endloop
  endfacet
  facet normal 0 1 -0
    outer loop
      vertex 12.7574 31.16 8.2
      vertex 7 31.16 9.4
      vertex 12.7574 31.16 9.4
    endloop
  endfacet
  facet normal 0 1 0
    outer loop
      vertex 7 31.16 9.4
      vertex 12.7574 31.16 8.2
      vertex 7 31.16 8.2
    endloop
  endfacet
  facet normal 0 1 -0
    outer loop
      vertex 22.7574 31.16 8.2
      vertex 17 31.16 9.4
      vertex 22.7574 31.16 9.4
    endloop
  endfacet
  facet normal 0 1 0
    outer loop
      vertex 17 31.16 9.4
      vertex 22.7574 31.16 8.2
      vertex 17 31.16 8.2
    endloop
  endfacet
  facet normal 0 0 -1
    outer loop
      vertex 1.67868 40.1213 8.2
      vertex 11.88 46.08 8.2
      vertex 3.8 38 8.2
    endloop
  endfacet
  facet normal -0 0 -1
    outer loop
      vertex 11.88 46.08 8.2
      vertex 1.67868 40.1213 8.2
      vertex 10.5 48.9426 8.2
    endloop
  endfacet
  facet normal 0 0 -1
    outer loop
      vertex 21.6777 45.8377 8.2
      vertex 17.6774 46.08 8.2
      vertex 21.4353 46.08 8.2
    endloop
  endfacet
  facet normal 0 0 -1
    outer loop
      vertex 7 31.16 8.2
      vertex 17.6774 46.08 8.2
      vertex 21.6777 45.8377 8.2
    endloop
  endfacet
  facet normal 0 0 -1
    outer loop
      vertex 17.6774 46.08 8.2
      vertex 7 31.16 8.2
      vertex 2.75736 31.16 8.2
    endloop
  endfacet
  facet normal 0 0 -1
    outer loop
      vertex 31.1574 31.16 8.2
      vertex 41.2388 36.9988 8.2
      vertex 32.4 28.16 8.2
    endloop
  endfacet
  facet normal -0 0 -1
    outer loop
      vertex 41.2388 36.9988 8.2
      vertex 31.1574 31.16 8.2
      vertex 39.1175 39.1202 8.2
    endloop
  endfacet
  facet normal 0 0 -1
    outer loop
      vertex 32.4 28.16 8.2
      vertex 27 31.16 8.2
      vertex 31.1574 31.16 8.2
    endloop
  endfacet
  facet normal 0 0 -1
    outer loop
      vertex 32.4 28.16 8.2
      vertex 22.7574 31.16 8.2
      vertex 27 31.16 8.2
    endloop
  endfacet
  facet normal 0 0 -1
    outer loop
      vertex 32.4 28.16 8.2
      vertex 17 31.16 8.2
      vertex 22.7574 31.16 8.2
    endloop
  endfacet
  facet normal 0 0 -1
    outer loop
      vertex 1.2 28.16 8.2
      vertex 17 31.16 8.2
      vertex 32.4 28.16 8.2
    endloop
  endfacet
  facet normal -0 0 -1
    outer loop
      vertex 17 31.16 8.2
      vertex 1.2 28.16 8.2
      vertex 12.7574 31.16 8.2
    endloop
  endfacet
  facet normal -0 0 -1
    outer loop
      vertex 12.7574 31.16 8.2
      vertex 1.2 28.16 8.2
      vertex 7 31.16 8.2
    endloop
  endfacet
  facet normal -0 0 -1
    outer loop
      vertex 7 31.16 8.2
      vertex 1.2 28.16 8.2
      vertex 2.75736 31.16 8.2
    endloop
  endfacet
  facet normal -0 0 -1
    outer loop
      vertex 2.75736 31.16 8.2
      vertex 1.2 28.16 8.2
      vertex 1.2 31.16 8.2
    endloop
  endfacet
  facet normal 0 0 -1
    outer loop
      vertex 31.6777 45.8377 8.2
      vertex 27.6774 46.08 8.2
      vertex 31.4353 46.08 8.2
    endloop
  endfacet
  facet normal 0 0 -1
    outer loop
      vertex 17 31.16 8.2
      vertex 27.6774 46.08 8.2
      vertex 31.6777 45.8377 8.2
    endloop
  endfacet
  facet normal 0 0 -1
    outer loop
      vertex 27.6774 46.08 8.2
      vertex 17 31.16 8.2
      vertex 12.7574 31.16 8.2
    endloop
  endfacet
  facet normal 0 0 -1
    outer loop
      vertex 41.6777 45.8377 8.2
      vertex 37.6774 46.08 8.2
      vertex 41.4353 46.08 8.2
    endloop
  endfacet
  facet normal 0 0 -1
    outer loop
      vertex 27 31.16 8.2
      vertex 37.6774 46.08 8.2
      vertex 41.6777 45.8377 8.2
    endloop
  endfacet
  facet normal 0 0 -1
    outer loop
      vertex 37.6774 46.08 8.2
      vertex 27 31.16 8.2
      vertex 22.7574 31.16 8.2
    endloop
  endfacet
  facet normal 0 0 -1
    outer loop
      vertex 41.4353 46.08 8.2
      vertex 41.7 49.08 8.2
      vertex 41.7 46.08 8.2
    endloop
  endfacet
  facet normal 0 0 -1
    outer loop
      vertex 37.6774 46.08 8.2
      vertex 41.7 49.08 8.2
      vertex 41.4353 46.08 8.2
    endloop
  endfacet
  facet normal 0 0 -1
    outer loop
      vertex 31.4353 46.08 8.2
      vertex 41.7 49.08 8.2
      vertex 37.6774 46.08 8.2
    endloop
  endfacet
  facet normal 0 0 -1
    outer loop
      vertex 27.6774 46.08 8.2
      vertex 41.7 49.08 8.2
      vertex 31.4353 46.08 8.2
    endloop
  endfacet
  facet normal 0 0 -1
    outer loop
      vertex 10.5 49.08 8.2
      vertex 27.6774 46.08 8.2
      vertex 21.4353 46.08 8.2
    endloop
  endfacet
  facet normal 0 0 -1
    outer loop
      vertex 10.5 49.08 8.2
      vertex 21.4353 46.08 8.2
      vertex 17.6774 46.08 8.2
    endloop
  endfacet
  facet normal 0 0 -1
    outer loop
      vertex 10.5 49.08 8.2
      vertex 17.6774 46.08 8.2
      vertex 11.88 46.08 8.2
    endloop
  endfacet
  facet normal 0 0 -1
    outer loop
      vertex 10.5 49.08 8.2
      vertex 11.88 46.08 8.2
      vertex 10.5 48.9426 8.2
    endloop
  endfacet
  facet normal 0 0 -1
    outer loop
      vertex 27.6774 46.08 8.2
      vertex 10.5 49.08 8.2
      vertex 41.7 49.08 8.2
    endloop
  endfacet
  facet normal 0 -1 0
    outer loop
      vertex 1.2 28.16 8.2
      vertex 32.4 28.16 9.4
      vertex 1.2 28.16 9.4
    endloop
  endfacet
  facet normal 0 -1 -0
    outer loop
      vertex 32.4 28.16 9.4
      vertex 1.2 28.16 8.2
      vertex 32.4 28.16 8.2
    endloop
  endfacet
  facet normal 0.707109 0.707105 0
    outer loop
      vertex 40.5121 37.7256 9.4
      vertex 39.7932 38.4444 8.2
      vertex 39.7932 38.4444 9.4
    endloop
  endfacet
  facet normal 0.707109 0.707105 0
    outer loop
      vertex 39.7932 38.4444 8.2
      vertex 40.5121 37.7256 9.4
      vertex 40.5121 37.7256 8.2
    endloop
  endfacet
  facet normal -0 -0 1
    outer loop
      vertex 40.5121 37.7256 8.2
      vertex 41.2388 36.9988 8.2
      vertex 39.1175 39.1202 8.2
    endloop
  endfacet
  facet normal 0 0 -1
    outer loop
      vertex 40.5121 37.7256 8.2
      vertex 39.1175 39.1202 8.2
      vertex 39.7932 38.4444 8.2
    endloop
  endfacet
  facet normal -0.707107 0.707107 0
    outer loop
      vertex 31.1574 31.16 8.2
      vertex 38.0457 38.0483 9.4
      vertex 38.0457 38.0483 8.2
    endloop
  endfacet
  facet normal -0.707107 0.707107 0
    outer loop
      vertex 38.0457 38.0483 9.4
      vertex 31.1574 31.16 8.2
      vertex 31.1574 31.16 9.4
    endloop
  endfacet
  facet normal 0 0 0
    outer loop
      vertex 38.0457 38.0483 8.2
      vertex 39.1175 39.1202 8.2
      vertex 31.1574 31.16 8.2
    endloop
  endfacet
  facet normal 0.707107 -0.707107 0
    outer loop
      vertex 32.4 28.16 9.4
      vertex 40.2162 35.9762 8.2
      vertex 40.2162 35.9762 9.4
    endloop
  endfacet
  facet normal 0.707107 -0.707107 0
    outer loop
      vertex 40.2162 35.9762 8.2
      vertex 32.4 28.16 9.4
      vertex 32.4 28.16 8.2
    endloop
  endfacet
  facet normal 0 0 0
    outer loop
      vertex 40.2162 35.9762 8.2
      vertex 32.4 28.16 8.2
      vertex 41.2388 36.9988 8.2
    endloop
  endfacet
  facet normal -1 0 0
    outer loop
      vertex 10.5 48.9426 8.2
      vertex 10.5 49.08 9.4
      vertex 10.5 49.08 8.2
    endloop
  endfacet
  facet normal -1 -0 0
    outer loop
      vertex 10.5 49.08 9.4
      vertex 10.5 48.9426 8.2
      vertex 10.5 48.9426 9.4
    endloop
  endfacet
  facet normal 0 -1 0
    outer loop
      vertex 11.88 46.08 8.2
      vertex 17.6774 46.08 9.4
      vertex 11.88 46.08 9.4
    endloop
  endfacet
  facet normal 0 -1 -0
    outer loop
      vertex 17.6774 46.08 9.4
      vertex 11.88 46.08 8.2
      vertex 17.6774 46.08 8.2
    endloop
  endfacet
  facet normal 0 -1 0
    outer loop
      vertex 21.4353 46.08 8.2
      vertex 27.6774 46.08 9.4
      vertex 21.4353 46.08 9.4
    endloop
  endfacet
  facet normal 0 -1 -0
    outer loop
      vertex 27.6774 46.08 9.4
      vertex 21.4353 46.08 8.2
      vertex 27.6774 46.08 8.2
    endloop
  endfacet
  facet normal 0 -1 0
    outer loop
      vertex 31.4353 46.08 8.2
      vertex 37.6774 46.08 9.4
      vertex 31.4353 46.08 9.4
    endloop
  endfacet
  facet normal 0 -1 -0
    outer loop
      vertex 37.6774 46.08 9.4
      vertex 31.4353 46.08 8.2
      vertex 37.6774 46.08 8.2
    endloop
  endfacet
  facet normal 0 -1 0
    outer loop
      vertex 41.4353 46.08 8.2
      vertex 41.7 46.08 9.4
      vertex 41.4353 46.08 9.4
    endloop
  endfacet
  facet normal 0 -1 -0
    outer loop
      vertex 41.7 46.08 9.4
      vertex 41.4353 46.08 8.2
      vertex 41.7 46.08 8.2
    endloop
  endfacet
  facet normal 0 1 -0
    outer loop
      vertex 41.7 49.08 8.2
      vertex 10.5 49.08 9.4
      vertex 41.7 49.08 9.4
    endloop
  endfacet
  facet normal 0 1 0
    outer loop
      vertex 10.5 49.08 9.4
      vertex 41.7 49.08 8.2
      vertex 10.5 49.08 8.2
    endloop
  endfacet
  facet normal -0.707107 0.707107 0
    outer loop
      vertex 2.42721 40.8699 8.2
      vertex 10.5 48.9426 9.4
      vertex 10.5 48.9426 8.2
    endloop
  endfacet
  facet normal -0.707107 0.707107 0
    outer loop
      vertex 10.5 48.9426 9.4
      vertex 2.42721 40.8699 8.2
      vertex 2.42721 40.8699 9.4
    endloop
  endfacet
  facet normal 0 -0 -1
    outer loop
      vertex 2.42721 40.8699 8.2
      vertex 10.5 48.9426 8.2
      vertex 1.67868 40.1213 8.2
    endloop
  endfacet
  facet normal -0.707102 -0.707112 0
    outer loop
      vertex 2.69776 39.1022 8.2
      vertex 2.85147 38.9485 9.4
      vertex 2.69776 39.1022 9.4
    endloop
  endfacet
  facet normal -0.707102 -0.707112 -0
    outer loop
      vertex 2.85147 38.9485 9.4
      vertex 2.69776 39.1022 8.2
      vertex 2.85147 38.9485 8.2
    endloop
  endfacet
  facet normal 0 0 -1
    outer loop
      vertex 2.69776 39.1022 8.2
      vertex 1.67868 40.1213 8.2
      vertex 3.8 38 8.2
    endloop
  endfacet
  facet normal 0 0 1
    outer loop
      vertex 2.69776 39.1022 8.2
      vertex 3.8 38 8.2
      vertex 2.85147 38.9485 8.2
    endloop
  endfacet
  facet normal 0.707107 -0.707107 0
    outer loop
      vertex 4.76569 38.9657 9.4
      vertex 11.88 46.08 8.2
      vertex 11.88 46.08 9.4
    endloop
  endfacet
  facet normal 0.707107 -0.707107 0
    outer loop
      vertex 11.88 46.08 8.2
      vertex 4.76569 38.9657 9.4
      vertex 4.76569 38.9657 8.2
    endloop
  endfacet
  facet normal 0 0 1
    outer loop
      vertex 11.88 46.08 8.2
      vertex 4.76569 38.9657 8.2
      vertex 3.8 38 8.2
    endloop
  endfacet
  facet normal 0.70711 0.707104 0
    outer loop
      vertex 21.6777 45.8377 9.4
      vertex 21.4353 46.08 8.2
      vertex 21.4353 46.08 9.4
    endloop
  endfacet
  facet normal 0.70711 0.707104 0
    outer loop
      vertex 21.4353 46.08 8.2
      vertex 21.6777 45.8377 9.4
      vertex 21.6777 45.8377 8.2
    endloop
  endfacet
  facet normal 0.707107 -0.707107 0
    outer loop
      vertex 7 31.16 9.4
      vertex 21.6777 45.8377 8.2
      vertex 21.6777 45.8377 9.4
    endloop
  endfacet
  facet normal 0.707107 -0.707107 0
    outer loop
      vertex 21.6777 45.8377 8.2
      vertex 7 31.16 9.4
      vertex 7 31.16 8.2
    endloop
  endfacet
  facet normal -0.707107 0.707107 0
    outer loop
      vertex 2.75736 31.16 8.2
      vertex 17.6774 46.08 9.4
      vertex 17.6774 46.08 8.2
    endloop
  endfacet
  facet normal -0.707107 0.707107 0
    outer loop
      vertex 17.6774 46.08 9.4
      vertex 2.75736 31.16 8.2
      vertex 2.75736 31.16 9.4
    endloop
  endfacet
  facet normal 0.70711 0.707104 0
    outer loop
      vertex 31.6777 45.8377 9.4
      vertex 31.4353 46.08 8.2
      vertex 31.4353 46.08 9.4
    endloop
  endfacet
  facet normal 0.70711 0.707104 0
    outer loop
      vertex 31.4353 46.08 8.2
      vertex 31.6777 45.8377 9.4
      vertex 31.6777 45.8377 8.2
    endloop
  endfacet
  facet normal -0.707107 0.707107 0
    outer loop
      vertex 12.7574 31.16 8.2
      vertex 27.6774 46.08 9.4
      vertex 27.6774 46.08 8.2
    endloop
  endfacet
  facet normal -0.707107 0.707107 0
    outer loop
      vertex 27.6774 46.08 9.4
      vertex 12.7574 31.16 8.2
      vertex 12.7574 31.16 9.4
    endloop
  endfacet
  facet normal 0.707107 -0.707107 0
    outer loop
      vertex 17 31.16 9.4
      vertex 31.6777 45.8377 8.2
      vertex 31.6777 45.8377 9.4
    endloop
  endfacet
  facet normal 0.707107 -0.707107 0
    outer loop
      vertex 31.6777 45.8377 8.2
      vertex 17 31.16 9.4
      vertex 17 31.16 8.2
    endloop
  endfacet
  facet normal 0.707107 0.707107 0
    outer loop
      vertex 41.6777 45.8377 9.4
      vertex 41.4353 46.08 8.2
      vertex 41.4353 46.08 9.4
    endloop
  endfacet
  facet normal 0.707107 0.707107 0
    outer loop
      vertex 41.4353 46.08 8.2
      vertex 41.6777 45.8377 9.4
      vertex 41.6777 45.8377 8.2
    endloop
  endfacet
  facet normal 0.707107 -0.707107 0
    outer loop
      vertex 27 31.16 9.4
      vertex 41.6777 45.8377 8.2
      vertex 41.6777 45.8377 9.4
    endloop
  endfacet
  facet normal 0.707107 -0.707107 0
    outer loop
      vertex 41.6777 45.8377 8.2
      vertex 27 31.16 9.4
      vertex 27 31.16 8.2
    endloop
  endfacet
  facet normal -0.707107 0.707107 0
    outer loop
      vertex 22.7574 31.16 8.2
      vertex 37.6774 46.08 9.4
      vertex 37.6774 46.08 8.2
    endloop
  endfacet
  facet normal -0.707107 0.707107 0
    outer loop
      vertex 37.6774 46.08 9.4
      vertex 22.7574 31.16 8.2
      vertex 22.7574 31.16 9.4
    endloop
  endfacet
  facet normal -0 0 1
    outer loop
      vertex 1.2 33.4 5
      vertex 2.2 23 5
      vertex 2.2 33.4 5
    endloop
  endfacet
  facet normal 0 0 1
    outer loop
      vertex 2.2 23 5
      vertex 1.2 33.4 5
      vertex 1.2 23 5
    endloop
  endfacet
  facet normal -0 0 1
    outer loop
      vertex 1.2 10 5
      vertex 2.2 1.2 5
      vertex 2.2 10 5
    endloop
  endfacet
  facet normal 0 0 1
    outer loop
      vertex 2.2 1.2 5
      vertex 1.2 10 5
      vertex 1.2 1.2 5
    endloop
  endfacet
  facet normal 1 -0 0
    outer loop
      vertex 2.2 23 5
      vertex 2.2 33.4 4
      vertex 2.2 33.4 5
    endloop
  endfacet
  facet normal 1 0 0
    outer loop
      vertex 2.2 33.4 4
      vertex 2.2 23 5
      vertex 2.2 23 4
    endloop
  endfacet
  facet normal 1 -0 0
    outer loop
      vertex 2.2 1.2 5
      vertex 2.2 10 4
      vertex 2.2 10 5
    endloop
  endfacet
  facet normal 1 0 0
    outer loop
      vertex 2.2 10 4
      vertex 2.2 1.2 5
      vertex 2.2 1.2 4
    endloop
  endfacet
  facet normal 0 0 -1
    outer loop
      vertex 1.2 23 4
      vertex 2.2 33.4 4
      vertex 2.2 23 4
    endloop
  endfacet
  facet normal -0 0 -1
    outer loop
      vertex 2.2 33.4 4
      vertex 1.2 23 4
      vertex 1.2 33.4 4
    endloop
  endfacet
  facet normal 0 0 -1
    outer loop
      vertex 1.2 1.2 4
      vertex 2.2 10 4
      vertex 2.2 1.2 4
    endloop
  endfacet
  facet normal -0 0 -1
    outer loop
      vertex 2.2 10 4
      vertex 1.2 1.2 4
      vertex 1.2 10 4
    endloop
  endfacet
  facet normal 0 1 -0
    outer loop
      vertex 2.2 33.4 4
      vertex 1.2 33.4 5
      vertex 2.2 33.4 5
    endloop
  endfacet
  facet normal 0 1 0
    outer loop
      vertex 1.2 33.4 5
      vertex 2.2 33.4 4
      vertex 1.2 33.4 4
    endloop
  endfacet
  facet normal -1 0 0
    outer loop
      vertex 40.9 1.2 4
      vertex 40.9 51.2 5
      vertex 40.9 51.2 4
    endloop
  endfacet
  facet normal -1 -0 0
    outer loop
      vertex 40.9 51.2 5
      vertex 40.9 1.2 4
      vertex 40.9 1.2 5
    endloop
  endfacet
  facet normal -0 0 1
    outer loop
      vertex 40.9 51.2 5
      vertex 41.7 1.2 5
      vertex 41.7 51.2 5
    endloop
  endfacet
  facet normal 0 0 1
    outer loop
      vertex 41.7 1.2 5
      vertex 40.9 51.2 5
      vertex 40.9 1.2 5
    endloop
  endfacet
  facet normal 0 0 -1
    outer loop
      vertex 40.9 1.2 4
      vertex 41.7 51.2 4
      vertex 41.7 1.2 4
    endloop
  endfacet
  facet normal -0 0 -1
    outer loop
      vertex 41.7 51.2 4
      vertex 40.9 1.2 4
      vertex 40.9 51.2 4
    endloop
  endfacet
  facet normal 0 0 -1
    outer loop
      vertex 1.2 1.2 8.2
      vertex 41.7 25 8.2
      vertex 41.7 1.2 8.2
    endloop
  endfacet
  facet normal -0 0 -1
    outer loop
      vertex 41.7 25 8.2
      vertex 1.2 1.2 8.2
      vertex 1.2 25 8.2
    endloop
  endfacet
  facet normal 0 1 -0
    outer loop
      vertex 41.7 25 8.2
      vertex 1.2 25 9.4
      vertex 41.7 25 9.4
    endloop
  endfacet
  facet normal 0 1 0
    outer loop
      vertex 1.2 25 9.4
      vertex 41.7 25 8.2
      vertex 1.2 25 8.2
    endloop
  endfacet
  facet normal 0 0 -1
    outer loop
      vertex 0 10 7
      vertex 1.2 23 7
      vertex 1.2 10 7
    endloop
  endfacet
  facet normal -0 0 -1
    outer loop
      vertex 1.2 23 7
      vertex 0 10 7
      vertex 0 23 7
    endloop
  endfacet
  facet normal -0 0 1
    outer loop
      vertex 0 23 3
      vertex 1.2 10 3
      vertex 1.2 23 3
    endloop
  endfacet
  facet normal 0 0 1
    outer loop
      vertex 1.2 10 3
      vertex 0 23 3
      vertex 0 10 3
    endloop
  endfacet
  facet normal 0 1 0
    outer loop
      vertex 2.2 10 5
      vertex 2.2 10 4
      vertex 1.2 10 5
    endloop
  endfacet
  facet normal 0 1 -0
    outer loop
      vertex 1.2 10 5
      vertex 0 10 7
      vertex 1.2 10 7
    endloop
  endfacet
  facet normal 0 1 0
    outer loop
      vertex 1.2 10 4
      vertex 1.2 10 5
      vertex 2.2 10 4
    endloop
  endfacet
  facet normal 0 1 0
    outer loop
      vertex 0 10 3
      vertex 1.2 10 5
      vertex 1.2 10 4
    endloop
  endfacet
  facet normal 0 1 0
    outer loop
      vertex 0 10 3
      vertex 1.2 10 4
      vertex 1.2 10 3
    endloop
  endfacet
  facet normal 0 1 0
    outer loop
      vertex 1.2 10 5
      vertex 0 10 3
      vertex 0 10 7
    endloop
  endfacet
  facet normal 0 -1 0
    outer loop
      vertex 0 23 7
      vertex 1.2 23 5
      vertex 1.2 23 7
    endloop
  endfacet
  facet normal 0 -1 0
    outer loop
      vertex 1.2 23 5
      vertex 1.2 23 4
      vertex 2.2 23 5
    endloop
  endfacet
  facet normal 0 -1 0
    outer loop
      vertex 0 23 3
      vertex 1.2 23 5
      vertex 0 23 7
    endloop
  endfacet
  facet normal 0 -1 -0
    outer loop
      vertex 1.2 23 5
      vertex 0 23 3
      vertex 1.2 23 4
    endloop
  endfacet
  facet normal 0 -1 -0
    outer loop
      vertex 1.2 23 4
      vertex 0 23 3
      vertex 1.2 23 3
    endloop
  endfacet
  facet normal 0 -1 -0
    outer loop
      vertex 2.2 23 5
      vertex 1.2 23 4
      vertex 2.2 23 4
    endloop
  endfacet
  facet normal -0.965926 0 -0.25882
    outer loop
      vertex 8.5 51.2 4.5
      vertex 8.02439 52.4 6.275
      vertex 8.5 52.4 4.5
    endloop
  endfacet
  facet normal -0.965926 -0 -0.25882
    outer loop
      vertex 8.02439 52.4 6.275
      vertex 8.5 51.2 4.5
      vertex 8.02439 51.2 6.275
    endloop
  endfacet
  facet normal 0.258819 0 -0.965926
    outer loop
      vertex 3.175 51.2 7.57439
      vertex 4.95 52.4 8.05
      vertex 4.95 51.2 8.05
    endloop
  endfacet
  facet normal 0.258819 0 -0.965926
    outer loop
      vertex 4.95 52.4 8.05
      vertex 3.175 51.2 7.57439
      vertex 3.175 52.4 7.57439
    endloop
  endfacet
  facet normal -0.965926 0 0.258819
    outer loop
      vertex 8.02439 51.2 2.725
      vertex 8.5 52.4 4.5
      vertex 8.02439 52.4 2.725
    endloop
  endfacet
  facet normal -0.965926 0 0.258819
    outer loop
      vertex 8.5 52.4 4.5
      vertex 8.02439 51.2 2.725
      vertex 8.5 51.2 4.5
    endloop
  endfacet
  facet normal -0.707107 0 0.707107
    outer loop
      vertex 6.725 51.2 1.42561
      vertex 8.02439 52.4 2.725
      vertex 6.725 52.4 1.42561
    endloop
  endfacet
  facet normal -0.707107 0 0.707107
    outer loop
      vertex 8.02439 52.4 2.725
      vertex 6.725 51.2 1.42561
      vertex 8.02439 51.2 2.725
    endloop
  endfacet
  facet normal -0.258819 0 0.965926
    outer loop
      vertex 4.95 52.4 0.95
      vertex 6.725 51.2 1.42561
      vertex 6.725 52.4 1.42561
    endloop
  endfacet
  facet normal -0.258819 0 0.965926
    outer loop
      vertex 6.725 51.2 1.42561
      vertex 4.95 52.4 0.95
      vertex 4.95 51.2 0.95
    endloop
  endfacet
  facet normal -0.258819 0 -0.965926
    outer loop
      vertex 4.95 51.2 8.05
      vertex 6.725 52.4 7.57439
      vertex 6.725 51.2 7.57439
    endloop
  endfacet
  facet normal -0.258819 0 -0.965926
    outer loop
      vertex 6.725 52.4 7.57439
      vertex 4.95 51.2 8.05
      vertex 4.95 52.4 8.05
    endloop
  endfacet
  facet normal 0.965926 -0 0.258819
    outer loop
      vertex 1.4 51.2 4.5
      vertex 1.87561 52.4 2.725
      vertex 1.4 52.4 4.5
    endloop
  endfacet
  facet normal 0.965926 0 0.258819
    outer loop
      vertex 1.87561 52.4 2.725
      vertex 1.4 51.2 4.5
      vertex 1.87561 51.2 2.725
    endloop
  endfacet
  facet normal 0.707107 -0 0.707107
    outer loop
      vertex 1.87561 51.2 2.725
      vertex 3.175 52.4 1.42561
      vertex 1.87561 52.4 2.725
    endloop
  endfacet
  facet normal 0.707107 0 0.707107
    outer loop
      vertex 3.175 52.4 1.42561
      vertex 1.87561 51.2 2.725
      vertex 3.175 51.2 1.42561
    endloop
  endfacet
  facet normal -0.707107 0 -0.707107
    outer loop
      vertex 8.02439 51.2 6.275
      vertex 6.725 52.4 7.57439
      vertex 8.02439 52.4 6.275
    endloop
  endfacet
  facet normal -0.707107 -0 -0.707107
    outer loop
      vertex 6.725 52.4 7.57439
      vertex 8.02439 51.2 6.275
      vertex 6.725 51.2 7.57439
    endloop
  endfacet
  facet normal 0.707107 0 -0.707107
    outer loop
      vertex 3.175 51.2 7.57439
      vertex 1.87561 52.4 6.275
      vertex 3.175 52.4 7.57439
    endloop
  endfacet
  facet normal 0.707107 0 -0.707107
    outer loop
      vertex 1.87561 52.4 6.275
      vertex 3.175 51.2 7.57439
      vertex 1.87561 51.2 6.275
    endloop
  endfacet
  facet normal 0.965926 0 -0.258819
    outer loop
      vertex 1.87561 51.2 6.275
      vertex 1.4 52.4 4.5
      vertex 1.87561 52.4 6.275
    endloop
  endfacet
  facet normal 0.965926 0 -0.258819
    outer loop
      vertex 1.4 52.4 4.5
      vertex 1.87561 51.2 6.275
      vertex 1.4 51.2 4.5
    endloop
  endfacet
  facet normal 0.258819 0 0.965926
    outer loop
      vertex 3.175 52.4 1.42561
      vertex 4.95 51.2 0.95
      vertex 4.95 52.4 0.95
    endloop
  endfacet
  facet normal 0.258819 0 0.965926
    outer loop
      vertex 4.95 51.2 0.95
      vertex 3.175 52.4 1.42561
      vertex 3.175 51.2 1.42561
    endloop
  endfacet
endsolid OpenSCAD_Model
