G75*
%MOIN*%
%OFA0B0*%
%FSLAX25Y25*%
%IPPOS*%
%LPD*%
%AMOC8*
5,1,8,0,0,1.08239X$1,22.5*
%
%ADD10C,0.00000*%
%ADD11C,0.00100*%
D10*
X0016811Y0005000D02*
X0249094Y0005000D01*
X0249379Y0005003D01*
X0249665Y0005014D01*
X0249950Y0005031D01*
X0250234Y0005055D01*
X0250518Y0005086D01*
X0250801Y0005124D01*
X0251082Y0005169D01*
X0251363Y0005220D01*
X0251643Y0005278D01*
X0251921Y0005343D01*
X0252197Y0005415D01*
X0252471Y0005493D01*
X0252744Y0005578D01*
X0253014Y0005670D01*
X0253282Y0005768D01*
X0253548Y0005872D01*
X0253811Y0005983D01*
X0254071Y0006100D01*
X0254329Y0006223D01*
X0254583Y0006353D01*
X0254834Y0006489D01*
X0255082Y0006630D01*
X0255326Y0006778D01*
X0255567Y0006931D01*
X0255803Y0007091D01*
X0256036Y0007256D01*
X0256265Y0007426D01*
X0256490Y0007602D01*
X0256710Y0007784D01*
X0256926Y0007970D01*
X0257137Y0008162D01*
X0257344Y0008359D01*
X0257546Y0008561D01*
X0257743Y0008768D01*
X0257935Y0008979D01*
X0258121Y0009195D01*
X0258303Y0009415D01*
X0258479Y0009640D01*
X0258649Y0009869D01*
X0258814Y0010102D01*
X0258974Y0010338D01*
X0259127Y0010579D01*
X0259275Y0010823D01*
X0259416Y0011071D01*
X0259552Y0011322D01*
X0259682Y0011576D01*
X0259805Y0011834D01*
X0259922Y0012094D01*
X0260033Y0012357D01*
X0260137Y0012623D01*
X0260235Y0012891D01*
X0260327Y0013161D01*
X0260412Y0013434D01*
X0260490Y0013708D01*
X0260562Y0013984D01*
X0260627Y0014262D01*
X0260685Y0014542D01*
X0260736Y0014823D01*
X0260781Y0015104D01*
X0260819Y0015387D01*
X0260850Y0015671D01*
X0260874Y0015955D01*
X0260891Y0016240D01*
X0260902Y0016526D01*
X0260905Y0016811D01*
X0260906Y0016811D02*
X0260906Y0215630D01*
X0260905Y0215630D02*
X0260902Y0215915D01*
X0260891Y0216201D01*
X0260874Y0216486D01*
X0260850Y0216770D01*
X0260819Y0217054D01*
X0260781Y0217337D01*
X0260736Y0217618D01*
X0260685Y0217899D01*
X0260627Y0218179D01*
X0260562Y0218457D01*
X0260490Y0218733D01*
X0260412Y0219007D01*
X0260327Y0219280D01*
X0260235Y0219550D01*
X0260137Y0219818D01*
X0260033Y0220084D01*
X0259922Y0220347D01*
X0259805Y0220607D01*
X0259682Y0220865D01*
X0259552Y0221119D01*
X0259416Y0221370D01*
X0259275Y0221618D01*
X0259127Y0221862D01*
X0258974Y0222103D01*
X0258814Y0222339D01*
X0258649Y0222572D01*
X0258479Y0222801D01*
X0258303Y0223026D01*
X0258121Y0223246D01*
X0257935Y0223462D01*
X0257743Y0223673D01*
X0257546Y0223880D01*
X0257344Y0224082D01*
X0257137Y0224279D01*
X0256926Y0224471D01*
X0256710Y0224657D01*
X0256490Y0224839D01*
X0256265Y0225015D01*
X0256036Y0225185D01*
X0255803Y0225350D01*
X0255567Y0225510D01*
X0255326Y0225663D01*
X0255082Y0225811D01*
X0254834Y0225952D01*
X0254583Y0226088D01*
X0254329Y0226218D01*
X0254071Y0226341D01*
X0253811Y0226458D01*
X0253548Y0226569D01*
X0253282Y0226673D01*
X0253014Y0226771D01*
X0252744Y0226863D01*
X0252471Y0226948D01*
X0252197Y0227026D01*
X0251921Y0227098D01*
X0251643Y0227163D01*
X0251363Y0227221D01*
X0251082Y0227272D01*
X0250801Y0227317D01*
X0250518Y0227355D01*
X0250234Y0227386D01*
X0249950Y0227410D01*
X0249665Y0227427D01*
X0249379Y0227438D01*
X0249094Y0227441D01*
X0016811Y0227441D01*
X0016526Y0227438D01*
X0016240Y0227427D01*
X0015955Y0227410D01*
X0015671Y0227386D01*
X0015387Y0227355D01*
X0015104Y0227317D01*
X0014823Y0227272D01*
X0014542Y0227221D01*
X0014262Y0227163D01*
X0013984Y0227098D01*
X0013708Y0227026D01*
X0013434Y0226948D01*
X0013161Y0226863D01*
X0012891Y0226771D01*
X0012623Y0226673D01*
X0012357Y0226569D01*
X0012094Y0226458D01*
X0011834Y0226341D01*
X0011576Y0226218D01*
X0011322Y0226088D01*
X0011071Y0225952D01*
X0010823Y0225811D01*
X0010579Y0225663D01*
X0010338Y0225510D01*
X0010102Y0225350D01*
X0009869Y0225185D01*
X0009640Y0225015D01*
X0009415Y0224839D01*
X0009195Y0224657D01*
X0008979Y0224471D01*
X0008768Y0224279D01*
X0008561Y0224082D01*
X0008359Y0223880D01*
X0008162Y0223673D01*
X0007970Y0223462D01*
X0007784Y0223246D01*
X0007602Y0223026D01*
X0007426Y0222801D01*
X0007256Y0222572D01*
X0007091Y0222339D01*
X0006931Y0222103D01*
X0006778Y0221862D01*
X0006630Y0221618D01*
X0006489Y0221370D01*
X0006353Y0221119D01*
X0006223Y0220865D01*
X0006100Y0220607D01*
X0005983Y0220347D01*
X0005872Y0220084D01*
X0005768Y0219818D01*
X0005670Y0219550D01*
X0005578Y0219280D01*
X0005493Y0219007D01*
X0005415Y0218733D01*
X0005343Y0218457D01*
X0005278Y0218179D01*
X0005220Y0217899D01*
X0005169Y0217618D01*
X0005124Y0217337D01*
X0005086Y0217054D01*
X0005055Y0216770D01*
X0005031Y0216486D01*
X0005014Y0216201D01*
X0005003Y0215915D01*
X0005000Y0215630D01*
X0005000Y0016811D01*
X0005003Y0016526D01*
X0005014Y0016240D01*
X0005031Y0015955D01*
X0005055Y0015671D01*
X0005086Y0015387D01*
X0005124Y0015104D01*
X0005169Y0014823D01*
X0005220Y0014542D01*
X0005278Y0014262D01*
X0005343Y0013984D01*
X0005415Y0013708D01*
X0005493Y0013434D01*
X0005578Y0013161D01*
X0005670Y0012891D01*
X0005768Y0012623D01*
X0005872Y0012357D01*
X0005983Y0012094D01*
X0006100Y0011834D01*
X0006223Y0011576D01*
X0006353Y0011322D01*
X0006489Y0011071D01*
X0006630Y0010823D01*
X0006778Y0010579D01*
X0006931Y0010338D01*
X0007091Y0010102D01*
X0007256Y0009869D01*
X0007426Y0009640D01*
X0007602Y0009415D01*
X0007784Y0009195D01*
X0007970Y0008979D01*
X0008162Y0008768D01*
X0008359Y0008561D01*
X0008561Y0008359D01*
X0008768Y0008162D01*
X0008979Y0007970D01*
X0009195Y0007784D01*
X0009415Y0007602D01*
X0009640Y0007426D01*
X0009869Y0007256D01*
X0010102Y0007091D01*
X0010338Y0006931D01*
X0010579Y0006778D01*
X0010823Y0006630D01*
X0011071Y0006489D01*
X0011322Y0006353D01*
X0011576Y0006223D01*
X0011834Y0006100D01*
X0012094Y0005983D01*
X0012357Y0005872D01*
X0012623Y0005768D01*
X0012891Y0005670D01*
X0013161Y0005578D01*
X0013434Y0005493D01*
X0013708Y0005415D01*
X0013984Y0005343D01*
X0014262Y0005278D01*
X0014542Y0005220D01*
X0014823Y0005169D01*
X0015104Y0005124D01*
X0015387Y0005086D01*
X0015671Y0005055D01*
X0015955Y0005031D01*
X0016240Y0005014D01*
X0016526Y0005003D01*
X0016811Y0005000D01*
X0013268Y0018780D02*
X0013270Y0018928D01*
X0013276Y0019076D01*
X0013286Y0019224D01*
X0013300Y0019371D01*
X0013318Y0019518D01*
X0013339Y0019664D01*
X0013365Y0019810D01*
X0013395Y0019955D01*
X0013428Y0020099D01*
X0013466Y0020242D01*
X0013507Y0020384D01*
X0013552Y0020525D01*
X0013600Y0020665D01*
X0013653Y0020804D01*
X0013709Y0020941D01*
X0013769Y0021076D01*
X0013832Y0021210D01*
X0013899Y0021342D01*
X0013970Y0021472D01*
X0014044Y0021600D01*
X0014121Y0021726D01*
X0014202Y0021850D01*
X0014286Y0021972D01*
X0014373Y0022091D01*
X0014464Y0022208D01*
X0014558Y0022323D01*
X0014654Y0022435D01*
X0014754Y0022545D01*
X0014856Y0022651D01*
X0014962Y0022755D01*
X0015070Y0022856D01*
X0015181Y0022954D01*
X0015294Y0023050D01*
X0015410Y0023142D01*
X0015528Y0023231D01*
X0015649Y0023316D01*
X0015772Y0023399D01*
X0015897Y0023478D01*
X0016024Y0023554D01*
X0016153Y0023626D01*
X0016284Y0023695D01*
X0016417Y0023760D01*
X0016552Y0023821D01*
X0016688Y0023879D01*
X0016825Y0023934D01*
X0016964Y0023984D01*
X0017105Y0024031D01*
X0017246Y0024074D01*
X0017389Y0024114D01*
X0017533Y0024149D01*
X0017677Y0024181D01*
X0017823Y0024208D01*
X0017969Y0024232D01*
X0018116Y0024252D01*
X0018263Y0024268D01*
X0018410Y0024280D01*
X0018558Y0024288D01*
X0018706Y0024292D01*
X0018854Y0024292D01*
X0019002Y0024288D01*
X0019150Y0024280D01*
X0019297Y0024268D01*
X0019444Y0024252D01*
X0019591Y0024232D01*
X0019737Y0024208D01*
X0019883Y0024181D01*
X0020027Y0024149D01*
X0020171Y0024114D01*
X0020314Y0024074D01*
X0020455Y0024031D01*
X0020596Y0023984D01*
X0020735Y0023934D01*
X0020872Y0023879D01*
X0021008Y0023821D01*
X0021143Y0023760D01*
X0021276Y0023695D01*
X0021407Y0023626D01*
X0021536Y0023554D01*
X0021663Y0023478D01*
X0021788Y0023399D01*
X0021911Y0023316D01*
X0022032Y0023231D01*
X0022150Y0023142D01*
X0022266Y0023050D01*
X0022379Y0022954D01*
X0022490Y0022856D01*
X0022598Y0022755D01*
X0022704Y0022651D01*
X0022806Y0022545D01*
X0022906Y0022435D01*
X0023002Y0022323D01*
X0023096Y0022208D01*
X0023187Y0022091D01*
X0023274Y0021972D01*
X0023358Y0021850D01*
X0023439Y0021726D01*
X0023516Y0021600D01*
X0023590Y0021472D01*
X0023661Y0021342D01*
X0023728Y0021210D01*
X0023791Y0021076D01*
X0023851Y0020941D01*
X0023907Y0020804D01*
X0023960Y0020665D01*
X0024008Y0020525D01*
X0024053Y0020384D01*
X0024094Y0020242D01*
X0024132Y0020099D01*
X0024165Y0019955D01*
X0024195Y0019810D01*
X0024221Y0019664D01*
X0024242Y0019518D01*
X0024260Y0019371D01*
X0024274Y0019224D01*
X0024284Y0019076D01*
X0024290Y0018928D01*
X0024292Y0018780D01*
X0024290Y0018632D01*
X0024284Y0018484D01*
X0024274Y0018336D01*
X0024260Y0018189D01*
X0024242Y0018042D01*
X0024221Y0017896D01*
X0024195Y0017750D01*
X0024165Y0017605D01*
X0024132Y0017461D01*
X0024094Y0017318D01*
X0024053Y0017176D01*
X0024008Y0017035D01*
X0023960Y0016895D01*
X0023907Y0016756D01*
X0023851Y0016619D01*
X0023791Y0016484D01*
X0023728Y0016350D01*
X0023661Y0016218D01*
X0023590Y0016088D01*
X0023516Y0015960D01*
X0023439Y0015834D01*
X0023358Y0015710D01*
X0023274Y0015588D01*
X0023187Y0015469D01*
X0023096Y0015352D01*
X0023002Y0015237D01*
X0022906Y0015125D01*
X0022806Y0015015D01*
X0022704Y0014909D01*
X0022598Y0014805D01*
X0022490Y0014704D01*
X0022379Y0014606D01*
X0022266Y0014510D01*
X0022150Y0014418D01*
X0022032Y0014329D01*
X0021911Y0014244D01*
X0021788Y0014161D01*
X0021663Y0014082D01*
X0021536Y0014006D01*
X0021407Y0013934D01*
X0021276Y0013865D01*
X0021143Y0013800D01*
X0021008Y0013739D01*
X0020872Y0013681D01*
X0020735Y0013626D01*
X0020596Y0013576D01*
X0020455Y0013529D01*
X0020314Y0013486D01*
X0020171Y0013446D01*
X0020027Y0013411D01*
X0019883Y0013379D01*
X0019737Y0013352D01*
X0019591Y0013328D01*
X0019444Y0013308D01*
X0019297Y0013292D01*
X0019150Y0013280D01*
X0019002Y0013272D01*
X0018854Y0013268D01*
X0018706Y0013268D01*
X0018558Y0013272D01*
X0018410Y0013280D01*
X0018263Y0013292D01*
X0018116Y0013308D01*
X0017969Y0013328D01*
X0017823Y0013352D01*
X0017677Y0013379D01*
X0017533Y0013411D01*
X0017389Y0013446D01*
X0017246Y0013486D01*
X0017105Y0013529D01*
X0016964Y0013576D01*
X0016825Y0013626D01*
X0016688Y0013681D01*
X0016552Y0013739D01*
X0016417Y0013800D01*
X0016284Y0013865D01*
X0016153Y0013934D01*
X0016024Y0014006D01*
X0015897Y0014082D01*
X0015772Y0014161D01*
X0015649Y0014244D01*
X0015528Y0014329D01*
X0015410Y0014418D01*
X0015294Y0014510D01*
X0015181Y0014606D01*
X0015070Y0014704D01*
X0014962Y0014805D01*
X0014856Y0014909D01*
X0014754Y0015015D01*
X0014654Y0015125D01*
X0014558Y0015237D01*
X0014464Y0015352D01*
X0014373Y0015469D01*
X0014286Y0015588D01*
X0014202Y0015710D01*
X0014121Y0015834D01*
X0014044Y0015960D01*
X0013970Y0016088D01*
X0013899Y0016218D01*
X0013832Y0016350D01*
X0013769Y0016484D01*
X0013709Y0016619D01*
X0013653Y0016756D01*
X0013600Y0016895D01*
X0013552Y0017035D01*
X0013507Y0017176D01*
X0013466Y0017318D01*
X0013428Y0017461D01*
X0013395Y0017605D01*
X0013365Y0017750D01*
X0013339Y0017896D01*
X0013318Y0018042D01*
X0013300Y0018189D01*
X0013286Y0018336D01*
X0013276Y0018484D01*
X0013270Y0018632D01*
X0013268Y0018780D01*
X0005000Y0053000D02*
X0005000Y0128000D01*
X0024685Y0144764D02*
X0024683Y0144888D01*
X0024677Y0145011D01*
X0024668Y0145135D01*
X0024654Y0145257D01*
X0024637Y0145380D01*
X0024615Y0145502D01*
X0024590Y0145623D01*
X0024561Y0145743D01*
X0024529Y0145862D01*
X0024492Y0145981D01*
X0024452Y0146098D01*
X0024409Y0146213D01*
X0024361Y0146328D01*
X0024310Y0146440D01*
X0024256Y0146551D01*
X0024198Y0146661D01*
X0024137Y0146768D01*
X0024072Y0146874D01*
X0024004Y0146977D01*
X0023933Y0147078D01*
X0023859Y0147177D01*
X0023782Y0147274D01*
X0023701Y0147368D01*
X0023618Y0147459D01*
X0023532Y0147548D01*
X0023443Y0147634D01*
X0023352Y0147717D01*
X0023258Y0147798D01*
X0023161Y0147875D01*
X0023062Y0147949D01*
X0022961Y0148020D01*
X0022858Y0148088D01*
X0022752Y0148153D01*
X0022645Y0148214D01*
X0022535Y0148272D01*
X0022424Y0148326D01*
X0022312Y0148377D01*
X0022197Y0148425D01*
X0022082Y0148468D01*
X0021965Y0148508D01*
X0021846Y0148545D01*
X0021727Y0148577D01*
X0021607Y0148606D01*
X0021486Y0148631D01*
X0021364Y0148653D01*
X0021241Y0148670D01*
X0021119Y0148684D01*
X0020995Y0148693D01*
X0020872Y0148699D01*
X0020748Y0148701D01*
X0005000Y0148701D01*
X0024685Y0144764D02*
X0024685Y0085709D01*
X0024683Y0085585D01*
X0024677Y0085462D01*
X0024668Y0085338D01*
X0024654Y0085216D01*
X0024637Y0085093D01*
X0024615Y0084971D01*
X0024590Y0084850D01*
X0024561Y0084730D01*
X0024529Y0084611D01*
X0024492Y0084492D01*
X0024452Y0084375D01*
X0024409Y0084260D01*
X0024361Y0084145D01*
X0024310Y0084033D01*
X0024256Y0083922D01*
X0024198Y0083812D01*
X0024137Y0083705D01*
X0024072Y0083599D01*
X0024004Y0083496D01*
X0023933Y0083395D01*
X0023859Y0083296D01*
X0023782Y0083199D01*
X0023701Y0083105D01*
X0023618Y0083014D01*
X0023532Y0082925D01*
X0023443Y0082839D01*
X0023352Y0082756D01*
X0023258Y0082675D01*
X0023161Y0082598D01*
X0023062Y0082524D01*
X0022961Y0082453D01*
X0022858Y0082385D01*
X0022752Y0082320D01*
X0022645Y0082259D01*
X0022535Y0082201D01*
X0022424Y0082147D01*
X0022312Y0082096D01*
X0022197Y0082048D01*
X0022082Y0082005D01*
X0021965Y0081965D01*
X0021846Y0081928D01*
X0021727Y0081896D01*
X0021607Y0081867D01*
X0021486Y0081842D01*
X0021364Y0081820D01*
X0021241Y0081803D01*
X0021119Y0081789D01*
X0020995Y0081780D01*
X0020872Y0081774D01*
X0020748Y0081772D01*
X0005394Y0081772D01*
X0005000Y0082000D02*
X0005000Y0082500D01*
X0013268Y0211693D02*
X0013270Y0211841D01*
X0013276Y0211989D01*
X0013286Y0212137D01*
X0013300Y0212284D01*
X0013318Y0212431D01*
X0013339Y0212577D01*
X0013365Y0212723D01*
X0013395Y0212868D01*
X0013428Y0213012D01*
X0013466Y0213155D01*
X0013507Y0213297D01*
X0013552Y0213438D01*
X0013600Y0213578D01*
X0013653Y0213717D01*
X0013709Y0213854D01*
X0013769Y0213989D01*
X0013832Y0214123D01*
X0013899Y0214255D01*
X0013970Y0214385D01*
X0014044Y0214513D01*
X0014121Y0214639D01*
X0014202Y0214763D01*
X0014286Y0214885D01*
X0014373Y0215004D01*
X0014464Y0215121D01*
X0014558Y0215236D01*
X0014654Y0215348D01*
X0014754Y0215458D01*
X0014856Y0215564D01*
X0014962Y0215668D01*
X0015070Y0215769D01*
X0015181Y0215867D01*
X0015294Y0215963D01*
X0015410Y0216055D01*
X0015528Y0216144D01*
X0015649Y0216229D01*
X0015772Y0216312D01*
X0015897Y0216391D01*
X0016024Y0216467D01*
X0016153Y0216539D01*
X0016284Y0216608D01*
X0016417Y0216673D01*
X0016552Y0216734D01*
X0016688Y0216792D01*
X0016825Y0216847D01*
X0016964Y0216897D01*
X0017105Y0216944D01*
X0017246Y0216987D01*
X0017389Y0217027D01*
X0017533Y0217062D01*
X0017677Y0217094D01*
X0017823Y0217121D01*
X0017969Y0217145D01*
X0018116Y0217165D01*
X0018263Y0217181D01*
X0018410Y0217193D01*
X0018558Y0217201D01*
X0018706Y0217205D01*
X0018854Y0217205D01*
X0019002Y0217201D01*
X0019150Y0217193D01*
X0019297Y0217181D01*
X0019444Y0217165D01*
X0019591Y0217145D01*
X0019737Y0217121D01*
X0019883Y0217094D01*
X0020027Y0217062D01*
X0020171Y0217027D01*
X0020314Y0216987D01*
X0020455Y0216944D01*
X0020596Y0216897D01*
X0020735Y0216847D01*
X0020872Y0216792D01*
X0021008Y0216734D01*
X0021143Y0216673D01*
X0021276Y0216608D01*
X0021407Y0216539D01*
X0021536Y0216467D01*
X0021663Y0216391D01*
X0021788Y0216312D01*
X0021911Y0216229D01*
X0022032Y0216144D01*
X0022150Y0216055D01*
X0022266Y0215963D01*
X0022379Y0215867D01*
X0022490Y0215769D01*
X0022598Y0215668D01*
X0022704Y0215564D01*
X0022806Y0215458D01*
X0022906Y0215348D01*
X0023002Y0215236D01*
X0023096Y0215121D01*
X0023187Y0215004D01*
X0023274Y0214885D01*
X0023358Y0214763D01*
X0023439Y0214639D01*
X0023516Y0214513D01*
X0023590Y0214385D01*
X0023661Y0214255D01*
X0023728Y0214123D01*
X0023791Y0213989D01*
X0023851Y0213854D01*
X0023907Y0213717D01*
X0023960Y0213578D01*
X0024008Y0213438D01*
X0024053Y0213297D01*
X0024094Y0213155D01*
X0024132Y0213012D01*
X0024165Y0212868D01*
X0024195Y0212723D01*
X0024221Y0212577D01*
X0024242Y0212431D01*
X0024260Y0212284D01*
X0024274Y0212137D01*
X0024284Y0211989D01*
X0024290Y0211841D01*
X0024292Y0211693D01*
X0024290Y0211545D01*
X0024284Y0211397D01*
X0024274Y0211249D01*
X0024260Y0211102D01*
X0024242Y0210955D01*
X0024221Y0210809D01*
X0024195Y0210663D01*
X0024165Y0210518D01*
X0024132Y0210374D01*
X0024094Y0210231D01*
X0024053Y0210089D01*
X0024008Y0209948D01*
X0023960Y0209808D01*
X0023907Y0209669D01*
X0023851Y0209532D01*
X0023791Y0209397D01*
X0023728Y0209263D01*
X0023661Y0209131D01*
X0023590Y0209001D01*
X0023516Y0208873D01*
X0023439Y0208747D01*
X0023358Y0208623D01*
X0023274Y0208501D01*
X0023187Y0208382D01*
X0023096Y0208265D01*
X0023002Y0208150D01*
X0022906Y0208038D01*
X0022806Y0207928D01*
X0022704Y0207822D01*
X0022598Y0207718D01*
X0022490Y0207617D01*
X0022379Y0207519D01*
X0022266Y0207423D01*
X0022150Y0207331D01*
X0022032Y0207242D01*
X0021911Y0207157D01*
X0021788Y0207074D01*
X0021663Y0206995D01*
X0021536Y0206919D01*
X0021407Y0206847D01*
X0021276Y0206778D01*
X0021143Y0206713D01*
X0021008Y0206652D01*
X0020872Y0206594D01*
X0020735Y0206539D01*
X0020596Y0206489D01*
X0020455Y0206442D01*
X0020314Y0206399D01*
X0020171Y0206359D01*
X0020027Y0206324D01*
X0019883Y0206292D01*
X0019737Y0206265D01*
X0019591Y0206241D01*
X0019444Y0206221D01*
X0019297Y0206205D01*
X0019150Y0206193D01*
X0019002Y0206185D01*
X0018854Y0206181D01*
X0018706Y0206181D01*
X0018558Y0206185D01*
X0018410Y0206193D01*
X0018263Y0206205D01*
X0018116Y0206221D01*
X0017969Y0206241D01*
X0017823Y0206265D01*
X0017677Y0206292D01*
X0017533Y0206324D01*
X0017389Y0206359D01*
X0017246Y0206399D01*
X0017105Y0206442D01*
X0016964Y0206489D01*
X0016825Y0206539D01*
X0016688Y0206594D01*
X0016552Y0206652D01*
X0016417Y0206713D01*
X0016284Y0206778D01*
X0016153Y0206847D01*
X0016024Y0206919D01*
X0015897Y0206995D01*
X0015772Y0207074D01*
X0015649Y0207157D01*
X0015528Y0207242D01*
X0015410Y0207331D01*
X0015294Y0207423D01*
X0015181Y0207519D01*
X0015070Y0207617D01*
X0014962Y0207718D01*
X0014856Y0207822D01*
X0014754Y0207928D01*
X0014654Y0208038D01*
X0014558Y0208150D01*
X0014464Y0208265D01*
X0014373Y0208382D01*
X0014286Y0208501D01*
X0014202Y0208623D01*
X0014121Y0208747D01*
X0014044Y0208873D01*
X0013970Y0209001D01*
X0013899Y0209131D01*
X0013832Y0209263D01*
X0013769Y0209397D01*
X0013709Y0209532D01*
X0013653Y0209669D01*
X0013600Y0209808D01*
X0013552Y0209948D01*
X0013507Y0210089D01*
X0013466Y0210231D01*
X0013428Y0210374D01*
X0013395Y0210518D01*
X0013365Y0210663D01*
X0013339Y0210809D01*
X0013318Y0210955D01*
X0013300Y0211102D01*
X0013286Y0211249D01*
X0013276Y0211397D01*
X0013270Y0211545D01*
X0013268Y0211693D01*
X0178228Y0079803D02*
X0178228Y0020748D01*
X0178230Y0020624D01*
X0178236Y0020501D01*
X0178245Y0020377D01*
X0178259Y0020255D01*
X0178276Y0020132D01*
X0178298Y0020010D01*
X0178323Y0019889D01*
X0178352Y0019769D01*
X0178384Y0019650D01*
X0178421Y0019531D01*
X0178461Y0019414D01*
X0178504Y0019299D01*
X0178552Y0019184D01*
X0178603Y0019072D01*
X0178657Y0018961D01*
X0178715Y0018851D01*
X0178776Y0018744D01*
X0178841Y0018638D01*
X0178909Y0018535D01*
X0178980Y0018434D01*
X0179054Y0018335D01*
X0179131Y0018238D01*
X0179212Y0018144D01*
X0179295Y0018053D01*
X0179381Y0017964D01*
X0179470Y0017878D01*
X0179561Y0017795D01*
X0179655Y0017714D01*
X0179752Y0017637D01*
X0179851Y0017563D01*
X0179952Y0017492D01*
X0180055Y0017424D01*
X0180161Y0017359D01*
X0180268Y0017298D01*
X0180378Y0017240D01*
X0180489Y0017186D01*
X0180601Y0017135D01*
X0180716Y0017087D01*
X0180831Y0017044D01*
X0180948Y0017004D01*
X0181067Y0016967D01*
X0181186Y0016935D01*
X0181306Y0016906D01*
X0181427Y0016881D01*
X0181549Y0016859D01*
X0181672Y0016842D01*
X0181794Y0016828D01*
X0181918Y0016819D01*
X0182041Y0016813D01*
X0182165Y0016811D01*
X0182289Y0016813D01*
X0182412Y0016819D01*
X0182536Y0016828D01*
X0182658Y0016842D01*
X0182781Y0016859D01*
X0182903Y0016881D01*
X0183024Y0016906D01*
X0183144Y0016935D01*
X0183263Y0016967D01*
X0183382Y0017004D01*
X0183499Y0017044D01*
X0183614Y0017087D01*
X0183729Y0017135D01*
X0183841Y0017186D01*
X0183952Y0017240D01*
X0184062Y0017298D01*
X0184169Y0017359D01*
X0184275Y0017424D01*
X0184378Y0017492D01*
X0184479Y0017563D01*
X0184578Y0017637D01*
X0184675Y0017714D01*
X0184769Y0017795D01*
X0184860Y0017878D01*
X0184949Y0017964D01*
X0185035Y0018053D01*
X0185118Y0018144D01*
X0185199Y0018238D01*
X0185276Y0018335D01*
X0185350Y0018434D01*
X0185421Y0018535D01*
X0185489Y0018638D01*
X0185554Y0018744D01*
X0185615Y0018851D01*
X0185673Y0018961D01*
X0185727Y0019072D01*
X0185778Y0019184D01*
X0185826Y0019299D01*
X0185869Y0019414D01*
X0185909Y0019531D01*
X0185946Y0019650D01*
X0185978Y0019769D01*
X0186007Y0019889D01*
X0186032Y0020010D01*
X0186054Y0020132D01*
X0186071Y0020255D01*
X0186085Y0020377D01*
X0186094Y0020501D01*
X0186100Y0020624D01*
X0186102Y0020748D01*
X0186102Y0079803D01*
X0186100Y0079927D01*
X0186094Y0080050D01*
X0186085Y0080174D01*
X0186071Y0080296D01*
X0186054Y0080419D01*
X0186032Y0080541D01*
X0186007Y0080662D01*
X0185978Y0080782D01*
X0185946Y0080901D01*
X0185909Y0081020D01*
X0185869Y0081137D01*
X0185826Y0081252D01*
X0185778Y0081367D01*
X0185727Y0081479D01*
X0185673Y0081590D01*
X0185615Y0081700D01*
X0185554Y0081807D01*
X0185489Y0081913D01*
X0185421Y0082016D01*
X0185350Y0082117D01*
X0185276Y0082216D01*
X0185199Y0082313D01*
X0185118Y0082407D01*
X0185035Y0082498D01*
X0184949Y0082587D01*
X0184860Y0082673D01*
X0184769Y0082756D01*
X0184675Y0082837D01*
X0184578Y0082914D01*
X0184479Y0082988D01*
X0184378Y0083059D01*
X0184275Y0083127D01*
X0184169Y0083192D01*
X0184062Y0083253D01*
X0183952Y0083311D01*
X0183841Y0083365D01*
X0183729Y0083416D01*
X0183614Y0083464D01*
X0183499Y0083507D01*
X0183382Y0083547D01*
X0183263Y0083584D01*
X0183144Y0083616D01*
X0183024Y0083645D01*
X0182903Y0083670D01*
X0182781Y0083692D01*
X0182658Y0083709D01*
X0182536Y0083723D01*
X0182412Y0083732D01*
X0182289Y0083738D01*
X0182165Y0083740D01*
X0182041Y0083738D01*
X0181918Y0083732D01*
X0181794Y0083723D01*
X0181672Y0083709D01*
X0181549Y0083692D01*
X0181427Y0083670D01*
X0181306Y0083645D01*
X0181186Y0083616D01*
X0181067Y0083584D01*
X0180948Y0083547D01*
X0180831Y0083507D01*
X0180716Y0083464D01*
X0180601Y0083416D01*
X0180489Y0083365D01*
X0180378Y0083311D01*
X0180268Y0083253D01*
X0180161Y0083192D01*
X0180055Y0083127D01*
X0179952Y0083059D01*
X0179851Y0082988D01*
X0179752Y0082914D01*
X0179655Y0082837D01*
X0179561Y0082756D01*
X0179470Y0082673D01*
X0179381Y0082587D01*
X0179295Y0082498D01*
X0179212Y0082407D01*
X0179131Y0082313D01*
X0179054Y0082216D01*
X0178980Y0082117D01*
X0178909Y0082016D01*
X0178841Y0081913D01*
X0178776Y0081807D01*
X0178715Y0081700D01*
X0178657Y0081590D01*
X0178603Y0081479D01*
X0178552Y0081367D01*
X0178504Y0081252D01*
X0178461Y0081137D01*
X0178421Y0081020D01*
X0178384Y0080901D01*
X0178352Y0080782D01*
X0178323Y0080662D01*
X0178298Y0080541D01*
X0178276Y0080419D01*
X0178259Y0080296D01*
X0178245Y0080174D01*
X0178236Y0080050D01*
X0178230Y0079927D01*
X0178228Y0079803D01*
X0241028Y0071600D02*
X0241030Y0071684D01*
X0241036Y0071767D01*
X0241046Y0071850D01*
X0241060Y0071933D01*
X0241077Y0072015D01*
X0241099Y0072096D01*
X0241124Y0072175D01*
X0241153Y0072254D01*
X0241186Y0072331D01*
X0241222Y0072406D01*
X0241262Y0072480D01*
X0241305Y0072552D01*
X0241352Y0072621D01*
X0241402Y0072688D01*
X0241455Y0072753D01*
X0241511Y0072815D01*
X0241569Y0072875D01*
X0241631Y0072932D01*
X0241695Y0072985D01*
X0241762Y0073036D01*
X0241831Y0073083D01*
X0241902Y0073128D01*
X0241975Y0073168D01*
X0242050Y0073205D01*
X0242127Y0073239D01*
X0242205Y0073269D01*
X0242284Y0073295D01*
X0242365Y0073318D01*
X0242447Y0073336D01*
X0242529Y0073351D01*
X0242612Y0073362D01*
X0242695Y0073369D01*
X0242779Y0073372D01*
X0242863Y0073371D01*
X0242946Y0073366D01*
X0243030Y0073357D01*
X0243112Y0073344D01*
X0243194Y0073328D01*
X0243275Y0073307D01*
X0243356Y0073283D01*
X0243434Y0073255D01*
X0243512Y0073223D01*
X0243588Y0073187D01*
X0243662Y0073148D01*
X0243734Y0073106D01*
X0243804Y0073060D01*
X0243872Y0073011D01*
X0243937Y0072959D01*
X0244000Y0072904D01*
X0244060Y0072846D01*
X0244118Y0072785D01*
X0244172Y0072721D01*
X0244224Y0072655D01*
X0244272Y0072587D01*
X0244317Y0072516D01*
X0244358Y0072443D01*
X0244397Y0072369D01*
X0244431Y0072293D01*
X0244462Y0072215D01*
X0244489Y0072136D01*
X0244513Y0072055D01*
X0244532Y0071974D01*
X0244548Y0071892D01*
X0244560Y0071809D01*
X0244568Y0071725D01*
X0244572Y0071642D01*
X0244572Y0071558D01*
X0244568Y0071475D01*
X0244560Y0071391D01*
X0244548Y0071308D01*
X0244532Y0071226D01*
X0244513Y0071145D01*
X0244489Y0071064D01*
X0244462Y0070985D01*
X0244431Y0070907D01*
X0244397Y0070831D01*
X0244358Y0070757D01*
X0244317Y0070684D01*
X0244272Y0070613D01*
X0244224Y0070545D01*
X0244172Y0070479D01*
X0244118Y0070415D01*
X0244060Y0070354D01*
X0244000Y0070296D01*
X0243937Y0070241D01*
X0243872Y0070189D01*
X0243804Y0070140D01*
X0243734Y0070094D01*
X0243662Y0070052D01*
X0243588Y0070013D01*
X0243512Y0069977D01*
X0243434Y0069945D01*
X0243356Y0069917D01*
X0243275Y0069893D01*
X0243194Y0069872D01*
X0243112Y0069856D01*
X0243030Y0069843D01*
X0242946Y0069834D01*
X0242863Y0069829D01*
X0242779Y0069828D01*
X0242695Y0069831D01*
X0242612Y0069838D01*
X0242529Y0069849D01*
X0242447Y0069864D01*
X0242365Y0069882D01*
X0242284Y0069905D01*
X0242205Y0069931D01*
X0242127Y0069961D01*
X0242050Y0069995D01*
X0241975Y0070032D01*
X0241902Y0070072D01*
X0241831Y0070117D01*
X0241762Y0070164D01*
X0241695Y0070215D01*
X0241631Y0070268D01*
X0241569Y0070325D01*
X0241511Y0070385D01*
X0241455Y0070447D01*
X0241402Y0070512D01*
X0241352Y0070579D01*
X0241305Y0070648D01*
X0241262Y0070720D01*
X0241222Y0070794D01*
X0241186Y0070869D01*
X0241153Y0070946D01*
X0241124Y0071025D01*
X0241099Y0071104D01*
X0241077Y0071185D01*
X0241060Y0071267D01*
X0241046Y0071350D01*
X0241036Y0071433D01*
X0241030Y0071516D01*
X0241028Y0071600D01*
X0241614Y0018780D02*
X0241616Y0018928D01*
X0241622Y0019076D01*
X0241632Y0019224D01*
X0241646Y0019371D01*
X0241664Y0019518D01*
X0241685Y0019664D01*
X0241711Y0019810D01*
X0241741Y0019955D01*
X0241774Y0020099D01*
X0241812Y0020242D01*
X0241853Y0020384D01*
X0241898Y0020525D01*
X0241946Y0020665D01*
X0241999Y0020804D01*
X0242055Y0020941D01*
X0242115Y0021076D01*
X0242178Y0021210D01*
X0242245Y0021342D01*
X0242316Y0021472D01*
X0242390Y0021600D01*
X0242467Y0021726D01*
X0242548Y0021850D01*
X0242632Y0021972D01*
X0242719Y0022091D01*
X0242810Y0022208D01*
X0242904Y0022323D01*
X0243000Y0022435D01*
X0243100Y0022545D01*
X0243202Y0022651D01*
X0243308Y0022755D01*
X0243416Y0022856D01*
X0243527Y0022954D01*
X0243640Y0023050D01*
X0243756Y0023142D01*
X0243874Y0023231D01*
X0243995Y0023316D01*
X0244118Y0023399D01*
X0244243Y0023478D01*
X0244370Y0023554D01*
X0244499Y0023626D01*
X0244630Y0023695D01*
X0244763Y0023760D01*
X0244898Y0023821D01*
X0245034Y0023879D01*
X0245171Y0023934D01*
X0245310Y0023984D01*
X0245451Y0024031D01*
X0245592Y0024074D01*
X0245735Y0024114D01*
X0245879Y0024149D01*
X0246023Y0024181D01*
X0246169Y0024208D01*
X0246315Y0024232D01*
X0246462Y0024252D01*
X0246609Y0024268D01*
X0246756Y0024280D01*
X0246904Y0024288D01*
X0247052Y0024292D01*
X0247200Y0024292D01*
X0247348Y0024288D01*
X0247496Y0024280D01*
X0247643Y0024268D01*
X0247790Y0024252D01*
X0247937Y0024232D01*
X0248083Y0024208D01*
X0248229Y0024181D01*
X0248373Y0024149D01*
X0248517Y0024114D01*
X0248660Y0024074D01*
X0248801Y0024031D01*
X0248942Y0023984D01*
X0249081Y0023934D01*
X0249218Y0023879D01*
X0249354Y0023821D01*
X0249489Y0023760D01*
X0249622Y0023695D01*
X0249753Y0023626D01*
X0249882Y0023554D01*
X0250009Y0023478D01*
X0250134Y0023399D01*
X0250257Y0023316D01*
X0250378Y0023231D01*
X0250496Y0023142D01*
X0250612Y0023050D01*
X0250725Y0022954D01*
X0250836Y0022856D01*
X0250944Y0022755D01*
X0251050Y0022651D01*
X0251152Y0022545D01*
X0251252Y0022435D01*
X0251348Y0022323D01*
X0251442Y0022208D01*
X0251533Y0022091D01*
X0251620Y0021972D01*
X0251704Y0021850D01*
X0251785Y0021726D01*
X0251862Y0021600D01*
X0251936Y0021472D01*
X0252007Y0021342D01*
X0252074Y0021210D01*
X0252137Y0021076D01*
X0252197Y0020941D01*
X0252253Y0020804D01*
X0252306Y0020665D01*
X0252354Y0020525D01*
X0252399Y0020384D01*
X0252440Y0020242D01*
X0252478Y0020099D01*
X0252511Y0019955D01*
X0252541Y0019810D01*
X0252567Y0019664D01*
X0252588Y0019518D01*
X0252606Y0019371D01*
X0252620Y0019224D01*
X0252630Y0019076D01*
X0252636Y0018928D01*
X0252638Y0018780D01*
X0252636Y0018632D01*
X0252630Y0018484D01*
X0252620Y0018336D01*
X0252606Y0018189D01*
X0252588Y0018042D01*
X0252567Y0017896D01*
X0252541Y0017750D01*
X0252511Y0017605D01*
X0252478Y0017461D01*
X0252440Y0017318D01*
X0252399Y0017176D01*
X0252354Y0017035D01*
X0252306Y0016895D01*
X0252253Y0016756D01*
X0252197Y0016619D01*
X0252137Y0016484D01*
X0252074Y0016350D01*
X0252007Y0016218D01*
X0251936Y0016088D01*
X0251862Y0015960D01*
X0251785Y0015834D01*
X0251704Y0015710D01*
X0251620Y0015588D01*
X0251533Y0015469D01*
X0251442Y0015352D01*
X0251348Y0015237D01*
X0251252Y0015125D01*
X0251152Y0015015D01*
X0251050Y0014909D01*
X0250944Y0014805D01*
X0250836Y0014704D01*
X0250725Y0014606D01*
X0250612Y0014510D01*
X0250496Y0014418D01*
X0250378Y0014329D01*
X0250257Y0014244D01*
X0250134Y0014161D01*
X0250009Y0014082D01*
X0249882Y0014006D01*
X0249753Y0013934D01*
X0249622Y0013865D01*
X0249489Y0013800D01*
X0249354Y0013739D01*
X0249218Y0013681D01*
X0249081Y0013626D01*
X0248942Y0013576D01*
X0248801Y0013529D01*
X0248660Y0013486D01*
X0248517Y0013446D01*
X0248373Y0013411D01*
X0248229Y0013379D01*
X0248083Y0013352D01*
X0247937Y0013328D01*
X0247790Y0013308D01*
X0247643Y0013292D01*
X0247496Y0013280D01*
X0247348Y0013272D01*
X0247200Y0013268D01*
X0247052Y0013268D01*
X0246904Y0013272D01*
X0246756Y0013280D01*
X0246609Y0013292D01*
X0246462Y0013308D01*
X0246315Y0013328D01*
X0246169Y0013352D01*
X0246023Y0013379D01*
X0245879Y0013411D01*
X0245735Y0013446D01*
X0245592Y0013486D01*
X0245451Y0013529D01*
X0245310Y0013576D01*
X0245171Y0013626D01*
X0245034Y0013681D01*
X0244898Y0013739D01*
X0244763Y0013800D01*
X0244630Y0013865D01*
X0244499Y0013934D01*
X0244370Y0014006D01*
X0244243Y0014082D01*
X0244118Y0014161D01*
X0243995Y0014244D01*
X0243874Y0014329D01*
X0243756Y0014418D01*
X0243640Y0014510D01*
X0243527Y0014606D01*
X0243416Y0014704D01*
X0243308Y0014805D01*
X0243202Y0014909D01*
X0243100Y0015015D01*
X0243000Y0015125D01*
X0242904Y0015237D01*
X0242810Y0015352D01*
X0242719Y0015469D01*
X0242632Y0015588D01*
X0242548Y0015710D01*
X0242467Y0015834D01*
X0242390Y0015960D01*
X0242316Y0016088D01*
X0242245Y0016218D01*
X0242178Y0016350D01*
X0242115Y0016484D01*
X0242055Y0016619D01*
X0241999Y0016756D01*
X0241946Y0016895D01*
X0241898Y0017035D01*
X0241853Y0017176D01*
X0241812Y0017318D01*
X0241774Y0017461D01*
X0241741Y0017605D01*
X0241711Y0017750D01*
X0241685Y0017896D01*
X0241664Y0018042D01*
X0241646Y0018189D01*
X0241632Y0018336D01*
X0241622Y0018484D01*
X0241616Y0018632D01*
X0241614Y0018780D01*
X0241614Y0211693D02*
X0241616Y0211841D01*
X0241622Y0211989D01*
X0241632Y0212137D01*
X0241646Y0212284D01*
X0241664Y0212431D01*
X0241685Y0212577D01*
X0241711Y0212723D01*
X0241741Y0212868D01*
X0241774Y0213012D01*
X0241812Y0213155D01*
X0241853Y0213297D01*
X0241898Y0213438D01*
X0241946Y0213578D01*
X0241999Y0213717D01*
X0242055Y0213854D01*
X0242115Y0213989D01*
X0242178Y0214123D01*
X0242245Y0214255D01*
X0242316Y0214385D01*
X0242390Y0214513D01*
X0242467Y0214639D01*
X0242548Y0214763D01*
X0242632Y0214885D01*
X0242719Y0215004D01*
X0242810Y0215121D01*
X0242904Y0215236D01*
X0243000Y0215348D01*
X0243100Y0215458D01*
X0243202Y0215564D01*
X0243308Y0215668D01*
X0243416Y0215769D01*
X0243527Y0215867D01*
X0243640Y0215963D01*
X0243756Y0216055D01*
X0243874Y0216144D01*
X0243995Y0216229D01*
X0244118Y0216312D01*
X0244243Y0216391D01*
X0244370Y0216467D01*
X0244499Y0216539D01*
X0244630Y0216608D01*
X0244763Y0216673D01*
X0244898Y0216734D01*
X0245034Y0216792D01*
X0245171Y0216847D01*
X0245310Y0216897D01*
X0245451Y0216944D01*
X0245592Y0216987D01*
X0245735Y0217027D01*
X0245879Y0217062D01*
X0246023Y0217094D01*
X0246169Y0217121D01*
X0246315Y0217145D01*
X0246462Y0217165D01*
X0246609Y0217181D01*
X0246756Y0217193D01*
X0246904Y0217201D01*
X0247052Y0217205D01*
X0247200Y0217205D01*
X0247348Y0217201D01*
X0247496Y0217193D01*
X0247643Y0217181D01*
X0247790Y0217165D01*
X0247937Y0217145D01*
X0248083Y0217121D01*
X0248229Y0217094D01*
X0248373Y0217062D01*
X0248517Y0217027D01*
X0248660Y0216987D01*
X0248801Y0216944D01*
X0248942Y0216897D01*
X0249081Y0216847D01*
X0249218Y0216792D01*
X0249354Y0216734D01*
X0249489Y0216673D01*
X0249622Y0216608D01*
X0249753Y0216539D01*
X0249882Y0216467D01*
X0250009Y0216391D01*
X0250134Y0216312D01*
X0250257Y0216229D01*
X0250378Y0216144D01*
X0250496Y0216055D01*
X0250612Y0215963D01*
X0250725Y0215867D01*
X0250836Y0215769D01*
X0250944Y0215668D01*
X0251050Y0215564D01*
X0251152Y0215458D01*
X0251252Y0215348D01*
X0251348Y0215236D01*
X0251442Y0215121D01*
X0251533Y0215004D01*
X0251620Y0214885D01*
X0251704Y0214763D01*
X0251785Y0214639D01*
X0251862Y0214513D01*
X0251936Y0214385D01*
X0252007Y0214255D01*
X0252074Y0214123D01*
X0252137Y0213989D01*
X0252197Y0213854D01*
X0252253Y0213717D01*
X0252306Y0213578D01*
X0252354Y0213438D01*
X0252399Y0213297D01*
X0252440Y0213155D01*
X0252478Y0213012D01*
X0252511Y0212868D01*
X0252541Y0212723D01*
X0252567Y0212577D01*
X0252588Y0212431D01*
X0252606Y0212284D01*
X0252620Y0212137D01*
X0252630Y0211989D01*
X0252636Y0211841D01*
X0252638Y0211693D01*
X0252636Y0211545D01*
X0252630Y0211397D01*
X0252620Y0211249D01*
X0252606Y0211102D01*
X0252588Y0210955D01*
X0252567Y0210809D01*
X0252541Y0210663D01*
X0252511Y0210518D01*
X0252478Y0210374D01*
X0252440Y0210231D01*
X0252399Y0210089D01*
X0252354Y0209948D01*
X0252306Y0209808D01*
X0252253Y0209669D01*
X0252197Y0209532D01*
X0252137Y0209397D01*
X0252074Y0209263D01*
X0252007Y0209131D01*
X0251936Y0209001D01*
X0251862Y0208873D01*
X0251785Y0208747D01*
X0251704Y0208623D01*
X0251620Y0208501D01*
X0251533Y0208382D01*
X0251442Y0208265D01*
X0251348Y0208150D01*
X0251252Y0208038D01*
X0251152Y0207928D01*
X0251050Y0207822D01*
X0250944Y0207718D01*
X0250836Y0207617D01*
X0250725Y0207519D01*
X0250612Y0207423D01*
X0250496Y0207331D01*
X0250378Y0207242D01*
X0250257Y0207157D01*
X0250134Y0207074D01*
X0250009Y0206995D01*
X0249882Y0206919D01*
X0249753Y0206847D01*
X0249622Y0206778D01*
X0249489Y0206713D01*
X0249354Y0206652D01*
X0249218Y0206594D01*
X0249081Y0206539D01*
X0248942Y0206489D01*
X0248801Y0206442D01*
X0248660Y0206399D01*
X0248517Y0206359D01*
X0248373Y0206324D01*
X0248229Y0206292D01*
X0248083Y0206265D01*
X0247937Y0206241D01*
X0247790Y0206221D01*
X0247643Y0206205D01*
X0247496Y0206193D01*
X0247348Y0206185D01*
X0247200Y0206181D01*
X0247052Y0206181D01*
X0246904Y0206185D01*
X0246756Y0206193D01*
X0246609Y0206205D01*
X0246462Y0206221D01*
X0246315Y0206241D01*
X0246169Y0206265D01*
X0246023Y0206292D01*
X0245879Y0206324D01*
X0245735Y0206359D01*
X0245592Y0206399D01*
X0245451Y0206442D01*
X0245310Y0206489D01*
X0245171Y0206539D01*
X0245034Y0206594D01*
X0244898Y0206652D01*
X0244763Y0206713D01*
X0244630Y0206778D01*
X0244499Y0206847D01*
X0244370Y0206919D01*
X0244243Y0206995D01*
X0244118Y0207074D01*
X0243995Y0207157D01*
X0243874Y0207242D01*
X0243756Y0207331D01*
X0243640Y0207423D01*
X0243527Y0207519D01*
X0243416Y0207617D01*
X0243308Y0207718D01*
X0243202Y0207822D01*
X0243100Y0207928D01*
X0243000Y0208038D01*
X0242904Y0208150D01*
X0242810Y0208265D01*
X0242719Y0208382D01*
X0242632Y0208501D01*
X0242548Y0208623D01*
X0242467Y0208747D01*
X0242390Y0208873D01*
X0242316Y0209001D01*
X0242245Y0209131D01*
X0242178Y0209263D01*
X0242115Y0209397D01*
X0242055Y0209532D01*
X0241999Y0209669D01*
X0241946Y0209808D01*
X0241898Y0209948D01*
X0241853Y0210089D01*
X0241812Y0210231D01*
X0241774Y0210374D01*
X0241741Y0210518D01*
X0241711Y0210663D01*
X0241685Y0210809D01*
X0241664Y0210955D01*
X0241646Y0211102D01*
X0241632Y0211249D01*
X0241622Y0211397D01*
X0241616Y0211545D01*
X0241614Y0211693D01*
D11*
X0185400Y0174300D02*
X0185400Y0142800D01*
X0185398Y0142693D01*
X0185392Y0142586D01*
X0185383Y0142479D01*
X0185369Y0142373D01*
X0185352Y0142267D01*
X0185331Y0142162D01*
X0185307Y0142058D01*
X0185278Y0141955D01*
X0185246Y0141853D01*
X0185211Y0141752D01*
X0185172Y0141652D01*
X0185129Y0141554D01*
X0185083Y0141457D01*
X0185033Y0141362D01*
X0184980Y0141269D01*
X0184924Y0141178D01*
X0184864Y0141089D01*
X0184802Y0141002D01*
X0184736Y0140918D01*
X0184667Y0140835D01*
X0184596Y0140756D01*
X0184521Y0140679D01*
X0184444Y0140604D01*
X0184365Y0140533D01*
X0184282Y0140464D01*
X0184198Y0140398D01*
X0184111Y0140336D01*
X0184022Y0140276D01*
X0183931Y0140220D01*
X0183838Y0140167D01*
X0183743Y0140117D01*
X0183646Y0140071D01*
X0183548Y0140028D01*
X0183448Y0139989D01*
X0183347Y0139954D01*
X0183245Y0139922D01*
X0183142Y0139893D01*
X0183038Y0139869D01*
X0182933Y0139848D01*
X0182827Y0139831D01*
X0182721Y0139817D01*
X0182614Y0139808D01*
X0182507Y0139802D01*
X0182400Y0139800D01*
X0159400Y0139800D01*
X0156400Y0142800D02*
X0156402Y0142907D01*
X0156408Y0143014D01*
X0156417Y0143121D01*
X0156431Y0143227D01*
X0156448Y0143333D01*
X0156469Y0143438D01*
X0156493Y0143542D01*
X0156522Y0143645D01*
X0156554Y0143747D01*
X0156589Y0143848D01*
X0156628Y0143948D01*
X0156671Y0144046D01*
X0156717Y0144143D01*
X0156767Y0144238D01*
X0156820Y0144331D01*
X0156876Y0144422D01*
X0156936Y0144511D01*
X0156998Y0144598D01*
X0157064Y0144682D01*
X0157133Y0144765D01*
X0157204Y0144844D01*
X0157279Y0144921D01*
X0157356Y0144996D01*
X0157435Y0145067D01*
X0157518Y0145136D01*
X0157602Y0145202D01*
X0157689Y0145264D01*
X0157778Y0145324D01*
X0157869Y0145380D01*
X0157962Y0145433D01*
X0158057Y0145483D01*
X0158154Y0145529D01*
X0158252Y0145572D01*
X0158352Y0145611D01*
X0158453Y0145646D01*
X0158555Y0145678D01*
X0158658Y0145707D01*
X0158762Y0145731D01*
X0158867Y0145752D01*
X0158973Y0145769D01*
X0159079Y0145783D01*
X0159186Y0145792D01*
X0159293Y0145798D01*
X0159400Y0145800D01*
X0179400Y0145800D01*
X0179400Y0174300D01*
X0179402Y0174407D01*
X0179408Y0174514D01*
X0179417Y0174621D01*
X0179431Y0174727D01*
X0179448Y0174833D01*
X0179469Y0174938D01*
X0179493Y0175042D01*
X0179522Y0175145D01*
X0179554Y0175247D01*
X0179589Y0175348D01*
X0179628Y0175448D01*
X0179671Y0175546D01*
X0179717Y0175643D01*
X0179767Y0175738D01*
X0179820Y0175831D01*
X0179876Y0175922D01*
X0179936Y0176011D01*
X0179998Y0176098D01*
X0180064Y0176182D01*
X0180133Y0176265D01*
X0180204Y0176344D01*
X0180279Y0176421D01*
X0180356Y0176496D01*
X0180435Y0176567D01*
X0180518Y0176636D01*
X0180602Y0176702D01*
X0180689Y0176764D01*
X0180778Y0176824D01*
X0180869Y0176880D01*
X0180962Y0176933D01*
X0181057Y0176983D01*
X0181154Y0177029D01*
X0181252Y0177072D01*
X0181352Y0177111D01*
X0181453Y0177146D01*
X0181555Y0177178D01*
X0181658Y0177207D01*
X0181762Y0177231D01*
X0181867Y0177252D01*
X0181973Y0177269D01*
X0182079Y0177283D01*
X0182186Y0177292D01*
X0182293Y0177298D01*
X0182400Y0177300D01*
X0182507Y0177298D01*
X0182614Y0177292D01*
X0182721Y0177283D01*
X0182827Y0177269D01*
X0182933Y0177252D01*
X0183038Y0177231D01*
X0183142Y0177207D01*
X0183245Y0177178D01*
X0183347Y0177146D01*
X0183448Y0177111D01*
X0183548Y0177072D01*
X0183646Y0177029D01*
X0183743Y0176983D01*
X0183838Y0176933D01*
X0183931Y0176880D01*
X0184022Y0176824D01*
X0184111Y0176764D01*
X0184198Y0176702D01*
X0184282Y0176636D01*
X0184365Y0176567D01*
X0184444Y0176496D01*
X0184521Y0176421D01*
X0184596Y0176344D01*
X0184667Y0176265D01*
X0184736Y0176182D01*
X0184802Y0176098D01*
X0184864Y0176011D01*
X0184924Y0175922D01*
X0184980Y0175831D01*
X0185033Y0175738D01*
X0185083Y0175643D01*
X0185129Y0175546D01*
X0185172Y0175448D01*
X0185211Y0175348D01*
X0185246Y0175247D01*
X0185278Y0175145D01*
X0185307Y0175042D01*
X0185331Y0174938D01*
X0185352Y0174833D01*
X0185369Y0174727D01*
X0185383Y0174621D01*
X0185392Y0174514D01*
X0185398Y0174407D01*
X0185400Y0174300D01*
X0166200Y0188400D02*
X0146200Y0188400D01*
X0146200Y0159900D01*
X0146198Y0159793D01*
X0146192Y0159686D01*
X0146183Y0159579D01*
X0146169Y0159473D01*
X0146152Y0159367D01*
X0146131Y0159262D01*
X0146107Y0159158D01*
X0146078Y0159055D01*
X0146046Y0158953D01*
X0146011Y0158852D01*
X0145972Y0158752D01*
X0145929Y0158654D01*
X0145883Y0158557D01*
X0145833Y0158462D01*
X0145780Y0158369D01*
X0145724Y0158278D01*
X0145664Y0158189D01*
X0145602Y0158102D01*
X0145536Y0158018D01*
X0145467Y0157935D01*
X0145396Y0157856D01*
X0145321Y0157779D01*
X0145244Y0157704D01*
X0145165Y0157633D01*
X0145082Y0157564D01*
X0144998Y0157498D01*
X0144911Y0157436D01*
X0144822Y0157376D01*
X0144731Y0157320D01*
X0144638Y0157267D01*
X0144543Y0157217D01*
X0144446Y0157171D01*
X0144348Y0157128D01*
X0144248Y0157089D01*
X0144147Y0157054D01*
X0144045Y0157022D01*
X0143942Y0156993D01*
X0143838Y0156969D01*
X0143733Y0156948D01*
X0143627Y0156931D01*
X0143521Y0156917D01*
X0143414Y0156908D01*
X0143307Y0156902D01*
X0143200Y0156900D01*
X0143093Y0156902D01*
X0142986Y0156908D01*
X0142879Y0156917D01*
X0142773Y0156931D01*
X0142667Y0156948D01*
X0142562Y0156969D01*
X0142458Y0156993D01*
X0142355Y0157022D01*
X0142253Y0157054D01*
X0142152Y0157089D01*
X0142052Y0157128D01*
X0141954Y0157171D01*
X0141857Y0157217D01*
X0141762Y0157267D01*
X0141669Y0157320D01*
X0141578Y0157376D01*
X0141489Y0157436D01*
X0141402Y0157498D01*
X0141318Y0157564D01*
X0141235Y0157633D01*
X0141156Y0157704D01*
X0141079Y0157779D01*
X0141004Y0157856D01*
X0140933Y0157935D01*
X0140864Y0158018D01*
X0140798Y0158102D01*
X0140736Y0158189D01*
X0140676Y0158278D01*
X0140620Y0158369D01*
X0140567Y0158462D01*
X0140517Y0158557D01*
X0140471Y0158654D01*
X0140428Y0158752D01*
X0140389Y0158852D01*
X0140354Y0158953D01*
X0140322Y0159055D01*
X0140293Y0159158D01*
X0140269Y0159262D01*
X0140248Y0159367D01*
X0140231Y0159473D01*
X0140217Y0159579D01*
X0140208Y0159686D01*
X0140202Y0159793D01*
X0140200Y0159900D01*
X0140200Y0191400D01*
X0140202Y0191507D01*
X0140208Y0191614D01*
X0140217Y0191721D01*
X0140231Y0191827D01*
X0140248Y0191933D01*
X0140269Y0192038D01*
X0140293Y0192142D01*
X0140322Y0192245D01*
X0140354Y0192347D01*
X0140389Y0192448D01*
X0140428Y0192548D01*
X0140471Y0192646D01*
X0140517Y0192743D01*
X0140567Y0192838D01*
X0140620Y0192931D01*
X0140676Y0193022D01*
X0140736Y0193111D01*
X0140798Y0193198D01*
X0140864Y0193282D01*
X0140933Y0193365D01*
X0141004Y0193444D01*
X0141079Y0193521D01*
X0141156Y0193596D01*
X0141235Y0193667D01*
X0141318Y0193736D01*
X0141402Y0193802D01*
X0141489Y0193864D01*
X0141578Y0193924D01*
X0141669Y0193980D01*
X0141762Y0194033D01*
X0141857Y0194083D01*
X0141954Y0194129D01*
X0142052Y0194172D01*
X0142152Y0194211D01*
X0142253Y0194246D01*
X0142355Y0194278D01*
X0142458Y0194307D01*
X0142562Y0194331D01*
X0142667Y0194352D01*
X0142773Y0194369D01*
X0142879Y0194383D01*
X0142986Y0194392D01*
X0143093Y0194398D01*
X0143200Y0194400D01*
X0166200Y0194400D01*
X0169200Y0191400D02*
X0169198Y0191293D01*
X0169192Y0191186D01*
X0169183Y0191079D01*
X0169169Y0190973D01*
X0169152Y0190867D01*
X0169131Y0190762D01*
X0169107Y0190658D01*
X0169078Y0190555D01*
X0169046Y0190453D01*
X0169011Y0190352D01*
X0168972Y0190252D01*
X0168929Y0190154D01*
X0168883Y0190057D01*
X0168833Y0189962D01*
X0168780Y0189869D01*
X0168724Y0189778D01*
X0168664Y0189689D01*
X0168602Y0189602D01*
X0168536Y0189518D01*
X0168467Y0189435D01*
X0168396Y0189356D01*
X0168321Y0189279D01*
X0168244Y0189204D01*
X0168165Y0189133D01*
X0168082Y0189064D01*
X0167998Y0188998D01*
X0167911Y0188936D01*
X0167822Y0188876D01*
X0167731Y0188820D01*
X0167638Y0188767D01*
X0167543Y0188717D01*
X0167446Y0188671D01*
X0167348Y0188628D01*
X0167248Y0188589D01*
X0167147Y0188554D01*
X0167045Y0188522D01*
X0166942Y0188493D01*
X0166838Y0188469D01*
X0166733Y0188448D01*
X0166627Y0188431D01*
X0166521Y0188417D01*
X0166414Y0188408D01*
X0166307Y0188402D01*
X0166200Y0188400D01*
X0169200Y0191400D02*
X0169198Y0191507D01*
X0169192Y0191614D01*
X0169183Y0191721D01*
X0169169Y0191827D01*
X0169152Y0191933D01*
X0169131Y0192038D01*
X0169107Y0192142D01*
X0169078Y0192245D01*
X0169046Y0192347D01*
X0169011Y0192448D01*
X0168972Y0192548D01*
X0168929Y0192646D01*
X0168883Y0192743D01*
X0168833Y0192838D01*
X0168780Y0192931D01*
X0168724Y0193022D01*
X0168664Y0193111D01*
X0168602Y0193198D01*
X0168536Y0193282D01*
X0168467Y0193365D01*
X0168396Y0193444D01*
X0168321Y0193521D01*
X0168244Y0193596D01*
X0168165Y0193667D01*
X0168082Y0193736D01*
X0167998Y0193802D01*
X0167911Y0193864D01*
X0167822Y0193924D01*
X0167731Y0193980D01*
X0167638Y0194033D01*
X0167543Y0194083D01*
X0167446Y0194129D01*
X0167348Y0194172D01*
X0167248Y0194211D01*
X0167147Y0194246D01*
X0167045Y0194278D01*
X0166942Y0194307D01*
X0166838Y0194331D01*
X0166733Y0194352D01*
X0166627Y0194369D01*
X0166521Y0194383D01*
X0166414Y0194392D01*
X0166307Y0194398D01*
X0166200Y0194400D01*
X0143200Y0194400D02*
X0143093Y0194398D01*
X0142986Y0194392D01*
X0142879Y0194383D01*
X0142773Y0194369D01*
X0142667Y0194352D01*
X0142562Y0194331D01*
X0142458Y0194307D01*
X0142355Y0194278D01*
X0142253Y0194246D01*
X0142152Y0194211D01*
X0142052Y0194172D01*
X0141954Y0194129D01*
X0141857Y0194083D01*
X0141762Y0194033D01*
X0141669Y0193980D01*
X0141578Y0193924D01*
X0141489Y0193864D01*
X0141402Y0193802D01*
X0141318Y0193736D01*
X0141235Y0193667D01*
X0141156Y0193596D01*
X0141079Y0193521D01*
X0141004Y0193444D01*
X0140933Y0193365D01*
X0140864Y0193282D01*
X0140798Y0193198D01*
X0140736Y0193111D01*
X0140676Y0193022D01*
X0140620Y0192931D01*
X0140567Y0192838D01*
X0140517Y0192743D01*
X0140471Y0192646D01*
X0140428Y0192548D01*
X0140389Y0192448D01*
X0140354Y0192347D01*
X0140322Y0192245D01*
X0140293Y0192142D01*
X0140269Y0192038D01*
X0140248Y0191933D01*
X0140231Y0191827D01*
X0140217Y0191721D01*
X0140208Y0191614D01*
X0140202Y0191507D01*
X0140200Y0191400D01*
X0156400Y0142800D02*
X0156402Y0142693D01*
X0156408Y0142586D01*
X0156417Y0142479D01*
X0156431Y0142373D01*
X0156448Y0142267D01*
X0156469Y0142162D01*
X0156493Y0142058D01*
X0156522Y0141955D01*
X0156554Y0141853D01*
X0156589Y0141752D01*
X0156628Y0141652D01*
X0156671Y0141554D01*
X0156717Y0141457D01*
X0156767Y0141362D01*
X0156820Y0141269D01*
X0156876Y0141178D01*
X0156936Y0141089D01*
X0156998Y0141002D01*
X0157064Y0140918D01*
X0157133Y0140835D01*
X0157204Y0140756D01*
X0157279Y0140679D01*
X0157356Y0140604D01*
X0157435Y0140533D01*
X0157518Y0140464D01*
X0157602Y0140398D01*
X0157689Y0140336D01*
X0157778Y0140276D01*
X0157869Y0140220D01*
X0157962Y0140167D01*
X0158057Y0140117D01*
X0158154Y0140071D01*
X0158252Y0140028D01*
X0158352Y0139989D01*
X0158453Y0139954D01*
X0158555Y0139922D01*
X0158658Y0139893D01*
X0158762Y0139869D01*
X0158867Y0139848D01*
X0158973Y0139831D01*
X0159079Y0139817D01*
X0159186Y0139808D01*
X0159293Y0139802D01*
X0159400Y0139800D01*
X0182400Y0139800D02*
X0182507Y0139802D01*
X0182614Y0139808D01*
X0182721Y0139817D01*
X0182827Y0139831D01*
X0182933Y0139848D01*
X0183038Y0139869D01*
X0183142Y0139893D01*
X0183245Y0139922D01*
X0183347Y0139954D01*
X0183448Y0139989D01*
X0183548Y0140028D01*
X0183646Y0140071D01*
X0183743Y0140117D01*
X0183838Y0140167D01*
X0183931Y0140220D01*
X0184022Y0140276D01*
X0184111Y0140336D01*
X0184198Y0140398D01*
X0184282Y0140464D01*
X0184365Y0140533D01*
X0184444Y0140604D01*
X0184521Y0140679D01*
X0184596Y0140756D01*
X0184667Y0140835D01*
X0184736Y0140918D01*
X0184802Y0141002D01*
X0184864Y0141089D01*
X0184924Y0141178D01*
X0184980Y0141269D01*
X0185033Y0141362D01*
X0185083Y0141457D01*
X0185129Y0141554D01*
X0185172Y0141652D01*
X0185211Y0141752D01*
X0185246Y0141853D01*
X0185278Y0141955D01*
X0185307Y0142058D01*
X0185331Y0142162D01*
X0185352Y0142267D01*
X0185369Y0142373D01*
X0185383Y0142479D01*
X0185392Y0142586D01*
X0185398Y0142693D01*
X0185400Y0142800D01*
X0197000Y0132600D02*
X0247600Y0132600D01*
X0247500Y0132600D02*
X0247607Y0132598D01*
X0247714Y0132592D01*
X0247821Y0132583D01*
X0247927Y0132569D01*
X0248033Y0132552D01*
X0248138Y0132531D01*
X0248242Y0132507D01*
X0248345Y0132478D01*
X0248447Y0132446D01*
X0248548Y0132411D01*
X0248648Y0132372D01*
X0248746Y0132329D01*
X0248843Y0132283D01*
X0248938Y0132233D01*
X0249031Y0132180D01*
X0249122Y0132124D01*
X0249211Y0132064D01*
X0249298Y0132002D01*
X0249382Y0131936D01*
X0249465Y0131867D01*
X0249544Y0131796D01*
X0249621Y0131721D01*
X0249696Y0131644D01*
X0249767Y0131565D01*
X0249836Y0131482D01*
X0249902Y0131398D01*
X0249964Y0131311D01*
X0250024Y0131222D01*
X0250080Y0131131D01*
X0250133Y0131038D01*
X0250183Y0130943D01*
X0250229Y0130846D01*
X0250272Y0130748D01*
X0250311Y0130648D01*
X0250346Y0130547D01*
X0250378Y0130445D01*
X0250407Y0130342D01*
X0250431Y0130238D01*
X0250452Y0130133D01*
X0250469Y0130027D01*
X0250483Y0129921D01*
X0250492Y0129814D01*
X0250498Y0129707D01*
X0250500Y0129600D01*
X0250498Y0129493D01*
X0250492Y0129386D01*
X0250483Y0129279D01*
X0250469Y0129173D01*
X0250452Y0129067D01*
X0250431Y0128962D01*
X0250407Y0128858D01*
X0250378Y0128755D01*
X0250346Y0128653D01*
X0250311Y0128552D01*
X0250272Y0128452D01*
X0250229Y0128354D01*
X0250183Y0128257D01*
X0250133Y0128162D01*
X0250080Y0128069D01*
X0250024Y0127978D01*
X0249964Y0127889D01*
X0249902Y0127802D01*
X0249836Y0127718D01*
X0249767Y0127635D01*
X0249696Y0127556D01*
X0249621Y0127479D01*
X0249544Y0127404D01*
X0249465Y0127333D01*
X0249382Y0127264D01*
X0249298Y0127198D01*
X0249211Y0127136D01*
X0249122Y0127076D01*
X0249031Y0127020D01*
X0248938Y0126967D01*
X0248843Y0126917D01*
X0248746Y0126871D01*
X0248648Y0126828D01*
X0248548Y0126789D01*
X0248447Y0126754D01*
X0248345Y0126722D01*
X0248242Y0126693D01*
X0248138Y0126669D01*
X0248033Y0126648D01*
X0247927Y0126631D01*
X0247821Y0126617D01*
X0247714Y0126608D01*
X0247607Y0126602D01*
X0247500Y0126600D01*
X0247600Y0126600D02*
X0197000Y0126600D01*
X0197100Y0126600D02*
X0196993Y0126602D01*
X0196886Y0126608D01*
X0196779Y0126617D01*
X0196673Y0126631D01*
X0196567Y0126648D01*
X0196462Y0126669D01*
X0196358Y0126693D01*
X0196255Y0126722D01*
X0196153Y0126754D01*
X0196052Y0126789D01*
X0195952Y0126828D01*
X0195854Y0126871D01*
X0195757Y0126917D01*
X0195662Y0126967D01*
X0195569Y0127020D01*
X0195478Y0127076D01*
X0195389Y0127136D01*
X0195302Y0127198D01*
X0195218Y0127264D01*
X0195135Y0127333D01*
X0195056Y0127404D01*
X0194979Y0127479D01*
X0194904Y0127556D01*
X0194833Y0127635D01*
X0194764Y0127718D01*
X0194698Y0127802D01*
X0194636Y0127889D01*
X0194576Y0127978D01*
X0194520Y0128069D01*
X0194467Y0128162D01*
X0194417Y0128257D01*
X0194371Y0128354D01*
X0194328Y0128452D01*
X0194289Y0128552D01*
X0194254Y0128653D01*
X0194222Y0128755D01*
X0194193Y0128858D01*
X0194169Y0128962D01*
X0194148Y0129067D01*
X0194131Y0129173D01*
X0194117Y0129279D01*
X0194108Y0129386D01*
X0194102Y0129493D01*
X0194100Y0129600D01*
X0194102Y0129707D01*
X0194108Y0129814D01*
X0194117Y0129921D01*
X0194131Y0130027D01*
X0194148Y0130133D01*
X0194169Y0130238D01*
X0194193Y0130342D01*
X0194222Y0130445D01*
X0194254Y0130547D01*
X0194289Y0130648D01*
X0194328Y0130748D01*
X0194371Y0130846D01*
X0194417Y0130943D01*
X0194467Y0131038D01*
X0194520Y0131131D01*
X0194576Y0131222D01*
X0194636Y0131311D01*
X0194698Y0131398D01*
X0194764Y0131482D01*
X0194833Y0131565D01*
X0194904Y0131644D01*
X0194979Y0131721D01*
X0195056Y0131796D01*
X0195135Y0131867D01*
X0195218Y0131936D01*
X0195302Y0132002D01*
X0195389Y0132064D01*
X0195478Y0132124D01*
X0195569Y0132180D01*
X0195662Y0132233D01*
X0195757Y0132283D01*
X0195854Y0132329D01*
X0195952Y0132372D01*
X0196052Y0132411D01*
X0196153Y0132446D01*
X0196255Y0132478D01*
X0196358Y0132507D01*
X0196462Y0132531D01*
X0196567Y0132552D01*
X0196673Y0132569D01*
X0196779Y0132583D01*
X0196886Y0132592D01*
X0196993Y0132598D01*
X0197100Y0132600D01*
X0084000Y0040000D02*
X0084000Y0017000D01*
X0081000Y0014000D02*
X0080893Y0014002D01*
X0080786Y0014008D01*
X0080679Y0014017D01*
X0080573Y0014031D01*
X0080467Y0014048D01*
X0080362Y0014069D01*
X0080258Y0014093D01*
X0080155Y0014122D01*
X0080053Y0014154D01*
X0079952Y0014189D01*
X0079852Y0014228D01*
X0079754Y0014271D01*
X0079657Y0014317D01*
X0079562Y0014367D01*
X0079469Y0014420D01*
X0079378Y0014476D01*
X0079289Y0014536D01*
X0079202Y0014598D01*
X0079118Y0014664D01*
X0079035Y0014733D01*
X0078956Y0014804D01*
X0078879Y0014879D01*
X0078804Y0014956D01*
X0078733Y0015035D01*
X0078664Y0015118D01*
X0078598Y0015202D01*
X0078536Y0015289D01*
X0078476Y0015378D01*
X0078420Y0015469D01*
X0078367Y0015562D01*
X0078317Y0015657D01*
X0078271Y0015754D01*
X0078228Y0015852D01*
X0078189Y0015952D01*
X0078154Y0016053D01*
X0078122Y0016155D01*
X0078093Y0016258D01*
X0078069Y0016362D01*
X0078048Y0016467D01*
X0078031Y0016573D01*
X0078017Y0016679D01*
X0078008Y0016786D01*
X0078002Y0016893D01*
X0078000Y0017000D01*
X0078000Y0037000D01*
X0049500Y0037000D01*
X0049393Y0037002D01*
X0049286Y0037008D01*
X0049179Y0037017D01*
X0049073Y0037031D01*
X0048967Y0037048D01*
X0048862Y0037069D01*
X0048758Y0037093D01*
X0048655Y0037122D01*
X0048553Y0037154D01*
X0048452Y0037189D01*
X0048352Y0037228D01*
X0048254Y0037271D01*
X0048157Y0037317D01*
X0048062Y0037367D01*
X0047969Y0037420D01*
X0047878Y0037476D01*
X0047789Y0037536D01*
X0047702Y0037598D01*
X0047618Y0037664D01*
X0047535Y0037733D01*
X0047456Y0037804D01*
X0047379Y0037879D01*
X0047304Y0037956D01*
X0047233Y0038035D01*
X0047164Y0038118D01*
X0047098Y0038202D01*
X0047036Y0038289D01*
X0046976Y0038378D01*
X0046920Y0038469D01*
X0046867Y0038562D01*
X0046817Y0038657D01*
X0046771Y0038754D01*
X0046728Y0038852D01*
X0046689Y0038952D01*
X0046654Y0039053D01*
X0046622Y0039155D01*
X0046593Y0039258D01*
X0046569Y0039362D01*
X0046548Y0039467D01*
X0046531Y0039573D01*
X0046517Y0039679D01*
X0046508Y0039786D01*
X0046502Y0039893D01*
X0046500Y0040000D01*
X0046502Y0040107D01*
X0046508Y0040214D01*
X0046517Y0040321D01*
X0046531Y0040427D01*
X0046548Y0040533D01*
X0046569Y0040638D01*
X0046593Y0040742D01*
X0046622Y0040845D01*
X0046654Y0040947D01*
X0046689Y0041048D01*
X0046728Y0041148D01*
X0046771Y0041246D01*
X0046817Y0041343D01*
X0046867Y0041438D01*
X0046920Y0041531D01*
X0046976Y0041622D01*
X0047036Y0041711D01*
X0047098Y0041798D01*
X0047164Y0041882D01*
X0047233Y0041965D01*
X0047304Y0042044D01*
X0047379Y0042121D01*
X0047456Y0042196D01*
X0047535Y0042267D01*
X0047618Y0042336D01*
X0047702Y0042402D01*
X0047789Y0042464D01*
X0047878Y0042524D01*
X0047969Y0042580D01*
X0048062Y0042633D01*
X0048157Y0042683D01*
X0048254Y0042729D01*
X0048352Y0042772D01*
X0048452Y0042811D01*
X0048553Y0042846D01*
X0048655Y0042878D01*
X0048758Y0042907D01*
X0048862Y0042931D01*
X0048967Y0042952D01*
X0049073Y0042969D01*
X0049179Y0042983D01*
X0049286Y0042992D01*
X0049393Y0042998D01*
X0049500Y0043000D01*
X0081000Y0043000D01*
X0081107Y0042998D01*
X0081214Y0042992D01*
X0081321Y0042983D01*
X0081427Y0042969D01*
X0081533Y0042952D01*
X0081638Y0042931D01*
X0081742Y0042907D01*
X0081845Y0042878D01*
X0081947Y0042846D01*
X0082048Y0042811D01*
X0082148Y0042772D01*
X0082246Y0042729D01*
X0082343Y0042683D01*
X0082438Y0042633D01*
X0082531Y0042580D01*
X0082622Y0042524D01*
X0082711Y0042464D01*
X0082798Y0042402D01*
X0082882Y0042336D01*
X0082965Y0042267D01*
X0083044Y0042196D01*
X0083121Y0042121D01*
X0083196Y0042044D01*
X0083267Y0041965D01*
X0083336Y0041882D01*
X0083402Y0041798D01*
X0083464Y0041711D01*
X0083524Y0041622D01*
X0083580Y0041531D01*
X0083633Y0041438D01*
X0083683Y0041343D01*
X0083729Y0041246D01*
X0083772Y0041148D01*
X0083811Y0041048D01*
X0083846Y0040947D01*
X0083878Y0040845D01*
X0083907Y0040742D01*
X0083931Y0040638D01*
X0083952Y0040533D01*
X0083969Y0040427D01*
X0083983Y0040321D01*
X0083992Y0040214D01*
X0083998Y0040107D01*
X0084000Y0040000D01*
X0083998Y0040107D01*
X0083992Y0040214D01*
X0083983Y0040321D01*
X0083969Y0040427D01*
X0083952Y0040533D01*
X0083931Y0040638D01*
X0083907Y0040742D01*
X0083878Y0040845D01*
X0083846Y0040947D01*
X0083811Y0041048D01*
X0083772Y0041148D01*
X0083729Y0041246D01*
X0083683Y0041343D01*
X0083633Y0041438D01*
X0083580Y0041531D01*
X0083524Y0041622D01*
X0083464Y0041711D01*
X0083402Y0041798D01*
X0083336Y0041882D01*
X0083267Y0041965D01*
X0083196Y0042044D01*
X0083121Y0042121D01*
X0083044Y0042196D01*
X0082965Y0042267D01*
X0082882Y0042336D01*
X0082798Y0042402D01*
X0082711Y0042464D01*
X0082622Y0042524D01*
X0082531Y0042580D01*
X0082438Y0042633D01*
X0082343Y0042683D01*
X0082246Y0042729D01*
X0082148Y0042772D01*
X0082048Y0042811D01*
X0081947Y0042846D01*
X0081845Y0042878D01*
X0081742Y0042907D01*
X0081638Y0042931D01*
X0081533Y0042952D01*
X0081427Y0042969D01*
X0081321Y0042983D01*
X0081214Y0042992D01*
X0081107Y0042998D01*
X0081000Y0043000D01*
X0084000Y0017000D02*
X0083998Y0016893D01*
X0083992Y0016786D01*
X0083983Y0016679D01*
X0083969Y0016573D01*
X0083952Y0016467D01*
X0083931Y0016362D01*
X0083907Y0016258D01*
X0083878Y0016155D01*
X0083846Y0016053D01*
X0083811Y0015952D01*
X0083772Y0015852D01*
X0083729Y0015754D01*
X0083683Y0015657D01*
X0083633Y0015562D01*
X0083580Y0015469D01*
X0083524Y0015378D01*
X0083464Y0015289D01*
X0083402Y0015202D01*
X0083336Y0015118D01*
X0083267Y0015035D01*
X0083196Y0014956D01*
X0083121Y0014879D01*
X0083044Y0014804D01*
X0082965Y0014733D01*
X0082882Y0014664D01*
X0082798Y0014598D01*
X0082711Y0014536D01*
X0082622Y0014476D01*
X0082531Y0014420D01*
X0082438Y0014367D01*
X0082343Y0014317D01*
X0082246Y0014271D01*
X0082148Y0014228D01*
X0082048Y0014189D01*
X0081947Y0014154D01*
X0081845Y0014122D01*
X0081742Y0014093D01*
X0081638Y0014069D01*
X0081533Y0014048D01*
X0081427Y0014031D01*
X0081321Y0014017D01*
X0081214Y0014008D01*
X0081107Y0014002D01*
X0081000Y0014000D01*
M02*
