G75*
%MOIN*%
%OFA0B0*%
%FSLAX25Y25*%
%IPPOS*%
%LPD*%
%AMOC8*
5,1,8,0,0,1.08239X$1,22.5*
%
%ADD10C,0.00300*%
%ADD11C,0.00200*%
%ADD12R,0.01500X0.00150*%
%ADD13R,0.02250X0.00150*%
%ADD14R,0.02700X0.00150*%
%ADD15R,0.03150X0.00150*%
%ADD16R,0.03450X0.00150*%
%ADD17R,0.03600X0.00150*%
%ADD18R,0.03900X0.00150*%
%ADD19R,0.04050X0.00150*%
%ADD20R,0.04200X0.00150*%
%ADD21R,0.30900X0.00150*%
%ADD22R,0.01950X0.00150*%
%ADD23R,0.33900X0.00150*%
%ADD24R,0.31200X0.00150*%
%ADD25R,0.01650X0.00150*%
%ADD26R,0.33750X0.00150*%
%ADD27R,0.31350X0.00150*%
%ADD28R,0.31500X0.00150*%
%ADD29R,0.01350X0.00150*%
%ADD30R,0.31650X0.00150*%
%ADD31R,0.31800X0.00150*%
%ADD32R,0.34200X0.00150*%
%ADD33R,0.32100X0.00150*%
%ADD34R,0.34350X0.00150*%
%ADD35R,0.32250X0.00150*%
%ADD36R,0.34500X0.00150*%
%ADD37R,0.32400X0.00150*%
%ADD38R,0.34800X0.00150*%
%ADD39R,0.32550X0.00150*%
%ADD40R,0.34950X0.00150*%
%ADD41R,0.32700X0.00150*%
%ADD42R,0.35400X0.00150*%
%ADD43R,0.33000X0.00150*%
%ADD44R,0.35850X0.00150*%
%ADD45R,0.02850X0.00150*%
%ADD46R,0.03000X0.00150*%
%ADD47R,0.02550X0.00150*%
%ADD48R,0.02400X0.00150*%
%ADD49R,0.02100X0.00150*%
%ADD50R,0.01800X0.00150*%
%ADD51R,0.01200X0.00150*%
%ADD52R,0.07500X0.00150*%
%ADD53R,0.06300X0.00150*%
%ADD54R,0.04500X0.00150*%
%ADD55R,0.07800X0.00150*%
%ADD56R,0.07050X0.00150*%
%ADD57R,0.04800X0.00150*%
%ADD58R,0.05100X0.00150*%
%ADD59R,0.05400X0.00150*%
%ADD60R,0.05700X0.00150*%
%ADD61R,0.06000X0.00150*%
%ADD62R,0.03300X0.00150*%
%ADD63R,0.07950X0.00150*%
%ADD64R,0.08250X0.00150*%
%ADD65R,0.06900X0.00150*%
%ADD66R,0.06750X0.00150*%
%ADD67R,0.08400X0.00150*%
%ADD68R,0.08550X0.00150*%
%ADD69R,0.07350X0.00150*%
%ADD70R,0.07200X0.00150*%
%ADD71R,0.08700X0.00150*%
%ADD72R,0.07650X0.00150*%
%ADD73R,0.08850X0.00150*%
%ADD74R,0.09000X0.00150*%
%ADD75R,0.08100X0.00150*%
%ADD76R,0.09300X0.00150*%
%ADD77R,0.09150X0.00150*%
%ADD78R,0.03750X0.00150*%
%ADD79R,0.04650X0.00150*%
%ADD80R,0.05850X0.00150*%
%ADD81R,0.06150X0.00150*%
%ADD82R,0.04350X0.00150*%
%ADD83R,0.06450X0.00150*%
%ADD84R,0.06600X0.00150*%
%ADD85R,0.05250X0.00150*%
%ADD86R,0.04950X0.00150*%
%ADD87R,0.25050X0.00150*%
%ADD88R,0.43950X0.00150*%
%ADD89R,0.24750X0.00150*%
%ADD90R,0.43650X0.00150*%
%ADD91R,0.24450X0.00150*%
%ADD92R,0.43500X0.00150*%
%ADD93R,0.24150X0.00150*%
%ADD94R,0.43350X0.00150*%
%ADD95R,0.23700X0.00150*%
%ADD96R,0.43200X0.00150*%
%ADD97R,0.23550X0.00150*%
%ADD98R,0.42900X0.00150*%
%ADD99R,0.23400X0.00150*%
%ADD100R,0.42750X0.00150*%
%ADD101R,0.23250X0.00150*%
%ADD102R,0.42600X0.00150*%
%ADD103R,0.42450X0.00150*%
%ADD104R,0.22950X0.00150*%
%ADD105R,0.42300X0.00150*%
%ADD106R,0.42000X0.00150*%
%ADD107R,0.41850X0.00150*%
%ADD108C,0.00400*%
%ADD109C,0.00700*%
%ADD110R,0.00200X0.00200*%
%ADD111R,0.02000X0.00200*%
%ADD112R,0.02200X0.00200*%
%ADD113R,0.02400X0.00200*%
%ADD114R,0.02600X0.00200*%
%ADD115R,0.01400X0.00200*%
%ADD116R,0.04200X0.00200*%
%ADD117R,0.01800X0.00200*%
%ADD118R,0.01600X0.00200*%
%ADD119R,0.04600X0.00200*%
%ADD120R,0.05000X0.00200*%
%ADD121R,0.05800X0.00200*%
%ADD122R,0.06000X0.00200*%
%ADD123R,0.06400X0.00200*%
%ADD124R,0.06600X0.00200*%
%ADD125R,0.07000X0.00200*%
%ADD126R,0.08000X0.00200*%
%ADD127R,0.07800X0.00200*%
%ADD128R,0.04800X0.00200*%
%ADD129R,0.07600X0.00200*%
%ADD130R,0.07400X0.00200*%
%ADD131R,0.06200X0.00200*%
%ADD132R,0.07200X0.00200*%
%ADD133R,0.03000X0.00200*%
%ADD134R,0.08800X0.00200*%
%ADD135R,0.08600X0.00200*%
%ADD136R,0.02800X0.00200*%
%ADD137R,0.03400X0.00200*%
%ADD138R,0.00600X0.00200*%
%ADD139R,0.06800X0.00200*%
%ADD140R,0.03800X0.00200*%
%ADD141R,0.03600X0.00200*%
%ADD142R,0.01000X0.00200*%
%ADD143C,0.00800*%
%ADD144C,0.00039*%
%ADD145C,0.00984*%
%ADD146C,0.01200*%
%ADD147C,0.00500*%
%ADD148C,0.00600*%
%ADD149R,0.00787X0.00787*%
%ADD150C,0.01000*%
%ADD151C,0.01000*%
D10*
X0039348Y0015874D02*
X0039348Y0016842D01*
X0039831Y0017326D01*
X0041766Y0015391D01*
X0042250Y0015874D01*
X0042250Y0016842D01*
X0041766Y0017326D01*
X0039831Y0017326D01*
X0039348Y0015874D02*
X0039831Y0015391D01*
X0041766Y0015391D01*
X0041766Y0018337D02*
X0041766Y0018821D01*
X0042250Y0018821D01*
X0042250Y0018337D01*
X0041766Y0018337D01*
X0042250Y0019810D02*
X0042250Y0021745D01*
X0042250Y0020778D02*
X0039348Y0020778D01*
X0040315Y0019810D01*
X0040315Y0022757D02*
X0041766Y0022757D01*
X0042250Y0023241D01*
X0042250Y0024692D01*
X0040315Y0024692D01*
X0040799Y0025703D02*
X0040799Y0026671D01*
X0042250Y0025703D02*
X0039348Y0025703D01*
X0039348Y0027638D01*
X0049496Y0013545D02*
X0049012Y0013062D01*
X0049012Y0012578D01*
X0049496Y0012094D01*
X0050464Y0012094D01*
X0050947Y0011610D01*
X0050947Y0011127D01*
X0050464Y0010643D01*
X0049496Y0010643D01*
X0049012Y0011127D01*
X0049496Y0013545D02*
X0050464Y0013545D01*
X0050947Y0013062D01*
X0051959Y0013545D02*
X0051959Y0010643D01*
X0051959Y0012094D02*
X0053894Y0012094D01*
X0053894Y0013545D02*
X0053894Y0010643D01*
X0055873Y0010643D02*
X0055873Y0013545D01*
X0056840Y0013545D02*
X0054905Y0013545D01*
X0057852Y0013062D02*
X0058336Y0013545D01*
X0059303Y0013545D01*
X0059787Y0013062D01*
X0059787Y0012578D01*
X0059303Y0012094D01*
X0059787Y0011610D01*
X0059787Y0011127D01*
X0059303Y0010643D01*
X0058336Y0010643D01*
X0057852Y0011127D01*
X0058820Y0012094D02*
X0059303Y0012094D01*
X0060799Y0012578D02*
X0061766Y0013545D01*
X0061766Y0010643D01*
X0060799Y0010643D02*
X0062734Y0010643D01*
X0063745Y0012094D02*
X0065680Y0012094D01*
X0066692Y0010643D02*
X0068143Y0010643D01*
X0068627Y0011127D01*
X0068627Y0013062D01*
X0068143Y0013545D01*
X0066692Y0013545D01*
X0066692Y0010643D01*
X0069638Y0010643D02*
X0070606Y0010643D01*
X0070122Y0010643D02*
X0070122Y0013545D01*
X0069638Y0013545D02*
X0070606Y0013545D01*
X0071602Y0013062D02*
X0071602Y0012578D01*
X0072086Y0012094D01*
X0073054Y0012094D01*
X0073537Y0011610D01*
X0073537Y0011127D01*
X0073054Y0010643D01*
X0072086Y0010643D01*
X0071602Y0011127D01*
X0071602Y0013062D02*
X0072086Y0013545D01*
X0073054Y0013545D01*
X0073537Y0013062D01*
X0100337Y0013531D02*
X0102272Y0013531D01*
X0101305Y0013531D02*
X0101305Y0010629D01*
X0103284Y0011112D02*
X0103767Y0010629D01*
X0104735Y0010629D01*
X0105219Y0011112D01*
X0105219Y0011596D01*
X0104735Y0012080D01*
X0103767Y0012080D01*
X0103284Y0012564D01*
X0103284Y0013047D01*
X0103767Y0013531D01*
X0104735Y0013531D01*
X0105219Y0013047D01*
X0106230Y0013531D02*
X0106230Y0010629D01*
X0108165Y0010629D01*
X0109177Y0010629D02*
X0111112Y0012564D01*
X0111112Y0013047D01*
X0110628Y0013531D01*
X0109660Y0013531D01*
X0109177Y0013047D01*
X0109177Y0010629D02*
X0111112Y0010629D01*
X0112123Y0011112D02*
X0112607Y0010629D01*
X0113574Y0010629D01*
X0114058Y0011112D01*
X0114058Y0012080D01*
X0113574Y0012564D01*
X0113091Y0012564D01*
X0112123Y0012080D01*
X0112123Y0013531D01*
X0114058Y0013531D01*
X0115070Y0012080D02*
X0116521Y0012080D01*
X0117005Y0011596D01*
X0117005Y0011112D01*
X0116521Y0010629D01*
X0115554Y0010629D01*
X0115070Y0011112D01*
X0115070Y0012080D01*
X0116037Y0013047D01*
X0117005Y0013531D01*
X0118016Y0012564D02*
X0118984Y0013531D01*
X0118984Y0010629D01*
X0119951Y0010629D02*
X0118016Y0010629D01*
X0136750Y0010650D02*
X0136750Y0013552D01*
X0137717Y0012585D01*
X0138685Y0013552D01*
X0138685Y0010650D01*
X0139697Y0010650D02*
X0139697Y0013552D01*
X0141148Y0013552D01*
X0141631Y0013069D01*
X0141631Y0012101D01*
X0141148Y0011617D01*
X0139697Y0011617D01*
X0142643Y0010650D02*
X0144578Y0010650D01*
X0145590Y0010650D02*
X0147525Y0010650D01*
X0146557Y0010650D02*
X0146557Y0013552D01*
X0145590Y0012585D01*
X0148536Y0012585D02*
X0149504Y0013552D01*
X0149504Y0010650D01*
X0150471Y0010650D02*
X0148536Y0010650D01*
X0151483Y0011134D02*
X0151966Y0010650D01*
X0152934Y0010650D01*
X0153418Y0011134D01*
X0153418Y0012101D01*
X0152934Y0012585D01*
X0152450Y0012585D01*
X0151483Y0012101D01*
X0151483Y0013552D01*
X0153418Y0013552D01*
X0154429Y0012585D02*
X0154429Y0010650D01*
X0154429Y0012101D02*
X0156364Y0012101D01*
X0156364Y0012585D02*
X0156364Y0010650D01*
X0156364Y0012585D02*
X0155397Y0013552D01*
X0154429Y0012585D01*
X0164948Y0016474D02*
X0165431Y0015991D01*
X0167366Y0015991D01*
X0165431Y0017926D01*
X0167366Y0017926D01*
X0167850Y0017442D01*
X0167850Y0016474D01*
X0167366Y0015991D01*
X0164948Y0016474D02*
X0164948Y0017442D01*
X0165431Y0017926D01*
X0167366Y0018937D02*
X0167366Y0019421D01*
X0167850Y0019421D01*
X0167850Y0018937D01*
X0167366Y0018937D01*
X0167850Y0020410D02*
X0167850Y0022345D01*
X0167850Y0021378D02*
X0164948Y0021378D01*
X0165915Y0020410D01*
X0165915Y0023357D02*
X0167366Y0023357D01*
X0167850Y0023841D01*
X0167850Y0025292D01*
X0165915Y0025292D01*
X0166399Y0026303D02*
X0166399Y0027271D01*
X0167850Y0026303D02*
X0164948Y0026303D01*
X0164948Y0028238D01*
X0159663Y0048450D02*
X0159663Y0051352D01*
X0161598Y0051352D01*
X0160630Y0049901D02*
X0159663Y0049901D01*
X0158651Y0050385D02*
X0158651Y0048450D01*
X0157200Y0048450D01*
X0156716Y0048934D01*
X0156716Y0050385D01*
X0155705Y0048450D02*
X0153770Y0048450D01*
X0154737Y0048450D02*
X0154737Y0051352D01*
X0153770Y0050385D01*
X0152780Y0048934D02*
X0152780Y0048450D01*
X0152297Y0048450D01*
X0152297Y0048934D01*
X0152780Y0048934D01*
X0151285Y0048934D02*
X0150801Y0048450D01*
X0149834Y0048450D01*
X0149350Y0048934D01*
X0151285Y0050869D01*
X0151285Y0048934D01*
X0151285Y0050869D02*
X0150801Y0051352D01*
X0149834Y0051352D01*
X0149350Y0050869D01*
X0149350Y0048934D01*
X0149143Y0070350D02*
X0149143Y0073252D01*
X0148131Y0072769D02*
X0146197Y0070834D01*
X0146680Y0070350D01*
X0147648Y0070350D01*
X0148131Y0070834D01*
X0148131Y0072769D01*
X0147648Y0073252D01*
X0146680Y0073252D01*
X0146197Y0072769D01*
X0146197Y0070834D01*
X0145185Y0070350D02*
X0143250Y0070350D01*
X0144217Y0070350D02*
X0144217Y0073252D01*
X0143250Y0072285D01*
X0149143Y0071317D02*
X0151078Y0073252D01*
X0149627Y0071801D02*
X0151078Y0070350D01*
X0151178Y0081250D02*
X0149727Y0082701D01*
X0149243Y0082217D02*
X0151178Y0084152D01*
X0149243Y0084152D02*
X0149243Y0081250D01*
X0148231Y0081734D02*
X0147748Y0081250D01*
X0146780Y0081250D01*
X0146297Y0081734D01*
X0148231Y0083669D01*
X0148231Y0081734D01*
X0146297Y0081734D02*
X0146297Y0083669D01*
X0146780Y0084152D01*
X0147748Y0084152D01*
X0148231Y0083669D01*
X0145285Y0081250D02*
X0143350Y0081250D01*
X0144317Y0081250D02*
X0144317Y0084152D01*
X0143350Y0083185D01*
X0125863Y0098750D02*
X0125863Y0101652D01*
X0127798Y0101652D01*
X0126830Y0100201D02*
X0125863Y0100201D01*
X0124851Y0100685D02*
X0124851Y0098750D01*
X0123400Y0098750D01*
X0122916Y0099234D01*
X0122916Y0100685D01*
X0121905Y0098750D02*
X0119970Y0098750D01*
X0120937Y0098750D02*
X0120937Y0101652D01*
X0119970Y0100685D01*
X0118980Y0099234D02*
X0118980Y0098750D01*
X0118497Y0098750D01*
X0118497Y0099234D01*
X0118980Y0099234D01*
X0117485Y0099234D02*
X0117001Y0098750D01*
X0116034Y0098750D01*
X0115550Y0099234D01*
X0117485Y0101169D01*
X0117485Y0099234D01*
X0117485Y0101169D02*
X0117001Y0101652D01*
X0116034Y0101652D01*
X0115550Y0101169D01*
X0115550Y0099234D01*
X0108688Y0110100D02*
X0106753Y0110100D01*
X0106753Y0110584D01*
X0108688Y0112519D01*
X0108688Y0113002D01*
X0106753Y0113002D01*
X0105742Y0113002D02*
X0105742Y0110100D01*
X0105742Y0111551D02*
X0103807Y0111551D01*
X0103807Y0110100D02*
X0103807Y0113002D01*
X0102795Y0113002D02*
X0102795Y0110100D01*
X0100860Y0110100D02*
X0100860Y0113002D01*
X0101828Y0112035D01*
X0102795Y0113002D01*
X0099849Y0113002D02*
X0098881Y0112519D01*
X0097914Y0111551D01*
X0099365Y0111551D01*
X0099849Y0111067D01*
X0099849Y0110584D01*
X0099365Y0110100D01*
X0098398Y0110100D01*
X0097914Y0110584D01*
X0097914Y0111551D01*
X0096902Y0110100D02*
X0094967Y0110100D01*
X0095935Y0110100D02*
X0095935Y0113002D01*
X0094967Y0112035D01*
X0087699Y0090038D02*
X0086731Y0090038D01*
X0086248Y0089555D01*
X0086248Y0088103D01*
X0089150Y0088103D01*
X0088183Y0088103D02*
X0088183Y0089555D01*
X0087699Y0090038D01*
X0088183Y0087092D02*
X0088666Y0087092D01*
X0089150Y0086608D01*
X0089150Y0085641D01*
X0088666Y0085157D01*
X0088183Y0085157D01*
X0087699Y0085641D01*
X0087699Y0086608D01*
X0088183Y0087092D01*
X0087699Y0086608D02*
X0087215Y0087092D01*
X0086731Y0087092D01*
X0086248Y0086608D01*
X0086248Y0085641D01*
X0086731Y0085157D01*
X0087215Y0085157D01*
X0087699Y0085641D01*
X0087215Y0084145D02*
X0086731Y0084145D01*
X0086248Y0083662D01*
X0086248Y0082694D01*
X0086731Y0082210D01*
X0086731Y0081199D02*
X0087215Y0081199D01*
X0087699Y0080715D01*
X0088183Y0081199D01*
X0088666Y0081199D01*
X0089150Y0080715D01*
X0089150Y0079748D01*
X0088666Y0079264D01*
X0089150Y0078252D02*
X0087215Y0078252D01*
X0086248Y0077285D01*
X0087215Y0076317D01*
X0089150Y0076317D01*
X0088666Y0075306D02*
X0087699Y0075306D01*
X0087699Y0074338D01*
X0088666Y0073371D02*
X0086731Y0073371D01*
X0086248Y0073855D01*
X0086248Y0074822D01*
X0086731Y0075306D01*
X0087699Y0076317D02*
X0087699Y0078252D01*
X0086731Y0079264D02*
X0086248Y0079748D01*
X0086248Y0080715D01*
X0086731Y0081199D01*
X0087699Y0080715D02*
X0087699Y0080231D01*
X0089150Y0082210D02*
X0087215Y0084145D01*
X0089150Y0084145D02*
X0089150Y0082210D01*
X0088666Y0075306D02*
X0089150Y0074822D01*
X0089150Y0073855D01*
X0088666Y0073371D01*
X0089150Y0072359D02*
X0089150Y0070424D01*
X0086248Y0070424D01*
X0086248Y0072359D01*
X0087699Y0071392D02*
X0087699Y0070424D01*
X0086248Y0069413D02*
X0089150Y0069413D01*
X0089150Y0067478D02*
X0086248Y0067478D01*
X0087215Y0068445D01*
X0086248Y0069413D01*
X0086248Y0066466D02*
X0086248Y0064531D01*
X0086248Y0065499D02*
X0089150Y0065499D01*
X0089150Y0063520D02*
X0087215Y0063520D01*
X0086248Y0062552D01*
X0087215Y0061585D01*
X0089150Y0061585D01*
X0087699Y0061585D02*
X0087699Y0063520D01*
X0098674Y0042852D02*
X0099642Y0042852D01*
X0100126Y0042369D01*
X0098191Y0040434D01*
X0098674Y0039950D01*
X0099642Y0039950D01*
X0100126Y0040434D01*
X0100126Y0042369D01*
X0098674Y0042852D02*
X0098191Y0042369D01*
X0098191Y0040434D01*
X0101137Y0040434D02*
X0101621Y0040434D01*
X0101621Y0039950D01*
X0101137Y0039950D01*
X0101137Y0040434D01*
X0102610Y0039950D02*
X0104545Y0039950D01*
X0103578Y0039950D02*
X0103578Y0042852D01*
X0102610Y0041885D01*
X0105557Y0041885D02*
X0105557Y0040434D01*
X0106041Y0039950D01*
X0107492Y0039950D01*
X0107492Y0041885D01*
X0108503Y0041401D02*
X0109471Y0041401D01*
X0108503Y0039950D02*
X0108503Y0042852D01*
X0110438Y0042852D01*
X0142643Y0013552D02*
X0142643Y0010650D01*
X0194798Y0045605D02*
X0195281Y0045121D01*
X0197216Y0045121D01*
X0197700Y0045605D01*
X0197700Y0046572D01*
X0197216Y0047056D01*
X0195281Y0047056D01*
X0194798Y0046572D01*
X0194798Y0045605D01*
X0194798Y0048067D02*
X0194798Y0049519D01*
X0195281Y0050002D01*
X0196249Y0050002D01*
X0196733Y0049519D01*
X0196733Y0048067D01*
X0197700Y0048067D02*
X0194798Y0048067D01*
X0195765Y0051014D02*
X0194798Y0051981D01*
X0195765Y0052949D01*
X0197700Y0052949D01*
X0197216Y0053960D02*
X0197700Y0054444D01*
X0197700Y0055412D01*
X0197216Y0055895D01*
X0196733Y0055895D01*
X0196249Y0055412D01*
X0196249Y0054928D01*
X0196249Y0055412D02*
X0195765Y0055895D01*
X0195281Y0055895D01*
X0194798Y0055412D01*
X0194798Y0054444D01*
X0195281Y0053960D01*
X0196249Y0052949D02*
X0196249Y0051014D01*
X0195765Y0051014D02*
X0197700Y0051014D01*
X0196249Y0056907D02*
X0196249Y0058842D01*
X0196249Y0059853D02*
X0196249Y0061788D01*
X0197700Y0061305D02*
X0194798Y0061305D01*
X0196249Y0059853D01*
X0197700Y0058358D02*
X0194798Y0058358D01*
X0196249Y0056907D01*
X0213650Y0042385D02*
X0214617Y0043352D01*
X0214617Y0040450D01*
X0213650Y0040450D02*
X0215585Y0040450D01*
X0216597Y0040934D02*
X0218531Y0042869D01*
X0218531Y0040934D01*
X0218048Y0040450D01*
X0217080Y0040450D01*
X0216597Y0040934D01*
X0216597Y0042869D01*
X0217080Y0043352D01*
X0218048Y0043352D01*
X0218531Y0042869D01*
X0219543Y0043352D02*
X0219543Y0040450D01*
X0219543Y0041417D02*
X0221478Y0043352D01*
X0220027Y0041901D02*
X0221478Y0040450D01*
X0221378Y0032852D02*
X0219443Y0032852D01*
X0219443Y0029950D01*
X0218431Y0029950D02*
X0218431Y0031885D01*
X0219443Y0031401D02*
X0220411Y0031401D01*
X0218431Y0029950D02*
X0216980Y0029950D01*
X0216497Y0030434D01*
X0216497Y0031885D01*
X0215485Y0029950D02*
X0213550Y0029950D01*
X0214517Y0029950D02*
X0214517Y0032852D01*
X0213550Y0031885D01*
X0214078Y0022052D02*
X0214078Y0019150D01*
X0215045Y0019150D02*
X0213110Y0019150D01*
X0213110Y0021085D02*
X0214078Y0022052D01*
X0216057Y0021569D02*
X0216057Y0019634D01*
X0217992Y0021569D01*
X0217992Y0019634D01*
X0217508Y0019150D01*
X0216541Y0019150D01*
X0216057Y0019634D01*
X0216057Y0021569D02*
X0216541Y0022052D01*
X0217508Y0022052D01*
X0217992Y0021569D01*
X0219003Y0022052D02*
X0219003Y0019150D01*
X0219003Y0020117D02*
X0220938Y0022052D01*
X0219487Y0020601D02*
X0220938Y0019150D01*
X0231050Y0035950D02*
X0232985Y0035950D01*
X0232017Y0035950D02*
X0232017Y0038852D01*
X0231050Y0037885D01*
X0233997Y0036434D02*
X0234480Y0036434D01*
X0234480Y0035950D01*
X0233997Y0035950D01*
X0233997Y0036434D01*
X0235470Y0036434D02*
X0235954Y0035950D01*
X0236921Y0035950D01*
X0237405Y0036434D01*
X0237405Y0037401D01*
X0236921Y0037885D01*
X0236437Y0037885D01*
X0235470Y0037401D01*
X0235470Y0038852D01*
X0237405Y0038852D01*
X0238416Y0038852D02*
X0238416Y0035950D01*
X0238416Y0036917D02*
X0240351Y0038852D01*
X0238900Y0037401D02*
X0240351Y0035950D01*
X0245350Y0036250D02*
X0247285Y0036250D01*
X0246317Y0036250D02*
X0246317Y0039152D01*
X0245350Y0038185D01*
X0248297Y0038669D02*
X0248297Y0036734D01*
X0250231Y0038669D01*
X0250231Y0036734D01*
X0249748Y0036250D01*
X0248780Y0036250D01*
X0248297Y0036734D01*
X0248297Y0038669D02*
X0248780Y0039152D01*
X0249748Y0039152D01*
X0250231Y0038669D01*
X0251243Y0038669D02*
X0251727Y0039152D01*
X0252694Y0039152D01*
X0253178Y0038669D01*
X0251243Y0036734D01*
X0251727Y0036250D01*
X0252694Y0036250D01*
X0253178Y0036734D01*
X0253178Y0038669D01*
X0254190Y0038185D02*
X0254190Y0035283D01*
X0254190Y0036250D02*
X0255641Y0036250D01*
X0256125Y0036734D01*
X0256125Y0037701D01*
X0255641Y0038185D01*
X0254190Y0038185D01*
X0257136Y0037701D02*
X0258104Y0037701D01*
X0259071Y0039152D02*
X0257136Y0039152D01*
X0257136Y0036250D01*
X0251243Y0036734D02*
X0251243Y0038669D01*
X0251641Y0058150D02*
X0251157Y0058634D01*
X0253092Y0060569D01*
X0253092Y0058634D01*
X0252608Y0058150D01*
X0251641Y0058150D01*
X0251157Y0058634D02*
X0251157Y0060569D01*
X0251641Y0061052D01*
X0252608Y0061052D01*
X0253092Y0060569D01*
X0254103Y0061052D02*
X0254103Y0058150D01*
X0254103Y0059117D02*
X0256038Y0061052D01*
X0254587Y0059601D02*
X0256038Y0058150D01*
X0250145Y0058634D02*
X0249662Y0058150D01*
X0248694Y0058150D01*
X0248210Y0058634D01*
X0250145Y0060569D01*
X0250145Y0058634D01*
X0248210Y0058634D02*
X0248210Y0060569D01*
X0248694Y0061052D01*
X0249662Y0061052D01*
X0250145Y0060569D01*
X0247199Y0058150D02*
X0245264Y0058150D01*
X0246231Y0058150D02*
X0246231Y0061052D01*
X0245264Y0060085D01*
X0243398Y0060952D02*
X0241463Y0060952D01*
X0241463Y0058050D01*
X0240451Y0058050D02*
X0240451Y0059985D01*
X0241463Y0059501D02*
X0242430Y0059501D01*
X0240451Y0058050D02*
X0239000Y0058050D01*
X0238516Y0058534D01*
X0238516Y0059985D01*
X0237505Y0060469D02*
X0235570Y0058534D01*
X0235570Y0058050D01*
X0234580Y0058050D02*
X0234097Y0058050D01*
X0234097Y0058534D01*
X0234580Y0058534D01*
X0234580Y0058050D01*
X0232601Y0058050D02*
X0232601Y0060952D01*
X0231150Y0059501D01*
X0233085Y0059501D01*
X0235570Y0060952D02*
X0237505Y0060952D01*
X0237505Y0060469D01*
X0218350Y0063434D02*
X0217866Y0062950D01*
X0215931Y0064885D01*
X0217866Y0064885D01*
X0218350Y0064401D01*
X0218350Y0063434D01*
X0217866Y0062950D02*
X0215931Y0062950D01*
X0215448Y0063434D01*
X0215448Y0064401D01*
X0215931Y0064885D01*
X0217866Y0065897D02*
X0217866Y0066380D01*
X0218350Y0066380D01*
X0218350Y0065897D01*
X0217866Y0065897D01*
X0218350Y0067370D02*
X0218350Y0069305D01*
X0218350Y0068337D02*
X0215448Y0068337D01*
X0216415Y0067370D01*
X0216415Y0070316D02*
X0217866Y0070316D01*
X0218350Y0070800D01*
X0218350Y0072251D01*
X0216415Y0072251D01*
X0216899Y0073263D02*
X0216899Y0074230D01*
X0218350Y0073263D02*
X0215448Y0073263D01*
X0215448Y0075198D01*
X0229435Y0082661D02*
X0229435Y0084596D01*
X0230403Y0085563D01*
X0231370Y0084596D01*
X0231370Y0082661D01*
X0232382Y0082661D02*
X0233833Y0082661D01*
X0234317Y0083145D01*
X0234317Y0085080D01*
X0233833Y0085563D01*
X0232382Y0085563D01*
X0232382Y0082661D01*
X0231370Y0084112D02*
X0229435Y0084112D01*
X0235328Y0082661D02*
X0235328Y0085563D01*
X0236296Y0084596D01*
X0237263Y0085563D01*
X0237263Y0082661D01*
X0238275Y0082661D02*
X0238275Y0085563D01*
X0239726Y0085563D01*
X0240210Y0085080D01*
X0240210Y0084112D01*
X0239726Y0083629D01*
X0238275Y0083629D01*
X0241221Y0084112D02*
X0242673Y0085563D01*
X0242673Y0082661D01*
X0243156Y0084112D02*
X0241221Y0084112D01*
X0244168Y0083145D02*
X0246103Y0085080D01*
X0246103Y0083145D01*
X0245619Y0082661D01*
X0244652Y0082661D01*
X0244168Y0083145D01*
X0244168Y0085080D01*
X0244652Y0085563D01*
X0245619Y0085563D01*
X0246103Y0085080D01*
X0247115Y0084596D02*
X0248082Y0085563D01*
X0248082Y0082661D01*
X0247115Y0082661D02*
X0249049Y0082661D01*
X0243531Y0094250D02*
X0241597Y0094250D01*
X0242564Y0094250D02*
X0242564Y0097152D01*
X0241597Y0096185D01*
X0240585Y0095701D02*
X0240585Y0094734D01*
X0240101Y0094250D01*
X0239134Y0094250D01*
X0238650Y0094734D01*
X0238650Y0095701D02*
X0239617Y0096185D01*
X0240101Y0096185D01*
X0240585Y0095701D01*
X0240585Y0097152D02*
X0238650Y0097152D01*
X0238650Y0095701D01*
X0233968Y0096752D02*
X0232033Y0096752D01*
X0233000Y0096752D02*
X0233000Y0093850D01*
X0231021Y0093850D02*
X0229086Y0093850D01*
X0229086Y0096752D01*
X0231021Y0096752D01*
X0230054Y0095301D02*
X0229086Y0095301D01*
X0228075Y0096752D02*
X0226140Y0096752D01*
X0226140Y0093850D01*
X0225128Y0094334D02*
X0224644Y0093850D01*
X0223677Y0093850D01*
X0223193Y0094334D01*
X0222181Y0094334D02*
X0222181Y0096269D01*
X0221698Y0096752D01*
X0220730Y0096752D01*
X0220247Y0096269D01*
X0220247Y0094334D01*
X0220730Y0093850D01*
X0221698Y0093850D01*
X0222181Y0094334D01*
X0223193Y0095785D02*
X0223677Y0095301D01*
X0224644Y0095301D01*
X0225128Y0094817D01*
X0225128Y0094334D01*
X0226140Y0095301D02*
X0227107Y0095301D01*
X0225128Y0096269D02*
X0224644Y0096752D01*
X0223677Y0096752D01*
X0223193Y0096269D01*
X0223193Y0095785D01*
X0219235Y0096752D02*
X0219235Y0093850D01*
X0217300Y0093850D02*
X0217300Y0096752D01*
X0218267Y0095785D01*
X0219235Y0096752D01*
X0213725Y0096552D02*
X0211790Y0094617D01*
X0212273Y0095101D02*
X0213725Y0093650D01*
X0211790Y0093650D02*
X0211790Y0096552D01*
X0210778Y0096069D02*
X0210778Y0094134D01*
X0210294Y0093650D01*
X0209327Y0093650D01*
X0208843Y0094134D01*
X0210778Y0096069D01*
X0210294Y0096552D01*
X0209327Y0096552D01*
X0208843Y0096069D01*
X0208843Y0094134D01*
X0207831Y0094134D02*
X0207348Y0093650D01*
X0206380Y0093650D01*
X0205897Y0094134D01*
X0207831Y0096069D01*
X0207831Y0094134D01*
X0205897Y0094134D02*
X0205897Y0096069D01*
X0206380Y0096552D01*
X0207348Y0096552D01*
X0207831Y0096069D01*
X0204885Y0093650D02*
X0202950Y0093650D01*
X0203917Y0093650D02*
X0203917Y0096552D01*
X0202950Y0095585D01*
X0204310Y0114250D02*
X0206245Y0114250D01*
X0205278Y0114250D02*
X0205278Y0117152D01*
X0204310Y0116185D01*
X0207257Y0116669D02*
X0207257Y0114734D01*
X0209192Y0116669D01*
X0209192Y0114734D01*
X0208708Y0114250D01*
X0207741Y0114250D01*
X0207257Y0114734D01*
X0207257Y0116669D02*
X0207741Y0117152D01*
X0208708Y0117152D01*
X0209192Y0116669D01*
X0210203Y0116669D02*
X0210687Y0117152D01*
X0211655Y0117152D01*
X0212138Y0116669D01*
X0210203Y0114734D01*
X0210687Y0114250D01*
X0211655Y0114250D01*
X0212138Y0114734D01*
X0212138Y0116669D01*
X0210203Y0116669D02*
X0210203Y0114734D01*
X0217650Y0134950D02*
X0217650Y0137852D01*
X0218617Y0136885D01*
X0219585Y0137852D01*
X0219585Y0134950D01*
X0220597Y0134950D02*
X0221564Y0134950D01*
X0221080Y0134950D02*
X0221080Y0137852D01*
X0220597Y0137852D02*
X0221564Y0137852D01*
X0222561Y0137369D02*
X0222561Y0135434D01*
X0223045Y0134950D01*
X0224012Y0134950D01*
X0224496Y0135434D01*
X0225507Y0135434D02*
X0225991Y0134950D01*
X0226959Y0134950D01*
X0227442Y0135434D01*
X0227442Y0135917D01*
X0226959Y0136401D01*
X0225991Y0136401D01*
X0225507Y0136885D01*
X0225507Y0137369D01*
X0225991Y0137852D01*
X0226959Y0137852D01*
X0227442Y0137369D01*
X0228454Y0136401D02*
X0230389Y0136401D01*
X0231400Y0136401D02*
X0232368Y0136885D01*
X0232852Y0136885D01*
X0233335Y0136401D01*
X0233335Y0135434D01*
X0232852Y0134950D01*
X0231884Y0134950D01*
X0231400Y0135434D01*
X0231400Y0136401D02*
X0231400Y0137852D01*
X0233335Y0137852D01*
X0234347Y0136885D02*
X0235314Y0137852D01*
X0235314Y0134950D01*
X0234347Y0134950D02*
X0236282Y0134950D01*
X0237293Y0136401D02*
X0239228Y0136401D01*
X0238745Y0134950D02*
X0238745Y0137852D01*
X0237293Y0136401D01*
X0229905Y0134950D02*
X0229905Y0137852D01*
X0228454Y0136401D01*
X0224496Y0137369D02*
X0224012Y0137852D01*
X0223045Y0137852D01*
X0222561Y0137369D01*
X0203250Y0154334D02*
X0203250Y0155301D01*
X0202766Y0155785D01*
X0200831Y0155785D01*
X0202766Y0153850D01*
X0203250Y0154334D01*
X0202766Y0153850D02*
X0200831Y0153850D01*
X0200348Y0154334D01*
X0200348Y0155301D01*
X0200831Y0155785D01*
X0202766Y0156797D02*
X0202766Y0157280D01*
X0203250Y0157280D01*
X0203250Y0156797D01*
X0202766Y0156797D01*
X0203250Y0158270D02*
X0203250Y0160205D01*
X0203250Y0159237D02*
X0200348Y0159237D01*
X0201315Y0158270D01*
X0201315Y0161216D02*
X0202766Y0161216D01*
X0203250Y0161700D01*
X0203250Y0163151D01*
X0201315Y0163151D01*
X0201799Y0164163D02*
X0201799Y0165130D01*
X0203250Y0164163D02*
X0200348Y0164163D01*
X0200348Y0166098D01*
X0183163Y0179750D02*
X0183163Y0182652D01*
X0185098Y0182652D01*
X0184130Y0181201D02*
X0183163Y0181201D01*
X0182151Y0181685D02*
X0182151Y0179750D01*
X0180700Y0179750D01*
X0180216Y0180234D01*
X0180216Y0181685D01*
X0179205Y0179750D02*
X0177270Y0179750D01*
X0178237Y0179750D02*
X0178237Y0182652D01*
X0177270Y0181685D01*
X0176280Y0180234D02*
X0176280Y0179750D01*
X0175797Y0179750D01*
X0175797Y0180234D01*
X0176280Y0180234D01*
X0174785Y0180234D02*
X0174301Y0179750D01*
X0173334Y0179750D01*
X0172850Y0180234D01*
X0174785Y0182169D01*
X0174785Y0180234D01*
X0174785Y0182169D02*
X0174301Y0182652D01*
X0173334Y0182652D01*
X0172850Y0182169D01*
X0172850Y0180234D01*
X0174099Y0189550D02*
X0174099Y0191485D01*
X0175066Y0192497D02*
X0175550Y0192497D01*
X0175066Y0192497D02*
X0173131Y0194431D01*
X0172648Y0194431D01*
X0172648Y0192497D01*
X0172648Y0191001D02*
X0174099Y0189550D01*
X0175550Y0191001D02*
X0172648Y0191001D01*
X0191748Y0191094D02*
X0191748Y0189643D01*
X0194650Y0189643D01*
X0194650Y0191094D01*
X0194166Y0191578D01*
X0192231Y0191578D01*
X0191748Y0191094D01*
X0191748Y0188631D02*
X0191748Y0186697D01*
X0194650Y0186697D01*
X0194650Y0188631D01*
X0193199Y0187664D02*
X0193199Y0186697D01*
X0194650Y0185685D02*
X0194650Y0183750D01*
X0191748Y0183750D01*
X0197748Y0183671D02*
X0200650Y0183671D01*
X0200650Y0185606D01*
X0200650Y0186617D02*
X0200650Y0188552D01*
X0200650Y0189564D02*
X0200650Y0191015D01*
X0200166Y0191499D01*
X0198231Y0191499D01*
X0197748Y0191015D01*
X0197748Y0189564D01*
X0200650Y0189564D01*
X0199199Y0187585D02*
X0199199Y0186617D01*
X0197748Y0186617D02*
X0200650Y0186617D01*
X0197748Y0186617D02*
X0197748Y0188552D01*
X0195134Y0192590D02*
X0195134Y0194525D01*
X0194166Y0195536D02*
X0192231Y0197471D01*
X0194166Y0197471D01*
X0194650Y0196987D01*
X0194650Y0196020D01*
X0194166Y0195536D01*
X0192231Y0195536D01*
X0191748Y0196020D01*
X0191748Y0196987D01*
X0192231Y0197471D01*
X0191748Y0198483D02*
X0193199Y0198483D01*
X0192715Y0199450D01*
X0192715Y0199934D01*
X0193199Y0200418D01*
X0194166Y0200418D01*
X0194650Y0199934D01*
X0194650Y0198966D01*
X0194166Y0198483D01*
X0191748Y0198483D02*
X0191748Y0200418D01*
X0197748Y0200338D02*
X0198231Y0199371D01*
X0199199Y0198403D01*
X0199199Y0199855D01*
X0199683Y0200338D01*
X0200166Y0200338D01*
X0200650Y0199855D01*
X0200650Y0198887D01*
X0200166Y0198403D01*
X0199199Y0198403D01*
X0198715Y0197392D02*
X0198231Y0197392D01*
X0197748Y0196908D01*
X0197748Y0195941D01*
X0198231Y0195457D01*
X0198715Y0197392D02*
X0200650Y0195457D01*
X0200650Y0197392D01*
X0201134Y0194445D02*
X0201134Y0192510D01*
X0217248Y0192097D02*
X0217248Y0194031D01*
X0217731Y0194031D01*
X0219666Y0192097D01*
X0220150Y0192097D01*
X0220150Y0190601D02*
X0217248Y0190601D01*
X0218699Y0189150D01*
X0218699Y0191085D01*
X0232410Y0189301D02*
X0234345Y0189301D01*
X0235357Y0188334D02*
X0235357Y0187850D01*
X0235357Y0188334D02*
X0237292Y0190269D01*
X0237292Y0190752D01*
X0235357Y0190752D01*
X0233862Y0190752D02*
X0232410Y0189301D01*
X0233862Y0187850D02*
X0233862Y0190752D01*
X0238303Y0190752D02*
X0238303Y0187850D01*
X0238303Y0188817D02*
X0240238Y0190752D01*
X0238787Y0189301D02*
X0240238Y0187850D01*
X0254434Y0168850D02*
X0254917Y0168850D01*
X0255401Y0168366D01*
X0255401Y0167399D01*
X0254917Y0166915D01*
X0254434Y0166915D01*
X0253950Y0167399D01*
X0253950Y0168366D01*
X0254434Y0168850D01*
X0255401Y0168366D02*
X0255885Y0168850D01*
X0256369Y0168850D01*
X0256852Y0168366D01*
X0256852Y0167399D01*
X0256369Y0166915D01*
X0255885Y0166915D01*
X0255401Y0167399D01*
X0256369Y0165903D02*
X0256852Y0165420D01*
X0256852Y0164452D01*
X0256369Y0163969D01*
X0255885Y0163969D01*
X0253950Y0165903D01*
X0253950Y0163969D01*
X0254050Y0155850D02*
X0255985Y0153915D01*
X0256469Y0153915D01*
X0256952Y0154399D01*
X0256952Y0155366D01*
X0256469Y0155850D01*
X0254050Y0155850D02*
X0254050Y0153915D01*
X0254050Y0152903D02*
X0255985Y0150969D01*
X0256469Y0150969D01*
X0256952Y0151452D01*
X0256952Y0152420D01*
X0256469Y0152903D01*
X0254050Y0152903D02*
X0254050Y0150969D01*
X0254050Y0149957D02*
X0256952Y0149957D01*
X0255501Y0149473D02*
X0254050Y0148022D01*
X0255017Y0149957D02*
X0256952Y0148022D01*
X0243148Y0117152D02*
X0242180Y0117152D01*
X0241697Y0116669D01*
X0240685Y0116669D02*
X0240685Y0116185D01*
X0240201Y0115701D01*
X0239234Y0115701D01*
X0238750Y0116185D01*
X0238750Y0116669D01*
X0239234Y0117152D01*
X0240201Y0117152D01*
X0240685Y0116669D01*
X0240201Y0115701D02*
X0240685Y0115217D01*
X0240685Y0114734D01*
X0240201Y0114250D01*
X0239234Y0114250D01*
X0238750Y0114734D01*
X0238750Y0115217D01*
X0239234Y0115701D01*
X0241697Y0114250D02*
X0243631Y0116185D01*
X0243631Y0116669D01*
X0243148Y0117152D01*
X0243631Y0114250D02*
X0241697Y0114250D01*
X0168538Y0149050D02*
X0167087Y0150501D01*
X0166603Y0150017D02*
X0168538Y0151952D01*
X0166603Y0151952D02*
X0166603Y0149050D01*
X0165592Y0149534D02*
X0165108Y0149050D01*
X0164141Y0149050D01*
X0163657Y0149534D01*
X0165592Y0151469D01*
X0165592Y0149534D01*
X0165592Y0151469D02*
X0165108Y0151952D01*
X0164141Y0151952D01*
X0163657Y0151469D01*
X0163657Y0149534D01*
X0162645Y0149534D02*
X0162162Y0149050D01*
X0161194Y0149050D01*
X0160710Y0149534D01*
X0162645Y0151469D01*
X0162645Y0149534D01*
X0160710Y0149534D02*
X0160710Y0151469D01*
X0161194Y0151952D01*
X0162162Y0151952D01*
X0162645Y0151469D01*
X0159699Y0149050D02*
X0157764Y0149050D01*
X0158731Y0149050D02*
X0158731Y0151952D01*
X0157764Y0150985D01*
X0153266Y0159971D02*
X0153750Y0160455D01*
X0153750Y0161422D01*
X0153266Y0161906D01*
X0153266Y0162917D02*
X0153750Y0163401D01*
X0153750Y0164369D01*
X0153266Y0164852D01*
X0153266Y0165864D02*
X0153750Y0166348D01*
X0153750Y0167315D01*
X0153266Y0167799D01*
X0152783Y0167799D01*
X0152299Y0167315D01*
X0152299Y0166348D01*
X0151815Y0165864D01*
X0151331Y0165864D01*
X0150848Y0166348D01*
X0150848Y0167315D01*
X0151331Y0167799D01*
X0151331Y0168810D02*
X0151815Y0168810D01*
X0152299Y0169294D01*
X0152299Y0170262D01*
X0152783Y0170745D01*
X0153266Y0170745D01*
X0153750Y0170262D01*
X0153750Y0169294D01*
X0153266Y0168810D01*
X0152783Y0168810D01*
X0152299Y0169294D01*
X0152299Y0170262D02*
X0151815Y0170745D01*
X0151331Y0170745D01*
X0150848Y0170262D01*
X0150848Y0169294D01*
X0151331Y0168810D01*
X0151815Y0171757D02*
X0150848Y0172724D01*
X0153750Y0172724D01*
X0153750Y0171757D02*
X0153750Y0173692D01*
X0153750Y0174703D02*
X0153750Y0176638D01*
X0153750Y0175671D02*
X0150848Y0175671D01*
X0151815Y0174703D01*
X0151331Y0164852D02*
X0150848Y0164369D01*
X0150848Y0163401D01*
X0151331Y0162917D01*
X0153266Y0162917D01*
X0151331Y0161906D02*
X0150848Y0161422D01*
X0150848Y0160455D01*
X0151331Y0159971D01*
X0153266Y0159971D01*
X0080285Y0222350D02*
X0078350Y0225252D01*
X0077338Y0224769D02*
X0077338Y0223801D01*
X0076855Y0223317D01*
X0075403Y0223317D01*
X0075403Y0222350D02*
X0075403Y0225252D01*
X0076855Y0225252D01*
X0077338Y0224769D01*
X0076371Y0223317D02*
X0077338Y0222350D01*
X0078350Y0222350D02*
X0080285Y0225252D01*
X0070385Y0225352D02*
X0068450Y0222450D01*
X0070385Y0222450D02*
X0068450Y0225352D01*
X0067438Y0225352D02*
X0065503Y0225352D01*
X0066471Y0225352D02*
X0066471Y0222450D01*
X0043095Y0201552D02*
X0043095Y0199617D01*
X0042127Y0198650D01*
X0041160Y0199617D01*
X0041160Y0201552D01*
X0040148Y0201069D02*
X0040148Y0200585D01*
X0039665Y0200101D01*
X0040148Y0199617D01*
X0040148Y0199134D01*
X0039665Y0198650D01*
X0038697Y0198650D01*
X0038213Y0199134D01*
X0037224Y0199134D02*
X0037224Y0198650D01*
X0036740Y0198650D01*
X0036740Y0199134D01*
X0037224Y0199134D01*
X0035729Y0199134D02*
X0035245Y0198650D01*
X0034277Y0198650D01*
X0033794Y0199134D01*
X0034761Y0200101D02*
X0035245Y0200101D01*
X0035729Y0199617D01*
X0035729Y0199134D01*
X0035245Y0200101D02*
X0035729Y0200585D01*
X0035729Y0201069D01*
X0035245Y0201552D01*
X0034277Y0201552D01*
X0033794Y0201069D01*
X0038213Y0201069D02*
X0038697Y0201552D01*
X0039665Y0201552D01*
X0040148Y0201069D01*
X0039665Y0200101D02*
X0039181Y0200101D01*
X0020250Y0185150D02*
X0019766Y0185150D01*
X0017831Y0187085D01*
X0017348Y0187085D01*
X0017348Y0185150D01*
X0017348Y0183655D02*
X0018799Y0182203D01*
X0018799Y0184138D01*
X0020250Y0183655D02*
X0017348Y0183655D01*
X0017515Y0172496D02*
X0017515Y0171045D01*
X0017999Y0170561D01*
X0018483Y0171045D01*
X0018483Y0172012D01*
X0018966Y0172496D01*
X0019450Y0172012D01*
X0019450Y0170561D01*
X0019450Y0169549D02*
X0017515Y0169549D01*
X0017515Y0167614D02*
X0018966Y0167614D01*
X0019450Y0168098D01*
X0019450Y0169549D01*
X0021348Y0168574D02*
X0021348Y0167123D01*
X0024250Y0167123D01*
X0024250Y0168574D01*
X0023766Y0169058D01*
X0021831Y0169058D01*
X0021348Y0168574D01*
X0021348Y0166112D02*
X0021348Y0164177D01*
X0024250Y0164177D01*
X0024250Y0166112D01*
X0022799Y0165144D02*
X0022799Y0164177D01*
X0024250Y0163165D02*
X0024250Y0161230D01*
X0021348Y0161230D01*
X0019450Y0161707D02*
X0018966Y0161223D01*
X0017031Y0161223D01*
X0017515Y0160739D02*
X0017515Y0161707D01*
X0017515Y0163187D02*
X0017515Y0164155D01*
X0017999Y0164638D01*
X0019450Y0164638D01*
X0019450Y0163187D01*
X0018966Y0162703D01*
X0018483Y0163187D01*
X0018483Y0164638D01*
X0017515Y0165650D02*
X0017515Y0166617D01*
X0017031Y0166134D02*
X0018966Y0166134D01*
X0019450Y0166617D01*
X0018966Y0159728D02*
X0018483Y0159728D01*
X0017999Y0159244D01*
X0017999Y0158276D01*
X0017515Y0157793D01*
X0017031Y0157793D01*
X0016548Y0158276D01*
X0016548Y0159244D01*
X0017031Y0159728D01*
X0018966Y0159728D02*
X0019450Y0159244D01*
X0019450Y0158276D01*
X0018966Y0157793D01*
X0030946Y0150952D02*
X0030946Y0148050D01*
X0030946Y0149501D02*
X0031914Y0149501D01*
X0032881Y0150952D02*
X0030946Y0150952D01*
X0033893Y0150952D02*
X0035828Y0150952D01*
X0034860Y0150952D02*
X0034860Y0148050D01*
X0036839Y0148050D02*
X0038290Y0148050D01*
X0038774Y0148534D01*
X0038774Y0150469D01*
X0038290Y0150952D01*
X0036839Y0150952D01*
X0036839Y0148050D01*
X0039786Y0148050D02*
X0040753Y0148050D01*
X0040269Y0148050D02*
X0040269Y0150952D01*
X0039786Y0150952D02*
X0040753Y0150952D01*
X0057550Y0135752D02*
X0058517Y0135752D01*
X0058034Y0135752D02*
X0058034Y0132850D01*
X0058517Y0132850D02*
X0057550Y0132850D01*
X0059514Y0133334D02*
X0059998Y0132850D01*
X0060966Y0132850D01*
X0061449Y0133334D01*
X0061449Y0133817D01*
X0060966Y0134301D01*
X0059998Y0134301D01*
X0059514Y0134785D01*
X0059514Y0135269D01*
X0059998Y0135752D01*
X0060966Y0135752D01*
X0061449Y0135269D01*
X0062461Y0135752D02*
X0063912Y0135752D01*
X0064396Y0135269D01*
X0064396Y0134301D01*
X0063912Y0133817D01*
X0062461Y0133817D01*
X0062461Y0132850D02*
X0062461Y0135752D01*
X0042348Y0087498D02*
X0042348Y0085563D01*
X0045250Y0085563D01*
X0045250Y0084551D02*
X0043315Y0084551D01*
X0043799Y0085563D02*
X0043799Y0086530D01*
X0045250Y0084551D02*
X0045250Y0083100D01*
X0044766Y0082616D01*
X0043315Y0082616D01*
X0045250Y0081605D02*
X0045250Y0079670D01*
X0045250Y0080637D02*
X0042348Y0080637D01*
X0043315Y0079670D01*
X0044766Y0078680D02*
X0045250Y0078680D01*
X0045250Y0078197D01*
X0044766Y0078197D01*
X0044766Y0078680D01*
X0044766Y0077185D02*
X0045250Y0076701D01*
X0045250Y0075734D01*
X0044766Y0075250D01*
X0042831Y0077185D01*
X0044766Y0077185D01*
X0042831Y0077185D02*
X0042348Y0076701D01*
X0042348Y0075734D01*
X0042831Y0075250D01*
X0044766Y0075250D01*
X0033050Y0075603D02*
X0030148Y0075603D01*
X0030631Y0074592D02*
X0032566Y0072657D01*
X0033050Y0073141D01*
X0033050Y0074108D01*
X0032566Y0074592D01*
X0030631Y0074592D01*
X0030148Y0074108D01*
X0030148Y0073141D01*
X0030631Y0072657D01*
X0032566Y0072657D01*
X0033050Y0071645D02*
X0033050Y0069710D01*
X0033050Y0070678D02*
X0030148Y0070678D01*
X0031115Y0069710D01*
X0032083Y0075603D02*
X0030148Y0077538D01*
X0031599Y0076087D02*
X0033050Y0077538D01*
X0030748Y0062771D02*
X0030748Y0060836D01*
X0030748Y0061804D02*
X0033650Y0061804D01*
X0033650Y0059825D02*
X0033650Y0057890D01*
X0030748Y0057890D01*
X0030748Y0059825D01*
X0032199Y0058857D02*
X0032199Y0057890D01*
X0032683Y0056878D02*
X0033166Y0056878D01*
X0033650Y0056394D01*
X0033650Y0055427D01*
X0033166Y0054943D01*
X0032199Y0055427D02*
X0032199Y0056394D01*
X0032683Y0056878D01*
X0031231Y0056878D02*
X0030748Y0056394D01*
X0030748Y0055427D01*
X0031231Y0054943D01*
X0031715Y0054943D01*
X0032199Y0055427D01*
X0033650Y0053931D02*
X0033650Y0051997D01*
X0030748Y0051997D01*
X0030748Y0053931D01*
X0032199Y0052964D02*
X0032199Y0051997D01*
X0032199Y0050985D02*
X0032683Y0050501D01*
X0032683Y0049050D01*
X0033650Y0049050D02*
X0030748Y0049050D01*
X0030748Y0050501D01*
X0031231Y0050985D01*
X0032199Y0050985D01*
X0032683Y0050017D02*
X0033650Y0050985D01*
X0035887Y0222250D02*
X0035403Y0222734D01*
X0035887Y0222250D02*
X0036855Y0222250D01*
X0037338Y0222734D01*
X0037338Y0223701D01*
X0036855Y0224185D01*
X0036371Y0224185D01*
X0035403Y0223701D01*
X0035403Y0225152D01*
X0037338Y0225152D01*
X0038350Y0225152D02*
X0038350Y0223217D01*
X0039317Y0222250D01*
X0040285Y0223217D01*
X0040285Y0225152D01*
D11*
X0027933Y0144073D02*
X0026465Y0144073D01*
X0026098Y0143706D01*
X0026098Y0142605D01*
X0028300Y0142605D01*
X0028300Y0143706D01*
X0027933Y0144073D01*
X0028300Y0141863D02*
X0026098Y0141863D01*
X0026098Y0140395D02*
X0028300Y0141863D01*
X0028300Y0140395D02*
X0026098Y0140395D01*
X0026465Y0139653D02*
X0026098Y0139286D01*
X0026098Y0138552D01*
X0026465Y0138185D01*
X0027933Y0138185D01*
X0028300Y0138552D01*
X0028300Y0139286D01*
X0027933Y0139653D01*
X0027199Y0139653D01*
X0027199Y0138919D01*
X0044598Y0128242D02*
X0044965Y0128609D01*
X0046433Y0128609D01*
X0046800Y0128242D01*
X0046800Y0127509D01*
X0046433Y0127142D01*
X0044965Y0127142D01*
X0044598Y0127509D01*
X0044598Y0128242D01*
X0044965Y0126400D02*
X0044598Y0126033D01*
X0044598Y0125299D01*
X0044965Y0124932D01*
X0045332Y0124932D01*
X0045699Y0125299D01*
X0045699Y0126033D01*
X0046066Y0126400D01*
X0046433Y0126400D01*
X0046800Y0126033D01*
X0046800Y0125299D01*
X0046433Y0124932D01*
X0046800Y0124192D02*
X0046800Y0123458D01*
X0046800Y0123825D02*
X0044598Y0123825D01*
X0044598Y0123458D02*
X0044598Y0124192D01*
X0044598Y0122716D02*
X0046800Y0122716D01*
X0046800Y0121249D02*
X0044598Y0121249D01*
X0045332Y0121983D01*
X0044598Y0122716D01*
X0044498Y0117773D02*
X0045966Y0116305D01*
X0045599Y0116672D02*
X0046700Y0117773D01*
X0046700Y0116305D02*
X0044498Y0116305D01*
X0044865Y0115563D02*
X0044498Y0115196D01*
X0044498Y0114462D01*
X0044865Y0114095D01*
X0046333Y0114095D01*
X0046700Y0114462D01*
X0046700Y0115196D01*
X0046333Y0115563D01*
X0046333Y0113353D02*
X0046700Y0112986D01*
X0046700Y0112252D01*
X0046333Y0111885D01*
X0045599Y0112252D02*
X0045599Y0112986D01*
X0045966Y0113353D01*
X0046333Y0113353D01*
X0045599Y0112252D02*
X0045232Y0111885D01*
X0044865Y0111885D01*
X0044498Y0112252D01*
X0044498Y0112986D01*
X0044865Y0113353D01*
X0044498Y0109183D02*
X0044498Y0107715D01*
X0044498Y0108449D02*
X0046700Y0108449D01*
X0046700Y0106973D02*
X0046700Y0105505D01*
X0044498Y0105505D01*
X0044498Y0106973D01*
X0045599Y0106239D02*
X0045599Y0105505D01*
X0045966Y0104763D02*
X0046333Y0104763D01*
X0046700Y0104396D01*
X0046700Y0103662D01*
X0046333Y0103295D01*
X0045599Y0103662D02*
X0045599Y0104396D01*
X0045966Y0104763D01*
X0044865Y0104763D02*
X0044498Y0104396D01*
X0044498Y0103662D01*
X0044865Y0103295D01*
X0045232Y0103295D01*
X0045599Y0103662D01*
X0044498Y0102553D02*
X0044498Y0101085D01*
X0046700Y0101085D01*
X0046700Y0102553D01*
X0045599Y0101819D02*
X0045599Y0101085D01*
X0045599Y0100343D02*
X0045966Y0099976D01*
X0045966Y0098875D01*
X0046700Y0098875D02*
X0044498Y0098875D01*
X0044498Y0099976D01*
X0044865Y0100343D01*
X0045599Y0100343D01*
X0045966Y0099609D02*
X0046700Y0100343D01*
X0057324Y0104000D02*
X0057324Y0106202D01*
X0056590Y0106202D02*
X0058058Y0106202D01*
X0058800Y0106202D02*
X0060268Y0104000D01*
X0058800Y0104000D02*
X0060268Y0106202D01*
X0073085Y0105535D02*
X0073085Y0104067D01*
X0073452Y0103700D01*
X0074186Y0103700D01*
X0074553Y0104067D01*
X0074553Y0104801D01*
X0073819Y0104801D01*
X0073085Y0105535D02*
X0073452Y0105902D01*
X0074186Y0105902D01*
X0074553Y0105535D01*
X0075295Y0105902D02*
X0076763Y0103700D01*
X0076763Y0105902D01*
X0077505Y0105902D02*
X0078606Y0105902D01*
X0078973Y0105535D01*
X0078973Y0104067D01*
X0078606Y0103700D01*
X0077505Y0103700D01*
X0077505Y0105902D01*
X0075295Y0105902D02*
X0075295Y0103700D01*
X0075625Y0113700D02*
X0076359Y0113700D01*
X0076726Y0114067D01*
X0076726Y0115535D01*
X0076359Y0115902D01*
X0075625Y0115902D01*
X0075258Y0115535D01*
X0075258Y0114067D01*
X0075625Y0113700D01*
X0074516Y0113700D02*
X0074516Y0115902D01*
X0073783Y0115168D01*
X0073049Y0115902D01*
X0073049Y0113700D01*
X0077468Y0114067D02*
X0077835Y0113700D01*
X0078569Y0113700D01*
X0078936Y0114067D01*
X0078936Y0114434D01*
X0078569Y0114801D01*
X0077835Y0114801D01*
X0077468Y0115168D01*
X0077468Y0115535D01*
X0077835Y0115902D01*
X0078569Y0115902D01*
X0078936Y0115535D01*
X0079678Y0115902D02*
X0080412Y0115902D01*
X0080045Y0115902D02*
X0080045Y0113700D01*
X0079678Y0113700D02*
X0080412Y0113700D01*
X0079291Y0123900D02*
X0080025Y0124634D01*
X0080025Y0126102D01*
X0078557Y0126102D02*
X0078557Y0124634D01*
X0079291Y0123900D01*
X0077815Y0124267D02*
X0077448Y0123900D01*
X0076714Y0123900D01*
X0076348Y0124267D01*
X0075610Y0124267D02*
X0075610Y0123900D01*
X0075243Y0123900D01*
X0075243Y0124267D01*
X0075610Y0124267D01*
X0074501Y0124267D02*
X0074134Y0123900D01*
X0073400Y0123900D01*
X0073033Y0124267D01*
X0073767Y0125001D02*
X0074134Y0125001D01*
X0074501Y0124634D01*
X0074501Y0124267D01*
X0074134Y0125001D02*
X0074501Y0125368D01*
X0074501Y0125735D01*
X0074134Y0126102D01*
X0073400Y0126102D01*
X0073033Y0125735D01*
X0076348Y0125735D02*
X0076714Y0126102D01*
X0077448Y0126102D01*
X0077815Y0125735D01*
X0077815Y0125368D01*
X0077448Y0125001D01*
X0077815Y0124634D01*
X0077815Y0124267D01*
X0077448Y0125001D02*
X0077081Y0125001D01*
D12*
X0073325Y0166250D03*
X0071825Y0167900D03*
X0071825Y0168950D03*
X0073325Y0170600D03*
X0061175Y0187400D03*
X0061325Y0187850D03*
X0061325Y0188000D03*
X0061325Y0188150D03*
X0061175Y0188450D03*
X0104375Y0172850D03*
D13*
X0110900Y0171950D03*
X0073250Y0170450D03*
X0073250Y0166400D03*
X0066200Y0171950D03*
X0066650Y0184400D03*
X0042950Y0176900D03*
X0032900Y0184550D03*
D14*
X0033125Y0184850D03*
X0036875Y0180800D03*
X0036875Y0180650D03*
X0036875Y0180500D03*
X0036875Y0180350D03*
X0036875Y0180200D03*
X0036875Y0180050D03*
X0036875Y0179900D03*
X0036875Y0179750D03*
X0036875Y0179600D03*
X0036875Y0179450D03*
X0036875Y0179300D03*
X0036875Y0179150D03*
X0036875Y0179000D03*
X0036875Y0178850D03*
X0036875Y0178700D03*
X0036875Y0178550D03*
X0036875Y0178400D03*
X0036875Y0178250D03*
X0036875Y0178100D03*
X0036875Y0177950D03*
X0036875Y0177800D03*
X0036875Y0177650D03*
X0036875Y0177500D03*
X0036875Y0177350D03*
X0036875Y0177200D03*
X0036875Y0177050D03*
X0036875Y0176900D03*
X0036875Y0176750D03*
X0036875Y0176600D03*
X0036875Y0176450D03*
X0036875Y0176300D03*
X0042875Y0176300D03*
X0042875Y0176450D03*
X0042875Y0176600D03*
X0042875Y0176150D03*
X0046925Y0176150D03*
X0046925Y0176300D03*
X0046925Y0176450D03*
X0046925Y0176600D03*
X0046925Y0176750D03*
X0046925Y0176900D03*
X0046925Y0177050D03*
X0046925Y0177200D03*
X0046925Y0177350D03*
X0046925Y0177500D03*
X0046925Y0177650D03*
X0046925Y0177800D03*
X0046925Y0177950D03*
X0046925Y0178100D03*
X0046925Y0178250D03*
X0046925Y0178400D03*
X0046925Y0178550D03*
X0046925Y0178700D03*
X0046925Y0178850D03*
X0046925Y0179000D03*
X0046925Y0179150D03*
X0046925Y0179300D03*
X0046925Y0179450D03*
X0046925Y0179600D03*
X0046925Y0179750D03*
X0046925Y0179900D03*
X0046925Y0180050D03*
X0046925Y0180200D03*
X0046925Y0180350D03*
X0046925Y0180500D03*
X0046925Y0180650D03*
X0046925Y0180800D03*
X0046925Y0180950D03*
X0046925Y0181100D03*
X0046925Y0181250D03*
X0046925Y0181400D03*
X0042875Y0180950D03*
X0046925Y0176000D03*
X0046925Y0175850D03*
X0046925Y0175700D03*
X0046925Y0175550D03*
X0046925Y0175400D03*
X0046925Y0175250D03*
X0046925Y0175100D03*
X0046925Y0174950D03*
X0046925Y0174800D03*
X0046925Y0174650D03*
X0046925Y0174500D03*
X0046925Y0174350D03*
X0046925Y0174200D03*
X0046925Y0174050D03*
X0046925Y0173900D03*
X0046925Y0173750D03*
X0046925Y0173600D03*
X0046925Y0173450D03*
X0046925Y0173300D03*
X0053225Y0173150D03*
X0059675Y0173300D03*
X0059675Y0173450D03*
X0059675Y0173600D03*
X0059675Y0173750D03*
X0059675Y0173900D03*
X0059675Y0174050D03*
X0059675Y0174200D03*
X0059675Y0174350D03*
X0059675Y0174500D03*
X0059675Y0174650D03*
X0059675Y0174800D03*
X0059675Y0174950D03*
X0059675Y0175100D03*
X0059675Y0175250D03*
X0059675Y0175400D03*
X0059675Y0175550D03*
X0059675Y0175700D03*
X0059675Y0175850D03*
X0059675Y0176000D03*
X0059675Y0176150D03*
X0059675Y0176300D03*
X0059675Y0176450D03*
X0059675Y0176600D03*
X0059675Y0176750D03*
X0059675Y0176900D03*
X0059675Y0177050D03*
X0059675Y0177200D03*
X0059675Y0177350D03*
X0059675Y0177500D03*
X0059675Y0177650D03*
X0059675Y0177800D03*
X0059675Y0177950D03*
X0059675Y0178100D03*
X0059675Y0178250D03*
X0059675Y0178400D03*
X0059675Y0178550D03*
X0059675Y0178700D03*
X0059675Y0178850D03*
X0059675Y0179000D03*
X0059675Y0179150D03*
X0059675Y0179300D03*
X0059675Y0179450D03*
X0059675Y0179600D03*
X0059675Y0179750D03*
X0059675Y0179900D03*
X0059675Y0180050D03*
X0059675Y0180200D03*
X0059675Y0180350D03*
X0059675Y0180500D03*
X0059675Y0180650D03*
X0059675Y0180800D03*
X0059675Y0180950D03*
X0059675Y0181100D03*
X0059675Y0181250D03*
X0059675Y0181400D03*
X0059675Y0186050D03*
X0053075Y0180650D03*
X0053075Y0179900D03*
X0053075Y0179750D03*
X0065975Y0171500D03*
X0071075Y0175550D03*
X0071075Y0175700D03*
X0071075Y0175850D03*
X0071075Y0176000D03*
X0071075Y0176150D03*
X0071075Y0176300D03*
X0071075Y0176450D03*
X0071075Y0176600D03*
X0071075Y0176750D03*
X0071075Y0176900D03*
X0071075Y0177050D03*
X0071075Y0177200D03*
X0071075Y0177350D03*
X0071075Y0177500D03*
X0071075Y0177650D03*
X0071075Y0177800D03*
X0071075Y0177950D03*
X0071075Y0178100D03*
X0071075Y0178250D03*
X0071075Y0178400D03*
X0071075Y0178550D03*
X0071075Y0178700D03*
X0071075Y0178850D03*
X0071075Y0179000D03*
X0071075Y0179150D03*
X0071075Y0179300D03*
X0071075Y0179450D03*
X0071075Y0179600D03*
X0071075Y0179750D03*
X0071075Y0179900D03*
X0071075Y0180050D03*
X0071075Y0180200D03*
X0071075Y0180350D03*
X0071075Y0180500D03*
X0071075Y0180650D03*
X0071075Y0180800D03*
X0071075Y0180950D03*
X0071075Y0181100D03*
X0071075Y0181250D03*
X0071075Y0181400D03*
X0071075Y0181550D03*
X0071075Y0181700D03*
X0071075Y0181850D03*
X0071075Y0182000D03*
X0071075Y0182150D03*
X0071075Y0182300D03*
X0071075Y0182450D03*
X0071075Y0182600D03*
X0071075Y0182750D03*
X0071075Y0182900D03*
X0071075Y0183050D03*
X0071075Y0183200D03*
X0071075Y0183350D03*
X0071075Y0183500D03*
X0071075Y0183650D03*
X0081875Y0179300D03*
X0081875Y0179150D03*
X0081875Y0179000D03*
X0081725Y0178850D03*
X0081725Y0178700D03*
X0081725Y0178550D03*
X0081575Y0178400D03*
X0081575Y0178250D03*
X0081425Y0177950D03*
X0081425Y0177800D03*
X0081275Y0177500D03*
X0081275Y0177350D03*
X0082025Y0179450D03*
X0082025Y0179600D03*
X0082175Y0179900D03*
X0082175Y0180050D03*
X0085175Y0179900D03*
X0085325Y0179600D03*
X0085325Y0179450D03*
X0085475Y0179150D03*
X0085625Y0178700D03*
X0085775Y0178400D03*
X0085775Y0178250D03*
X0085925Y0177950D03*
X0085925Y0177800D03*
X0086075Y0177500D03*
X0086075Y0177350D03*
X0087125Y0174500D03*
X0087275Y0174050D03*
X0087425Y0173750D03*
X0087425Y0173600D03*
X0087575Y0173300D03*
X0091025Y0175550D03*
X0091025Y0175700D03*
X0091025Y0175850D03*
X0091025Y0176000D03*
X0091025Y0176150D03*
X0091025Y0176300D03*
X0091025Y0176450D03*
X0091025Y0176600D03*
X0091025Y0176750D03*
X0091025Y0176900D03*
X0091025Y0177050D03*
X0091025Y0177200D03*
X0091025Y0177350D03*
X0091025Y0177500D03*
X0091025Y0177650D03*
X0091025Y0177800D03*
X0091025Y0177950D03*
X0091025Y0178100D03*
X0091025Y0178250D03*
X0091025Y0178400D03*
X0091025Y0178550D03*
X0091025Y0178700D03*
X0091025Y0178850D03*
X0091025Y0179000D03*
X0091025Y0179150D03*
X0091025Y0179300D03*
X0091025Y0179450D03*
X0091025Y0179600D03*
X0091025Y0179750D03*
X0091025Y0179900D03*
X0091025Y0180050D03*
X0091025Y0180200D03*
X0091025Y0180350D03*
X0091025Y0180500D03*
X0091025Y0180650D03*
X0091025Y0180800D03*
X0091025Y0180950D03*
X0091025Y0181100D03*
X0091025Y0181250D03*
X0091025Y0181400D03*
X0097325Y0181100D03*
X0097325Y0180950D03*
X0097325Y0180800D03*
X0097325Y0180650D03*
X0097325Y0180500D03*
X0097325Y0180350D03*
X0097475Y0176900D03*
X0101225Y0176750D03*
X0101225Y0176600D03*
X0101225Y0176450D03*
X0101375Y0181100D03*
X0104225Y0184100D03*
X0107075Y0181100D03*
X0107375Y0176300D03*
X0107375Y0176150D03*
X0110675Y0171500D03*
X0083675Y0183800D03*
X0080225Y0174500D03*
X0079775Y0173300D03*
X0073325Y0170300D03*
X0073325Y0166550D03*
D15*
X0073250Y0166700D03*
X0073250Y0170150D03*
X0083600Y0183350D03*
X0097100Y0181400D03*
X0101600Y0180500D03*
X0107150Y0176900D03*
X0107000Y0175400D03*
X0104450Y0173000D03*
X0101450Y0175700D03*
X0097400Y0175700D03*
X0059750Y0189650D03*
X0052850Y0181250D03*
X0052850Y0179300D03*
X0051050Y0176600D03*
X0051050Y0176450D03*
X0051200Y0176300D03*
X0051350Y0176000D03*
X0051500Y0175850D03*
X0051650Y0175550D03*
X0051800Y0175400D03*
X0052100Y0174950D03*
X0052400Y0174500D03*
X0052700Y0174050D03*
X0053000Y0173600D03*
X0053000Y0173450D03*
X0042650Y0181400D03*
X0042500Y0181550D03*
X0037100Y0175700D03*
D16*
X0037400Y0175400D03*
X0039950Y0183950D03*
X0052700Y0181400D03*
X0059750Y0189500D03*
X0073250Y0170000D03*
X0073250Y0166850D03*
X0083600Y0182900D03*
X0101750Y0175400D03*
X0106850Y0177050D03*
D17*
X0101825Y0180200D03*
X0101825Y0181850D03*
X0095825Y0178700D03*
X0097025Y0175550D03*
X0083675Y0182600D03*
X0083675Y0182750D03*
X0073325Y0169850D03*
X0073325Y0167000D03*
X0059675Y0186500D03*
X0051275Y0177350D03*
X0042275Y0181700D03*
D18*
X0039875Y0173150D03*
X0051425Y0177650D03*
X0059675Y0186650D03*
X0059675Y0189200D03*
X0073325Y0169700D03*
X0073325Y0167150D03*
X0083675Y0182300D03*
X0106625Y0177200D03*
D19*
X0102050Y0180050D03*
X0096050Y0179150D03*
X0096050Y0179000D03*
X0096050Y0178400D03*
X0083600Y0182150D03*
X0073250Y0169550D03*
X0073250Y0167300D03*
X0059750Y0186800D03*
X0059750Y0189050D03*
X0051500Y0177800D03*
D20*
X0051575Y0177950D03*
X0059675Y0186950D03*
X0059675Y0188900D03*
X0039875Y0183800D03*
X0073325Y0169400D03*
X0073325Y0167450D03*
X0083675Y0181850D03*
X0083675Y0182000D03*
X0096125Y0179300D03*
X0096425Y0179750D03*
X0096125Y0178250D03*
X0104375Y0173150D03*
D21*
X0047225Y0167600D03*
D22*
X0032750Y0184250D03*
X0060950Y0187100D03*
X0066500Y0184100D03*
X0072050Y0169250D03*
X0072050Y0167600D03*
X0111050Y0172100D03*
D23*
X0091175Y0168200D03*
X0091025Y0168050D03*
X0090575Y0167600D03*
D24*
X0047375Y0167750D03*
D25*
X0032600Y0169400D03*
X0032600Y0169550D03*
X0032600Y0169700D03*
X0032600Y0169850D03*
X0032600Y0170000D03*
X0032600Y0170150D03*
X0032600Y0170300D03*
X0032600Y0170450D03*
X0032600Y0170600D03*
X0032600Y0170750D03*
X0032600Y0170900D03*
X0032600Y0171050D03*
X0032600Y0171200D03*
X0032600Y0171350D03*
X0032600Y0171500D03*
X0032600Y0171650D03*
X0032600Y0171800D03*
X0032600Y0171950D03*
X0032600Y0172100D03*
X0032600Y0172250D03*
X0032600Y0172400D03*
X0032600Y0172550D03*
X0032600Y0172700D03*
X0032600Y0172850D03*
X0032600Y0173000D03*
X0032600Y0173150D03*
X0032600Y0173300D03*
X0032600Y0173450D03*
X0032600Y0173600D03*
X0032600Y0173750D03*
X0032600Y0173900D03*
X0032600Y0174050D03*
X0032600Y0174200D03*
X0032600Y0174350D03*
X0032600Y0174500D03*
X0032600Y0174650D03*
X0032600Y0174800D03*
X0032600Y0174950D03*
X0032600Y0175100D03*
X0032600Y0175250D03*
X0032600Y0175400D03*
X0032600Y0175550D03*
X0032600Y0175700D03*
X0032600Y0175850D03*
X0032600Y0176000D03*
X0032600Y0176150D03*
X0032600Y0176300D03*
X0032600Y0176450D03*
X0032600Y0176600D03*
X0032600Y0176750D03*
X0032600Y0176900D03*
X0032600Y0177050D03*
X0032600Y0177200D03*
X0032600Y0177350D03*
X0032600Y0177500D03*
X0032600Y0177650D03*
X0032600Y0177800D03*
X0032600Y0177950D03*
X0032600Y0178100D03*
X0032600Y0178250D03*
X0032600Y0178400D03*
X0032600Y0178550D03*
X0032600Y0178700D03*
X0032600Y0178850D03*
X0032600Y0179000D03*
X0032600Y0179150D03*
X0032600Y0179300D03*
X0032600Y0179450D03*
X0032600Y0179600D03*
X0032600Y0179750D03*
X0032600Y0179900D03*
X0032600Y0180050D03*
X0032600Y0180200D03*
X0032600Y0180350D03*
X0032600Y0180500D03*
X0032600Y0180650D03*
X0032600Y0180800D03*
X0032600Y0180950D03*
X0032600Y0181100D03*
X0032600Y0181250D03*
X0032600Y0181400D03*
X0032600Y0181550D03*
X0032600Y0181700D03*
X0032600Y0181850D03*
X0032600Y0182000D03*
X0032600Y0182150D03*
X0032600Y0182300D03*
X0032600Y0182450D03*
X0032600Y0182600D03*
X0032600Y0182750D03*
X0032600Y0182900D03*
X0032600Y0183050D03*
X0032600Y0183200D03*
X0032600Y0183350D03*
X0032600Y0183500D03*
X0032600Y0183650D03*
X0032600Y0183800D03*
X0032600Y0183950D03*
X0061100Y0187250D03*
X0061100Y0188600D03*
X0071900Y0169100D03*
X0071900Y0167750D03*
D26*
X0090800Y0167750D03*
X0090950Y0167900D03*
D27*
X0047450Y0167900D03*
D28*
X0047525Y0168050D03*
D29*
X0059750Y0185750D03*
X0061250Y0187550D03*
X0061250Y0187700D03*
X0061250Y0188300D03*
X0071750Y0168800D03*
X0071750Y0168650D03*
X0071750Y0168500D03*
X0071750Y0168350D03*
X0071750Y0168200D03*
X0071750Y0168050D03*
D30*
X0047600Y0168200D03*
D31*
X0047675Y0168350D03*
D32*
X0091325Y0168350D03*
D33*
X0047825Y0168500D03*
D34*
X0091400Y0168500D03*
D35*
X0047900Y0168650D03*
D36*
X0091475Y0168650D03*
D37*
X0047975Y0168800D03*
D38*
X0091475Y0168800D03*
D39*
X0048050Y0168950D03*
D40*
X0091550Y0168950D03*
D41*
X0048125Y0169100D03*
D42*
X0091625Y0169100D03*
D43*
X0048275Y0169250D03*
D44*
X0091550Y0169250D03*
D45*
X0087500Y0173450D03*
X0087350Y0173900D03*
X0087200Y0174200D03*
X0087200Y0174350D03*
X0087050Y0174650D03*
X0087050Y0174800D03*
X0081350Y0177650D03*
X0081500Y0178100D03*
X0080300Y0174800D03*
X0080300Y0174650D03*
X0080150Y0174350D03*
X0080150Y0174200D03*
X0080000Y0174050D03*
X0080000Y0173900D03*
X0080000Y0173750D03*
X0079850Y0173600D03*
X0079850Y0173450D03*
X0083600Y0183650D03*
X0097250Y0181250D03*
X0097250Y0180200D03*
X0097100Y0180050D03*
X0097400Y0177050D03*
X0097550Y0176750D03*
X0097550Y0176600D03*
X0097550Y0176450D03*
X0097550Y0176300D03*
X0097550Y0176150D03*
X0097550Y0176000D03*
X0101300Y0176000D03*
X0101300Y0176150D03*
X0101300Y0176300D03*
X0101450Y0180800D03*
X0101450Y0180950D03*
X0101450Y0181250D03*
X0101450Y0181400D03*
X0107000Y0181400D03*
X0107000Y0181250D03*
X0107300Y0176600D03*
X0107300Y0176450D03*
X0107300Y0176000D03*
X0107300Y0175850D03*
X0110600Y0171350D03*
X0110150Y0171050D03*
X0110000Y0170900D03*
X0109850Y0170750D03*
X0109700Y0170600D03*
X0109400Y0170450D03*
X0109250Y0170300D03*
X0109100Y0170150D03*
X0108950Y0170000D03*
X0108800Y0169850D03*
X0108500Y0169700D03*
X0108350Y0169550D03*
X0108200Y0169400D03*
X0069350Y0186950D03*
X0069200Y0186800D03*
X0069050Y0186650D03*
X0068900Y0186500D03*
X0068450Y0186200D03*
X0068300Y0186050D03*
X0068150Y0185900D03*
X0068000Y0185750D03*
X0067550Y0185450D03*
X0067400Y0185300D03*
X0067250Y0185150D03*
X0067100Y0185000D03*
X0066950Y0184850D03*
X0059750Y0189800D03*
X0053000Y0180950D03*
X0053000Y0180800D03*
X0053150Y0180500D03*
X0053150Y0180350D03*
X0053150Y0180200D03*
X0053150Y0180050D03*
X0053000Y0179600D03*
X0050900Y0176900D03*
X0042800Y0176000D03*
X0042800Y0175850D03*
X0042800Y0181100D03*
X0036950Y0180950D03*
X0036950Y0176150D03*
X0036950Y0176000D03*
X0033200Y0185000D03*
X0033350Y0185150D03*
X0033500Y0185300D03*
X0033800Y0185450D03*
X0033950Y0185600D03*
X0034100Y0185750D03*
X0034250Y0185900D03*
X0034400Y0186050D03*
X0034700Y0186200D03*
X0034850Y0186350D03*
X0035000Y0186500D03*
X0035150Y0186650D03*
X0035600Y0186950D03*
X0063500Y0169400D03*
X0063650Y0169550D03*
X0063800Y0169700D03*
X0064250Y0170000D03*
X0064400Y0170150D03*
X0064550Y0170300D03*
X0064700Y0170450D03*
X0065150Y0170750D03*
X0065300Y0170900D03*
X0065450Y0171050D03*
X0065600Y0171200D03*
D46*
X0065825Y0171350D03*
X0064925Y0170600D03*
X0064025Y0169850D03*
X0053075Y0173300D03*
X0050975Y0176750D03*
X0050975Y0177050D03*
X0052925Y0179450D03*
X0052925Y0181100D03*
X0059675Y0186200D03*
X0067775Y0185600D03*
X0068675Y0186350D03*
X0083675Y0183500D03*
X0097025Y0179900D03*
X0097325Y0177200D03*
X0097475Y0175850D03*
X0101375Y0175850D03*
X0101525Y0180650D03*
X0101525Y0181550D03*
X0106925Y0181550D03*
X0107225Y0176750D03*
X0107225Y0175700D03*
X0107075Y0175550D03*
X0110375Y0171200D03*
X0042725Y0175700D03*
X0042575Y0175550D03*
X0039875Y0173000D03*
X0037025Y0175850D03*
X0037025Y0181100D03*
X0037025Y0181250D03*
X0035375Y0186800D03*
X0042725Y0181250D03*
D47*
X0042950Y0180800D03*
X0042950Y0180650D03*
X0042950Y0176750D03*
X0033050Y0184700D03*
X0066050Y0171650D03*
X0066800Y0184700D03*
X0071150Y0183800D03*
X0082250Y0180200D03*
X0082100Y0179750D03*
X0085100Y0180050D03*
X0085100Y0180200D03*
X0085250Y0179750D03*
X0085400Y0179300D03*
X0085550Y0179000D03*
X0085550Y0178850D03*
X0085700Y0178550D03*
X0085850Y0178100D03*
X0086000Y0177650D03*
X0107150Y0180800D03*
X0107150Y0180950D03*
X0110750Y0171650D03*
D48*
X0110825Y0171800D03*
X0107225Y0180650D03*
X0087575Y0173150D03*
X0079775Y0173150D03*
X0066725Y0184550D03*
X0059675Y0189950D03*
X0059675Y0173150D03*
X0066125Y0171800D03*
X0046925Y0173150D03*
D49*
X0042875Y0180500D03*
X0039875Y0184100D03*
X0032825Y0184400D03*
X0059675Y0185900D03*
X0066575Y0184250D03*
X0066275Y0172100D03*
X0083675Y0183950D03*
X0101225Y0176900D03*
D50*
X0111125Y0176900D03*
X0111125Y0177050D03*
X0111125Y0177200D03*
X0111125Y0177350D03*
X0111125Y0177500D03*
X0111125Y0177650D03*
X0111125Y0177800D03*
X0111125Y0177950D03*
X0111125Y0178100D03*
X0111125Y0178250D03*
X0111125Y0178400D03*
X0111125Y0178550D03*
X0111125Y0178700D03*
X0111125Y0178850D03*
X0111125Y0179000D03*
X0111125Y0179150D03*
X0111125Y0179300D03*
X0111125Y0179450D03*
X0111125Y0179600D03*
X0111125Y0179750D03*
X0111125Y0179900D03*
X0111125Y0180050D03*
X0111125Y0180200D03*
X0111125Y0180350D03*
X0111125Y0180500D03*
X0111125Y0180650D03*
X0111125Y0180800D03*
X0111125Y0180950D03*
X0111125Y0181100D03*
X0111125Y0181250D03*
X0111125Y0181400D03*
X0111125Y0181550D03*
X0111125Y0181700D03*
X0111125Y0181850D03*
X0111125Y0182000D03*
X0111125Y0182150D03*
X0111125Y0182300D03*
X0111125Y0182450D03*
X0111125Y0182600D03*
X0111125Y0182750D03*
X0111125Y0182900D03*
X0111125Y0183050D03*
X0111125Y0183200D03*
X0111125Y0183350D03*
X0111125Y0183500D03*
X0111125Y0183650D03*
X0111125Y0183800D03*
X0111125Y0183950D03*
X0111125Y0184100D03*
X0111125Y0184250D03*
X0111125Y0184400D03*
X0111125Y0184550D03*
X0111125Y0184700D03*
X0111125Y0184850D03*
X0111125Y0185000D03*
X0111125Y0185150D03*
X0111125Y0185300D03*
X0111125Y0185450D03*
X0111125Y0185600D03*
X0111125Y0185750D03*
X0111125Y0185900D03*
X0111125Y0186050D03*
X0111125Y0186200D03*
X0111125Y0186350D03*
X0111125Y0186500D03*
X0111125Y0186650D03*
X0111125Y0186800D03*
X0111125Y0186950D03*
X0111125Y0176750D03*
X0111125Y0176600D03*
X0111125Y0176450D03*
X0111125Y0176300D03*
X0111125Y0176150D03*
X0111125Y0176000D03*
X0111125Y0175850D03*
X0111125Y0175700D03*
X0111125Y0175550D03*
X0111125Y0175400D03*
X0111125Y0175250D03*
X0111125Y0175100D03*
X0111125Y0174950D03*
X0111125Y0174800D03*
X0111125Y0174650D03*
X0111125Y0174500D03*
X0111125Y0174350D03*
X0111125Y0174200D03*
X0111125Y0174050D03*
X0111125Y0173900D03*
X0111125Y0173750D03*
X0111125Y0173600D03*
X0111125Y0173450D03*
X0111125Y0173300D03*
X0111125Y0173150D03*
X0111125Y0173000D03*
X0111125Y0172850D03*
X0111125Y0172700D03*
X0111125Y0172550D03*
X0111125Y0172400D03*
X0111125Y0172250D03*
X0066425Y0172250D03*
X0066425Y0172400D03*
X0066425Y0172550D03*
X0066425Y0172700D03*
X0066425Y0172850D03*
X0066425Y0173000D03*
X0066425Y0173150D03*
X0066425Y0173300D03*
X0066425Y0173450D03*
X0066425Y0173600D03*
X0066425Y0173750D03*
X0066425Y0173900D03*
X0066425Y0174050D03*
X0066425Y0174200D03*
X0066425Y0174350D03*
X0066425Y0174500D03*
X0066425Y0174650D03*
X0066425Y0174800D03*
X0066425Y0174950D03*
X0066425Y0175100D03*
X0066425Y0175250D03*
X0066425Y0175400D03*
X0066425Y0175550D03*
X0066425Y0175700D03*
X0066425Y0175850D03*
X0066425Y0176000D03*
X0066425Y0176150D03*
X0066425Y0176300D03*
X0066425Y0176450D03*
X0066425Y0176600D03*
X0066425Y0176750D03*
X0066425Y0176900D03*
X0066425Y0177050D03*
X0066425Y0177200D03*
X0066425Y0177350D03*
X0066425Y0177500D03*
X0066425Y0177650D03*
X0066425Y0177800D03*
X0066425Y0177950D03*
X0066425Y0178100D03*
X0066425Y0178250D03*
X0066425Y0178400D03*
X0066425Y0178550D03*
X0066425Y0178700D03*
X0066425Y0178850D03*
X0066425Y0179000D03*
X0066425Y0179150D03*
X0066425Y0179300D03*
X0066425Y0179450D03*
X0066425Y0179600D03*
X0066425Y0179750D03*
X0066425Y0179900D03*
X0066425Y0180050D03*
X0066425Y0180200D03*
X0066425Y0180350D03*
X0066425Y0180500D03*
X0066425Y0180650D03*
X0066425Y0180800D03*
X0066425Y0180950D03*
X0066425Y0181100D03*
X0066425Y0181250D03*
X0066425Y0181400D03*
X0066425Y0181550D03*
X0066425Y0181700D03*
X0066425Y0181850D03*
X0066425Y0182000D03*
X0066425Y0182150D03*
X0066425Y0182300D03*
X0066425Y0182450D03*
X0066425Y0182600D03*
X0066425Y0182750D03*
X0066425Y0182900D03*
X0066425Y0183050D03*
X0066425Y0183200D03*
X0066425Y0183350D03*
X0066425Y0183500D03*
X0066425Y0183650D03*
X0066425Y0183800D03*
X0066425Y0183950D03*
X0061025Y0188750D03*
X0059675Y0190100D03*
X0032675Y0184100D03*
D51*
X0039875Y0172850D03*
D52*
X0039875Y0174500D03*
X0039875Y0182600D03*
X0049325Y0183350D03*
X0073625Y0173150D03*
X0093425Y0173450D03*
X0093425Y0183500D03*
X0104225Y0182750D03*
X0104225Y0182600D03*
D53*
X0103625Y0179150D03*
X0104375Y0173750D03*
X0092975Y0173150D03*
X0039875Y0173900D03*
X0039875Y0183200D03*
D54*
X0051725Y0178400D03*
X0039875Y0173300D03*
X0083675Y0181400D03*
X0083675Y0181550D03*
X0096275Y0177950D03*
X0096275Y0177800D03*
X0096425Y0177500D03*
X0104225Y0183800D03*
X0106325Y0177350D03*
D55*
X0104375Y0174500D03*
X0104225Y0182300D03*
X0104225Y0182450D03*
X0093575Y0173600D03*
X0083675Y0176900D03*
X0083675Y0177050D03*
X0083675Y0177200D03*
X0073625Y0175400D03*
X0073625Y0175250D03*
X0073625Y0175100D03*
X0073625Y0174950D03*
X0073625Y0174800D03*
X0073625Y0174650D03*
X0073625Y0174500D03*
X0073625Y0174350D03*
X0073625Y0174200D03*
X0073625Y0174050D03*
X0073625Y0173900D03*
X0073625Y0173750D03*
X0073625Y0173600D03*
X0073625Y0173450D03*
X0073625Y0173300D03*
X0049475Y0183050D03*
X0039875Y0182450D03*
X0039875Y0182300D03*
X0039875Y0174650D03*
D56*
X0039800Y0174200D03*
X0093200Y0173300D03*
X0104300Y0174050D03*
X0093200Y0183650D03*
D57*
X0102575Y0179750D03*
X0104375Y0173300D03*
X0083675Y0180950D03*
X0083675Y0181100D03*
D58*
X0083675Y0180800D03*
X0083675Y0180650D03*
X0104225Y0183650D03*
X0106025Y0177500D03*
X0039875Y0173450D03*
D59*
X0039875Y0183500D03*
X0083675Y0180350D03*
X0092675Y0183950D03*
X0102875Y0179600D03*
X0105725Y0177650D03*
X0104375Y0173450D03*
D60*
X0103175Y0179450D03*
X0104225Y0183500D03*
X0039875Y0173600D03*
D61*
X0039875Y0173750D03*
X0103325Y0179300D03*
X0104225Y0183350D03*
X0104375Y0173600D03*
D62*
X0101525Y0175550D03*
X0097175Y0177350D03*
X0101675Y0180350D03*
X0101675Y0181700D03*
X0106775Y0181700D03*
X0083675Y0183050D03*
X0083675Y0183200D03*
X0059675Y0186350D03*
X0052625Y0179150D03*
X0051125Y0177200D03*
X0051275Y0176150D03*
X0051575Y0175700D03*
X0051875Y0175250D03*
X0052025Y0175100D03*
X0052175Y0174800D03*
X0052325Y0174650D03*
X0052475Y0174350D03*
X0052625Y0174200D03*
X0052775Y0173900D03*
X0052925Y0173750D03*
X0042425Y0175400D03*
X0037175Y0175550D03*
X0037175Y0181400D03*
X0037325Y0181550D03*
D63*
X0039800Y0174800D03*
X0049550Y0182900D03*
X0093650Y0183200D03*
X0093650Y0173750D03*
X0104300Y0174650D03*
D64*
X0104300Y0174800D03*
X0104300Y0174950D03*
X0093800Y0173900D03*
X0093800Y0182900D03*
X0083600Y0176450D03*
X0059750Y0181550D03*
X0049700Y0182600D03*
X0039800Y0175100D03*
D65*
X0039875Y0182900D03*
X0049025Y0183650D03*
X0104225Y0183050D03*
X0104375Y0173900D03*
D66*
X0104600Y0178400D03*
X0104450Y0178550D03*
X0039800Y0174050D03*
D67*
X0039875Y0175250D03*
X0039875Y0181850D03*
X0049775Y0182300D03*
X0049775Y0182450D03*
X0083675Y0176300D03*
X0083675Y0176150D03*
X0093875Y0174050D03*
X0093875Y0182750D03*
D68*
X0093950Y0182600D03*
X0093950Y0182450D03*
X0093950Y0174200D03*
X0104300Y0175100D03*
X0104300Y0175250D03*
X0059750Y0181700D03*
X0059750Y0183650D03*
X0059750Y0183800D03*
X0049850Y0182150D03*
X0049850Y0182000D03*
D69*
X0104300Y0174200D03*
D70*
X0104225Y0182900D03*
X0049175Y0183500D03*
X0039875Y0182750D03*
X0039875Y0174350D03*
D71*
X0049925Y0181550D03*
X0049925Y0181700D03*
X0049925Y0181850D03*
X0059675Y0181850D03*
X0059675Y0182000D03*
X0059675Y0182150D03*
X0059675Y0182300D03*
X0059675Y0182450D03*
X0059675Y0182600D03*
X0059675Y0182750D03*
X0059675Y0182900D03*
X0059675Y0183050D03*
X0059675Y0183200D03*
X0059675Y0183350D03*
X0059675Y0183500D03*
X0083675Y0176000D03*
X0083675Y0175850D03*
X0083675Y0175700D03*
X0094025Y0174350D03*
X0094025Y0182150D03*
X0094025Y0182300D03*
D72*
X0093500Y0183350D03*
X0104300Y0174350D03*
X0049400Y0183200D03*
D73*
X0094100Y0182000D03*
X0094100Y0181850D03*
X0094100Y0181700D03*
X0094100Y0174650D03*
X0094100Y0174500D03*
D74*
X0094175Y0174800D03*
X0094175Y0174950D03*
X0094175Y0181550D03*
X0083675Y0175550D03*
X0083675Y0175400D03*
D75*
X0083675Y0176600D03*
X0083675Y0176750D03*
X0093725Y0183050D03*
X0104225Y0182150D03*
X0104225Y0182000D03*
X0049625Y0182750D03*
X0039875Y0182150D03*
X0039875Y0182000D03*
X0039875Y0174950D03*
D76*
X0083675Y0174950D03*
X0083675Y0175100D03*
D77*
X0083600Y0175250D03*
X0094250Y0175250D03*
X0094250Y0175400D03*
X0094250Y0175100D03*
D78*
X0095900Y0178550D03*
X0095900Y0178850D03*
X0104150Y0183950D03*
X0106550Y0181850D03*
X0083600Y0182450D03*
X0059750Y0189350D03*
X0052400Y0179000D03*
X0051350Y0177500D03*
X0037550Y0181700D03*
D79*
X0051800Y0178700D03*
X0051800Y0178550D03*
X0051950Y0178850D03*
X0083600Y0181250D03*
X0096350Y0177650D03*
D80*
X0105500Y0177800D03*
X0039950Y0183350D03*
D81*
X0048800Y0183800D03*
X0105200Y0177950D03*
D82*
X0102350Y0179900D03*
X0096200Y0179600D03*
X0096200Y0179450D03*
X0096200Y0178100D03*
X0083600Y0181700D03*
X0051650Y0178250D03*
X0051650Y0178100D03*
D83*
X0103850Y0179000D03*
X0105050Y0178100D03*
D84*
X0104825Y0178250D03*
X0104225Y0178700D03*
X0104075Y0178850D03*
X0104225Y0183200D03*
X0092975Y0183800D03*
X0039875Y0183050D03*
D85*
X0083600Y0180500D03*
D86*
X0039950Y0183650D03*
D87*
X0046850Y0187100D03*
D88*
X0090050Y0187100D03*
D89*
X0046850Y0187250D03*
D90*
X0090200Y0187250D03*
D91*
X0046850Y0187400D03*
D92*
X0090275Y0187400D03*
D93*
X0046850Y0187550D03*
D94*
X0090350Y0187550D03*
D95*
X0046925Y0187700D03*
D96*
X0090425Y0187700D03*
D97*
X0047000Y0187850D03*
D98*
X0090575Y0187850D03*
D99*
X0047075Y0188000D03*
D100*
X0090650Y0188000D03*
D101*
X0047300Y0188300D03*
X0047150Y0188150D03*
D102*
X0090725Y0188150D03*
D103*
X0090800Y0188300D03*
D104*
X0047750Y0188750D03*
X0047600Y0188600D03*
X0047450Y0188450D03*
D105*
X0090875Y0188450D03*
D106*
X0091025Y0188600D03*
D107*
X0091100Y0188750D03*
D108*
X0101914Y0146004D02*
X0103449Y0146004D01*
X0104216Y0145237D01*
X0101147Y0142167D01*
X0101914Y0141400D01*
X0103449Y0141400D01*
X0104216Y0142167D01*
X0104216Y0145237D01*
X0101914Y0146004D02*
X0101147Y0145237D01*
X0101147Y0142167D01*
X0099612Y0144469D02*
X0098078Y0141400D01*
X0096543Y0144469D01*
X0105751Y0142167D02*
X0106518Y0142167D01*
X0106518Y0141400D01*
X0105751Y0141400D01*
X0105751Y0142167D01*
X0108053Y0141400D02*
X0111122Y0144469D01*
X0111122Y0145237D01*
X0110355Y0146004D01*
X0108820Y0146004D01*
X0108053Y0145237D01*
X0108053Y0141400D02*
X0111122Y0141400D01*
D109*
X0110026Y0137019D02*
X0108591Y0137019D01*
X0107874Y0136302D01*
X0107874Y0134867D01*
X0108591Y0134150D01*
X0110026Y0134150D01*
X0110743Y0134867D01*
X0110743Y0136302D01*
X0110026Y0137019D01*
X0106239Y0134150D02*
X0104805Y0134150D01*
X0105522Y0134150D02*
X0105522Y0137019D01*
X0104805Y0137019D01*
X0105522Y0138454D02*
X0105522Y0139171D01*
X0100768Y0137019D02*
X0098616Y0137019D01*
X0097899Y0136302D01*
X0097899Y0134867D01*
X0098616Y0134150D01*
X0100768Y0134150D01*
X0100768Y0132715D02*
X0100768Y0137019D01*
X0102503Y0134867D02*
X0103220Y0134867D01*
X0103220Y0134150D01*
X0102503Y0134150D01*
X0102503Y0134867D01*
X0096164Y0134150D02*
X0094012Y0134150D01*
X0093295Y0134867D01*
X0094012Y0135585D01*
X0096164Y0135585D01*
X0096164Y0136302D02*
X0096164Y0134150D01*
X0096164Y0136302D02*
X0095447Y0137019D01*
X0094012Y0137019D01*
X0090943Y0137019D02*
X0090943Y0134150D01*
X0090226Y0134150D02*
X0091660Y0134150D01*
X0090943Y0137019D02*
X0090226Y0137019D01*
X0090943Y0138454D02*
X0090943Y0139171D01*
X0088491Y0136302D02*
X0087774Y0137019D01*
X0085622Y0137019D01*
X0085622Y0132715D01*
X0085622Y0134150D02*
X0087774Y0134150D01*
X0088491Y0134867D01*
X0088491Y0136302D01*
D110*
X0081200Y0148000D03*
X0080800Y0148000D03*
X0080400Y0148000D03*
X0080000Y0148000D03*
X0079600Y0148000D03*
X0075600Y0150000D03*
X0076200Y0151800D03*
X0070000Y0150000D03*
X0068800Y0152800D03*
X0068400Y0152800D03*
X0068000Y0152800D03*
X0067600Y0152800D03*
X0067200Y0152800D03*
X0066800Y0152800D03*
X0066400Y0152800D03*
X0066000Y0152800D03*
X0065600Y0152800D03*
X0059600Y0150000D03*
X0055400Y0153800D03*
X0054400Y0153600D03*
X0054000Y0153600D03*
X0053600Y0153600D03*
X0053200Y0153600D03*
X0052800Y0153600D03*
X0054400Y0155600D03*
X0054800Y0161200D03*
X0054200Y0161400D03*
X0053800Y0161400D03*
X0053400Y0161400D03*
X0053000Y0161400D03*
X0052600Y0161400D03*
X0055200Y0163200D03*
X0055800Y0163000D03*
X0060000Y0160400D03*
X0060400Y0160400D03*
X0060800Y0160400D03*
X0075600Y0163200D03*
X0076600Y0161400D03*
X0077000Y0161400D03*
X0078000Y0163200D03*
X0078600Y0163000D03*
X0088200Y0157400D03*
X0088600Y0157400D03*
X0089000Y0157400D03*
X0089400Y0157400D03*
X0089800Y0157400D03*
X0090200Y0157400D03*
X0090600Y0157400D03*
X0091000Y0157400D03*
X0091400Y0157400D03*
X0091800Y0157400D03*
X0098400Y0152800D03*
X0098800Y0152800D03*
X0099200Y0152800D03*
X0099600Y0152800D03*
X0100000Y0152800D03*
X0100400Y0152800D03*
X0100800Y0152800D03*
X0101200Y0152800D03*
X0101600Y0152800D03*
X0102800Y0150000D03*
X0105000Y0161400D03*
X0105400Y0161400D03*
X0105800Y0161400D03*
X0106200Y0161400D03*
X0106600Y0161400D03*
X0109400Y0161400D03*
X0109800Y0161400D03*
X0110200Y0161400D03*
X0110600Y0161400D03*
X0111000Y0161400D03*
X0111400Y0161400D03*
D111*
X0108100Y0161200D03*
X0108100Y0161000D03*
X0108100Y0160800D03*
X0108100Y0160400D03*
X0108100Y0160000D03*
X0108100Y0159600D03*
X0108100Y0159400D03*
X0108100Y0159200D03*
X0108100Y0158800D03*
X0108100Y0158400D03*
X0108100Y0158000D03*
X0108100Y0157800D03*
X0108100Y0157600D03*
X0108100Y0157200D03*
X0108100Y0156800D03*
X0108100Y0156400D03*
X0108100Y0156200D03*
X0108100Y0156000D03*
X0108100Y0155600D03*
X0108100Y0155200D03*
X0108100Y0154800D03*
X0108100Y0154600D03*
X0108100Y0154400D03*
X0108100Y0154000D03*
X0108100Y0153600D03*
X0108100Y0153200D03*
X0108100Y0153000D03*
X0108100Y0152800D03*
X0108100Y0152400D03*
X0108100Y0152000D03*
X0108100Y0151600D03*
X0108100Y0151400D03*
X0108100Y0151200D03*
X0108100Y0150800D03*
X0108100Y0150400D03*
X0108100Y0150200D03*
X0103700Y0150400D03*
X0103500Y0151400D03*
X0103300Y0151800D03*
X0102700Y0155000D03*
X0102500Y0155400D03*
X0102500Y0156000D03*
X0102100Y0157400D03*
X0102100Y0157600D03*
X0101900Y0158600D03*
X0101700Y0159400D03*
X0101700Y0159600D03*
X0101500Y0160000D03*
X0101500Y0160200D03*
X0101500Y0160400D03*
X0101300Y0161200D03*
X0101300Y0161400D03*
X0101300Y0161600D03*
X0101100Y0162200D03*
X0099100Y0162000D03*
X0098900Y0161200D03*
X0098900Y0161000D03*
X0098700Y0160200D03*
X0098500Y0159000D03*
X0098500Y0158800D03*
X0098300Y0158400D03*
X0098300Y0157800D03*
X0098100Y0157400D03*
X0097900Y0156200D03*
X0097700Y0155200D03*
X0097100Y0152600D03*
X0096700Y0150600D03*
X0093300Y0150600D03*
X0093300Y0151000D03*
X0093300Y0151400D03*
X0093300Y0151800D03*
X0093300Y0152200D03*
X0093300Y0152600D03*
X0093300Y0153000D03*
X0093300Y0153400D03*
X0093300Y0153800D03*
X0093300Y0154200D03*
X0093300Y0154600D03*
X0093300Y0155000D03*
X0093300Y0155400D03*
X0093300Y0157800D03*
X0093300Y0158200D03*
X0093300Y0158600D03*
X0093300Y0159000D03*
X0093300Y0159400D03*
X0093300Y0159800D03*
X0093300Y0160200D03*
X0093300Y0160600D03*
X0093300Y0161000D03*
X0093300Y0161400D03*
X0093300Y0161800D03*
X0093300Y0162200D03*
X0093300Y0162600D03*
X0086700Y0162600D03*
X0086700Y0162800D03*
X0086700Y0162400D03*
X0086700Y0162000D03*
X0086700Y0161600D03*
X0086700Y0161200D03*
X0086700Y0161000D03*
X0086700Y0160800D03*
X0086700Y0160400D03*
X0086700Y0160000D03*
X0086700Y0159600D03*
X0086700Y0159400D03*
X0086700Y0159200D03*
X0086700Y0158800D03*
X0086700Y0158400D03*
X0086700Y0158000D03*
X0086700Y0157800D03*
X0086700Y0157600D03*
X0086700Y0155200D03*
X0086700Y0154800D03*
X0086700Y0154600D03*
X0086700Y0154400D03*
X0086700Y0154000D03*
X0086700Y0153600D03*
X0086700Y0153200D03*
X0086700Y0153000D03*
X0086700Y0152800D03*
X0086700Y0152400D03*
X0086700Y0152000D03*
X0086700Y0151600D03*
X0086700Y0151400D03*
X0086700Y0151200D03*
X0086700Y0150800D03*
X0086700Y0150400D03*
X0080300Y0148200D03*
X0079900Y0153800D03*
X0079900Y0154200D03*
X0079900Y0154600D03*
X0079900Y0155000D03*
X0079900Y0155400D03*
X0079900Y0155800D03*
X0079900Y0156200D03*
X0079900Y0156600D03*
X0079900Y0157000D03*
X0079900Y0157400D03*
X0079900Y0157800D03*
X0079900Y0158200D03*
X0079900Y0158600D03*
X0079900Y0159000D03*
X0079900Y0159400D03*
X0079900Y0159800D03*
X0079700Y0160200D03*
X0073900Y0160200D03*
X0073700Y0159800D03*
X0073700Y0159400D03*
X0073700Y0159000D03*
X0073700Y0158600D03*
X0073700Y0158200D03*
X0073700Y0157800D03*
X0073700Y0157400D03*
X0073700Y0157000D03*
X0073700Y0156600D03*
X0073700Y0156200D03*
X0073700Y0155800D03*
X0073700Y0155400D03*
X0073700Y0155000D03*
X0073700Y0154600D03*
X0073700Y0154200D03*
X0073700Y0153800D03*
X0073700Y0153400D03*
X0070500Y0151800D03*
X0070700Y0151400D03*
X0070900Y0150400D03*
X0069900Y0155000D03*
X0069700Y0155400D03*
X0069700Y0156000D03*
X0069300Y0157400D03*
X0069300Y0157600D03*
X0069100Y0158600D03*
X0068900Y0159400D03*
X0068900Y0159600D03*
X0068700Y0160000D03*
X0068700Y0160200D03*
X0068700Y0160400D03*
X0068500Y0161200D03*
X0068500Y0161400D03*
X0068500Y0161600D03*
X0068300Y0162200D03*
X0066300Y0162000D03*
X0066100Y0161200D03*
X0066100Y0161000D03*
X0065900Y0160200D03*
X0065700Y0159000D03*
X0065700Y0158800D03*
X0065500Y0158400D03*
X0065500Y0157800D03*
X0065300Y0157400D03*
X0065100Y0156200D03*
X0064900Y0155200D03*
X0064300Y0152600D03*
X0063900Y0150600D03*
X0060500Y0150600D03*
X0060500Y0150800D03*
X0060500Y0151000D03*
X0060500Y0151200D03*
X0060500Y0151400D03*
X0060500Y0151600D03*
X0060500Y0152000D03*
X0060500Y0152200D03*
X0060500Y0152400D03*
X0060500Y0152600D03*
X0060500Y0152800D03*
X0060500Y0153000D03*
X0060500Y0153200D03*
X0060500Y0153600D03*
X0060500Y0153800D03*
X0060500Y0154000D03*
X0060500Y0154200D03*
X0060500Y0154400D03*
X0060500Y0154600D03*
X0060500Y0154800D03*
X0060500Y0155200D03*
X0060500Y0155400D03*
X0060500Y0155600D03*
X0060500Y0155800D03*
X0060500Y0156000D03*
X0060500Y0156200D03*
X0060500Y0156400D03*
X0060500Y0156800D03*
X0060500Y0157000D03*
X0060500Y0157200D03*
X0060500Y0157400D03*
X0060500Y0157600D03*
X0060500Y0157800D03*
X0060500Y0158000D03*
X0060500Y0158400D03*
X0060500Y0158600D03*
X0060500Y0158800D03*
X0060500Y0159000D03*
X0060500Y0159200D03*
X0060500Y0159400D03*
X0060500Y0159600D03*
X0060500Y0159800D03*
X0060500Y0160000D03*
X0060500Y0162200D03*
X0060500Y0163600D03*
X0057300Y0159600D03*
X0057300Y0159200D03*
X0057300Y0158800D03*
X0057300Y0158400D03*
X0057300Y0158000D03*
X0057300Y0157600D03*
X0057100Y0156600D03*
X0051300Y0156600D03*
X0051300Y0157000D03*
X0051300Y0157400D03*
X0051300Y0157800D03*
X0051300Y0158200D03*
X0051300Y0158600D03*
X0051300Y0159000D03*
X0051300Y0159400D03*
X0051300Y0159800D03*
X0051300Y0160200D03*
X0051300Y0160600D03*
X0051300Y0161000D03*
X0051300Y0161400D03*
X0051300Y0156200D03*
X0051300Y0155800D03*
X0051300Y0153400D03*
X0051300Y0153000D03*
X0051300Y0152600D03*
X0051300Y0152200D03*
X0051300Y0151800D03*
X0051300Y0151400D03*
X0051300Y0151000D03*
X0051300Y0150600D03*
X0060500Y0150400D03*
D112*
X0060400Y0151800D03*
X0060400Y0153400D03*
X0060400Y0155000D03*
X0060400Y0156600D03*
X0060400Y0158200D03*
X0057200Y0158200D03*
X0057200Y0158600D03*
X0057200Y0159000D03*
X0057200Y0159400D03*
X0057200Y0159800D03*
X0057200Y0160000D03*
X0057200Y0160200D03*
X0057000Y0160400D03*
X0057200Y0157800D03*
X0057200Y0157400D03*
X0057200Y0157200D03*
X0057200Y0157000D03*
X0057000Y0156800D03*
X0057000Y0156400D03*
X0056800Y0156200D03*
X0051400Y0156400D03*
X0051400Y0156800D03*
X0051400Y0157200D03*
X0051400Y0157600D03*
X0051400Y0158000D03*
X0051400Y0158400D03*
X0051400Y0158800D03*
X0051400Y0159200D03*
X0051400Y0159600D03*
X0051400Y0160000D03*
X0051400Y0160400D03*
X0051400Y0160800D03*
X0051400Y0161200D03*
X0051400Y0156000D03*
X0051400Y0155600D03*
X0051400Y0153600D03*
X0051400Y0153200D03*
X0051400Y0152800D03*
X0051400Y0152400D03*
X0051400Y0152000D03*
X0051400Y0151600D03*
X0051400Y0151200D03*
X0051400Y0150800D03*
X0051400Y0150400D03*
X0063800Y0150400D03*
X0063800Y0150800D03*
X0064000Y0151000D03*
X0064000Y0151200D03*
X0064000Y0151400D03*
X0064200Y0151600D03*
X0064000Y0151800D03*
X0064200Y0152000D03*
X0064200Y0152400D03*
X0064200Y0152800D03*
X0064800Y0154800D03*
X0064800Y0155000D03*
X0064800Y0155400D03*
X0065000Y0155600D03*
X0065000Y0156000D03*
X0065000Y0156400D03*
X0065200Y0156600D03*
X0065200Y0156800D03*
X0065200Y0157000D03*
X0065400Y0157200D03*
X0065400Y0157600D03*
X0065400Y0158000D03*
X0065600Y0158200D03*
X0065600Y0158600D03*
X0065800Y0159200D03*
X0065800Y0159600D03*
X0065800Y0160000D03*
X0066000Y0160600D03*
X0066200Y0161600D03*
X0068400Y0161800D03*
X0068600Y0160800D03*
X0068800Y0159800D03*
X0069000Y0159200D03*
X0069000Y0158800D03*
X0069000Y0158400D03*
X0069200Y0158200D03*
X0069200Y0158000D03*
X0069200Y0157800D03*
X0069400Y0157200D03*
X0069400Y0156800D03*
X0069600Y0156600D03*
X0069400Y0156400D03*
X0069600Y0156200D03*
X0069600Y0155800D03*
X0069800Y0155600D03*
X0069800Y0155200D03*
X0069800Y0154800D03*
X0070200Y0152800D03*
X0070400Y0152600D03*
X0070400Y0152400D03*
X0070400Y0152200D03*
X0070600Y0152000D03*
X0070600Y0151600D03*
X0070600Y0151200D03*
X0070800Y0151000D03*
X0070800Y0150800D03*
X0070800Y0150600D03*
X0073800Y0152800D03*
X0074000Y0152600D03*
X0074200Y0152200D03*
X0073800Y0153200D03*
X0073800Y0153600D03*
X0073800Y0154000D03*
X0073800Y0154400D03*
X0073800Y0154800D03*
X0073800Y0155200D03*
X0073800Y0155600D03*
X0073800Y0156000D03*
X0073800Y0156400D03*
X0073800Y0156800D03*
X0073800Y0157200D03*
X0073800Y0157600D03*
X0073800Y0158000D03*
X0073800Y0158400D03*
X0073800Y0158800D03*
X0073800Y0159200D03*
X0073800Y0159600D03*
X0073800Y0160000D03*
X0074000Y0160600D03*
X0079600Y0160600D03*
X0079800Y0160400D03*
X0079800Y0160000D03*
X0079800Y0159600D03*
X0079800Y0159200D03*
X0079800Y0158800D03*
X0079800Y0158400D03*
X0079800Y0158000D03*
X0079800Y0157600D03*
X0079800Y0157200D03*
X0079800Y0156800D03*
X0079800Y0156400D03*
X0079800Y0156000D03*
X0079800Y0155600D03*
X0079800Y0155200D03*
X0079800Y0154800D03*
X0079800Y0154400D03*
X0079800Y0154000D03*
X0079800Y0153600D03*
X0079800Y0153200D03*
X0079800Y0152800D03*
X0079600Y0152600D03*
X0080200Y0148400D03*
X0086800Y0150600D03*
X0086800Y0151000D03*
X0086800Y0151800D03*
X0086800Y0152200D03*
X0086800Y0152600D03*
X0086800Y0153400D03*
X0086800Y0153800D03*
X0086800Y0154200D03*
X0086800Y0155000D03*
X0086800Y0155400D03*
X0086800Y0157400D03*
X0086800Y0158200D03*
X0086800Y0158600D03*
X0086800Y0159000D03*
X0086800Y0159800D03*
X0086800Y0160200D03*
X0086800Y0160600D03*
X0086800Y0161400D03*
X0086800Y0161800D03*
X0086800Y0162200D03*
X0093400Y0162400D03*
X0093400Y0162800D03*
X0093400Y0162000D03*
X0093400Y0161600D03*
X0093400Y0161200D03*
X0093400Y0160800D03*
X0093400Y0160400D03*
X0093400Y0160000D03*
X0093400Y0159600D03*
X0093400Y0159200D03*
X0093400Y0158800D03*
X0093400Y0158400D03*
X0093400Y0158000D03*
X0093400Y0157600D03*
X0093200Y0157400D03*
X0093400Y0155200D03*
X0093400Y0154800D03*
X0093400Y0154400D03*
X0093400Y0154000D03*
X0093400Y0153600D03*
X0093400Y0153200D03*
X0093400Y0152800D03*
X0093400Y0152400D03*
X0093400Y0152000D03*
X0093400Y0151600D03*
X0093400Y0151200D03*
X0093400Y0150800D03*
X0093400Y0150400D03*
X0096600Y0150400D03*
X0096600Y0150800D03*
X0096800Y0151000D03*
X0096800Y0151200D03*
X0096800Y0151400D03*
X0097000Y0151600D03*
X0096800Y0151800D03*
X0097000Y0152000D03*
X0097000Y0152400D03*
X0097000Y0152800D03*
X0097600Y0154800D03*
X0097600Y0155000D03*
X0097600Y0155400D03*
X0097800Y0155600D03*
X0097800Y0156000D03*
X0097800Y0156400D03*
X0098000Y0156600D03*
X0098000Y0156800D03*
X0098000Y0157000D03*
X0098200Y0157200D03*
X0098200Y0157600D03*
X0098200Y0158000D03*
X0098400Y0158200D03*
X0098400Y0158600D03*
X0098600Y0159200D03*
X0098600Y0159600D03*
X0098600Y0160000D03*
X0098800Y0160600D03*
X0099000Y0161600D03*
X0101200Y0161800D03*
X0101400Y0160800D03*
X0101600Y0159800D03*
X0101800Y0159200D03*
X0101800Y0158800D03*
X0101800Y0158400D03*
X0102000Y0158200D03*
X0102000Y0158000D03*
X0102000Y0157800D03*
X0102200Y0157200D03*
X0102200Y0156800D03*
X0102400Y0156600D03*
X0102200Y0156400D03*
X0102400Y0156200D03*
X0102400Y0155800D03*
X0102600Y0155600D03*
X0102600Y0155200D03*
X0102600Y0154800D03*
X0103000Y0152800D03*
X0103200Y0152600D03*
X0103200Y0152400D03*
X0103200Y0152200D03*
X0103400Y0152000D03*
X0103400Y0151600D03*
X0103400Y0151200D03*
X0103600Y0151000D03*
X0103600Y0150800D03*
X0103600Y0150600D03*
X0108000Y0150600D03*
X0108000Y0151000D03*
X0108000Y0151800D03*
X0108000Y0152200D03*
X0108000Y0152600D03*
X0108000Y0153400D03*
X0108000Y0153800D03*
X0108000Y0154200D03*
X0108000Y0155000D03*
X0108000Y0155400D03*
X0108000Y0155800D03*
X0108000Y0156600D03*
X0108000Y0157000D03*
X0108000Y0157400D03*
X0108000Y0158200D03*
X0108000Y0158600D03*
X0108000Y0159000D03*
X0108000Y0159800D03*
X0108000Y0160200D03*
X0108000Y0160600D03*
X0108000Y0161400D03*
X0060600Y0162400D03*
X0060400Y0162600D03*
X0060400Y0163000D03*
X0060400Y0163400D03*
D113*
X0060500Y0163200D03*
X0060500Y0162800D03*
X0056900Y0160600D03*
X0073900Y0160400D03*
X0074100Y0160800D03*
X0079300Y0161000D03*
X0079500Y0160800D03*
X0079500Y0152400D03*
X0080100Y0148600D03*
X0074100Y0152400D03*
D114*
X0074400Y0152000D03*
X0074600Y0151800D03*
X0079000Y0151800D03*
X0079200Y0152000D03*
X0079400Y0152200D03*
X0079000Y0149800D03*
X0079200Y0149600D03*
X0079400Y0149400D03*
X0079600Y0149200D03*
X0079800Y0149000D03*
X0080000Y0148800D03*
X0074200Y0161000D03*
X0056800Y0160800D03*
X0056600Y0161000D03*
X0056800Y0156000D03*
X0056600Y0155800D03*
D115*
X0060600Y0150000D03*
X0063800Y0150000D03*
X0071000Y0150000D03*
X0060400Y0163800D03*
X0051400Y0150000D03*
X0086600Y0163200D03*
X0093400Y0163200D03*
X0093400Y0150000D03*
X0096600Y0150000D03*
X0103800Y0150000D03*
D116*
X0078000Y0150000D03*
X0076800Y0162800D03*
X0052800Y0163200D03*
D117*
X0060400Y0162000D03*
X0066000Y0160800D03*
X0066000Y0160400D03*
X0065800Y0159800D03*
X0065800Y0159400D03*
X0066200Y0161400D03*
X0066200Y0161800D03*
X0066200Y0162200D03*
X0068400Y0162000D03*
X0068600Y0161000D03*
X0068600Y0160600D03*
X0069000Y0159000D03*
X0069400Y0157000D03*
X0073800Y0153000D03*
X0071000Y0150200D03*
X0064200Y0152200D03*
X0063800Y0150200D03*
X0065000Y0155800D03*
X0076800Y0163200D03*
X0086600Y0163000D03*
X0093400Y0163000D03*
X0099000Y0162200D03*
X0099000Y0161800D03*
X0099000Y0161400D03*
X0098800Y0160800D03*
X0098800Y0160400D03*
X0098600Y0159800D03*
X0098600Y0159400D03*
X0101400Y0160600D03*
X0101400Y0161000D03*
X0101200Y0162000D03*
X0101800Y0159000D03*
X0102200Y0157000D03*
X0097800Y0155800D03*
X0097000Y0152200D03*
X0096600Y0150200D03*
X0093400Y0150200D03*
X0086800Y0150000D03*
X0086600Y0150200D03*
X0079800Y0153000D03*
X0079800Y0153400D03*
X0103800Y0150200D03*
X0051400Y0150200D03*
D118*
X0060500Y0150200D03*
X0060500Y0160200D03*
X0108100Y0150000D03*
D119*
X0077600Y0150200D03*
X0076800Y0162600D03*
D120*
X0077000Y0150600D03*
X0077200Y0150400D03*
X0053000Y0163000D03*
D121*
X0053200Y0154000D03*
X0076800Y0150800D03*
X0076800Y0162400D03*
D122*
X0076900Y0162200D03*
X0076900Y0151000D03*
X0053300Y0154200D03*
D123*
X0076700Y0151200D03*
D124*
X0076800Y0151400D03*
X0076800Y0162000D03*
X0053600Y0162400D03*
X0053600Y0154600D03*
D125*
X0053800Y0154800D03*
X0053800Y0155000D03*
X0053800Y0162000D03*
X0076800Y0161600D03*
X0076800Y0151600D03*
D126*
X0067300Y0153000D03*
X0067300Y0153200D03*
X0067300Y0153400D03*
X0100100Y0153400D03*
X0100100Y0153200D03*
X0100100Y0153000D03*
X0108100Y0162400D03*
D127*
X0108000Y0162600D03*
X0108000Y0162800D03*
X0108000Y0162200D03*
X0108200Y0162000D03*
X0108000Y0161800D03*
X0100200Y0154000D03*
X0100200Y0153600D03*
X0067400Y0153600D03*
X0067400Y0154000D03*
D128*
X0052700Y0153800D03*
D129*
X0067300Y0153800D03*
X0100100Y0153800D03*
X0108100Y0163000D03*
D130*
X0108000Y0163200D03*
X0108000Y0161600D03*
X0100200Y0154200D03*
X0100000Y0154400D03*
X0067400Y0154200D03*
X0067200Y0154400D03*
X0054000Y0161600D03*
D131*
X0053400Y0162600D03*
X0053400Y0162800D03*
X0053400Y0154400D03*
X0076800Y0161800D03*
D132*
X0067300Y0154600D03*
X0053900Y0155200D03*
X0053900Y0155400D03*
X0053900Y0161800D03*
X0100100Y0154600D03*
D133*
X0100200Y0163200D03*
X0079000Y0161200D03*
X0078800Y0161400D03*
X0076800Y0163000D03*
X0074800Y0161400D03*
X0074600Y0161200D03*
X0067400Y0163200D03*
X0056200Y0155600D03*
D134*
X0090100Y0155600D03*
X0090100Y0156000D03*
X0090100Y0156400D03*
X0090100Y0156800D03*
X0090100Y0157200D03*
D135*
X0090000Y0157000D03*
X0090000Y0156600D03*
X0090000Y0156200D03*
X0090000Y0155800D03*
D136*
X0056500Y0161200D03*
D137*
X0056200Y0161400D03*
X0067400Y0163000D03*
X0100200Y0163000D03*
D138*
X0060400Y0161800D03*
D139*
X0053700Y0162200D03*
D140*
X0067400Y0162400D03*
X0067400Y0162800D03*
X0100200Y0162800D03*
X0100200Y0162400D03*
D141*
X0100100Y0162600D03*
X0067300Y0162600D03*
D142*
X0060400Y0164000D03*
D143*
X0040000Y0143100D02*
X0037500Y0145600D01*
X0032500Y0145600D01*
X0030000Y0143100D01*
X0030000Y0138100D01*
X0032500Y0135600D01*
X0030000Y0133100D01*
X0030000Y0128100D01*
X0032500Y0125600D01*
X0030000Y0123100D01*
X0030000Y0118100D01*
X0032500Y0115600D01*
X0030000Y0113100D01*
X0030000Y0108100D01*
X0032500Y0105600D01*
X0030000Y0103100D01*
X0030000Y0098100D01*
X0032500Y0095600D01*
X0030000Y0093100D01*
X0030000Y0088100D01*
X0032500Y0085600D01*
X0037500Y0085600D01*
X0040000Y0088100D01*
X0040000Y0093100D01*
X0037500Y0095600D01*
X0040000Y0098100D01*
X0040000Y0103100D01*
X0037500Y0105600D01*
X0040000Y0108100D01*
X0040000Y0113100D01*
X0037500Y0115600D01*
X0040000Y0118100D01*
X0040000Y0123100D01*
X0037500Y0125600D01*
X0040000Y0128100D01*
X0040000Y0133100D01*
X0037500Y0135600D01*
X0040000Y0138100D01*
X0040000Y0143100D01*
X0052700Y0129800D02*
X0067700Y0129800D01*
X0070200Y0127300D01*
X0070200Y0122300D01*
X0067700Y0119800D01*
X0052700Y0119800D01*
X0050200Y0117300D01*
X0050200Y0112300D01*
X0052700Y0109800D01*
X0067700Y0109800D01*
X0070200Y0107300D01*
X0070200Y0102300D01*
X0067700Y0099800D01*
X0052700Y0099800D01*
X0050200Y0102300D01*
X0050200Y0107300D01*
X0052700Y0109800D01*
X0052700Y0119800D02*
X0050200Y0122300D01*
X0050200Y0127300D01*
X0052700Y0129800D01*
X0048881Y0127300D02*
X0048881Y0122300D01*
X0067700Y0119800D02*
X0070200Y0117300D01*
X0070200Y0112300D01*
X0067700Y0109800D01*
X0094933Y0106119D02*
X0094933Y0101001D01*
X0097601Y0089599D02*
X0123802Y0089599D01*
X0125199Y0088202D01*
X0125199Y0062001D01*
X0097601Y0062001D01*
X0097601Y0089599D01*
X0109697Y0101001D02*
X0109697Y0106119D01*
X0125300Y0090200D02*
X0125302Y0090249D01*
X0125308Y0090297D01*
X0125318Y0090345D01*
X0125332Y0090392D01*
X0125349Y0090438D01*
X0125370Y0090482D01*
X0125395Y0090524D01*
X0125423Y0090564D01*
X0125455Y0090602D01*
X0125489Y0090637D01*
X0125526Y0090669D01*
X0125565Y0090698D01*
X0125607Y0090724D01*
X0125651Y0090746D01*
X0125696Y0090764D01*
X0125743Y0090779D01*
X0125790Y0090790D01*
X0125839Y0090797D01*
X0125888Y0090800D01*
X0125937Y0090799D01*
X0125985Y0090794D01*
X0126034Y0090785D01*
X0126081Y0090772D01*
X0126127Y0090755D01*
X0126171Y0090735D01*
X0126214Y0090711D01*
X0126255Y0090684D01*
X0126293Y0090653D01*
X0126329Y0090620D01*
X0126361Y0090584D01*
X0126391Y0090545D01*
X0126418Y0090504D01*
X0126441Y0090460D01*
X0126460Y0090415D01*
X0126476Y0090369D01*
X0126488Y0090322D01*
X0126496Y0090273D01*
X0126500Y0090224D01*
X0126500Y0090176D01*
X0126496Y0090127D01*
X0126488Y0090078D01*
X0126476Y0090031D01*
X0126460Y0089985D01*
X0126441Y0089940D01*
X0126418Y0089896D01*
X0126391Y0089855D01*
X0126361Y0089816D01*
X0126329Y0089780D01*
X0126293Y0089747D01*
X0126255Y0089716D01*
X0126214Y0089689D01*
X0126171Y0089665D01*
X0126127Y0089645D01*
X0126081Y0089628D01*
X0126034Y0089615D01*
X0125985Y0089606D01*
X0125937Y0089601D01*
X0125888Y0089600D01*
X0125839Y0089603D01*
X0125790Y0089610D01*
X0125743Y0089621D01*
X0125696Y0089636D01*
X0125651Y0089654D01*
X0125607Y0089676D01*
X0125565Y0089702D01*
X0125526Y0089731D01*
X0125489Y0089763D01*
X0125455Y0089798D01*
X0125423Y0089836D01*
X0125395Y0089876D01*
X0125370Y0089918D01*
X0125349Y0089962D01*
X0125332Y0090008D01*
X0125318Y0090055D01*
X0125308Y0090103D01*
X0125302Y0090151D01*
X0125300Y0090200D01*
X0140094Y0036143D02*
X0140094Y0035749D01*
X0140094Y0036143D02*
X0151906Y0036143D01*
X0151906Y0035749D01*
X0151906Y0031812D02*
X0151906Y0030631D01*
X0151906Y0026694D02*
X0151906Y0025906D01*
X0151906Y0021969D02*
X0151906Y0020788D01*
X0151906Y0016851D02*
X0151906Y0016457D01*
X0140094Y0016457D01*
X0140094Y0016851D01*
X0140094Y0020788D02*
X0140094Y0021969D01*
X0140094Y0025906D02*
X0140094Y0026694D01*
X0140094Y0030631D02*
X0140094Y0031812D01*
X0205309Y0048500D02*
X0208691Y0048500D01*
X0209791Y0052443D02*
X0209791Y0054557D01*
X0208691Y0058500D02*
X0205309Y0058500D01*
X0219488Y0104806D02*
X0219488Y0107956D01*
X0221850Y0107956D01*
X0228150Y0107956D02*
X0230512Y0107956D01*
X0230512Y0104806D01*
X0159123Y0161500D02*
X0159125Y0161546D01*
X0159131Y0161592D01*
X0159141Y0161637D01*
X0159155Y0161681D01*
X0159172Y0161724D01*
X0159193Y0161765D01*
X0159218Y0161804D01*
X0159245Y0161841D01*
X0159276Y0161876D01*
X0159310Y0161907D01*
X0159346Y0161936D01*
X0159385Y0161961D01*
X0159426Y0161983D01*
X0159468Y0162001D01*
X0159512Y0162016D01*
X0159557Y0162027D01*
X0159602Y0162034D01*
X0159648Y0162037D01*
X0159695Y0162036D01*
X0159741Y0162031D01*
X0159786Y0162022D01*
X0159830Y0162009D01*
X0159873Y0161993D01*
X0159915Y0161973D01*
X0159955Y0161949D01*
X0159992Y0161922D01*
X0160027Y0161892D01*
X0160060Y0161859D01*
X0160089Y0161823D01*
X0160115Y0161785D01*
X0160138Y0161745D01*
X0160157Y0161703D01*
X0160173Y0161659D01*
X0160185Y0161615D01*
X0160193Y0161569D01*
X0160197Y0161523D01*
X0160197Y0161477D01*
X0160193Y0161431D01*
X0160185Y0161385D01*
X0160173Y0161341D01*
X0160157Y0161297D01*
X0160138Y0161255D01*
X0160115Y0161215D01*
X0160089Y0161177D01*
X0160060Y0161141D01*
X0160027Y0161108D01*
X0159992Y0161078D01*
X0159955Y0161051D01*
X0159915Y0161027D01*
X0159873Y0161007D01*
X0159830Y0160991D01*
X0159786Y0160978D01*
X0159741Y0160969D01*
X0159695Y0160964D01*
X0159648Y0160963D01*
X0159602Y0160966D01*
X0159557Y0160973D01*
X0159512Y0160984D01*
X0159468Y0160999D01*
X0159426Y0161017D01*
X0159385Y0161039D01*
X0159346Y0161064D01*
X0159310Y0161093D01*
X0159276Y0161124D01*
X0159245Y0161159D01*
X0159218Y0161196D01*
X0159193Y0161235D01*
X0159172Y0161276D01*
X0159155Y0161319D01*
X0159141Y0161363D01*
X0159131Y0161408D01*
X0159125Y0161454D01*
X0159123Y0161500D01*
X0028500Y0062063D02*
X0028500Y0049937D01*
X0023382Y0046000D02*
X0013500Y0046000D01*
X0008500Y0049937D02*
X0008500Y0062063D01*
X0013618Y0066000D02*
X0023382Y0066000D01*
X0013500Y0056000D02*
X0013502Y0056141D01*
X0013508Y0056282D01*
X0013518Y0056422D01*
X0013532Y0056562D01*
X0013550Y0056702D01*
X0013571Y0056841D01*
X0013597Y0056980D01*
X0013626Y0057118D01*
X0013660Y0057254D01*
X0013697Y0057390D01*
X0013738Y0057525D01*
X0013783Y0057659D01*
X0013832Y0057791D01*
X0013884Y0057922D01*
X0013940Y0058051D01*
X0014000Y0058178D01*
X0014063Y0058304D01*
X0014129Y0058428D01*
X0014200Y0058551D01*
X0014273Y0058671D01*
X0014350Y0058789D01*
X0014430Y0058905D01*
X0014514Y0059018D01*
X0014600Y0059129D01*
X0014690Y0059238D01*
X0014783Y0059344D01*
X0014878Y0059447D01*
X0014977Y0059548D01*
X0015078Y0059646D01*
X0015182Y0059741D01*
X0015289Y0059833D01*
X0015398Y0059922D01*
X0015510Y0060007D01*
X0015624Y0060090D01*
X0015740Y0060170D01*
X0015859Y0060246D01*
X0015980Y0060318D01*
X0016102Y0060388D01*
X0016227Y0060453D01*
X0016353Y0060516D01*
X0016481Y0060574D01*
X0016611Y0060629D01*
X0016742Y0060681D01*
X0016875Y0060728D01*
X0017009Y0060772D01*
X0017144Y0060813D01*
X0017280Y0060849D01*
X0017417Y0060881D01*
X0017555Y0060910D01*
X0017693Y0060935D01*
X0017833Y0060955D01*
X0017973Y0060972D01*
X0018113Y0060985D01*
X0018254Y0060994D01*
X0018394Y0060999D01*
X0018535Y0061000D01*
X0018676Y0060997D01*
X0018817Y0060990D01*
X0018957Y0060979D01*
X0019097Y0060964D01*
X0019237Y0060945D01*
X0019376Y0060923D01*
X0019514Y0060896D01*
X0019652Y0060866D01*
X0019788Y0060831D01*
X0019924Y0060793D01*
X0020058Y0060751D01*
X0020192Y0060705D01*
X0020324Y0060656D01*
X0020454Y0060602D01*
X0020583Y0060545D01*
X0020710Y0060485D01*
X0020836Y0060421D01*
X0020959Y0060353D01*
X0021081Y0060282D01*
X0021201Y0060208D01*
X0021318Y0060130D01*
X0021433Y0060049D01*
X0021546Y0059965D01*
X0021657Y0059878D01*
X0021765Y0059787D01*
X0021870Y0059694D01*
X0021973Y0059597D01*
X0022073Y0059498D01*
X0022170Y0059396D01*
X0022264Y0059291D01*
X0022355Y0059184D01*
X0022443Y0059074D01*
X0022528Y0058962D01*
X0022610Y0058847D01*
X0022689Y0058730D01*
X0022764Y0058611D01*
X0022836Y0058490D01*
X0022904Y0058367D01*
X0022969Y0058242D01*
X0023031Y0058115D01*
X0023088Y0057986D01*
X0023143Y0057856D01*
X0023193Y0057725D01*
X0023240Y0057592D01*
X0023283Y0057458D01*
X0023322Y0057322D01*
X0023357Y0057186D01*
X0023389Y0057049D01*
X0023416Y0056911D01*
X0023440Y0056772D01*
X0023460Y0056632D01*
X0023476Y0056492D01*
X0023488Y0056352D01*
X0023496Y0056211D01*
X0023500Y0056070D01*
X0023500Y0055930D01*
X0023496Y0055789D01*
X0023488Y0055648D01*
X0023476Y0055508D01*
X0023460Y0055368D01*
X0023440Y0055228D01*
X0023416Y0055089D01*
X0023389Y0054951D01*
X0023357Y0054814D01*
X0023322Y0054678D01*
X0023283Y0054542D01*
X0023240Y0054408D01*
X0023193Y0054275D01*
X0023143Y0054144D01*
X0023088Y0054014D01*
X0023031Y0053885D01*
X0022969Y0053758D01*
X0022904Y0053633D01*
X0022836Y0053510D01*
X0022764Y0053389D01*
X0022689Y0053270D01*
X0022610Y0053153D01*
X0022528Y0053038D01*
X0022443Y0052926D01*
X0022355Y0052816D01*
X0022264Y0052709D01*
X0022170Y0052604D01*
X0022073Y0052502D01*
X0021973Y0052403D01*
X0021870Y0052306D01*
X0021765Y0052213D01*
X0021657Y0052122D01*
X0021546Y0052035D01*
X0021433Y0051951D01*
X0021318Y0051870D01*
X0021201Y0051792D01*
X0021081Y0051718D01*
X0020959Y0051647D01*
X0020836Y0051579D01*
X0020710Y0051515D01*
X0020583Y0051455D01*
X0020454Y0051398D01*
X0020324Y0051344D01*
X0020192Y0051295D01*
X0020058Y0051249D01*
X0019924Y0051207D01*
X0019788Y0051169D01*
X0019652Y0051134D01*
X0019514Y0051104D01*
X0019376Y0051077D01*
X0019237Y0051055D01*
X0019097Y0051036D01*
X0018957Y0051021D01*
X0018817Y0051010D01*
X0018676Y0051003D01*
X0018535Y0051000D01*
X0018394Y0051001D01*
X0018254Y0051006D01*
X0018113Y0051015D01*
X0017973Y0051028D01*
X0017833Y0051045D01*
X0017693Y0051065D01*
X0017555Y0051090D01*
X0017417Y0051119D01*
X0017280Y0051151D01*
X0017144Y0051187D01*
X0017009Y0051228D01*
X0016875Y0051272D01*
X0016742Y0051319D01*
X0016611Y0051371D01*
X0016481Y0051426D01*
X0016353Y0051484D01*
X0016227Y0051547D01*
X0016102Y0051612D01*
X0015980Y0051682D01*
X0015859Y0051754D01*
X0015740Y0051830D01*
X0015624Y0051910D01*
X0015510Y0051993D01*
X0015398Y0052078D01*
X0015289Y0052167D01*
X0015182Y0052259D01*
X0015078Y0052354D01*
X0014977Y0052452D01*
X0014878Y0052553D01*
X0014783Y0052656D01*
X0014690Y0052762D01*
X0014600Y0052871D01*
X0014514Y0052982D01*
X0014430Y0053095D01*
X0014350Y0053211D01*
X0014273Y0053329D01*
X0014200Y0053449D01*
X0014129Y0053572D01*
X0014063Y0053696D01*
X0014000Y0053822D01*
X0013940Y0053949D01*
X0013884Y0054078D01*
X0013832Y0054209D01*
X0013783Y0054341D01*
X0013738Y0054475D01*
X0013697Y0054610D01*
X0013660Y0054746D01*
X0013626Y0054882D01*
X0013597Y0055020D01*
X0013571Y0055159D01*
X0013550Y0055298D01*
X0013532Y0055438D01*
X0013518Y0055578D01*
X0013508Y0055718D01*
X0013502Y0055859D01*
X0013500Y0056000D01*
D144*
X0054307Y0027906D02*
X0067693Y0027906D01*
X0067693Y0016094D01*
X0054307Y0016094D01*
X0054307Y0027906D01*
D145*
X0068677Y0019047D03*
D146*
X0107154Y0027602D02*
X0107156Y0027658D01*
X0107162Y0027713D01*
X0107172Y0027767D01*
X0107185Y0027821D01*
X0107203Y0027874D01*
X0107224Y0027925D01*
X0107248Y0027975D01*
X0107276Y0028023D01*
X0107308Y0028069D01*
X0107342Y0028113D01*
X0107380Y0028154D01*
X0107420Y0028192D01*
X0107463Y0028227D01*
X0107508Y0028259D01*
X0107556Y0028288D01*
X0107605Y0028314D01*
X0107656Y0028336D01*
X0107708Y0028354D01*
X0107762Y0028368D01*
X0107817Y0028379D01*
X0107872Y0028386D01*
X0107927Y0028389D01*
X0107983Y0028388D01*
X0108038Y0028383D01*
X0108093Y0028374D01*
X0108147Y0028362D01*
X0108200Y0028345D01*
X0108252Y0028325D01*
X0108302Y0028301D01*
X0108350Y0028274D01*
X0108397Y0028244D01*
X0108441Y0028210D01*
X0108483Y0028173D01*
X0108521Y0028133D01*
X0108558Y0028091D01*
X0108591Y0028046D01*
X0108620Y0028000D01*
X0108647Y0027951D01*
X0108669Y0027900D01*
X0108689Y0027848D01*
X0108704Y0027794D01*
X0108716Y0027740D01*
X0108724Y0027685D01*
X0108728Y0027630D01*
X0108728Y0027574D01*
X0108724Y0027519D01*
X0108716Y0027464D01*
X0108704Y0027410D01*
X0108689Y0027356D01*
X0108669Y0027304D01*
X0108647Y0027253D01*
X0108620Y0027204D01*
X0108591Y0027158D01*
X0108558Y0027113D01*
X0108521Y0027071D01*
X0108483Y0027031D01*
X0108441Y0026994D01*
X0108397Y0026960D01*
X0108350Y0026930D01*
X0108302Y0026903D01*
X0108252Y0026879D01*
X0108200Y0026859D01*
X0108147Y0026842D01*
X0108093Y0026830D01*
X0108038Y0026821D01*
X0107983Y0026816D01*
X0107927Y0026815D01*
X0107872Y0026818D01*
X0107817Y0026825D01*
X0107762Y0026836D01*
X0107708Y0026850D01*
X0107656Y0026868D01*
X0107605Y0026890D01*
X0107556Y0026916D01*
X0107508Y0026945D01*
X0107463Y0026977D01*
X0107420Y0027012D01*
X0107380Y0027050D01*
X0107342Y0027091D01*
X0107308Y0027135D01*
X0107276Y0027181D01*
X0107248Y0027229D01*
X0107224Y0027279D01*
X0107203Y0027330D01*
X0107185Y0027383D01*
X0107172Y0027437D01*
X0107162Y0027491D01*
X0107156Y0027546D01*
X0107154Y0027602D01*
X0107547Y0027602D02*
X0107549Y0027641D01*
X0107555Y0027680D01*
X0107565Y0027718D01*
X0107578Y0027755D01*
X0107595Y0027790D01*
X0107615Y0027824D01*
X0107639Y0027855D01*
X0107666Y0027884D01*
X0107695Y0027910D01*
X0107727Y0027933D01*
X0107761Y0027953D01*
X0107797Y0027969D01*
X0107834Y0027981D01*
X0107873Y0027990D01*
X0107912Y0027995D01*
X0107951Y0027996D01*
X0107990Y0027993D01*
X0108029Y0027986D01*
X0108066Y0027975D01*
X0108103Y0027961D01*
X0108138Y0027943D01*
X0108171Y0027922D01*
X0108202Y0027897D01*
X0108230Y0027870D01*
X0108255Y0027840D01*
X0108277Y0027807D01*
X0108296Y0027773D01*
X0108311Y0027737D01*
X0108323Y0027699D01*
X0108331Y0027661D01*
X0108335Y0027622D01*
X0108335Y0027582D01*
X0108331Y0027543D01*
X0108323Y0027505D01*
X0108311Y0027467D01*
X0108296Y0027431D01*
X0108277Y0027397D01*
X0108255Y0027364D01*
X0108230Y0027334D01*
X0108202Y0027307D01*
X0108171Y0027282D01*
X0108138Y0027261D01*
X0108103Y0027243D01*
X0108066Y0027229D01*
X0108029Y0027218D01*
X0107990Y0027211D01*
X0107951Y0027208D01*
X0107912Y0027209D01*
X0107873Y0027214D01*
X0107834Y0027223D01*
X0107797Y0027235D01*
X0107761Y0027251D01*
X0107727Y0027271D01*
X0107695Y0027294D01*
X0107666Y0027320D01*
X0107639Y0027349D01*
X0107615Y0027380D01*
X0107595Y0027414D01*
X0107578Y0027449D01*
X0107565Y0027486D01*
X0107555Y0027524D01*
X0107549Y0027563D01*
X0107547Y0027602D01*
D147*
X0106563Y0025437D02*
X0114437Y0025437D01*
X0114437Y0017563D02*
X0106563Y0017563D01*
X0153468Y0016700D02*
X0153470Y0016750D01*
X0153476Y0016799D01*
X0153485Y0016848D01*
X0153499Y0016895D01*
X0153516Y0016942D01*
X0153537Y0016987D01*
X0153561Y0017030D01*
X0153589Y0017071D01*
X0153619Y0017110D01*
X0153653Y0017147D01*
X0153690Y0017181D01*
X0153729Y0017211D01*
X0153770Y0017239D01*
X0153813Y0017263D01*
X0153858Y0017284D01*
X0153905Y0017301D01*
X0153952Y0017315D01*
X0154001Y0017324D01*
X0154050Y0017330D01*
X0154100Y0017332D01*
X0154150Y0017330D01*
X0154199Y0017324D01*
X0154248Y0017315D01*
X0154295Y0017301D01*
X0154342Y0017284D01*
X0154387Y0017263D01*
X0154430Y0017239D01*
X0154471Y0017211D01*
X0154510Y0017181D01*
X0154547Y0017147D01*
X0154581Y0017110D01*
X0154611Y0017071D01*
X0154639Y0017030D01*
X0154663Y0016987D01*
X0154684Y0016942D01*
X0154701Y0016895D01*
X0154715Y0016848D01*
X0154724Y0016799D01*
X0154730Y0016750D01*
X0154732Y0016700D01*
X0154730Y0016650D01*
X0154724Y0016601D01*
X0154715Y0016552D01*
X0154701Y0016505D01*
X0154684Y0016458D01*
X0154663Y0016413D01*
X0154639Y0016370D01*
X0154611Y0016329D01*
X0154581Y0016290D01*
X0154547Y0016253D01*
X0154510Y0016219D01*
X0154471Y0016189D01*
X0154430Y0016161D01*
X0154387Y0016137D01*
X0154342Y0016116D01*
X0154295Y0016099D01*
X0154248Y0016085D01*
X0154199Y0016076D01*
X0154150Y0016070D01*
X0154100Y0016068D01*
X0154050Y0016070D01*
X0154001Y0016076D01*
X0153952Y0016085D01*
X0153905Y0016099D01*
X0153858Y0016116D01*
X0153813Y0016137D01*
X0153770Y0016161D01*
X0153729Y0016189D01*
X0153690Y0016219D01*
X0153653Y0016253D01*
X0153619Y0016290D01*
X0153589Y0016329D01*
X0153561Y0016370D01*
X0153537Y0016413D01*
X0153516Y0016458D01*
X0153499Y0016505D01*
X0153485Y0016552D01*
X0153476Y0016601D01*
X0153470Y0016650D01*
X0153468Y0016700D01*
X0156058Y0163006D02*
X0156058Y0174424D01*
X0172594Y0174424D01*
X0172594Y0163006D01*
X0156058Y0163006D01*
D148*
X0162019Y0158762D02*
X0164381Y0158762D01*
X0164381Y0154038D02*
X0162019Y0154038D01*
X0164319Y0178538D02*
X0166681Y0178538D01*
X0166681Y0183262D02*
X0164319Y0183262D01*
X0177438Y0190219D02*
X0177438Y0192581D01*
X0182162Y0192581D02*
X0182162Y0190219D01*
X0210238Y0190419D02*
X0210238Y0192781D01*
X0214962Y0192781D02*
X0214962Y0190419D01*
X0235419Y0185762D02*
X0237781Y0185762D01*
X0237781Y0181038D02*
X0235419Y0181038D01*
X0246638Y0167681D02*
X0246638Y0165319D01*
X0251362Y0165319D02*
X0251362Y0167681D01*
X0251362Y0153181D02*
X0251362Y0150819D01*
X0246638Y0150819D02*
X0246638Y0153181D01*
X0210562Y0158319D02*
X0210562Y0160681D01*
X0205838Y0160681D02*
X0205838Y0158319D01*
X0207119Y0111862D02*
X0209481Y0111862D01*
X0209481Y0107138D02*
X0207119Y0107138D01*
X0207119Y0103762D02*
X0209481Y0103762D01*
X0209481Y0099038D02*
X0207119Y0099038D01*
X0239819Y0099138D02*
X0242181Y0099138D01*
X0242181Y0103862D02*
X0239819Y0103862D01*
X0239819Y0107238D02*
X0242181Y0107238D01*
X0242181Y0111962D02*
X0239819Y0111962D01*
X0225862Y0069181D02*
X0225862Y0066819D01*
X0221138Y0066819D02*
X0221138Y0069181D01*
X0234819Y0056362D02*
X0237181Y0056362D01*
X0237181Y0051638D02*
X0234819Y0051638D01*
X0234819Y0045862D02*
X0237181Y0045862D01*
X0237181Y0041138D02*
X0234819Y0041138D01*
X0249719Y0041238D02*
X0252081Y0041238D01*
X0252081Y0045962D02*
X0249719Y0045962D01*
X0249719Y0051738D02*
X0252081Y0051738D01*
X0252081Y0056462D02*
X0249719Y0056462D01*
X0206681Y0043862D02*
X0204319Y0043862D01*
X0204319Y0039138D02*
X0206681Y0039138D01*
X0206681Y0033362D02*
X0204319Y0033362D01*
X0204319Y0028638D02*
X0206681Y0028638D01*
X0206681Y0022862D02*
X0204319Y0022862D01*
X0204319Y0018138D02*
X0206681Y0018138D01*
X0162762Y0021319D02*
X0162762Y0023681D01*
X0158038Y0023681D02*
X0158038Y0021319D01*
X0155381Y0040838D02*
X0153019Y0040838D01*
X0153019Y0045562D02*
X0155381Y0045562D01*
X0148281Y0064138D02*
X0145919Y0064138D01*
X0145919Y0068862D02*
X0148281Y0068862D01*
X0148281Y0074538D02*
X0145919Y0074538D01*
X0145919Y0079262D02*
X0148281Y0079262D01*
X0122681Y0103738D02*
X0120319Y0103738D01*
X0120319Y0108462D02*
X0122681Y0108462D01*
X0051962Y0081781D02*
X0051962Y0079419D01*
X0047238Y0079419D02*
X0047238Y0081781D01*
X0039862Y0074681D02*
X0039862Y0072319D01*
X0035138Y0072319D02*
X0035138Y0074681D01*
X0045138Y0022681D02*
X0045138Y0020319D01*
X0049862Y0020319D02*
X0049862Y0022681D01*
X0102719Y0032438D02*
X0105081Y0032438D01*
X0105081Y0037162D02*
X0102719Y0037162D01*
X0013862Y0183819D02*
X0013862Y0186181D01*
X0009138Y0186181D02*
X0009138Y0183819D01*
D149*
X0011500Y0165106D03*
X0187200Y0192394D03*
X0205000Y0192394D03*
D150*
X0218157Y0171780D02*
X0218157Y0165874D01*
X0218157Y0171780D02*
X0220126Y0171780D01*
X0226031Y0171780D02*
X0229969Y0171780D01*
X0235874Y0171780D02*
X0237843Y0171780D01*
X0237843Y0165874D01*
X0237843Y0150126D02*
X0237843Y0144220D01*
X0235874Y0144220D01*
X0239300Y0149063D02*
X0239302Y0149119D01*
X0239308Y0149174D01*
X0239318Y0149228D01*
X0239331Y0149282D01*
X0239349Y0149335D01*
X0239370Y0149386D01*
X0239394Y0149436D01*
X0239422Y0149484D01*
X0239454Y0149530D01*
X0239488Y0149574D01*
X0239526Y0149615D01*
X0239566Y0149653D01*
X0239609Y0149688D01*
X0239654Y0149720D01*
X0239702Y0149749D01*
X0239751Y0149775D01*
X0239802Y0149797D01*
X0239854Y0149815D01*
X0239908Y0149829D01*
X0239963Y0149840D01*
X0240018Y0149847D01*
X0240073Y0149850D01*
X0240129Y0149849D01*
X0240184Y0149844D01*
X0240239Y0149835D01*
X0240293Y0149823D01*
X0240346Y0149806D01*
X0240398Y0149786D01*
X0240448Y0149762D01*
X0240496Y0149735D01*
X0240543Y0149705D01*
X0240587Y0149671D01*
X0240629Y0149634D01*
X0240667Y0149594D01*
X0240704Y0149552D01*
X0240737Y0149507D01*
X0240766Y0149461D01*
X0240793Y0149412D01*
X0240815Y0149361D01*
X0240835Y0149309D01*
X0240850Y0149255D01*
X0240862Y0149201D01*
X0240870Y0149146D01*
X0240874Y0149091D01*
X0240874Y0149035D01*
X0240870Y0148980D01*
X0240862Y0148925D01*
X0240850Y0148871D01*
X0240835Y0148817D01*
X0240815Y0148765D01*
X0240793Y0148714D01*
X0240766Y0148665D01*
X0240737Y0148619D01*
X0240704Y0148574D01*
X0240667Y0148532D01*
X0240629Y0148492D01*
X0240587Y0148455D01*
X0240543Y0148421D01*
X0240496Y0148391D01*
X0240448Y0148364D01*
X0240398Y0148340D01*
X0240346Y0148320D01*
X0240293Y0148303D01*
X0240239Y0148291D01*
X0240184Y0148282D01*
X0240129Y0148277D01*
X0240073Y0148276D01*
X0240018Y0148279D01*
X0239963Y0148286D01*
X0239908Y0148297D01*
X0239854Y0148311D01*
X0239802Y0148329D01*
X0239751Y0148351D01*
X0239702Y0148377D01*
X0239654Y0148406D01*
X0239609Y0148438D01*
X0239566Y0148473D01*
X0239526Y0148511D01*
X0239488Y0148552D01*
X0239454Y0148596D01*
X0239422Y0148642D01*
X0239394Y0148690D01*
X0239370Y0148740D01*
X0239349Y0148791D01*
X0239331Y0148844D01*
X0239318Y0148898D01*
X0239308Y0148952D01*
X0239302Y0149007D01*
X0239300Y0149063D01*
X0229969Y0144220D02*
X0226031Y0144220D01*
X0220126Y0144220D02*
X0218157Y0144220D01*
X0218157Y0150126D01*
X0229414Y0079474D02*
X0233745Y0079474D01*
X0229414Y0079474D02*
X0229414Y0063726D01*
X0233745Y0063726D01*
X0242800Y0063726D02*
X0248706Y0063726D01*
X0248706Y0067269D01*
X0248706Y0075931D02*
X0248706Y0079474D01*
X0242800Y0079474D01*
D151*
X0203000Y0059800D03*
M02*
