%
M48
M72
T01C0.0236
T02C0.0354
T03C0.0400
T04C0.1102
%
T01
X4410Y5370
X5010Y6650
X6380Y6160
X7320Y6500
X7430Y8380
X5870Y8820
X8000Y11000
X8930Y11990
X6940Y12490
X10520Y13440
X12640Y16070
X13980Y14490
X15980Y10700
X15990Y10690
X18740Y10690
X14360Y5800
X13000Y5700
X12230Y5020
X11280Y5250
X11080Y6560
X11060Y7220
X10470Y7390
X10490Y8150
X11290Y8360
X11980Y6670
X11350Y3360
X9270Y2630
X9270Y1470
X7190Y2810
X12570Y1290
X15950Y3490
X19170Y5720
X25440Y6500
X25530Y9750
X23300Y19580
X1890Y19280
T02
X3795Y20669
X4795Y20669
X5795Y20669
X6795Y20669
X7795Y20669
X8795Y20669
X9795Y20669
X10795Y20669
X11795Y20669
X12795Y20669
X13795Y20669
X14795Y20669
X15795Y20669
X16795Y20669
X17795Y20669
X18795Y20669
X19795Y20669
X20795Y20669
X21795Y20669
X22795Y20669
X22795Y21669
X21795Y21669
X20795Y21669
X19795Y21669
X18795Y21669
X17795Y21669
X16795Y21669
X15795Y21669
X14795Y21669
X13795Y21669
X12795Y21669
X11795Y21669
X10795Y21669
X9795Y21669
X8795Y21669
X7795Y21669
X6795Y21669
X5795Y21669
X4795Y21669
X3795Y21669
X24280Y7160
T03
X4950Y9500
X4950Y10500
X4950Y11500
X3950Y11500
X3950Y10500
X3950Y9500
X3950Y12500
X3950Y13500
X4950Y13500
X4950Y12500
T04
X1878Y1878
X1878Y21169
X24713Y21169
X24713Y1878
M30
