G75*
%MOIN*%
%OFA0B0*%
%FSLAX25Y25*%
%IPPOS*%
%LPD*%
%AMOC8*
5,1,8,0,0,1.08239X$1,22.5*
%
%ADD10R,0.02200X0.05000*%
%ADD11R,0.05000X0.02200*%
%ADD12R,0.02165X0.00984*%
%ADD13R,0.03937X0.06693*%
%ADD14R,0.04134X0.01181*%
%ADD15C,0.01181*%
%ADD16R,0.04724X0.03150*%
%ADD17R,0.03150X0.04724*%
%ADD18C,0.01772*%
%ADD19R,0.04724X0.04724*%
%ADD20R,0.03000X0.06000*%
%ADD21R,0.04724X0.01969*%
%ADD22R,0.07874X0.02756*%
%ADD23R,0.02756X0.07874*%
%ADD24R,0.03150X0.03543*%
%ADD25C,0.00118*%
%ADD26C,0.02756*%
%ADD27C,0.03543*%
%ADD28R,0.04724X0.02165*%
%ADD29R,0.09449X0.04724*%
%ADD30R,0.01575X0.02362*%
D10*
X0100376Y0058900D03*
X0103526Y0058900D03*
X0106676Y0058900D03*
X0109825Y0058900D03*
X0112975Y0058900D03*
X0116124Y0058900D03*
X0119274Y0058900D03*
X0122424Y0058900D03*
X0122424Y0092700D03*
X0119274Y0092700D03*
X0116124Y0092700D03*
X0112975Y0092700D03*
X0109825Y0092700D03*
X0106676Y0092700D03*
X0103526Y0092700D03*
X0100376Y0092700D03*
D11*
X0094500Y0086824D03*
X0094500Y0083674D03*
X0094500Y0080524D03*
X0094500Y0077375D03*
X0094500Y0074225D03*
X0094500Y0071076D03*
X0094500Y0067926D03*
X0094500Y0064776D03*
X0128300Y0064776D03*
X0128300Y0067926D03*
X0128300Y0071076D03*
X0128300Y0074225D03*
X0128300Y0077375D03*
X0128300Y0080524D03*
X0128300Y0083674D03*
X0128300Y0086824D03*
D12*
X0065626Y0024953D03*
X0065626Y0022984D03*
X0065626Y0021016D03*
X0065626Y0019047D03*
X0056374Y0019047D03*
X0056374Y0021016D03*
X0056374Y0022984D03*
X0056374Y0024953D03*
D13*
X0061000Y0022000D03*
D14*
X0107449Y0024059D03*
D15*
X0108926Y0021500D02*
X0105972Y0021500D01*
X0105972Y0021500D01*
X0108926Y0021500D01*
X0108926Y0021500D01*
X0108926Y0018941D02*
X0105972Y0018941D01*
X0105972Y0018941D01*
X0108926Y0018941D01*
X0108926Y0018941D01*
X0112074Y0018941D02*
X0115028Y0018941D01*
X0112074Y0018941D02*
X0112074Y0018941D01*
X0115028Y0018941D01*
X0115028Y0018941D01*
X0115028Y0021500D02*
X0112074Y0021500D01*
X0112074Y0021500D01*
X0115028Y0021500D01*
X0115028Y0021500D01*
X0115028Y0024059D02*
X0112074Y0024059D01*
X0112074Y0024059D01*
X0115028Y0024059D01*
X0115028Y0024059D01*
D16*
X0047500Y0017957D03*
X0047500Y0025043D03*
X0037500Y0069957D03*
X0037500Y0077043D03*
X0049600Y0077057D03*
X0049600Y0084143D03*
X0011500Y0181457D03*
X0011500Y0188543D03*
X0179800Y0187857D03*
X0179800Y0194943D03*
X0212600Y0195143D03*
X0212600Y0188057D03*
X0208200Y0163043D03*
X0208200Y0155957D03*
X0249000Y0155543D03*
X0249000Y0148457D03*
X0249000Y0162957D03*
X0249000Y0170043D03*
X0223500Y0071543D03*
X0223500Y0064457D03*
X0160400Y0026043D03*
X0160400Y0018957D03*
D17*
X0157743Y0043200D03*
X0150657Y0043200D03*
X0150643Y0066500D03*
X0143557Y0066500D03*
X0143557Y0076900D03*
X0150643Y0076900D03*
X0125043Y0106100D03*
X0117957Y0106100D03*
X0159657Y0156400D03*
X0166743Y0156400D03*
X0169043Y0180900D03*
X0161957Y0180900D03*
X0233057Y0183400D03*
X0240143Y0183400D03*
X0237457Y0109600D03*
X0244543Y0109600D03*
X0244543Y0101500D03*
X0237457Y0101500D03*
X0211843Y0101400D03*
X0204757Y0101400D03*
X0204757Y0109500D03*
X0211843Y0109500D03*
X0232457Y0054000D03*
X0239543Y0054000D03*
X0247357Y0054100D03*
X0254443Y0054100D03*
X0254443Y0043600D03*
X0247357Y0043600D03*
X0239543Y0043500D03*
X0232457Y0043500D03*
X0209043Y0041500D03*
X0201957Y0041500D03*
X0201957Y0031000D03*
X0209043Y0031000D03*
X0209043Y0020500D03*
X0201957Y0020500D03*
X0107443Y0034800D03*
X0100357Y0034800D03*
D18*
X0102300Y0100736D02*
X0102300Y0106464D01*
X0097576Y0106464D02*
X0097576Y0100736D01*
X0107024Y0100736D02*
X0107024Y0106464D01*
D19*
X0187200Y0187866D03*
X0187200Y0196134D03*
X0205000Y0196134D03*
X0205000Y0187866D03*
X0011500Y0169634D03*
X0011500Y0161366D03*
D20*
X0011000Y0067000D03*
X0026000Y0067000D03*
X0026000Y0045000D03*
X0011000Y0045000D03*
D21*
X0141276Y0033682D03*
X0141276Y0028761D03*
X0141276Y0023839D03*
X0141276Y0018918D03*
X0150724Y0018918D03*
X0150724Y0023839D03*
X0150724Y0028761D03*
X0150724Y0033682D03*
D22*
X0218354Y0153000D03*
X0218354Y0158000D03*
X0218354Y0163000D03*
X0237646Y0163000D03*
X0237646Y0158000D03*
X0237646Y0153000D03*
D23*
X0233000Y0144417D03*
X0223000Y0144417D03*
X0223000Y0171583D03*
X0233000Y0171583D03*
D24*
X0225000Y0109531D03*
X0221260Y0101263D03*
X0228740Y0101263D03*
D25*
X0243737Y0068432D02*
X0243430Y0069450D01*
X0243431Y0069450D02*
X0243521Y0069482D01*
X0243611Y0069517D01*
X0243699Y0069556D01*
X0243785Y0069599D01*
X0243869Y0069646D01*
X0243951Y0069695D01*
X0244031Y0069749D01*
X0244109Y0069805D01*
X0244185Y0069864D01*
X0244258Y0069927D01*
X0244328Y0069993D01*
X0244396Y0070061D01*
X0244461Y0070132D01*
X0244523Y0070206D01*
X0244581Y0070282D01*
X0244637Y0070360D01*
X0244689Y0070441D01*
X0244738Y0070524D01*
X0244784Y0070608D01*
X0244826Y0070695D01*
X0244864Y0070783D01*
X0244899Y0070873D01*
X0244930Y0070964D01*
X0245950Y0070668D01*
X0245951Y0070667D01*
X0245916Y0070560D01*
X0245877Y0070454D01*
X0245835Y0070349D01*
X0245789Y0070246D01*
X0245740Y0070145D01*
X0245688Y0070045D01*
X0245632Y0069947D01*
X0245574Y0069851D01*
X0245512Y0069756D01*
X0245447Y0069664D01*
X0245379Y0069574D01*
X0245308Y0069487D01*
X0245234Y0069402D01*
X0245157Y0069319D01*
X0245078Y0069239D01*
X0244996Y0069161D01*
X0244912Y0069087D01*
X0244825Y0069015D01*
X0244735Y0068946D01*
X0244644Y0068880D01*
X0244550Y0068817D01*
X0244455Y0068757D01*
X0244357Y0068701D01*
X0244258Y0068647D01*
X0244157Y0068597D01*
X0244054Y0068551D01*
X0243950Y0068508D01*
X0243845Y0068468D01*
X0243738Y0068432D01*
X0243706Y0068538D01*
X0243813Y0068574D01*
X0243918Y0068614D01*
X0244022Y0068658D01*
X0244125Y0068705D01*
X0244226Y0068756D01*
X0244325Y0068810D01*
X0244422Y0068867D01*
X0244517Y0068928D01*
X0244610Y0068992D01*
X0244701Y0069059D01*
X0244789Y0069129D01*
X0244875Y0069202D01*
X0244958Y0069278D01*
X0245039Y0069357D01*
X0245117Y0069438D01*
X0245192Y0069522D01*
X0245264Y0069609D01*
X0245334Y0069698D01*
X0245400Y0069790D01*
X0245463Y0069883D01*
X0245522Y0069979D01*
X0245579Y0070077D01*
X0245632Y0070176D01*
X0245681Y0070278D01*
X0245727Y0070381D01*
X0245770Y0070485D01*
X0245809Y0070591D01*
X0245844Y0070698D01*
X0245738Y0070729D01*
X0245703Y0070626D01*
X0245666Y0070524D01*
X0245625Y0070423D01*
X0245580Y0070323D01*
X0245532Y0070226D01*
X0245481Y0070129D01*
X0245427Y0070035D01*
X0245369Y0069943D01*
X0245308Y0069852D01*
X0245244Y0069764D01*
X0245178Y0069678D01*
X0245108Y0069595D01*
X0245035Y0069513D01*
X0244960Y0069435D01*
X0244882Y0069359D01*
X0244802Y0069285D01*
X0244719Y0069215D01*
X0244634Y0069147D01*
X0244546Y0069082D01*
X0244456Y0069021D01*
X0244364Y0068962D01*
X0244271Y0068907D01*
X0244175Y0068855D01*
X0244078Y0068806D01*
X0243979Y0068760D01*
X0243879Y0068718D01*
X0243777Y0068679D01*
X0243674Y0068644D01*
X0243642Y0068751D01*
X0243745Y0068786D01*
X0243846Y0068825D01*
X0243946Y0068867D01*
X0244045Y0068913D01*
X0244142Y0068963D01*
X0244237Y0069015D01*
X0244330Y0069072D01*
X0244421Y0069131D01*
X0244510Y0069194D01*
X0244597Y0069259D01*
X0244682Y0069328D01*
X0244763Y0069400D01*
X0244843Y0069474D01*
X0244919Y0069552D01*
X0244993Y0069632D01*
X0245064Y0069714D01*
X0245132Y0069799D01*
X0245197Y0069887D01*
X0245258Y0069976D01*
X0245317Y0070068D01*
X0245372Y0070162D01*
X0245424Y0070258D01*
X0245472Y0070355D01*
X0245517Y0070454D01*
X0245559Y0070555D01*
X0245597Y0070657D01*
X0245631Y0070760D01*
X0245524Y0070791D01*
X0245490Y0070688D01*
X0245452Y0070586D01*
X0245410Y0070486D01*
X0245365Y0070387D01*
X0245316Y0070290D01*
X0245263Y0070195D01*
X0245207Y0070101D01*
X0245147Y0070010D01*
X0245085Y0069921D01*
X0245019Y0069835D01*
X0244950Y0069751D01*
X0244877Y0069670D01*
X0244802Y0069591D01*
X0244724Y0069515D01*
X0244644Y0069442D01*
X0244560Y0069372D01*
X0244475Y0069305D01*
X0244387Y0069242D01*
X0244296Y0069181D01*
X0244203Y0069124D01*
X0244109Y0069071D01*
X0244012Y0069021D01*
X0243914Y0068974D01*
X0243814Y0068931D01*
X0243712Y0068892D01*
X0243610Y0068857D01*
X0243578Y0068963D01*
X0243676Y0068997D01*
X0243774Y0069035D01*
X0243870Y0069076D01*
X0243964Y0069121D01*
X0244057Y0069169D01*
X0244148Y0069220D01*
X0244237Y0069275D01*
X0244324Y0069333D01*
X0244409Y0069394D01*
X0244491Y0069459D01*
X0244571Y0069526D01*
X0244649Y0069596D01*
X0244723Y0069669D01*
X0244796Y0069745D01*
X0244865Y0069823D01*
X0244931Y0069904D01*
X0244995Y0069987D01*
X0245055Y0070072D01*
X0245112Y0070159D01*
X0245166Y0070249D01*
X0245217Y0070340D01*
X0245264Y0070434D01*
X0245308Y0070529D01*
X0245348Y0070625D01*
X0245385Y0070723D01*
X0245418Y0070822D01*
X0245311Y0070853D01*
X0245278Y0070754D01*
X0245241Y0070657D01*
X0245200Y0070561D01*
X0245156Y0070466D01*
X0245109Y0070373D01*
X0245057Y0070283D01*
X0245003Y0070194D01*
X0244945Y0070107D01*
X0244883Y0070023D01*
X0244819Y0069941D01*
X0244751Y0069861D01*
X0244681Y0069784D01*
X0244608Y0069710D01*
X0244531Y0069639D01*
X0244453Y0069571D01*
X0244371Y0069506D01*
X0244288Y0069443D01*
X0244201Y0069385D01*
X0244113Y0069329D01*
X0244023Y0069277D01*
X0243931Y0069228D01*
X0243837Y0069183D01*
X0243741Y0069141D01*
X0243644Y0069104D01*
X0243545Y0069069D01*
X0243513Y0069176D01*
X0243608Y0069208D01*
X0243701Y0069245D01*
X0243792Y0069285D01*
X0243882Y0069328D01*
X0243971Y0069375D01*
X0244057Y0069425D01*
X0244141Y0069478D01*
X0244224Y0069534D01*
X0244304Y0069594D01*
X0244382Y0069656D01*
X0244457Y0069722D01*
X0244530Y0069790D01*
X0244600Y0069861D01*
X0244668Y0069935D01*
X0244733Y0070011D01*
X0244794Y0070089D01*
X0244853Y0070170D01*
X0244909Y0070253D01*
X0244961Y0070338D01*
X0245010Y0070425D01*
X0245056Y0070514D01*
X0245098Y0070604D01*
X0245137Y0070696D01*
X0245173Y0070789D01*
X0245204Y0070884D01*
X0245098Y0070915D01*
X0245066Y0070821D01*
X0245030Y0070728D01*
X0244991Y0070637D01*
X0244949Y0070547D01*
X0244902Y0070459D01*
X0244853Y0070373D01*
X0244799Y0070289D01*
X0244743Y0070207D01*
X0244684Y0070127D01*
X0244621Y0070050D01*
X0244555Y0069975D01*
X0244487Y0069903D01*
X0244415Y0069834D01*
X0244341Y0069768D01*
X0244265Y0069704D01*
X0244186Y0069644D01*
X0244105Y0069587D01*
X0244021Y0069533D01*
X0243935Y0069482D01*
X0243848Y0069435D01*
X0243759Y0069391D01*
X0243668Y0069351D01*
X0243575Y0069315D01*
X0243481Y0069282D01*
X0243449Y0069388D01*
X0243539Y0069420D01*
X0243627Y0069455D01*
X0243714Y0069493D01*
X0243799Y0069535D01*
X0243882Y0069580D01*
X0243964Y0069628D01*
X0244043Y0069679D01*
X0244121Y0069734D01*
X0244196Y0069791D01*
X0244269Y0069852D01*
X0244340Y0069915D01*
X0244408Y0069981D01*
X0244473Y0070050D01*
X0244536Y0070121D01*
X0244596Y0070195D01*
X0244652Y0070271D01*
X0244706Y0070349D01*
X0244757Y0070429D01*
X0244804Y0070511D01*
X0244848Y0070595D01*
X0244889Y0070681D01*
X0244927Y0070768D01*
X0244961Y0070856D01*
X0244991Y0070946D01*
X0241863Y0074768D02*
X0242170Y0073750D01*
X0242169Y0073750D02*
X0242079Y0073718D01*
X0241989Y0073683D01*
X0241901Y0073644D01*
X0241815Y0073601D01*
X0241731Y0073554D01*
X0241649Y0073505D01*
X0241569Y0073451D01*
X0241491Y0073395D01*
X0241415Y0073336D01*
X0241342Y0073273D01*
X0241272Y0073207D01*
X0241204Y0073139D01*
X0241139Y0073068D01*
X0241077Y0072994D01*
X0241019Y0072918D01*
X0240963Y0072840D01*
X0240911Y0072759D01*
X0240862Y0072676D01*
X0240816Y0072592D01*
X0240774Y0072505D01*
X0240736Y0072417D01*
X0240701Y0072327D01*
X0240670Y0072236D01*
X0239650Y0072532D01*
X0239649Y0072533D01*
X0239684Y0072640D01*
X0239723Y0072746D01*
X0239765Y0072851D01*
X0239811Y0072954D01*
X0239860Y0073055D01*
X0239912Y0073155D01*
X0239968Y0073253D01*
X0240026Y0073349D01*
X0240088Y0073444D01*
X0240153Y0073536D01*
X0240221Y0073626D01*
X0240292Y0073713D01*
X0240366Y0073798D01*
X0240443Y0073881D01*
X0240522Y0073961D01*
X0240604Y0074039D01*
X0240688Y0074113D01*
X0240775Y0074185D01*
X0240865Y0074254D01*
X0240956Y0074320D01*
X0241050Y0074383D01*
X0241145Y0074443D01*
X0241243Y0074499D01*
X0241342Y0074553D01*
X0241443Y0074603D01*
X0241546Y0074649D01*
X0241650Y0074692D01*
X0241755Y0074732D01*
X0241862Y0074768D01*
X0241894Y0074662D01*
X0241787Y0074626D01*
X0241682Y0074586D01*
X0241578Y0074542D01*
X0241475Y0074495D01*
X0241374Y0074444D01*
X0241275Y0074390D01*
X0241178Y0074333D01*
X0241083Y0074272D01*
X0240990Y0074208D01*
X0240899Y0074141D01*
X0240811Y0074071D01*
X0240725Y0073998D01*
X0240642Y0073922D01*
X0240561Y0073843D01*
X0240483Y0073762D01*
X0240408Y0073678D01*
X0240336Y0073591D01*
X0240266Y0073502D01*
X0240200Y0073410D01*
X0240137Y0073317D01*
X0240078Y0073221D01*
X0240021Y0073123D01*
X0239968Y0073024D01*
X0239919Y0072922D01*
X0239873Y0072819D01*
X0239830Y0072715D01*
X0239791Y0072609D01*
X0239756Y0072502D01*
X0239862Y0072471D01*
X0239897Y0072574D01*
X0239934Y0072676D01*
X0239975Y0072777D01*
X0240020Y0072877D01*
X0240068Y0072974D01*
X0240119Y0073071D01*
X0240173Y0073165D01*
X0240231Y0073257D01*
X0240292Y0073348D01*
X0240356Y0073436D01*
X0240422Y0073522D01*
X0240492Y0073605D01*
X0240565Y0073687D01*
X0240640Y0073765D01*
X0240718Y0073841D01*
X0240798Y0073915D01*
X0240881Y0073985D01*
X0240966Y0074053D01*
X0241054Y0074118D01*
X0241144Y0074179D01*
X0241236Y0074238D01*
X0241329Y0074293D01*
X0241425Y0074345D01*
X0241522Y0074394D01*
X0241621Y0074440D01*
X0241721Y0074482D01*
X0241823Y0074521D01*
X0241926Y0074556D01*
X0241958Y0074449D01*
X0241855Y0074414D01*
X0241754Y0074375D01*
X0241654Y0074333D01*
X0241555Y0074287D01*
X0241458Y0074237D01*
X0241363Y0074185D01*
X0241270Y0074128D01*
X0241179Y0074069D01*
X0241090Y0074006D01*
X0241003Y0073941D01*
X0240918Y0073872D01*
X0240837Y0073800D01*
X0240757Y0073726D01*
X0240681Y0073648D01*
X0240607Y0073568D01*
X0240536Y0073486D01*
X0240468Y0073401D01*
X0240403Y0073313D01*
X0240342Y0073224D01*
X0240283Y0073132D01*
X0240228Y0073038D01*
X0240176Y0072942D01*
X0240128Y0072845D01*
X0240083Y0072746D01*
X0240041Y0072645D01*
X0240003Y0072543D01*
X0239969Y0072440D01*
X0240076Y0072409D01*
X0240110Y0072512D01*
X0240148Y0072614D01*
X0240190Y0072714D01*
X0240235Y0072813D01*
X0240284Y0072910D01*
X0240337Y0073005D01*
X0240393Y0073099D01*
X0240453Y0073190D01*
X0240515Y0073279D01*
X0240581Y0073365D01*
X0240650Y0073449D01*
X0240723Y0073530D01*
X0240798Y0073609D01*
X0240876Y0073685D01*
X0240956Y0073758D01*
X0241040Y0073828D01*
X0241125Y0073895D01*
X0241213Y0073958D01*
X0241304Y0074019D01*
X0241397Y0074076D01*
X0241491Y0074129D01*
X0241588Y0074179D01*
X0241686Y0074226D01*
X0241786Y0074269D01*
X0241888Y0074308D01*
X0241990Y0074343D01*
X0242022Y0074237D01*
X0241924Y0074203D01*
X0241826Y0074165D01*
X0241730Y0074124D01*
X0241636Y0074079D01*
X0241543Y0074031D01*
X0241452Y0073980D01*
X0241363Y0073925D01*
X0241276Y0073867D01*
X0241191Y0073806D01*
X0241109Y0073741D01*
X0241029Y0073674D01*
X0240951Y0073604D01*
X0240877Y0073531D01*
X0240804Y0073455D01*
X0240735Y0073377D01*
X0240669Y0073296D01*
X0240605Y0073213D01*
X0240545Y0073128D01*
X0240488Y0073041D01*
X0240434Y0072951D01*
X0240383Y0072860D01*
X0240336Y0072766D01*
X0240292Y0072671D01*
X0240252Y0072575D01*
X0240215Y0072477D01*
X0240182Y0072378D01*
X0240289Y0072347D01*
X0240322Y0072446D01*
X0240359Y0072543D01*
X0240400Y0072639D01*
X0240444Y0072734D01*
X0240491Y0072827D01*
X0240543Y0072917D01*
X0240597Y0073006D01*
X0240655Y0073093D01*
X0240717Y0073177D01*
X0240781Y0073259D01*
X0240849Y0073339D01*
X0240919Y0073416D01*
X0240992Y0073490D01*
X0241069Y0073561D01*
X0241147Y0073629D01*
X0241229Y0073694D01*
X0241312Y0073757D01*
X0241399Y0073815D01*
X0241487Y0073871D01*
X0241577Y0073923D01*
X0241669Y0073972D01*
X0241763Y0074017D01*
X0241859Y0074059D01*
X0241956Y0074096D01*
X0242055Y0074131D01*
X0242087Y0074024D01*
X0241992Y0073992D01*
X0241899Y0073955D01*
X0241808Y0073915D01*
X0241718Y0073872D01*
X0241629Y0073825D01*
X0241543Y0073775D01*
X0241459Y0073722D01*
X0241376Y0073666D01*
X0241296Y0073606D01*
X0241218Y0073544D01*
X0241143Y0073478D01*
X0241070Y0073410D01*
X0241000Y0073339D01*
X0240932Y0073265D01*
X0240867Y0073189D01*
X0240806Y0073111D01*
X0240747Y0073030D01*
X0240691Y0072947D01*
X0240639Y0072862D01*
X0240590Y0072775D01*
X0240544Y0072686D01*
X0240502Y0072596D01*
X0240463Y0072504D01*
X0240427Y0072411D01*
X0240396Y0072316D01*
X0240502Y0072285D01*
X0240534Y0072379D01*
X0240570Y0072472D01*
X0240609Y0072563D01*
X0240651Y0072653D01*
X0240698Y0072741D01*
X0240747Y0072827D01*
X0240801Y0072911D01*
X0240857Y0072993D01*
X0240916Y0073073D01*
X0240979Y0073150D01*
X0241045Y0073225D01*
X0241113Y0073297D01*
X0241185Y0073366D01*
X0241259Y0073432D01*
X0241335Y0073496D01*
X0241414Y0073556D01*
X0241495Y0073613D01*
X0241579Y0073667D01*
X0241665Y0073718D01*
X0241752Y0073765D01*
X0241841Y0073809D01*
X0241932Y0073849D01*
X0242025Y0073885D01*
X0242119Y0073918D01*
X0242151Y0073812D01*
X0242061Y0073780D01*
X0241973Y0073745D01*
X0241886Y0073707D01*
X0241801Y0073665D01*
X0241718Y0073620D01*
X0241636Y0073572D01*
X0241557Y0073521D01*
X0241479Y0073466D01*
X0241404Y0073409D01*
X0241331Y0073348D01*
X0241260Y0073285D01*
X0241192Y0073219D01*
X0241127Y0073150D01*
X0241064Y0073079D01*
X0241004Y0073005D01*
X0240948Y0072929D01*
X0240894Y0072851D01*
X0240843Y0072771D01*
X0240796Y0072689D01*
X0240752Y0072605D01*
X0240711Y0072519D01*
X0240673Y0072432D01*
X0240639Y0072344D01*
X0240609Y0072254D01*
X0245968Y0072537D02*
X0244950Y0072230D01*
X0244950Y0072231D02*
X0244918Y0072321D01*
X0244883Y0072411D01*
X0244844Y0072499D01*
X0244801Y0072585D01*
X0244754Y0072669D01*
X0244705Y0072751D01*
X0244651Y0072831D01*
X0244595Y0072909D01*
X0244536Y0072985D01*
X0244473Y0073058D01*
X0244407Y0073128D01*
X0244339Y0073196D01*
X0244268Y0073261D01*
X0244194Y0073323D01*
X0244118Y0073381D01*
X0244040Y0073437D01*
X0243959Y0073489D01*
X0243876Y0073538D01*
X0243792Y0073584D01*
X0243705Y0073626D01*
X0243617Y0073664D01*
X0243527Y0073699D01*
X0243436Y0073730D01*
X0243732Y0074750D01*
X0243733Y0074751D01*
X0243840Y0074716D01*
X0243946Y0074677D01*
X0244051Y0074635D01*
X0244154Y0074589D01*
X0244255Y0074540D01*
X0244355Y0074488D01*
X0244453Y0074432D01*
X0244549Y0074374D01*
X0244644Y0074312D01*
X0244736Y0074247D01*
X0244826Y0074179D01*
X0244913Y0074108D01*
X0244998Y0074034D01*
X0245081Y0073957D01*
X0245161Y0073878D01*
X0245239Y0073796D01*
X0245313Y0073712D01*
X0245385Y0073625D01*
X0245454Y0073535D01*
X0245520Y0073444D01*
X0245583Y0073350D01*
X0245643Y0073255D01*
X0245699Y0073157D01*
X0245753Y0073058D01*
X0245803Y0072957D01*
X0245849Y0072854D01*
X0245892Y0072750D01*
X0245932Y0072645D01*
X0245968Y0072538D01*
X0245862Y0072506D01*
X0245826Y0072613D01*
X0245786Y0072718D01*
X0245742Y0072822D01*
X0245695Y0072925D01*
X0245644Y0073026D01*
X0245590Y0073125D01*
X0245533Y0073222D01*
X0245472Y0073317D01*
X0245408Y0073410D01*
X0245341Y0073501D01*
X0245271Y0073589D01*
X0245198Y0073675D01*
X0245122Y0073758D01*
X0245043Y0073839D01*
X0244962Y0073917D01*
X0244878Y0073992D01*
X0244791Y0074064D01*
X0244702Y0074134D01*
X0244610Y0074200D01*
X0244517Y0074263D01*
X0244421Y0074322D01*
X0244323Y0074379D01*
X0244224Y0074432D01*
X0244122Y0074481D01*
X0244019Y0074527D01*
X0243915Y0074570D01*
X0243809Y0074609D01*
X0243702Y0074644D01*
X0243671Y0074538D01*
X0243774Y0074503D01*
X0243876Y0074466D01*
X0243977Y0074425D01*
X0244077Y0074380D01*
X0244174Y0074332D01*
X0244271Y0074281D01*
X0244365Y0074227D01*
X0244457Y0074169D01*
X0244548Y0074108D01*
X0244636Y0074044D01*
X0244722Y0073978D01*
X0244805Y0073908D01*
X0244887Y0073835D01*
X0244965Y0073760D01*
X0245041Y0073682D01*
X0245115Y0073602D01*
X0245185Y0073519D01*
X0245253Y0073434D01*
X0245318Y0073346D01*
X0245379Y0073256D01*
X0245438Y0073164D01*
X0245493Y0073071D01*
X0245545Y0072975D01*
X0245594Y0072878D01*
X0245640Y0072779D01*
X0245682Y0072679D01*
X0245721Y0072577D01*
X0245756Y0072474D01*
X0245649Y0072442D01*
X0245614Y0072545D01*
X0245575Y0072646D01*
X0245533Y0072746D01*
X0245487Y0072845D01*
X0245437Y0072942D01*
X0245385Y0073037D01*
X0245328Y0073130D01*
X0245269Y0073221D01*
X0245206Y0073310D01*
X0245141Y0073397D01*
X0245072Y0073482D01*
X0245000Y0073563D01*
X0244926Y0073643D01*
X0244848Y0073719D01*
X0244768Y0073793D01*
X0244686Y0073864D01*
X0244601Y0073932D01*
X0244513Y0073997D01*
X0244424Y0074058D01*
X0244332Y0074117D01*
X0244238Y0074172D01*
X0244142Y0074224D01*
X0244045Y0074272D01*
X0243946Y0074317D01*
X0243845Y0074359D01*
X0243743Y0074397D01*
X0243640Y0074431D01*
X0243609Y0074324D01*
X0243712Y0074290D01*
X0243814Y0074252D01*
X0243914Y0074210D01*
X0244013Y0074165D01*
X0244110Y0074116D01*
X0244205Y0074063D01*
X0244299Y0074007D01*
X0244390Y0073947D01*
X0244479Y0073885D01*
X0244565Y0073819D01*
X0244649Y0073750D01*
X0244730Y0073677D01*
X0244809Y0073602D01*
X0244885Y0073524D01*
X0244958Y0073444D01*
X0245028Y0073360D01*
X0245095Y0073275D01*
X0245158Y0073187D01*
X0245219Y0073096D01*
X0245276Y0073003D01*
X0245329Y0072909D01*
X0245379Y0072812D01*
X0245426Y0072714D01*
X0245469Y0072614D01*
X0245508Y0072512D01*
X0245543Y0072410D01*
X0245437Y0072378D01*
X0245403Y0072476D01*
X0245365Y0072574D01*
X0245324Y0072670D01*
X0245279Y0072764D01*
X0245231Y0072857D01*
X0245180Y0072948D01*
X0245125Y0073037D01*
X0245067Y0073124D01*
X0245006Y0073209D01*
X0244941Y0073291D01*
X0244874Y0073371D01*
X0244804Y0073449D01*
X0244731Y0073523D01*
X0244655Y0073596D01*
X0244577Y0073665D01*
X0244496Y0073731D01*
X0244413Y0073795D01*
X0244328Y0073855D01*
X0244241Y0073912D01*
X0244151Y0073966D01*
X0244060Y0074017D01*
X0243966Y0074064D01*
X0243871Y0074108D01*
X0243775Y0074148D01*
X0243677Y0074185D01*
X0243578Y0074218D01*
X0243547Y0074111D01*
X0243646Y0074078D01*
X0243743Y0074041D01*
X0243839Y0074000D01*
X0243934Y0073956D01*
X0244027Y0073909D01*
X0244117Y0073857D01*
X0244206Y0073803D01*
X0244293Y0073745D01*
X0244377Y0073683D01*
X0244459Y0073619D01*
X0244539Y0073551D01*
X0244616Y0073481D01*
X0244690Y0073408D01*
X0244761Y0073331D01*
X0244829Y0073253D01*
X0244894Y0073171D01*
X0244957Y0073088D01*
X0245015Y0073001D01*
X0245071Y0072913D01*
X0245123Y0072823D01*
X0245172Y0072731D01*
X0245217Y0072637D01*
X0245259Y0072541D01*
X0245296Y0072444D01*
X0245331Y0072345D01*
X0245224Y0072313D01*
X0245192Y0072408D01*
X0245155Y0072501D01*
X0245115Y0072592D01*
X0245072Y0072682D01*
X0245025Y0072771D01*
X0244975Y0072857D01*
X0244922Y0072941D01*
X0244866Y0073024D01*
X0244806Y0073104D01*
X0244744Y0073182D01*
X0244678Y0073257D01*
X0244610Y0073330D01*
X0244539Y0073400D01*
X0244465Y0073468D01*
X0244389Y0073533D01*
X0244311Y0073594D01*
X0244230Y0073653D01*
X0244147Y0073709D01*
X0244062Y0073761D01*
X0243975Y0073810D01*
X0243886Y0073856D01*
X0243796Y0073898D01*
X0243704Y0073937D01*
X0243611Y0073973D01*
X0243516Y0074004D01*
X0243485Y0073898D01*
X0243579Y0073866D01*
X0243672Y0073830D01*
X0243763Y0073791D01*
X0243853Y0073749D01*
X0243941Y0073702D01*
X0244027Y0073653D01*
X0244111Y0073599D01*
X0244193Y0073543D01*
X0244273Y0073484D01*
X0244350Y0073421D01*
X0244425Y0073355D01*
X0244497Y0073287D01*
X0244566Y0073215D01*
X0244632Y0073141D01*
X0244696Y0073065D01*
X0244756Y0072986D01*
X0244813Y0072905D01*
X0244867Y0072821D01*
X0244918Y0072735D01*
X0244965Y0072648D01*
X0245009Y0072559D01*
X0245049Y0072468D01*
X0245085Y0072375D01*
X0245118Y0072281D01*
X0245012Y0072249D01*
X0244980Y0072339D01*
X0244945Y0072427D01*
X0244907Y0072514D01*
X0244865Y0072599D01*
X0244820Y0072682D01*
X0244772Y0072764D01*
X0244721Y0072843D01*
X0244666Y0072921D01*
X0244609Y0072996D01*
X0244548Y0073069D01*
X0244485Y0073140D01*
X0244419Y0073208D01*
X0244350Y0073273D01*
X0244279Y0073336D01*
X0244205Y0073396D01*
X0244129Y0073452D01*
X0244051Y0073506D01*
X0243971Y0073557D01*
X0243889Y0073604D01*
X0243805Y0073648D01*
X0243719Y0073689D01*
X0243632Y0073727D01*
X0243544Y0073761D01*
X0243454Y0073791D01*
X0239632Y0070663D02*
X0240650Y0070970D01*
X0240650Y0070969D02*
X0240682Y0070879D01*
X0240717Y0070789D01*
X0240756Y0070701D01*
X0240799Y0070615D01*
X0240846Y0070531D01*
X0240895Y0070449D01*
X0240949Y0070369D01*
X0241005Y0070291D01*
X0241064Y0070215D01*
X0241127Y0070142D01*
X0241193Y0070072D01*
X0241261Y0070004D01*
X0241332Y0069939D01*
X0241406Y0069877D01*
X0241482Y0069819D01*
X0241560Y0069763D01*
X0241641Y0069711D01*
X0241724Y0069662D01*
X0241808Y0069616D01*
X0241895Y0069574D01*
X0241983Y0069536D01*
X0242073Y0069501D01*
X0242164Y0069470D01*
X0241868Y0068450D01*
X0241867Y0068449D01*
X0241760Y0068484D01*
X0241654Y0068523D01*
X0241549Y0068565D01*
X0241446Y0068611D01*
X0241345Y0068660D01*
X0241245Y0068712D01*
X0241147Y0068768D01*
X0241051Y0068826D01*
X0240956Y0068888D01*
X0240864Y0068953D01*
X0240774Y0069021D01*
X0240687Y0069092D01*
X0240602Y0069166D01*
X0240519Y0069243D01*
X0240439Y0069322D01*
X0240361Y0069404D01*
X0240287Y0069488D01*
X0240215Y0069575D01*
X0240146Y0069665D01*
X0240080Y0069756D01*
X0240017Y0069850D01*
X0239957Y0069945D01*
X0239901Y0070043D01*
X0239847Y0070142D01*
X0239797Y0070243D01*
X0239751Y0070346D01*
X0239708Y0070450D01*
X0239668Y0070555D01*
X0239632Y0070662D01*
X0239738Y0070694D01*
X0239774Y0070587D01*
X0239814Y0070482D01*
X0239858Y0070378D01*
X0239905Y0070275D01*
X0239956Y0070174D01*
X0240010Y0070075D01*
X0240067Y0069978D01*
X0240128Y0069883D01*
X0240192Y0069790D01*
X0240259Y0069699D01*
X0240329Y0069611D01*
X0240402Y0069525D01*
X0240478Y0069442D01*
X0240557Y0069361D01*
X0240638Y0069283D01*
X0240722Y0069208D01*
X0240809Y0069136D01*
X0240898Y0069066D01*
X0240990Y0069000D01*
X0241083Y0068937D01*
X0241179Y0068878D01*
X0241277Y0068821D01*
X0241376Y0068768D01*
X0241478Y0068719D01*
X0241581Y0068673D01*
X0241685Y0068630D01*
X0241791Y0068591D01*
X0241898Y0068556D01*
X0241929Y0068662D01*
X0241826Y0068697D01*
X0241724Y0068734D01*
X0241623Y0068775D01*
X0241523Y0068820D01*
X0241426Y0068868D01*
X0241329Y0068919D01*
X0241235Y0068973D01*
X0241143Y0069031D01*
X0241052Y0069092D01*
X0240964Y0069156D01*
X0240878Y0069222D01*
X0240795Y0069292D01*
X0240713Y0069365D01*
X0240635Y0069440D01*
X0240559Y0069518D01*
X0240485Y0069598D01*
X0240415Y0069681D01*
X0240347Y0069766D01*
X0240282Y0069854D01*
X0240221Y0069944D01*
X0240162Y0070036D01*
X0240107Y0070129D01*
X0240055Y0070225D01*
X0240006Y0070322D01*
X0239960Y0070421D01*
X0239918Y0070521D01*
X0239879Y0070623D01*
X0239844Y0070726D01*
X0239951Y0070758D01*
X0239986Y0070655D01*
X0240025Y0070554D01*
X0240067Y0070454D01*
X0240113Y0070355D01*
X0240163Y0070258D01*
X0240215Y0070163D01*
X0240272Y0070070D01*
X0240331Y0069979D01*
X0240394Y0069890D01*
X0240459Y0069803D01*
X0240528Y0069718D01*
X0240600Y0069637D01*
X0240674Y0069557D01*
X0240752Y0069481D01*
X0240832Y0069407D01*
X0240914Y0069336D01*
X0240999Y0069268D01*
X0241087Y0069203D01*
X0241176Y0069142D01*
X0241268Y0069083D01*
X0241362Y0069028D01*
X0241458Y0068976D01*
X0241555Y0068928D01*
X0241654Y0068883D01*
X0241755Y0068841D01*
X0241857Y0068803D01*
X0241960Y0068769D01*
X0241991Y0068876D01*
X0241888Y0068910D01*
X0241786Y0068948D01*
X0241686Y0068990D01*
X0241587Y0069035D01*
X0241490Y0069084D01*
X0241395Y0069137D01*
X0241301Y0069193D01*
X0241210Y0069253D01*
X0241121Y0069315D01*
X0241035Y0069381D01*
X0240951Y0069450D01*
X0240870Y0069523D01*
X0240791Y0069598D01*
X0240715Y0069676D01*
X0240642Y0069756D01*
X0240572Y0069840D01*
X0240505Y0069925D01*
X0240442Y0070013D01*
X0240381Y0070104D01*
X0240324Y0070197D01*
X0240271Y0070291D01*
X0240221Y0070388D01*
X0240174Y0070486D01*
X0240131Y0070586D01*
X0240092Y0070688D01*
X0240057Y0070790D01*
X0240163Y0070822D01*
X0240197Y0070724D01*
X0240235Y0070626D01*
X0240276Y0070530D01*
X0240321Y0070436D01*
X0240369Y0070343D01*
X0240420Y0070252D01*
X0240475Y0070163D01*
X0240533Y0070076D01*
X0240594Y0069991D01*
X0240659Y0069909D01*
X0240726Y0069829D01*
X0240796Y0069751D01*
X0240869Y0069677D01*
X0240945Y0069604D01*
X0241023Y0069535D01*
X0241104Y0069469D01*
X0241187Y0069405D01*
X0241272Y0069345D01*
X0241359Y0069288D01*
X0241449Y0069234D01*
X0241540Y0069183D01*
X0241634Y0069136D01*
X0241729Y0069092D01*
X0241825Y0069052D01*
X0241923Y0069015D01*
X0242022Y0068982D01*
X0242053Y0069089D01*
X0241954Y0069122D01*
X0241857Y0069159D01*
X0241761Y0069200D01*
X0241666Y0069244D01*
X0241573Y0069291D01*
X0241483Y0069343D01*
X0241394Y0069397D01*
X0241307Y0069455D01*
X0241223Y0069517D01*
X0241141Y0069581D01*
X0241061Y0069649D01*
X0240984Y0069719D01*
X0240910Y0069792D01*
X0240839Y0069869D01*
X0240771Y0069947D01*
X0240706Y0070029D01*
X0240643Y0070112D01*
X0240585Y0070199D01*
X0240529Y0070287D01*
X0240477Y0070377D01*
X0240428Y0070469D01*
X0240383Y0070563D01*
X0240341Y0070659D01*
X0240304Y0070756D01*
X0240269Y0070855D01*
X0240376Y0070887D01*
X0240408Y0070792D01*
X0240445Y0070699D01*
X0240485Y0070608D01*
X0240528Y0070518D01*
X0240575Y0070429D01*
X0240625Y0070343D01*
X0240678Y0070259D01*
X0240734Y0070176D01*
X0240794Y0070096D01*
X0240856Y0070018D01*
X0240922Y0069943D01*
X0240990Y0069870D01*
X0241061Y0069800D01*
X0241135Y0069732D01*
X0241211Y0069667D01*
X0241289Y0069606D01*
X0241370Y0069547D01*
X0241453Y0069491D01*
X0241538Y0069439D01*
X0241625Y0069390D01*
X0241714Y0069344D01*
X0241804Y0069302D01*
X0241896Y0069263D01*
X0241989Y0069227D01*
X0242084Y0069196D01*
X0242115Y0069302D01*
X0242021Y0069334D01*
X0241928Y0069370D01*
X0241837Y0069409D01*
X0241747Y0069451D01*
X0241659Y0069498D01*
X0241573Y0069547D01*
X0241489Y0069601D01*
X0241407Y0069657D01*
X0241327Y0069716D01*
X0241250Y0069779D01*
X0241175Y0069845D01*
X0241103Y0069913D01*
X0241034Y0069985D01*
X0240968Y0070059D01*
X0240904Y0070135D01*
X0240844Y0070214D01*
X0240787Y0070295D01*
X0240733Y0070379D01*
X0240682Y0070465D01*
X0240635Y0070552D01*
X0240591Y0070641D01*
X0240551Y0070732D01*
X0240515Y0070825D01*
X0240482Y0070919D01*
X0240588Y0070951D01*
X0240620Y0070861D01*
X0240655Y0070773D01*
X0240693Y0070686D01*
X0240735Y0070601D01*
X0240780Y0070518D01*
X0240828Y0070436D01*
X0240879Y0070357D01*
X0240934Y0070279D01*
X0240991Y0070204D01*
X0241052Y0070131D01*
X0241115Y0070060D01*
X0241181Y0069992D01*
X0241250Y0069927D01*
X0241321Y0069864D01*
X0241395Y0069804D01*
X0241471Y0069748D01*
X0241549Y0069694D01*
X0241629Y0069643D01*
X0241711Y0069596D01*
X0241795Y0069552D01*
X0241881Y0069511D01*
X0241968Y0069473D01*
X0242056Y0069439D01*
X0242146Y0069409D01*
D26*
X0245950Y0066482D03*
X0245950Y0076718D03*
D27*
X0232485Y0076324D03*
X0232485Y0071600D03*
X0232485Y0066876D03*
D28*
X0212119Y0057240D03*
X0212119Y0049760D03*
X0201881Y0049760D03*
X0201881Y0053500D03*
X0201881Y0057240D03*
D29*
X0164326Y0168715D03*
D30*
X0164326Y0164581D03*
X0166688Y0164581D03*
X0169050Y0164581D03*
X0161964Y0164581D03*
X0159602Y0164581D03*
X0159602Y0172849D03*
X0161964Y0172849D03*
X0164326Y0172849D03*
X0166688Y0172849D03*
X0169050Y0172849D03*
M02*
