G75*
%MOIN*%
%OFA0B0*%
%FSLAX25Y25*%
%IPPOS*%
%LPD*%
%AMOC8*
5,1,8,0,0,1.08239X$1,22.5*
%
%ADD10C,0.00300*%
%ADD11C,0.00200*%
%ADD12R,0.01500X0.00150*%
%ADD13R,0.02250X0.00150*%
%ADD14R,0.02700X0.00150*%
%ADD15R,0.03150X0.00150*%
%ADD16R,0.03450X0.00150*%
%ADD17R,0.03600X0.00150*%
%ADD18R,0.03900X0.00150*%
%ADD19R,0.04050X0.00150*%
%ADD20R,0.04200X0.00150*%
%ADD21R,0.30900X0.00150*%
%ADD22R,0.01950X0.00150*%
%ADD23R,0.33900X0.00150*%
%ADD24R,0.31200X0.00150*%
%ADD25R,0.01650X0.00150*%
%ADD26R,0.33750X0.00150*%
%ADD27R,0.31350X0.00150*%
%ADD28R,0.31500X0.00150*%
%ADD29R,0.01350X0.00150*%
%ADD30R,0.31650X0.00150*%
%ADD31R,0.31800X0.00150*%
%ADD32R,0.34200X0.00150*%
%ADD33R,0.32100X0.00150*%
%ADD34R,0.34350X0.00150*%
%ADD35R,0.32250X0.00150*%
%ADD36R,0.34500X0.00150*%
%ADD37R,0.32400X0.00150*%
%ADD38R,0.34800X0.00150*%
%ADD39R,0.32550X0.00150*%
%ADD40R,0.34950X0.00150*%
%ADD41R,0.32700X0.00150*%
%ADD42R,0.35400X0.00150*%
%ADD43R,0.33000X0.00150*%
%ADD44R,0.35850X0.00150*%
%ADD45R,0.02850X0.00150*%
%ADD46R,0.03000X0.00150*%
%ADD47R,0.02550X0.00150*%
%ADD48R,0.02400X0.00150*%
%ADD49R,0.02100X0.00150*%
%ADD50R,0.01800X0.00150*%
%ADD51R,0.01200X0.00150*%
%ADD52R,0.07500X0.00150*%
%ADD53R,0.06300X0.00150*%
%ADD54R,0.04500X0.00150*%
%ADD55R,0.07800X0.00150*%
%ADD56R,0.07050X0.00150*%
%ADD57R,0.04800X0.00150*%
%ADD58R,0.05100X0.00150*%
%ADD59R,0.05400X0.00150*%
%ADD60R,0.05700X0.00150*%
%ADD61R,0.06000X0.00150*%
%ADD62R,0.03300X0.00150*%
%ADD63R,0.07950X0.00150*%
%ADD64R,0.08250X0.00150*%
%ADD65R,0.06900X0.00150*%
%ADD66R,0.06750X0.00150*%
%ADD67R,0.08400X0.00150*%
%ADD68R,0.08550X0.00150*%
%ADD69R,0.07350X0.00150*%
%ADD70R,0.07200X0.00150*%
%ADD71R,0.08700X0.00150*%
%ADD72R,0.07650X0.00150*%
%ADD73R,0.08850X0.00150*%
%ADD74R,0.09000X0.00150*%
%ADD75R,0.08100X0.00150*%
%ADD76R,0.09300X0.00150*%
%ADD77R,0.09150X0.00150*%
%ADD78R,0.03750X0.00150*%
%ADD79R,0.04650X0.00150*%
%ADD80R,0.05850X0.00150*%
%ADD81R,0.06150X0.00150*%
%ADD82R,0.04350X0.00150*%
%ADD83R,0.06450X0.00150*%
%ADD84R,0.06600X0.00150*%
%ADD85R,0.05250X0.00150*%
%ADD86R,0.04950X0.00150*%
%ADD87R,0.25050X0.00150*%
%ADD88R,0.43950X0.00150*%
%ADD89R,0.24750X0.00150*%
%ADD90R,0.43650X0.00150*%
%ADD91R,0.24450X0.00150*%
%ADD92R,0.43500X0.00150*%
%ADD93R,0.24150X0.00150*%
%ADD94R,0.43350X0.00150*%
%ADD95R,0.23700X0.00150*%
%ADD96R,0.43200X0.00150*%
%ADD97R,0.23550X0.00150*%
%ADD98R,0.42900X0.00150*%
%ADD99R,0.23400X0.00150*%
%ADD100R,0.42750X0.00150*%
%ADD101R,0.23250X0.00150*%
%ADD102R,0.42600X0.00150*%
%ADD103R,0.42450X0.00150*%
%ADD104R,0.22950X0.00150*%
%ADD105R,0.42300X0.00150*%
%ADD106R,0.42000X0.00150*%
%ADD107R,0.41850X0.00150*%
%ADD108C,0.00400*%
%ADD109R,0.00200X0.00200*%
%ADD110R,0.02000X0.00200*%
%ADD111R,0.02200X0.00200*%
%ADD112R,0.02400X0.00200*%
%ADD113R,0.02600X0.00200*%
%ADD114R,0.01400X0.00200*%
%ADD115R,0.04200X0.00200*%
%ADD116R,0.01800X0.00200*%
%ADD117R,0.01600X0.00200*%
%ADD118R,0.04600X0.00200*%
%ADD119R,0.05000X0.00200*%
%ADD120R,0.05800X0.00200*%
%ADD121R,0.06000X0.00200*%
%ADD122R,0.06400X0.00200*%
%ADD123R,0.06600X0.00200*%
%ADD124R,0.07000X0.00200*%
%ADD125R,0.08000X0.00200*%
%ADD126R,0.07800X0.00200*%
%ADD127R,0.04800X0.00200*%
%ADD128R,0.07600X0.00200*%
%ADD129R,0.07400X0.00200*%
%ADD130R,0.06200X0.00200*%
%ADD131R,0.07200X0.00200*%
%ADD132R,0.03000X0.00200*%
%ADD133R,0.08800X0.00200*%
%ADD134R,0.08600X0.00200*%
%ADD135R,0.02800X0.00200*%
%ADD136R,0.03400X0.00200*%
%ADD137R,0.00600X0.00200*%
%ADD138R,0.06800X0.00200*%
%ADD139R,0.03800X0.00200*%
%ADD140R,0.03600X0.00200*%
%ADD141R,0.01000X0.00200*%
%ADD142C,0.00800*%
%ADD143C,0.00039*%
%ADD144C,0.00984*%
%ADD145C,0.01200*%
%ADD146C,0.00500*%
%ADD147C,0.00600*%
%ADD148R,0.00787X0.00787*%
%ADD149R,0.02000X0.02000*%
%ADD150C,0.01000*%
%ADD151C,0.01000*%
D10*
X0039348Y0015874D02*
X0039348Y0016842D01*
X0039831Y0017326D01*
X0041766Y0015391D01*
X0042250Y0015874D01*
X0042250Y0016842D01*
X0041766Y0017326D01*
X0039831Y0017326D01*
X0039348Y0015874D02*
X0039831Y0015391D01*
X0041766Y0015391D01*
X0041766Y0018337D02*
X0041766Y0018821D01*
X0042250Y0018821D01*
X0042250Y0018337D01*
X0041766Y0018337D01*
X0042250Y0019810D02*
X0042250Y0021745D01*
X0042250Y0020778D02*
X0039348Y0020778D01*
X0040315Y0019810D01*
X0040315Y0022757D02*
X0041766Y0022757D01*
X0042250Y0023241D01*
X0042250Y0024692D01*
X0040315Y0024692D01*
X0040799Y0025703D02*
X0040799Y0026671D01*
X0042250Y0025703D02*
X0039348Y0025703D01*
X0039348Y0027638D01*
X0049496Y0013545D02*
X0049012Y0013062D01*
X0049012Y0012578D01*
X0049496Y0012094D01*
X0050464Y0012094D01*
X0050947Y0011610D01*
X0050947Y0011127D01*
X0050464Y0010643D01*
X0049496Y0010643D01*
X0049012Y0011127D01*
X0049496Y0013545D02*
X0050464Y0013545D01*
X0050947Y0013062D01*
X0051959Y0013545D02*
X0051959Y0010643D01*
X0051959Y0012094D02*
X0053894Y0012094D01*
X0053894Y0013545D02*
X0053894Y0010643D01*
X0055873Y0010643D02*
X0055873Y0013545D01*
X0056840Y0013545D02*
X0054905Y0013545D01*
X0057852Y0013062D02*
X0058336Y0013545D01*
X0059303Y0013545D01*
X0059787Y0013062D01*
X0059787Y0012578D01*
X0059303Y0012094D01*
X0059787Y0011610D01*
X0059787Y0011127D01*
X0059303Y0010643D01*
X0058336Y0010643D01*
X0057852Y0011127D01*
X0058820Y0012094D02*
X0059303Y0012094D01*
X0060799Y0012578D02*
X0061766Y0013545D01*
X0061766Y0010643D01*
X0060799Y0010643D02*
X0062734Y0010643D01*
X0063745Y0012094D02*
X0065680Y0012094D01*
X0066692Y0010643D02*
X0068143Y0010643D01*
X0068627Y0011127D01*
X0068627Y0013062D01*
X0068143Y0013545D01*
X0066692Y0013545D01*
X0066692Y0010643D01*
X0069638Y0010643D02*
X0070606Y0010643D01*
X0070122Y0010643D02*
X0070122Y0013545D01*
X0069638Y0013545D02*
X0070606Y0013545D01*
X0071602Y0013062D02*
X0071602Y0012578D01*
X0072086Y0012094D01*
X0073054Y0012094D01*
X0073537Y0011610D01*
X0073537Y0011127D01*
X0073054Y0010643D01*
X0072086Y0010643D01*
X0071602Y0011127D01*
X0071602Y0013062D02*
X0072086Y0013545D01*
X0073054Y0013545D01*
X0073537Y0013062D01*
X0100337Y0015531D02*
X0102272Y0015531D01*
X0101305Y0015531D02*
X0101305Y0012629D01*
X0103284Y0013112D02*
X0103767Y0012629D01*
X0104735Y0012629D01*
X0105219Y0013112D01*
X0105219Y0013596D01*
X0104735Y0014080D01*
X0103767Y0014080D01*
X0103284Y0014564D01*
X0103284Y0015047D01*
X0103767Y0015531D01*
X0104735Y0015531D01*
X0105219Y0015047D01*
X0106230Y0015531D02*
X0106230Y0012629D01*
X0108165Y0012629D01*
X0109177Y0012629D02*
X0111112Y0014564D01*
X0111112Y0015047D01*
X0110628Y0015531D01*
X0109660Y0015531D01*
X0109177Y0015047D01*
X0109177Y0012629D02*
X0111112Y0012629D01*
X0112123Y0013112D02*
X0112607Y0012629D01*
X0113574Y0012629D01*
X0114058Y0013112D01*
X0114058Y0014080D01*
X0113574Y0014564D01*
X0113091Y0014564D01*
X0112123Y0014080D01*
X0112123Y0015531D01*
X0114058Y0015531D01*
X0115070Y0014080D02*
X0116521Y0014080D01*
X0117005Y0013596D01*
X0117005Y0013112D01*
X0116521Y0012629D01*
X0115554Y0012629D01*
X0115070Y0013112D01*
X0115070Y0014080D01*
X0116037Y0015047D01*
X0117005Y0015531D01*
X0118016Y0014564D02*
X0118984Y0015531D01*
X0118984Y0012629D01*
X0119951Y0012629D02*
X0118016Y0012629D01*
X0133648Y0016524D02*
X0134615Y0017492D01*
X0133648Y0018459D01*
X0136550Y0018459D01*
X0136550Y0019471D02*
X0133648Y0019471D01*
X0133648Y0020922D01*
X0134131Y0021406D01*
X0135099Y0021406D01*
X0135583Y0020922D01*
X0135583Y0019471D01*
X0136550Y0022417D02*
X0133648Y0022417D01*
X0136550Y0022417D02*
X0136550Y0024352D01*
X0136550Y0025364D02*
X0136550Y0027299D01*
X0136550Y0026331D02*
X0133648Y0026331D01*
X0134615Y0025364D01*
X0134615Y0028310D02*
X0133648Y0029278D01*
X0136550Y0029278D01*
X0136550Y0030245D02*
X0136550Y0028310D01*
X0136066Y0031257D02*
X0136550Y0031741D01*
X0136550Y0032708D01*
X0136066Y0033192D01*
X0135099Y0033192D01*
X0134615Y0032708D01*
X0134615Y0032224D01*
X0135099Y0031257D01*
X0133648Y0031257D01*
X0133648Y0033192D01*
X0134615Y0034203D02*
X0133648Y0035171D01*
X0134615Y0036138D01*
X0136550Y0036138D01*
X0135099Y0036138D02*
X0135099Y0034203D01*
X0134615Y0034203D02*
X0136550Y0034203D01*
X0149834Y0048450D02*
X0149350Y0048934D01*
X0151285Y0050869D01*
X0151285Y0048934D01*
X0150801Y0048450D01*
X0149834Y0048450D01*
X0149350Y0048934D02*
X0149350Y0050869D01*
X0149834Y0051352D01*
X0150801Y0051352D01*
X0151285Y0050869D01*
X0152297Y0048934D02*
X0152780Y0048934D01*
X0152780Y0048450D01*
X0152297Y0048450D01*
X0152297Y0048934D01*
X0153770Y0048450D02*
X0155705Y0048450D01*
X0154737Y0048450D02*
X0154737Y0051352D01*
X0153770Y0050385D01*
X0156716Y0050385D02*
X0156716Y0048934D01*
X0157200Y0048450D01*
X0158651Y0048450D01*
X0158651Y0050385D01*
X0159663Y0049901D02*
X0160630Y0049901D01*
X0159663Y0048450D02*
X0159663Y0051352D01*
X0161598Y0051352D01*
X0151278Y0070350D02*
X0149827Y0071801D01*
X0149343Y0071317D02*
X0151278Y0073252D01*
X0149343Y0073252D02*
X0149343Y0070350D01*
X0148331Y0070834D02*
X0147848Y0070350D01*
X0146880Y0070350D01*
X0146397Y0070834D01*
X0148331Y0072769D01*
X0148331Y0070834D01*
X0146397Y0070834D02*
X0146397Y0072769D01*
X0146880Y0073252D01*
X0147848Y0073252D01*
X0148331Y0072769D01*
X0145385Y0070350D02*
X0143450Y0070350D01*
X0144417Y0070350D02*
X0144417Y0073252D01*
X0143450Y0072285D01*
X0143750Y0081450D02*
X0145685Y0081450D01*
X0144717Y0081450D02*
X0144717Y0084352D01*
X0143750Y0083385D01*
X0146697Y0083869D02*
X0146697Y0081934D01*
X0148631Y0083869D01*
X0148631Y0081934D01*
X0148148Y0081450D01*
X0147180Y0081450D01*
X0146697Y0081934D01*
X0146697Y0083869D02*
X0147180Y0084352D01*
X0148148Y0084352D01*
X0148631Y0083869D01*
X0149643Y0084352D02*
X0149643Y0081450D01*
X0149643Y0082417D02*
X0151578Y0084352D01*
X0150127Y0082901D02*
X0151578Y0081450D01*
X0127230Y0100201D02*
X0126263Y0100201D01*
X0125251Y0100685D02*
X0125251Y0098750D01*
X0123800Y0098750D01*
X0123316Y0099234D01*
X0123316Y0100685D01*
X0122305Y0098750D02*
X0120370Y0098750D01*
X0121337Y0098750D02*
X0121337Y0101652D01*
X0120370Y0100685D01*
X0119380Y0099234D02*
X0118897Y0099234D01*
X0118897Y0098750D01*
X0119380Y0098750D01*
X0119380Y0099234D01*
X0117885Y0099234D02*
X0117885Y0101169D01*
X0115950Y0099234D01*
X0116434Y0098750D01*
X0117401Y0098750D01*
X0117885Y0099234D01*
X0117885Y0101169D02*
X0117401Y0101652D01*
X0116434Y0101652D01*
X0115950Y0101169D01*
X0115950Y0099234D01*
X0126263Y0098750D02*
X0126263Y0101652D01*
X0128198Y0101652D01*
X0108888Y0110700D02*
X0106953Y0110700D01*
X0106953Y0111184D01*
X0108888Y0113119D01*
X0108888Y0113602D01*
X0106953Y0113602D01*
X0105942Y0113602D02*
X0105942Y0110700D01*
X0105942Y0112151D02*
X0104007Y0112151D01*
X0104007Y0110700D02*
X0104007Y0113602D01*
X0102995Y0113602D02*
X0102028Y0112635D01*
X0101060Y0113602D01*
X0101060Y0110700D01*
X0100049Y0111184D02*
X0100049Y0111667D01*
X0099565Y0112151D01*
X0098114Y0112151D01*
X0098114Y0111184D01*
X0098598Y0110700D01*
X0099565Y0110700D01*
X0100049Y0111184D01*
X0099081Y0113119D02*
X0098114Y0112151D01*
X0099081Y0113119D02*
X0100049Y0113602D01*
X0102995Y0113602D02*
X0102995Y0110700D01*
X0097102Y0110700D02*
X0095167Y0110700D01*
X0096135Y0110700D02*
X0096135Y0113602D01*
X0095167Y0112635D01*
X0087099Y0089838D02*
X0087583Y0089355D01*
X0087583Y0087903D01*
X0088550Y0087903D02*
X0085648Y0087903D01*
X0085648Y0089355D01*
X0086131Y0089838D01*
X0087099Y0089838D01*
X0087583Y0086892D02*
X0087099Y0086408D01*
X0087099Y0085441D01*
X0086615Y0084957D01*
X0086131Y0084957D01*
X0085648Y0085441D01*
X0085648Y0086408D01*
X0086131Y0086892D01*
X0086615Y0086892D01*
X0087099Y0086408D01*
X0087583Y0086892D02*
X0088066Y0086892D01*
X0088550Y0086408D01*
X0088550Y0085441D01*
X0088066Y0084957D01*
X0087583Y0084957D01*
X0087099Y0085441D01*
X0086615Y0083945D02*
X0086131Y0083945D01*
X0085648Y0083462D01*
X0085648Y0082494D01*
X0086131Y0082010D01*
X0086131Y0080999D02*
X0086615Y0080999D01*
X0087099Y0080515D01*
X0087583Y0080999D01*
X0088066Y0080999D01*
X0088550Y0080515D01*
X0088550Y0079548D01*
X0088066Y0079064D01*
X0088550Y0078052D02*
X0086615Y0078052D01*
X0085648Y0077085D01*
X0086615Y0076117D01*
X0088550Y0076117D01*
X0088066Y0075106D02*
X0087099Y0075106D01*
X0087099Y0074138D01*
X0088066Y0073171D02*
X0086131Y0073171D01*
X0085648Y0073655D01*
X0085648Y0074622D01*
X0086131Y0075106D01*
X0087099Y0076117D02*
X0087099Y0078052D01*
X0086131Y0079064D02*
X0085648Y0079548D01*
X0085648Y0080515D01*
X0086131Y0080999D01*
X0087099Y0080515D02*
X0087099Y0080031D01*
X0088550Y0082010D02*
X0086615Y0083945D01*
X0088550Y0083945D02*
X0088550Y0082010D01*
X0088066Y0075106D02*
X0088550Y0074622D01*
X0088550Y0073655D01*
X0088066Y0073171D01*
X0088550Y0072159D02*
X0088550Y0070224D01*
X0085648Y0070224D01*
X0085648Y0072159D01*
X0087099Y0071192D02*
X0087099Y0070224D01*
X0085648Y0069213D02*
X0088550Y0069213D01*
X0088550Y0067278D02*
X0085648Y0067278D01*
X0086615Y0068245D01*
X0085648Y0069213D01*
X0085648Y0066266D02*
X0085648Y0064331D01*
X0085648Y0065299D02*
X0088550Y0065299D01*
X0088550Y0063320D02*
X0086615Y0063320D01*
X0085648Y0062352D01*
X0086615Y0061385D01*
X0088550Y0061385D01*
X0087099Y0061385D02*
X0087099Y0063320D01*
X0098674Y0042852D02*
X0099642Y0042852D01*
X0100126Y0042369D01*
X0098191Y0040434D01*
X0098674Y0039950D01*
X0099642Y0039950D01*
X0100126Y0040434D01*
X0100126Y0042369D01*
X0098674Y0042852D02*
X0098191Y0042369D01*
X0098191Y0040434D01*
X0101137Y0040434D02*
X0101621Y0040434D01*
X0101621Y0039950D01*
X0101137Y0039950D01*
X0101137Y0040434D01*
X0102610Y0039950D02*
X0104545Y0039950D01*
X0103578Y0039950D02*
X0103578Y0042852D01*
X0102610Y0041885D01*
X0105557Y0041885D02*
X0105557Y0040434D01*
X0106041Y0039950D01*
X0107492Y0039950D01*
X0107492Y0041885D01*
X0108503Y0041401D02*
X0109471Y0041401D01*
X0108503Y0039950D02*
X0108503Y0042852D01*
X0110438Y0042852D01*
X0133648Y0016524D02*
X0136550Y0016524D01*
X0164948Y0016474D02*
X0165431Y0015991D01*
X0167366Y0015991D01*
X0165431Y0017926D01*
X0167366Y0017926D01*
X0167850Y0017442D01*
X0167850Y0016474D01*
X0167366Y0015991D01*
X0164948Y0016474D02*
X0164948Y0017442D01*
X0165431Y0017926D01*
X0167366Y0018937D02*
X0167366Y0019421D01*
X0167850Y0019421D01*
X0167850Y0018937D01*
X0167366Y0018937D01*
X0167850Y0020410D02*
X0167850Y0022345D01*
X0167850Y0021378D02*
X0164948Y0021378D01*
X0165915Y0020410D01*
X0165915Y0023357D02*
X0167366Y0023357D01*
X0167850Y0023841D01*
X0167850Y0025292D01*
X0165915Y0025292D01*
X0166399Y0026303D02*
X0166399Y0027271D01*
X0167850Y0026303D02*
X0164948Y0026303D01*
X0164948Y0028238D01*
X0194798Y0045605D02*
X0195281Y0045121D01*
X0197216Y0045121D01*
X0197700Y0045605D01*
X0197700Y0046572D01*
X0197216Y0047056D01*
X0195281Y0047056D01*
X0194798Y0046572D01*
X0194798Y0045605D01*
X0194798Y0048067D02*
X0194798Y0049519D01*
X0195281Y0050002D01*
X0196249Y0050002D01*
X0196733Y0049519D01*
X0196733Y0048067D01*
X0197700Y0048067D02*
X0194798Y0048067D01*
X0195765Y0051014D02*
X0194798Y0051981D01*
X0195765Y0052949D01*
X0197700Y0052949D01*
X0197216Y0053960D02*
X0197700Y0054444D01*
X0197700Y0055412D01*
X0197216Y0055895D01*
X0196733Y0055895D01*
X0196249Y0055412D01*
X0196249Y0054928D01*
X0196249Y0055412D02*
X0195765Y0055895D01*
X0195281Y0055895D01*
X0194798Y0055412D01*
X0194798Y0054444D01*
X0195281Y0053960D01*
X0196249Y0052949D02*
X0196249Y0051014D01*
X0195765Y0051014D02*
X0197700Y0051014D01*
X0196249Y0056907D02*
X0196249Y0058842D01*
X0196249Y0059853D02*
X0196249Y0061788D01*
X0197700Y0061305D02*
X0194798Y0061305D01*
X0196249Y0059853D01*
X0197700Y0058358D02*
X0194798Y0058358D01*
X0196249Y0056907D01*
X0213650Y0042385D02*
X0214617Y0043352D01*
X0214617Y0040450D01*
X0213650Y0040450D02*
X0215585Y0040450D01*
X0216597Y0040934D02*
X0218531Y0042869D01*
X0218531Y0040934D01*
X0218048Y0040450D01*
X0217080Y0040450D01*
X0216597Y0040934D01*
X0216597Y0042869D01*
X0217080Y0043352D01*
X0218048Y0043352D01*
X0218531Y0042869D01*
X0219543Y0043352D02*
X0219543Y0040450D01*
X0219543Y0041417D02*
X0221478Y0043352D01*
X0220027Y0041901D02*
X0221478Y0040450D01*
X0221378Y0032852D02*
X0219443Y0032852D01*
X0219443Y0029950D01*
X0218431Y0029950D02*
X0218431Y0031885D01*
X0219443Y0031401D02*
X0220411Y0031401D01*
X0218431Y0029950D02*
X0216980Y0029950D01*
X0216497Y0030434D01*
X0216497Y0031885D01*
X0215485Y0029950D02*
X0213550Y0029950D01*
X0214517Y0029950D02*
X0214517Y0032852D01*
X0213550Y0031885D01*
X0214078Y0022052D02*
X0214078Y0019150D01*
X0215045Y0019150D02*
X0213110Y0019150D01*
X0213110Y0021085D02*
X0214078Y0022052D01*
X0216057Y0021569D02*
X0216057Y0019634D01*
X0217992Y0021569D01*
X0217992Y0019634D01*
X0217508Y0019150D01*
X0216541Y0019150D01*
X0216057Y0019634D01*
X0216057Y0021569D02*
X0216541Y0022052D01*
X0217508Y0022052D01*
X0217992Y0021569D01*
X0219003Y0022052D02*
X0219003Y0019150D01*
X0219003Y0020117D02*
X0220938Y0022052D01*
X0219487Y0020601D02*
X0220938Y0019150D01*
X0231050Y0035950D02*
X0232985Y0035950D01*
X0232017Y0035950D02*
X0232017Y0038852D01*
X0231050Y0037885D01*
X0233997Y0036434D02*
X0234480Y0036434D01*
X0234480Y0035950D01*
X0233997Y0035950D01*
X0233997Y0036434D01*
X0235470Y0036434D02*
X0235954Y0035950D01*
X0236921Y0035950D01*
X0237405Y0036434D01*
X0237405Y0037401D01*
X0236921Y0037885D01*
X0236437Y0037885D01*
X0235470Y0037401D01*
X0235470Y0038852D01*
X0237405Y0038852D01*
X0238416Y0038852D02*
X0238416Y0035950D01*
X0238416Y0036917D02*
X0240351Y0038852D01*
X0238900Y0037401D02*
X0240351Y0035950D01*
X0245350Y0036250D02*
X0247285Y0036250D01*
X0246317Y0036250D02*
X0246317Y0039152D01*
X0245350Y0038185D01*
X0248297Y0038669D02*
X0248297Y0036734D01*
X0250231Y0038669D01*
X0250231Y0036734D01*
X0249748Y0036250D01*
X0248780Y0036250D01*
X0248297Y0036734D01*
X0248297Y0038669D02*
X0248780Y0039152D01*
X0249748Y0039152D01*
X0250231Y0038669D01*
X0251243Y0038669D02*
X0251727Y0039152D01*
X0252694Y0039152D01*
X0253178Y0038669D01*
X0251243Y0036734D01*
X0251727Y0036250D01*
X0252694Y0036250D01*
X0253178Y0036734D01*
X0253178Y0038669D01*
X0254190Y0038185D02*
X0254190Y0035283D01*
X0254190Y0036250D02*
X0255641Y0036250D01*
X0256125Y0036734D01*
X0256125Y0037701D01*
X0255641Y0038185D01*
X0254190Y0038185D01*
X0257136Y0037701D02*
X0258104Y0037701D01*
X0259071Y0039152D02*
X0257136Y0039152D01*
X0257136Y0036250D01*
X0251243Y0036734D02*
X0251243Y0038669D01*
X0251641Y0058150D02*
X0251157Y0058634D01*
X0253092Y0060569D01*
X0253092Y0058634D01*
X0252608Y0058150D01*
X0251641Y0058150D01*
X0251157Y0058634D02*
X0251157Y0060569D01*
X0251641Y0061052D01*
X0252608Y0061052D01*
X0253092Y0060569D01*
X0254103Y0061052D02*
X0254103Y0058150D01*
X0254103Y0059117D02*
X0256038Y0061052D01*
X0254587Y0059601D02*
X0256038Y0058150D01*
X0250145Y0058634D02*
X0249662Y0058150D01*
X0248694Y0058150D01*
X0248210Y0058634D01*
X0250145Y0060569D01*
X0250145Y0058634D01*
X0248210Y0058634D02*
X0248210Y0060569D01*
X0248694Y0061052D01*
X0249662Y0061052D01*
X0250145Y0060569D01*
X0247199Y0058150D02*
X0245264Y0058150D01*
X0246231Y0058150D02*
X0246231Y0061052D01*
X0245264Y0060085D01*
X0243398Y0060952D02*
X0241463Y0060952D01*
X0241463Y0058050D01*
X0240451Y0058050D02*
X0240451Y0059985D01*
X0241463Y0059501D02*
X0242430Y0059501D01*
X0240451Y0058050D02*
X0239000Y0058050D01*
X0238516Y0058534D01*
X0238516Y0059985D01*
X0237505Y0060469D02*
X0235570Y0058534D01*
X0235570Y0058050D01*
X0234580Y0058050D02*
X0234097Y0058050D01*
X0234097Y0058534D01*
X0234580Y0058534D01*
X0234580Y0058050D01*
X0232601Y0058050D02*
X0232601Y0060952D01*
X0231150Y0059501D01*
X0233085Y0059501D01*
X0235570Y0060952D02*
X0237505Y0060952D01*
X0237505Y0060469D01*
X0218350Y0063434D02*
X0217866Y0062950D01*
X0215931Y0064885D01*
X0217866Y0064885D01*
X0218350Y0064401D01*
X0218350Y0063434D01*
X0217866Y0062950D02*
X0215931Y0062950D01*
X0215448Y0063434D01*
X0215448Y0064401D01*
X0215931Y0064885D01*
X0217866Y0065897D02*
X0217866Y0066380D01*
X0218350Y0066380D01*
X0218350Y0065897D01*
X0217866Y0065897D01*
X0218350Y0067370D02*
X0218350Y0069305D01*
X0218350Y0068337D02*
X0215448Y0068337D01*
X0216415Y0067370D01*
X0216415Y0070316D02*
X0217866Y0070316D01*
X0218350Y0070800D01*
X0218350Y0072251D01*
X0216415Y0072251D01*
X0216899Y0073263D02*
X0216899Y0074230D01*
X0218350Y0073263D02*
X0215448Y0073263D01*
X0215448Y0075198D01*
X0229435Y0082661D02*
X0229435Y0084596D01*
X0230403Y0085563D01*
X0231370Y0084596D01*
X0231370Y0082661D01*
X0232382Y0082661D02*
X0233833Y0082661D01*
X0234317Y0083145D01*
X0234317Y0085080D01*
X0233833Y0085563D01*
X0232382Y0085563D01*
X0232382Y0082661D01*
X0231370Y0084112D02*
X0229435Y0084112D01*
X0235328Y0082661D02*
X0235328Y0085563D01*
X0236296Y0084596D01*
X0237263Y0085563D01*
X0237263Y0082661D01*
X0238275Y0082661D02*
X0238275Y0085563D01*
X0239726Y0085563D01*
X0240210Y0085080D01*
X0240210Y0084112D01*
X0239726Y0083629D01*
X0238275Y0083629D01*
X0241221Y0084112D02*
X0242673Y0085563D01*
X0242673Y0082661D01*
X0243156Y0084112D02*
X0241221Y0084112D01*
X0244168Y0083145D02*
X0246103Y0085080D01*
X0246103Y0083145D01*
X0245619Y0082661D01*
X0244652Y0082661D01*
X0244168Y0083145D01*
X0244168Y0085080D01*
X0244652Y0085563D01*
X0245619Y0085563D01*
X0246103Y0085080D01*
X0247115Y0084596D02*
X0248082Y0085563D01*
X0248082Y0082661D01*
X0247115Y0082661D02*
X0249049Y0082661D01*
X0248000Y0108850D02*
X0248000Y0111752D01*
X0247033Y0111752D02*
X0248968Y0111752D01*
X0246021Y0111752D02*
X0244086Y0111752D01*
X0244086Y0108850D01*
X0246021Y0108850D01*
X0245054Y0110301D02*
X0244086Y0110301D01*
X0243075Y0111752D02*
X0241140Y0111752D01*
X0241140Y0108850D01*
X0240128Y0109334D02*
X0239644Y0108850D01*
X0238677Y0108850D01*
X0238193Y0109334D01*
X0237181Y0109334D02*
X0237181Y0111269D01*
X0236698Y0111752D01*
X0235730Y0111752D01*
X0235247Y0111269D01*
X0235247Y0109334D01*
X0235730Y0108850D01*
X0236698Y0108850D01*
X0237181Y0109334D01*
X0238193Y0110785D02*
X0238193Y0111269D01*
X0238677Y0111752D01*
X0239644Y0111752D01*
X0240128Y0111269D01*
X0239644Y0110301D02*
X0240128Y0109817D01*
X0240128Y0109334D01*
X0239644Y0110301D02*
X0238677Y0110301D01*
X0238193Y0110785D01*
X0241140Y0110301D02*
X0242107Y0110301D01*
X0234235Y0111752D02*
X0234235Y0108850D01*
X0232300Y0108850D02*
X0232300Y0111752D01*
X0233267Y0110785D01*
X0234235Y0111752D01*
X0232666Y0119550D02*
X0232183Y0119550D01*
X0231699Y0120034D01*
X0231699Y0121001D01*
X0232183Y0121485D01*
X0232666Y0121485D01*
X0233150Y0121001D01*
X0233150Y0120034D01*
X0232666Y0119550D01*
X0231699Y0120034D02*
X0231215Y0119550D01*
X0230731Y0119550D01*
X0230248Y0120034D01*
X0230248Y0121001D01*
X0230731Y0121485D01*
X0231215Y0121485D01*
X0231699Y0121001D01*
X0230731Y0122497D02*
X0230248Y0122980D01*
X0230248Y0123948D01*
X0230731Y0124431D01*
X0231215Y0124431D01*
X0233150Y0122497D01*
X0233150Y0124431D01*
X0233052Y0134150D02*
X0232084Y0134150D01*
X0231600Y0134634D01*
X0231600Y0135601D02*
X0232568Y0136085D01*
X0233052Y0136085D01*
X0233535Y0135601D01*
X0233535Y0134634D01*
X0233052Y0134150D01*
X0234547Y0134150D02*
X0236482Y0134150D01*
X0235514Y0134150D02*
X0235514Y0137052D01*
X0234547Y0136085D01*
X0233535Y0137052D02*
X0231600Y0137052D01*
X0231600Y0135601D01*
X0230589Y0135601D02*
X0228654Y0135601D01*
X0230105Y0137052D01*
X0230105Y0134150D01*
X0227642Y0134634D02*
X0227159Y0134150D01*
X0226191Y0134150D01*
X0225707Y0134634D01*
X0224696Y0134634D02*
X0224212Y0134150D01*
X0223245Y0134150D01*
X0222761Y0134634D01*
X0222761Y0136569D01*
X0223245Y0137052D01*
X0224212Y0137052D01*
X0224696Y0136569D01*
X0225707Y0136569D02*
X0225707Y0136085D01*
X0226191Y0135601D01*
X0227159Y0135601D01*
X0227642Y0135117D01*
X0227642Y0134634D01*
X0227642Y0136569D02*
X0227159Y0137052D01*
X0226191Y0137052D01*
X0225707Y0136569D01*
X0221764Y0137052D02*
X0220797Y0137052D01*
X0221280Y0137052D02*
X0221280Y0134150D01*
X0220797Y0134150D02*
X0221764Y0134150D01*
X0219785Y0134150D02*
X0219785Y0137052D01*
X0218817Y0136085D01*
X0217850Y0137052D01*
X0217850Y0134150D01*
X0212255Y0128352D02*
X0211287Y0128352D01*
X0210803Y0127869D01*
X0210803Y0125934D01*
X0212738Y0127869D01*
X0212738Y0125934D01*
X0212255Y0125450D01*
X0211287Y0125450D01*
X0210803Y0125934D01*
X0209792Y0125934D02*
X0209308Y0125450D01*
X0208341Y0125450D01*
X0207857Y0125934D01*
X0209792Y0127869D01*
X0209792Y0125934D01*
X0209792Y0127869D02*
X0209308Y0128352D01*
X0208341Y0128352D01*
X0207857Y0127869D01*
X0207857Y0125934D01*
X0206845Y0125450D02*
X0204910Y0125450D01*
X0205878Y0125450D02*
X0205878Y0128352D01*
X0204910Y0127385D01*
X0212255Y0128352D02*
X0212738Y0127869D01*
X0195226Y0144372D02*
X0195226Y0146307D01*
X0192324Y0146307D01*
X0192324Y0144372D01*
X0193775Y0145339D02*
X0193775Y0146307D01*
X0193775Y0147318D02*
X0193291Y0147802D01*
X0193291Y0149253D01*
X0192324Y0149253D02*
X0195226Y0149253D01*
X0195226Y0147802D01*
X0194743Y0147318D01*
X0193775Y0147318D01*
X0193291Y0148286D02*
X0192324Y0147318D01*
X0192808Y0150265D02*
X0194743Y0150265D01*
X0195226Y0150748D01*
X0195226Y0151716D01*
X0194743Y0152200D01*
X0192808Y0152200D01*
X0192324Y0151716D01*
X0192324Y0150748D01*
X0192808Y0150265D01*
X0192808Y0153211D02*
X0192324Y0153695D01*
X0192324Y0154662D01*
X0192808Y0155146D01*
X0194743Y0155146D01*
X0195226Y0154662D01*
X0195226Y0153695D01*
X0194743Y0153211D01*
X0193775Y0156158D02*
X0193775Y0158093D01*
X0194743Y0159104D02*
X0192808Y0159104D01*
X0192324Y0159588D01*
X0192324Y0160555D01*
X0192808Y0161039D01*
X0194743Y0161039D01*
X0195226Y0160555D01*
X0195226Y0159588D01*
X0194743Y0159104D01*
X0193291Y0160072D02*
X0192324Y0159104D01*
X0192324Y0162051D02*
X0194259Y0162051D01*
X0195226Y0163018D01*
X0194259Y0163986D01*
X0192324Y0163986D01*
X0192324Y0164983D02*
X0192324Y0165950D01*
X0192324Y0165466D02*
X0195226Y0165466D01*
X0195226Y0164983D02*
X0195226Y0165950D01*
X0193775Y0163986D02*
X0193775Y0162051D01*
X0200348Y0164163D02*
X0200348Y0166098D01*
X0201799Y0165130D02*
X0201799Y0164163D01*
X0201315Y0163151D02*
X0203250Y0163151D01*
X0203250Y0161700D01*
X0202766Y0161216D01*
X0201315Y0161216D01*
X0203250Y0160205D02*
X0203250Y0158270D01*
X0203250Y0159237D02*
X0200348Y0159237D01*
X0201315Y0158270D01*
X0202766Y0157280D02*
X0203250Y0157280D01*
X0203250Y0156797D01*
X0202766Y0156797D01*
X0202766Y0157280D01*
X0202766Y0155785D02*
X0200831Y0155785D01*
X0202766Y0153850D01*
X0203250Y0154334D01*
X0203250Y0155301D01*
X0202766Y0155785D01*
X0200831Y0155785D02*
X0200348Y0155301D01*
X0200348Y0154334D01*
X0200831Y0153850D01*
X0202766Y0153850D01*
X0203250Y0164163D02*
X0200348Y0164163D01*
X0232410Y0189301D02*
X0234345Y0189301D01*
X0235357Y0188334D02*
X0235357Y0187850D01*
X0235357Y0188334D02*
X0237292Y0190269D01*
X0237292Y0190752D01*
X0235357Y0190752D01*
X0233862Y0190752D02*
X0232410Y0189301D01*
X0233862Y0187850D02*
X0233862Y0190752D01*
X0238303Y0190752D02*
X0238303Y0187850D01*
X0238303Y0188817D02*
X0240238Y0190752D01*
X0238787Y0189301D02*
X0240238Y0187850D01*
X0254434Y0168850D02*
X0254917Y0168850D01*
X0255401Y0168366D01*
X0255401Y0167399D01*
X0254917Y0166915D01*
X0254434Y0166915D01*
X0253950Y0167399D01*
X0253950Y0168366D01*
X0254434Y0168850D01*
X0255401Y0168366D02*
X0255885Y0168850D01*
X0256369Y0168850D01*
X0256852Y0168366D01*
X0256852Y0167399D01*
X0256369Y0166915D01*
X0255885Y0166915D01*
X0255401Y0167399D01*
X0256369Y0165903D02*
X0256852Y0165420D01*
X0256852Y0164452D01*
X0256369Y0163969D01*
X0255885Y0163969D01*
X0253950Y0165903D01*
X0253950Y0163969D01*
X0253850Y0155650D02*
X0255785Y0153715D01*
X0256269Y0153715D01*
X0256752Y0154199D01*
X0256752Y0155166D01*
X0256269Y0155650D01*
X0253850Y0155650D02*
X0253850Y0153715D01*
X0253850Y0152703D02*
X0255785Y0150769D01*
X0256269Y0150769D01*
X0256752Y0151252D01*
X0256752Y0152220D01*
X0256269Y0152703D01*
X0253850Y0152703D02*
X0253850Y0150769D01*
X0253850Y0149757D02*
X0256752Y0149757D01*
X0255301Y0149273D02*
X0253850Y0147822D01*
X0254817Y0149757D02*
X0256752Y0147822D01*
X0238945Y0137052D02*
X0238945Y0134150D01*
X0239428Y0135601D02*
X0237493Y0135601D01*
X0238945Y0137052D01*
X0252250Y0123866D02*
X0252734Y0124350D01*
X0252250Y0123866D02*
X0252250Y0122899D01*
X0252734Y0122415D01*
X0253701Y0122415D01*
X0254185Y0122899D01*
X0254185Y0123383D01*
X0253701Y0124350D01*
X0255152Y0124350D01*
X0255152Y0122415D01*
X0254185Y0121403D02*
X0255152Y0120436D01*
X0252250Y0120436D01*
X0252250Y0121403D02*
X0252250Y0119469D01*
X0213925Y0105152D02*
X0211990Y0103217D01*
X0212473Y0103701D02*
X0213925Y0102250D01*
X0211990Y0102250D02*
X0211990Y0105152D01*
X0210978Y0104669D02*
X0209043Y0102734D01*
X0209527Y0102250D01*
X0210494Y0102250D01*
X0210978Y0102734D01*
X0210978Y0104669D01*
X0210494Y0105152D01*
X0209527Y0105152D01*
X0209043Y0104669D01*
X0209043Y0102734D01*
X0208031Y0102734D02*
X0208031Y0104669D01*
X0206097Y0102734D01*
X0206580Y0102250D01*
X0207548Y0102250D01*
X0208031Y0102734D01*
X0206097Y0102734D02*
X0206097Y0104669D01*
X0206580Y0105152D01*
X0207548Y0105152D01*
X0208031Y0104669D01*
X0205085Y0102250D02*
X0203150Y0102250D01*
X0204117Y0102250D02*
X0204117Y0105152D01*
X0203150Y0104185D01*
X0174452Y0107702D02*
X0174452Y0109637D01*
X0171550Y0109637D01*
X0171550Y0110649D02*
X0173485Y0110649D01*
X0173001Y0109637D02*
X0173001Y0108670D01*
X0171550Y0110649D02*
X0171550Y0112100D01*
X0172034Y0112584D01*
X0173485Y0112584D01*
X0171550Y0113595D02*
X0171550Y0115530D01*
X0171550Y0114563D02*
X0174452Y0114563D01*
X0173485Y0115530D01*
X0172034Y0116520D02*
X0171550Y0116520D01*
X0171550Y0117003D01*
X0172034Y0117003D01*
X0172034Y0116520D01*
X0172034Y0118015D02*
X0171550Y0118499D01*
X0171550Y0119466D01*
X0172034Y0119950D01*
X0173969Y0118015D01*
X0172034Y0118015D01*
X0173969Y0118015D02*
X0174452Y0118499D01*
X0174452Y0119466D01*
X0173969Y0119950D01*
X0172034Y0119950D01*
X0057852Y0084266D02*
X0057852Y0083299D01*
X0057369Y0082815D01*
X0055434Y0084750D01*
X0054950Y0084266D01*
X0054950Y0083299D01*
X0055434Y0082815D01*
X0057369Y0082815D01*
X0057852Y0084266D02*
X0057369Y0084750D01*
X0055434Y0084750D01*
X0055434Y0081803D02*
X0055434Y0081320D01*
X0054950Y0081320D01*
X0054950Y0081803D01*
X0055434Y0081803D01*
X0054950Y0080330D02*
X0054950Y0078395D01*
X0054950Y0079363D02*
X0057852Y0079363D01*
X0056885Y0080330D01*
X0056885Y0077384D02*
X0055434Y0077384D01*
X0054950Y0076900D01*
X0054950Y0075449D01*
X0056885Y0075449D01*
X0056401Y0074437D02*
X0056401Y0073470D01*
X0054950Y0074437D02*
X0057852Y0074437D01*
X0057852Y0072502D01*
X0034650Y0061404D02*
X0031748Y0061404D01*
X0031748Y0062371D02*
X0031748Y0060436D01*
X0031748Y0059425D02*
X0031748Y0057490D01*
X0034650Y0057490D01*
X0034650Y0059425D01*
X0033199Y0058457D02*
X0033199Y0057490D01*
X0033683Y0056478D02*
X0034166Y0056478D01*
X0034650Y0055994D01*
X0034650Y0055027D01*
X0034166Y0054543D01*
X0033199Y0055027D02*
X0033199Y0055994D01*
X0033683Y0056478D01*
X0032231Y0056478D02*
X0031748Y0055994D01*
X0031748Y0055027D01*
X0032231Y0054543D01*
X0032715Y0054543D01*
X0033199Y0055027D01*
X0034650Y0053531D02*
X0034650Y0051597D01*
X0031748Y0051597D01*
X0031748Y0053531D01*
X0033199Y0052564D02*
X0033199Y0051597D01*
X0033199Y0050585D02*
X0033683Y0050101D01*
X0033683Y0048650D01*
X0034650Y0048650D02*
X0031748Y0048650D01*
X0031748Y0050101D01*
X0032231Y0050585D01*
X0033199Y0050585D01*
X0033683Y0049617D02*
X0034650Y0050585D01*
X0032650Y0075310D02*
X0032650Y0077245D01*
X0032650Y0076278D02*
X0029748Y0076278D01*
X0030715Y0075310D01*
X0030231Y0078257D02*
X0029748Y0078741D01*
X0029748Y0079708D01*
X0030231Y0080192D01*
X0032166Y0078257D01*
X0032650Y0078741D01*
X0032650Y0079708D01*
X0032166Y0080192D01*
X0030231Y0080192D01*
X0029748Y0081203D02*
X0032650Y0081203D01*
X0031683Y0081203D02*
X0029748Y0083138D01*
X0031199Y0081687D02*
X0032650Y0083138D01*
X0032166Y0078257D02*
X0030231Y0078257D01*
X0041521Y0143350D02*
X0042489Y0143350D01*
X0042005Y0143350D02*
X0042005Y0146252D01*
X0041521Y0146252D02*
X0042489Y0146252D01*
X0043486Y0145769D02*
X0043486Y0145285D01*
X0043969Y0144801D01*
X0044937Y0144801D01*
X0045421Y0144317D01*
X0045421Y0143834D01*
X0044937Y0143350D01*
X0043969Y0143350D01*
X0043486Y0143834D01*
X0043486Y0145769D02*
X0043969Y0146252D01*
X0044937Y0146252D01*
X0045421Y0145769D01*
X0046432Y0146252D02*
X0047883Y0146252D01*
X0048367Y0145769D01*
X0048367Y0144801D01*
X0047883Y0144317D01*
X0046432Y0144317D01*
X0046432Y0143350D02*
X0046432Y0146252D01*
X0024250Y0161230D02*
X0024250Y0163165D01*
X0024250Y0164177D02*
X0021348Y0164177D01*
X0021348Y0166112D01*
X0021348Y0167123D02*
X0021348Y0168574D01*
X0021831Y0169058D01*
X0023766Y0169058D01*
X0024250Y0168574D01*
X0024250Y0167123D01*
X0021348Y0167123D01*
X0019450Y0166617D02*
X0018966Y0166134D01*
X0017031Y0166134D01*
X0017515Y0166617D02*
X0017515Y0165650D01*
X0017999Y0164638D02*
X0019450Y0164638D01*
X0019450Y0163187D01*
X0018966Y0162703D01*
X0018483Y0163187D01*
X0018483Y0164638D01*
X0017999Y0164638D02*
X0017515Y0164155D01*
X0017515Y0163187D01*
X0017515Y0161707D02*
X0017515Y0160739D01*
X0017031Y0161223D02*
X0018966Y0161223D01*
X0019450Y0161707D01*
X0021348Y0161230D02*
X0024250Y0161230D01*
X0024250Y0164177D02*
X0024250Y0166112D01*
X0022799Y0165144D02*
X0022799Y0164177D01*
X0018966Y0167614D02*
X0019450Y0168098D01*
X0019450Y0169549D01*
X0017515Y0169549D01*
X0017999Y0170561D02*
X0017515Y0171045D01*
X0017515Y0172496D01*
X0018483Y0172012D02*
X0018483Y0171045D01*
X0017999Y0170561D01*
X0019450Y0170561D02*
X0019450Y0172012D01*
X0018966Y0172496D01*
X0018483Y0172012D01*
X0018966Y0167614D02*
X0017515Y0167614D01*
X0017031Y0159728D02*
X0016548Y0159244D01*
X0016548Y0158276D01*
X0017031Y0157793D01*
X0017515Y0157793D01*
X0017999Y0158276D01*
X0017999Y0159244D01*
X0018483Y0159728D01*
X0018966Y0159728D01*
X0019450Y0159244D01*
X0019450Y0158276D01*
X0018966Y0157793D01*
X0018799Y0182203D02*
X0018799Y0184138D01*
X0019766Y0185150D02*
X0017831Y0187085D01*
X0017348Y0187085D01*
X0017348Y0185150D01*
X0017348Y0183655D02*
X0018799Y0182203D01*
X0020250Y0183655D02*
X0017348Y0183655D01*
X0019766Y0185150D02*
X0020250Y0185150D01*
X0033794Y0199134D02*
X0034277Y0198650D01*
X0035245Y0198650D01*
X0035729Y0199134D01*
X0035729Y0199617D01*
X0035245Y0200101D01*
X0034761Y0200101D01*
X0035245Y0200101D02*
X0035729Y0200585D01*
X0035729Y0201069D01*
X0035245Y0201552D01*
X0034277Y0201552D01*
X0033794Y0201069D01*
X0036740Y0199134D02*
X0036740Y0198650D01*
X0037224Y0198650D01*
X0037224Y0199134D01*
X0036740Y0199134D01*
X0038213Y0199134D02*
X0038697Y0198650D01*
X0039665Y0198650D01*
X0040148Y0199134D01*
X0040148Y0199617D01*
X0039665Y0200101D01*
X0039181Y0200101D01*
X0039665Y0200101D02*
X0040148Y0200585D01*
X0040148Y0201069D01*
X0039665Y0201552D01*
X0038697Y0201552D01*
X0038213Y0201069D01*
X0041160Y0201552D02*
X0041160Y0199617D01*
X0042127Y0198650D01*
X0043095Y0199617D01*
X0043095Y0201552D01*
X0039317Y0222250D02*
X0040285Y0223217D01*
X0040285Y0225152D01*
X0038350Y0225152D02*
X0038350Y0223217D01*
X0039317Y0222250D01*
X0037338Y0222734D02*
X0036855Y0222250D01*
X0035887Y0222250D01*
X0035403Y0222734D01*
X0035403Y0223701D02*
X0036371Y0224185D01*
X0036855Y0224185D01*
X0037338Y0223701D01*
X0037338Y0222734D01*
X0035403Y0223701D02*
X0035403Y0225152D01*
X0037338Y0225152D01*
X0065503Y0225352D02*
X0067438Y0225352D01*
X0066471Y0225352D02*
X0066471Y0222450D01*
X0068450Y0222450D02*
X0070385Y0225352D01*
X0068450Y0225352D02*
X0070385Y0222450D01*
X0075403Y0222350D02*
X0075403Y0225252D01*
X0076855Y0225252D01*
X0077338Y0224769D01*
X0077338Y0223801D01*
X0076855Y0223317D01*
X0075403Y0223317D01*
X0076371Y0223317D02*
X0077338Y0222350D01*
X0078350Y0222350D02*
X0080285Y0225252D01*
X0078350Y0225252D02*
X0080285Y0222350D01*
D11*
X0031233Y0139009D02*
X0029765Y0139009D01*
X0029398Y0138642D01*
X0029398Y0137909D01*
X0029765Y0137542D01*
X0031233Y0137542D01*
X0031600Y0137909D01*
X0031600Y0138642D01*
X0031233Y0139009D01*
X0031233Y0136800D02*
X0031600Y0136433D01*
X0031600Y0135699D01*
X0031233Y0135332D01*
X0030499Y0135699D02*
X0030499Y0136433D01*
X0030866Y0136800D01*
X0031233Y0136800D01*
X0030499Y0135699D02*
X0030132Y0135332D01*
X0029765Y0135332D01*
X0029398Y0135699D01*
X0029398Y0136433D01*
X0029765Y0136800D01*
X0029398Y0134592D02*
X0029398Y0133858D01*
X0029398Y0134225D02*
X0031600Y0134225D01*
X0031600Y0133858D02*
X0031600Y0134592D01*
X0031600Y0133116D02*
X0029398Y0133116D01*
X0030132Y0132383D01*
X0029398Y0131649D01*
X0031600Y0131649D01*
X0031105Y0126502D02*
X0031105Y0124300D01*
X0031105Y0125034D02*
X0032573Y0126502D01*
X0031472Y0125401D02*
X0032573Y0124300D01*
X0030363Y0124667D02*
X0029996Y0124300D01*
X0029262Y0124300D01*
X0028895Y0124667D01*
X0028895Y0126135D01*
X0029262Y0126502D01*
X0029996Y0126502D01*
X0030363Y0126135D01*
X0028153Y0126135D02*
X0027786Y0126502D01*
X0027052Y0126502D01*
X0026685Y0126135D01*
X0026685Y0125768D01*
X0027052Y0125401D01*
X0027786Y0125401D01*
X0028153Y0125034D01*
X0028153Y0124667D01*
X0027786Y0124300D01*
X0027052Y0124300D01*
X0026685Y0124667D01*
X0029898Y0120583D02*
X0029898Y0119115D01*
X0029898Y0119849D02*
X0032100Y0119849D01*
X0032100Y0118373D02*
X0032100Y0116905D01*
X0029898Y0116905D01*
X0029898Y0118373D01*
X0030999Y0117639D02*
X0030999Y0116905D01*
X0031366Y0116163D02*
X0031733Y0116163D01*
X0032100Y0115796D01*
X0032100Y0115062D01*
X0031733Y0114695D01*
X0030999Y0115062D02*
X0030999Y0115796D01*
X0031366Y0116163D01*
X0030265Y0116163D02*
X0029898Y0115796D01*
X0029898Y0115062D01*
X0030265Y0114695D01*
X0030632Y0114695D01*
X0030999Y0115062D01*
X0029898Y0113953D02*
X0029898Y0112485D01*
X0032100Y0112485D01*
X0032100Y0113953D01*
X0030999Y0113219D02*
X0030999Y0112485D01*
X0030999Y0111743D02*
X0031366Y0111376D01*
X0031366Y0110275D01*
X0032100Y0110275D02*
X0029898Y0110275D01*
X0029898Y0111376D01*
X0030265Y0111743D01*
X0030999Y0111743D01*
X0031366Y0111009D02*
X0032100Y0111743D01*
X0031968Y0105702D02*
X0030500Y0103500D01*
X0029758Y0103500D02*
X0029024Y0104234D01*
X0029391Y0104234D02*
X0028290Y0104234D01*
X0028290Y0103500D02*
X0028290Y0105702D01*
X0029391Y0105702D01*
X0029758Y0105335D01*
X0029758Y0104601D01*
X0029391Y0104234D01*
X0030500Y0105702D02*
X0031968Y0103500D01*
X0031801Y0095502D02*
X0031067Y0095502D01*
X0030700Y0095135D01*
X0030700Y0094768D01*
X0031067Y0094401D01*
X0031801Y0094401D01*
X0032168Y0094034D01*
X0032168Y0093667D01*
X0031801Y0093300D01*
X0031067Y0093300D01*
X0030700Y0093667D01*
X0029958Y0093667D02*
X0029591Y0093300D01*
X0028857Y0093300D01*
X0028490Y0093667D01*
X0028857Y0094401D02*
X0029591Y0094401D01*
X0029958Y0094034D01*
X0029958Y0093667D01*
X0028857Y0094401D02*
X0028490Y0094768D01*
X0028490Y0095135D01*
X0028857Y0095502D01*
X0029591Y0095502D01*
X0029958Y0095135D01*
X0031801Y0095502D02*
X0032168Y0095135D01*
X0056585Y0096002D02*
X0056585Y0093800D01*
X0057686Y0093800D01*
X0058053Y0094167D01*
X0058053Y0095635D01*
X0057686Y0096002D01*
X0056585Y0096002D01*
X0058795Y0096002D02*
X0060263Y0096002D01*
X0059529Y0096002D02*
X0059529Y0093800D01*
X0061005Y0093800D02*
X0061005Y0096002D01*
X0062106Y0096002D01*
X0062473Y0095635D01*
X0062473Y0094901D01*
X0062106Y0094534D01*
X0061005Y0094534D01*
X0061739Y0094534D02*
X0062473Y0093800D01*
X0060268Y0104000D02*
X0058800Y0106202D01*
X0058058Y0106202D02*
X0056590Y0106202D01*
X0057324Y0106202D02*
X0057324Y0104000D01*
X0058800Y0104000D02*
X0060268Y0106202D01*
X0060363Y0113900D02*
X0060363Y0116102D01*
X0061105Y0116102D02*
X0061105Y0113900D01*
X0062206Y0113900D01*
X0062573Y0114267D01*
X0062573Y0115735D01*
X0062206Y0116102D01*
X0061105Y0116102D01*
X0058895Y0116102D02*
X0060363Y0113900D01*
X0058895Y0113900D02*
X0058895Y0116102D01*
X0058153Y0115735D02*
X0057786Y0116102D01*
X0057052Y0116102D01*
X0056685Y0115735D01*
X0056685Y0114267D01*
X0057052Y0113900D01*
X0057786Y0113900D01*
X0058153Y0114267D01*
X0058153Y0115001D01*
X0057419Y0115001D01*
X0056849Y0123900D02*
X0056849Y0126102D01*
X0057583Y0125368D01*
X0058316Y0126102D01*
X0058316Y0123900D01*
X0059058Y0124267D02*
X0059425Y0123900D01*
X0060159Y0123900D01*
X0060526Y0124267D01*
X0060526Y0125735D01*
X0060159Y0126102D01*
X0059425Y0126102D01*
X0059058Y0125735D01*
X0059058Y0124267D01*
X0061268Y0124267D02*
X0061635Y0123900D01*
X0062369Y0123900D01*
X0062736Y0124267D01*
X0062736Y0124634D01*
X0062369Y0125001D01*
X0061635Y0125001D01*
X0061268Y0125368D01*
X0061268Y0125735D01*
X0061635Y0126102D01*
X0062369Y0126102D01*
X0062736Y0125735D01*
X0063478Y0126102D02*
X0064212Y0126102D01*
X0063845Y0126102D02*
X0063845Y0123900D01*
X0063478Y0123900D02*
X0064212Y0123900D01*
X0063091Y0133900D02*
X0063825Y0134634D01*
X0063825Y0136102D01*
X0062357Y0136102D02*
X0062357Y0134634D01*
X0063091Y0133900D01*
X0061615Y0134267D02*
X0061248Y0133900D01*
X0060514Y0133900D01*
X0060148Y0134267D01*
X0059410Y0134267D02*
X0059410Y0133900D01*
X0059043Y0133900D01*
X0059043Y0134267D01*
X0059410Y0134267D01*
X0058301Y0134267D02*
X0057934Y0133900D01*
X0057200Y0133900D01*
X0056833Y0134267D01*
X0057567Y0135001D02*
X0057934Y0135001D01*
X0058301Y0134634D01*
X0058301Y0134267D01*
X0057934Y0135001D02*
X0058301Y0135368D01*
X0058301Y0135735D01*
X0057934Y0136102D01*
X0057200Y0136102D01*
X0056833Y0135735D01*
X0060148Y0135735D02*
X0060514Y0136102D01*
X0061248Y0136102D01*
X0061615Y0135735D01*
X0061615Y0135368D01*
X0061248Y0135001D01*
X0061615Y0134634D01*
X0061615Y0134267D01*
X0061248Y0135001D02*
X0060881Y0135001D01*
D12*
X0073325Y0166250D03*
X0071825Y0167900D03*
X0071825Y0168950D03*
X0073325Y0170600D03*
X0061175Y0187400D03*
X0061325Y0187850D03*
X0061325Y0188000D03*
X0061325Y0188150D03*
X0061175Y0188450D03*
X0104375Y0172850D03*
D13*
X0110900Y0171950D03*
X0073250Y0170450D03*
X0073250Y0166400D03*
X0066200Y0171950D03*
X0066650Y0184400D03*
X0042950Y0176900D03*
X0032900Y0184550D03*
D14*
X0033125Y0184850D03*
X0036875Y0180800D03*
X0036875Y0180650D03*
X0036875Y0180500D03*
X0036875Y0180350D03*
X0036875Y0180200D03*
X0036875Y0180050D03*
X0036875Y0179900D03*
X0036875Y0179750D03*
X0036875Y0179600D03*
X0036875Y0179450D03*
X0036875Y0179300D03*
X0036875Y0179150D03*
X0036875Y0179000D03*
X0036875Y0178850D03*
X0036875Y0178700D03*
X0036875Y0178550D03*
X0036875Y0178400D03*
X0036875Y0178250D03*
X0036875Y0178100D03*
X0036875Y0177950D03*
X0036875Y0177800D03*
X0036875Y0177650D03*
X0036875Y0177500D03*
X0036875Y0177350D03*
X0036875Y0177200D03*
X0036875Y0177050D03*
X0036875Y0176900D03*
X0036875Y0176750D03*
X0036875Y0176600D03*
X0036875Y0176450D03*
X0036875Y0176300D03*
X0042875Y0176300D03*
X0042875Y0176450D03*
X0042875Y0176600D03*
X0042875Y0176150D03*
X0046925Y0176150D03*
X0046925Y0176300D03*
X0046925Y0176450D03*
X0046925Y0176600D03*
X0046925Y0176750D03*
X0046925Y0176900D03*
X0046925Y0177050D03*
X0046925Y0177200D03*
X0046925Y0177350D03*
X0046925Y0177500D03*
X0046925Y0177650D03*
X0046925Y0177800D03*
X0046925Y0177950D03*
X0046925Y0178100D03*
X0046925Y0178250D03*
X0046925Y0178400D03*
X0046925Y0178550D03*
X0046925Y0178700D03*
X0046925Y0178850D03*
X0046925Y0179000D03*
X0046925Y0179150D03*
X0046925Y0179300D03*
X0046925Y0179450D03*
X0046925Y0179600D03*
X0046925Y0179750D03*
X0046925Y0179900D03*
X0046925Y0180050D03*
X0046925Y0180200D03*
X0046925Y0180350D03*
X0046925Y0180500D03*
X0046925Y0180650D03*
X0046925Y0180800D03*
X0046925Y0180950D03*
X0046925Y0181100D03*
X0046925Y0181250D03*
X0046925Y0181400D03*
X0042875Y0180950D03*
X0046925Y0176000D03*
X0046925Y0175850D03*
X0046925Y0175700D03*
X0046925Y0175550D03*
X0046925Y0175400D03*
X0046925Y0175250D03*
X0046925Y0175100D03*
X0046925Y0174950D03*
X0046925Y0174800D03*
X0046925Y0174650D03*
X0046925Y0174500D03*
X0046925Y0174350D03*
X0046925Y0174200D03*
X0046925Y0174050D03*
X0046925Y0173900D03*
X0046925Y0173750D03*
X0046925Y0173600D03*
X0046925Y0173450D03*
X0046925Y0173300D03*
X0053225Y0173150D03*
X0059675Y0173300D03*
X0059675Y0173450D03*
X0059675Y0173600D03*
X0059675Y0173750D03*
X0059675Y0173900D03*
X0059675Y0174050D03*
X0059675Y0174200D03*
X0059675Y0174350D03*
X0059675Y0174500D03*
X0059675Y0174650D03*
X0059675Y0174800D03*
X0059675Y0174950D03*
X0059675Y0175100D03*
X0059675Y0175250D03*
X0059675Y0175400D03*
X0059675Y0175550D03*
X0059675Y0175700D03*
X0059675Y0175850D03*
X0059675Y0176000D03*
X0059675Y0176150D03*
X0059675Y0176300D03*
X0059675Y0176450D03*
X0059675Y0176600D03*
X0059675Y0176750D03*
X0059675Y0176900D03*
X0059675Y0177050D03*
X0059675Y0177200D03*
X0059675Y0177350D03*
X0059675Y0177500D03*
X0059675Y0177650D03*
X0059675Y0177800D03*
X0059675Y0177950D03*
X0059675Y0178100D03*
X0059675Y0178250D03*
X0059675Y0178400D03*
X0059675Y0178550D03*
X0059675Y0178700D03*
X0059675Y0178850D03*
X0059675Y0179000D03*
X0059675Y0179150D03*
X0059675Y0179300D03*
X0059675Y0179450D03*
X0059675Y0179600D03*
X0059675Y0179750D03*
X0059675Y0179900D03*
X0059675Y0180050D03*
X0059675Y0180200D03*
X0059675Y0180350D03*
X0059675Y0180500D03*
X0059675Y0180650D03*
X0059675Y0180800D03*
X0059675Y0180950D03*
X0059675Y0181100D03*
X0059675Y0181250D03*
X0059675Y0181400D03*
X0059675Y0186050D03*
X0053075Y0180650D03*
X0053075Y0179900D03*
X0053075Y0179750D03*
X0065975Y0171500D03*
X0071075Y0175550D03*
X0071075Y0175700D03*
X0071075Y0175850D03*
X0071075Y0176000D03*
X0071075Y0176150D03*
X0071075Y0176300D03*
X0071075Y0176450D03*
X0071075Y0176600D03*
X0071075Y0176750D03*
X0071075Y0176900D03*
X0071075Y0177050D03*
X0071075Y0177200D03*
X0071075Y0177350D03*
X0071075Y0177500D03*
X0071075Y0177650D03*
X0071075Y0177800D03*
X0071075Y0177950D03*
X0071075Y0178100D03*
X0071075Y0178250D03*
X0071075Y0178400D03*
X0071075Y0178550D03*
X0071075Y0178700D03*
X0071075Y0178850D03*
X0071075Y0179000D03*
X0071075Y0179150D03*
X0071075Y0179300D03*
X0071075Y0179450D03*
X0071075Y0179600D03*
X0071075Y0179750D03*
X0071075Y0179900D03*
X0071075Y0180050D03*
X0071075Y0180200D03*
X0071075Y0180350D03*
X0071075Y0180500D03*
X0071075Y0180650D03*
X0071075Y0180800D03*
X0071075Y0180950D03*
X0071075Y0181100D03*
X0071075Y0181250D03*
X0071075Y0181400D03*
X0071075Y0181550D03*
X0071075Y0181700D03*
X0071075Y0181850D03*
X0071075Y0182000D03*
X0071075Y0182150D03*
X0071075Y0182300D03*
X0071075Y0182450D03*
X0071075Y0182600D03*
X0071075Y0182750D03*
X0071075Y0182900D03*
X0071075Y0183050D03*
X0071075Y0183200D03*
X0071075Y0183350D03*
X0071075Y0183500D03*
X0071075Y0183650D03*
X0081875Y0179300D03*
X0081875Y0179150D03*
X0081875Y0179000D03*
X0081725Y0178850D03*
X0081725Y0178700D03*
X0081725Y0178550D03*
X0081575Y0178400D03*
X0081575Y0178250D03*
X0081425Y0177950D03*
X0081425Y0177800D03*
X0081275Y0177500D03*
X0081275Y0177350D03*
X0082025Y0179450D03*
X0082025Y0179600D03*
X0082175Y0179900D03*
X0082175Y0180050D03*
X0085175Y0179900D03*
X0085325Y0179600D03*
X0085325Y0179450D03*
X0085475Y0179150D03*
X0085625Y0178700D03*
X0085775Y0178400D03*
X0085775Y0178250D03*
X0085925Y0177950D03*
X0085925Y0177800D03*
X0086075Y0177500D03*
X0086075Y0177350D03*
X0087125Y0174500D03*
X0087275Y0174050D03*
X0087425Y0173750D03*
X0087425Y0173600D03*
X0087575Y0173300D03*
X0091025Y0175550D03*
X0091025Y0175700D03*
X0091025Y0175850D03*
X0091025Y0176000D03*
X0091025Y0176150D03*
X0091025Y0176300D03*
X0091025Y0176450D03*
X0091025Y0176600D03*
X0091025Y0176750D03*
X0091025Y0176900D03*
X0091025Y0177050D03*
X0091025Y0177200D03*
X0091025Y0177350D03*
X0091025Y0177500D03*
X0091025Y0177650D03*
X0091025Y0177800D03*
X0091025Y0177950D03*
X0091025Y0178100D03*
X0091025Y0178250D03*
X0091025Y0178400D03*
X0091025Y0178550D03*
X0091025Y0178700D03*
X0091025Y0178850D03*
X0091025Y0179000D03*
X0091025Y0179150D03*
X0091025Y0179300D03*
X0091025Y0179450D03*
X0091025Y0179600D03*
X0091025Y0179750D03*
X0091025Y0179900D03*
X0091025Y0180050D03*
X0091025Y0180200D03*
X0091025Y0180350D03*
X0091025Y0180500D03*
X0091025Y0180650D03*
X0091025Y0180800D03*
X0091025Y0180950D03*
X0091025Y0181100D03*
X0091025Y0181250D03*
X0091025Y0181400D03*
X0097325Y0181100D03*
X0097325Y0180950D03*
X0097325Y0180800D03*
X0097325Y0180650D03*
X0097325Y0180500D03*
X0097325Y0180350D03*
X0097475Y0176900D03*
X0101225Y0176750D03*
X0101225Y0176600D03*
X0101225Y0176450D03*
X0101375Y0181100D03*
X0104225Y0184100D03*
X0107075Y0181100D03*
X0107375Y0176300D03*
X0107375Y0176150D03*
X0110675Y0171500D03*
X0083675Y0183800D03*
X0080225Y0174500D03*
X0079775Y0173300D03*
X0073325Y0170300D03*
X0073325Y0166550D03*
D15*
X0073250Y0166700D03*
X0073250Y0170150D03*
X0083600Y0183350D03*
X0097100Y0181400D03*
X0101600Y0180500D03*
X0107150Y0176900D03*
X0107000Y0175400D03*
X0104450Y0173000D03*
X0101450Y0175700D03*
X0097400Y0175700D03*
X0059750Y0189650D03*
X0052850Y0181250D03*
X0052850Y0179300D03*
X0051050Y0176600D03*
X0051050Y0176450D03*
X0051200Y0176300D03*
X0051350Y0176000D03*
X0051500Y0175850D03*
X0051650Y0175550D03*
X0051800Y0175400D03*
X0052100Y0174950D03*
X0052400Y0174500D03*
X0052700Y0174050D03*
X0053000Y0173600D03*
X0053000Y0173450D03*
X0042650Y0181400D03*
X0042500Y0181550D03*
X0037100Y0175700D03*
D16*
X0037400Y0175400D03*
X0039950Y0183950D03*
X0052700Y0181400D03*
X0059750Y0189500D03*
X0073250Y0170000D03*
X0073250Y0166850D03*
X0083600Y0182900D03*
X0101750Y0175400D03*
X0106850Y0177050D03*
D17*
X0101825Y0180200D03*
X0101825Y0181850D03*
X0095825Y0178700D03*
X0097025Y0175550D03*
X0083675Y0182600D03*
X0083675Y0182750D03*
X0073325Y0169850D03*
X0073325Y0167000D03*
X0059675Y0186500D03*
X0051275Y0177350D03*
X0042275Y0181700D03*
D18*
X0039875Y0173150D03*
X0051425Y0177650D03*
X0059675Y0186650D03*
X0059675Y0189200D03*
X0073325Y0169700D03*
X0073325Y0167150D03*
X0083675Y0182300D03*
X0106625Y0177200D03*
D19*
X0102050Y0180050D03*
X0096050Y0179150D03*
X0096050Y0179000D03*
X0096050Y0178400D03*
X0083600Y0182150D03*
X0073250Y0169550D03*
X0073250Y0167300D03*
X0059750Y0186800D03*
X0059750Y0189050D03*
X0051500Y0177800D03*
D20*
X0051575Y0177950D03*
X0059675Y0186950D03*
X0059675Y0188900D03*
X0039875Y0183800D03*
X0073325Y0169400D03*
X0073325Y0167450D03*
X0083675Y0181850D03*
X0083675Y0182000D03*
X0096125Y0179300D03*
X0096425Y0179750D03*
X0096125Y0178250D03*
X0104375Y0173150D03*
D21*
X0047225Y0167600D03*
D22*
X0032750Y0184250D03*
X0060950Y0187100D03*
X0066500Y0184100D03*
X0072050Y0169250D03*
X0072050Y0167600D03*
X0111050Y0172100D03*
D23*
X0091175Y0168200D03*
X0091025Y0168050D03*
X0090575Y0167600D03*
D24*
X0047375Y0167750D03*
D25*
X0032600Y0169400D03*
X0032600Y0169550D03*
X0032600Y0169700D03*
X0032600Y0169850D03*
X0032600Y0170000D03*
X0032600Y0170150D03*
X0032600Y0170300D03*
X0032600Y0170450D03*
X0032600Y0170600D03*
X0032600Y0170750D03*
X0032600Y0170900D03*
X0032600Y0171050D03*
X0032600Y0171200D03*
X0032600Y0171350D03*
X0032600Y0171500D03*
X0032600Y0171650D03*
X0032600Y0171800D03*
X0032600Y0171950D03*
X0032600Y0172100D03*
X0032600Y0172250D03*
X0032600Y0172400D03*
X0032600Y0172550D03*
X0032600Y0172700D03*
X0032600Y0172850D03*
X0032600Y0173000D03*
X0032600Y0173150D03*
X0032600Y0173300D03*
X0032600Y0173450D03*
X0032600Y0173600D03*
X0032600Y0173750D03*
X0032600Y0173900D03*
X0032600Y0174050D03*
X0032600Y0174200D03*
X0032600Y0174350D03*
X0032600Y0174500D03*
X0032600Y0174650D03*
X0032600Y0174800D03*
X0032600Y0174950D03*
X0032600Y0175100D03*
X0032600Y0175250D03*
X0032600Y0175400D03*
X0032600Y0175550D03*
X0032600Y0175700D03*
X0032600Y0175850D03*
X0032600Y0176000D03*
X0032600Y0176150D03*
X0032600Y0176300D03*
X0032600Y0176450D03*
X0032600Y0176600D03*
X0032600Y0176750D03*
X0032600Y0176900D03*
X0032600Y0177050D03*
X0032600Y0177200D03*
X0032600Y0177350D03*
X0032600Y0177500D03*
X0032600Y0177650D03*
X0032600Y0177800D03*
X0032600Y0177950D03*
X0032600Y0178100D03*
X0032600Y0178250D03*
X0032600Y0178400D03*
X0032600Y0178550D03*
X0032600Y0178700D03*
X0032600Y0178850D03*
X0032600Y0179000D03*
X0032600Y0179150D03*
X0032600Y0179300D03*
X0032600Y0179450D03*
X0032600Y0179600D03*
X0032600Y0179750D03*
X0032600Y0179900D03*
X0032600Y0180050D03*
X0032600Y0180200D03*
X0032600Y0180350D03*
X0032600Y0180500D03*
X0032600Y0180650D03*
X0032600Y0180800D03*
X0032600Y0180950D03*
X0032600Y0181100D03*
X0032600Y0181250D03*
X0032600Y0181400D03*
X0032600Y0181550D03*
X0032600Y0181700D03*
X0032600Y0181850D03*
X0032600Y0182000D03*
X0032600Y0182150D03*
X0032600Y0182300D03*
X0032600Y0182450D03*
X0032600Y0182600D03*
X0032600Y0182750D03*
X0032600Y0182900D03*
X0032600Y0183050D03*
X0032600Y0183200D03*
X0032600Y0183350D03*
X0032600Y0183500D03*
X0032600Y0183650D03*
X0032600Y0183800D03*
X0032600Y0183950D03*
X0061100Y0187250D03*
X0061100Y0188600D03*
X0071900Y0169100D03*
X0071900Y0167750D03*
D26*
X0090800Y0167750D03*
X0090950Y0167900D03*
D27*
X0047450Y0167900D03*
D28*
X0047525Y0168050D03*
D29*
X0059750Y0185750D03*
X0061250Y0187550D03*
X0061250Y0187700D03*
X0061250Y0188300D03*
X0071750Y0168800D03*
X0071750Y0168650D03*
X0071750Y0168500D03*
X0071750Y0168350D03*
X0071750Y0168200D03*
X0071750Y0168050D03*
D30*
X0047600Y0168200D03*
D31*
X0047675Y0168350D03*
D32*
X0091325Y0168350D03*
D33*
X0047825Y0168500D03*
D34*
X0091400Y0168500D03*
D35*
X0047900Y0168650D03*
D36*
X0091475Y0168650D03*
D37*
X0047975Y0168800D03*
D38*
X0091475Y0168800D03*
D39*
X0048050Y0168950D03*
D40*
X0091550Y0168950D03*
D41*
X0048125Y0169100D03*
D42*
X0091625Y0169100D03*
D43*
X0048275Y0169250D03*
D44*
X0091550Y0169250D03*
D45*
X0087500Y0173450D03*
X0087350Y0173900D03*
X0087200Y0174200D03*
X0087200Y0174350D03*
X0087050Y0174650D03*
X0087050Y0174800D03*
X0081350Y0177650D03*
X0081500Y0178100D03*
X0080300Y0174800D03*
X0080300Y0174650D03*
X0080150Y0174350D03*
X0080150Y0174200D03*
X0080000Y0174050D03*
X0080000Y0173900D03*
X0080000Y0173750D03*
X0079850Y0173600D03*
X0079850Y0173450D03*
X0083600Y0183650D03*
X0097250Y0181250D03*
X0097250Y0180200D03*
X0097100Y0180050D03*
X0097400Y0177050D03*
X0097550Y0176750D03*
X0097550Y0176600D03*
X0097550Y0176450D03*
X0097550Y0176300D03*
X0097550Y0176150D03*
X0097550Y0176000D03*
X0101300Y0176000D03*
X0101300Y0176150D03*
X0101300Y0176300D03*
X0101450Y0180800D03*
X0101450Y0180950D03*
X0101450Y0181250D03*
X0101450Y0181400D03*
X0107000Y0181400D03*
X0107000Y0181250D03*
X0107300Y0176600D03*
X0107300Y0176450D03*
X0107300Y0176000D03*
X0107300Y0175850D03*
X0110600Y0171350D03*
X0110150Y0171050D03*
X0110000Y0170900D03*
X0109850Y0170750D03*
X0109700Y0170600D03*
X0109400Y0170450D03*
X0109250Y0170300D03*
X0109100Y0170150D03*
X0108950Y0170000D03*
X0108800Y0169850D03*
X0108500Y0169700D03*
X0108350Y0169550D03*
X0108200Y0169400D03*
X0069350Y0186950D03*
X0069200Y0186800D03*
X0069050Y0186650D03*
X0068900Y0186500D03*
X0068450Y0186200D03*
X0068300Y0186050D03*
X0068150Y0185900D03*
X0068000Y0185750D03*
X0067550Y0185450D03*
X0067400Y0185300D03*
X0067250Y0185150D03*
X0067100Y0185000D03*
X0066950Y0184850D03*
X0059750Y0189800D03*
X0053000Y0180950D03*
X0053000Y0180800D03*
X0053150Y0180500D03*
X0053150Y0180350D03*
X0053150Y0180200D03*
X0053150Y0180050D03*
X0053000Y0179600D03*
X0050900Y0176900D03*
X0042800Y0176000D03*
X0042800Y0175850D03*
X0042800Y0181100D03*
X0036950Y0180950D03*
X0036950Y0176150D03*
X0036950Y0176000D03*
X0033200Y0185000D03*
X0033350Y0185150D03*
X0033500Y0185300D03*
X0033800Y0185450D03*
X0033950Y0185600D03*
X0034100Y0185750D03*
X0034250Y0185900D03*
X0034400Y0186050D03*
X0034700Y0186200D03*
X0034850Y0186350D03*
X0035000Y0186500D03*
X0035150Y0186650D03*
X0035600Y0186950D03*
X0063500Y0169400D03*
X0063650Y0169550D03*
X0063800Y0169700D03*
X0064250Y0170000D03*
X0064400Y0170150D03*
X0064550Y0170300D03*
X0064700Y0170450D03*
X0065150Y0170750D03*
X0065300Y0170900D03*
X0065450Y0171050D03*
X0065600Y0171200D03*
D46*
X0065825Y0171350D03*
X0064925Y0170600D03*
X0064025Y0169850D03*
X0053075Y0173300D03*
X0050975Y0176750D03*
X0050975Y0177050D03*
X0052925Y0179450D03*
X0052925Y0181100D03*
X0059675Y0186200D03*
X0067775Y0185600D03*
X0068675Y0186350D03*
X0083675Y0183500D03*
X0097025Y0179900D03*
X0097325Y0177200D03*
X0097475Y0175850D03*
X0101375Y0175850D03*
X0101525Y0180650D03*
X0101525Y0181550D03*
X0106925Y0181550D03*
X0107225Y0176750D03*
X0107225Y0175700D03*
X0107075Y0175550D03*
X0110375Y0171200D03*
X0042725Y0175700D03*
X0042575Y0175550D03*
X0039875Y0173000D03*
X0037025Y0175850D03*
X0037025Y0181100D03*
X0037025Y0181250D03*
X0035375Y0186800D03*
X0042725Y0181250D03*
D47*
X0042950Y0180800D03*
X0042950Y0180650D03*
X0042950Y0176750D03*
X0033050Y0184700D03*
X0066050Y0171650D03*
X0066800Y0184700D03*
X0071150Y0183800D03*
X0082250Y0180200D03*
X0082100Y0179750D03*
X0085100Y0180050D03*
X0085100Y0180200D03*
X0085250Y0179750D03*
X0085400Y0179300D03*
X0085550Y0179000D03*
X0085550Y0178850D03*
X0085700Y0178550D03*
X0085850Y0178100D03*
X0086000Y0177650D03*
X0107150Y0180800D03*
X0107150Y0180950D03*
X0110750Y0171650D03*
D48*
X0110825Y0171800D03*
X0107225Y0180650D03*
X0087575Y0173150D03*
X0079775Y0173150D03*
X0066725Y0184550D03*
X0059675Y0189950D03*
X0059675Y0173150D03*
X0066125Y0171800D03*
X0046925Y0173150D03*
D49*
X0042875Y0180500D03*
X0039875Y0184100D03*
X0032825Y0184400D03*
X0059675Y0185900D03*
X0066575Y0184250D03*
X0066275Y0172100D03*
X0083675Y0183950D03*
X0101225Y0176900D03*
D50*
X0111125Y0176900D03*
X0111125Y0177050D03*
X0111125Y0177200D03*
X0111125Y0177350D03*
X0111125Y0177500D03*
X0111125Y0177650D03*
X0111125Y0177800D03*
X0111125Y0177950D03*
X0111125Y0178100D03*
X0111125Y0178250D03*
X0111125Y0178400D03*
X0111125Y0178550D03*
X0111125Y0178700D03*
X0111125Y0178850D03*
X0111125Y0179000D03*
X0111125Y0179150D03*
X0111125Y0179300D03*
X0111125Y0179450D03*
X0111125Y0179600D03*
X0111125Y0179750D03*
X0111125Y0179900D03*
X0111125Y0180050D03*
X0111125Y0180200D03*
X0111125Y0180350D03*
X0111125Y0180500D03*
X0111125Y0180650D03*
X0111125Y0180800D03*
X0111125Y0180950D03*
X0111125Y0181100D03*
X0111125Y0181250D03*
X0111125Y0181400D03*
X0111125Y0181550D03*
X0111125Y0181700D03*
X0111125Y0181850D03*
X0111125Y0182000D03*
X0111125Y0182150D03*
X0111125Y0182300D03*
X0111125Y0182450D03*
X0111125Y0182600D03*
X0111125Y0182750D03*
X0111125Y0182900D03*
X0111125Y0183050D03*
X0111125Y0183200D03*
X0111125Y0183350D03*
X0111125Y0183500D03*
X0111125Y0183650D03*
X0111125Y0183800D03*
X0111125Y0183950D03*
X0111125Y0184100D03*
X0111125Y0184250D03*
X0111125Y0184400D03*
X0111125Y0184550D03*
X0111125Y0184700D03*
X0111125Y0184850D03*
X0111125Y0185000D03*
X0111125Y0185150D03*
X0111125Y0185300D03*
X0111125Y0185450D03*
X0111125Y0185600D03*
X0111125Y0185750D03*
X0111125Y0185900D03*
X0111125Y0186050D03*
X0111125Y0186200D03*
X0111125Y0186350D03*
X0111125Y0186500D03*
X0111125Y0186650D03*
X0111125Y0186800D03*
X0111125Y0186950D03*
X0111125Y0176750D03*
X0111125Y0176600D03*
X0111125Y0176450D03*
X0111125Y0176300D03*
X0111125Y0176150D03*
X0111125Y0176000D03*
X0111125Y0175850D03*
X0111125Y0175700D03*
X0111125Y0175550D03*
X0111125Y0175400D03*
X0111125Y0175250D03*
X0111125Y0175100D03*
X0111125Y0174950D03*
X0111125Y0174800D03*
X0111125Y0174650D03*
X0111125Y0174500D03*
X0111125Y0174350D03*
X0111125Y0174200D03*
X0111125Y0174050D03*
X0111125Y0173900D03*
X0111125Y0173750D03*
X0111125Y0173600D03*
X0111125Y0173450D03*
X0111125Y0173300D03*
X0111125Y0173150D03*
X0111125Y0173000D03*
X0111125Y0172850D03*
X0111125Y0172700D03*
X0111125Y0172550D03*
X0111125Y0172400D03*
X0111125Y0172250D03*
X0066425Y0172250D03*
X0066425Y0172400D03*
X0066425Y0172550D03*
X0066425Y0172700D03*
X0066425Y0172850D03*
X0066425Y0173000D03*
X0066425Y0173150D03*
X0066425Y0173300D03*
X0066425Y0173450D03*
X0066425Y0173600D03*
X0066425Y0173750D03*
X0066425Y0173900D03*
X0066425Y0174050D03*
X0066425Y0174200D03*
X0066425Y0174350D03*
X0066425Y0174500D03*
X0066425Y0174650D03*
X0066425Y0174800D03*
X0066425Y0174950D03*
X0066425Y0175100D03*
X0066425Y0175250D03*
X0066425Y0175400D03*
X0066425Y0175550D03*
X0066425Y0175700D03*
X0066425Y0175850D03*
X0066425Y0176000D03*
X0066425Y0176150D03*
X0066425Y0176300D03*
X0066425Y0176450D03*
X0066425Y0176600D03*
X0066425Y0176750D03*
X0066425Y0176900D03*
X0066425Y0177050D03*
X0066425Y0177200D03*
X0066425Y0177350D03*
X0066425Y0177500D03*
X0066425Y0177650D03*
X0066425Y0177800D03*
X0066425Y0177950D03*
X0066425Y0178100D03*
X0066425Y0178250D03*
X0066425Y0178400D03*
X0066425Y0178550D03*
X0066425Y0178700D03*
X0066425Y0178850D03*
X0066425Y0179000D03*
X0066425Y0179150D03*
X0066425Y0179300D03*
X0066425Y0179450D03*
X0066425Y0179600D03*
X0066425Y0179750D03*
X0066425Y0179900D03*
X0066425Y0180050D03*
X0066425Y0180200D03*
X0066425Y0180350D03*
X0066425Y0180500D03*
X0066425Y0180650D03*
X0066425Y0180800D03*
X0066425Y0180950D03*
X0066425Y0181100D03*
X0066425Y0181250D03*
X0066425Y0181400D03*
X0066425Y0181550D03*
X0066425Y0181700D03*
X0066425Y0181850D03*
X0066425Y0182000D03*
X0066425Y0182150D03*
X0066425Y0182300D03*
X0066425Y0182450D03*
X0066425Y0182600D03*
X0066425Y0182750D03*
X0066425Y0182900D03*
X0066425Y0183050D03*
X0066425Y0183200D03*
X0066425Y0183350D03*
X0066425Y0183500D03*
X0066425Y0183650D03*
X0066425Y0183800D03*
X0066425Y0183950D03*
X0061025Y0188750D03*
X0059675Y0190100D03*
X0032675Y0184100D03*
D51*
X0039875Y0172850D03*
D52*
X0039875Y0174500D03*
X0039875Y0182600D03*
X0049325Y0183350D03*
X0073625Y0173150D03*
X0093425Y0173450D03*
X0093425Y0183500D03*
X0104225Y0182750D03*
X0104225Y0182600D03*
D53*
X0103625Y0179150D03*
X0104375Y0173750D03*
X0092975Y0173150D03*
X0039875Y0173900D03*
X0039875Y0183200D03*
D54*
X0051725Y0178400D03*
X0039875Y0173300D03*
X0083675Y0181400D03*
X0083675Y0181550D03*
X0096275Y0177950D03*
X0096275Y0177800D03*
X0096425Y0177500D03*
X0104225Y0183800D03*
X0106325Y0177350D03*
D55*
X0104375Y0174500D03*
X0104225Y0182300D03*
X0104225Y0182450D03*
X0093575Y0173600D03*
X0083675Y0176900D03*
X0083675Y0177050D03*
X0083675Y0177200D03*
X0073625Y0175400D03*
X0073625Y0175250D03*
X0073625Y0175100D03*
X0073625Y0174950D03*
X0073625Y0174800D03*
X0073625Y0174650D03*
X0073625Y0174500D03*
X0073625Y0174350D03*
X0073625Y0174200D03*
X0073625Y0174050D03*
X0073625Y0173900D03*
X0073625Y0173750D03*
X0073625Y0173600D03*
X0073625Y0173450D03*
X0073625Y0173300D03*
X0049475Y0183050D03*
X0039875Y0182450D03*
X0039875Y0182300D03*
X0039875Y0174650D03*
D56*
X0039800Y0174200D03*
X0093200Y0173300D03*
X0104300Y0174050D03*
X0093200Y0183650D03*
D57*
X0102575Y0179750D03*
X0104375Y0173300D03*
X0083675Y0180950D03*
X0083675Y0181100D03*
D58*
X0083675Y0180800D03*
X0083675Y0180650D03*
X0104225Y0183650D03*
X0106025Y0177500D03*
X0039875Y0173450D03*
D59*
X0039875Y0183500D03*
X0083675Y0180350D03*
X0092675Y0183950D03*
X0102875Y0179600D03*
X0105725Y0177650D03*
X0104375Y0173450D03*
D60*
X0103175Y0179450D03*
X0104225Y0183500D03*
X0039875Y0173600D03*
D61*
X0039875Y0173750D03*
X0103325Y0179300D03*
X0104225Y0183350D03*
X0104375Y0173600D03*
D62*
X0101525Y0175550D03*
X0097175Y0177350D03*
X0101675Y0180350D03*
X0101675Y0181700D03*
X0106775Y0181700D03*
X0083675Y0183050D03*
X0083675Y0183200D03*
X0059675Y0186350D03*
X0052625Y0179150D03*
X0051125Y0177200D03*
X0051275Y0176150D03*
X0051575Y0175700D03*
X0051875Y0175250D03*
X0052025Y0175100D03*
X0052175Y0174800D03*
X0052325Y0174650D03*
X0052475Y0174350D03*
X0052625Y0174200D03*
X0052775Y0173900D03*
X0052925Y0173750D03*
X0042425Y0175400D03*
X0037175Y0175550D03*
X0037175Y0181400D03*
X0037325Y0181550D03*
D63*
X0039800Y0174800D03*
X0049550Y0182900D03*
X0093650Y0183200D03*
X0093650Y0173750D03*
X0104300Y0174650D03*
D64*
X0104300Y0174800D03*
X0104300Y0174950D03*
X0093800Y0173900D03*
X0093800Y0182900D03*
X0083600Y0176450D03*
X0059750Y0181550D03*
X0049700Y0182600D03*
X0039800Y0175100D03*
D65*
X0039875Y0182900D03*
X0049025Y0183650D03*
X0104225Y0183050D03*
X0104375Y0173900D03*
D66*
X0104600Y0178400D03*
X0104450Y0178550D03*
X0039800Y0174050D03*
D67*
X0039875Y0175250D03*
X0039875Y0181850D03*
X0049775Y0182300D03*
X0049775Y0182450D03*
X0083675Y0176300D03*
X0083675Y0176150D03*
X0093875Y0174050D03*
X0093875Y0182750D03*
D68*
X0093950Y0182600D03*
X0093950Y0182450D03*
X0093950Y0174200D03*
X0104300Y0175100D03*
X0104300Y0175250D03*
X0059750Y0181700D03*
X0059750Y0183650D03*
X0059750Y0183800D03*
X0049850Y0182150D03*
X0049850Y0182000D03*
D69*
X0104300Y0174200D03*
D70*
X0104225Y0182900D03*
X0049175Y0183500D03*
X0039875Y0182750D03*
X0039875Y0174350D03*
D71*
X0049925Y0181550D03*
X0049925Y0181700D03*
X0049925Y0181850D03*
X0059675Y0181850D03*
X0059675Y0182000D03*
X0059675Y0182150D03*
X0059675Y0182300D03*
X0059675Y0182450D03*
X0059675Y0182600D03*
X0059675Y0182750D03*
X0059675Y0182900D03*
X0059675Y0183050D03*
X0059675Y0183200D03*
X0059675Y0183350D03*
X0059675Y0183500D03*
X0083675Y0176000D03*
X0083675Y0175850D03*
X0083675Y0175700D03*
X0094025Y0174350D03*
X0094025Y0182150D03*
X0094025Y0182300D03*
D72*
X0093500Y0183350D03*
X0104300Y0174350D03*
X0049400Y0183200D03*
D73*
X0094100Y0182000D03*
X0094100Y0181850D03*
X0094100Y0181700D03*
X0094100Y0174650D03*
X0094100Y0174500D03*
D74*
X0094175Y0174800D03*
X0094175Y0174950D03*
X0094175Y0181550D03*
X0083675Y0175550D03*
X0083675Y0175400D03*
D75*
X0083675Y0176600D03*
X0083675Y0176750D03*
X0093725Y0183050D03*
X0104225Y0182150D03*
X0104225Y0182000D03*
X0049625Y0182750D03*
X0039875Y0182150D03*
X0039875Y0182000D03*
X0039875Y0174950D03*
D76*
X0083675Y0174950D03*
X0083675Y0175100D03*
D77*
X0083600Y0175250D03*
X0094250Y0175250D03*
X0094250Y0175400D03*
X0094250Y0175100D03*
D78*
X0095900Y0178550D03*
X0095900Y0178850D03*
X0104150Y0183950D03*
X0106550Y0181850D03*
X0083600Y0182450D03*
X0059750Y0189350D03*
X0052400Y0179000D03*
X0051350Y0177500D03*
X0037550Y0181700D03*
D79*
X0051800Y0178700D03*
X0051800Y0178550D03*
X0051950Y0178850D03*
X0083600Y0181250D03*
X0096350Y0177650D03*
D80*
X0105500Y0177800D03*
X0039950Y0183350D03*
D81*
X0048800Y0183800D03*
X0105200Y0177950D03*
D82*
X0102350Y0179900D03*
X0096200Y0179600D03*
X0096200Y0179450D03*
X0096200Y0178100D03*
X0083600Y0181700D03*
X0051650Y0178250D03*
X0051650Y0178100D03*
D83*
X0103850Y0179000D03*
X0105050Y0178100D03*
D84*
X0104825Y0178250D03*
X0104225Y0178700D03*
X0104075Y0178850D03*
X0104225Y0183200D03*
X0092975Y0183800D03*
X0039875Y0183050D03*
D85*
X0083600Y0180500D03*
D86*
X0039950Y0183650D03*
D87*
X0046850Y0187100D03*
D88*
X0090050Y0187100D03*
D89*
X0046850Y0187250D03*
D90*
X0090200Y0187250D03*
D91*
X0046850Y0187400D03*
D92*
X0090275Y0187400D03*
D93*
X0046850Y0187550D03*
D94*
X0090350Y0187550D03*
D95*
X0046925Y0187700D03*
D96*
X0090425Y0187700D03*
D97*
X0047000Y0187850D03*
D98*
X0090575Y0187850D03*
D99*
X0047075Y0188000D03*
D100*
X0090650Y0188000D03*
D101*
X0047300Y0188300D03*
X0047150Y0188150D03*
D102*
X0090725Y0188150D03*
D103*
X0090800Y0188300D03*
D104*
X0047750Y0188750D03*
X0047600Y0188600D03*
X0047450Y0188450D03*
D105*
X0090875Y0188450D03*
D106*
X0091025Y0188600D03*
D107*
X0091100Y0188750D03*
D108*
X0101914Y0146004D02*
X0103449Y0146004D01*
X0104216Y0145237D01*
X0101147Y0142167D01*
X0101914Y0141400D01*
X0103449Y0141400D01*
X0104216Y0142167D01*
X0104216Y0145237D01*
X0101914Y0146004D02*
X0101147Y0145237D01*
X0101147Y0142167D01*
X0099612Y0144469D02*
X0098078Y0141400D01*
X0096543Y0144469D01*
X0105751Y0142167D02*
X0106518Y0142167D01*
X0106518Y0141400D01*
X0105751Y0141400D01*
X0105751Y0142167D01*
X0108053Y0141400D02*
X0111122Y0141400D01*
X0109588Y0141400D02*
X0109588Y0146004D01*
X0108053Y0144469D01*
X0200541Y0014604D02*
X0201308Y0014604D01*
X0201308Y0010000D01*
X0200541Y0010000D02*
X0202076Y0010000D01*
X0203610Y0010767D02*
X0204378Y0011535D01*
X0206680Y0011535D01*
X0206680Y0012302D02*
X0206680Y0010000D01*
X0204378Y0010000D01*
X0203610Y0010767D01*
X0204378Y0013069D02*
X0205912Y0013069D01*
X0206680Y0012302D01*
X0208214Y0013069D02*
X0210516Y0013069D01*
X0211284Y0012302D01*
X0211284Y0010767D01*
X0210516Y0010000D01*
X0208214Y0010000D01*
X0208214Y0014604D01*
X0212818Y0012302D02*
X0213586Y0011535D01*
X0215120Y0011535D01*
X0215888Y0010767D01*
X0215120Y0010000D01*
X0212818Y0010000D01*
X0212818Y0012302D02*
X0213586Y0013069D01*
X0215888Y0013069D01*
X0217422Y0010767D02*
X0218189Y0010767D01*
X0218189Y0010000D01*
X0217422Y0010000D01*
X0217422Y0010767D01*
X0219724Y0010767D02*
X0219724Y0012302D01*
X0220491Y0013069D01*
X0222026Y0013069D01*
X0222793Y0012302D01*
X0222793Y0010767D01*
X0222026Y0010000D01*
X0220491Y0010000D01*
X0219724Y0010767D01*
X0224328Y0010000D02*
X0224328Y0013069D01*
X0224328Y0011535D02*
X0225863Y0013069D01*
X0226630Y0013069D01*
X0228165Y0012302D02*
X0228165Y0010767D01*
X0228932Y0010000D01*
X0231234Y0010000D01*
X0231234Y0009233D02*
X0231234Y0013069D01*
X0228932Y0013069D01*
X0228165Y0012302D01*
X0229699Y0008465D02*
X0230467Y0008465D01*
X0231234Y0009233D01*
X0199006Y0010000D02*
X0198239Y0010767D01*
X0198239Y0013837D01*
X0197472Y0013069D02*
X0199006Y0013069D01*
X0195937Y0013069D02*
X0195170Y0013069D01*
X0193635Y0011535D01*
X0193635Y0013069D02*
X0193635Y0010000D01*
X0192101Y0010000D02*
X0189799Y0010000D01*
X0189031Y0010767D01*
X0189031Y0012302D01*
X0189799Y0013069D01*
X0192101Y0013069D01*
D109*
X0102800Y0150000D03*
X0101600Y0152800D03*
X0101200Y0152800D03*
X0100800Y0152800D03*
X0100400Y0152800D03*
X0100000Y0152800D03*
X0099600Y0152800D03*
X0099200Y0152800D03*
X0098800Y0152800D03*
X0098400Y0152800D03*
X0091800Y0157400D03*
X0091400Y0157400D03*
X0091000Y0157400D03*
X0090600Y0157400D03*
X0090200Y0157400D03*
X0089800Y0157400D03*
X0089400Y0157400D03*
X0089000Y0157400D03*
X0088600Y0157400D03*
X0088200Y0157400D03*
X0078600Y0163000D03*
X0078000Y0163200D03*
X0077000Y0161400D03*
X0076600Y0161400D03*
X0075600Y0163200D03*
X0068800Y0152800D03*
X0068400Y0152800D03*
X0068000Y0152800D03*
X0067600Y0152800D03*
X0067200Y0152800D03*
X0066800Y0152800D03*
X0066400Y0152800D03*
X0066000Y0152800D03*
X0065600Y0152800D03*
X0070000Y0150000D03*
X0075600Y0150000D03*
X0076200Y0151800D03*
X0079600Y0148000D03*
X0080000Y0148000D03*
X0080400Y0148000D03*
X0080800Y0148000D03*
X0081200Y0148000D03*
X0059600Y0150000D03*
X0055400Y0153800D03*
X0054400Y0153600D03*
X0054000Y0153600D03*
X0053600Y0153600D03*
X0053200Y0153600D03*
X0052800Y0153600D03*
X0054400Y0155600D03*
X0054800Y0161200D03*
X0054200Y0161400D03*
X0053800Y0161400D03*
X0053400Y0161400D03*
X0053000Y0161400D03*
X0052600Y0161400D03*
X0055200Y0163200D03*
X0055800Y0163000D03*
X0060000Y0160400D03*
X0060400Y0160400D03*
X0060800Y0160400D03*
X0105000Y0161400D03*
X0105400Y0161400D03*
X0105800Y0161400D03*
X0106200Y0161400D03*
X0106600Y0161400D03*
X0109400Y0161400D03*
X0109800Y0161400D03*
X0110200Y0161400D03*
X0110600Y0161400D03*
X0111000Y0161400D03*
X0111400Y0161400D03*
D110*
X0108100Y0161200D03*
X0108100Y0161000D03*
X0108100Y0160800D03*
X0108100Y0160400D03*
X0108100Y0160000D03*
X0108100Y0159600D03*
X0108100Y0159400D03*
X0108100Y0159200D03*
X0108100Y0158800D03*
X0108100Y0158400D03*
X0108100Y0158000D03*
X0108100Y0157800D03*
X0108100Y0157600D03*
X0108100Y0157200D03*
X0108100Y0156800D03*
X0108100Y0156400D03*
X0108100Y0156200D03*
X0108100Y0156000D03*
X0108100Y0155600D03*
X0108100Y0155200D03*
X0108100Y0154800D03*
X0108100Y0154600D03*
X0108100Y0154400D03*
X0108100Y0154000D03*
X0108100Y0153600D03*
X0108100Y0153200D03*
X0108100Y0153000D03*
X0108100Y0152800D03*
X0108100Y0152400D03*
X0108100Y0152000D03*
X0108100Y0151600D03*
X0108100Y0151400D03*
X0108100Y0151200D03*
X0108100Y0150800D03*
X0108100Y0150400D03*
X0108100Y0150200D03*
X0103700Y0150400D03*
X0103500Y0151400D03*
X0103300Y0151800D03*
X0102700Y0155000D03*
X0102500Y0155400D03*
X0102500Y0156000D03*
X0102100Y0157400D03*
X0102100Y0157600D03*
X0101900Y0158600D03*
X0101700Y0159400D03*
X0101700Y0159600D03*
X0101500Y0160000D03*
X0101500Y0160200D03*
X0101500Y0160400D03*
X0101300Y0161200D03*
X0101300Y0161400D03*
X0101300Y0161600D03*
X0101100Y0162200D03*
X0099100Y0162000D03*
X0098900Y0161200D03*
X0098900Y0161000D03*
X0098700Y0160200D03*
X0098500Y0159000D03*
X0098500Y0158800D03*
X0098300Y0158400D03*
X0098300Y0157800D03*
X0098100Y0157400D03*
X0097900Y0156200D03*
X0097700Y0155200D03*
X0097100Y0152600D03*
X0096700Y0150600D03*
X0093300Y0150600D03*
X0093300Y0151000D03*
X0093300Y0151400D03*
X0093300Y0151800D03*
X0093300Y0152200D03*
X0093300Y0152600D03*
X0093300Y0153000D03*
X0093300Y0153400D03*
X0093300Y0153800D03*
X0093300Y0154200D03*
X0093300Y0154600D03*
X0093300Y0155000D03*
X0093300Y0155400D03*
X0093300Y0157800D03*
X0093300Y0158200D03*
X0093300Y0158600D03*
X0093300Y0159000D03*
X0093300Y0159400D03*
X0093300Y0159800D03*
X0093300Y0160200D03*
X0093300Y0160600D03*
X0093300Y0161000D03*
X0093300Y0161400D03*
X0093300Y0161800D03*
X0093300Y0162200D03*
X0093300Y0162600D03*
X0086700Y0162600D03*
X0086700Y0162800D03*
X0086700Y0162400D03*
X0086700Y0162000D03*
X0086700Y0161600D03*
X0086700Y0161200D03*
X0086700Y0161000D03*
X0086700Y0160800D03*
X0086700Y0160400D03*
X0086700Y0160000D03*
X0086700Y0159600D03*
X0086700Y0159400D03*
X0086700Y0159200D03*
X0086700Y0158800D03*
X0086700Y0158400D03*
X0086700Y0158000D03*
X0086700Y0157800D03*
X0086700Y0157600D03*
X0086700Y0155200D03*
X0086700Y0154800D03*
X0086700Y0154600D03*
X0086700Y0154400D03*
X0086700Y0154000D03*
X0086700Y0153600D03*
X0086700Y0153200D03*
X0086700Y0153000D03*
X0086700Y0152800D03*
X0086700Y0152400D03*
X0086700Y0152000D03*
X0086700Y0151600D03*
X0086700Y0151400D03*
X0086700Y0151200D03*
X0086700Y0150800D03*
X0086700Y0150400D03*
X0080300Y0148200D03*
X0079900Y0153800D03*
X0079900Y0154200D03*
X0079900Y0154600D03*
X0079900Y0155000D03*
X0079900Y0155400D03*
X0079900Y0155800D03*
X0079900Y0156200D03*
X0079900Y0156600D03*
X0079900Y0157000D03*
X0079900Y0157400D03*
X0079900Y0157800D03*
X0079900Y0158200D03*
X0079900Y0158600D03*
X0079900Y0159000D03*
X0079900Y0159400D03*
X0079900Y0159800D03*
X0079700Y0160200D03*
X0073900Y0160200D03*
X0073700Y0159800D03*
X0073700Y0159400D03*
X0073700Y0159000D03*
X0073700Y0158600D03*
X0073700Y0158200D03*
X0073700Y0157800D03*
X0073700Y0157400D03*
X0073700Y0157000D03*
X0073700Y0156600D03*
X0073700Y0156200D03*
X0073700Y0155800D03*
X0073700Y0155400D03*
X0073700Y0155000D03*
X0073700Y0154600D03*
X0073700Y0154200D03*
X0073700Y0153800D03*
X0073700Y0153400D03*
X0070500Y0151800D03*
X0070700Y0151400D03*
X0070900Y0150400D03*
X0069900Y0155000D03*
X0069700Y0155400D03*
X0069700Y0156000D03*
X0069300Y0157400D03*
X0069300Y0157600D03*
X0069100Y0158600D03*
X0068900Y0159400D03*
X0068900Y0159600D03*
X0068700Y0160000D03*
X0068700Y0160200D03*
X0068700Y0160400D03*
X0068500Y0161200D03*
X0068500Y0161400D03*
X0068500Y0161600D03*
X0068300Y0162200D03*
X0066300Y0162000D03*
X0066100Y0161200D03*
X0066100Y0161000D03*
X0065900Y0160200D03*
X0065700Y0159000D03*
X0065700Y0158800D03*
X0065500Y0158400D03*
X0065500Y0157800D03*
X0065300Y0157400D03*
X0065100Y0156200D03*
X0064900Y0155200D03*
X0064300Y0152600D03*
X0063900Y0150600D03*
X0060500Y0150600D03*
X0060500Y0150800D03*
X0060500Y0151000D03*
X0060500Y0151200D03*
X0060500Y0151400D03*
X0060500Y0151600D03*
X0060500Y0152000D03*
X0060500Y0152200D03*
X0060500Y0152400D03*
X0060500Y0152600D03*
X0060500Y0152800D03*
X0060500Y0153000D03*
X0060500Y0153200D03*
X0060500Y0153600D03*
X0060500Y0153800D03*
X0060500Y0154000D03*
X0060500Y0154200D03*
X0060500Y0154400D03*
X0060500Y0154600D03*
X0060500Y0154800D03*
X0060500Y0155200D03*
X0060500Y0155400D03*
X0060500Y0155600D03*
X0060500Y0155800D03*
X0060500Y0156000D03*
X0060500Y0156200D03*
X0060500Y0156400D03*
X0060500Y0156800D03*
X0060500Y0157000D03*
X0060500Y0157200D03*
X0060500Y0157400D03*
X0060500Y0157600D03*
X0060500Y0157800D03*
X0060500Y0158000D03*
X0060500Y0158400D03*
X0060500Y0158600D03*
X0060500Y0158800D03*
X0060500Y0159000D03*
X0060500Y0159200D03*
X0060500Y0159400D03*
X0060500Y0159600D03*
X0060500Y0159800D03*
X0060500Y0160000D03*
X0060500Y0162200D03*
X0060500Y0163600D03*
X0057300Y0159600D03*
X0057300Y0159200D03*
X0057300Y0158800D03*
X0057300Y0158400D03*
X0057300Y0158000D03*
X0057300Y0157600D03*
X0057100Y0156600D03*
X0051300Y0156600D03*
X0051300Y0157000D03*
X0051300Y0157400D03*
X0051300Y0157800D03*
X0051300Y0158200D03*
X0051300Y0158600D03*
X0051300Y0159000D03*
X0051300Y0159400D03*
X0051300Y0159800D03*
X0051300Y0160200D03*
X0051300Y0160600D03*
X0051300Y0161000D03*
X0051300Y0161400D03*
X0051300Y0156200D03*
X0051300Y0155800D03*
X0051300Y0153400D03*
X0051300Y0153000D03*
X0051300Y0152600D03*
X0051300Y0152200D03*
X0051300Y0151800D03*
X0051300Y0151400D03*
X0051300Y0151000D03*
X0051300Y0150600D03*
X0060500Y0150400D03*
D111*
X0060400Y0151800D03*
X0060400Y0153400D03*
X0060400Y0155000D03*
X0060400Y0156600D03*
X0060400Y0158200D03*
X0057200Y0158200D03*
X0057200Y0158600D03*
X0057200Y0159000D03*
X0057200Y0159400D03*
X0057200Y0159800D03*
X0057200Y0160000D03*
X0057200Y0160200D03*
X0057000Y0160400D03*
X0057200Y0157800D03*
X0057200Y0157400D03*
X0057200Y0157200D03*
X0057200Y0157000D03*
X0057000Y0156800D03*
X0057000Y0156400D03*
X0056800Y0156200D03*
X0051400Y0156400D03*
X0051400Y0156800D03*
X0051400Y0157200D03*
X0051400Y0157600D03*
X0051400Y0158000D03*
X0051400Y0158400D03*
X0051400Y0158800D03*
X0051400Y0159200D03*
X0051400Y0159600D03*
X0051400Y0160000D03*
X0051400Y0160400D03*
X0051400Y0160800D03*
X0051400Y0161200D03*
X0051400Y0156000D03*
X0051400Y0155600D03*
X0051400Y0153600D03*
X0051400Y0153200D03*
X0051400Y0152800D03*
X0051400Y0152400D03*
X0051400Y0152000D03*
X0051400Y0151600D03*
X0051400Y0151200D03*
X0051400Y0150800D03*
X0051400Y0150400D03*
X0063800Y0150400D03*
X0063800Y0150800D03*
X0064000Y0151000D03*
X0064000Y0151200D03*
X0064000Y0151400D03*
X0064200Y0151600D03*
X0064000Y0151800D03*
X0064200Y0152000D03*
X0064200Y0152400D03*
X0064200Y0152800D03*
X0064800Y0154800D03*
X0064800Y0155000D03*
X0064800Y0155400D03*
X0065000Y0155600D03*
X0065000Y0156000D03*
X0065000Y0156400D03*
X0065200Y0156600D03*
X0065200Y0156800D03*
X0065200Y0157000D03*
X0065400Y0157200D03*
X0065400Y0157600D03*
X0065400Y0158000D03*
X0065600Y0158200D03*
X0065600Y0158600D03*
X0065800Y0159200D03*
X0065800Y0159600D03*
X0065800Y0160000D03*
X0066000Y0160600D03*
X0066200Y0161600D03*
X0068400Y0161800D03*
X0068600Y0160800D03*
X0068800Y0159800D03*
X0069000Y0159200D03*
X0069000Y0158800D03*
X0069000Y0158400D03*
X0069200Y0158200D03*
X0069200Y0158000D03*
X0069200Y0157800D03*
X0069400Y0157200D03*
X0069400Y0156800D03*
X0069600Y0156600D03*
X0069400Y0156400D03*
X0069600Y0156200D03*
X0069600Y0155800D03*
X0069800Y0155600D03*
X0069800Y0155200D03*
X0069800Y0154800D03*
X0070200Y0152800D03*
X0070400Y0152600D03*
X0070400Y0152400D03*
X0070400Y0152200D03*
X0070600Y0152000D03*
X0070600Y0151600D03*
X0070600Y0151200D03*
X0070800Y0151000D03*
X0070800Y0150800D03*
X0070800Y0150600D03*
X0073800Y0152800D03*
X0074000Y0152600D03*
X0074200Y0152200D03*
X0073800Y0153200D03*
X0073800Y0153600D03*
X0073800Y0154000D03*
X0073800Y0154400D03*
X0073800Y0154800D03*
X0073800Y0155200D03*
X0073800Y0155600D03*
X0073800Y0156000D03*
X0073800Y0156400D03*
X0073800Y0156800D03*
X0073800Y0157200D03*
X0073800Y0157600D03*
X0073800Y0158000D03*
X0073800Y0158400D03*
X0073800Y0158800D03*
X0073800Y0159200D03*
X0073800Y0159600D03*
X0073800Y0160000D03*
X0074000Y0160600D03*
X0079600Y0160600D03*
X0079800Y0160400D03*
X0079800Y0160000D03*
X0079800Y0159600D03*
X0079800Y0159200D03*
X0079800Y0158800D03*
X0079800Y0158400D03*
X0079800Y0158000D03*
X0079800Y0157600D03*
X0079800Y0157200D03*
X0079800Y0156800D03*
X0079800Y0156400D03*
X0079800Y0156000D03*
X0079800Y0155600D03*
X0079800Y0155200D03*
X0079800Y0154800D03*
X0079800Y0154400D03*
X0079800Y0154000D03*
X0079800Y0153600D03*
X0079800Y0153200D03*
X0079800Y0152800D03*
X0079600Y0152600D03*
X0080200Y0148400D03*
X0086800Y0150600D03*
X0086800Y0151000D03*
X0086800Y0151800D03*
X0086800Y0152200D03*
X0086800Y0152600D03*
X0086800Y0153400D03*
X0086800Y0153800D03*
X0086800Y0154200D03*
X0086800Y0155000D03*
X0086800Y0155400D03*
X0086800Y0157400D03*
X0086800Y0158200D03*
X0086800Y0158600D03*
X0086800Y0159000D03*
X0086800Y0159800D03*
X0086800Y0160200D03*
X0086800Y0160600D03*
X0086800Y0161400D03*
X0086800Y0161800D03*
X0086800Y0162200D03*
X0093400Y0162400D03*
X0093400Y0162800D03*
X0093400Y0162000D03*
X0093400Y0161600D03*
X0093400Y0161200D03*
X0093400Y0160800D03*
X0093400Y0160400D03*
X0093400Y0160000D03*
X0093400Y0159600D03*
X0093400Y0159200D03*
X0093400Y0158800D03*
X0093400Y0158400D03*
X0093400Y0158000D03*
X0093400Y0157600D03*
X0093200Y0157400D03*
X0093400Y0155200D03*
X0093400Y0154800D03*
X0093400Y0154400D03*
X0093400Y0154000D03*
X0093400Y0153600D03*
X0093400Y0153200D03*
X0093400Y0152800D03*
X0093400Y0152400D03*
X0093400Y0152000D03*
X0093400Y0151600D03*
X0093400Y0151200D03*
X0093400Y0150800D03*
X0093400Y0150400D03*
X0096600Y0150400D03*
X0096600Y0150800D03*
X0096800Y0151000D03*
X0096800Y0151200D03*
X0096800Y0151400D03*
X0097000Y0151600D03*
X0096800Y0151800D03*
X0097000Y0152000D03*
X0097000Y0152400D03*
X0097000Y0152800D03*
X0097600Y0154800D03*
X0097600Y0155000D03*
X0097600Y0155400D03*
X0097800Y0155600D03*
X0097800Y0156000D03*
X0097800Y0156400D03*
X0098000Y0156600D03*
X0098000Y0156800D03*
X0098000Y0157000D03*
X0098200Y0157200D03*
X0098200Y0157600D03*
X0098200Y0158000D03*
X0098400Y0158200D03*
X0098400Y0158600D03*
X0098600Y0159200D03*
X0098600Y0159600D03*
X0098600Y0160000D03*
X0098800Y0160600D03*
X0099000Y0161600D03*
X0101200Y0161800D03*
X0101400Y0160800D03*
X0101600Y0159800D03*
X0101800Y0159200D03*
X0101800Y0158800D03*
X0101800Y0158400D03*
X0102000Y0158200D03*
X0102000Y0158000D03*
X0102000Y0157800D03*
X0102200Y0157200D03*
X0102200Y0156800D03*
X0102400Y0156600D03*
X0102200Y0156400D03*
X0102400Y0156200D03*
X0102400Y0155800D03*
X0102600Y0155600D03*
X0102600Y0155200D03*
X0102600Y0154800D03*
X0103000Y0152800D03*
X0103200Y0152600D03*
X0103200Y0152400D03*
X0103200Y0152200D03*
X0103400Y0152000D03*
X0103400Y0151600D03*
X0103400Y0151200D03*
X0103600Y0151000D03*
X0103600Y0150800D03*
X0103600Y0150600D03*
X0108000Y0150600D03*
X0108000Y0151000D03*
X0108000Y0151800D03*
X0108000Y0152200D03*
X0108000Y0152600D03*
X0108000Y0153400D03*
X0108000Y0153800D03*
X0108000Y0154200D03*
X0108000Y0155000D03*
X0108000Y0155400D03*
X0108000Y0155800D03*
X0108000Y0156600D03*
X0108000Y0157000D03*
X0108000Y0157400D03*
X0108000Y0158200D03*
X0108000Y0158600D03*
X0108000Y0159000D03*
X0108000Y0159800D03*
X0108000Y0160200D03*
X0108000Y0160600D03*
X0108000Y0161400D03*
X0060600Y0162400D03*
X0060400Y0162600D03*
X0060400Y0163000D03*
X0060400Y0163400D03*
D112*
X0060500Y0163200D03*
X0060500Y0162800D03*
X0056900Y0160600D03*
X0073900Y0160400D03*
X0074100Y0160800D03*
X0079300Y0161000D03*
X0079500Y0160800D03*
X0079500Y0152400D03*
X0080100Y0148600D03*
X0074100Y0152400D03*
D113*
X0074400Y0152000D03*
X0074600Y0151800D03*
X0079000Y0151800D03*
X0079200Y0152000D03*
X0079400Y0152200D03*
X0079000Y0149800D03*
X0079200Y0149600D03*
X0079400Y0149400D03*
X0079600Y0149200D03*
X0079800Y0149000D03*
X0080000Y0148800D03*
X0074200Y0161000D03*
X0056800Y0160800D03*
X0056600Y0161000D03*
X0056800Y0156000D03*
X0056600Y0155800D03*
D114*
X0060600Y0150000D03*
X0063800Y0150000D03*
X0071000Y0150000D03*
X0060400Y0163800D03*
X0051400Y0150000D03*
X0086600Y0163200D03*
X0093400Y0163200D03*
X0093400Y0150000D03*
X0096600Y0150000D03*
X0103800Y0150000D03*
D115*
X0078000Y0150000D03*
X0076800Y0162800D03*
X0052800Y0163200D03*
D116*
X0060400Y0162000D03*
X0066000Y0160800D03*
X0066000Y0160400D03*
X0065800Y0159800D03*
X0065800Y0159400D03*
X0066200Y0161400D03*
X0066200Y0161800D03*
X0066200Y0162200D03*
X0068400Y0162000D03*
X0068600Y0161000D03*
X0068600Y0160600D03*
X0069000Y0159000D03*
X0069400Y0157000D03*
X0073800Y0153000D03*
X0071000Y0150200D03*
X0064200Y0152200D03*
X0063800Y0150200D03*
X0065000Y0155800D03*
X0076800Y0163200D03*
X0086600Y0163000D03*
X0093400Y0163000D03*
X0099000Y0162200D03*
X0099000Y0161800D03*
X0099000Y0161400D03*
X0098800Y0160800D03*
X0098800Y0160400D03*
X0098600Y0159800D03*
X0098600Y0159400D03*
X0101400Y0160600D03*
X0101400Y0161000D03*
X0101200Y0162000D03*
X0101800Y0159000D03*
X0102200Y0157000D03*
X0097800Y0155800D03*
X0097000Y0152200D03*
X0096600Y0150200D03*
X0093400Y0150200D03*
X0086800Y0150000D03*
X0086600Y0150200D03*
X0079800Y0153000D03*
X0079800Y0153400D03*
X0103800Y0150200D03*
X0051400Y0150200D03*
D117*
X0060500Y0150200D03*
X0060500Y0160200D03*
X0108100Y0150000D03*
D118*
X0077600Y0150200D03*
X0076800Y0162600D03*
D119*
X0077000Y0150600D03*
X0077200Y0150400D03*
X0053000Y0163000D03*
D120*
X0053200Y0154000D03*
X0076800Y0150800D03*
X0076800Y0162400D03*
D121*
X0076900Y0162200D03*
X0076900Y0151000D03*
X0053300Y0154200D03*
D122*
X0076700Y0151200D03*
D123*
X0076800Y0151400D03*
X0076800Y0162000D03*
X0053600Y0162400D03*
X0053600Y0154600D03*
D124*
X0053800Y0154800D03*
X0053800Y0155000D03*
X0053800Y0162000D03*
X0076800Y0161600D03*
X0076800Y0151600D03*
D125*
X0067300Y0153000D03*
X0067300Y0153200D03*
X0067300Y0153400D03*
X0100100Y0153400D03*
X0100100Y0153200D03*
X0100100Y0153000D03*
X0108100Y0162400D03*
D126*
X0108000Y0162600D03*
X0108000Y0162800D03*
X0108000Y0162200D03*
X0108200Y0162000D03*
X0108000Y0161800D03*
X0100200Y0154000D03*
X0100200Y0153600D03*
X0067400Y0153600D03*
X0067400Y0154000D03*
D127*
X0052700Y0153800D03*
D128*
X0067300Y0153800D03*
X0100100Y0153800D03*
X0108100Y0163000D03*
D129*
X0108000Y0163200D03*
X0108000Y0161600D03*
X0100200Y0154200D03*
X0100000Y0154400D03*
X0067400Y0154200D03*
X0067200Y0154400D03*
X0054000Y0161600D03*
D130*
X0053400Y0162600D03*
X0053400Y0162800D03*
X0053400Y0154400D03*
X0076800Y0161800D03*
D131*
X0067300Y0154600D03*
X0053900Y0155200D03*
X0053900Y0155400D03*
X0053900Y0161800D03*
X0100100Y0154600D03*
D132*
X0100200Y0163200D03*
X0079000Y0161200D03*
X0078800Y0161400D03*
X0076800Y0163000D03*
X0074800Y0161400D03*
X0074600Y0161200D03*
X0067400Y0163200D03*
X0056200Y0155600D03*
D133*
X0090100Y0155600D03*
X0090100Y0156000D03*
X0090100Y0156400D03*
X0090100Y0156800D03*
X0090100Y0157200D03*
D134*
X0090000Y0157000D03*
X0090000Y0156600D03*
X0090000Y0156200D03*
X0090000Y0155800D03*
D135*
X0056500Y0161200D03*
D136*
X0056200Y0161400D03*
X0067400Y0163000D03*
X0100200Y0163000D03*
D137*
X0060400Y0161800D03*
D138*
X0053700Y0162200D03*
D139*
X0067400Y0162400D03*
X0067400Y0162800D03*
X0100200Y0162800D03*
X0100200Y0162400D03*
D140*
X0100100Y0162600D03*
X0067300Y0162600D03*
D141*
X0060400Y0164000D03*
D142*
X0094933Y0106119D02*
X0094933Y0101001D01*
X0097601Y0089599D02*
X0123802Y0089599D01*
X0125199Y0088202D01*
X0125199Y0062001D01*
X0097601Y0062001D01*
X0097601Y0089599D01*
X0109697Y0101001D02*
X0109697Y0106119D01*
X0125300Y0090200D02*
X0125302Y0090249D01*
X0125308Y0090297D01*
X0125318Y0090345D01*
X0125332Y0090392D01*
X0125349Y0090438D01*
X0125370Y0090482D01*
X0125395Y0090524D01*
X0125423Y0090564D01*
X0125455Y0090602D01*
X0125489Y0090637D01*
X0125526Y0090669D01*
X0125565Y0090698D01*
X0125607Y0090724D01*
X0125651Y0090746D01*
X0125696Y0090764D01*
X0125743Y0090779D01*
X0125790Y0090790D01*
X0125839Y0090797D01*
X0125888Y0090800D01*
X0125937Y0090799D01*
X0125985Y0090794D01*
X0126034Y0090785D01*
X0126081Y0090772D01*
X0126127Y0090755D01*
X0126171Y0090735D01*
X0126214Y0090711D01*
X0126255Y0090684D01*
X0126293Y0090653D01*
X0126329Y0090620D01*
X0126361Y0090584D01*
X0126391Y0090545D01*
X0126418Y0090504D01*
X0126441Y0090460D01*
X0126460Y0090415D01*
X0126476Y0090369D01*
X0126488Y0090322D01*
X0126496Y0090273D01*
X0126500Y0090224D01*
X0126500Y0090176D01*
X0126496Y0090127D01*
X0126488Y0090078D01*
X0126476Y0090031D01*
X0126460Y0089985D01*
X0126441Y0089940D01*
X0126418Y0089896D01*
X0126391Y0089855D01*
X0126361Y0089816D01*
X0126329Y0089780D01*
X0126293Y0089747D01*
X0126255Y0089716D01*
X0126214Y0089689D01*
X0126171Y0089665D01*
X0126127Y0089645D01*
X0126081Y0089628D01*
X0126034Y0089615D01*
X0125985Y0089606D01*
X0125937Y0089601D01*
X0125888Y0089600D01*
X0125839Y0089603D01*
X0125790Y0089610D01*
X0125743Y0089621D01*
X0125696Y0089636D01*
X0125651Y0089654D01*
X0125607Y0089676D01*
X0125565Y0089702D01*
X0125526Y0089731D01*
X0125489Y0089763D01*
X0125455Y0089798D01*
X0125423Y0089836D01*
X0125395Y0089876D01*
X0125370Y0089918D01*
X0125349Y0089962D01*
X0125332Y0090008D01*
X0125318Y0090055D01*
X0125308Y0090103D01*
X0125302Y0090151D01*
X0125300Y0090200D01*
X0140094Y0036143D02*
X0140094Y0035749D01*
X0140094Y0036143D02*
X0151906Y0036143D01*
X0151906Y0035749D01*
X0151906Y0031812D02*
X0151906Y0030631D01*
X0151906Y0026694D02*
X0151906Y0025906D01*
X0151906Y0021969D02*
X0151906Y0020788D01*
X0151906Y0016851D02*
X0151906Y0016457D01*
X0140094Y0016457D01*
X0140094Y0016851D01*
X0140094Y0020788D02*
X0140094Y0021969D01*
X0140094Y0025906D02*
X0140094Y0026694D01*
X0140094Y0030631D02*
X0140094Y0031812D01*
X0205309Y0048500D02*
X0208691Y0048500D01*
X0209791Y0052443D02*
X0209791Y0054557D01*
X0208691Y0058500D02*
X0205309Y0058500D01*
X0218488Y0113606D02*
X0218488Y0116756D01*
X0220850Y0116756D01*
X0227150Y0116756D02*
X0229512Y0116756D01*
X0229512Y0113606D01*
X0028500Y0062063D02*
X0028500Y0049937D01*
X0023382Y0046000D02*
X0013500Y0046000D01*
X0008500Y0049937D02*
X0008500Y0062063D01*
X0013618Y0066000D02*
X0023382Y0066000D01*
X0013500Y0056000D02*
X0013502Y0056141D01*
X0013508Y0056282D01*
X0013518Y0056422D01*
X0013532Y0056562D01*
X0013550Y0056702D01*
X0013571Y0056841D01*
X0013597Y0056980D01*
X0013626Y0057118D01*
X0013660Y0057254D01*
X0013697Y0057390D01*
X0013738Y0057525D01*
X0013783Y0057659D01*
X0013832Y0057791D01*
X0013884Y0057922D01*
X0013940Y0058051D01*
X0014000Y0058178D01*
X0014063Y0058304D01*
X0014129Y0058428D01*
X0014200Y0058551D01*
X0014273Y0058671D01*
X0014350Y0058789D01*
X0014430Y0058905D01*
X0014514Y0059018D01*
X0014600Y0059129D01*
X0014690Y0059238D01*
X0014783Y0059344D01*
X0014878Y0059447D01*
X0014977Y0059548D01*
X0015078Y0059646D01*
X0015182Y0059741D01*
X0015289Y0059833D01*
X0015398Y0059922D01*
X0015510Y0060007D01*
X0015624Y0060090D01*
X0015740Y0060170D01*
X0015859Y0060246D01*
X0015980Y0060318D01*
X0016102Y0060388D01*
X0016227Y0060453D01*
X0016353Y0060516D01*
X0016481Y0060574D01*
X0016611Y0060629D01*
X0016742Y0060681D01*
X0016875Y0060728D01*
X0017009Y0060772D01*
X0017144Y0060813D01*
X0017280Y0060849D01*
X0017417Y0060881D01*
X0017555Y0060910D01*
X0017693Y0060935D01*
X0017833Y0060955D01*
X0017973Y0060972D01*
X0018113Y0060985D01*
X0018254Y0060994D01*
X0018394Y0060999D01*
X0018535Y0061000D01*
X0018676Y0060997D01*
X0018817Y0060990D01*
X0018957Y0060979D01*
X0019097Y0060964D01*
X0019237Y0060945D01*
X0019376Y0060923D01*
X0019514Y0060896D01*
X0019652Y0060866D01*
X0019788Y0060831D01*
X0019924Y0060793D01*
X0020058Y0060751D01*
X0020192Y0060705D01*
X0020324Y0060656D01*
X0020454Y0060602D01*
X0020583Y0060545D01*
X0020710Y0060485D01*
X0020836Y0060421D01*
X0020959Y0060353D01*
X0021081Y0060282D01*
X0021201Y0060208D01*
X0021318Y0060130D01*
X0021433Y0060049D01*
X0021546Y0059965D01*
X0021657Y0059878D01*
X0021765Y0059787D01*
X0021870Y0059694D01*
X0021973Y0059597D01*
X0022073Y0059498D01*
X0022170Y0059396D01*
X0022264Y0059291D01*
X0022355Y0059184D01*
X0022443Y0059074D01*
X0022528Y0058962D01*
X0022610Y0058847D01*
X0022689Y0058730D01*
X0022764Y0058611D01*
X0022836Y0058490D01*
X0022904Y0058367D01*
X0022969Y0058242D01*
X0023031Y0058115D01*
X0023088Y0057986D01*
X0023143Y0057856D01*
X0023193Y0057725D01*
X0023240Y0057592D01*
X0023283Y0057458D01*
X0023322Y0057322D01*
X0023357Y0057186D01*
X0023389Y0057049D01*
X0023416Y0056911D01*
X0023440Y0056772D01*
X0023460Y0056632D01*
X0023476Y0056492D01*
X0023488Y0056352D01*
X0023496Y0056211D01*
X0023500Y0056070D01*
X0023500Y0055930D01*
X0023496Y0055789D01*
X0023488Y0055648D01*
X0023476Y0055508D01*
X0023460Y0055368D01*
X0023440Y0055228D01*
X0023416Y0055089D01*
X0023389Y0054951D01*
X0023357Y0054814D01*
X0023322Y0054678D01*
X0023283Y0054542D01*
X0023240Y0054408D01*
X0023193Y0054275D01*
X0023143Y0054144D01*
X0023088Y0054014D01*
X0023031Y0053885D01*
X0022969Y0053758D01*
X0022904Y0053633D01*
X0022836Y0053510D01*
X0022764Y0053389D01*
X0022689Y0053270D01*
X0022610Y0053153D01*
X0022528Y0053038D01*
X0022443Y0052926D01*
X0022355Y0052816D01*
X0022264Y0052709D01*
X0022170Y0052604D01*
X0022073Y0052502D01*
X0021973Y0052403D01*
X0021870Y0052306D01*
X0021765Y0052213D01*
X0021657Y0052122D01*
X0021546Y0052035D01*
X0021433Y0051951D01*
X0021318Y0051870D01*
X0021201Y0051792D01*
X0021081Y0051718D01*
X0020959Y0051647D01*
X0020836Y0051579D01*
X0020710Y0051515D01*
X0020583Y0051455D01*
X0020454Y0051398D01*
X0020324Y0051344D01*
X0020192Y0051295D01*
X0020058Y0051249D01*
X0019924Y0051207D01*
X0019788Y0051169D01*
X0019652Y0051134D01*
X0019514Y0051104D01*
X0019376Y0051077D01*
X0019237Y0051055D01*
X0019097Y0051036D01*
X0018957Y0051021D01*
X0018817Y0051010D01*
X0018676Y0051003D01*
X0018535Y0051000D01*
X0018394Y0051001D01*
X0018254Y0051006D01*
X0018113Y0051015D01*
X0017973Y0051028D01*
X0017833Y0051045D01*
X0017693Y0051065D01*
X0017555Y0051090D01*
X0017417Y0051119D01*
X0017280Y0051151D01*
X0017144Y0051187D01*
X0017009Y0051228D01*
X0016875Y0051272D01*
X0016742Y0051319D01*
X0016611Y0051371D01*
X0016481Y0051426D01*
X0016353Y0051484D01*
X0016227Y0051547D01*
X0016102Y0051612D01*
X0015980Y0051682D01*
X0015859Y0051754D01*
X0015740Y0051830D01*
X0015624Y0051910D01*
X0015510Y0051993D01*
X0015398Y0052078D01*
X0015289Y0052167D01*
X0015182Y0052259D01*
X0015078Y0052354D01*
X0014977Y0052452D01*
X0014878Y0052553D01*
X0014783Y0052656D01*
X0014690Y0052762D01*
X0014600Y0052871D01*
X0014514Y0052982D01*
X0014430Y0053095D01*
X0014350Y0053211D01*
X0014273Y0053329D01*
X0014200Y0053449D01*
X0014129Y0053572D01*
X0014063Y0053696D01*
X0014000Y0053822D01*
X0013940Y0053949D01*
X0013884Y0054078D01*
X0013832Y0054209D01*
X0013783Y0054341D01*
X0013738Y0054475D01*
X0013697Y0054610D01*
X0013660Y0054746D01*
X0013626Y0054882D01*
X0013597Y0055020D01*
X0013571Y0055159D01*
X0013550Y0055298D01*
X0013532Y0055438D01*
X0013518Y0055578D01*
X0013508Y0055718D01*
X0013502Y0055859D01*
X0013500Y0056000D01*
D143*
X0054307Y0027906D02*
X0067693Y0027906D01*
X0067693Y0016094D01*
X0054307Y0016094D01*
X0054307Y0027906D01*
D144*
X0068677Y0019047D03*
D145*
X0107154Y0027602D02*
X0107156Y0027658D01*
X0107162Y0027713D01*
X0107172Y0027767D01*
X0107185Y0027821D01*
X0107203Y0027874D01*
X0107224Y0027925D01*
X0107248Y0027975D01*
X0107276Y0028023D01*
X0107308Y0028069D01*
X0107342Y0028113D01*
X0107380Y0028154D01*
X0107420Y0028192D01*
X0107463Y0028227D01*
X0107508Y0028259D01*
X0107556Y0028288D01*
X0107605Y0028314D01*
X0107656Y0028336D01*
X0107708Y0028354D01*
X0107762Y0028368D01*
X0107817Y0028379D01*
X0107872Y0028386D01*
X0107927Y0028389D01*
X0107983Y0028388D01*
X0108038Y0028383D01*
X0108093Y0028374D01*
X0108147Y0028362D01*
X0108200Y0028345D01*
X0108252Y0028325D01*
X0108302Y0028301D01*
X0108350Y0028274D01*
X0108397Y0028244D01*
X0108441Y0028210D01*
X0108483Y0028173D01*
X0108521Y0028133D01*
X0108558Y0028091D01*
X0108591Y0028046D01*
X0108620Y0028000D01*
X0108647Y0027951D01*
X0108669Y0027900D01*
X0108689Y0027848D01*
X0108704Y0027794D01*
X0108716Y0027740D01*
X0108724Y0027685D01*
X0108728Y0027630D01*
X0108728Y0027574D01*
X0108724Y0027519D01*
X0108716Y0027464D01*
X0108704Y0027410D01*
X0108689Y0027356D01*
X0108669Y0027304D01*
X0108647Y0027253D01*
X0108620Y0027204D01*
X0108591Y0027158D01*
X0108558Y0027113D01*
X0108521Y0027071D01*
X0108483Y0027031D01*
X0108441Y0026994D01*
X0108397Y0026960D01*
X0108350Y0026930D01*
X0108302Y0026903D01*
X0108252Y0026879D01*
X0108200Y0026859D01*
X0108147Y0026842D01*
X0108093Y0026830D01*
X0108038Y0026821D01*
X0107983Y0026816D01*
X0107927Y0026815D01*
X0107872Y0026818D01*
X0107817Y0026825D01*
X0107762Y0026836D01*
X0107708Y0026850D01*
X0107656Y0026868D01*
X0107605Y0026890D01*
X0107556Y0026916D01*
X0107508Y0026945D01*
X0107463Y0026977D01*
X0107420Y0027012D01*
X0107380Y0027050D01*
X0107342Y0027091D01*
X0107308Y0027135D01*
X0107276Y0027181D01*
X0107248Y0027229D01*
X0107224Y0027279D01*
X0107203Y0027330D01*
X0107185Y0027383D01*
X0107172Y0027437D01*
X0107162Y0027491D01*
X0107156Y0027546D01*
X0107154Y0027602D01*
X0107547Y0027602D02*
X0107549Y0027641D01*
X0107555Y0027680D01*
X0107565Y0027718D01*
X0107578Y0027755D01*
X0107595Y0027790D01*
X0107615Y0027824D01*
X0107639Y0027855D01*
X0107666Y0027884D01*
X0107695Y0027910D01*
X0107727Y0027933D01*
X0107761Y0027953D01*
X0107797Y0027969D01*
X0107834Y0027981D01*
X0107873Y0027990D01*
X0107912Y0027995D01*
X0107951Y0027996D01*
X0107990Y0027993D01*
X0108029Y0027986D01*
X0108066Y0027975D01*
X0108103Y0027961D01*
X0108138Y0027943D01*
X0108171Y0027922D01*
X0108202Y0027897D01*
X0108230Y0027870D01*
X0108255Y0027840D01*
X0108277Y0027807D01*
X0108296Y0027773D01*
X0108311Y0027737D01*
X0108323Y0027699D01*
X0108331Y0027661D01*
X0108335Y0027622D01*
X0108335Y0027582D01*
X0108331Y0027543D01*
X0108323Y0027505D01*
X0108311Y0027467D01*
X0108296Y0027431D01*
X0108277Y0027397D01*
X0108255Y0027364D01*
X0108230Y0027334D01*
X0108202Y0027307D01*
X0108171Y0027282D01*
X0108138Y0027261D01*
X0108103Y0027243D01*
X0108066Y0027229D01*
X0108029Y0027218D01*
X0107990Y0027211D01*
X0107951Y0027208D01*
X0107912Y0027209D01*
X0107873Y0027214D01*
X0107834Y0027223D01*
X0107797Y0027235D01*
X0107761Y0027251D01*
X0107727Y0027271D01*
X0107695Y0027294D01*
X0107666Y0027320D01*
X0107639Y0027349D01*
X0107615Y0027380D01*
X0107595Y0027414D01*
X0107578Y0027449D01*
X0107565Y0027486D01*
X0107555Y0027524D01*
X0107549Y0027563D01*
X0107547Y0027602D01*
D146*
X0106563Y0025437D02*
X0114437Y0025437D01*
X0114437Y0017563D02*
X0106563Y0017563D01*
X0153468Y0016700D02*
X0153470Y0016750D01*
X0153476Y0016799D01*
X0153485Y0016848D01*
X0153499Y0016895D01*
X0153516Y0016942D01*
X0153537Y0016987D01*
X0153561Y0017030D01*
X0153589Y0017071D01*
X0153619Y0017110D01*
X0153653Y0017147D01*
X0153690Y0017181D01*
X0153729Y0017211D01*
X0153770Y0017239D01*
X0153813Y0017263D01*
X0153858Y0017284D01*
X0153905Y0017301D01*
X0153952Y0017315D01*
X0154001Y0017324D01*
X0154050Y0017330D01*
X0154100Y0017332D01*
X0154150Y0017330D01*
X0154199Y0017324D01*
X0154248Y0017315D01*
X0154295Y0017301D01*
X0154342Y0017284D01*
X0154387Y0017263D01*
X0154430Y0017239D01*
X0154471Y0017211D01*
X0154510Y0017181D01*
X0154547Y0017147D01*
X0154581Y0017110D01*
X0154611Y0017071D01*
X0154639Y0017030D01*
X0154663Y0016987D01*
X0154684Y0016942D01*
X0154701Y0016895D01*
X0154715Y0016848D01*
X0154724Y0016799D01*
X0154730Y0016750D01*
X0154732Y0016700D01*
X0154730Y0016650D01*
X0154724Y0016601D01*
X0154715Y0016552D01*
X0154701Y0016505D01*
X0154684Y0016458D01*
X0154663Y0016413D01*
X0154639Y0016370D01*
X0154611Y0016329D01*
X0154581Y0016290D01*
X0154547Y0016253D01*
X0154510Y0016219D01*
X0154471Y0016189D01*
X0154430Y0016161D01*
X0154387Y0016137D01*
X0154342Y0016116D01*
X0154295Y0016099D01*
X0154248Y0016085D01*
X0154199Y0016076D01*
X0154150Y0016070D01*
X0154100Y0016068D01*
X0154050Y0016070D01*
X0154001Y0016076D01*
X0153952Y0016085D01*
X0153905Y0016099D01*
X0153858Y0016116D01*
X0153813Y0016137D01*
X0153770Y0016161D01*
X0153729Y0016189D01*
X0153690Y0016219D01*
X0153653Y0016253D01*
X0153619Y0016290D01*
X0153589Y0016329D01*
X0153561Y0016370D01*
X0153537Y0016413D01*
X0153516Y0016458D01*
X0153499Y0016505D01*
X0153485Y0016552D01*
X0153476Y0016601D01*
X0153470Y0016650D01*
X0153468Y0016700D01*
X0120421Y0128157D02*
X0190500Y0128157D01*
X0190500Y0180126D01*
X0182626Y0188000D01*
X0120421Y0188000D01*
X0120421Y0128157D01*
D147*
X0120319Y0108462D02*
X0122681Y0108462D01*
X0122681Y0103738D02*
X0120319Y0103738D01*
X0145919Y0079262D02*
X0148281Y0079262D01*
X0148281Y0074538D02*
X0145919Y0074538D01*
X0145919Y0068862D02*
X0148281Y0068862D01*
X0148281Y0064138D02*
X0145919Y0064138D01*
X0153019Y0045562D02*
X0155381Y0045562D01*
X0155381Y0040838D02*
X0153019Y0040838D01*
X0158038Y0023681D02*
X0158038Y0021319D01*
X0162762Y0021319D02*
X0162762Y0023681D01*
X0204319Y0022862D02*
X0206681Y0022862D01*
X0206681Y0018138D02*
X0204319Y0018138D01*
X0204319Y0028638D02*
X0206681Y0028638D01*
X0206681Y0033362D02*
X0204319Y0033362D01*
X0204319Y0039138D02*
X0206681Y0039138D01*
X0206681Y0043862D02*
X0204319Y0043862D01*
X0221138Y0066819D02*
X0221138Y0069181D01*
X0225862Y0069181D02*
X0225862Y0066819D01*
X0234819Y0056362D02*
X0237181Y0056362D01*
X0237181Y0051638D02*
X0234819Y0051638D01*
X0234819Y0045862D02*
X0237181Y0045862D01*
X0237181Y0041138D02*
X0234819Y0041138D01*
X0249719Y0041238D02*
X0252081Y0041238D01*
X0252081Y0045962D02*
X0249719Y0045962D01*
X0249719Y0051738D02*
X0252081Y0051738D01*
X0252081Y0056462D02*
X0249719Y0056462D01*
X0209681Y0107638D02*
X0207319Y0107638D01*
X0207319Y0112362D02*
X0209681Y0112362D01*
X0209681Y0118138D02*
X0207319Y0118138D01*
X0207319Y0122862D02*
X0209681Y0122862D01*
X0235238Y0123181D02*
X0235238Y0120819D01*
X0239962Y0120819D02*
X0239962Y0123181D01*
X0245138Y0123181D02*
X0245138Y0120819D01*
X0249862Y0120819D02*
X0249862Y0123181D01*
X0251362Y0150819D02*
X0251362Y0153181D01*
X0246638Y0153181D02*
X0246638Y0150819D01*
X0246638Y0165319D02*
X0246638Y0167681D01*
X0251362Y0167681D02*
X0251362Y0165319D01*
X0237781Y0181038D02*
X0235419Y0181038D01*
X0235419Y0185762D02*
X0237781Y0185762D01*
X0210562Y0160681D02*
X0210562Y0158319D01*
X0205838Y0158319D02*
X0205838Y0160681D01*
X0164481Y0116862D02*
X0162119Y0116862D01*
X0162119Y0112138D02*
X0164481Y0112138D01*
X0105081Y0037162D02*
X0102719Y0037162D01*
X0102719Y0032438D02*
X0105081Y0032438D01*
X0051962Y0078219D02*
X0051962Y0080581D01*
X0047238Y0080581D02*
X0047238Y0078219D01*
X0039862Y0077919D02*
X0039862Y0080281D01*
X0035138Y0080281D02*
X0035138Y0077919D01*
X0037000Y0090000D02*
X0052000Y0090000D01*
X0054500Y0092500D01*
X0054500Y0097500D01*
X0052000Y0100000D01*
X0037000Y0100000D01*
X0034500Y0097500D01*
X0034500Y0092500D01*
X0037000Y0090000D01*
X0037000Y0100000D02*
X0034500Y0102500D01*
X0034500Y0107500D01*
X0037000Y0110000D01*
X0052000Y0110000D01*
X0054500Y0107500D01*
X0054500Y0102500D01*
X0052000Y0100000D01*
X0052000Y0110000D02*
X0054500Y0112500D01*
X0054500Y0117500D01*
X0052000Y0120000D01*
X0037000Y0120000D01*
X0034500Y0117500D01*
X0034500Y0112500D01*
X0037000Y0110000D01*
X0037000Y0120000D02*
X0034500Y0122500D01*
X0034500Y0127500D01*
X0037000Y0130000D01*
X0052000Y0130000D01*
X0054500Y0127500D01*
X0054500Y0122500D01*
X0052000Y0120000D01*
X0052000Y0130000D02*
X0054500Y0132500D01*
X0054500Y0137500D01*
X0052000Y0140000D01*
X0037000Y0140000D01*
X0034500Y0137500D01*
X0034500Y0132500D01*
X0037000Y0130000D01*
X0013862Y0183819D02*
X0013862Y0186181D01*
X0009138Y0186181D02*
X0009138Y0183819D01*
X0045138Y0022681D02*
X0045138Y0020319D01*
X0049862Y0020319D02*
X0049862Y0022681D01*
D148*
X0011500Y0165106D03*
D149*
X0039500Y0115000D03*
D150*
X0218157Y0144220D02*
X0218157Y0150126D01*
X0218157Y0144220D02*
X0220126Y0144220D01*
X0226031Y0144220D02*
X0229969Y0144220D01*
X0235874Y0144220D02*
X0237843Y0144220D01*
X0237843Y0150126D01*
X0239300Y0149063D02*
X0239302Y0149119D01*
X0239308Y0149174D01*
X0239318Y0149228D01*
X0239331Y0149282D01*
X0239349Y0149335D01*
X0239370Y0149386D01*
X0239394Y0149436D01*
X0239422Y0149484D01*
X0239454Y0149530D01*
X0239488Y0149574D01*
X0239526Y0149615D01*
X0239566Y0149653D01*
X0239609Y0149688D01*
X0239654Y0149720D01*
X0239702Y0149749D01*
X0239751Y0149775D01*
X0239802Y0149797D01*
X0239854Y0149815D01*
X0239908Y0149829D01*
X0239963Y0149840D01*
X0240018Y0149847D01*
X0240073Y0149850D01*
X0240129Y0149849D01*
X0240184Y0149844D01*
X0240239Y0149835D01*
X0240293Y0149823D01*
X0240346Y0149806D01*
X0240398Y0149786D01*
X0240448Y0149762D01*
X0240496Y0149735D01*
X0240543Y0149705D01*
X0240587Y0149671D01*
X0240629Y0149634D01*
X0240667Y0149594D01*
X0240704Y0149552D01*
X0240737Y0149507D01*
X0240766Y0149461D01*
X0240793Y0149412D01*
X0240815Y0149361D01*
X0240835Y0149309D01*
X0240850Y0149255D01*
X0240862Y0149201D01*
X0240870Y0149146D01*
X0240874Y0149091D01*
X0240874Y0149035D01*
X0240870Y0148980D01*
X0240862Y0148925D01*
X0240850Y0148871D01*
X0240835Y0148817D01*
X0240815Y0148765D01*
X0240793Y0148714D01*
X0240766Y0148665D01*
X0240737Y0148619D01*
X0240704Y0148574D01*
X0240667Y0148532D01*
X0240629Y0148492D01*
X0240587Y0148455D01*
X0240543Y0148421D01*
X0240496Y0148391D01*
X0240448Y0148364D01*
X0240398Y0148340D01*
X0240346Y0148320D01*
X0240293Y0148303D01*
X0240239Y0148291D01*
X0240184Y0148282D01*
X0240129Y0148277D01*
X0240073Y0148276D01*
X0240018Y0148279D01*
X0239963Y0148286D01*
X0239908Y0148297D01*
X0239854Y0148311D01*
X0239802Y0148329D01*
X0239751Y0148351D01*
X0239702Y0148377D01*
X0239654Y0148406D01*
X0239609Y0148438D01*
X0239566Y0148473D01*
X0239526Y0148511D01*
X0239488Y0148552D01*
X0239454Y0148596D01*
X0239422Y0148642D01*
X0239394Y0148690D01*
X0239370Y0148740D01*
X0239349Y0148791D01*
X0239331Y0148844D01*
X0239318Y0148898D01*
X0239308Y0148952D01*
X0239302Y0149007D01*
X0239300Y0149063D01*
X0237843Y0165874D02*
X0237843Y0171780D01*
X0235874Y0171780D01*
X0229969Y0171780D02*
X0226031Y0171780D01*
X0220126Y0171780D02*
X0218157Y0171780D01*
X0218157Y0165874D01*
X0229414Y0079474D02*
X0233745Y0079474D01*
X0229414Y0079474D02*
X0229414Y0063726D01*
X0233745Y0063726D01*
X0242800Y0063726D02*
X0248706Y0063726D01*
X0248706Y0067269D01*
X0248706Y0075931D02*
X0248706Y0079474D01*
X0242800Y0079474D01*
D151*
X0203000Y0059800D03*
M02*
