G75*
%MOIN*%
%OFA0B0*%
%FSLAX25Y25*%
%IPPOS*%
%LPD*%
%AMOC8*
5,1,8,0,0,1.08239X$1,22.5*
%
%ADD10C,0.11424*%
%ADD11C,0.07000*%
%ADD12C,0.03943*%
%ADD13C,0.07800*%
%ADD14OC8,0.07800*%
%ADD15C,0.04362*%
D10*
X0018780Y0018780D03*
X0018780Y0211693D03*
X0247126Y0211693D03*
X0247126Y0018780D03*
D11*
X0227953Y0206693D03*
X0227953Y0216693D03*
X0217953Y0216693D03*
X0217953Y0206693D03*
X0207953Y0206693D03*
X0207953Y0216693D03*
X0197953Y0216693D03*
X0187953Y0216693D03*
X0187953Y0206693D03*
X0197953Y0206693D03*
X0177953Y0206693D03*
X0177953Y0216693D03*
X0167953Y0216693D03*
X0167953Y0206693D03*
X0157953Y0206693D03*
X0157953Y0216693D03*
X0147953Y0216693D03*
X0137953Y0216693D03*
X0137953Y0206693D03*
X0147953Y0206693D03*
X0127953Y0206693D03*
X0127953Y0216693D03*
X0117953Y0216693D03*
X0117953Y0206693D03*
X0107953Y0206693D03*
X0097953Y0206693D03*
X0097953Y0216693D03*
X0107953Y0216693D03*
X0087953Y0216693D03*
X0087953Y0206693D03*
X0077953Y0206693D03*
X0077953Y0216693D03*
X0067953Y0216693D03*
X0067953Y0206693D03*
X0057953Y0206693D03*
X0047953Y0206693D03*
X0047953Y0216693D03*
X0057953Y0216693D03*
X0037953Y0216693D03*
X0037953Y0206693D03*
D12*
X0242800Y0071600D03*
D13*
X0035000Y0090600D03*
X0035000Y0100600D03*
X0035000Y0110600D03*
X0035000Y0120600D03*
X0035000Y0130600D03*
X0035000Y0140600D03*
D14*
X0055200Y0124800D03*
X0055200Y0114800D03*
X0055200Y0104800D03*
X0065200Y0104800D03*
X0065200Y0114800D03*
X0065200Y0124800D03*
D15*
X0080000Y0141200D03*
X0089300Y0119900D03*
X0111800Y0125800D03*
X0146400Y0150100D03*
X0152400Y0182300D03*
X0233000Y0195800D03*
X0245000Y0139800D03*
X0247800Y0119600D03*
X0255300Y0097500D03*
X0254400Y0065000D03*
X0191700Y0057200D03*
X0159500Y0034900D03*
X0143600Y0058000D03*
X0130000Y0057000D03*
X0122300Y0050200D03*
X0112800Y0052500D03*
X0110800Y0065600D03*
X0110600Y0072200D03*
X0104700Y0073900D03*
X0104900Y0081500D03*
X0112900Y0083600D03*
X0119800Y0066700D03*
X0113500Y0033600D03*
X0092700Y0026300D03*
X0092700Y0014700D03*
X0071900Y0028100D03*
X0044100Y0053700D03*
X0037400Y0061400D03*
X0049700Y0066500D03*
X0063800Y0061600D03*
X0073200Y0065000D03*
X0077500Y0077000D03*
X0058700Y0088200D03*
X0125700Y0012900D03*
X0170100Y0106900D03*
X0187400Y0106900D03*
X0018900Y0192800D03*
M02*
