G75*
%MOIN*%
%OFA0B0*%
%FSLAX25Y25*%
%IPPOS*%
%LPD*%
%AMOC8*
5,1,8,0,0,1.08239X$1,22.5*
%
%ADD10C,0.00300*%
%ADD11C,0.06600*%
%ADD12OC8,0.07400*%
%ADD13C,0.03962*%
%ADD14C,0.01200*%
%ADD15C,0.02400*%
D10*
X0218414Y0010550D02*
X0218414Y0012001D01*
X0218898Y0012485D01*
X0219865Y0012485D01*
X0220349Y0012001D01*
X0221361Y0012485D02*
X0221361Y0010550D01*
X0222812Y0010550D01*
X0223296Y0011034D01*
X0223296Y0012485D01*
X0224300Y0012485D02*
X0224783Y0012485D01*
X0225751Y0011517D01*
X0225751Y0010550D02*
X0225751Y0012485D01*
X0226763Y0012001D02*
X0227246Y0012485D01*
X0228697Y0012485D01*
X0228697Y0013452D02*
X0228697Y0010550D01*
X0227246Y0010550D01*
X0226763Y0011034D01*
X0226763Y0012001D01*
X0220349Y0013452D02*
X0220349Y0010550D01*
D11*
X0217953Y0206693D03*
X0227953Y0206693D03*
X0227953Y0216693D03*
X0217953Y0216693D03*
X0207953Y0216693D03*
X0207953Y0206693D03*
X0197953Y0206693D03*
X0187953Y0206693D03*
X0187953Y0216693D03*
X0197953Y0216693D03*
X0177953Y0216693D03*
X0177953Y0206693D03*
X0167953Y0206693D03*
X0167953Y0216693D03*
X0157953Y0216693D03*
X0157953Y0206693D03*
X0147953Y0206693D03*
X0137953Y0206693D03*
X0137953Y0216693D03*
X0147953Y0216693D03*
X0127953Y0216693D03*
X0127953Y0206693D03*
X0117953Y0206693D03*
X0117953Y0216693D03*
X0107953Y0216693D03*
X0097953Y0216693D03*
X0097953Y0206693D03*
X0107953Y0206693D03*
X0087953Y0206693D03*
X0087953Y0216693D03*
X0077953Y0216693D03*
X0077953Y0206693D03*
X0067953Y0206693D03*
X0067953Y0216693D03*
X0057953Y0216693D03*
X0047953Y0216693D03*
X0047953Y0206693D03*
X0057953Y0206693D03*
X0037953Y0206693D03*
X0037953Y0216693D03*
D12*
X0039500Y0135000D03*
X0039500Y0125000D03*
X0049500Y0125000D03*
X0049500Y0135000D03*
X0049500Y0115000D03*
X0049500Y0105000D03*
X0049500Y0095000D03*
X0039500Y0095000D03*
X0039500Y0105000D03*
X0039500Y0115000D03*
D13*
X0058700Y0088200D03*
X0074300Y0083800D03*
X0073200Y0065000D03*
X0063800Y0061600D03*
X0050100Y0066500D03*
X0044100Y0053700D03*
X0071900Y0028100D03*
X0092700Y0026300D03*
X0092700Y0014700D03*
X0113500Y0033600D03*
X0122300Y0050200D03*
X0130000Y0057000D03*
X0119800Y0066700D03*
X0110800Y0065600D03*
X0110600Y0072200D03*
X0104700Y0073900D03*
X0104900Y0081500D03*
X0112900Y0083600D03*
X0143600Y0058000D03*
X0159500Y0034900D03*
X0191700Y0057200D03*
X0187400Y0106900D03*
X0159900Y0106900D03*
X0159800Y0107000D03*
X0139800Y0144900D03*
X0126400Y0160700D03*
X0105200Y0134400D03*
X0089300Y0119900D03*
X0080000Y0110000D03*
X0069400Y0124900D03*
X0018900Y0192800D03*
X0112800Y0052500D03*
X0125700Y0012900D03*
X0254400Y0065000D03*
X0255300Y0097500D03*
X0233000Y0195800D03*
D14*
X0007891Y0012266D02*
X0009732Y0009732D01*
X0012266Y0007891D01*
X0015245Y0006923D01*
X0015245Y0006923D01*
X0016811Y0006800D01*
X0249094Y0006800D01*
X0250661Y0006923D01*
X0253639Y0007891D01*
X0256173Y0009732D01*
X0258014Y0012266D01*
X0258982Y0015245D01*
X0259106Y0016811D01*
X0259106Y0215630D01*
X0258982Y0217196D01*
X0258014Y0220175D01*
X0256173Y0222709D01*
X0253639Y0224550D01*
X0250661Y0225518D01*
X0249094Y0225641D01*
X0016811Y0225641D01*
X0015245Y0225518D01*
X0012266Y0224550D01*
X0009732Y0222709D01*
X0007891Y0220175D01*
X0006923Y0217196D01*
X0006800Y0215630D01*
X0006800Y0150501D01*
X0021889Y0150501D01*
X0023998Y0149627D01*
X0023998Y0149627D01*
X0023998Y0149627D01*
X0025612Y0148014D01*
X0025612Y0148014D01*
X0026485Y0145905D01*
X0026485Y0084567D01*
X0025612Y0082459D01*
X0025612Y0082459D01*
X0023998Y0080845D01*
X0023998Y0080845D01*
X0021889Y0079972D01*
X0006800Y0079972D01*
X0006800Y0016811D01*
X0006923Y0015245D01*
X0007891Y0012266D01*
X0007849Y0012397D02*
X0015082Y0012397D01*
X0014638Y0012581D02*
X0017325Y0011468D01*
X0020234Y0011468D01*
X0022921Y0012581D01*
X0024978Y0014638D01*
X0026091Y0017325D01*
X0026091Y0020234D01*
X0024978Y0022921D01*
X0022921Y0024978D01*
X0020234Y0026091D01*
X0017325Y0026091D01*
X0014638Y0024978D01*
X0012581Y0022921D01*
X0011468Y0020234D01*
X0011468Y0017325D01*
X0012581Y0014638D01*
X0014638Y0012581D01*
X0013623Y0013596D02*
X0007459Y0013596D01*
X0007070Y0014794D02*
X0012516Y0014794D01*
X0012020Y0015993D02*
X0006864Y0015993D01*
X0006800Y0017191D02*
X0011523Y0017191D01*
X0011468Y0018390D02*
X0006800Y0018390D01*
X0006800Y0019588D02*
X0011468Y0019588D01*
X0011697Y0020787D02*
X0006800Y0020787D01*
X0006800Y0021985D02*
X0012193Y0021985D01*
X0012843Y0023184D02*
X0006800Y0023184D01*
X0006800Y0024382D02*
X0014042Y0024382D01*
X0016092Y0025581D02*
X0006800Y0025581D01*
X0006800Y0026779D02*
X0068354Y0026779D01*
X0068119Y0027348D02*
X0068695Y0025958D01*
X0069500Y0025153D01*
X0069500Y0014023D01*
X0069865Y0013141D01*
X0070541Y0012465D01*
X0070882Y0012324D01*
X0075165Y0008041D01*
X0075841Y0007365D01*
X0076723Y0007000D01*
X0087877Y0007000D01*
X0088759Y0007365D01*
X0092313Y0010919D01*
X0093452Y0010919D01*
X0094842Y0011495D01*
X0095905Y0012558D01*
X0096481Y0013948D01*
X0096481Y0015452D01*
X0095905Y0016842D01*
X0094842Y0017905D01*
X0093452Y0018481D01*
X0091948Y0018481D01*
X0090558Y0017905D01*
X0089495Y0016842D01*
X0088919Y0015452D01*
X0088919Y0014313D01*
X0086406Y0011800D01*
X0078194Y0011800D01*
X0074300Y0015694D01*
X0074300Y0025153D01*
X0075105Y0025958D01*
X0075681Y0027348D01*
X0075681Y0028852D01*
X0075105Y0030242D01*
X0074042Y0031305D01*
X0072652Y0031881D01*
X0071148Y0031881D01*
X0069758Y0031305D01*
X0068695Y0030242D01*
X0068119Y0028852D01*
X0068119Y0027348D01*
X0068119Y0027978D02*
X0006800Y0027978D01*
X0006800Y0029176D02*
X0068253Y0029176D01*
X0068827Y0030375D02*
X0006800Y0030375D01*
X0006800Y0031573D02*
X0070405Y0031573D01*
X0073395Y0031573D02*
X0076150Y0031573D01*
X0076150Y0030375D02*
X0074973Y0030375D01*
X0075547Y0029176D02*
X0076150Y0029176D01*
X0076150Y0027978D02*
X0075681Y0027978D01*
X0075446Y0026779D02*
X0076150Y0026779D01*
X0076150Y0025581D02*
X0074728Y0025581D01*
X0074300Y0024382D02*
X0076150Y0024382D01*
X0076150Y0023184D02*
X0074300Y0023184D01*
X0074300Y0021985D02*
X0076150Y0021985D01*
X0076150Y0020787D02*
X0074300Y0020787D01*
X0074300Y0019588D02*
X0076150Y0019588D01*
X0076150Y0018390D02*
X0074300Y0018390D01*
X0074300Y0017191D02*
X0076150Y0017191D01*
X0076150Y0016234D02*
X0076150Y0016035D01*
X0076888Y0014253D01*
X0076888Y0014253D01*
X0078253Y0012888D01*
X0080035Y0012150D01*
X0081965Y0012150D01*
X0083747Y0012888D01*
X0085112Y0014253D01*
X0085850Y0016035D01*
X0085850Y0040965D01*
X0085112Y0042747D01*
X0085112Y0042747D01*
X0083747Y0044112D01*
X0081965Y0044850D01*
X0048535Y0044850D01*
X0046753Y0044112D01*
X0046753Y0044112D01*
X0045388Y0042747D01*
X0044650Y0040965D01*
X0044650Y0039035D01*
X0045388Y0037253D01*
X0045388Y0037253D01*
X0046753Y0035888D01*
X0048535Y0035150D01*
X0076150Y0035150D01*
X0076150Y0016234D01*
X0076150Y0016035D02*
X0076150Y0016035D01*
X0076168Y0015993D02*
X0074300Y0015993D01*
X0075200Y0014794D02*
X0076664Y0014794D01*
X0076399Y0013596D02*
X0077546Y0013596D01*
X0078253Y0012888D02*
X0078253Y0012888D01*
X0077597Y0012397D02*
X0079439Y0012397D01*
X0082561Y0012397D02*
X0087003Y0012397D01*
X0088201Y0013596D02*
X0084454Y0013596D01*
X0083747Y0012888D02*
X0083747Y0012888D01*
X0085336Y0014794D02*
X0088919Y0014794D01*
X0089143Y0015993D02*
X0085832Y0015993D01*
X0085850Y0017191D02*
X0089844Y0017191D01*
X0091727Y0018390D02*
X0085850Y0018390D01*
X0085850Y0019588D02*
X0123300Y0019588D01*
X0123300Y0020406D02*
X0123300Y0015847D01*
X0122495Y0015042D01*
X0121919Y0013652D01*
X0121919Y0012148D01*
X0122495Y0010758D01*
X0123558Y0009695D01*
X0124948Y0009119D01*
X0126452Y0009119D01*
X0127842Y0009695D01*
X0128905Y0010758D01*
X0129481Y0012148D01*
X0129481Y0013652D01*
X0128905Y0015042D01*
X0128100Y0015847D01*
X0128100Y0021877D01*
X0127735Y0022759D01*
X0119294Y0031200D01*
X0137077Y0031200D01*
X0137959Y0031565D01*
X0144859Y0038465D01*
X0145535Y0039141D01*
X0145900Y0040023D01*
X0145900Y0054953D01*
X0146805Y0055858D01*
X0147381Y0057248D01*
X0147381Y0058752D01*
X0146805Y0060142D01*
X0145742Y0061205D01*
X0144352Y0061781D01*
X0142848Y0061781D01*
X0142553Y0061659D01*
X0143294Y0062400D01*
X0159906Y0062400D01*
X0163800Y0058506D01*
X0163800Y0013123D01*
X0164165Y0012241D01*
X0166765Y0009641D01*
X0167441Y0008965D01*
X0168323Y0008600D01*
X0189977Y0008600D01*
X0190859Y0008965D01*
X0193059Y0011165D01*
X0193735Y0011841D01*
X0194100Y0012723D01*
X0194100Y0054253D01*
X0194905Y0055058D01*
X0195481Y0056448D01*
X0195481Y0057587D01*
X0200494Y0062600D01*
X0251453Y0062600D01*
X0252258Y0061795D01*
X0253648Y0061219D01*
X0255152Y0061219D01*
X0256542Y0061795D01*
X0257605Y0062858D01*
X0258181Y0064248D01*
X0258181Y0065752D01*
X0257605Y0067142D01*
X0256542Y0068205D01*
X0255152Y0068781D01*
X0253648Y0068781D01*
X0252258Y0068205D01*
X0251453Y0067400D01*
X0199023Y0067400D01*
X0198141Y0067035D01*
X0192087Y0060981D01*
X0190948Y0060981D01*
X0189558Y0060405D01*
X0188495Y0059342D01*
X0187919Y0057952D01*
X0187919Y0056448D01*
X0188495Y0055058D01*
X0189300Y0054253D01*
X0189300Y0014194D01*
X0188506Y0013400D01*
X0169794Y0013400D01*
X0168600Y0014594D01*
X0168600Y0059977D01*
X0168235Y0060859D01*
X0167559Y0061535D01*
X0162259Y0066835D01*
X0161377Y0067200D01*
X0141823Y0067200D01*
X0140941Y0066835D01*
X0140265Y0066159D01*
X0136365Y0062259D01*
X0136000Y0061377D01*
X0136000Y0054894D01*
X0133706Y0052600D01*
X0125247Y0052600D01*
X0124442Y0053405D01*
X0123052Y0053981D01*
X0121548Y0053981D01*
X0120158Y0053405D01*
X0119095Y0052342D01*
X0118519Y0050952D01*
X0118519Y0049448D01*
X0119095Y0048058D01*
X0120158Y0046995D01*
X0121548Y0046419D01*
X0123052Y0046419D01*
X0124442Y0046995D01*
X0125247Y0047800D01*
X0135177Y0047800D01*
X0136059Y0048165D01*
X0139759Y0051865D01*
X0140435Y0052541D01*
X0140800Y0053423D01*
X0140800Y0055453D01*
X0141100Y0055153D01*
X0141100Y0041494D01*
X0135606Y0036000D01*
X0116447Y0036000D01*
X0115642Y0036805D01*
X0114252Y0037381D01*
X0112748Y0037381D01*
X0111358Y0036805D01*
X0110295Y0035742D01*
X0109719Y0034352D01*
X0109719Y0032848D01*
X0110295Y0031458D01*
X0111358Y0030395D01*
X0112748Y0029819D01*
X0113887Y0029819D01*
X0123300Y0020406D01*
X0122919Y0020787D02*
X0085850Y0020787D01*
X0085850Y0021985D02*
X0121721Y0021985D01*
X0120522Y0023184D02*
X0085850Y0023184D01*
X0085850Y0024382D02*
X0119324Y0024382D01*
X0118125Y0025581D02*
X0085850Y0025581D01*
X0085850Y0026779D02*
X0116927Y0026779D01*
X0115728Y0027978D02*
X0085850Y0027978D01*
X0085850Y0029176D02*
X0114530Y0029176D01*
X0111406Y0030375D02*
X0085850Y0030375D01*
X0085850Y0031573D02*
X0110247Y0031573D01*
X0109750Y0032772D02*
X0085850Y0032772D01*
X0085850Y0033970D02*
X0109719Y0033970D01*
X0110057Y0035169D02*
X0085850Y0035169D01*
X0085850Y0036367D02*
X0110920Y0036367D01*
X0113500Y0033600D02*
X0125700Y0021400D01*
X0125700Y0012900D01*
X0129088Y0011199D02*
X0165207Y0011199D01*
X0164101Y0012397D02*
X0129481Y0012397D01*
X0129481Y0013596D02*
X0163800Y0013596D01*
X0163800Y0014794D02*
X0129008Y0014794D01*
X0128100Y0015993D02*
X0163800Y0015993D01*
X0163800Y0017191D02*
X0128100Y0017191D01*
X0128100Y0018390D02*
X0163800Y0018390D01*
X0163800Y0019588D02*
X0128100Y0019588D01*
X0128100Y0020787D02*
X0163800Y0020787D01*
X0163800Y0021985D02*
X0128055Y0021985D01*
X0127310Y0023184D02*
X0163800Y0023184D01*
X0163800Y0024382D02*
X0126112Y0024382D01*
X0124913Y0025581D02*
X0163800Y0025581D01*
X0163800Y0026779D02*
X0123715Y0026779D01*
X0122516Y0027978D02*
X0163800Y0027978D01*
X0163800Y0029176D02*
X0121318Y0029176D01*
X0120119Y0030375D02*
X0163800Y0030375D01*
X0163800Y0031573D02*
X0137967Y0031573D01*
X0139166Y0032772D02*
X0163800Y0032772D01*
X0163800Y0033970D02*
X0140364Y0033970D01*
X0141563Y0035169D02*
X0163800Y0035169D01*
X0163800Y0036367D02*
X0142761Y0036367D01*
X0143960Y0037566D02*
X0163800Y0037566D01*
X0163800Y0038764D02*
X0145158Y0038764D01*
X0145875Y0039963D02*
X0163800Y0039963D01*
X0163800Y0041161D02*
X0145900Y0041161D01*
X0145900Y0042360D02*
X0163800Y0042360D01*
X0163800Y0043558D02*
X0145900Y0043558D01*
X0145900Y0044757D02*
X0163800Y0044757D01*
X0163800Y0045955D02*
X0145900Y0045955D01*
X0145900Y0047154D02*
X0163800Y0047154D01*
X0163800Y0048352D02*
X0145900Y0048352D01*
X0145900Y0049551D02*
X0163800Y0049551D01*
X0163800Y0050749D02*
X0145900Y0050749D01*
X0145900Y0051948D02*
X0163800Y0051948D01*
X0163800Y0053146D02*
X0145900Y0053146D01*
X0145900Y0054345D02*
X0163800Y0054345D01*
X0163800Y0055543D02*
X0146491Y0055543D01*
X0147172Y0056742D02*
X0163800Y0056742D01*
X0163800Y0057940D02*
X0147381Y0057940D01*
X0147221Y0059139D02*
X0163167Y0059139D01*
X0161968Y0060337D02*
X0146610Y0060337D01*
X0144944Y0061536D02*
X0160770Y0061536D01*
X0160900Y0064800D02*
X0166200Y0059500D01*
X0166200Y0013600D01*
X0168800Y0011000D01*
X0189500Y0011000D01*
X0191700Y0013200D01*
X0191700Y0057200D01*
X0199500Y0065000D01*
X0254400Y0065000D01*
X0257942Y0066330D02*
X0259106Y0066330D01*
X0259106Y0065132D02*
X0258181Y0065132D01*
X0258051Y0063933D02*
X0259106Y0063933D01*
X0259106Y0062734D02*
X0257482Y0062734D01*
X0255918Y0061536D02*
X0259106Y0061536D01*
X0259106Y0060337D02*
X0198232Y0060337D01*
X0197033Y0059139D02*
X0259106Y0059139D01*
X0259106Y0057940D02*
X0195835Y0057940D01*
X0195481Y0056742D02*
X0259106Y0056742D01*
X0259106Y0055543D02*
X0195106Y0055543D01*
X0194192Y0054345D02*
X0259106Y0054345D01*
X0259106Y0053146D02*
X0194100Y0053146D01*
X0194100Y0051948D02*
X0259106Y0051948D01*
X0259106Y0050749D02*
X0194100Y0050749D01*
X0194100Y0049551D02*
X0259106Y0049551D01*
X0259106Y0048352D02*
X0194100Y0048352D01*
X0194100Y0047154D02*
X0259106Y0047154D01*
X0259106Y0045955D02*
X0194100Y0045955D01*
X0194100Y0044757D02*
X0259106Y0044757D01*
X0259106Y0043558D02*
X0194100Y0043558D01*
X0194100Y0042360D02*
X0259106Y0042360D01*
X0259106Y0041161D02*
X0194100Y0041161D01*
X0194100Y0039963D02*
X0259106Y0039963D01*
X0259106Y0038764D02*
X0194100Y0038764D01*
X0194100Y0037566D02*
X0259106Y0037566D01*
X0259106Y0036367D02*
X0194100Y0036367D01*
X0194100Y0035169D02*
X0259106Y0035169D01*
X0259106Y0033970D02*
X0194100Y0033970D01*
X0194100Y0032772D02*
X0259106Y0032772D01*
X0259106Y0031573D02*
X0194100Y0031573D01*
X0194100Y0030375D02*
X0259106Y0030375D01*
X0259106Y0029176D02*
X0194100Y0029176D01*
X0194100Y0027978D02*
X0259106Y0027978D01*
X0259106Y0026779D02*
X0194100Y0026779D01*
X0194100Y0025581D02*
X0244439Y0025581D01*
X0245672Y0026091D02*
X0242984Y0024978D01*
X0240927Y0022921D01*
X0239814Y0020234D01*
X0239814Y0017325D01*
X0240927Y0014638D01*
X0242984Y0012581D01*
X0245672Y0011468D01*
X0248580Y0011468D01*
X0251268Y0012581D01*
X0253325Y0014638D01*
X0254438Y0017325D01*
X0254438Y0020234D01*
X0253325Y0022921D01*
X0251268Y0024978D01*
X0248580Y0026091D01*
X0245672Y0026091D01*
X0242388Y0024382D02*
X0194100Y0024382D01*
X0194100Y0023184D02*
X0241190Y0023184D01*
X0240540Y0021985D02*
X0194100Y0021985D01*
X0194100Y0020787D02*
X0240043Y0020787D01*
X0239814Y0019588D02*
X0194100Y0019588D01*
X0194100Y0018390D02*
X0239814Y0018390D01*
X0239870Y0017191D02*
X0194100Y0017191D01*
X0194100Y0015993D02*
X0240366Y0015993D01*
X0240863Y0014794D02*
X0230114Y0014794D01*
X0230647Y0014260D02*
X0229505Y0015402D01*
X0227890Y0015402D01*
X0226922Y0014435D01*
X0222488Y0014435D01*
X0222328Y0014275D01*
X0222168Y0014435D01*
X0222124Y0014435D01*
X0221157Y0015402D01*
X0219541Y0015402D01*
X0218574Y0014435D01*
X0218090Y0014435D01*
X0217606Y0013951D01*
X0216464Y0012809D01*
X0216464Y0009742D01*
X0217606Y0008600D01*
X0219222Y0008600D01*
X0219382Y0008760D01*
X0219541Y0008600D01*
X0223620Y0008600D01*
X0224281Y0009262D01*
X0224943Y0008600D01*
X0226439Y0008600D01*
X0227255Y0008600D01*
X0229505Y0008600D01*
X0230647Y0009742D01*
X0230647Y0013293D01*
X0230647Y0014260D01*
X0230647Y0013596D02*
X0241970Y0013596D01*
X0243428Y0012397D02*
X0230647Y0012397D01*
X0230647Y0011199D02*
X0257239Y0011199D01*
X0258057Y0012397D02*
X0250824Y0012397D01*
X0252282Y0013596D02*
X0258446Y0013596D01*
X0258836Y0014794D02*
X0253389Y0014794D01*
X0253886Y0015993D02*
X0259041Y0015993D01*
X0259106Y0017191D02*
X0254382Y0017191D01*
X0254438Y0018390D02*
X0259106Y0018390D01*
X0259106Y0019588D02*
X0254438Y0019588D01*
X0254209Y0020787D02*
X0259106Y0020787D01*
X0259106Y0021985D02*
X0253712Y0021985D01*
X0253062Y0023184D02*
X0259106Y0023184D01*
X0259106Y0024382D02*
X0251864Y0024382D01*
X0249813Y0025581D02*
X0259106Y0025581D01*
X0256368Y0010000D02*
X0230647Y0010000D01*
X0229707Y0008801D02*
X0254892Y0008801D01*
X0252753Y0007603D02*
X0088997Y0007603D01*
X0090196Y0008801D02*
X0167836Y0008801D01*
X0166406Y0010000D02*
X0128147Y0010000D01*
X0123253Y0010000D02*
X0091394Y0010000D01*
X0094127Y0011199D02*
X0122312Y0011199D01*
X0121919Y0012397D02*
X0095744Y0012397D01*
X0096335Y0013596D02*
X0121919Y0013596D01*
X0122392Y0014794D02*
X0096481Y0014794D01*
X0096257Y0015993D02*
X0123300Y0015993D01*
X0123300Y0017191D02*
X0095556Y0017191D01*
X0093673Y0018390D02*
X0123300Y0018390D01*
X0113500Y0033600D02*
X0136600Y0033600D01*
X0143500Y0040500D01*
X0143500Y0057900D01*
X0143600Y0058000D01*
X0141100Y0054345D02*
X0140800Y0054345D01*
X0140686Y0053146D02*
X0141100Y0053146D01*
X0141100Y0051948D02*
X0139842Y0051948D01*
X0138643Y0050749D02*
X0141100Y0050749D01*
X0141100Y0049551D02*
X0137445Y0049551D01*
X0136246Y0048352D02*
X0141100Y0048352D01*
X0141100Y0047154D02*
X0124601Y0047154D01*
X0122300Y0050200D02*
X0134700Y0050200D01*
X0138400Y0053900D01*
X0138400Y0060900D01*
X0142300Y0064800D01*
X0160900Y0064800D01*
X0162764Y0066330D02*
X0176428Y0066330D01*
X0176428Y0065132D02*
X0163963Y0065132D01*
X0165161Y0063933D02*
X0176428Y0063933D01*
X0176428Y0062734D02*
X0166360Y0062734D01*
X0167558Y0061536D02*
X0176428Y0061536D01*
X0176428Y0060337D02*
X0168451Y0060337D01*
X0168600Y0059139D02*
X0176428Y0059139D01*
X0176428Y0057940D02*
X0168600Y0057940D01*
X0168600Y0056742D02*
X0176428Y0056742D01*
X0176428Y0055543D02*
X0168600Y0055543D01*
X0168600Y0054345D02*
X0176428Y0054345D01*
X0176428Y0053146D02*
X0168600Y0053146D01*
X0168600Y0051948D02*
X0176428Y0051948D01*
X0176428Y0050749D02*
X0168600Y0050749D01*
X0168600Y0049551D02*
X0176428Y0049551D01*
X0176428Y0048352D02*
X0168600Y0048352D01*
X0168600Y0047154D02*
X0176428Y0047154D01*
X0176428Y0045955D02*
X0168600Y0045955D01*
X0168600Y0044757D02*
X0176428Y0044757D01*
X0176428Y0043558D02*
X0168600Y0043558D01*
X0168600Y0042360D02*
X0176428Y0042360D01*
X0176428Y0041161D02*
X0168600Y0041161D01*
X0168600Y0039963D02*
X0176428Y0039963D01*
X0176428Y0038764D02*
X0168600Y0038764D01*
X0168600Y0037566D02*
X0176428Y0037566D01*
X0176428Y0036367D02*
X0168600Y0036367D01*
X0168600Y0035169D02*
X0176428Y0035169D01*
X0176428Y0033970D02*
X0168600Y0033970D01*
X0168600Y0032772D02*
X0176428Y0032772D01*
X0176428Y0031573D02*
X0168600Y0031573D01*
X0168600Y0030375D02*
X0176428Y0030375D01*
X0176428Y0029176D02*
X0168600Y0029176D01*
X0168600Y0027978D02*
X0176428Y0027978D01*
X0176428Y0026779D02*
X0168600Y0026779D01*
X0168600Y0025581D02*
X0176428Y0025581D01*
X0176428Y0024382D02*
X0168600Y0024382D01*
X0168600Y0023184D02*
X0176428Y0023184D01*
X0176428Y0021985D02*
X0168600Y0021985D01*
X0168600Y0020787D02*
X0176428Y0020787D01*
X0176428Y0019607D02*
X0177302Y0017498D01*
X0178916Y0015884D01*
X0181024Y0015011D01*
X0183307Y0015011D01*
X0185415Y0015884D01*
X0187029Y0017498D01*
X0187902Y0019607D01*
X0187902Y0020002D01*
X0187902Y0080944D01*
X0187029Y0083053D01*
X0185415Y0084667D01*
X0183307Y0085540D01*
X0181024Y0085540D01*
X0178916Y0084667D01*
X0178916Y0084667D01*
X0177302Y0083053D01*
X0177302Y0083053D01*
X0176428Y0080944D01*
X0176428Y0019607D01*
X0176436Y0019588D02*
X0168600Y0019588D01*
X0168600Y0018390D02*
X0176933Y0018390D01*
X0177302Y0017498D02*
X0177302Y0017498D01*
X0177609Y0017191D02*
X0168600Y0017191D01*
X0168600Y0015993D02*
X0178807Y0015993D01*
X0178916Y0015884D02*
X0178916Y0015884D01*
X0183307Y0015011D02*
X0183307Y0015011D01*
X0185523Y0015993D02*
X0189300Y0015993D01*
X0189300Y0017191D02*
X0186722Y0017191D01*
X0187029Y0017498D02*
X0187029Y0017498D01*
X0187398Y0018390D02*
X0189300Y0018390D01*
X0189300Y0019588D02*
X0187895Y0019588D01*
X0187902Y0020787D02*
X0189300Y0020787D01*
X0189300Y0021985D02*
X0187902Y0021985D01*
X0187902Y0023184D02*
X0189300Y0023184D01*
X0189300Y0024382D02*
X0187902Y0024382D01*
X0187902Y0025581D02*
X0189300Y0025581D01*
X0189300Y0026779D02*
X0187902Y0026779D01*
X0187902Y0027978D02*
X0189300Y0027978D01*
X0189300Y0029176D02*
X0187902Y0029176D01*
X0187902Y0030375D02*
X0189300Y0030375D01*
X0189300Y0031573D02*
X0187902Y0031573D01*
X0187902Y0032772D02*
X0189300Y0032772D01*
X0189300Y0033970D02*
X0187902Y0033970D01*
X0187902Y0035169D02*
X0189300Y0035169D01*
X0189300Y0036367D02*
X0187902Y0036367D01*
X0187902Y0037566D02*
X0189300Y0037566D01*
X0189300Y0038764D02*
X0187902Y0038764D01*
X0187902Y0039963D02*
X0189300Y0039963D01*
X0189300Y0041161D02*
X0187902Y0041161D01*
X0187902Y0042360D02*
X0189300Y0042360D01*
X0189300Y0043558D02*
X0187902Y0043558D01*
X0187902Y0044757D02*
X0189300Y0044757D01*
X0189300Y0045955D02*
X0187902Y0045955D01*
X0187902Y0047154D02*
X0189300Y0047154D01*
X0189300Y0048352D02*
X0187902Y0048352D01*
X0187902Y0049551D02*
X0189300Y0049551D01*
X0189300Y0050749D02*
X0187902Y0050749D01*
X0187902Y0051948D02*
X0189300Y0051948D01*
X0189300Y0053146D02*
X0187902Y0053146D01*
X0187902Y0054345D02*
X0189208Y0054345D01*
X0188294Y0055543D02*
X0187902Y0055543D01*
X0187902Y0056742D02*
X0187919Y0056742D01*
X0187902Y0057940D02*
X0187919Y0057940D01*
X0187902Y0059139D02*
X0188411Y0059139D01*
X0187902Y0060337D02*
X0189490Y0060337D01*
X0187902Y0061536D02*
X0192642Y0061536D01*
X0193840Y0062734D02*
X0187902Y0062734D01*
X0187902Y0063933D02*
X0195039Y0063933D01*
X0196237Y0065132D02*
X0187902Y0065132D01*
X0187902Y0066330D02*
X0197436Y0066330D01*
X0199430Y0061536D02*
X0252882Y0061536D01*
X0251581Y0067529D02*
X0187902Y0067529D01*
X0187902Y0068727D02*
X0240622Y0068727D01*
X0240777Y0068572D02*
X0242090Y0068028D01*
X0243510Y0068028D01*
X0244823Y0068572D01*
X0245828Y0069577D01*
X0246372Y0070890D01*
X0246372Y0072310D01*
X0245828Y0073623D01*
X0244823Y0074628D01*
X0243510Y0075172D01*
X0242090Y0075172D01*
X0240777Y0074628D01*
X0239772Y0073623D01*
X0239228Y0072310D01*
X0239228Y0070890D01*
X0239772Y0069577D01*
X0240777Y0068572D01*
X0239628Y0069926D02*
X0187902Y0069926D01*
X0187902Y0071124D02*
X0239228Y0071124D01*
X0239233Y0072323D02*
X0187902Y0072323D01*
X0187902Y0073521D02*
X0239730Y0073521D01*
X0240998Y0074720D02*
X0187902Y0074720D01*
X0187902Y0075918D02*
X0259106Y0075918D01*
X0259106Y0074720D02*
X0244602Y0074720D01*
X0245870Y0073521D02*
X0259106Y0073521D01*
X0259106Y0072323D02*
X0246367Y0072323D01*
X0246372Y0071124D02*
X0259106Y0071124D01*
X0259106Y0069926D02*
X0245972Y0069926D01*
X0244978Y0068727D02*
X0253517Y0068727D01*
X0255283Y0068727D02*
X0259106Y0068727D01*
X0259106Y0067529D02*
X0257219Y0067529D01*
X0259106Y0077117D02*
X0187902Y0077117D01*
X0187902Y0078315D02*
X0259106Y0078315D01*
X0259106Y0079514D02*
X0187902Y0079514D01*
X0187902Y0080712D02*
X0259106Y0080712D01*
X0259106Y0081911D02*
X0187502Y0081911D01*
X0187029Y0083053D02*
X0187029Y0083053D01*
X0186973Y0083109D02*
X0259106Y0083109D01*
X0259106Y0084308D02*
X0185774Y0084308D01*
X0185415Y0084667D02*
X0185415Y0084667D01*
X0183388Y0085506D02*
X0259106Y0085506D01*
X0259106Y0086705D02*
X0247899Y0086705D01*
X0247759Y0086565D02*
X0254913Y0093719D01*
X0256052Y0093719D01*
X0257442Y0094295D01*
X0258505Y0095358D01*
X0259081Y0096748D01*
X0259081Y0098252D01*
X0258505Y0099642D01*
X0257442Y0100705D01*
X0256052Y0101281D01*
X0254548Y0101281D01*
X0253158Y0100705D01*
X0252095Y0099642D01*
X0251519Y0098252D01*
X0251519Y0097113D01*
X0245406Y0091000D01*
X0165423Y0091000D01*
X0164541Y0090635D01*
X0161065Y0087159D01*
X0160700Y0086277D01*
X0160700Y0075294D01*
X0158606Y0073200D01*
X0131723Y0073200D01*
X0130841Y0072835D01*
X0128641Y0070635D01*
X0127965Y0069959D01*
X0127600Y0069077D01*
X0127600Y0059947D01*
X0126795Y0059142D01*
X0126219Y0057752D01*
X0126219Y0056248D01*
X0126795Y0054858D01*
X0127858Y0053795D01*
X0129248Y0053219D01*
X0130752Y0053219D01*
X0132142Y0053795D01*
X0133205Y0054858D01*
X0133781Y0056248D01*
X0133781Y0057752D01*
X0133205Y0059142D01*
X0132400Y0059947D01*
X0132400Y0067606D01*
X0133194Y0068400D01*
X0160077Y0068400D01*
X0160959Y0068765D01*
X0161635Y0069441D01*
X0164459Y0072265D01*
X0165135Y0072941D01*
X0165500Y0073823D01*
X0165500Y0084806D01*
X0166894Y0086200D01*
X0246877Y0086200D01*
X0247759Y0086565D01*
X0249097Y0087903D02*
X0259106Y0087903D01*
X0259106Y0089102D02*
X0250296Y0089102D01*
X0251494Y0090300D02*
X0259106Y0090300D01*
X0259106Y0091499D02*
X0252693Y0091499D01*
X0253891Y0092697D02*
X0259106Y0092697D01*
X0259106Y0093896D02*
X0256479Y0093896D01*
X0258242Y0095094D02*
X0259106Y0095094D01*
X0259106Y0096293D02*
X0258893Y0096293D01*
X0259081Y0097491D02*
X0259106Y0097491D01*
X0259106Y0098690D02*
X0258900Y0098690D01*
X0259106Y0099888D02*
X0258259Y0099888D01*
X0259106Y0101087D02*
X0256521Y0101087D01*
X0254079Y0101087D02*
X0225981Y0101087D01*
X0225759Y0100865D02*
X0226435Y0101541D01*
X0226800Y0102423D01*
X0226800Y0186206D01*
X0232613Y0192019D01*
X0233752Y0192019D01*
X0235142Y0192595D01*
X0236205Y0193658D01*
X0236781Y0195048D01*
X0236781Y0196552D01*
X0236205Y0197942D01*
X0235142Y0199005D01*
X0233752Y0199581D01*
X0232248Y0199581D01*
X0230858Y0199005D01*
X0229795Y0197942D01*
X0229219Y0196552D01*
X0229219Y0195413D01*
X0222365Y0188559D01*
X0222000Y0187677D01*
X0222000Y0103894D01*
X0216506Y0098400D01*
X0146323Y0098400D01*
X0145441Y0098035D01*
X0144765Y0097359D01*
X0135509Y0088103D01*
X0135600Y0088323D01*
X0135600Y0137306D01*
X0139413Y0141119D01*
X0140552Y0141119D01*
X0141942Y0141695D01*
X0143005Y0142758D01*
X0143581Y0144148D01*
X0143581Y0145652D01*
X0143005Y0147042D01*
X0141942Y0148105D01*
X0140552Y0148681D01*
X0139048Y0148681D01*
X0137658Y0148105D01*
X0136595Y0147042D01*
X0136019Y0145652D01*
X0136019Y0144513D01*
X0131165Y0139659D01*
X0130800Y0138777D01*
X0130800Y0089794D01*
X0128800Y0087794D01*
X0128800Y0157753D01*
X0129605Y0158558D01*
X0130181Y0159948D01*
X0130181Y0161452D01*
X0129605Y0162842D01*
X0128542Y0163905D01*
X0127152Y0164481D01*
X0125648Y0164481D01*
X0124258Y0163905D01*
X0123195Y0162842D01*
X0122619Y0161452D01*
X0122619Y0159948D01*
X0123195Y0158558D01*
X0124000Y0157753D01*
X0124000Y0088994D01*
X0121500Y0086494D01*
X0121500Y0118377D01*
X0121135Y0119259D01*
X0120459Y0119935D01*
X0118459Y0121935D01*
X0117577Y0122300D01*
X0092247Y0122300D01*
X0091700Y0122847D01*
X0091700Y0196077D01*
X0091335Y0196959D01*
X0086533Y0201761D01*
X0086938Y0201593D01*
X0088967Y0201593D01*
X0090842Y0202369D01*
X0092276Y0203804D01*
X0092953Y0205437D01*
X0093629Y0203804D01*
X0095064Y0202369D01*
X0096938Y0201593D01*
X0098967Y0201593D01*
X0100842Y0202369D01*
X0102276Y0203804D01*
X0102953Y0205437D01*
X0103629Y0203804D01*
X0105064Y0202369D01*
X0106938Y0201593D01*
X0108967Y0201593D01*
X0110842Y0202369D01*
X0112276Y0203804D01*
X0112953Y0205437D01*
X0113629Y0203804D01*
X0115064Y0202369D01*
X0116938Y0201593D01*
X0118967Y0201593D01*
X0120842Y0202369D01*
X0122276Y0203804D01*
X0122953Y0205437D01*
X0123629Y0203804D01*
X0125064Y0202369D01*
X0126938Y0201593D01*
X0128967Y0201593D01*
X0130842Y0202369D01*
X0132276Y0203804D01*
X0132953Y0205437D01*
X0133629Y0203804D01*
X0135064Y0202369D01*
X0136938Y0201593D01*
X0138967Y0201593D01*
X0140842Y0202369D01*
X0142276Y0203804D01*
X0142953Y0205437D01*
X0143629Y0203804D01*
X0145064Y0202369D01*
X0146938Y0201593D01*
X0148967Y0201593D01*
X0150842Y0202369D01*
X0152276Y0203804D01*
X0153053Y0205678D01*
X0153053Y0207707D01*
X0152276Y0209582D01*
X0150842Y0211016D01*
X0149209Y0211693D01*
X0150842Y0212369D01*
X0152276Y0213804D01*
X0152953Y0215437D01*
X0153629Y0213804D01*
X0155064Y0212369D01*
X0156938Y0211593D01*
X0158967Y0211593D01*
X0160842Y0212369D01*
X0162276Y0213804D01*
X0162953Y0215437D01*
X0163629Y0213804D01*
X0165064Y0212369D01*
X0166697Y0211693D01*
X0165064Y0211016D01*
X0163629Y0209582D01*
X0162853Y0207707D01*
X0162853Y0205678D01*
X0163629Y0203804D01*
X0165064Y0202369D01*
X0166938Y0201593D01*
X0168967Y0201593D01*
X0170842Y0202369D01*
X0172276Y0203804D01*
X0172953Y0205437D01*
X0173629Y0203804D01*
X0175064Y0202369D01*
X0176938Y0201593D01*
X0178967Y0201593D01*
X0180842Y0202369D01*
X0182276Y0203804D01*
X0182953Y0205437D01*
X0183629Y0203804D01*
X0185064Y0202369D01*
X0186938Y0201593D01*
X0188967Y0201593D01*
X0190842Y0202369D01*
X0192276Y0203804D01*
X0192953Y0205437D01*
X0193629Y0203804D01*
X0195064Y0202369D01*
X0196938Y0201593D01*
X0198967Y0201593D01*
X0200842Y0202369D01*
X0202276Y0203804D01*
X0202953Y0205437D01*
X0203629Y0203804D01*
X0205064Y0202369D01*
X0206938Y0201593D01*
X0208967Y0201593D01*
X0210842Y0202369D01*
X0212276Y0203804D01*
X0212953Y0205437D01*
X0213629Y0203804D01*
X0215064Y0202369D01*
X0216938Y0201593D01*
X0218967Y0201593D01*
X0220842Y0202369D01*
X0222276Y0203804D01*
X0223053Y0205678D01*
X0223053Y0207707D01*
X0222276Y0209582D01*
X0220842Y0211016D01*
X0219209Y0211693D01*
X0220842Y0212369D01*
X0222276Y0213804D01*
X0222953Y0215437D01*
X0223629Y0213804D01*
X0225064Y0212369D01*
X0226938Y0211593D01*
X0228967Y0211593D01*
X0230842Y0212369D01*
X0232276Y0213804D01*
X0233053Y0215678D01*
X0233053Y0217707D01*
X0232276Y0219582D01*
X0230842Y0221016D01*
X0228967Y0221793D01*
X0226938Y0221793D01*
X0225064Y0221016D01*
X0223629Y0219582D01*
X0222953Y0217949D01*
X0222276Y0219582D01*
X0220842Y0221016D01*
X0218967Y0221793D01*
X0216938Y0221793D01*
X0215064Y0221016D01*
X0213629Y0219582D01*
X0212953Y0217949D01*
X0212276Y0219582D01*
X0210842Y0221016D01*
X0208967Y0221793D01*
X0206938Y0221793D01*
X0205064Y0221016D01*
X0203629Y0219582D01*
X0202853Y0217707D01*
X0202853Y0215678D01*
X0203629Y0213804D01*
X0205064Y0212369D01*
X0206697Y0211693D01*
X0205064Y0211016D01*
X0203629Y0209582D01*
X0202953Y0207949D01*
X0202276Y0209582D01*
X0200842Y0211016D01*
X0198967Y0211793D01*
X0196938Y0211793D01*
X0195064Y0211016D01*
X0193629Y0209582D01*
X0192953Y0207949D01*
X0192276Y0209582D01*
X0190842Y0211016D01*
X0189209Y0211693D01*
X0190842Y0212369D01*
X0192276Y0213804D01*
X0193053Y0215678D01*
X0193053Y0217707D01*
X0192276Y0219582D01*
X0190842Y0221016D01*
X0188967Y0221793D01*
X0186938Y0221793D01*
X0185064Y0221016D01*
X0183629Y0219582D01*
X0182853Y0217707D01*
X0182853Y0215678D01*
X0183629Y0213804D01*
X0185064Y0212369D01*
X0186697Y0211693D01*
X0185064Y0211016D01*
X0183629Y0209582D01*
X0182953Y0207949D01*
X0182276Y0209582D01*
X0180842Y0211016D01*
X0178967Y0211793D01*
X0176938Y0211793D01*
X0175064Y0211016D01*
X0173629Y0209582D01*
X0172953Y0207949D01*
X0172276Y0209582D01*
X0170842Y0211016D01*
X0169209Y0211693D01*
X0170842Y0212369D01*
X0172276Y0213804D01*
X0173053Y0215678D01*
X0173053Y0217707D01*
X0172276Y0219582D01*
X0170842Y0221016D01*
X0168967Y0221793D01*
X0166938Y0221793D01*
X0165064Y0221016D01*
X0163629Y0219582D01*
X0162953Y0217949D01*
X0162276Y0219582D01*
X0160842Y0221016D01*
X0158967Y0221793D01*
X0156938Y0221793D01*
X0155064Y0221016D01*
X0153629Y0219582D01*
X0152953Y0217949D01*
X0152276Y0219582D01*
X0150842Y0221016D01*
X0148967Y0221793D01*
X0146938Y0221793D01*
X0145064Y0221016D01*
X0143629Y0219582D01*
X0142953Y0217949D01*
X0142276Y0219582D01*
X0140842Y0221016D01*
X0138967Y0221793D01*
X0136938Y0221793D01*
X0135064Y0221016D01*
X0133629Y0219582D01*
X0132853Y0217707D01*
X0132853Y0215678D01*
X0133629Y0213804D01*
X0135064Y0212369D01*
X0136697Y0211693D01*
X0135064Y0211016D01*
X0133629Y0209582D01*
X0132953Y0207949D01*
X0132276Y0209582D01*
X0130842Y0211016D01*
X0128967Y0211793D01*
X0126938Y0211793D01*
X0125064Y0211016D01*
X0123629Y0209582D01*
X0122953Y0207949D01*
X0122276Y0209582D01*
X0120842Y0211016D01*
X0119209Y0211693D01*
X0120842Y0212369D01*
X0122276Y0213804D01*
X0123053Y0215678D01*
X0123053Y0217707D01*
X0122276Y0219582D01*
X0120842Y0221016D01*
X0118967Y0221793D01*
X0116938Y0221793D01*
X0115064Y0221016D01*
X0113629Y0219582D01*
X0112953Y0217949D01*
X0112276Y0219582D01*
X0110842Y0221016D01*
X0108967Y0221793D01*
X0106938Y0221793D01*
X0105064Y0221016D01*
X0103629Y0219582D01*
X0102853Y0217707D01*
X0102853Y0215678D01*
X0103629Y0213804D01*
X0105064Y0212369D01*
X0106697Y0211693D01*
X0105064Y0211016D01*
X0103629Y0209582D01*
X0102953Y0207949D01*
X0102276Y0209582D01*
X0100842Y0211016D01*
X0098967Y0211793D01*
X0096938Y0211793D01*
X0095064Y0211016D01*
X0093629Y0209582D01*
X0092953Y0207949D01*
X0092276Y0209582D01*
X0090842Y0211016D01*
X0089209Y0211693D01*
X0090842Y0212369D01*
X0092276Y0213804D01*
X0093053Y0215678D01*
X0093053Y0217707D01*
X0092276Y0219582D01*
X0090842Y0221016D01*
X0088967Y0221793D01*
X0086938Y0221793D01*
X0085064Y0221016D01*
X0083629Y0219582D01*
X0082953Y0217949D01*
X0082276Y0219582D01*
X0080842Y0221016D01*
X0078967Y0221793D01*
X0076938Y0221793D01*
X0075064Y0221016D01*
X0073629Y0219582D01*
X0072953Y0217949D01*
X0072276Y0219582D01*
X0070842Y0221016D01*
X0068967Y0221793D01*
X0066938Y0221793D01*
X0065064Y0221016D01*
X0063629Y0219582D01*
X0062853Y0217707D01*
X0062853Y0215678D01*
X0063629Y0213804D01*
X0065064Y0212369D01*
X0066697Y0211693D01*
X0065064Y0211016D01*
X0063629Y0209582D01*
X0062953Y0207949D01*
X0062276Y0209582D01*
X0060842Y0211016D01*
X0058967Y0211793D01*
X0056938Y0211793D01*
X0055064Y0211016D01*
X0053629Y0209582D01*
X0052953Y0207949D01*
X0052276Y0209582D01*
X0050842Y0211016D01*
X0049209Y0211693D01*
X0050842Y0212369D01*
X0052276Y0213804D01*
X0053053Y0215678D01*
X0053053Y0217707D01*
X0052276Y0219582D01*
X0050842Y0221016D01*
X0048967Y0221793D01*
X0046938Y0221793D01*
X0045064Y0221016D01*
X0043629Y0219582D01*
X0042953Y0217949D01*
X0042276Y0219582D01*
X0040842Y0221016D01*
X0038967Y0221793D01*
X0036938Y0221793D01*
X0035064Y0221016D01*
X0033629Y0219582D01*
X0032853Y0217707D01*
X0032853Y0215678D01*
X0033629Y0213804D01*
X0035064Y0212369D01*
X0036697Y0211693D01*
X0035064Y0211016D01*
X0033629Y0209582D01*
X0032853Y0207707D01*
X0032853Y0205678D01*
X0033629Y0203804D01*
X0035064Y0202369D01*
X0036938Y0201593D01*
X0038967Y0201593D01*
X0040842Y0202369D01*
X0042276Y0203804D01*
X0042953Y0205437D01*
X0043629Y0203804D01*
X0045064Y0202369D01*
X0046938Y0201593D01*
X0048967Y0201593D01*
X0050842Y0202369D01*
X0052276Y0203804D01*
X0052953Y0205437D01*
X0053629Y0203804D01*
X0055064Y0202369D01*
X0056938Y0201593D01*
X0058967Y0201593D01*
X0060842Y0202369D01*
X0062276Y0203804D01*
X0062953Y0205437D01*
X0063629Y0203804D01*
X0065064Y0202369D01*
X0066938Y0201593D01*
X0068967Y0201593D01*
X0070600Y0202269D01*
X0070600Y0172223D01*
X0070965Y0171341D01*
X0071641Y0170665D01*
X0077600Y0164706D01*
X0077600Y0112947D01*
X0076795Y0112142D01*
X0076700Y0111914D01*
X0076700Y0152077D01*
X0076335Y0152959D01*
X0075659Y0153635D01*
X0072759Y0156535D01*
X0071877Y0156900D01*
X0022794Y0156900D01*
X0021300Y0158394D01*
X0021300Y0189853D01*
X0022105Y0190658D01*
X0022681Y0192048D01*
X0022681Y0193552D01*
X0022105Y0194942D01*
X0021042Y0196005D01*
X0019652Y0196581D01*
X0018148Y0196581D01*
X0016758Y0196005D01*
X0015695Y0194942D01*
X0015119Y0193552D01*
X0015119Y0192048D01*
X0015695Y0190658D01*
X0016500Y0189853D01*
X0016500Y0156923D01*
X0016865Y0156041D01*
X0019765Y0153141D01*
X0019765Y0153141D01*
X0020441Y0152465D01*
X0021323Y0152100D01*
X0070406Y0152100D01*
X0071900Y0150606D01*
X0071900Y0127747D01*
X0071542Y0128105D01*
X0070152Y0128681D01*
X0068648Y0128681D01*
X0067258Y0128105D01*
X0066195Y0127042D01*
X0065619Y0125652D01*
X0065619Y0124148D01*
X0066195Y0122758D01*
X0067100Y0121853D01*
X0067100Y0069123D01*
X0067465Y0068241D01*
X0068141Y0067565D01*
X0069576Y0066130D01*
X0069419Y0065752D01*
X0069419Y0064248D01*
X0069995Y0062858D01*
X0071058Y0061795D01*
X0072448Y0061219D01*
X0073952Y0061219D01*
X0075342Y0061795D01*
X0076405Y0062858D01*
X0076981Y0064248D01*
X0076981Y0065752D01*
X0076405Y0067142D01*
X0075342Y0068205D01*
X0073952Y0068781D01*
X0073713Y0068781D01*
X0071900Y0070594D01*
X0071900Y0080853D01*
X0072158Y0080595D01*
X0073548Y0080019D01*
X0075052Y0080019D01*
X0076442Y0080595D01*
X0077505Y0081658D01*
X0077986Y0082819D01*
X0080665Y0080141D01*
X0081341Y0079465D01*
X0082223Y0079100D01*
X0101953Y0079100D01*
X0102758Y0078295D01*
X0104148Y0077719D01*
X0105652Y0077719D01*
X0107042Y0078295D01*
X0108105Y0079358D01*
X0108681Y0080748D01*
X0108681Y0082252D01*
X0108105Y0083642D01*
X0107042Y0084705D01*
X0105652Y0085281D01*
X0104148Y0085281D01*
X0102758Y0084705D01*
X0101953Y0083900D01*
X0083694Y0083900D01*
X0082400Y0085194D01*
X0082400Y0107053D01*
X0083205Y0107858D01*
X0083781Y0109248D01*
X0083781Y0110752D01*
X0083205Y0112142D01*
X0082400Y0112947D01*
X0082400Y0166177D01*
X0082035Y0167059D01*
X0075400Y0173694D01*
X0075400Y0202494D01*
X0076072Y0202152D01*
X0076805Y0201914D01*
X0077567Y0201793D01*
X0077667Y0201793D01*
X0077667Y0206407D01*
X0078239Y0206407D01*
X0078239Y0201793D01*
X0078338Y0201793D01*
X0079100Y0201914D01*
X0079834Y0202152D01*
X0080400Y0202440D01*
X0080400Y0201623D01*
X0080765Y0200741D01*
X0081441Y0200065D01*
X0086900Y0194606D01*
X0086900Y0122847D01*
X0086095Y0122042D01*
X0085519Y0120652D01*
X0085519Y0119148D01*
X0086095Y0117758D01*
X0087158Y0116695D01*
X0088548Y0116119D01*
X0090052Y0116119D01*
X0091442Y0116695D01*
X0092247Y0117500D01*
X0116106Y0117500D01*
X0116700Y0116906D01*
X0116700Y0086694D01*
X0116006Y0086000D01*
X0115847Y0086000D01*
X0115042Y0086805D01*
X0113652Y0087381D01*
X0112148Y0087381D01*
X0110758Y0086805D01*
X0109695Y0085742D01*
X0109119Y0084352D01*
X0109119Y0082848D01*
X0109695Y0081458D01*
X0110758Y0080395D01*
X0112148Y0079819D01*
X0113652Y0079819D01*
X0115042Y0080395D01*
X0115847Y0081200D01*
X0116206Y0081200D01*
X0110987Y0075981D01*
X0109848Y0075981D01*
X0108458Y0075405D01*
X0108254Y0075201D01*
X0107905Y0076042D01*
X0106842Y0077105D01*
X0105452Y0077681D01*
X0103948Y0077681D01*
X0102558Y0077105D01*
X0101495Y0076042D01*
X0100919Y0074652D01*
X0100919Y0073148D01*
X0101495Y0071758D01*
X0102300Y0070953D01*
X0102300Y0064794D01*
X0091006Y0053500D01*
X0057894Y0053500D01*
X0052500Y0058894D01*
X0052500Y0063553D01*
X0053305Y0064358D01*
X0053881Y0065748D01*
X0053881Y0067252D01*
X0053305Y0068642D01*
X0052242Y0069705D01*
X0050852Y0070281D01*
X0049348Y0070281D01*
X0047958Y0069705D01*
X0046895Y0068642D01*
X0046319Y0067252D01*
X0046319Y0065748D01*
X0046895Y0064358D01*
X0047700Y0063553D01*
X0047700Y0057423D01*
X0048065Y0056541D01*
X0054865Y0049741D01*
X0055541Y0049065D01*
X0056423Y0048700D01*
X0092477Y0048700D01*
X0093359Y0049065D01*
X0094035Y0049741D01*
X0106735Y0062441D01*
X0107100Y0063323D01*
X0107100Y0064652D01*
X0107595Y0063458D01*
X0108658Y0062395D01*
X0110048Y0061819D01*
X0111552Y0061819D01*
X0112942Y0062395D01*
X0114005Y0063458D01*
X0114581Y0064848D01*
X0114581Y0066352D01*
X0114454Y0066660D01*
X0116565Y0068771D01*
X0116019Y0067452D01*
X0116019Y0065948D01*
X0116595Y0064558D01*
X0117658Y0063495D01*
X0119048Y0062919D01*
X0120552Y0062919D01*
X0121942Y0063495D01*
X0123005Y0064558D01*
X0123581Y0065948D01*
X0123581Y0067452D01*
X0123014Y0068820D01*
X0147794Y0093600D01*
X0217977Y0093600D01*
X0218859Y0093965D01*
X0225759Y0100865D01*
X0224782Y0099888D02*
X0252341Y0099888D01*
X0251700Y0098690D02*
X0223584Y0098690D01*
X0222385Y0097491D02*
X0251519Y0097491D01*
X0250699Y0096293D02*
X0221187Y0096293D01*
X0219988Y0095094D02*
X0249500Y0095094D01*
X0248302Y0093896D02*
X0218691Y0093896D01*
X0217500Y0096000D02*
X0224400Y0102900D01*
X0224400Y0187200D01*
X0233000Y0195800D01*
X0236781Y0195769D02*
X0259106Y0195769D01*
X0259106Y0194571D02*
X0236583Y0194571D01*
X0235920Y0193372D02*
X0259106Y0193372D01*
X0259106Y0192174D02*
X0234126Y0192174D01*
X0231569Y0190975D02*
X0259106Y0190975D01*
X0259106Y0189777D02*
X0230371Y0189777D01*
X0229172Y0188578D02*
X0259106Y0188578D01*
X0259106Y0187380D02*
X0227974Y0187380D01*
X0226800Y0186181D02*
X0259106Y0186181D01*
X0259106Y0184983D02*
X0226800Y0184983D01*
X0226800Y0183784D02*
X0259106Y0183784D01*
X0259106Y0182586D02*
X0226800Y0182586D01*
X0226800Y0181387D02*
X0259106Y0181387D01*
X0259106Y0180189D02*
X0226800Y0180189D01*
X0226800Y0178990D02*
X0259106Y0178990D01*
X0259106Y0177792D02*
X0226800Y0177792D01*
X0226800Y0176593D02*
X0259106Y0176593D01*
X0259106Y0175395D02*
X0226800Y0175395D01*
X0226800Y0174196D02*
X0259106Y0174196D01*
X0259106Y0172998D02*
X0226800Y0172998D01*
X0226800Y0171799D02*
X0259106Y0171799D01*
X0259106Y0170601D02*
X0226800Y0170601D01*
X0226800Y0169402D02*
X0259106Y0169402D01*
X0259106Y0168203D02*
X0226800Y0168203D01*
X0226800Y0167005D02*
X0259106Y0167005D01*
X0259106Y0165806D02*
X0226800Y0165806D01*
X0226800Y0164608D02*
X0259106Y0164608D01*
X0259106Y0163409D02*
X0226800Y0163409D01*
X0226800Y0162211D02*
X0259106Y0162211D01*
X0259106Y0161012D02*
X0226800Y0161012D01*
X0226800Y0159814D02*
X0259106Y0159814D01*
X0259106Y0158615D02*
X0226800Y0158615D01*
X0226800Y0157417D02*
X0259106Y0157417D01*
X0259106Y0156218D02*
X0226800Y0156218D01*
X0226800Y0155020D02*
X0259106Y0155020D01*
X0259106Y0153821D02*
X0226800Y0153821D01*
X0226800Y0152623D02*
X0259106Y0152623D01*
X0259106Y0151424D02*
X0226800Y0151424D01*
X0226800Y0150226D02*
X0259106Y0150226D01*
X0259106Y0149027D02*
X0226800Y0149027D01*
X0226800Y0147829D02*
X0259106Y0147829D01*
X0259106Y0146630D02*
X0226800Y0146630D01*
X0226800Y0145432D02*
X0259106Y0145432D01*
X0259106Y0144233D02*
X0226800Y0144233D01*
X0226800Y0143035D02*
X0259106Y0143035D01*
X0259106Y0141836D02*
X0226800Y0141836D01*
X0226800Y0140638D02*
X0259106Y0140638D01*
X0259106Y0139439D02*
X0226800Y0139439D01*
X0226800Y0138241D02*
X0259106Y0138241D01*
X0259106Y0137042D02*
X0226800Y0137042D01*
X0226800Y0135844D02*
X0259106Y0135844D01*
X0259106Y0134645D02*
X0226800Y0134645D01*
X0226800Y0133447D02*
X0259106Y0133447D01*
X0259106Y0132248D02*
X0226800Y0132248D01*
X0226800Y0131050D02*
X0259106Y0131050D01*
X0259106Y0129851D02*
X0226800Y0129851D01*
X0226800Y0128653D02*
X0259106Y0128653D01*
X0259106Y0127454D02*
X0226800Y0127454D01*
X0226800Y0126256D02*
X0259106Y0126256D01*
X0259106Y0125057D02*
X0226800Y0125057D01*
X0226800Y0123859D02*
X0259106Y0123859D01*
X0259106Y0122660D02*
X0226800Y0122660D01*
X0226800Y0121462D02*
X0259106Y0121462D01*
X0259106Y0120263D02*
X0226800Y0120263D01*
X0226800Y0119065D02*
X0259106Y0119065D01*
X0259106Y0117866D02*
X0226800Y0117866D01*
X0226800Y0116668D02*
X0259106Y0116668D01*
X0259106Y0115469D02*
X0226800Y0115469D01*
X0226800Y0114270D02*
X0259106Y0114270D01*
X0259106Y0113072D02*
X0226800Y0113072D01*
X0226800Y0111873D02*
X0259106Y0111873D01*
X0259106Y0110675D02*
X0226800Y0110675D01*
X0226800Y0109476D02*
X0259106Y0109476D01*
X0259106Y0108278D02*
X0226800Y0108278D01*
X0226800Y0107079D02*
X0259106Y0107079D01*
X0259106Y0105881D02*
X0226800Y0105881D01*
X0226800Y0104682D02*
X0259106Y0104682D01*
X0259106Y0103484D02*
X0226800Y0103484D01*
X0226743Y0102285D02*
X0259106Y0102285D01*
X0255300Y0097500D02*
X0246400Y0088600D01*
X0165900Y0088600D01*
X0163100Y0085800D01*
X0163100Y0074300D01*
X0159600Y0070800D01*
X0132200Y0070800D01*
X0130000Y0068600D01*
X0130000Y0057000D01*
X0133489Y0055543D02*
X0136000Y0055543D01*
X0136000Y0056742D02*
X0133781Y0056742D01*
X0133703Y0057940D02*
X0136000Y0057940D01*
X0136000Y0059139D02*
X0133207Y0059139D01*
X0132400Y0060337D02*
X0136000Y0060337D01*
X0136066Y0061536D02*
X0132400Y0061536D01*
X0132400Y0062734D02*
X0136840Y0062734D01*
X0138039Y0063933D02*
X0132400Y0063933D01*
X0132400Y0065132D02*
X0139237Y0065132D01*
X0140436Y0066330D02*
X0132400Y0066330D01*
X0132400Y0067529D02*
X0176428Y0067529D01*
X0176428Y0068727D02*
X0160867Y0068727D01*
X0162120Y0069926D02*
X0176428Y0069926D01*
X0176428Y0071124D02*
X0163318Y0071124D01*
X0164517Y0072323D02*
X0176428Y0072323D01*
X0176428Y0073521D02*
X0165375Y0073521D01*
X0165500Y0074720D02*
X0176428Y0074720D01*
X0176428Y0075918D02*
X0165500Y0075918D01*
X0165500Y0077117D02*
X0176428Y0077117D01*
X0176428Y0078315D02*
X0165500Y0078315D01*
X0165500Y0079514D02*
X0176428Y0079514D01*
X0176428Y0080712D02*
X0165500Y0080712D01*
X0165500Y0081911D02*
X0176829Y0081911D01*
X0177358Y0083109D02*
X0165500Y0083109D01*
X0165500Y0084308D02*
X0178557Y0084308D01*
X0180942Y0085506D02*
X0166200Y0085506D01*
X0163008Y0089102D02*
X0143296Y0089102D01*
X0144494Y0090300D02*
X0164206Y0090300D01*
X0161809Y0087903D02*
X0142097Y0087903D01*
X0140899Y0086705D02*
X0160877Y0086705D01*
X0160700Y0085506D02*
X0139700Y0085506D01*
X0138502Y0084308D02*
X0160700Y0084308D01*
X0160700Y0083109D02*
X0137303Y0083109D01*
X0136105Y0081911D02*
X0160700Y0081911D01*
X0160700Y0080712D02*
X0134906Y0080712D01*
X0133708Y0079514D02*
X0160700Y0079514D01*
X0160700Y0078315D02*
X0132509Y0078315D01*
X0131311Y0077117D02*
X0160700Y0077117D01*
X0160700Y0075918D02*
X0130112Y0075918D01*
X0128914Y0074720D02*
X0160126Y0074720D01*
X0158927Y0073521D02*
X0127715Y0073521D01*
X0126517Y0072323D02*
X0130328Y0072323D01*
X0129130Y0071124D02*
X0125318Y0071124D01*
X0124120Y0069926D02*
X0127951Y0069926D01*
X0127600Y0068727D02*
X0123053Y0068727D01*
X0123549Y0067529D02*
X0127600Y0067529D01*
X0127600Y0066330D02*
X0123581Y0066330D01*
X0123243Y0065132D02*
X0127600Y0065132D01*
X0127600Y0063933D02*
X0122380Y0063933D01*
X0119800Y0066700D02*
X0119800Y0069000D01*
X0146800Y0096000D01*
X0217500Y0096000D01*
X0216796Y0098690D02*
X0135600Y0098690D01*
X0135600Y0099888D02*
X0217994Y0099888D01*
X0219193Y0101087D02*
X0135600Y0101087D01*
X0135600Y0102285D02*
X0220391Y0102285D01*
X0221590Y0103484D02*
X0189033Y0103484D01*
X0189542Y0103695D02*
X0190605Y0104758D01*
X0191181Y0106148D01*
X0191181Y0107652D01*
X0190605Y0109042D01*
X0189542Y0110105D01*
X0188152Y0110681D01*
X0186648Y0110681D01*
X0185258Y0110105D01*
X0185053Y0109900D01*
X0162247Y0109900D01*
X0162042Y0110105D01*
X0161942Y0110205D01*
X0160552Y0110781D01*
X0159048Y0110781D01*
X0157658Y0110205D01*
X0156595Y0109142D01*
X0156019Y0107752D01*
X0156019Y0106248D01*
X0156595Y0104858D01*
X0156695Y0104758D01*
X0157758Y0103695D01*
X0159148Y0103119D01*
X0160652Y0103119D01*
X0162042Y0103695D01*
X0162247Y0103900D01*
X0185053Y0103900D01*
X0185258Y0103695D01*
X0186648Y0103119D01*
X0188152Y0103119D01*
X0189542Y0103695D01*
X0190530Y0104682D02*
X0222000Y0104682D01*
X0222000Y0105881D02*
X0191070Y0105881D01*
X0191181Y0107079D02*
X0222000Y0107079D01*
X0222000Y0108278D02*
X0190922Y0108278D01*
X0190171Y0109476D02*
X0222000Y0109476D01*
X0222000Y0110675D02*
X0188167Y0110675D01*
X0186633Y0110675D02*
X0160808Y0110675D01*
X0158792Y0110675D02*
X0135600Y0110675D01*
X0135600Y0111873D02*
X0222000Y0111873D01*
X0222000Y0113072D02*
X0135600Y0113072D01*
X0135600Y0114270D02*
X0222000Y0114270D01*
X0222000Y0115469D02*
X0135600Y0115469D01*
X0135600Y0116668D02*
X0222000Y0116668D01*
X0222000Y0117866D02*
X0135600Y0117866D01*
X0135600Y0119065D02*
X0222000Y0119065D01*
X0222000Y0120263D02*
X0135600Y0120263D01*
X0135600Y0121462D02*
X0222000Y0121462D01*
X0222000Y0122660D02*
X0135600Y0122660D01*
X0135600Y0123859D02*
X0222000Y0123859D01*
X0222000Y0125057D02*
X0135600Y0125057D01*
X0135600Y0126256D02*
X0222000Y0126256D01*
X0222000Y0127454D02*
X0135600Y0127454D01*
X0135600Y0128653D02*
X0222000Y0128653D01*
X0222000Y0129851D02*
X0135600Y0129851D01*
X0135600Y0131050D02*
X0222000Y0131050D01*
X0222000Y0132248D02*
X0135600Y0132248D01*
X0135600Y0133447D02*
X0222000Y0133447D01*
X0222000Y0134645D02*
X0135600Y0134645D01*
X0135600Y0135844D02*
X0222000Y0135844D01*
X0222000Y0137042D02*
X0135600Y0137042D01*
X0136535Y0138241D02*
X0222000Y0138241D01*
X0222000Y0139439D02*
X0137733Y0139439D01*
X0138932Y0140638D02*
X0222000Y0140638D01*
X0222000Y0141836D02*
X0142084Y0141836D01*
X0143120Y0143035D02*
X0222000Y0143035D01*
X0222000Y0144233D02*
X0143581Y0144233D01*
X0143581Y0145432D02*
X0222000Y0145432D01*
X0222000Y0146630D02*
X0143176Y0146630D01*
X0142218Y0147829D02*
X0222000Y0147829D01*
X0222000Y0149027D02*
X0128800Y0149027D01*
X0128800Y0147829D02*
X0137382Y0147829D01*
X0136424Y0146630D02*
X0128800Y0146630D01*
X0128800Y0145432D02*
X0136019Y0145432D01*
X0135739Y0144233D02*
X0128800Y0144233D01*
X0128800Y0143035D02*
X0134541Y0143035D01*
X0133342Y0141836D02*
X0128800Y0141836D01*
X0128800Y0140638D02*
X0132144Y0140638D01*
X0131074Y0139439D02*
X0128800Y0139439D01*
X0128800Y0138241D02*
X0130800Y0138241D01*
X0130800Y0137042D02*
X0128800Y0137042D01*
X0128800Y0135844D02*
X0130800Y0135844D01*
X0130800Y0134645D02*
X0128800Y0134645D01*
X0128800Y0133447D02*
X0130800Y0133447D01*
X0130800Y0132248D02*
X0128800Y0132248D01*
X0128800Y0131050D02*
X0130800Y0131050D01*
X0130800Y0129851D02*
X0128800Y0129851D01*
X0128800Y0128653D02*
X0130800Y0128653D01*
X0130800Y0127454D02*
X0128800Y0127454D01*
X0128800Y0126256D02*
X0130800Y0126256D01*
X0130800Y0125057D02*
X0128800Y0125057D01*
X0128800Y0123859D02*
X0130800Y0123859D01*
X0130800Y0122660D02*
X0128800Y0122660D01*
X0128800Y0121462D02*
X0130800Y0121462D01*
X0130800Y0120263D02*
X0128800Y0120263D01*
X0128800Y0119065D02*
X0130800Y0119065D01*
X0130800Y0117866D02*
X0128800Y0117866D01*
X0128800Y0116668D02*
X0130800Y0116668D01*
X0130800Y0115469D02*
X0128800Y0115469D01*
X0128800Y0114270D02*
X0130800Y0114270D01*
X0130800Y0113072D02*
X0128800Y0113072D01*
X0128800Y0111873D02*
X0130800Y0111873D01*
X0130800Y0110675D02*
X0128800Y0110675D01*
X0128800Y0109476D02*
X0130800Y0109476D01*
X0130800Y0108278D02*
X0128800Y0108278D01*
X0128800Y0107079D02*
X0130800Y0107079D01*
X0130800Y0105881D02*
X0128800Y0105881D01*
X0128800Y0104682D02*
X0130800Y0104682D01*
X0130800Y0103484D02*
X0128800Y0103484D01*
X0128800Y0102285D02*
X0130800Y0102285D01*
X0130800Y0101087D02*
X0128800Y0101087D01*
X0128800Y0099888D02*
X0130800Y0099888D01*
X0130800Y0098690D02*
X0128800Y0098690D01*
X0128800Y0097491D02*
X0130800Y0097491D01*
X0130800Y0096293D02*
X0128800Y0096293D01*
X0128800Y0095094D02*
X0130800Y0095094D01*
X0130800Y0093896D02*
X0128800Y0093896D01*
X0128800Y0092697D02*
X0130800Y0092697D01*
X0130800Y0091499D02*
X0128800Y0091499D01*
X0128800Y0090300D02*
X0130800Y0090300D01*
X0130108Y0089102D02*
X0128800Y0089102D01*
X0128800Y0087903D02*
X0128909Y0087903D01*
X0126400Y0088000D02*
X0110600Y0072200D01*
X0109696Y0075918D02*
X0107957Y0075918D01*
X0106815Y0077117D02*
X0112123Y0077117D01*
X0113321Y0078315D02*
X0107062Y0078315D01*
X0108170Y0079514D02*
X0114520Y0079514D01*
X0115359Y0080712D02*
X0115718Y0080712D01*
X0117000Y0083600D02*
X0112900Y0083600D01*
X0109507Y0081911D02*
X0108681Y0081911D01*
X0108666Y0080712D02*
X0110441Y0080712D01*
X0109119Y0083109D02*
X0108326Y0083109D01*
X0109119Y0084308D02*
X0107440Y0084308D01*
X0109597Y0085506D02*
X0082400Y0085506D01*
X0082400Y0086705D02*
X0110657Y0086705D01*
X0115143Y0086705D02*
X0116700Y0086705D01*
X0116700Y0087903D02*
X0082400Y0087903D01*
X0082400Y0089102D02*
X0116700Y0089102D01*
X0116700Y0090300D02*
X0082400Y0090300D01*
X0082400Y0091499D02*
X0116700Y0091499D01*
X0116700Y0092697D02*
X0082400Y0092697D01*
X0082400Y0093896D02*
X0116700Y0093896D01*
X0116700Y0095094D02*
X0082400Y0095094D01*
X0082400Y0096293D02*
X0116700Y0096293D01*
X0116700Y0097491D02*
X0082400Y0097491D01*
X0082400Y0098690D02*
X0116700Y0098690D01*
X0116700Y0099888D02*
X0082400Y0099888D01*
X0082400Y0101087D02*
X0116700Y0101087D01*
X0116700Y0102285D02*
X0082400Y0102285D01*
X0082400Y0103484D02*
X0116700Y0103484D01*
X0116700Y0104682D02*
X0082400Y0104682D01*
X0082400Y0105881D02*
X0116700Y0105881D01*
X0116700Y0107079D02*
X0082427Y0107079D01*
X0083379Y0108278D02*
X0116700Y0108278D01*
X0116700Y0109476D02*
X0083781Y0109476D01*
X0083781Y0110675D02*
X0116700Y0110675D01*
X0116700Y0111873D02*
X0083317Y0111873D01*
X0082400Y0113072D02*
X0116700Y0113072D01*
X0116700Y0114270D02*
X0082400Y0114270D01*
X0082400Y0115469D02*
X0116700Y0115469D01*
X0116700Y0116668D02*
X0091377Y0116668D01*
X0089300Y0119900D02*
X0089300Y0195600D01*
X0082800Y0202100D01*
X0082800Y0211846D01*
X0077953Y0216693D01*
X0082707Y0218541D02*
X0083198Y0218541D01*
X0083787Y0219739D02*
X0082119Y0219739D01*
X0080920Y0220938D02*
X0084985Y0220938D01*
X0090920Y0220938D02*
X0095491Y0220938D01*
X0095385Y0220884D02*
X0094761Y0220430D01*
X0094215Y0219885D01*
X0093762Y0219261D01*
X0093412Y0218574D01*
X0093173Y0217840D01*
X0093053Y0217079D01*
X0093053Y0216979D01*
X0097667Y0216979D01*
X0097667Y0221593D01*
X0097567Y0221593D01*
X0096805Y0221472D01*
X0096072Y0221234D01*
X0095385Y0220884D01*
X0094109Y0219739D02*
X0092119Y0219739D01*
X0092707Y0218541D02*
X0093401Y0218541D01*
X0093095Y0217342D02*
X0093053Y0217342D01*
X0093053Y0216407D02*
X0093053Y0216307D01*
X0093173Y0215545D01*
X0093412Y0214812D01*
X0093762Y0214125D01*
X0094215Y0213501D01*
X0094761Y0212955D01*
X0095385Y0212502D01*
X0096072Y0212152D01*
X0096805Y0211914D01*
X0097567Y0211793D01*
X0097667Y0211793D01*
X0097667Y0216407D01*
X0098239Y0216407D01*
X0098239Y0216979D01*
X0102853Y0216979D01*
X0102853Y0217079D01*
X0102732Y0217840D01*
X0102494Y0218574D01*
X0102144Y0219261D01*
X0101690Y0219885D01*
X0101145Y0220430D01*
X0100521Y0220884D01*
X0099834Y0221234D01*
X0099100Y0221472D01*
X0098338Y0221593D01*
X0098239Y0221593D01*
X0098239Y0216979D01*
X0097667Y0216979D01*
X0097667Y0216407D01*
X0093053Y0216407D01*
X0093053Y0216144D02*
X0093079Y0216144D01*
X0093368Y0214945D02*
X0092749Y0214945D01*
X0092219Y0213747D02*
X0094036Y0213747D01*
X0095321Y0212548D02*
X0091021Y0212548D01*
X0090037Y0211350D02*
X0095869Y0211350D01*
X0094199Y0210151D02*
X0091707Y0210151D01*
X0092537Y0208953D02*
X0093369Y0208953D01*
X0097667Y0212548D02*
X0098239Y0212548D01*
X0098239Y0211793D02*
X0098338Y0211793D01*
X0099100Y0211914D01*
X0099834Y0212152D01*
X0100521Y0212502D01*
X0101145Y0212955D01*
X0101690Y0213501D01*
X0102144Y0214125D01*
X0102494Y0214812D01*
X0102732Y0215545D01*
X0102853Y0216307D01*
X0102853Y0216407D01*
X0098239Y0216407D01*
X0098239Y0211793D01*
X0100037Y0211350D02*
X0105869Y0211350D01*
X0104885Y0212548D02*
X0100585Y0212548D01*
X0101869Y0213747D02*
X0103686Y0213747D01*
X0103156Y0214945D02*
X0102537Y0214945D01*
X0102827Y0216144D02*
X0102853Y0216144D01*
X0102811Y0217342D02*
X0102853Y0217342D01*
X0103198Y0218541D02*
X0102504Y0218541D01*
X0101796Y0219739D02*
X0103787Y0219739D01*
X0104985Y0220938D02*
X0100414Y0220938D01*
X0098239Y0220938D02*
X0097667Y0220938D01*
X0097667Y0219739D02*
X0098239Y0219739D01*
X0098239Y0218541D02*
X0097667Y0218541D01*
X0097667Y0217342D02*
X0098239Y0217342D01*
X0098239Y0216144D02*
X0097667Y0216144D01*
X0097667Y0214945D02*
X0098239Y0214945D01*
X0098239Y0213747D02*
X0097667Y0213747D01*
X0101707Y0210151D02*
X0104199Y0210151D01*
X0103369Y0208953D02*
X0102537Y0208953D01*
X0102920Y0205357D02*
X0102986Y0205357D01*
X0103482Y0204159D02*
X0102423Y0204159D01*
X0101433Y0202960D02*
X0104473Y0202960D01*
X0106531Y0201762D02*
X0099375Y0201762D01*
X0096531Y0201762D02*
X0089375Y0201762D01*
X0087731Y0200563D02*
X0259106Y0200563D01*
X0259106Y0199365D02*
X0234274Y0199365D01*
X0235981Y0198166D02*
X0259106Y0198166D01*
X0259106Y0196968D02*
X0236609Y0196968D01*
X0231726Y0199365D02*
X0088929Y0199365D01*
X0090128Y0198166D02*
X0230019Y0198166D01*
X0229391Y0196968D02*
X0091326Y0196968D01*
X0091700Y0195769D02*
X0229219Y0195769D01*
X0228377Y0194571D02*
X0091700Y0194571D01*
X0091700Y0193372D02*
X0227178Y0193372D01*
X0225980Y0192174D02*
X0091700Y0192174D01*
X0091700Y0190975D02*
X0224781Y0190975D01*
X0223583Y0189777D02*
X0091700Y0189777D01*
X0091700Y0188578D02*
X0222384Y0188578D01*
X0222000Y0187380D02*
X0091700Y0187380D01*
X0091700Y0186181D02*
X0222000Y0186181D01*
X0222000Y0184983D02*
X0091700Y0184983D01*
X0091700Y0183784D02*
X0222000Y0183784D01*
X0222000Y0182586D02*
X0091700Y0182586D01*
X0091700Y0181387D02*
X0222000Y0181387D01*
X0222000Y0180189D02*
X0091700Y0180189D01*
X0091700Y0178990D02*
X0222000Y0178990D01*
X0222000Y0177792D02*
X0091700Y0177792D01*
X0091700Y0176593D02*
X0222000Y0176593D01*
X0222000Y0175395D02*
X0091700Y0175395D01*
X0091700Y0174196D02*
X0222000Y0174196D01*
X0222000Y0172998D02*
X0091700Y0172998D01*
X0091700Y0171799D02*
X0222000Y0171799D01*
X0222000Y0170601D02*
X0091700Y0170601D01*
X0091700Y0169402D02*
X0222000Y0169402D01*
X0222000Y0168203D02*
X0091700Y0168203D01*
X0091700Y0167005D02*
X0222000Y0167005D01*
X0222000Y0165806D02*
X0091700Y0165806D01*
X0091700Y0164608D02*
X0222000Y0164608D01*
X0222000Y0163409D02*
X0129038Y0163409D01*
X0129867Y0162211D02*
X0222000Y0162211D01*
X0222000Y0161012D02*
X0130181Y0161012D01*
X0130126Y0159814D02*
X0222000Y0159814D01*
X0222000Y0158615D02*
X0129629Y0158615D01*
X0128800Y0157417D02*
X0222000Y0157417D01*
X0222000Y0156218D02*
X0128800Y0156218D01*
X0128800Y0155020D02*
X0222000Y0155020D01*
X0222000Y0153821D02*
X0128800Y0153821D01*
X0128800Y0152623D02*
X0222000Y0152623D01*
X0222000Y0151424D02*
X0128800Y0151424D01*
X0128800Y0150226D02*
X0222000Y0150226D01*
X0185767Y0103484D02*
X0161533Y0103484D01*
X0158267Y0103484D02*
X0135600Y0103484D01*
X0135600Y0104682D02*
X0156770Y0104682D01*
X0156171Y0105881D02*
X0135600Y0105881D01*
X0135600Y0107079D02*
X0156019Y0107079D01*
X0156237Y0108278D02*
X0135600Y0108278D01*
X0135600Y0109476D02*
X0156929Y0109476D01*
X0159800Y0107000D02*
X0159900Y0106900D01*
X0144897Y0097491D02*
X0135600Y0097491D01*
X0135600Y0096293D02*
X0143699Y0096293D01*
X0142500Y0095094D02*
X0135600Y0095094D01*
X0135600Y0093896D02*
X0141302Y0093896D01*
X0140103Y0092697D02*
X0135600Y0092697D01*
X0135600Y0091499D02*
X0138905Y0091499D01*
X0137706Y0090300D02*
X0135600Y0090300D01*
X0135600Y0089102D02*
X0136508Y0089102D01*
X0133200Y0088800D02*
X0133200Y0138300D01*
X0139800Y0144900D01*
X0124000Y0145432D02*
X0091700Y0145432D01*
X0091700Y0146630D02*
X0124000Y0146630D01*
X0124000Y0147829D02*
X0091700Y0147829D01*
X0091700Y0149027D02*
X0124000Y0149027D01*
X0124000Y0150226D02*
X0091700Y0150226D01*
X0091700Y0151424D02*
X0124000Y0151424D01*
X0124000Y0152623D02*
X0091700Y0152623D01*
X0091700Y0153821D02*
X0124000Y0153821D01*
X0124000Y0155020D02*
X0091700Y0155020D01*
X0091700Y0156218D02*
X0124000Y0156218D01*
X0124000Y0157417D02*
X0091700Y0157417D01*
X0091700Y0158615D02*
X0123171Y0158615D01*
X0122674Y0159814D02*
X0091700Y0159814D01*
X0091700Y0161012D02*
X0122619Y0161012D01*
X0122933Y0162211D02*
X0091700Y0162211D01*
X0091700Y0163409D02*
X0123762Y0163409D01*
X0126400Y0160700D02*
X0126400Y0088000D01*
X0124000Y0089102D02*
X0121500Y0089102D01*
X0121500Y0090300D02*
X0124000Y0090300D01*
X0124000Y0091499D02*
X0121500Y0091499D01*
X0121500Y0092697D02*
X0124000Y0092697D01*
X0124000Y0093896D02*
X0121500Y0093896D01*
X0121500Y0095094D02*
X0124000Y0095094D01*
X0124000Y0096293D02*
X0121500Y0096293D01*
X0121500Y0097491D02*
X0124000Y0097491D01*
X0124000Y0098690D02*
X0121500Y0098690D01*
X0121500Y0099888D02*
X0124000Y0099888D01*
X0124000Y0101087D02*
X0121500Y0101087D01*
X0121500Y0102285D02*
X0124000Y0102285D01*
X0124000Y0103484D02*
X0121500Y0103484D01*
X0121500Y0104682D02*
X0124000Y0104682D01*
X0124000Y0105881D02*
X0121500Y0105881D01*
X0121500Y0107079D02*
X0124000Y0107079D01*
X0124000Y0108278D02*
X0121500Y0108278D01*
X0121500Y0109476D02*
X0124000Y0109476D01*
X0124000Y0110675D02*
X0121500Y0110675D01*
X0121500Y0111873D02*
X0124000Y0111873D01*
X0124000Y0113072D02*
X0121500Y0113072D01*
X0121500Y0114270D02*
X0124000Y0114270D01*
X0124000Y0115469D02*
X0121500Y0115469D01*
X0121500Y0116668D02*
X0124000Y0116668D01*
X0124000Y0117866D02*
X0121500Y0117866D01*
X0121215Y0119065D02*
X0124000Y0119065D01*
X0124000Y0120263D02*
X0120131Y0120263D01*
X0120459Y0119935D02*
X0120459Y0119935D01*
X0118933Y0121462D02*
X0124000Y0121462D01*
X0124000Y0122660D02*
X0091887Y0122660D01*
X0091700Y0123859D02*
X0124000Y0123859D01*
X0124000Y0125057D02*
X0091700Y0125057D01*
X0091700Y0126256D02*
X0124000Y0126256D01*
X0124000Y0127454D02*
X0091700Y0127454D01*
X0091700Y0128653D02*
X0124000Y0128653D01*
X0124000Y0129851D02*
X0091700Y0129851D01*
X0091700Y0131050D02*
X0124000Y0131050D01*
X0124000Y0132248D02*
X0091700Y0132248D01*
X0091700Y0133447D02*
X0124000Y0133447D01*
X0124000Y0134645D02*
X0091700Y0134645D01*
X0091700Y0135844D02*
X0124000Y0135844D01*
X0124000Y0137042D02*
X0091700Y0137042D01*
X0091700Y0138241D02*
X0124000Y0138241D01*
X0124000Y0139439D02*
X0091700Y0139439D01*
X0091700Y0140638D02*
X0124000Y0140638D01*
X0124000Y0141836D02*
X0091700Y0141836D01*
X0091700Y0143035D02*
X0124000Y0143035D01*
X0124000Y0144233D02*
X0091700Y0144233D01*
X0086900Y0144233D02*
X0082400Y0144233D01*
X0082400Y0143035D02*
X0086900Y0143035D01*
X0086900Y0141836D02*
X0082400Y0141836D01*
X0082400Y0140638D02*
X0086900Y0140638D01*
X0086900Y0139439D02*
X0082400Y0139439D01*
X0082400Y0138241D02*
X0086900Y0138241D01*
X0086900Y0137042D02*
X0082400Y0137042D01*
X0082400Y0135844D02*
X0086900Y0135844D01*
X0086900Y0134645D02*
X0082400Y0134645D01*
X0082400Y0133447D02*
X0086900Y0133447D01*
X0086900Y0132248D02*
X0082400Y0132248D01*
X0082400Y0131050D02*
X0086900Y0131050D01*
X0086900Y0129851D02*
X0082400Y0129851D01*
X0082400Y0128653D02*
X0086900Y0128653D01*
X0086900Y0127454D02*
X0082400Y0127454D01*
X0082400Y0126256D02*
X0086900Y0126256D01*
X0086900Y0125057D02*
X0082400Y0125057D01*
X0082400Y0123859D02*
X0086900Y0123859D01*
X0086713Y0122660D02*
X0082400Y0122660D01*
X0082400Y0121462D02*
X0085854Y0121462D01*
X0085519Y0120263D02*
X0082400Y0120263D01*
X0082400Y0119065D02*
X0085553Y0119065D01*
X0086050Y0117866D02*
X0082400Y0117866D01*
X0082400Y0116668D02*
X0087223Y0116668D01*
X0089300Y0119900D02*
X0117100Y0119900D01*
X0119100Y0117900D01*
X0119100Y0085700D01*
X0117000Y0083600D01*
X0121500Y0086705D02*
X0121711Y0086705D01*
X0121500Y0087903D02*
X0122909Y0087903D01*
X0133200Y0088800D02*
X0110800Y0066400D01*
X0110800Y0065600D01*
X0107398Y0063933D02*
X0107100Y0063933D01*
X0106856Y0062734D02*
X0108318Y0062734D01*
X0105830Y0061536D02*
X0127600Y0061536D01*
X0127600Y0062734D02*
X0113282Y0062734D01*
X0114202Y0063933D02*
X0117220Y0063933D01*
X0116357Y0065132D02*
X0114581Y0065132D01*
X0114581Y0066330D02*
X0116019Y0066330D01*
X0116051Y0067529D02*
X0115323Y0067529D01*
X0116521Y0068727D02*
X0116547Y0068727D01*
X0127600Y0060337D02*
X0104632Y0060337D01*
X0103433Y0059139D02*
X0126793Y0059139D01*
X0126297Y0057940D02*
X0102235Y0057940D01*
X0101036Y0056742D02*
X0126219Y0056742D01*
X0126511Y0055543D02*
X0099838Y0055543D01*
X0098639Y0054345D02*
X0127308Y0054345D01*
X0124701Y0053146D02*
X0134252Y0053146D01*
X0135451Y0054345D02*
X0132692Y0054345D01*
X0141100Y0045955D02*
X0006800Y0045955D01*
X0006800Y0044757D02*
X0048310Y0044757D01*
X0046199Y0043558D02*
X0006800Y0043558D01*
X0006800Y0042360D02*
X0045228Y0042360D01*
X0045388Y0042747D02*
X0045388Y0042747D01*
X0045388Y0042747D01*
X0044731Y0041161D02*
X0006800Y0041161D01*
X0006800Y0039963D02*
X0044650Y0039963D01*
X0044762Y0038764D02*
X0006800Y0038764D01*
X0006800Y0037566D02*
X0045259Y0037566D01*
X0046274Y0036367D02*
X0006800Y0036367D01*
X0006800Y0035169D02*
X0048490Y0035169D01*
X0046753Y0035888D02*
X0046753Y0035888D01*
X0044852Y0049919D02*
X0046242Y0050495D01*
X0047305Y0051558D01*
X0047881Y0052948D01*
X0047881Y0054452D01*
X0047305Y0055842D01*
X0046500Y0056647D01*
X0046500Y0059977D01*
X0046135Y0060859D01*
X0043335Y0063659D01*
X0042659Y0064335D01*
X0041777Y0064700D01*
X0033694Y0064700D01*
X0032500Y0065894D01*
X0032500Y0120106D01*
X0034558Y0122164D01*
X0036722Y0120000D01*
X0034000Y0117278D01*
X0034000Y0112722D01*
X0036722Y0110000D01*
X0034000Y0107278D01*
X0034000Y0102722D01*
X0036722Y0100000D01*
X0034000Y0097278D01*
X0034000Y0092722D01*
X0037222Y0089500D01*
X0041778Y0089500D01*
X0044500Y0092222D01*
X0047222Y0089500D01*
X0051778Y0089500D01*
X0055000Y0092722D01*
X0055000Y0097278D01*
X0054678Y0097600D01*
X0055106Y0097600D01*
X0056300Y0096406D01*
X0056300Y0091147D01*
X0055495Y0090342D01*
X0054919Y0088952D01*
X0054919Y0087448D01*
X0055495Y0086058D01*
X0056558Y0084995D01*
X0057948Y0084419D01*
X0059452Y0084419D01*
X0060842Y0084995D01*
X0061400Y0085553D01*
X0061400Y0064547D01*
X0060595Y0063742D01*
X0060019Y0062352D01*
X0060019Y0060848D01*
X0060595Y0059458D01*
X0061658Y0058395D01*
X0063048Y0057819D01*
X0064552Y0057819D01*
X0065942Y0058395D01*
X0067005Y0059458D01*
X0067581Y0060848D01*
X0067581Y0062352D01*
X0067005Y0063742D01*
X0066200Y0064547D01*
X0066200Y0121577D01*
X0065835Y0122459D01*
X0057035Y0131259D01*
X0056359Y0131935D01*
X0055477Y0132300D01*
X0054578Y0132300D01*
X0055000Y0132722D01*
X0055000Y0137278D01*
X0051778Y0140500D01*
X0047222Y0140500D01*
X0044500Y0137778D01*
X0041778Y0140500D01*
X0037222Y0140500D01*
X0034000Y0137278D01*
X0034000Y0132722D01*
X0036722Y0130000D01*
X0034022Y0127300D01*
X0033423Y0127300D01*
X0032541Y0126935D01*
X0031865Y0126259D01*
X0028065Y0122459D01*
X0027700Y0121577D01*
X0027700Y0064423D01*
X0028065Y0063541D01*
X0031341Y0060265D01*
X0032223Y0059900D01*
X0040306Y0059900D01*
X0041700Y0058506D01*
X0041700Y0056647D01*
X0040895Y0055842D01*
X0040319Y0054452D01*
X0040319Y0052948D01*
X0040895Y0051558D01*
X0041958Y0050495D01*
X0043348Y0049919D01*
X0044852Y0049919D01*
X0046497Y0050749D02*
X0053856Y0050749D01*
X0052658Y0051948D02*
X0047467Y0051948D01*
X0047881Y0053146D02*
X0051459Y0053146D01*
X0050261Y0054345D02*
X0047881Y0054345D01*
X0047429Y0055543D02*
X0049062Y0055543D01*
X0047982Y0056742D02*
X0046500Y0056742D01*
X0046500Y0057940D02*
X0047700Y0057940D01*
X0047700Y0059139D02*
X0046500Y0059139D01*
X0046351Y0060337D02*
X0047700Y0060337D01*
X0047700Y0061536D02*
X0045458Y0061536D01*
X0044260Y0062734D02*
X0047700Y0062734D01*
X0047320Y0063933D02*
X0043061Y0063933D01*
X0041300Y0062300D02*
X0032700Y0062300D01*
X0030100Y0064900D01*
X0030100Y0121100D01*
X0033900Y0124900D01*
X0039400Y0124900D01*
X0039500Y0125000D01*
X0035374Y0128653D02*
X0026485Y0128653D01*
X0026485Y0129851D02*
X0036573Y0129851D01*
X0035672Y0131050D02*
X0026485Y0131050D01*
X0026485Y0132248D02*
X0034474Y0132248D01*
X0034000Y0133447D02*
X0026485Y0133447D01*
X0026485Y0134645D02*
X0034000Y0134645D01*
X0034000Y0135844D02*
X0026485Y0135844D01*
X0026485Y0137042D02*
X0034000Y0137042D01*
X0034963Y0138241D02*
X0026485Y0138241D01*
X0026485Y0139439D02*
X0036161Y0139439D01*
X0039500Y0135000D02*
X0044600Y0129900D01*
X0055000Y0129900D01*
X0063800Y0121100D01*
X0063800Y0061600D01*
X0067581Y0061536D02*
X0071682Y0061536D01*
X0070118Y0062734D02*
X0067423Y0062734D01*
X0066814Y0063933D02*
X0069549Y0063933D01*
X0069419Y0065132D02*
X0066200Y0065132D01*
X0066200Y0066330D02*
X0069376Y0066330D01*
X0068177Y0067529D02*
X0066200Y0067529D01*
X0066200Y0068727D02*
X0067264Y0068727D01*
X0067100Y0069926D02*
X0066200Y0069926D01*
X0066200Y0071124D02*
X0067100Y0071124D01*
X0067100Y0072323D02*
X0066200Y0072323D01*
X0066200Y0073521D02*
X0067100Y0073521D01*
X0067100Y0074720D02*
X0066200Y0074720D01*
X0066200Y0075918D02*
X0067100Y0075918D01*
X0067100Y0077117D02*
X0066200Y0077117D01*
X0066200Y0078315D02*
X0067100Y0078315D01*
X0067100Y0079514D02*
X0066200Y0079514D01*
X0066200Y0080712D02*
X0067100Y0080712D01*
X0067100Y0081911D02*
X0066200Y0081911D01*
X0066200Y0083109D02*
X0067100Y0083109D01*
X0067100Y0084308D02*
X0066200Y0084308D01*
X0066200Y0085506D02*
X0067100Y0085506D01*
X0067100Y0086705D02*
X0066200Y0086705D01*
X0066200Y0087903D02*
X0067100Y0087903D01*
X0067100Y0089102D02*
X0066200Y0089102D01*
X0066200Y0090300D02*
X0067100Y0090300D01*
X0067100Y0091499D02*
X0066200Y0091499D01*
X0066200Y0092697D02*
X0067100Y0092697D01*
X0067100Y0093896D02*
X0066200Y0093896D01*
X0066200Y0095094D02*
X0067100Y0095094D01*
X0067100Y0096293D02*
X0066200Y0096293D01*
X0066200Y0097491D02*
X0067100Y0097491D01*
X0067100Y0098690D02*
X0066200Y0098690D01*
X0066200Y0099888D02*
X0067100Y0099888D01*
X0067100Y0101087D02*
X0066200Y0101087D01*
X0066200Y0102285D02*
X0067100Y0102285D01*
X0067100Y0103484D02*
X0066200Y0103484D01*
X0066200Y0104682D02*
X0067100Y0104682D01*
X0067100Y0105881D02*
X0066200Y0105881D01*
X0066200Y0107079D02*
X0067100Y0107079D01*
X0067100Y0108278D02*
X0066200Y0108278D01*
X0066200Y0109476D02*
X0067100Y0109476D01*
X0067100Y0110675D02*
X0066200Y0110675D01*
X0066200Y0111873D02*
X0067100Y0111873D01*
X0067100Y0113072D02*
X0066200Y0113072D01*
X0066200Y0114270D02*
X0067100Y0114270D01*
X0067100Y0115469D02*
X0066200Y0115469D01*
X0066200Y0116668D02*
X0067100Y0116668D01*
X0067100Y0117866D02*
X0066200Y0117866D01*
X0066200Y0119065D02*
X0067100Y0119065D01*
X0067100Y0120263D02*
X0066200Y0120263D01*
X0066200Y0121462D02*
X0067100Y0121462D01*
X0066293Y0122660D02*
X0065634Y0122660D01*
X0065739Y0123859D02*
X0064436Y0123859D01*
X0065619Y0125057D02*
X0063237Y0125057D01*
X0062038Y0126256D02*
X0065869Y0126256D01*
X0066607Y0127454D02*
X0060840Y0127454D01*
X0059641Y0128653D02*
X0068579Y0128653D01*
X0070221Y0128653D02*
X0071900Y0128653D01*
X0071900Y0129851D02*
X0058443Y0129851D01*
X0057244Y0131050D02*
X0071900Y0131050D01*
X0071900Y0132248D02*
X0055603Y0132248D01*
X0055000Y0133447D02*
X0071900Y0133447D01*
X0071900Y0134645D02*
X0055000Y0134645D01*
X0055000Y0135844D02*
X0071900Y0135844D01*
X0071900Y0137042D02*
X0055000Y0137042D01*
X0054037Y0138241D02*
X0071900Y0138241D01*
X0071900Y0139439D02*
X0052839Y0139439D01*
X0046161Y0139439D02*
X0042839Y0139439D01*
X0044037Y0138241D02*
X0044963Y0138241D01*
X0034176Y0127454D02*
X0026485Y0127454D01*
X0026485Y0126256D02*
X0031861Y0126256D01*
X0030663Y0125057D02*
X0026485Y0125057D01*
X0026485Y0123859D02*
X0029464Y0123859D01*
X0028266Y0122660D02*
X0026485Y0122660D01*
X0026485Y0121462D02*
X0027700Y0121462D01*
X0027700Y0120263D02*
X0026485Y0120263D01*
X0026485Y0119065D02*
X0027700Y0119065D01*
X0027700Y0117866D02*
X0026485Y0117866D01*
X0026485Y0116668D02*
X0027700Y0116668D01*
X0027700Y0115469D02*
X0026485Y0115469D01*
X0026485Y0114270D02*
X0027700Y0114270D01*
X0027700Y0113072D02*
X0026485Y0113072D01*
X0026485Y0111873D02*
X0027700Y0111873D01*
X0027700Y0110675D02*
X0026485Y0110675D01*
X0026485Y0109476D02*
X0027700Y0109476D01*
X0027700Y0108278D02*
X0026485Y0108278D01*
X0026485Y0107079D02*
X0027700Y0107079D01*
X0027700Y0105881D02*
X0026485Y0105881D01*
X0026485Y0104682D02*
X0027700Y0104682D01*
X0027700Y0103484D02*
X0026485Y0103484D01*
X0026485Y0102285D02*
X0027700Y0102285D01*
X0027700Y0101087D02*
X0026485Y0101087D01*
X0026485Y0099888D02*
X0027700Y0099888D01*
X0027700Y0098690D02*
X0026485Y0098690D01*
X0026485Y0097491D02*
X0027700Y0097491D01*
X0027700Y0096293D02*
X0026485Y0096293D01*
X0026485Y0095094D02*
X0027700Y0095094D01*
X0027700Y0093896D02*
X0026485Y0093896D01*
X0026485Y0092697D02*
X0027700Y0092697D01*
X0027700Y0091499D02*
X0026485Y0091499D01*
X0026485Y0090300D02*
X0027700Y0090300D01*
X0027700Y0089102D02*
X0026485Y0089102D01*
X0026485Y0087903D02*
X0027700Y0087903D01*
X0027700Y0086705D02*
X0026485Y0086705D01*
X0026485Y0085506D02*
X0027700Y0085506D01*
X0027700Y0084308D02*
X0026377Y0084308D01*
X0025881Y0083109D02*
X0027700Y0083109D01*
X0027700Y0081911D02*
X0025063Y0081911D01*
X0023677Y0080712D02*
X0027700Y0080712D01*
X0027700Y0079514D02*
X0006800Y0079514D01*
X0006800Y0078315D02*
X0027700Y0078315D01*
X0027700Y0077117D02*
X0006800Y0077117D01*
X0006800Y0075918D02*
X0027700Y0075918D01*
X0027700Y0074720D02*
X0006800Y0074720D01*
X0006800Y0073521D02*
X0027700Y0073521D01*
X0027700Y0072323D02*
X0006800Y0072323D01*
X0006800Y0071124D02*
X0027700Y0071124D01*
X0027700Y0069926D02*
X0006800Y0069926D01*
X0006800Y0068727D02*
X0027700Y0068727D01*
X0027700Y0067529D02*
X0006800Y0067529D01*
X0006800Y0066330D02*
X0027700Y0066330D01*
X0027700Y0065132D02*
X0006800Y0065132D01*
X0006800Y0063933D02*
X0027903Y0063933D01*
X0028871Y0062734D02*
X0006800Y0062734D01*
X0006800Y0061536D02*
X0030070Y0061536D01*
X0031268Y0060337D02*
X0006800Y0060337D01*
X0006800Y0059139D02*
X0041067Y0059139D01*
X0041700Y0057940D02*
X0006800Y0057940D01*
X0006800Y0056742D02*
X0041700Y0056742D01*
X0040771Y0055543D02*
X0006800Y0055543D01*
X0006800Y0054345D02*
X0040319Y0054345D01*
X0040319Y0053146D02*
X0006800Y0053146D01*
X0006800Y0051948D02*
X0040733Y0051948D01*
X0041703Y0050749D02*
X0006800Y0050749D01*
X0006800Y0049551D02*
X0055055Y0049551D01*
X0056900Y0051100D02*
X0092000Y0051100D01*
X0104700Y0063800D01*
X0104700Y0073900D01*
X0101261Y0072323D02*
X0071900Y0072323D01*
X0071900Y0073521D02*
X0100919Y0073521D01*
X0100947Y0074720D02*
X0071900Y0074720D01*
X0071900Y0075918D02*
X0101443Y0075918D01*
X0102585Y0077117D02*
X0071900Y0077117D01*
X0071900Y0078315D02*
X0102738Y0078315D01*
X0104900Y0081500D02*
X0082700Y0081500D01*
X0080000Y0084200D01*
X0080000Y0110000D01*
X0080000Y0165700D01*
X0073000Y0172700D01*
X0073000Y0211600D01*
X0067953Y0216647D01*
X0067953Y0216693D01*
X0063686Y0213747D02*
X0061869Y0213747D01*
X0061690Y0213501D02*
X0062144Y0214125D01*
X0062494Y0214812D01*
X0062732Y0215545D01*
X0062853Y0216307D01*
X0062853Y0216407D01*
X0058239Y0216407D01*
X0058239Y0216979D01*
X0062853Y0216979D01*
X0062853Y0217079D01*
X0062732Y0217840D01*
X0062494Y0218574D01*
X0062144Y0219261D01*
X0061690Y0219885D01*
X0061145Y0220430D01*
X0060521Y0220884D01*
X0059834Y0221234D01*
X0059100Y0221472D01*
X0058338Y0221593D01*
X0058239Y0221593D01*
X0058239Y0216979D01*
X0057667Y0216979D01*
X0057667Y0221593D01*
X0057567Y0221593D01*
X0056805Y0221472D01*
X0056072Y0221234D01*
X0055385Y0220884D01*
X0054761Y0220430D01*
X0054215Y0219885D01*
X0053762Y0219261D01*
X0053412Y0218574D01*
X0053173Y0217840D01*
X0053053Y0217079D01*
X0053053Y0216979D01*
X0057667Y0216979D01*
X0057667Y0216407D01*
X0058239Y0216407D01*
X0058239Y0211793D01*
X0058338Y0211793D01*
X0059100Y0211914D01*
X0059834Y0212152D01*
X0060521Y0212502D01*
X0061145Y0212955D01*
X0061690Y0213501D01*
X0060585Y0212548D02*
X0064885Y0212548D01*
X0065869Y0211350D02*
X0060037Y0211350D01*
X0061707Y0210151D02*
X0064199Y0210151D01*
X0063369Y0208953D02*
X0062537Y0208953D01*
X0058239Y0212548D02*
X0057667Y0212548D01*
X0057667Y0211793D02*
X0057667Y0216407D01*
X0053053Y0216407D01*
X0053053Y0216307D01*
X0053173Y0215545D01*
X0053412Y0214812D01*
X0053762Y0214125D01*
X0054215Y0213501D01*
X0054761Y0212955D01*
X0055385Y0212502D01*
X0056072Y0212152D01*
X0056805Y0211914D01*
X0057567Y0211793D01*
X0057667Y0211793D01*
X0055869Y0211350D02*
X0050037Y0211350D01*
X0051021Y0212548D02*
X0055321Y0212548D01*
X0054036Y0213747D02*
X0052219Y0213747D01*
X0052749Y0214945D02*
X0053368Y0214945D01*
X0053079Y0216144D02*
X0053053Y0216144D01*
X0053053Y0217342D02*
X0053095Y0217342D01*
X0053401Y0218541D02*
X0052707Y0218541D01*
X0052119Y0219739D02*
X0054109Y0219739D01*
X0055491Y0220938D02*
X0050920Y0220938D01*
X0044985Y0220938D02*
X0040920Y0220938D01*
X0042119Y0219739D02*
X0043787Y0219739D01*
X0043198Y0218541D02*
X0042707Y0218541D01*
X0034985Y0220938D02*
X0008446Y0220938D01*
X0007750Y0219739D02*
X0033787Y0219739D01*
X0033198Y0218541D02*
X0021354Y0218541D01*
X0020234Y0219005D02*
X0022921Y0217892D01*
X0024978Y0215835D01*
X0026091Y0213147D01*
X0026091Y0210238D01*
X0024978Y0207551D01*
X0022921Y0205494D01*
X0020234Y0204381D01*
X0017325Y0204381D01*
X0014638Y0205494D01*
X0012581Y0207551D01*
X0011468Y0210238D01*
X0011468Y0213147D01*
X0012581Y0215835D01*
X0014638Y0217892D01*
X0017325Y0219005D01*
X0020234Y0219005D01*
X0023470Y0217342D02*
X0032853Y0217342D01*
X0032853Y0216144D02*
X0024669Y0216144D01*
X0025347Y0214945D02*
X0033156Y0214945D01*
X0033686Y0213747D02*
X0025843Y0213747D01*
X0026091Y0212548D02*
X0034885Y0212548D01*
X0035869Y0211350D02*
X0026091Y0211350D01*
X0026055Y0210151D02*
X0034199Y0210151D01*
X0033369Y0208953D02*
X0025559Y0208953D01*
X0025062Y0207754D02*
X0032872Y0207754D01*
X0032853Y0206556D02*
X0023983Y0206556D01*
X0022591Y0205357D02*
X0032986Y0205357D01*
X0033482Y0204159D02*
X0006800Y0204159D01*
X0006800Y0205357D02*
X0014968Y0205357D01*
X0013576Y0206556D02*
X0006800Y0206556D01*
X0006800Y0207754D02*
X0012497Y0207754D01*
X0012000Y0208953D02*
X0006800Y0208953D01*
X0006800Y0210151D02*
X0011504Y0210151D01*
X0011468Y0211350D02*
X0006800Y0211350D01*
X0006800Y0212548D02*
X0011468Y0212548D01*
X0011716Y0213747D02*
X0006800Y0213747D01*
X0006800Y0214945D02*
X0012213Y0214945D01*
X0012890Y0216144D02*
X0006840Y0216144D01*
X0006971Y0217342D02*
X0014089Y0217342D01*
X0016206Y0218541D02*
X0007360Y0218541D01*
X0009316Y0222137D02*
X0256589Y0222137D01*
X0257460Y0220938D02*
X0230920Y0220938D01*
X0232119Y0219739D02*
X0258156Y0219739D01*
X0258545Y0218541D02*
X0249700Y0218541D01*
X0248580Y0219005D02*
X0251268Y0217892D01*
X0253325Y0215835D01*
X0254438Y0213147D01*
X0254438Y0210238D01*
X0253325Y0207551D01*
X0251268Y0205494D01*
X0248580Y0204381D01*
X0245672Y0204381D01*
X0242984Y0205494D01*
X0240927Y0207551D01*
X0239814Y0210238D01*
X0239814Y0213147D01*
X0240927Y0215835D01*
X0242984Y0217892D01*
X0245672Y0219005D01*
X0248580Y0219005D01*
X0244552Y0218541D02*
X0232707Y0218541D01*
X0233053Y0217342D02*
X0242435Y0217342D01*
X0241237Y0216144D02*
X0233053Y0216144D01*
X0232749Y0214945D02*
X0240559Y0214945D01*
X0240063Y0213747D02*
X0232219Y0213747D01*
X0231021Y0212548D02*
X0239814Y0212548D01*
X0239814Y0211350D02*
X0229477Y0211350D01*
X0229834Y0211234D02*
X0229100Y0211472D01*
X0228338Y0211593D01*
X0228239Y0211593D01*
X0228239Y0206979D01*
X0232853Y0206979D01*
X0232853Y0207079D01*
X0232732Y0207840D01*
X0232494Y0208574D01*
X0232144Y0209261D01*
X0231690Y0209885D01*
X0231145Y0210430D01*
X0230521Y0210884D01*
X0229834Y0211234D01*
X0228239Y0211350D02*
X0227667Y0211350D01*
X0227667Y0211593D02*
X0227567Y0211593D01*
X0226805Y0211472D01*
X0226072Y0211234D01*
X0225385Y0210884D01*
X0224761Y0210430D01*
X0224215Y0209885D01*
X0223762Y0209261D01*
X0223412Y0208574D01*
X0223173Y0207840D01*
X0223053Y0207079D01*
X0223053Y0206979D01*
X0227667Y0206979D01*
X0227667Y0211593D01*
X0226429Y0211350D02*
X0220037Y0211350D01*
X0221021Y0212548D02*
X0224885Y0212548D01*
X0223686Y0213747D02*
X0222219Y0213747D01*
X0222749Y0214945D02*
X0223156Y0214945D01*
X0223198Y0218541D02*
X0222707Y0218541D01*
X0222119Y0219739D02*
X0223787Y0219739D01*
X0224985Y0220938D02*
X0220920Y0220938D01*
X0214985Y0220938D02*
X0210920Y0220938D01*
X0212119Y0219739D02*
X0213787Y0219739D01*
X0213198Y0218541D02*
X0212707Y0218541D01*
X0204985Y0220938D02*
X0200414Y0220938D01*
X0200521Y0220884D02*
X0199834Y0221234D01*
X0199100Y0221472D01*
X0198338Y0221593D01*
X0198239Y0221593D01*
X0198239Y0216979D01*
X0202853Y0216979D01*
X0202853Y0217079D01*
X0202732Y0217840D01*
X0202494Y0218574D01*
X0202144Y0219261D01*
X0201690Y0219885D01*
X0201145Y0220430D01*
X0200521Y0220884D01*
X0201796Y0219739D02*
X0203787Y0219739D01*
X0203198Y0218541D02*
X0202504Y0218541D01*
X0202811Y0217342D02*
X0202853Y0217342D01*
X0202853Y0216407D02*
X0198239Y0216407D01*
X0198239Y0216979D01*
X0197667Y0216979D01*
X0197667Y0221593D01*
X0197567Y0221593D01*
X0196805Y0221472D01*
X0196072Y0221234D01*
X0195385Y0220884D01*
X0194761Y0220430D01*
X0194215Y0219885D01*
X0193762Y0219261D01*
X0193412Y0218574D01*
X0193173Y0217840D01*
X0193053Y0217079D01*
X0193053Y0216979D01*
X0197667Y0216979D01*
X0197667Y0216407D01*
X0198239Y0216407D01*
X0198239Y0211793D01*
X0198338Y0211793D01*
X0199100Y0211914D01*
X0199834Y0212152D01*
X0200521Y0212502D01*
X0201145Y0212955D01*
X0201690Y0213501D01*
X0202144Y0214125D01*
X0202494Y0214812D01*
X0202732Y0215545D01*
X0202853Y0216307D01*
X0202853Y0216407D01*
X0202853Y0216144D02*
X0202827Y0216144D01*
X0202537Y0214945D02*
X0203156Y0214945D01*
X0203686Y0213747D02*
X0201869Y0213747D01*
X0200585Y0212548D02*
X0204885Y0212548D01*
X0205869Y0211350D02*
X0200037Y0211350D01*
X0201707Y0210151D02*
X0204199Y0210151D01*
X0203369Y0208953D02*
X0202537Y0208953D01*
X0202920Y0205357D02*
X0202986Y0205357D01*
X0203482Y0204159D02*
X0202423Y0204159D01*
X0201433Y0202960D02*
X0204473Y0202960D01*
X0206531Y0201762D02*
X0199375Y0201762D01*
X0196531Y0201762D02*
X0189375Y0201762D01*
X0191433Y0202960D02*
X0194473Y0202960D01*
X0193482Y0204159D02*
X0192423Y0204159D01*
X0192920Y0205357D02*
X0192986Y0205357D01*
X0193369Y0208953D02*
X0192537Y0208953D01*
X0191707Y0210151D02*
X0194199Y0210151D01*
X0195869Y0211350D02*
X0190037Y0211350D01*
X0191021Y0212548D02*
X0195321Y0212548D01*
X0195385Y0212502D02*
X0196072Y0212152D01*
X0196805Y0211914D01*
X0197567Y0211793D01*
X0197667Y0211793D01*
X0197667Y0216407D01*
X0193053Y0216407D01*
X0193053Y0216307D01*
X0193173Y0215545D01*
X0193412Y0214812D01*
X0193762Y0214125D01*
X0194215Y0213501D01*
X0194761Y0212955D01*
X0195385Y0212502D01*
X0194036Y0213747D02*
X0192219Y0213747D01*
X0192749Y0214945D02*
X0193368Y0214945D01*
X0193079Y0216144D02*
X0193053Y0216144D01*
X0193053Y0217342D02*
X0193095Y0217342D01*
X0193401Y0218541D02*
X0192707Y0218541D01*
X0192119Y0219739D02*
X0194109Y0219739D01*
X0195491Y0220938D02*
X0190920Y0220938D01*
X0197667Y0220938D02*
X0198239Y0220938D01*
X0198239Y0219739D02*
X0197667Y0219739D01*
X0197667Y0218541D02*
X0198239Y0218541D01*
X0198239Y0217342D02*
X0197667Y0217342D01*
X0197667Y0216144D02*
X0198239Y0216144D01*
X0198239Y0214945D02*
X0197667Y0214945D01*
X0197667Y0213747D02*
X0198239Y0213747D01*
X0198239Y0212548D02*
X0197667Y0212548D01*
X0185869Y0211350D02*
X0180037Y0211350D01*
X0179834Y0212152D02*
X0180521Y0212502D01*
X0181145Y0212955D01*
X0181690Y0213501D01*
X0182144Y0214125D01*
X0182494Y0214812D01*
X0182732Y0215545D01*
X0182853Y0216307D01*
X0182853Y0216407D01*
X0178239Y0216407D01*
X0178239Y0216979D01*
X0182853Y0216979D01*
X0182853Y0217079D01*
X0182732Y0217840D01*
X0182494Y0218574D01*
X0182144Y0219261D01*
X0181690Y0219885D01*
X0181145Y0220430D01*
X0180521Y0220884D01*
X0179834Y0221234D01*
X0179100Y0221472D01*
X0178338Y0221593D01*
X0178239Y0221593D01*
X0178239Y0216979D01*
X0177667Y0216979D01*
X0177667Y0221593D01*
X0177567Y0221593D01*
X0176805Y0221472D01*
X0176072Y0221234D01*
X0175385Y0220884D01*
X0174761Y0220430D01*
X0174215Y0219885D01*
X0173762Y0219261D01*
X0173412Y0218574D01*
X0173173Y0217840D01*
X0173053Y0217079D01*
X0173053Y0216979D01*
X0177667Y0216979D01*
X0177667Y0216407D01*
X0178239Y0216407D01*
X0178239Y0211793D01*
X0178338Y0211793D01*
X0179100Y0211914D01*
X0179834Y0212152D01*
X0180585Y0212548D02*
X0184885Y0212548D01*
X0183686Y0213747D02*
X0181869Y0213747D01*
X0182537Y0214945D02*
X0183156Y0214945D01*
X0182853Y0216144D02*
X0182827Y0216144D01*
X0182811Y0217342D02*
X0182853Y0217342D01*
X0183198Y0218541D02*
X0182504Y0218541D01*
X0181796Y0219739D02*
X0183787Y0219739D01*
X0184985Y0220938D02*
X0180414Y0220938D01*
X0178239Y0220938D02*
X0177667Y0220938D01*
X0177667Y0219739D02*
X0178239Y0219739D01*
X0178239Y0218541D02*
X0177667Y0218541D01*
X0177667Y0217342D02*
X0178239Y0217342D01*
X0177667Y0216407D02*
X0173053Y0216407D01*
X0173053Y0216307D01*
X0173173Y0215545D01*
X0173412Y0214812D01*
X0173762Y0214125D01*
X0174215Y0213501D01*
X0174761Y0212955D01*
X0175385Y0212502D01*
X0176072Y0212152D01*
X0176805Y0211914D01*
X0177567Y0211793D01*
X0177667Y0211793D01*
X0177667Y0216407D01*
X0177667Y0216144D02*
X0178239Y0216144D01*
X0178239Y0214945D02*
X0177667Y0214945D01*
X0177667Y0213747D02*
X0178239Y0213747D01*
X0178239Y0212548D02*
X0177667Y0212548D01*
X0175869Y0211350D02*
X0170037Y0211350D01*
X0171021Y0212548D02*
X0175321Y0212548D01*
X0174036Y0213747D02*
X0172219Y0213747D01*
X0172749Y0214945D02*
X0173368Y0214945D01*
X0173079Y0216144D02*
X0173053Y0216144D01*
X0173053Y0217342D02*
X0173095Y0217342D01*
X0173401Y0218541D02*
X0172707Y0218541D01*
X0172119Y0219739D02*
X0174109Y0219739D01*
X0175491Y0220938D02*
X0170920Y0220938D01*
X0164985Y0220938D02*
X0160920Y0220938D01*
X0162119Y0219739D02*
X0163787Y0219739D01*
X0163198Y0218541D02*
X0162707Y0218541D01*
X0162749Y0214945D02*
X0163156Y0214945D01*
X0163686Y0213747D02*
X0162219Y0213747D01*
X0161021Y0212548D02*
X0164885Y0212548D01*
X0165869Y0211350D02*
X0159477Y0211350D01*
X0159834Y0211234D02*
X0159100Y0211472D01*
X0158338Y0211593D01*
X0158239Y0211593D01*
X0158239Y0206979D01*
X0162853Y0206979D01*
X0162853Y0207079D01*
X0162732Y0207840D01*
X0162494Y0208574D01*
X0162144Y0209261D01*
X0161690Y0209885D01*
X0161145Y0210430D01*
X0160521Y0210884D01*
X0159834Y0211234D01*
X0158239Y0211350D02*
X0157667Y0211350D01*
X0157667Y0211593D02*
X0157567Y0211593D01*
X0156805Y0211472D01*
X0156072Y0211234D01*
X0155385Y0210884D01*
X0154761Y0210430D01*
X0154215Y0209885D01*
X0153762Y0209261D01*
X0153412Y0208574D01*
X0153173Y0207840D01*
X0153053Y0207079D01*
X0153053Y0206979D01*
X0157667Y0206979D01*
X0157667Y0211593D01*
X0156429Y0211350D02*
X0150037Y0211350D01*
X0151021Y0212548D02*
X0154885Y0212548D01*
X0153686Y0213747D02*
X0152219Y0213747D01*
X0152749Y0214945D02*
X0153156Y0214945D01*
X0153198Y0218541D02*
X0152707Y0218541D01*
X0152119Y0219739D02*
X0153787Y0219739D01*
X0154985Y0220938D02*
X0150920Y0220938D01*
X0144985Y0220938D02*
X0140920Y0220938D01*
X0142119Y0219739D02*
X0143787Y0219739D01*
X0143198Y0218541D02*
X0142707Y0218541D01*
X0134985Y0220938D02*
X0130414Y0220938D01*
X0130521Y0220884D02*
X0129834Y0221234D01*
X0129100Y0221472D01*
X0128338Y0221593D01*
X0128239Y0221593D01*
X0128239Y0216979D01*
X0132853Y0216979D01*
X0132853Y0217079D01*
X0132732Y0217840D01*
X0132494Y0218574D01*
X0132144Y0219261D01*
X0131690Y0219885D01*
X0131145Y0220430D01*
X0130521Y0220884D01*
X0131796Y0219739D02*
X0133787Y0219739D01*
X0133198Y0218541D02*
X0132504Y0218541D01*
X0132811Y0217342D02*
X0132853Y0217342D01*
X0132853Y0216407D02*
X0128239Y0216407D01*
X0128239Y0216979D01*
X0127667Y0216979D01*
X0127667Y0221593D01*
X0127567Y0221593D01*
X0126805Y0221472D01*
X0126072Y0221234D01*
X0125385Y0220884D01*
X0124761Y0220430D01*
X0124215Y0219885D01*
X0123762Y0219261D01*
X0123412Y0218574D01*
X0123173Y0217840D01*
X0123053Y0217079D01*
X0123053Y0216979D01*
X0127667Y0216979D01*
X0127667Y0216407D01*
X0128239Y0216407D01*
X0128239Y0211793D01*
X0128338Y0211793D01*
X0129100Y0211914D01*
X0129834Y0212152D01*
X0130521Y0212502D01*
X0131145Y0212955D01*
X0131690Y0213501D01*
X0132144Y0214125D01*
X0132494Y0214812D01*
X0132732Y0215545D01*
X0132853Y0216307D01*
X0132853Y0216407D01*
X0132853Y0216144D02*
X0132827Y0216144D01*
X0132537Y0214945D02*
X0133156Y0214945D01*
X0133686Y0213747D02*
X0131869Y0213747D01*
X0130585Y0212548D02*
X0134885Y0212548D01*
X0135869Y0211350D02*
X0130037Y0211350D01*
X0131707Y0210151D02*
X0134199Y0210151D01*
X0133369Y0208953D02*
X0132537Y0208953D01*
X0132920Y0205357D02*
X0132986Y0205357D01*
X0133482Y0204159D02*
X0132423Y0204159D01*
X0131433Y0202960D02*
X0134473Y0202960D01*
X0136531Y0201762D02*
X0129375Y0201762D01*
X0126531Y0201762D02*
X0119375Y0201762D01*
X0121433Y0202960D02*
X0124473Y0202960D01*
X0123482Y0204159D02*
X0122423Y0204159D01*
X0122920Y0205357D02*
X0122986Y0205357D01*
X0123369Y0208953D02*
X0122537Y0208953D01*
X0121707Y0210151D02*
X0124199Y0210151D01*
X0125869Y0211350D02*
X0120037Y0211350D01*
X0121021Y0212548D02*
X0125321Y0212548D01*
X0125385Y0212502D02*
X0126072Y0212152D01*
X0126805Y0211914D01*
X0127567Y0211793D01*
X0127667Y0211793D01*
X0127667Y0216407D01*
X0123053Y0216407D01*
X0123053Y0216307D01*
X0123173Y0215545D01*
X0123412Y0214812D01*
X0123762Y0214125D01*
X0124215Y0213501D01*
X0124761Y0212955D01*
X0125385Y0212502D01*
X0124036Y0213747D02*
X0122219Y0213747D01*
X0122749Y0214945D02*
X0123368Y0214945D01*
X0123079Y0216144D02*
X0123053Y0216144D01*
X0123053Y0217342D02*
X0123095Y0217342D01*
X0123401Y0218541D02*
X0122707Y0218541D01*
X0122119Y0219739D02*
X0124109Y0219739D01*
X0125491Y0220938D02*
X0120920Y0220938D01*
X0114985Y0220938D02*
X0110920Y0220938D01*
X0112119Y0219739D02*
X0113787Y0219739D01*
X0113198Y0218541D02*
X0112707Y0218541D01*
X0112920Y0205357D02*
X0112986Y0205357D01*
X0113482Y0204159D02*
X0112423Y0204159D01*
X0111433Y0202960D02*
X0114473Y0202960D01*
X0116531Y0201762D02*
X0109375Y0201762D01*
X0094473Y0202960D02*
X0091433Y0202960D01*
X0092423Y0204159D02*
X0093482Y0204159D01*
X0092986Y0205357D02*
X0092920Y0205357D01*
X0084538Y0196968D02*
X0075400Y0196968D01*
X0075400Y0198166D02*
X0083340Y0198166D01*
X0082141Y0199365D02*
X0075400Y0199365D01*
X0075400Y0200563D02*
X0080943Y0200563D01*
X0080400Y0201762D02*
X0075400Y0201762D01*
X0077667Y0202960D02*
X0078239Y0202960D01*
X0078239Y0204159D02*
X0077667Y0204159D01*
X0077667Y0205357D02*
X0078239Y0205357D01*
X0078239Y0206979D02*
X0077667Y0206979D01*
X0077667Y0211593D01*
X0077567Y0211593D01*
X0076805Y0211472D01*
X0076072Y0211234D01*
X0075400Y0210892D01*
X0075400Y0212077D01*
X0075324Y0212262D01*
X0076938Y0211593D01*
X0078967Y0211593D01*
X0079456Y0211795D01*
X0080209Y0211043D01*
X0079834Y0211234D01*
X0079100Y0211472D01*
X0078338Y0211593D01*
X0078239Y0211593D01*
X0078239Y0206979D01*
X0078239Y0207754D02*
X0077667Y0207754D01*
X0077667Y0208953D02*
X0078239Y0208953D01*
X0078239Y0210151D02*
X0077667Y0210151D01*
X0077667Y0211350D02*
X0078239Y0211350D01*
X0079477Y0211350D02*
X0079902Y0211350D01*
X0076429Y0211350D02*
X0075400Y0211350D01*
X0073198Y0218541D02*
X0072707Y0218541D01*
X0072119Y0219739D02*
X0073787Y0219739D01*
X0074985Y0220938D02*
X0070920Y0220938D01*
X0064985Y0220938D02*
X0060414Y0220938D01*
X0061796Y0219739D02*
X0063787Y0219739D01*
X0063198Y0218541D02*
X0062504Y0218541D01*
X0062811Y0217342D02*
X0062853Y0217342D01*
X0062827Y0216144D02*
X0062853Y0216144D01*
X0063156Y0214945D02*
X0062537Y0214945D01*
X0058239Y0214945D02*
X0057667Y0214945D01*
X0057667Y0213747D02*
X0058239Y0213747D01*
X0058239Y0216144D02*
X0057667Y0216144D01*
X0057667Y0217342D02*
X0058239Y0217342D01*
X0058239Y0218541D02*
X0057667Y0218541D01*
X0057667Y0219739D02*
X0058239Y0219739D01*
X0058239Y0220938D02*
X0057667Y0220938D01*
X0054199Y0210151D02*
X0051707Y0210151D01*
X0052537Y0208953D02*
X0053369Y0208953D01*
X0052986Y0205357D02*
X0052920Y0205357D01*
X0052423Y0204159D02*
X0053482Y0204159D01*
X0054473Y0202960D02*
X0051433Y0202960D01*
X0049375Y0201762D02*
X0056531Y0201762D01*
X0059375Y0201762D02*
X0066531Y0201762D01*
X0064473Y0202960D02*
X0061433Y0202960D01*
X0062423Y0204159D02*
X0063482Y0204159D01*
X0062986Y0205357D02*
X0062920Y0205357D01*
X0069375Y0201762D02*
X0070600Y0201762D01*
X0070600Y0200563D02*
X0006800Y0200563D01*
X0006800Y0199365D02*
X0070600Y0199365D01*
X0070600Y0198166D02*
X0006800Y0198166D01*
X0006800Y0196968D02*
X0070600Y0196968D01*
X0070600Y0195769D02*
X0021278Y0195769D01*
X0022259Y0194571D02*
X0070600Y0194571D01*
X0070600Y0193372D02*
X0022681Y0193372D01*
X0022681Y0192174D02*
X0070600Y0192174D01*
X0070600Y0190975D02*
X0022237Y0190975D01*
X0021300Y0189777D02*
X0070600Y0189777D01*
X0070600Y0188578D02*
X0021300Y0188578D01*
X0021300Y0187380D02*
X0070600Y0187380D01*
X0070600Y0186181D02*
X0021300Y0186181D01*
X0021300Y0184983D02*
X0070600Y0184983D01*
X0070600Y0183784D02*
X0021300Y0183784D01*
X0021300Y0182586D02*
X0070600Y0182586D01*
X0070600Y0181387D02*
X0021300Y0181387D01*
X0021300Y0180189D02*
X0070600Y0180189D01*
X0070600Y0178990D02*
X0021300Y0178990D01*
X0021300Y0177792D02*
X0070600Y0177792D01*
X0070600Y0176593D02*
X0021300Y0176593D01*
X0021300Y0175395D02*
X0070600Y0175395D01*
X0070600Y0174196D02*
X0021300Y0174196D01*
X0021300Y0172998D02*
X0070600Y0172998D01*
X0070775Y0171799D02*
X0021300Y0171799D01*
X0021300Y0170601D02*
X0071705Y0170601D01*
X0072904Y0169402D02*
X0021300Y0169402D01*
X0021300Y0168203D02*
X0074102Y0168203D01*
X0075301Y0167005D02*
X0021300Y0167005D01*
X0021300Y0165806D02*
X0076499Y0165806D01*
X0077600Y0164608D02*
X0021300Y0164608D01*
X0021300Y0163409D02*
X0077600Y0163409D01*
X0077600Y0162211D02*
X0021300Y0162211D01*
X0021300Y0161012D02*
X0077600Y0161012D01*
X0077600Y0159814D02*
X0021300Y0159814D01*
X0021300Y0158615D02*
X0077600Y0158615D01*
X0077600Y0157417D02*
X0022277Y0157417D01*
X0021800Y0154500D02*
X0018900Y0157400D01*
X0018900Y0192800D01*
X0016522Y0195769D02*
X0006800Y0195769D01*
X0006800Y0194571D02*
X0015541Y0194571D01*
X0015119Y0193372D02*
X0006800Y0193372D01*
X0006800Y0192174D02*
X0015119Y0192174D01*
X0015563Y0190975D02*
X0006800Y0190975D01*
X0006800Y0189777D02*
X0016500Y0189777D01*
X0016500Y0188578D02*
X0006800Y0188578D01*
X0006800Y0187380D02*
X0016500Y0187380D01*
X0016500Y0186181D02*
X0006800Y0186181D01*
X0006800Y0184983D02*
X0016500Y0184983D01*
X0016500Y0183784D02*
X0006800Y0183784D01*
X0006800Y0182586D02*
X0016500Y0182586D01*
X0016500Y0181387D02*
X0006800Y0181387D01*
X0006800Y0180189D02*
X0016500Y0180189D01*
X0016500Y0178990D02*
X0006800Y0178990D01*
X0006800Y0177792D02*
X0016500Y0177792D01*
X0016500Y0176593D02*
X0006800Y0176593D01*
X0006800Y0175395D02*
X0016500Y0175395D01*
X0016500Y0174196D02*
X0006800Y0174196D01*
X0006800Y0172998D02*
X0016500Y0172998D01*
X0016500Y0171799D02*
X0006800Y0171799D01*
X0006800Y0170601D02*
X0016500Y0170601D01*
X0016500Y0169402D02*
X0006800Y0169402D01*
X0006800Y0168203D02*
X0016500Y0168203D01*
X0016500Y0167005D02*
X0006800Y0167005D01*
X0006800Y0165806D02*
X0016500Y0165806D01*
X0016500Y0164608D02*
X0006800Y0164608D01*
X0006800Y0163409D02*
X0016500Y0163409D01*
X0016500Y0162211D02*
X0006800Y0162211D01*
X0006800Y0161012D02*
X0016500Y0161012D01*
X0016500Y0159814D02*
X0006800Y0159814D01*
X0006800Y0158615D02*
X0016500Y0158615D01*
X0016500Y0157417D02*
X0006800Y0157417D01*
X0006800Y0156218D02*
X0016792Y0156218D01*
X0017886Y0155020D02*
X0006800Y0155020D01*
X0006800Y0153821D02*
X0019085Y0153821D01*
X0020283Y0152623D02*
X0006800Y0152623D01*
X0006800Y0151424D02*
X0071082Y0151424D01*
X0071900Y0150226D02*
X0022553Y0150226D01*
X0024598Y0149027D02*
X0071900Y0149027D01*
X0071900Y0147829D02*
X0025688Y0147829D01*
X0026185Y0146630D02*
X0071900Y0146630D01*
X0071900Y0145432D02*
X0026485Y0145432D01*
X0026485Y0144233D02*
X0071900Y0144233D01*
X0071900Y0143035D02*
X0026485Y0143035D01*
X0026485Y0141836D02*
X0071900Y0141836D01*
X0071900Y0140638D02*
X0026485Y0140638D01*
X0021800Y0154500D02*
X0071400Y0154500D01*
X0074300Y0151600D01*
X0074300Y0083800D01*
X0077610Y0081911D02*
X0078895Y0081911D01*
X0080094Y0080712D02*
X0076559Y0080712D01*
X0072041Y0080712D02*
X0071900Y0080712D01*
X0071900Y0079514D02*
X0081292Y0079514D01*
X0083286Y0084308D02*
X0102360Y0084308D01*
X0102129Y0071124D02*
X0071900Y0071124D01*
X0072569Y0069926D02*
X0102300Y0069926D01*
X0102300Y0068727D02*
X0074083Y0068727D01*
X0076019Y0067529D02*
X0102300Y0067529D01*
X0102300Y0066330D02*
X0076742Y0066330D01*
X0076981Y0065132D02*
X0102300Y0065132D01*
X0101439Y0063933D02*
X0076851Y0063933D01*
X0076282Y0062734D02*
X0100240Y0062734D01*
X0099042Y0061536D02*
X0074718Y0061536D01*
X0073200Y0065000D02*
X0073200Y0065900D01*
X0069500Y0069600D01*
X0069500Y0124800D01*
X0069400Y0124900D01*
X0076700Y0125057D02*
X0077600Y0125057D01*
X0077600Y0123859D02*
X0076700Y0123859D01*
X0076700Y0122660D02*
X0077600Y0122660D01*
X0077600Y0121462D02*
X0076700Y0121462D01*
X0076700Y0120263D02*
X0077600Y0120263D01*
X0077600Y0119065D02*
X0076700Y0119065D01*
X0076700Y0117866D02*
X0077600Y0117866D01*
X0077600Y0116668D02*
X0076700Y0116668D01*
X0076700Y0115469D02*
X0077600Y0115469D01*
X0077600Y0114270D02*
X0076700Y0114270D01*
X0076700Y0113072D02*
X0077600Y0113072D01*
X0077600Y0126256D02*
X0076700Y0126256D01*
X0076700Y0127454D02*
X0077600Y0127454D01*
X0077600Y0128653D02*
X0076700Y0128653D01*
X0076700Y0129851D02*
X0077600Y0129851D01*
X0077600Y0131050D02*
X0076700Y0131050D01*
X0076700Y0132248D02*
X0077600Y0132248D01*
X0077600Y0133447D02*
X0076700Y0133447D01*
X0076700Y0134645D02*
X0077600Y0134645D01*
X0077600Y0135844D02*
X0076700Y0135844D01*
X0076700Y0137042D02*
X0077600Y0137042D01*
X0077600Y0138241D02*
X0076700Y0138241D01*
X0076700Y0139439D02*
X0077600Y0139439D01*
X0077600Y0140638D02*
X0076700Y0140638D01*
X0076700Y0141836D02*
X0077600Y0141836D01*
X0077600Y0143035D02*
X0076700Y0143035D01*
X0076700Y0144233D02*
X0077600Y0144233D01*
X0077600Y0145432D02*
X0076700Y0145432D01*
X0076700Y0146630D02*
X0077600Y0146630D01*
X0077600Y0147829D02*
X0076700Y0147829D01*
X0076700Y0149027D02*
X0077600Y0149027D01*
X0077600Y0150226D02*
X0076700Y0150226D01*
X0076700Y0151424D02*
X0077600Y0151424D01*
X0077600Y0152623D02*
X0076474Y0152623D01*
X0075659Y0153635D02*
X0075659Y0153635D01*
X0075473Y0153821D02*
X0077600Y0153821D01*
X0077600Y0155020D02*
X0074274Y0155020D01*
X0073076Y0156218D02*
X0077600Y0156218D01*
X0082400Y0156218D02*
X0086900Y0156218D01*
X0086900Y0155020D02*
X0082400Y0155020D01*
X0082400Y0153821D02*
X0086900Y0153821D01*
X0086900Y0152623D02*
X0082400Y0152623D01*
X0082400Y0151424D02*
X0086900Y0151424D01*
X0086900Y0150226D02*
X0082400Y0150226D01*
X0082400Y0149027D02*
X0086900Y0149027D01*
X0086900Y0147829D02*
X0082400Y0147829D01*
X0082400Y0146630D02*
X0086900Y0146630D01*
X0086900Y0145432D02*
X0082400Y0145432D01*
X0082400Y0157417D02*
X0086900Y0157417D01*
X0086900Y0158615D02*
X0082400Y0158615D01*
X0082400Y0159814D02*
X0086900Y0159814D01*
X0086900Y0161012D02*
X0082400Y0161012D01*
X0082400Y0162211D02*
X0086900Y0162211D01*
X0086900Y0163409D02*
X0082400Y0163409D01*
X0082400Y0164608D02*
X0086900Y0164608D01*
X0086900Y0165806D02*
X0082400Y0165806D01*
X0082057Y0167005D02*
X0086900Y0167005D01*
X0086900Y0168203D02*
X0080891Y0168203D01*
X0079692Y0169402D02*
X0086900Y0169402D01*
X0086900Y0170601D02*
X0078494Y0170601D01*
X0077295Y0171799D02*
X0086900Y0171799D01*
X0086900Y0172998D02*
X0076097Y0172998D01*
X0075400Y0174196D02*
X0086900Y0174196D01*
X0086900Y0175395D02*
X0075400Y0175395D01*
X0075400Y0176593D02*
X0086900Y0176593D01*
X0086900Y0177792D02*
X0075400Y0177792D01*
X0075400Y0178990D02*
X0086900Y0178990D01*
X0086900Y0180189D02*
X0075400Y0180189D01*
X0075400Y0181387D02*
X0086900Y0181387D01*
X0086900Y0182586D02*
X0075400Y0182586D01*
X0075400Y0183784D02*
X0086900Y0183784D01*
X0086900Y0184983D02*
X0075400Y0184983D01*
X0075400Y0186181D02*
X0086900Y0186181D01*
X0086900Y0187380D02*
X0075400Y0187380D01*
X0075400Y0188578D02*
X0086900Y0188578D01*
X0086900Y0189777D02*
X0075400Y0189777D01*
X0075400Y0190975D02*
X0086900Y0190975D01*
X0086900Y0192174D02*
X0075400Y0192174D01*
X0075400Y0193372D02*
X0086900Y0193372D01*
X0086900Y0194571D02*
X0075400Y0194571D01*
X0075400Y0195769D02*
X0085737Y0195769D01*
X0046531Y0201762D02*
X0039375Y0201762D01*
X0041433Y0202960D02*
X0044473Y0202960D01*
X0043482Y0204159D02*
X0042423Y0204159D01*
X0042920Y0205357D02*
X0042986Y0205357D01*
X0036531Y0201762D02*
X0006800Y0201762D01*
X0006800Y0202960D02*
X0034473Y0202960D01*
X0010594Y0223335D02*
X0255311Y0223335D01*
X0253662Y0224534D02*
X0012244Y0224534D01*
X0055000Y0126506D02*
X0061400Y0120106D01*
X0061400Y0090847D01*
X0061100Y0091147D01*
X0061100Y0097877D01*
X0060735Y0098759D01*
X0060059Y0099435D01*
X0057459Y0102035D01*
X0056577Y0102400D01*
X0054678Y0102400D01*
X0055000Y0102722D01*
X0055000Y0107278D01*
X0052137Y0110141D01*
X0054800Y0112805D01*
X0054800Y0114600D01*
X0049900Y0114600D01*
X0049900Y0115400D01*
X0054800Y0115400D01*
X0054800Y0117195D01*
X0052137Y0119859D01*
X0055000Y0122722D01*
X0055000Y0126506D01*
X0055000Y0126256D02*
X0055250Y0126256D01*
X0055000Y0125057D02*
X0056449Y0125057D01*
X0057647Y0123859D02*
X0055000Y0123859D01*
X0054938Y0122660D02*
X0058846Y0122660D01*
X0060044Y0121462D02*
X0053740Y0121462D01*
X0052541Y0120263D02*
X0061243Y0120263D01*
X0061400Y0119065D02*
X0052931Y0119065D01*
X0054129Y0117866D02*
X0061400Y0117866D01*
X0061400Y0116668D02*
X0054800Y0116668D01*
X0054800Y0115469D02*
X0061400Y0115469D01*
X0061400Y0114270D02*
X0054800Y0114270D01*
X0054800Y0113072D02*
X0061400Y0113072D01*
X0061400Y0111873D02*
X0053869Y0111873D01*
X0052670Y0110675D02*
X0061400Y0110675D01*
X0061400Y0109476D02*
X0052802Y0109476D01*
X0054000Y0108278D02*
X0061400Y0108278D01*
X0061400Y0107079D02*
X0055000Y0107079D01*
X0055000Y0105881D02*
X0061400Y0105881D01*
X0061400Y0104682D02*
X0055000Y0104682D01*
X0055000Y0103484D02*
X0061400Y0103484D01*
X0061400Y0102285D02*
X0056854Y0102285D01*
X0058407Y0101087D02*
X0061400Y0101087D01*
X0061400Y0099888D02*
X0059606Y0099888D01*
X0060763Y0098690D02*
X0061400Y0098690D01*
X0061400Y0097491D02*
X0061100Y0097491D01*
X0061100Y0096293D02*
X0061400Y0096293D01*
X0061400Y0095094D02*
X0061100Y0095094D01*
X0061100Y0093896D02*
X0061400Y0093896D01*
X0061400Y0092697D02*
X0061100Y0092697D01*
X0061100Y0091499D02*
X0061400Y0091499D01*
X0058700Y0088200D02*
X0058700Y0097400D01*
X0056100Y0100000D01*
X0044100Y0100000D01*
X0039500Y0095400D01*
X0039500Y0095000D01*
X0035412Y0098690D02*
X0032500Y0098690D01*
X0032500Y0099888D02*
X0036610Y0099888D01*
X0035635Y0101087D02*
X0032500Y0101087D01*
X0032500Y0102285D02*
X0034436Y0102285D01*
X0034000Y0103484D02*
X0032500Y0103484D01*
X0032500Y0104682D02*
X0034000Y0104682D01*
X0034000Y0105881D02*
X0032500Y0105881D01*
X0032500Y0107079D02*
X0034000Y0107079D01*
X0035000Y0108278D02*
X0032500Y0108278D01*
X0032500Y0109476D02*
X0036198Y0109476D01*
X0036047Y0110675D02*
X0032500Y0110675D01*
X0032500Y0111873D02*
X0034848Y0111873D01*
X0034000Y0113072D02*
X0032500Y0113072D01*
X0032500Y0114270D02*
X0034000Y0114270D01*
X0034000Y0115469D02*
X0032500Y0115469D01*
X0032500Y0116668D02*
X0034000Y0116668D01*
X0034588Y0117866D02*
X0032500Y0117866D01*
X0032500Y0119065D02*
X0035786Y0119065D01*
X0036459Y0120263D02*
X0032657Y0120263D01*
X0033856Y0121462D02*
X0035260Y0121462D01*
X0034213Y0097491D02*
X0032500Y0097491D01*
X0032500Y0096293D02*
X0034000Y0096293D01*
X0034000Y0095094D02*
X0032500Y0095094D01*
X0032500Y0093896D02*
X0034000Y0093896D01*
X0034025Y0092697D02*
X0032500Y0092697D01*
X0032500Y0091499D02*
X0035223Y0091499D01*
X0036422Y0090300D02*
X0032500Y0090300D01*
X0032500Y0089102D02*
X0054981Y0089102D01*
X0054919Y0087903D02*
X0032500Y0087903D01*
X0032500Y0086705D02*
X0055227Y0086705D01*
X0056046Y0085506D02*
X0032500Y0085506D01*
X0032500Y0084308D02*
X0061400Y0084308D01*
X0061353Y0085506D02*
X0061400Y0085506D01*
X0061400Y0083109D02*
X0032500Y0083109D01*
X0032500Y0081911D02*
X0061400Y0081911D01*
X0061400Y0080712D02*
X0032500Y0080712D01*
X0032500Y0079514D02*
X0061400Y0079514D01*
X0061400Y0078315D02*
X0032500Y0078315D01*
X0032500Y0077117D02*
X0061400Y0077117D01*
X0061400Y0075918D02*
X0032500Y0075918D01*
X0032500Y0074720D02*
X0061400Y0074720D01*
X0061400Y0073521D02*
X0032500Y0073521D01*
X0032500Y0072323D02*
X0061400Y0072323D01*
X0061400Y0071124D02*
X0032500Y0071124D01*
X0032500Y0069926D02*
X0048490Y0069926D01*
X0046980Y0068727D02*
X0032500Y0068727D01*
X0032500Y0067529D02*
X0046433Y0067529D01*
X0046319Y0066330D02*
X0032500Y0066330D01*
X0033263Y0065132D02*
X0046574Y0065132D01*
X0050100Y0066500D02*
X0050100Y0057900D01*
X0056900Y0051100D01*
X0057049Y0054345D02*
X0091851Y0054345D01*
X0093049Y0055543D02*
X0055851Y0055543D01*
X0054652Y0056742D02*
X0094248Y0056742D01*
X0095446Y0057940D02*
X0064846Y0057940D01*
X0062754Y0057940D02*
X0053454Y0057940D01*
X0052500Y0059139D02*
X0060914Y0059139D01*
X0060230Y0060337D02*
X0052500Y0060337D01*
X0052500Y0061536D02*
X0060019Y0061536D01*
X0060177Y0062734D02*
X0052500Y0062734D01*
X0052880Y0063933D02*
X0060786Y0063933D01*
X0061400Y0065132D02*
X0053626Y0065132D01*
X0053881Y0066330D02*
X0061400Y0066330D01*
X0061400Y0067529D02*
X0053767Y0067529D01*
X0053220Y0068727D02*
X0061400Y0068727D01*
X0061400Y0069926D02*
X0051710Y0069926D01*
X0041300Y0062300D02*
X0044100Y0059500D01*
X0044100Y0053700D01*
X0066686Y0059139D02*
X0096645Y0059139D01*
X0097843Y0060337D02*
X0067370Y0060337D01*
X0082190Y0044757D02*
X0141100Y0044757D01*
X0141100Y0043558D02*
X0084301Y0043558D01*
X0083747Y0044112D02*
X0083747Y0044112D01*
X0085272Y0042360D02*
X0141100Y0042360D01*
X0140767Y0041161D02*
X0085769Y0041161D01*
X0085850Y0039963D02*
X0139569Y0039963D01*
X0138370Y0038764D02*
X0085850Y0038764D01*
X0085850Y0037566D02*
X0137172Y0037566D01*
X0135973Y0036367D02*
X0116080Y0036367D01*
X0119999Y0047154D02*
X0006800Y0047154D01*
X0006800Y0048352D02*
X0118973Y0048352D01*
X0118519Y0049551D02*
X0093845Y0049551D01*
X0094035Y0049741D02*
X0094035Y0049741D01*
X0095043Y0050749D02*
X0118519Y0050749D01*
X0118931Y0051948D02*
X0096242Y0051948D01*
X0097441Y0053146D02*
X0119899Y0053146D01*
X0092700Y0014700D02*
X0087400Y0009400D01*
X0077200Y0009400D01*
X0072100Y0014500D01*
X0071900Y0014500D01*
X0071900Y0028100D01*
X0069072Y0025581D02*
X0021467Y0025581D01*
X0023517Y0024382D02*
X0069500Y0024382D01*
X0069500Y0023184D02*
X0024716Y0023184D01*
X0025366Y0021985D02*
X0069500Y0021985D01*
X0069500Y0020787D02*
X0025862Y0020787D01*
X0026091Y0019588D02*
X0069500Y0019588D01*
X0069500Y0018390D02*
X0026091Y0018390D01*
X0026036Y0017191D02*
X0069500Y0017191D01*
X0069500Y0015993D02*
X0025539Y0015993D01*
X0025043Y0014794D02*
X0069500Y0014794D01*
X0069677Y0013596D02*
X0023936Y0013596D01*
X0022477Y0012397D02*
X0070706Y0012397D01*
X0072007Y0011199D02*
X0008667Y0011199D01*
X0009538Y0010000D02*
X0073206Y0010000D01*
X0074404Y0008801D02*
X0011013Y0008801D01*
X0013153Y0007603D02*
X0075603Y0007603D01*
X0076150Y0032772D02*
X0006800Y0032772D01*
X0006800Y0033970D02*
X0076150Y0033970D01*
X0055477Y0090300D02*
X0052578Y0090300D01*
X0053777Y0091499D02*
X0056300Y0091499D01*
X0056300Y0092697D02*
X0054975Y0092697D01*
X0055000Y0093896D02*
X0056300Y0093896D01*
X0056300Y0095094D02*
X0055000Y0095094D01*
X0055000Y0096293D02*
X0056300Y0096293D01*
X0055215Y0097491D02*
X0054787Y0097491D01*
X0046422Y0090300D02*
X0042578Y0090300D01*
X0043777Y0091499D02*
X0045223Y0091499D01*
X0145693Y0091499D02*
X0245905Y0091499D01*
X0247103Y0092697D02*
X0146891Y0092697D01*
X0168600Y0014794D02*
X0189300Y0014794D01*
X0188701Y0013596D02*
X0169599Y0013596D01*
X0190464Y0008801D02*
X0217405Y0008801D01*
X0216464Y0010000D02*
X0191894Y0010000D01*
X0193093Y0011199D02*
X0216464Y0011199D01*
X0216464Y0012397D02*
X0193965Y0012397D01*
X0194100Y0013596D02*
X0217251Y0013596D01*
X0218933Y0014794D02*
X0194100Y0014794D01*
X0221765Y0014794D02*
X0227281Y0014794D01*
X0226439Y0008600D02*
X0226439Y0008600D01*
X0224742Y0008801D02*
X0223821Y0008801D01*
X0219375Y0201762D02*
X0259106Y0201762D01*
X0259106Y0202960D02*
X0231150Y0202960D01*
X0231145Y0202955D02*
X0231690Y0203501D01*
X0232144Y0204125D01*
X0232494Y0204812D01*
X0232732Y0205545D01*
X0232853Y0206307D01*
X0232853Y0206407D01*
X0228239Y0206407D01*
X0228239Y0206979D01*
X0227667Y0206979D01*
X0227667Y0206407D01*
X0228239Y0206407D01*
X0228239Y0201793D01*
X0228338Y0201793D01*
X0229100Y0201914D01*
X0229834Y0202152D01*
X0230521Y0202502D01*
X0231145Y0202955D01*
X0232161Y0204159D02*
X0259106Y0204159D01*
X0259106Y0205357D02*
X0250937Y0205357D01*
X0252329Y0206556D02*
X0259106Y0206556D01*
X0259106Y0207754D02*
X0253409Y0207754D01*
X0253905Y0208953D02*
X0259106Y0208953D01*
X0259106Y0210151D02*
X0254402Y0210151D01*
X0254438Y0211350D02*
X0259106Y0211350D01*
X0259106Y0212548D02*
X0254438Y0212548D01*
X0254189Y0213747D02*
X0259106Y0213747D01*
X0259106Y0214945D02*
X0253693Y0214945D01*
X0253015Y0216144D02*
X0259065Y0216144D01*
X0258935Y0217342D02*
X0251817Y0217342D01*
X0239850Y0210151D02*
X0231424Y0210151D01*
X0232301Y0208953D02*
X0240347Y0208953D01*
X0240843Y0207754D02*
X0232746Y0207754D01*
X0232671Y0205357D02*
X0243315Y0205357D01*
X0241923Y0206556D02*
X0228239Y0206556D01*
X0227667Y0206556D02*
X0223053Y0206556D01*
X0223053Y0206407D02*
X0223053Y0206307D01*
X0223173Y0205545D01*
X0223412Y0204812D01*
X0223762Y0204125D01*
X0224215Y0203501D01*
X0224761Y0202955D01*
X0225385Y0202502D01*
X0226072Y0202152D01*
X0226805Y0201914D01*
X0227567Y0201793D01*
X0227667Y0201793D01*
X0227667Y0206407D01*
X0223053Y0206407D01*
X0222920Y0205357D02*
X0223235Y0205357D01*
X0223745Y0204159D02*
X0222423Y0204159D01*
X0221433Y0202960D02*
X0224756Y0202960D01*
X0227667Y0202960D02*
X0228239Y0202960D01*
X0228239Y0204159D02*
X0227667Y0204159D01*
X0227667Y0205357D02*
X0228239Y0205357D01*
X0228239Y0207754D02*
X0227667Y0207754D01*
X0227667Y0208953D02*
X0228239Y0208953D01*
X0228239Y0210151D02*
X0227667Y0210151D01*
X0224482Y0210151D02*
X0221707Y0210151D01*
X0222537Y0208953D02*
X0223605Y0208953D01*
X0223160Y0207754D02*
X0223033Y0207754D01*
X0216531Y0201762D02*
X0209375Y0201762D01*
X0211433Y0202960D02*
X0214473Y0202960D01*
X0213482Y0204159D02*
X0212423Y0204159D01*
X0212920Y0205357D02*
X0212986Y0205357D01*
X0186531Y0201762D02*
X0179375Y0201762D01*
X0181433Y0202960D02*
X0184473Y0202960D01*
X0183482Y0204159D02*
X0182423Y0204159D01*
X0182920Y0205357D02*
X0182986Y0205357D01*
X0183369Y0208953D02*
X0182537Y0208953D01*
X0181707Y0210151D02*
X0184199Y0210151D01*
X0176531Y0201762D02*
X0169375Y0201762D01*
X0171433Y0202960D02*
X0174473Y0202960D01*
X0173482Y0204159D02*
X0172423Y0204159D01*
X0172920Y0205357D02*
X0172986Y0205357D01*
X0173369Y0208953D02*
X0172537Y0208953D01*
X0171707Y0210151D02*
X0174199Y0210151D01*
X0164199Y0210151D02*
X0161424Y0210151D01*
X0162301Y0208953D02*
X0163369Y0208953D01*
X0162872Y0207754D02*
X0162746Y0207754D01*
X0162853Y0206556D02*
X0158239Y0206556D01*
X0158239Y0206407D02*
X0158239Y0206979D01*
X0157667Y0206979D01*
X0157667Y0206407D01*
X0158239Y0206407D01*
X0162853Y0206407D01*
X0162853Y0206307D01*
X0162732Y0205545D01*
X0162494Y0204812D01*
X0162144Y0204125D01*
X0161690Y0203501D01*
X0161145Y0202955D01*
X0160521Y0202502D01*
X0159834Y0202152D01*
X0159100Y0201914D01*
X0158338Y0201793D01*
X0158239Y0201793D01*
X0158239Y0206407D01*
X0157667Y0206407D02*
X0157667Y0201793D01*
X0157567Y0201793D01*
X0156805Y0201914D01*
X0156072Y0202152D01*
X0155385Y0202502D01*
X0154761Y0202955D01*
X0154215Y0203501D01*
X0153762Y0204125D01*
X0153412Y0204812D01*
X0153173Y0205545D01*
X0153053Y0206307D01*
X0153053Y0206407D01*
X0157667Y0206407D01*
X0157667Y0206556D02*
X0153053Y0206556D01*
X0153033Y0207754D02*
X0153160Y0207754D01*
X0153605Y0208953D02*
X0152537Y0208953D01*
X0151707Y0210151D02*
X0154482Y0210151D01*
X0157667Y0210151D02*
X0158239Y0210151D01*
X0158239Y0208953D02*
X0157667Y0208953D01*
X0157667Y0207754D02*
X0158239Y0207754D01*
X0158239Y0205357D02*
X0157667Y0205357D01*
X0157667Y0204159D02*
X0158239Y0204159D01*
X0158239Y0202960D02*
X0157667Y0202960D01*
X0154756Y0202960D02*
X0151433Y0202960D01*
X0152423Y0204159D02*
X0153745Y0204159D01*
X0153235Y0205357D02*
X0152920Y0205357D01*
X0149375Y0201762D02*
X0166531Y0201762D01*
X0164473Y0202960D02*
X0161150Y0202960D01*
X0162161Y0204159D02*
X0163482Y0204159D01*
X0162986Y0205357D02*
X0162671Y0205357D01*
X0146531Y0201762D02*
X0139375Y0201762D01*
X0141433Y0202960D02*
X0144473Y0202960D01*
X0143482Y0204159D02*
X0142423Y0204159D01*
X0142920Y0205357D02*
X0142986Y0205357D01*
X0128239Y0212548D02*
X0127667Y0212548D01*
X0127667Y0213747D02*
X0128239Y0213747D01*
X0128239Y0214945D02*
X0127667Y0214945D01*
X0127667Y0216144D02*
X0128239Y0216144D01*
X0128239Y0217342D02*
X0127667Y0217342D01*
X0127667Y0218541D02*
X0128239Y0218541D01*
X0128239Y0219739D02*
X0127667Y0219739D01*
X0127667Y0220938D02*
X0128239Y0220938D01*
D15*
X0159900Y0106900D02*
X0187400Y0106900D01*
M02*
