G75*
%MOIN*%
%OFA0B0*%
%FSLAX25Y25*%
%IPPOS*%
%LPD*%
%AMOC8*
5,1,8,0,0,1.08239X$1,22.5*
%
%ADD10C,0.06600*%
%ADD11R,0.02200X0.05000*%
%ADD12R,0.05000X0.02200*%
%ADD13R,0.02165X0.00984*%
%ADD14R,0.03937X0.06693*%
%ADD15R,0.04134X0.01181*%
%ADD16C,0.01181*%
%ADD17R,0.05512X0.10000*%
%ADD18R,0.04724X0.03150*%
%ADD19R,0.03150X0.04724*%
%ADD20C,0.01772*%
%ADD21C,0.01000*%
%ADD22R,0.04724X0.04724*%
%ADD23R,0.03000X0.06000*%
%ADD24OC8,0.07400*%
%ADD25R,0.04724X0.01969*%
%ADD26R,0.07874X0.02756*%
%ADD27R,0.02756X0.07874*%
%ADD28R,0.03150X0.03543*%
%ADD29C,0.02756*%
%ADD30C,0.03543*%
%ADD31R,0.04724X0.02165*%
%ADD32C,0.01200*%
%ADD33C,0.03962*%
%ADD34C,0.02400*%
%ADD35C,0.01600*%
D10*
X0037953Y0206693D03*
X0047953Y0206693D03*
X0057953Y0206693D03*
X0067953Y0206693D03*
X0077953Y0206693D03*
X0087953Y0206693D03*
X0097953Y0206693D03*
X0107953Y0206693D03*
X0117953Y0206693D03*
X0127953Y0206693D03*
X0137953Y0206693D03*
X0147953Y0206693D03*
X0157953Y0206693D03*
X0167953Y0206693D03*
X0177953Y0206693D03*
X0187953Y0206693D03*
X0197953Y0206693D03*
X0207953Y0206693D03*
X0217953Y0206693D03*
X0227953Y0206693D03*
X0227953Y0216693D03*
X0217953Y0216693D03*
X0207953Y0216693D03*
X0197953Y0216693D03*
X0187953Y0216693D03*
X0177953Y0216693D03*
X0167953Y0216693D03*
X0157953Y0216693D03*
X0147953Y0216693D03*
X0137953Y0216693D03*
X0127953Y0216693D03*
X0117953Y0216693D03*
X0107953Y0216693D03*
X0097953Y0216693D03*
X0087953Y0216693D03*
X0077953Y0216693D03*
X0067953Y0216693D03*
X0057953Y0216693D03*
X0047953Y0216693D03*
X0037953Y0216693D03*
D11*
X0100376Y0092700D03*
X0103526Y0092700D03*
X0106676Y0092700D03*
X0109825Y0092700D03*
X0112975Y0092700D03*
X0116124Y0092700D03*
X0119274Y0092700D03*
X0122424Y0092700D03*
X0122424Y0058900D03*
X0119274Y0058900D03*
X0116124Y0058900D03*
X0112975Y0058900D03*
X0109825Y0058900D03*
X0106676Y0058900D03*
X0103526Y0058900D03*
X0100376Y0058900D03*
D12*
X0094500Y0064776D03*
X0094500Y0067926D03*
X0094500Y0071076D03*
X0094500Y0074225D03*
X0094500Y0077375D03*
X0094500Y0080524D03*
X0094500Y0083674D03*
X0094500Y0086824D03*
X0128300Y0086824D03*
X0128300Y0083674D03*
X0128300Y0080524D03*
X0128300Y0077375D03*
X0128300Y0074225D03*
X0128300Y0071076D03*
X0128300Y0067926D03*
X0128300Y0064776D03*
D13*
X0065626Y0024953D03*
X0065626Y0022984D03*
X0065626Y0021016D03*
X0065626Y0019047D03*
X0056374Y0019047D03*
X0056374Y0021016D03*
X0056374Y0022984D03*
X0056374Y0024953D03*
D14*
X0061000Y0022000D03*
D15*
X0107449Y0024059D03*
D16*
X0108926Y0021500D02*
X0105972Y0021500D01*
X0105972Y0021500D01*
X0108926Y0021500D01*
X0108926Y0021500D01*
X0108926Y0018941D02*
X0105972Y0018941D01*
X0105972Y0018941D01*
X0108926Y0018941D01*
X0108926Y0018941D01*
X0112074Y0018941D02*
X0115028Y0018941D01*
X0112074Y0018941D02*
X0112074Y0018941D01*
X0115028Y0018941D01*
X0115028Y0018941D01*
X0115028Y0021500D02*
X0112074Y0021500D01*
X0112074Y0021500D01*
X0115028Y0021500D01*
X0115028Y0021500D01*
X0115028Y0024059D02*
X0112074Y0024059D01*
X0112074Y0024059D01*
X0115028Y0024059D01*
X0115028Y0024059D01*
X0240044Y0071600D02*
X0240046Y0071705D01*
X0240052Y0071810D01*
X0240062Y0071914D01*
X0240076Y0072018D01*
X0240094Y0072122D01*
X0240116Y0072224D01*
X0240141Y0072326D01*
X0240171Y0072427D01*
X0240204Y0072526D01*
X0240241Y0072624D01*
X0240282Y0072721D01*
X0240327Y0072816D01*
X0240375Y0072909D01*
X0240426Y0073001D01*
X0240482Y0073090D01*
X0240540Y0073177D01*
X0240602Y0073262D01*
X0240666Y0073345D01*
X0240734Y0073425D01*
X0240805Y0073502D01*
X0240879Y0073576D01*
X0240956Y0073648D01*
X0241035Y0073717D01*
X0241117Y0073782D01*
X0241201Y0073845D01*
X0241288Y0073904D01*
X0241377Y0073960D01*
X0241468Y0074013D01*
X0241561Y0074062D01*
X0241655Y0074107D01*
X0241751Y0074149D01*
X0241849Y0074187D01*
X0241948Y0074221D01*
X0242049Y0074252D01*
X0242150Y0074278D01*
X0242253Y0074301D01*
X0242356Y0074320D01*
X0242460Y0074335D01*
X0242564Y0074346D01*
X0242669Y0074353D01*
X0242774Y0074356D01*
X0242879Y0074355D01*
X0242984Y0074350D01*
X0243088Y0074341D01*
X0243192Y0074328D01*
X0243296Y0074311D01*
X0243399Y0074290D01*
X0243501Y0074265D01*
X0243602Y0074237D01*
X0243701Y0074204D01*
X0243800Y0074168D01*
X0243897Y0074128D01*
X0243992Y0074085D01*
X0244086Y0074037D01*
X0244178Y0073987D01*
X0244268Y0073933D01*
X0244356Y0073875D01*
X0244441Y0073814D01*
X0244524Y0073750D01*
X0244605Y0073683D01*
X0244683Y0073613D01*
X0244758Y0073539D01*
X0244830Y0073464D01*
X0244900Y0073385D01*
X0244966Y0073304D01*
X0245030Y0073220D01*
X0245090Y0073134D01*
X0245146Y0073046D01*
X0245200Y0072955D01*
X0245250Y0072863D01*
X0245296Y0072769D01*
X0245339Y0072673D01*
X0245378Y0072575D01*
X0245413Y0072477D01*
X0245444Y0072376D01*
X0245472Y0072275D01*
X0245496Y0072173D01*
X0245516Y0072070D01*
X0245532Y0071966D01*
X0245544Y0071862D01*
X0245552Y0071757D01*
X0245556Y0071652D01*
X0245556Y0071548D01*
X0245552Y0071443D01*
X0245544Y0071338D01*
X0245532Y0071234D01*
X0245516Y0071130D01*
X0245496Y0071027D01*
X0245472Y0070925D01*
X0245444Y0070824D01*
X0245413Y0070723D01*
X0245378Y0070625D01*
X0245339Y0070527D01*
X0245296Y0070431D01*
X0245250Y0070337D01*
X0245200Y0070245D01*
X0245146Y0070154D01*
X0245090Y0070066D01*
X0245030Y0069980D01*
X0244966Y0069896D01*
X0244900Y0069815D01*
X0244830Y0069736D01*
X0244758Y0069661D01*
X0244683Y0069587D01*
X0244605Y0069517D01*
X0244524Y0069450D01*
X0244441Y0069386D01*
X0244356Y0069325D01*
X0244268Y0069267D01*
X0244178Y0069213D01*
X0244086Y0069163D01*
X0243992Y0069115D01*
X0243897Y0069072D01*
X0243800Y0069032D01*
X0243701Y0068996D01*
X0243602Y0068963D01*
X0243501Y0068935D01*
X0243399Y0068910D01*
X0243296Y0068889D01*
X0243192Y0068872D01*
X0243088Y0068859D01*
X0242984Y0068850D01*
X0242879Y0068845D01*
X0242774Y0068844D01*
X0242669Y0068847D01*
X0242564Y0068854D01*
X0242460Y0068865D01*
X0242356Y0068880D01*
X0242253Y0068899D01*
X0242150Y0068922D01*
X0242049Y0068948D01*
X0241948Y0068979D01*
X0241849Y0069013D01*
X0241751Y0069051D01*
X0241655Y0069093D01*
X0241561Y0069138D01*
X0241468Y0069187D01*
X0241377Y0069240D01*
X0241288Y0069296D01*
X0241201Y0069355D01*
X0241117Y0069418D01*
X0241035Y0069483D01*
X0240956Y0069552D01*
X0240879Y0069624D01*
X0240805Y0069698D01*
X0240734Y0069775D01*
X0240666Y0069855D01*
X0240602Y0069938D01*
X0240540Y0070023D01*
X0240482Y0070110D01*
X0240426Y0070199D01*
X0240375Y0070291D01*
X0240327Y0070384D01*
X0240282Y0070479D01*
X0240241Y0070576D01*
X0240204Y0070674D01*
X0240171Y0070773D01*
X0240141Y0070874D01*
X0240116Y0070976D01*
X0240094Y0071078D01*
X0240076Y0071182D01*
X0240062Y0071286D01*
X0240052Y0071390D01*
X0240046Y0071495D01*
X0240044Y0071600D01*
D17*
X0159713Y0128157D03*
X0149713Y0128157D03*
X0139713Y0128157D03*
X0139713Y0188000D03*
X0149713Y0188000D03*
X0159713Y0188000D03*
D18*
X0208200Y0163043D03*
X0208200Y0155957D03*
X0237600Y0125543D03*
X0237600Y0118457D03*
X0247500Y0118457D03*
X0247500Y0125543D03*
X0249000Y0148457D03*
X0249000Y0155543D03*
X0249000Y0162957D03*
X0249000Y0170043D03*
X0223500Y0071543D03*
X0223500Y0064457D03*
X0160400Y0026043D03*
X0160400Y0018957D03*
X0049600Y0075857D03*
X0049600Y0082943D03*
X0037500Y0082643D03*
X0037500Y0075557D03*
X0047500Y0025043D03*
X0047500Y0017957D03*
X0011500Y0181457D03*
X0011500Y0188543D03*
D19*
X0117957Y0106100D03*
X0125043Y0106100D03*
X0143557Y0076900D03*
X0150643Y0076900D03*
X0150643Y0066500D03*
X0143557Y0066500D03*
X0150657Y0043200D03*
X0157743Y0043200D03*
X0201957Y0041500D03*
X0209043Y0041500D03*
X0209043Y0031000D03*
X0201957Y0031000D03*
X0201957Y0020500D03*
X0209043Y0020500D03*
X0232457Y0043500D03*
X0239543Y0043500D03*
X0247357Y0043600D03*
X0254443Y0043600D03*
X0254443Y0054100D03*
X0247357Y0054100D03*
X0239543Y0054000D03*
X0232457Y0054000D03*
X0212043Y0110000D03*
X0204957Y0110000D03*
X0204957Y0120500D03*
X0212043Y0120500D03*
X0166843Y0114500D03*
X0159757Y0114500D03*
X0233057Y0183400D03*
X0240143Y0183400D03*
X0107443Y0034800D03*
X0100357Y0034800D03*
D20*
X0102300Y0100736D02*
X0102300Y0106464D01*
X0097576Y0106464D02*
X0097576Y0100736D01*
X0107024Y0100736D02*
X0107024Y0106464D01*
D21*
X0027317Y0007653D02*
X0025667Y0006700D01*
X0240239Y0006700D01*
X0238588Y0007653D01*
X0235999Y0010242D01*
X0234169Y0013412D01*
X0233221Y0016949D01*
X0233221Y0020610D01*
X0234169Y0024147D01*
X0235999Y0027317D01*
X0238588Y0029906D01*
X0241759Y0031737D01*
X0245295Y0032684D01*
X0248957Y0032684D01*
X0252493Y0031737D01*
X0255664Y0029906D01*
X0258253Y0027317D01*
X0259206Y0025667D01*
X0259206Y0204806D01*
X0258253Y0203155D01*
X0255664Y0200566D01*
X0252493Y0198736D01*
X0248957Y0197788D01*
X0245295Y0197788D01*
X0241759Y0198736D01*
X0238588Y0200566D01*
X0235999Y0203155D01*
X0234169Y0206326D01*
X0233221Y0209862D01*
X0233221Y0213523D01*
X0234169Y0217060D01*
X0235999Y0220231D01*
X0238588Y0222819D01*
X0241759Y0224650D01*
X0245295Y0225598D01*
X0248957Y0225598D01*
X0252493Y0224650D01*
X0255664Y0222819D01*
X0257680Y0220803D01*
X0256244Y0222779D01*
X0253685Y0224639D01*
X0250676Y0225616D01*
X0250676Y0225616D01*
X0249094Y0225741D01*
X0222123Y0225741D01*
X0222416Y0225619D01*
X0225119Y0222916D01*
X0225500Y0221997D01*
X0225500Y0221089D01*
X0226958Y0221693D01*
X0228947Y0221693D01*
X0230785Y0220932D01*
X0232192Y0219525D01*
X0232953Y0217687D01*
X0232953Y0215698D01*
X0232192Y0213861D01*
X0230785Y0212454D01*
X0228947Y0211693D01*
X0226958Y0211693D01*
X0225500Y0212297D01*
X0225500Y0210830D01*
X0226110Y0211141D01*
X0226829Y0211375D01*
X0227567Y0211492D01*
X0227567Y0207079D01*
X0228339Y0207079D01*
X0232751Y0207079D01*
X0232635Y0207817D01*
X0232401Y0208535D01*
X0232058Y0209209D01*
X0231614Y0209820D01*
X0231080Y0210354D01*
X0230468Y0210798D01*
X0229795Y0211141D01*
X0229077Y0211375D01*
X0228339Y0211492D01*
X0228339Y0207079D01*
X0228339Y0206307D01*
X0232751Y0206307D01*
X0232635Y0205569D01*
X0232401Y0204850D01*
X0232058Y0204177D01*
X0231614Y0203566D01*
X0231080Y0203032D01*
X0230468Y0202588D01*
X0229795Y0202245D01*
X0229077Y0202011D01*
X0228339Y0201894D01*
X0228339Y0206307D01*
X0227567Y0206307D01*
X0227567Y0201894D01*
X0226829Y0202011D01*
X0226110Y0202245D01*
X0225500Y0202555D01*
X0225500Y0190503D01*
X0225119Y0189584D01*
X0223419Y0187884D01*
X0223419Y0187884D01*
X0222716Y0187181D01*
X0221797Y0186800D01*
X0211836Y0186800D01*
X0210700Y0185664D01*
X0210700Y0166318D01*
X0211266Y0166318D01*
X0212041Y0165543D01*
X0213179Y0165543D01*
X0213713Y0166078D01*
X0220786Y0166078D01*
X0219922Y0166941D01*
X0219922Y0176224D01*
X0220918Y0177220D01*
X0225082Y0177220D01*
X0226078Y0176224D01*
X0226078Y0166941D01*
X0225082Y0165946D01*
X0223128Y0165946D01*
X0223991Y0165082D01*
X0223991Y0160918D01*
X0223573Y0160500D01*
X0223991Y0160082D01*
X0223991Y0155918D01*
X0223573Y0155500D01*
X0223991Y0155082D01*
X0223991Y0150918D01*
X0223128Y0150054D01*
X0225082Y0150054D01*
X0226078Y0149058D01*
X0226078Y0139776D01*
X0225082Y0138780D01*
X0220918Y0138780D01*
X0219922Y0139776D01*
X0219922Y0144243D01*
X0216054Y0148110D01*
X0216054Y0149922D01*
X0213713Y0149922D01*
X0212717Y0150918D01*
X0212717Y0155082D01*
X0213135Y0155500D01*
X0212717Y0155918D01*
X0212717Y0160082D01*
X0213135Y0160500D01*
X0213092Y0160543D01*
X0212041Y0160543D01*
X0211266Y0159769D01*
X0205134Y0159769D01*
X0204138Y0160764D01*
X0204138Y0165322D01*
X0205134Y0166318D01*
X0205700Y0166318D01*
X0205700Y0187197D01*
X0206081Y0188116D01*
X0206784Y0188819D01*
X0206784Y0188819D01*
X0208781Y0190816D01*
X0208781Y0190816D01*
X0209484Y0191519D01*
X0210403Y0191900D01*
X0211397Y0191900D01*
X0211639Y0191800D01*
X0220264Y0191800D01*
X0220500Y0192036D01*
X0220500Y0202336D01*
X0218947Y0201693D01*
X0216958Y0201693D01*
X0215120Y0202454D01*
X0213714Y0203861D01*
X0212953Y0205698D01*
X0212953Y0207687D01*
X0213714Y0209525D01*
X0215120Y0210932D01*
X0216958Y0211693D01*
X0218947Y0211693D01*
X0220500Y0212336D01*
X0220500Y0211050D01*
X0218947Y0211693D01*
X0216958Y0211693D01*
X0215120Y0212454D01*
X0213714Y0213861D01*
X0212953Y0215698D01*
X0212953Y0217687D01*
X0213714Y0219525D01*
X0215120Y0220932D01*
X0215285Y0221000D01*
X0210620Y0221000D01*
X0210785Y0220932D01*
X0212192Y0219525D01*
X0212953Y0217687D01*
X0212953Y0215698D01*
X0212192Y0213861D01*
X0210785Y0212454D01*
X0208947Y0211693D01*
X0206958Y0211693D01*
X0205120Y0212454D01*
X0203714Y0213861D01*
X0202953Y0215698D01*
X0202953Y0217687D01*
X0203714Y0219525D01*
X0205120Y0220932D01*
X0205285Y0221000D01*
X0200072Y0221000D01*
X0200468Y0220798D01*
X0201080Y0220354D01*
X0201614Y0219820D01*
X0202058Y0219209D01*
X0202401Y0218535D01*
X0202635Y0217817D01*
X0202751Y0217079D01*
X0198339Y0217079D01*
X0198339Y0216307D01*
X0202751Y0216307D01*
X0202635Y0215569D01*
X0202401Y0214850D01*
X0202058Y0214177D01*
X0201614Y0213566D01*
X0201080Y0213032D01*
X0200468Y0212588D01*
X0199795Y0212245D01*
X0199077Y0212011D01*
X0198339Y0211894D01*
X0198339Y0216307D01*
X0197567Y0216307D01*
X0197567Y0211894D01*
X0196829Y0212011D01*
X0196110Y0212245D01*
X0195437Y0212588D01*
X0194826Y0213032D01*
X0194292Y0213566D01*
X0193847Y0214177D01*
X0193504Y0214850D01*
X0193271Y0215569D01*
X0193154Y0216307D01*
X0197567Y0216307D01*
X0197567Y0217079D01*
X0193154Y0217079D01*
X0193271Y0217817D01*
X0193504Y0218535D01*
X0193847Y0219209D01*
X0194292Y0219820D01*
X0194826Y0220354D01*
X0195437Y0220798D01*
X0195833Y0221000D01*
X0190620Y0221000D01*
X0190785Y0220932D01*
X0192192Y0219525D01*
X0192953Y0217687D01*
X0192953Y0215698D01*
X0192192Y0213861D01*
X0190785Y0212454D01*
X0188947Y0211693D01*
X0186958Y0211693D01*
X0185120Y0212454D01*
X0183714Y0213861D01*
X0182953Y0215698D01*
X0182953Y0217687D01*
X0183714Y0219525D01*
X0185120Y0220932D01*
X0185285Y0221000D01*
X0180072Y0221000D01*
X0180468Y0220798D01*
X0181080Y0220354D01*
X0181614Y0219820D01*
X0182058Y0219209D01*
X0182401Y0218535D01*
X0182635Y0217817D01*
X0182751Y0217079D01*
X0178339Y0217079D01*
X0178339Y0216307D01*
X0182751Y0216307D01*
X0182635Y0215569D01*
X0182401Y0214850D01*
X0182058Y0214177D01*
X0181614Y0213566D01*
X0181080Y0213032D01*
X0180468Y0212588D01*
X0179795Y0212245D01*
X0179077Y0212011D01*
X0178339Y0211894D01*
X0178339Y0216307D01*
X0177567Y0216307D01*
X0177567Y0211894D01*
X0176829Y0212011D01*
X0176110Y0212245D01*
X0175437Y0212588D01*
X0174826Y0213032D01*
X0174292Y0213566D01*
X0173847Y0214177D01*
X0173504Y0214850D01*
X0173271Y0215569D01*
X0173154Y0216307D01*
X0177567Y0216307D01*
X0177567Y0217079D01*
X0173154Y0217079D01*
X0173271Y0217817D01*
X0173504Y0218535D01*
X0173847Y0219209D01*
X0174292Y0219820D01*
X0174826Y0220354D01*
X0175437Y0220798D01*
X0175833Y0221000D01*
X0170620Y0221000D01*
X0170785Y0220932D01*
X0172192Y0219525D01*
X0172953Y0217687D01*
X0172953Y0215698D01*
X0172192Y0213861D01*
X0170785Y0212454D01*
X0168947Y0211693D01*
X0166958Y0211693D01*
X0165120Y0212454D01*
X0163714Y0213861D01*
X0162953Y0215698D01*
X0162953Y0217687D01*
X0163714Y0219525D01*
X0165120Y0220932D01*
X0165285Y0221000D01*
X0160620Y0221000D01*
X0160785Y0220932D01*
X0162192Y0219525D01*
X0162953Y0217687D01*
X0162953Y0215698D01*
X0162192Y0213861D01*
X0160785Y0212454D01*
X0158947Y0211693D01*
X0156958Y0211693D01*
X0155120Y0212454D01*
X0153714Y0213861D01*
X0152953Y0215698D01*
X0152953Y0217687D01*
X0153714Y0219525D01*
X0155120Y0220932D01*
X0155285Y0221000D01*
X0150620Y0221000D01*
X0150785Y0220932D01*
X0152192Y0219525D01*
X0152953Y0217687D01*
X0152953Y0215698D01*
X0152192Y0213861D01*
X0150785Y0212454D01*
X0148947Y0211693D01*
X0146958Y0211693D01*
X0145120Y0212454D01*
X0143714Y0213861D01*
X0142953Y0215698D01*
X0142953Y0217687D01*
X0143714Y0219525D01*
X0145120Y0220932D01*
X0145285Y0221000D01*
X0140620Y0221000D01*
X0140785Y0220932D01*
X0142192Y0219525D01*
X0142953Y0217687D01*
X0142953Y0215698D01*
X0142192Y0213861D01*
X0140785Y0212454D01*
X0138947Y0211693D01*
X0136958Y0211693D01*
X0135120Y0212454D01*
X0133714Y0213861D01*
X0132953Y0215698D01*
X0132953Y0217687D01*
X0133714Y0219525D01*
X0135120Y0220932D01*
X0135285Y0221000D01*
X0130072Y0221000D01*
X0130468Y0220798D01*
X0131080Y0220354D01*
X0131614Y0219820D01*
X0132058Y0219209D01*
X0132401Y0218535D01*
X0132635Y0217817D01*
X0132751Y0217079D01*
X0128339Y0217079D01*
X0128339Y0216307D01*
X0132751Y0216307D01*
X0132635Y0215569D01*
X0132401Y0214850D01*
X0132058Y0214177D01*
X0131614Y0213566D01*
X0131080Y0213032D01*
X0130468Y0212588D01*
X0129795Y0212245D01*
X0129077Y0212011D01*
X0128339Y0211894D01*
X0128339Y0216307D01*
X0127567Y0216307D01*
X0127567Y0211894D01*
X0126829Y0212011D01*
X0126110Y0212245D01*
X0125437Y0212588D01*
X0124826Y0213032D01*
X0124292Y0213566D01*
X0123847Y0214177D01*
X0123504Y0214850D01*
X0123271Y0215569D01*
X0123154Y0216307D01*
X0127567Y0216307D01*
X0127567Y0217079D01*
X0123154Y0217079D01*
X0123271Y0217817D01*
X0123504Y0218535D01*
X0123847Y0219209D01*
X0124292Y0219820D01*
X0124826Y0220354D01*
X0125437Y0220798D01*
X0125833Y0221000D01*
X0120620Y0221000D01*
X0120785Y0220932D01*
X0122192Y0219525D01*
X0122953Y0217687D01*
X0122953Y0215698D01*
X0122192Y0213861D01*
X0120785Y0212454D01*
X0118947Y0211693D01*
X0116958Y0211693D01*
X0115120Y0212454D01*
X0113714Y0213861D01*
X0112953Y0215698D01*
X0112953Y0217687D01*
X0113714Y0219525D01*
X0115120Y0220932D01*
X0115285Y0221000D01*
X0110620Y0221000D01*
X0110785Y0220932D01*
X0112192Y0219525D01*
X0112953Y0217687D01*
X0112953Y0215698D01*
X0112192Y0213861D01*
X0110785Y0212454D01*
X0108947Y0211693D01*
X0106958Y0211693D01*
X0105120Y0212454D01*
X0103714Y0213861D01*
X0102953Y0215698D01*
X0102953Y0217687D01*
X0103714Y0219525D01*
X0105120Y0220932D01*
X0105285Y0221000D01*
X0100072Y0221000D01*
X0100468Y0220798D01*
X0101080Y0220354D01*
X0101614Y0219820D01*
X0102058Y0219209D01*
X0102401Y0218535D01*
X0102635Y0217817D01*
X0102751Y0217079D01*
X0098339Y0217079D01*
X0098339Y0216307D01*
X0102751Y0216307D01*
X0102635Y0215569D01*
X0102401Y0214850D01*
X0102058Y0214177D01*
X0101614Y0213566D01*
X0101080Y0213032D01*
X0100468Y0212588D01*
X0099795Y0212245D01*
X0099077Y0212011D01*
X0098339Y0211894D01*
X0098339Y0216307D01*
X0097567Y0216307D01*
X0097567Y0211894D01*
X0096829Y0212011D01*
X0096110Y0212245D01*
X0095437Y0212588D01*
X0094826Y0213032D01*
X0094292Y0213566D01*
X0093847Y0214177D01*
X0093504Y0214850D01*
X0093271Y0215569D01*
X0093154Y0216307D01*
X0097567Y0216307D01*
X0097567Y0217079D01*
X0093154Y0217079D01*
X0093271Y0217817D01*
X0093504Y0218535D01*
X0093847Y0219209D01*
X0094292Y0219820D01*
X0094826Y0220354D01*
X0095437Y0220798D01*
X0095833Y0221000D01*
X0090620Y0221000D01*
X0090785Y0220932D01*
X0092192Y0219525D01*
X0092953Y0217687D01*
X0092953Y0215698D01*
X0092192Y0213861D01*
X0090785Y0212454D01*
X0088947Y0211693D01*
X0086958Y0211693D01*
X0085120Y0212454D01*
X0083714Y0213861D01*
X0082953Y0215698D01*
X0082953Y0217687D01*
X0083714Y0219525D01*
X0085120Y0220932D01*
X0085285Y0221000D01*
X0080620Y0221000D01*
X0080785Y0220932D01*
X0082192Y0219525D01*
X0082953Y0217687D01*
X0082953Y0215698D01*
X0082192Y0213861D01*
X0080785Y0212454D01*
X0078947Y0211693D01*
X0076958Y0211693D01*
X0075120Y0212454D01*
X0073714Y0213861D01*
X0072953Y0215698D01*
X0072953Y0217687D01*
X0073714Y0219525D01*
X0075120Y0220932D01*
X0075285Y0221000D01*
X0070620Y0221000D01*
X0070785Y0220932D01*
X0072192Y0219525D01*
X0072953Y0217687D01*
X0072953Y0215698D01*
X0072192Y0213861D01*
X0070785Y0212454D01*
X0068947Y0211693D01*
X0066958Y0211693D01*
X0065120Y0212454D01*
X0063714Y0213861D01*
X0062953Y0215698D01*
X0062953Y0217687D01*
X0063714Y0219525D01*
X0065120Y0220932D01*
X0065285Y0221000D01*
X0060072Y0221000D01*
X0060468Y0220798D01*
X0061080Y0220354D01*
X0061614Y0219820D01*
X0062058Y0219209D01*
X0062401Y0218535D01*
X0062635Y0217817D01*
X0062751Y0217079D01*
X0058339Y0217079D01*
X0058339Y0216307D01*
X0062751Y0216307D01*
X0062635Y0215569D01*
X0062401Y0214850D01*
X0062058Y0214177D01*
X0061614Y0213566D01*
X0061080Y0213032D01*
X0060468Y0212588D01*
X0059795Y0212245D01*
X0059077Y0212011D01*
X0058339Y0211894D01*
X0058339Y0216307D01*
X0057567Y0216307D01*
X0057567Y0211894D01*
X0056829Y0212011D01*
X0056110Y0212245D01*
X0055437Y0212588D01*
X0054826Y0213032D01*
X0054292Y0213566D01*
X0053847Y0214177D01*
X0053504Y0214850D01*
X0053271Y0215569D01*
X0053154Y0216307D01*
X0057567Y0216307D01*
X0057567Y0217079D01*
X0053154Y0217079D01*
X0053271Y0217817D01*
X0053504Y0218535D01*
X0053847Y0219209D01*
X0054292Y0219820D01*
X0054826Y0220354D01*
X0055437Y0220798D01*
X0055833Y0221000D01*
X0051636Y0221000D01*
X0051176Y0220541D01*
X0052192Y0219525D01*
X0052953Y0217687D01*
X0052953Y0215698D01*
X0052192Y0213861D01*
X0050785Y0212454D01*
X0048947Y0211693D01*
X0046958Y0211693D01*
X0045120Y0212454D01*
X0043714Y0213861D01*
X0043576Y0214193D01*
X0042329Y0214193D01*
X0042192Y0213861D01*
X0040785Y0212454D01*
X0038947Y0211693D01*
X0036958Y0211693D01*
X0035120Y0212454D01*
X0033714Y0213861D01*
X0032953Y0215698D01*
X0032953Y0217687D01*
X0033714Y0219525D01*
X0035120Y0220932D01*
X0036958Y0221693D01*
X0038947Y0221693D01*
X0040785Y0220932D01*
X0042192Y0219525D01*
X0042329Y0219193D01*
X0043576Y0219193D01*
X0043714Y0219525D01*
X0045120Y0220932D01*
X0045453Y0221069D01*
X0045453Y0221350D01*
X0045833Y0222269D01*
X0048481Y0224916D01*
X0049184Y0225619D01*
X0049477Y0225741D01*
X0016811Y0225741D01*
X0015229Y0225616D01*
X0012221Y0224639D01*
X0009661Y0222779D01*
X0008226Y0220803D01*
X0010242Y0222819D01*
X0013412Y0224650D01*
X0016949Y0225598D01*
X0020610Y0225598D01*
X0024147Y0224650D01*
X0027317Y0222819D01*
X0029906Y0220231D01*
X0031737Y0217060D01*
X0032684Y0213523D01*
X0032684Y0209862D01*
X0031737Y0206326D01*
X0029906Y0203155D01*
X0027317Y0200566D01*
X0024147Y0198736D01*
X0020610Y0197788D01*
X0016949Y0197788D01*
X0013412Y0198736D01*
X0010242Y0200566D01*
X0007653Y0203155D01*
X0006700Y0204806D01*
X0006700Y0150401D01*
X0021869Y0150401D01*
X0023941Y0149543D01*
X0023941Y0149543D01*
X0025527Y0147957D01*
X0025527Y0147957D01*
X0026385Y0145885D01*
X0026385Y0084587D01*
X0025527Y0082516D01*
X0025527Y0082516D01*
X0023941Y0080930D01*
X0023941Y0080930D01*
X0021869Y0080072D01*
X0006700Y0080072D01*
X0006700Y0025667D01*
X0007653Y0027317D01*
X0010242Y0029906D01*
X0013412Y0031737D01*
X0016949Y0032684D01*
X0020610Y0032684D01*
X0024147Y0031737D01*
X0027317Y0029906D01*
X0029906Y0027317D01*
X0031737Y0024147D01*
X0032684Y0020610D01*
X0032684Y0016949D01*
X0031737Y0013412D01*
X0029906Y0010242D01*
X0027317Y0007653D01*
X0027667Y0008003D02*
X0065744Y0008003D01*
X0065300Y0008447D02*
X0066647Y0007100D01*
X0123153Y0007100D01*
X0124500Y0008447D01*
X0125272Y0009219D01*
X0126432Y0009219D01*
X0127785Y0009779D01*
X0128821Y0010815D01*
X0129381Y0012168D01*
X0129381Y0013632D01*
X0128821Y0014985D01*
X0127785Y0016021D01*
X0126432Y0016581D01*
X0124968Y0016581D01*
X0123615Y0016021D01*
X0122579Y0014985D01*
X0122019Y0013632D01*
X0122019Y0012472D01*
X0121247Y0011700D01*
X0094906Y0011700D01*
X0095606Y0012400D01*
X0113053Y0012400D01*
X0114453Y0013800D01*
X0115800Y0015147D01*
X0115800Y0016618D01*
X0137825Y0016618D01*
X0138209Y0016234D01*
X0139000Y0016234D01*
X0139000Y0014347D01*
X0142947Y0010400D01*
X0168553Y0010400D01*
X0169900Y0011747D01*
X0174600Y0016447D01*
X0174600Y0084153D01*
X0173253Y0085500D01*
X0173253Y0085500D01*
X0172100Y0086653D01*
X0170753Y0088000D01*
X0145047Y0088000D01*
X0143700Y0086653D01*
X0143700Y0086653D01*
X0142647Y0085600D01*
X0141300Y0084253D01*
X0141300Y0080962D01*
X0141278Y0080962D01*
X0140282Y0079966D01*
X0140282Y0079200D01*
X0135047Y0079200D01*
X0133700Y0077853D01*
X0132500Y0076653D01*
X0132500Y0088628D01*
X0131504Y0089624D01*
X0125224Y0089624D01*
X0125224Y0090400D01*
X0174553Y0090400D01*
X0177753Y0093600D01*
X0179100Y0094947D01*
X0179100Y0116447D01*
X0180853Y0118200D01*
X0201682Y0118200D01*
X0201682Y0117434D01*
X0202678Y0116438D01*
X0207236Y0116438D01*
X0208231Y0117434D01*
X0208231Y0123566D01*
X0207236Y0124562D01*
X0202678Y0124562D01*
X0201682Y0123566D01*
X0201682Y0122800D01*
X0178947Y0122800D01*
X0177600Y0121453D01*
X0174500Y0118353D01*
X0174500Y0096853D01*
X0172647Y0095000D01*
X0125224Y0095000D01*
X0125224Y0095904D01*
X0124228Y0096900D01*
X0117470Y0096900D01*
X0117270Y0096700D01*
X0116174Y0096700D01*
X0116174Y0092750D01*
X0116074Y0092750D01*
X0116074Y0096700D01*
X0115900Y0096700D01*
X0115900Y0096799D01*
X0119595Y0100494D01*
X0120411Y0101310D01*
X0120853Y0102376D01*
X0120853Y0102655D01*
X0121231Y0103034D01*
X0121231Y0109166D01*
X0120857Y0109541D01*
X0120857Y0144995D01*
X0122100Y0143752D01*
X0122100Y0121123D01*
X0122541Y0120057D01*
X0129741Y0112857D01*
X0130557Y0112041D01*
X0131623Y0111600D01*
X0156482Y0111600D01*
X0156482Y0111434D01*
X0156900Y0111016D01*
X0156900Y0109306D01*
X0156679Y0109085D01*
X0156119Y0107732D01*
X0156119Y0106268D01*
X0156679Y0104915D01*
X0156779Y0104815D01*
X0157815Y0103779D01*
X0159168Y0103219D01*
X0160632Y0103219D01*
X0161985Y0103779D01*
X0163021Y0104815D01*
X0163581Y0106168D01*
X0163581Y0107632D01*
X0163021Y0108985D01*
X0162700Y0109306D01*
X0162700Y0111102D01*
X0163031Y0111434D01*
X0163031Y0117566D01*
X0162657Y0117941D01*
X0162657Y0121457D01*
X0163173Y0121457D01*
X0164168Y0122453D01*
X0164168Y0133862D01*
X0163173Y0134857D01*
X0156253Y0134857D01*
X0155257Y0133862D01*
X0155257Y0122453D01*
X0156253Y0121457D01*
X0156857Y0121457D01*
X0156857Y0117941D01*
X0156482Y0117566D01*
X0156482Y0117400D01*
X0133401Y0117400D01*
X0127900Y0122901D01*
X0127900Y0145530D01*
X0127458Y0146595D01*
X0126643Y0147411D01*
X0120853Y0153201D01*
X0120853Y0202522D01*
X0122192Y0203861D01*
X0122953Y0205698D01*
X0123714Y0203861D01*
X0125120Y0202454D01*
X0126958Y0201693D01*
X0128947Y0201693D01*
X0130785Y0202454D01*
X0132192Y0203861D01*
X0132953Y0205698D01*
X0133714Y0203861D01*
X0135120Y0202454D01*
X0136958Y0201693D01*
X0138947Y0201693D01*
X0140785Y0202454D01*
X0142192Y0203861D01*
X0142953Y0205698D01*
X0143714Y0203861D01*
X0145120Y0202454D01*
X0146958Y0201693D01*
X0148947Y0201693D01*
X0150785Y0202454D01*
X0152192Y0203861D01*
X0152953Y0205698D01*
X0152953Y0207687D01*
X0152192Y0209525D01*
X0150785Y0210932D01*
X0148947Y0211693D01*
X0146958Y0211693D01*
X0145120Y0210932D01*
X0143714Y0209525D01*
X0142953Y0207687D01*
X0142953Y0205698D01*
X0142953Y0207687D01*
X0142192Y0209525D01*
X0140785Y0210932D01*
X0138947Y0211693D01*
X0136958Y0211693D01*
X0135120Y0210932D01*
X0133714Y0209525D01*
X0132953Y0207687D01*
X0132953Y0205698D01*
X0132953Y0207687D01*
X0132192Y0209525D01*
X0130785Y0210932D01*
X0128947Y0211693D01*
X0126958Y0211693D01*
X0125120Y0210932D01*
X0123714Y0209525D01*
X0122953Y0207687D01*
X0122953Y0205698D01*
X0122953Y0207687D01*
X0122192Y0209525D01*
X0120785Y0210932D01*
X0118947Y0211693D01*
X0116958Y0211693D01*
X0115120Y0210932D01*
X0113714Y0209525D01*
X0112953Y0207687D01*
X0112953Y0205698D01*
X0113714Y0203861D01*
X0115053Y0202522D01*
X0115053Y0200801D01*
X0111652Y0197400D01*
X0043401Y0197400D01*
X0043393Y0197408D01*
X0040853Y0199948D01*
X0040853Y0202522D01*
X0042192Y0203861D01*
X0042953Y0205698D01*
X0043714Y0203861D01*
X0045120Y0202454D01*
X0046958Y0201693D01*
X0048947Y0201693D01*
X0050785Y0202454D01*
X0052192Y0203861D01*
X0052953Y0205698D01*
X0053714Y0203861D01*
X0055120Y0202454D01*
X0056958Y0201693D01*
X0058947Y0201693D01*
X0060785Y0202454D01*
X0062192Y0203861D01*
X0062953Y0205698D01*
X0063714Y0203861D01*
X0065120Y0202454D01*
X0066958Y0201693D01*
X0068947Y0201693D01*
X0070785Y0202454D01*
X0072192Y0203861D01*
X0072953Y0205698D01*
X0072953Y0207687D01*
X0072192Y0209525D01*
X0070785Y0210932D01*
X0068947Y0211693D01*
X0066958Y0211693D01*
X0065120Y0210932D01*
X0063714Y0209525D01*
X0062953Y0207687D01*
X0062953Y0205698D01*
X0062953Y0207687D01*
X0062192Y0209525D01*
X0060785Y0210932D01*
X0058947Y0211693D01*
X0056958Y0211693D01*
X0055120Y0210932D01*
X0053714Y0209525D01*
X0052953Y0207687D01*
X0052953Y0205698D01*
X0052953Y0207687D01*
X0052192Y0209525D01*
X0050785Y0210932D01*
X0048947Y0211693D01*
X0046958Y0211693D01*
X0045120Y0210932D01*
X0043714Y0209525D01*
X0042953Y0207687D01*
X0042953Y0205698D01*
X0042953Y0207687D01*
X0042192Y0209525D01*
X0040785Y0210932D01*
X0038947Y0211693D01*
X0036958Y0211693D01*
X0035120Y0210932D01*
X0033714Y0209525D01*
X0032953Y0207687D01*
X0032953Y0205698D01*
X0033714Y0203861D01*
X0035053Y0202522D01*
X0035053Y0198170D01*
X0035494Y0197105D01*
X0039291Y0193307D01*
X0039741Y0192857D01*
X0046600Y0185999D01*
X0046600Y0139737D01*
X0044500Y0137637D01*
X0041737Y0140400D01*
X0037263Y0140400D01*
X0034100Y0137237D01*
X0034100Y0132763D01*
X0036863Y0130000D01*
X0034100Y0127237D01*
X0034100Y0122763D01*
X0036863Y0120000D01*
X0034163Y0117300D01*
X0030947Y0117300D01*
X0028047Y0114400D01*
X0026700Y0113053D01*
X0026700Y0083453D01*
X0023700Y0080453D01*
X0023700Y0071604D01*
X0022800Y0070704D01*
X0022800Y0063296D01*
X0023700Y0062396D01*
X0023700Y0049604D01*
X0022800Y0048704D01*
X0022800Y0041296D01*
X0023796Y0040300D01*
X0028204Y0040300D01*
X0029200Y0041296D01*
X0029200Y0048704D01*
X0028300Y0049604D01*
X0028300Y0062396D01*
X0029200Y0063296D01*
X0029200Y0070704D01*
X0028300Y0071604D01*
X0028300Y0078547D01*
X0029953Y0080200D01*
X0030053Y0080300D01*
X0033502Y0080300D01*
X0034434Y0079369D01*
X0039179Y0079369D01*
X0039716Y0078831D01*
X0034434Y0078831D01*
X0033438Y0077836D01*
X0033438Y0073278D01*
X0034434Y0072282D01*
X0035200Y0072282D01*
X0035200Y0048547D01*
X0036600Y0047147D01*
X0036600Y0026647D01*
X0037947Y0025300D01*
X0040504Y0022743D01*
X0043459Y0022743D01*
X0044434Y0021769D01*
X0050566Y0021769D01*
X0051451Y0022653D01*
X0053591Y0022653D01*
X0053591Y0021788D01*
X0053791Y0021588D01*
X0053791Y0021016D01*
X0054363Y0021016D01*
X0054364Y0021016D01*
X0053791Y0021016D01*
X0053791Y0020326D01*
X0053870Y0020031D01*
X0053791Y0019737D01*
X0053791Y0019047D01*
X0053791Y0018358D01*
X0053894Y0017976D01*
X0054091Y0017634D01*
X0054370Y0017355D01*
X0054712Y0017157D01*
X0055094Y0017055D01*
X0056374Y0017055D01*
X0057654Y0017055D01*
X0058036Y0017157D01*
X0058329Y0017327D01*
X0058453Y0017256D01*
X0058834Y0017154D01*
X0060516Y0017154D01*
X0060516Y0021516D01*
X0061484Y0021516D01*
X0061484Y0017154D01*
X0063166Y0017154D01*
X0063400Y0017216D01*
X0063400Y0010347D01*
X0064747Y0009000D01*
X0064747Y0009000D01*
X0065300Y0008447D01*
X0064746Y0009001D02*
X0028666Y0009001D01*
X0029664Y0010000D02*
X0063747Y0010000D01*
X0063400Y0010999D02*
X0030343Y0010999D01*
X0030919Y0011997D02*
X0063400Y0011997D01*
X0063400Y0012996D02*
X0031496Y0012996D01*
X0031892Y0013994D02*
X0063400Y0013994D01*
X0063400Y0014993D02*
X0050456Y0014993D01*
X0050441Y0014984D02*
X0050783Y0015182D01*
X0051062Y0015461D01*
X0051260Y0015803D01*
X0051362Y0016184D01*
X0051362Y0017669D01*
X0047787Y0017669D01*
X0047787Y0014882D01*
X0050060Y0014882D01*
X0050441Y0014984D01*
X0051310Y0015991D02*
X0063400Y0015991D01*
X0063400Y0016990D02*
X0051362Y0016990D01*
X0051362Y0018244D02*
X0051362Y0019729D01*
X0051260Y0020110D01*
X0051062Y0020453D01*
X0050783Y0020732D01*
X0050441Y0020929D01*
X0050060Y0021031D01*
X0047787Y0021031D01*
X0047787Y0018244D01*
X0047213Y0018244D01*
X0047213Y0021031D01*
X0044940Y0021031D01*
X0044559Y0020929D01*
X0044217Y0020732D01*
X0043937Y0020453D01*
X0043740Y0020110D01*
X0043638Y0019729D01*
X0043638Y0018244D01*
X0047213Y0018244D01*
X0047213Y0017669D01*
X0047787Y0017669D01*
X0047787Y0018244D01*
X0051362Y0018244D01*
X0051362Y0018987D02*
X0053791Y0018987D01*
X0053791Y0019047D02*
X0055006Y0019047D01*
X0055006Y0019047D01*
X0053791Y0019047D01*
X0053858Y0019985D02*
X0051294Y0019985D01*
X0050238Y0020984D02*
X0053791Y0020984D01*
X0053591Y0021982D02*
X0050780Y0021982D01*
X0047787Y0020984D02*
X0047213Y0020984D01*
X0047213Y0019985D02*
X0047787Y0019985D01*
X0047787Y0018987D02*
X0047213Y0018987D01*
X0047213Y0017988D02*
X0032684Y0017988D01*
X0032684Y0016990D02*
X0043638Y0016990D01*
X0043638Y0017669D02*
X0043638Y0016184D01*
X0043740Y0015803D01*
X0043937Y0015461D01*
X0044217Y0015182D01*
X0044559Y0014984D01*
X0044940Y0014882D01*
X0047213Y0014882D01*
X0047213Y0017669D01*
X0043638Y0017669D01*
X0043638Y0018987D02*
X0032684Y0018987D01*
X0032684Y0019985D02*
X0043706Y0019985D01*
X0044762Y0020984D02*
X0032584Y0020984D01*
X0032317Y0021982D02*
X0044220Y0021982D01*
X0040267Y0022981D02*
X0032049Y0022981D01*
X0031782Y0023979D02*
X0039268Y0023979D01*
X0038270Y0024978D02*
X0031257Y0024978D01*
X0030680Y0025976D02*
X0037271Y0025976D01*
X0036600Y0026975D02*
X0030104Y0026975D01*
X0029250Y0027973D02*
X0036600Y0027973D01*
X0036600Y0028972D02*
X0028252Y0028972D01*
X0027206Y0029970D02*
X0036600Y0029970D01*
X0036600Y0030969D02*
X0025477Y0030969D01*
X0023286Y0031967D02*
X0036600Y0031967D01*
X0036600Y0032966D02*
X0006700Y0032966D01*
X0006700Y0033964D02*
X0036600Y0033964D01*
X0036600Y0034963D02*
X0006700Y0034963D01*
X0006700Y0035961D02*
X0036600Y0035961D01*
X0036600Y0036960D02*
X0006700Y0036960D01*
X0006700Y0037958D02*
X0036600Y0037958D01*
X0036600Y0038957D02*
X0006700Y0038957D01*
X0006700Y0039955D02*
X0036600Y0039955D01*
X0036600Y0040954D02*
X0028858Y0040954D01*
X0029200Y0041952D02*
X0036600Y0041952D01*
X0036600Y0042951D02*
X0029200Y0042951D01*
X0029200Y0043949D02*
X0036600Y0043949D01*
X0036600Y0044948D02*
X0029200Y0044948D01*
X0029200Y0045946D02*
X0036600Y0045946D01*
X0036600Y0046945D02*
X0029200Y0046945D01*
X0029200Y0047943D02*
X0035804Y0047943D01*
X0035200Y0048942D02*
X0028962Y0048942D01*
X0028300Y0049940D02*
X0035200Y0049940D01*
X0035200Y0050939D02*
X0028300Y0050939D01*
X0028300Y0051937D02*
X0035200Y0051937D01*
X0035200Y0052936D02*
X0028300Y0052936D01*
X0028300Y0053934D02*
X0035200Y0053934D01*
X0035200Y0054933D02*
X0028300Y0054933D01*
X0028300Y0055932D02*
X0035200Y0055932D01*
X0035200Y0056930D02*
X0028300Y0056930D01*
X0028300Y0057929D02*
X0035200Y0057929D01*
X0035200Y0058927D02*
X0028300Y0058927D01*
X0028300Y0059926D02*
X0035200Y0059926D01*
X0035200Y0060924D02*
X0028300Y0060924D01*
X0028300Y0061923D02*
X0035200Y0061923D01*
X0035200Y0062921D02*
X0028825Y0062921D01*
X0029200Y0063920D02*
X0035200Y0063920D01*
X0035200Y0064918D02*
X0029200Y0064918D01*
X0029200Y0065917D02*
X0035200Y0065917D01*
X0035200Y0066915D02*
X0029200Y0066915D01*
X0029200Y0067914D02*
X0035200Y0067914D01*
X0035200Y0068912D02*
X0029200Y0068912D01*
X0029200Y0069911D02*
X0035200Y0069911D01*
X0035200Y0070909D02*
X0028995Y0070909D01*
X0028300Y0071908D02*
X0035200Y0071908D01*
X0033809Y0072906D02*
X0028300Y0072906D01*
X0028300Y0073905D02*
X0033438Y0073905D01*
X0033438Y0074903D02*
X0028300Y0074903D01*
X0028300Y0075902D02*
X0033438Y0075902D01*
X0033438Y0076900D02*
X0028300Y0076900D01*
X0028300Y0077899D02*
X0033501Y0077899D01*
X0033906Y0079896D02*
X0029648Y0079896D01*
X0029953Y0080200D02*
X0029953Y0080200D01*
X0028650Y0078897D02*
X0039650Y0078897D01*
X0041562Y0076985D02*
X0044947Y0073600D01*
X0045538Y0073600D01*
X0045538Y0073578D01*
X0046534Y0072582D01*
X0047300Y0072582D01*
X0047300Y0068906D01*
X0046979Y0068585D01*
X0046419Y0067232D01*
X0046419Y0065768D01*
X0046979Y0064415D01*
X0048015Y0063379D01*
X0049368Y0062819D01*
X0050832Y0062819D01*
X0052185Y0063379D01*
X0053221Y0064415D01*
X0053781Y0065768D01*
X0053781Y0067232D01*
X0053221Y0068585D01*
X0052185Y0069621D01*
X0051900Y0069739D01*
X0051900Y0072582D01*
X0052666Y0072582D01*
X0053662Y0073578D01*
X0053662Y0078136D01*
X0052666Y0079131D01*
X0046534Y0079131D01*
X0046227Y0078825D01*
X0041562Y0083490D01*
X0041562Y0084922D01*
X0040566Y0085918D01*
X0034434Y0085918D01*
X0033438Y0084922D01*
X0033438Y0084900D01*
X0031300Y0084900D01*
X0031300Y0111147D01*
X0032853Y0112700D01*
X0034163Y0112700D01*
X0036863Y0110000D01*
X0034100Y0107237D01*
X0034100Y0102763D01*
X0036863Y0100000D01*
X0034100Y0097237D01*
X0034100Y0092763D01*
X0037263Y0089600D01*
X0041737Y0089600D01*
X0044500Y0092363D01*
X0047263Y0089600D01*
X0047300Y0089600D01*
X0047300Y0086218D01*
X0046534Y0086218D01*
X0045538Y0085222D01*
X0045538Y0080664D01*
X0046534Y0079669D01*
X0052666Y0079669D01*
X0053662Y0080664D01*
X0053662Y0085222D01*
X0052666Y0086218D01*
X0051900Y0086218D01*
X0051900Y0089763D01*
X0054900Y0092763D01*
X0054900Y0097237D01*
X0052137Y0100000D01*
X0054900Y0102763D01*
X0054900Y0102800D01*
X0087653Y0102800D01*
X0090253Y0105400D01*
X0091600Y0106747D01*
X0091600Y0116994D01*
X0092421Y0117815D01*
X0092981Y0119168D01*
X0092981Y0120632D01*
X0092421Y0121985D01*
X0091385Y0123021D01*
X0090032Y0123581D01*
X0088568Y0123581D01*
X0087215Y0123021D01*
X0086179Y0121985D01*
X0085619Y0120632D01*
X0085619Y0119168D01*
X0086179Y0117815D01*
X0087000Y0116994D01*
X0087000Y0108653D01*
X0085747Y0107400D01*
X0082606Y0107400D01*
X0083121Y0107915D01*
X0083681Y0109268D01*
X0083681Y0110732D01*
X0083121Y0112085D01*
X0082085Y0113121D01*
X0080732Y0113681D01*
X0079268Y0113681D01*
X0077915Y0113121D01*
X0077094Y0112300D01*
X0054154Y0112300D01*
X0054700Y0112846D01*
X0054700Y0114500D01*
X0050000Y0114500D01*
X0050000Y0115500D01*
X0054700Y0115500D01*
X0054700Y0117154D01*
X0051995Y0119859D01*
X0054737Y0122600D01*
X0066494Y0122600D01*
X0067315Y0121779D01*
X0068668Y0121219D01*
X0070132Y0121219D01*
X0071485Y0121779D01*
X0072521Y0122815D01*
X0073081Y0124168D01*
X0073081Y0125632D01*
X0072521Y0126985D01*
X0071485Y0128021D01*
X0070132Y0128581D01*
X0068668Y0128581D01*
X0067315Y0128021D01*
X0066494Y0127200D01*
X0054900Y0127200D01*
X0054900Y0127237D01*
X0052137Y0130000D01*
X0054900Y0132763D01*
X0054900Y0137237D01*
X0052400Y0139737D01*
X0052400Y0187777D01*
X0051958Y0188843D01*
X0049201Y0191600D01*
X0113430Y0191600D01*
X0114495Y0192041D01*
X0115053Y0192599D01*
X0115053Y0151423D01*
X0115057Y0151414D01*
X0115057Y0109541D01*
X0114682Y0109166D01*
X0114682Y0103783D01*
X0111357Y0100458D01*
X0110541Y0099643D01*
X0110100Y0098577D01*
X0110100Y0096700D01*
X0109875Y0096700D01*
X0109875Y0092750D01*
X0109775Y0092750D01*
X0109775Y0096700D01*
X0108680Y0096700D01*
X0108480Y0096900D01*
X0107577Y0096900D01*
X0109324Y0098647D01*
X0109324Y0099100D01*
X0109704Y0099100D01*
X0110700Y0100096D01*
X0110700Y0107104D01*
X0109704Y0108100D01*
X0109224Y0108100D01*
X0109224Y0108511D01*
X0107936Y0109800D01*
X0106113Y0109800D01*
X0104824Y0108511D01*
X0104824Y0108100D01*
X0104038Y0108100D01*
X0103821Y0108317D01*
X0103430Y0108578D01*
X0102996Y0108758D01*
X0102535Y0108850D01*
X0102300Y0108850D01*
X0102300Y0103600D01*
X0102300Y0107600D01*
X0102300Y0107854D02*
X0102300Y0107854D01*
X0102300Y0108850D02*
X0102065Y0108850D01*
X0101604Y0108758D01*
X0101170Y0108578D01*
X0100779Y0108317D01*
X0100562Y0108100D01*
X0099776Y0108100D01*
X0099776Y0108511D01*
X0098487Y0109800D01*
X0096664Y0109800D01*
X0095376Y0108511D01*
X0095376Y0108100D01*
X0094896Y0108100D01*
X0093900Y0107104D01*
X0093900Y0100096D01*
X0094896Y0099100D01*
X0095276Y0099100D01*
X0095276Y0098647D01*
X0097798Y0096125D01*
X0097576Y0095904D01*
X0097576Y0089624D01*
X0091296Y0089624D01*
X0090300Y0088628D01*
X0090300Y0076525D01*
X0077727Y0076525D01*
X0076600Y0077653D01*
X0076600Y0080894D01*
X0077421Y0081715D01*
X0077981Y0083068D01*
X0077981Y0084532D01*
X0077421Y0085885D01*
X0076385Y0086921D01*
X0075032Y0087481D01*
X0073568Y0087481D01*
X0072215Y0086921D01*
X0071179Y0085885D01*
X0070619Y0084532D01*
X0070619Y0083068D01*
X0071179Y0081715D01*
X0072000Y0080894D01*
X0072000Y0075747D01*
X0073347Y0074400D01*
X0074372Y0073376D01*
X0062177Y0073376D01*
X0061000Y0074553D01*
X0061000Y0085294D01*
X0061821Y0086115D01*
X0062381Y0087468D01*
X0062381Y0088932D01*
X0061821Y0090285D01*
X0060785Y0091321D01*
X0059432Y0091881D01*
X0057968Y0091881D01*
X0056615Y0091321D01*
X0055579Y0090285D01*
X0055019Y0088932D01*
X0055019Y0087468D01*
X0055579Y0086115D01*
X0056400Y0085294D01*
X0056400Y0072647D01*
X0060272Y0068776D01*
X0073723Y0068776D01*
X0073628Y0068681D01*
X0072468Y0068681D01*
X0071115Y0068121D01*
X0070079Y0067085D01*
X0069519Y0065732D01*
X0069519Y0064268D01*
X0070079Y0062915D01*
X0071115Y0061879D01*
X0072468Y0061319D01*
X0073932Y0061319D01*
X0075285Y0061879D01*
X0076321Y0062915D01*
X0076881Y0064268D01*
X0076881Y0065428D01*
X0077079Y0065626D01*
X0090300Y0065626D01*
X0090300Y0062972D01*
X0091296Y0061976D01*
X0091524Y0061976D01*
X0090547Y0061000D01*
X0067653Y0061000D01*
X0067481Y0061172D01*
X0067481Y0062332D01*
X0066921Y0063685D01*
X0065885Y0064721D01*
X0064532Y0065281D01*
X0063068Y0065281D01*
X0061715Y0064721D01*
X0060679Y0063685D01*
X0060119Y0062332D01*
X0060119Y0060868D01*
X0060679Y0059515D01*
X0061715Y0058479D01*
X0063068Y0057919D01*
X0064228Y0057919D01*
X0065747Y0056400D01*
X0092453Y0056400D01*
X0093800Y0057747D01*
X0096800Y0060747D01*
X0096800Y0061976D01*
X0097576Y0061976D01*
X0097576Y0060629D01*
X0092947Y0056000D01*
X0047006Y0056000D01*
X0046185Y0056821D01*
X0044832Y0057381D01*
X0043368Y0057381D01*
X0042015Y0056821D01*
X0040979Y0055785D01*
X0040419Y0054432D01*
X0040419Y0052968D01*
X0040979Y0051615D01*
X0041771Y0050823D01*
X0040900Y0049953D01*
X0040600Y0049653D01*
X0039800Y0050453D01*
X0039800Y0072282D01*
X0040566Y0072282D01*
X0041562Y0073278D01*
X0041562Y0076985D01*
X0041562Y0076900D02*
X0041647Y0076900D01*
X0041562Y0075902D02*
X0042646Y0075902D01*
X0043644Y0074903D02*
X0041562Y0074903D01*
X0041562Y0073905D02*
X0044643Y0073905D01*
X0046209Y0072906D02*
X0041191Y0072906D01*
X0039800Y0071908D02*
X0047300Y0071908D01*
X0047300Y0070909D02*
X0039800Y0070909D01*
X0039800Y0069911D02*
X0047300Y0069911D01*
X0047300Y0068912D02*
X0039800Y0068912D01*
X0039800Y0067914D02*
X0046701Y0067914D01*
X0046419Y0066915D02*
X0039800Y0066915D01*
X0039800Y0065917D02*
X0046419Y0065917D01*
X0046771Y0064918D02*
X0039800Y0064918D01*
X0039800Y0063920D02*
X0047475Y0063920D01*
X0049121Y0062921D02*
X0039800Y0062921D01*
X0039800Y0061923D02*
X0060119Y0061923D01*
X0060119Y0060924D02*
X0039800Y0060924D01*
X0039800Y0059926D02*
X0060509Y0059926D01*
X0061267Y0058927D02*
X0039800Y0058927D01*
X0039800Y0057929D02*
X0063044Y0057929D01*
X0065217Y0056930D02*
X0045921Y0056930D01*
X0042279Y0056930D02*
X0039800Y0056930D01*
X0039800Y0055932D02*
X0041126Y0055932D01*
X0040626Y0054933D02*
X0039800Y0054933D01*
X0039800Y0053934D02*
X0040419Y0053934D01*
X0040432Y0052936D02*
X0039800Y0052936D01*
X0039800Y0051937D02*
X0040846Y0051937D01*
X0041655Y0050939D02*
X0039800Y0050939D01*
X0040312Y0049940D02*
X0040888Y0049940D01*
X0044153Y0046700D02*
X0101853Y0046700D01*
X0103600Y0048447D01*
X0105143Y0046904D01*
X0105143Y0038841D01*
X0104169Y0037866D01*
X0104169Y0031734D01*
X0105143Y0030759D01*
X0105143Y0026350D01*
X0104678Y0026350D01*
X0103682Y0025354D01*
X0103682Y0022764D01*
X0103840Y0022607D01*
X0103682Y0022449D01*
X0103682Y0020551D01*
X0104193Y0020040D01*
X0104024Y0019748D01*
X0103882Y0019216D01*
X0103882Y0018941D01*
X0107449Y0018941D01*
X0107449Y0018941D01*
X0103882Y0018941D01*
X0103882Y0018666D01*
X0104024Y0018134D01*
X0104300Y0017657D01*
X0104689Y0017268D01*
X0105153Y0017000D01*
X0095606Y0017000D01*
X0094785Y0017821D01*
X0093432Y0018381D01*
X0091968Y0018381D01*
X0090615Y0017821D01*
X0089579Y0016785D01*
X0089019Y0015432D01*
X0089019Y0013968D01*
X0089579Y0012615D01*
X0090494Y0011700D01*
X0068553Y0011700D01*
X0068000Y0012253D01*
X0068000Y0017442D01*
X0068409Y0017851D01*
X0068409Y0020244D01*
X0068209Y0020444D01*
X0068209Y0021016D01*
X0068209Y0021588D01*
X0068409Y0021788D01*
X0068409Y0022653D01*
X0069705Y0022653D01*
X0071472Y0024419D01*
X0072632Y0024419D01*
X0073985Y0024979D01*
X0075021Y0026015D01*
X0075581Y0027368D01*
X0075581Y0028832D01*
X0075021Y0030185D01*
X0073985Y0031221D01*
X0072632Y0031781D01*
X0071168Y0031781D01*
X0069815Y0031221D01*
X0068779Y0030185D01*
X0068219Y0028832D01*
X0068219Y0027672D01*
X0067800Y0027253D01*
X0064673Y0027253D01*
X0064565Y0027145D01*
X0063839Y0027145D01*
X0063462Y0026767D01*
X0063166Y0026846D01*
X0061484Y0026846D01*
X0061484Y0022484D01*
X0060516Y0022484D01*
X0060516Y0026846D01*
X0058834Y0026846D01*
X0058538Y0026767D01*
X0058161Y0027145D01*
X0057435Y0027145D01*
X0057327Y0027253D01*
X0051562Y0027253D01*
X0051562Y0027322D01*
X0050566Y0028318D01*
X0044434Y0028318D01*
X0043459Y0027343D01*
X0042409Y0027343D01*
X0041200Y0028553D01*
X0041200Y0043747D01*
X0044153Y0046700D01*
X0043399Y0045946D02*
X0105143Y0045946D01*
X0105143Y0044948D02*
X0042401Y0044948D01*
X0041402Y0043949D02*
X0046732Y0043949D01*
X0046809Y0044027D02*
X0045473Y0042691D01*
X0045473Y0042691D01*
X0045473Y0042691D01*
X0044750Y0040945D01*
X0044750Y0039055D01*
X0045473Y0037309D01*
X0046809Y0035973D01*
X0046809Y0035973D01*
X0048555Y0035250D01*
X0076250Y0035250D01*
X0076250Y0016275D01*
X0076250Y0016055D01*
X0076973Y0014309D01*
X0078309Y0012973D01*
X0078309Y0012973D01*
X0080055Y0012250D01*
X0081945Y0012250D01*
X0083691Y0012973D01*
X0085027Y0014309D01*
X0085750Y0016055D01*
X0085750Y0040945D01*
X0085027Y0042691D01*
X0083691Y0044027D01*
X0083691Y0044027D01*
X0081945Y0044750D01*
X0048555Y0044750D01*
X0046809Y0044027D01*
X0046809Y0044027D01*
X0045733Y0042951D02*
X0041200Y0042951D01*
X0041200Y0041952D02*
X0045167Y0041952D01*
X0044754Y0040954D02*
X0041200Y0040954D01*
X0041200Y0039955D02*
X0044750Y0039955D01*
X0044791Y0038957D02*
X0041200Y0038957D01*
X0041200Y0037958D02*
X0045204Y0037958D01*
X0045473Y0037309D02*
X0045473Y0037309D01*
X0045823Y0036960D02*
X0041200Y0036960D01*
X0041200Y0035961D02*
X0046838Y0035961D01*
X0041200Y0034963D02*
X0076250Y0034963D01*
X0076250Y0033964D02*
X0041200Y0033964D01*
X0041200Y0032966D02*
X0076250Y0032966D01*
X0076250Y0031967D02*
X0041200Y0031967D01*
X0041200Y0030969D02*
X0069563Y0030969D01*
X0068690Y0029970D02*
X0041200Y0029970D01*
X0041200Y0028972D02*
X0068277Y0028972D01*
X0068219Y0027973D02*
X0050911Y0027973D01*
X0044089Y0027973D02*
X0041779Y0027973D01*
X0047787Y0017988D02*
X0053890Y0017988D01*
X0056374Y0017988D02*
X0056374Y0017988D01*
X0056374Y0017055D02*
X0056374Y0019047D01*
X0056374Y0019047D01*
X0056374Y0017055D01*
X0056374Y0018987D02*
X0056374Y0018987D01*
X0056374Y0019047D02*
X0056374Y0020792D01*
X0056374Y0020792D01*
X0056374Y0019047D01*
X0056374Y0019047D01*
X0056374Y0019985D02*
X0056374Y0019985D01*
X0060516Y0019985D02*
X0061484Y0019985D01*
X0061484Y0018987D02*
X0060516Y0018987D01*
X0060516Y0017988D02*
X0061484Y0017988D01*
X0061484Y0020984D02*
X0060516Y0020984D01*
X0060516Y0022981D02*
X0061484Y0022981D01*
X0061484Y0023979D02*
X0060516Y0023979D01*
X0060516Y0024978D02*
X0061484Y0024978D01*
X0061484Y0025976D02*
X0060516Y0025976D01*
X0058331Y0026975D02*
X0063669Y0026975D01*
X0068409Y0021982D02*
X0076250Y0021982D01*
X0076250Y0020984D02*
X0068209Y0020984D01*
X0068209Y0021016D02*
X0067637Y0021016D01*
X0067636Y0021016D02*
X0068209Y0021016D01*
X0067637Y0021016D02*
X0067636Y0021016D01*
X0067636Y0021016D01*
X0068409Y0019985D02*
X0076250Y0019985D01*
X0076250Y0018987D02*
X0068409Y0018987D01*
X0068409Y0017988D02*
X0076250Y0017988D01*
X0076250Y0016990D02*
X0068000Y0016990D01*
X0068000Y0015991D02*
X0076277Y0015991D01*
X0076250Y0016055D02*
X0076250Y0016055D01*
X0076690Y0014993D02*
X0068000Y0014993D01*
X0068000Y0013994D02*
X0077288Y0013994D01*
X0076973Y0014309D02*
X0076973Y0014309D01*
X0078287Y0012996D02*
X0068000Y0012996D01*
X0068256Y0011997D02*
X0090197Y0011997D01*
X0089422Y0012996D02*
X0083713Y0012996D01*
X0083691Y0012973D02*
X0083691Y0012973D01*
X0084712Y0013994D02*
X0089019Y0013994D01*
X0089019Y0014993D02*
X0085310Y0014993D01*
X0085723Y0015991D02*
X0089250Y0015991D01*
X0089784Y0016990D02*
X0085750Y0016990D01*
X0085750Y0017988D02*
X0091019Y0017988D01*
X0094381Y0017988D02*
X0104109Y0017988D01*
X0103882Y0018987D02*
X0085750Y0018987D01*
X0085750Y0019985D02*
X0104161Y0019985D01*
X0103682Y0020984D02*
X0085750Y0020984D01*
X0085750Y0021982D02*
X0103682Y0021982D01*
X0103682Y0022981D02*
X0085750Y0022981D01*
X0085750Y0023979D02*
X0103682Y0023979D01*
X0103682Y0024978D02*
X0085750Y0024978D01*
X0085750Y0025976D02*
X0104304Y0025976D01*
X0105143Y0026975D02*
X0085750Y0026975D01*
X0085750Y0027973D02*
X0105143Y0027973D01*
X0105143Y0028972D02*
X0085750Y0028972D01*
X0085750Y0029970D02*
X0105143Y0029970D01*
X0104933Y0030969D02*
X0102244Y0030969D01*
X0102129Y0030938D02*
X0102510Y0031040D01*
X0102853Y0031237D01*
X0103132Y0031517D01*
X0103329Y0031859D01*
X0103431Y0032240D01*
X0103431Y0034513D01*
X0100644Y0034513D01*
X0100644Y0035087D01*
X0103431Y0035087D01*
X0103431Y0037360D01*
X0103329Y0037741D01*
X0103132Y0038083D01*
X0102853Y0038362D01*
X0102510Y0038560D01*
X0102129Y0038662D01*
X0100644Y0038662D01*
X0100644Y0035087D01*
X0100069Y0035087D01*
X0100069Y0034513D01*
X0097282Y0034513D01*
X0097282Y0032240D01*
X0097384Y0031859D01*
X0097582Y0031517D01*
X0097861Y0031237D01*
X0098203Y0031040D01*
X0098584Y0030938D01*
X0100069Y0030938D01*
X0100069Y0034513D01*
X0100644Y0034513D01*
X0100644Y0030938D01*
X0102129Y0030938D01*
X0100644Y0030969D02*
X0100069Y0030969D01*
X0100069Y0031967D02*
X0100644Y0031967D01*
X0100644Y0032966D02*
X0100069Y0032966D01*
X0100069Y0033964D02*
X0100644Y0033964D01*
X0100644Y0034963D02*
X0104169Y0034963D01*
X0104169Y0035961D02*
X0103431Y0035961D01*
X0103431Y0036960D02*
X0104169Y0036960D01*
X0104260Y0037958D02*
X0103204Y0037958D01*
X0105143Y0038957D02*
X0085750Y0038957D01*
X0085750Y0039955D02*
X0105143Y0039955D01*
X0105143Y0040954D02*
X0085746Y0040954D01*
X0085333Y0041952D02*
X0105143Y0041952D01*
X0105143Y0042951D02*
X0084767Y0042951D01*
X0085027Y0042691D02*
X0085027Y0042691D01*
X0083768Y0043949D02*
X0105143Y0043949D01*
X0105102Y0046945D02*
X0102098Y0046945D01*
X0103096Y0047943D02*
X0104104Y0047943D01*
X0108353Y0050200D02*
X0105800Y0052753D01*
X0105800Y0054700D01*
X0111629Y0054700D01*
X0111829Y0054900D01*
X0112925Y0054900D01*
X0112925Y0058850D01*
X0113025Y0058850D01*
X0113025Y0054900D01*
X0114120Y0054900D01*
X0114320Y0054700D01*
X0116974Y0054700D01*
X0116974Y0052273D01*
X0118619Y0050628D01*
X0118619Y0049468D01*
X0119179Y0048115D01*
X0120215Y0047079D01*
X0121568Y0046519D01*
X0123032Y0046519D01*
X0124385Y0047079D01*
X0125421Y0048115D01*
X0125981Y0049468D01*
X0125981Y0050932D01*
X0125421Y0052285D01*
X0124385Y0053321D01*
X0123032Y0053881D01*
X0121872Y0053881D01*
X0121574Y0054179D01*
X0121574Y0054700D01*
X0124228Y0054700D01*
X0125224Y0055696D01*
X0125224Y0056600D01*
X0126319Y0056600D01*
X0126319Y0056268D01*
X0126879Y0054915D01*
X0127915Y0053879D01*
X0129268Y0053319D01*
X0130732Y0053319D01*
X0132085Y0053879D01*
X0133121Y0054915D01*
X0133681Y0056268D01*
X0133681Y0057732D01*
X0133121Y0059085D01*
X0132085Y0060121D01*
X0130732Y0060681D01*
X0129572Y0060681D01*
X0129053Y0061200D01*
X0125224Y0061200D01*
X0125224Y0061976D01*
X0131504Y0061976D01*
X0132500Y0062972D01*
X0132500Y0068800D01*
X0132547Y0068800D01*
X0137147Y0064200D01*
X0140282Y0064200D01*
X0140282Y0063434D01*
X0141278Y0062438D01*
X0141300Y0062438D01*
X0141300Y0060906D01*
X0140479Y0060085D01*
X0139919Y0058732D01*
X0139919Y0057268D01*
X0140479Y0055915D01*
X0141515Y0054879D01*
X0142868Y0054319D01*
X0144332Y0054319D01*
X0145685Y0054879D01*
X0146721Y0055915D01*
X0147281Y0057268D01*
X0147281Y0058732D01*
X0146721Y0060085D01*
X0145900Y0060906D01*
X0145900Y0062502D01*
X0146831Y0063434D01*
X0146831Y0069566D01*
X0145836Y0070562D01*
X0141278Y0070562D01*
X0140282Y0069566D01*
X0140282Y0068800D01*
X0139053Y0068800D01*
X0135800Y0072053D01*
X0135103Y0072750D01*
X0136953Y0074600D01*
X0140282Y0074600D01*
X0140282Y0073834D01*
X0141278Y0072838D01*
X0145836Y0072838D01*
X0146831Y0073834D01*
X0146831Y0079966D01*
X0145900Y0080898D01*
X0145900Y0082347D01*
X0146953Y0083400D01*
X0168847Y0083400D01*
X0170000Y0082247D01*
X0170000Y0018353D01*
X0166647Y0015000D01*
X0144853Y0015000D01*
X0143619Y0016234D01*
X0144342Y0016234D01*
X0145338Y0017230D01*
X0145338Y0017610D01*
X0146329Y0016618D01*
X0147274Y0016618D01*
X0147658Y0016234D01*
X0153791Y0016234D01*
X0154787Y0017230D01*
X0154787Y0020607D01*
X0154014Y0021379D01*
X0154175Y0021539D01*
X0154892Y0021539D01*
X0156727Y0023375D01*
X0157334Y0022769D01*
X0163466Y0022769D01*
X0164462Y0023764D01*
X0164462Y0028322D01*
X0163466Y0029318D01*
X0157334Y0029318D01*
X0156338Y0028322D01*
X0156338Y0028300D01*
X0155147Y0028300D01*
X0154587Y0027739D01*
X0154587Y0028761D01*
X0154587Y0029942D01*
X0154484Y0030324D01*
X0154287Y0030666D01*
X0154008Y0030945D01*
X0153837Y0031044D01*
X0154787Y0031993D01*
X0154787Y0035370D01*
X0153791Y0036366D01*
X0152957Y0036366D01*
X0152957Y0039159D01*
X0153931Y0040134D01*
X0153931Y0046266D01*
X0153024Y0047173D01*
X0153024Y0062540D01*
X0153918Y0063434D01*
X0153918Y0069566D01*
X0152943Y0070541D01*
X0152943Y0072859D01*
X0153918Y0073834D01*
X0153918Y0079966D01*
X0152922Y0080962D01*
X0148364Y0080962D01*
X0147369Y0079966D01*
X0147369Y0073834D01*
X0148343Y0072859D01*
X0148343Y0070541D01*
X0147369Y0069566D01*
X0147369Y0063434D01*
X0148364Y0062438D01*
X0148424Y0062438D01*
X0148424Y0047262D01*
X0148378Y0047262D01*
X0147382Y0046266D01*
X0147382Y0045500D01*
X0117353Y0045500D01*
X0112653Y0050200D01*
X0108353Y0050200D01*
X0107614Y0050939D02*
X0118308Y0050939D01*
X0118619Y0049940D02*
X0112912Y0049940D01*
X0113911Y0048942D02*
X0118837Y0048942D01*
X0119351Y0047943D02*
X0114909Y0047943D01*
X0115908Y0046945D02*
X0120539Y0046945D01*
X0124061Y0046945D02*
X0148060Y0046945D01*
X0148424Y0047943D02*
X0125249Y0047943D01*
X0125763Y0048942D02*
X0148424Y0048942D01*
X0148424Y0049940D02*
X0125981Y0049940D01*
X0125978Y0050939D02*
X0148424Y0050939D01*
X0148424Y0051937D02*
X0125565Y0051937D01*
X0124770Y0052936D02*
X0148424Y0052936D01*
X0148424Y0053934D02*
X0132140Y0053934D01*
X0133128Y0054933D02*
X0141461Y0054933D01*
X0140472Y0055932D02*
X0133542Y0055932D01*
X0133681Y0056930D02*
X0140059Y0056930D01*
X0139919Y0057929D02*
X0133600Y0057929D01*
X0133186Y0058927D02*
X0140000Y0058927D01*
X0140413Y0059926D02*
X0132280Y0059926D01*
X0129329Y0060924D02*
X0141300Y0060924D01*
X0141300Y0061923D02*
X0125224Y0061923D01*
X0125224Y0055932D02*
X0126458Y0055932D01*
X0126872Y0054933D02*
X0124461Y0054933D01*
X0121818Y0053934D02*
X0127860Y0053934D01*
X0132449Y0062921D02*
X0140794Y0062921D01*
X0140282Y0063920D02*
X0132500Y0063920D01*
X0132500Y0064918D02*
X0136429Y0064918D01*
X0135431Y0065917D02*
X0132500Y0065917D01*
X0132500Y0066915D02*
X0134432Y0066915D01*
X0133434Y0067914D02*
X0132500Y0067914D01*
X0136943Y0070909D02*
X0148343Y0070909D01*
X0148343Y0071908D02*
X0135945Y0071908D01*
X0135259Y0072906D02*
X0141209Y0072906D01*
X0140282Y0073905D02*
X0136257Y0073905D01*
X0137942Y0069911D02*
X0140626Y0069911D01*
X0140282Y0068912D02*
X0138941Y0068912D01*
X0146487Y0069911D02*
X0147713Y0069911D01*
X0147369Y0068912D02*
X0146831Y0068912D01*
X0146831Y0067914D02*
X0147369Y0067914D01*
X0147369Y0066915D02*
X0146831Y0066915D01*
X0146831Y0065917D02*
X0147369Y0065917D01*
X0147369Y0064918D02*
X0146831Y0064918D01*
X0146831Y0063920D02*
X0147369Y0063920D01*
X0147881Y0062921D02*
X0146319Y0062921D01*
X0145900Y0061923D02*
X0148424Y0061923D01*
X0148424Y0060924D02*
X0145900Y0060924D01*
X0146787Y0059926D02*
X0148424Y0059926D01*
X0148424Y0058927D02*
X0147200Y0058927D01*
X0147281Y0057929D02*
X0148424Y0057929D01*
X0148424Y0056930D02*
X0147141Y0056930D01*
X0146728Y0055932D02*
X0148424Y0055932D01*
X0148424Y0054933D02*
X0145739Y0054933D01*
X0153024Y0054933D02*
X0170000Y0054933D01*
X0170000Y0053934D02*
X0153024Y0053934D01*
X0153024Y0052936D02*
X0170000Y0052936D01*
X0170000Y0051937D02*
X0153024Y0051937D01*
X0153024Y0050939D02*
X0170000Y0050939D01*
X0170000Y0049940D02*
X0153024Y0049940D01*
X0153024Y0048942D02*
X0170000Y0048942D01*
X0170000Y0047943D02*
X0153024Y0047943D01*
X0153253Y0046945D02*
X0155563Y0046945D01*
X0155590Y0046960D02*
X0155247Y0046762D01*
X0154968Y0046483D01*
X0154771Y0046141D01*
X0154669Y0045760D01*
X0154668Y0043487D01*
X0157456Y0043487D01*
X0157456Y0042913D01*
X0154669Y0042913D01*
X0154669Y0040640D01*
X0154771Y0040259D01*
X0154968Y0039917D01*
X0155247Y0039638D01*
X0155590Y0039440D01*
X0155971Y0039338D01*
X0157456Y0039338D01*
X0157456Y0042913D01*
X0158031Y0042913D01*
X0158031Y0043487D01*
X0160818Y0043487D01*
X0160818Y0045760D01*
X0160716Y0046141D01*
X0160518Y0046483D01*
X0160239Y0046762D01*
X0159897Y0046960D01*
X0159516Y0047062D01*
X0158031Y0047062D01*
X0158031Y0043487D01*
X0157456Y0043487D01*
X0157456Y0047062D01*
X0155971Y0047062D01*
X0155590Y0046960D01*
X0154719Y0045946D02*
X0153931Y0045946D01*
X0153931Y0044948D02*
X0154669Y0044948D01*
X0154669Y0043949D02*
X0153931Y0043949D01*
X0153931Y0042951D02*
X0157456Y0042951D01*
X0158031Y0042951D02*
X0170000Y0042951D01*
X0170000Y0043949D02*
X0160818Y0043949D01*
X0160818Y0044948D02*
X0170000Y0044948D01*
X0170000Y0045946D02*
X0160768Y0045946D01*
X0159923Y0046945D02*
X0170000Y0046945D01*
X0174600Y0046945D02*
X0176528Y0046945D01*
X0176528Y0047943D02*
X0174600Y0047943D01*
X0174600Y0048942D02*
X0176528Y0048942D01*
X0176528Y0049940D02*
X0174600Y0049940D01*
X0174600Y0050939D02*
X0176528Y0050939D01*
X0176528Y0051937D02*
X0174600Y0051937D01*
X0174600Y0052936D02*
X0176528Y0052936D01*
X0176528Y0053934D02*
X0174600Y0053934D01*
X0174600Y0054933D02*
X0176528Y0054933D01*
X0176528Y0055932D02*
X0174600Y0055932D01*
X0174600Y0056930D02*
X0176528Y0056930D01*
X0176528Y0057929D02*
X0174600Y0057929D01*
X0174600Y0058927D02*
X0176528Y0058927D01*
X0176528Y0059926D02*
X0174600Y0059926D01*
X0174600Y0060924D02*
X0176528Y0060924D01*
X0176528Y0061923D02*
X0174600Y0061923D01*
X0174600Y0062921D02*
X0176528Y0062921D01*
X0176528Y0063920D02*
X0174600Y0063920D01*
X0174600Y0064918D02*
X0176528Y0064918D01*
X0176528Y0065917D02*
X0174600Y0065917D01*
X0174600Y0066915D02*
X0176528Y0066915D01*
X0176528Y0067914D02*
X0174600Y0067914D01*
X0174600Y0068912D02*
X0176528Y0068912D01*
X0176528Y0069911D02*
X0174600Y0069911D01*
X0174600Y0070909D02*
X0176528Y0070909D01*
X0176528Y0071908D02*
X0174600Y0071908D01*
X0174600Y0072906D02*
X0176528Y0072906D01*
X0176528Y0073905D02*
X0174600Y0073905D01*
X0174600Y0074903D02*
X0176528Y0074903D01*
X0176528Y0075902D02*
X0174600Y0075902D01*
X0174600Y0076900D02*
X0176528Y0076900D01*
X0176528Y0077899D02*
X0174600Y0077899D01*
X0174600Y0078897D02*
X0176528Y0078897D01*
X0176528Y0079896D02*
X0174600Y0079896D01*
X0174600Y0080894D02*
X0176528Y0080894D01*
X0176528Y0080924D02*
X0176528Y0019627D01*
X0177387Y0017555D01*
X0178972Y0015969D01*
X0178972Y0015969D01*
X0181044Y0015111D01*
X0183287Y0015111D01*
X0185358Y0015969D01*
X0185358Y0015969D01*
X0186944Y0017555D01*
X0187802Y0019627D01*
X0187802Y0020044D01*
X0187802Y0080924D01*
X0186944Y0082996D01*
X0186944Y0082996D01*
X0185358Y0084582D01*
X0183287Y0085440D01*
X0181044Y0085440D01*
X0178972Y0084582D01*
X0177387Y0082996D01*
X0176528Y0080924D01*
X0176929Y0081893D02*
X0174600Y0081893D01*
X0174600Y0082891D02*
X0177343Y0082891D01*
X0177387Y0082996D02*
X0177387Y0082996D01*
X0178280Y0083890D02*
X0174600Y0083890D01*
X0173864Y0084888D02*
X0179712Y0084888D01*
X0178972Y0084582D02*
X0178972Y0084582D01*
X0184619Y0084888D02*
X0192900Y0084888D01*
X0192900Y0083890D02*
X0186051Y0083890D01*
X0185358Y0084582D02*
X0185358Y0084582D01*
X0186988Y0082891D02*
X0192900Y0082891D01*
X0192900Y0081893D02*
X0187401Y0081893D01*
X0187802Y0080894D02*
X0192900Y0080894D01*
X0192900Y0079896D02*
X0187802Y0079896D01*
X0187802Y0078897D02*
X0192900Y0078897D01*
X0192900Y0077899D02*
X0187802Y0077899D01*
X0187802Y0076900D02*
X0192900Y0076900D01*
X0192900Y0075902D02*
X0187802Y0075902D01*
X0187802Y0074903D02*
X0192900Y0074903D01*
X0192900Y0073905D02*
X0187802Y0073905D01*
X0187802Y0072906D02*
X0193073Y0072906D01*
X0192900Y0073323D02*
X0193341Y0072257D01*
X0195741Y0069857D01*
X0196557Y0069041D01*
X0197623Y0068600D01*
X0212800Y0068600D01*
X0212800Y0061174D01*
X0211648Y0060023D01*
X0209052Y0060023D01*
X0208569Y0059540D01*
X0207287Y0059540D01*
X0206047Y0058300D01*
X0205944Y0058196D01*
X0205944Y0059027D01*
X0204948Y0060023D01*
X0198815Y0060023D01*
X0198292Y0059500D01*
X0194606Y0059500D01*
X0193785Y0060321D01*
X0192432Y0060881D01*
X0190968Y0060881D01*
X0189615Y0060321D01*
X0188579Y0059285D01*
X0188019Y0057932D01*
X0188019Y0056468D01*
X0188579Y0055115D01*
X0189615Y0054079D01*
X0190968Y0053519D01*
X0192432Y0053519D01*
X0193785Y0054079D01*
X0194606Y0054900D01*
X0198051Y0054900D01*
X0198019Y0054780D01*
X0198019Y0053541D01*
X0201840Y0053541D01*
X0201840Y0053459D01*
X0198019Y0053459D01*
X0198019Y0052220D01*
X0198119Y0051847D01*
X0197819Y0051547D01*
X0197819Y0047973D01*
X0198815Y0046977D01*
X0199581Y0046977D01*
X0199581Y0045466D01*
X0198682Y0044566D01*
X0198682Y0038434D01*
X0199657Y0037459D01*
X0199657Y0035041D01*
X0198682Y0034066D01*
X0198682Y0027934D01*
X0199657Y0026959D01*
X0199657Y0024541D01*
X0198682Y0023566D01*
X0198682Y0017434D01*
X0199678Y0016438D01*
X0204236Y0016438D01*
X0205231Y0017434D01*
X0205231Y0023566D01*
X0204257Y0024541D01*
X0204257Y0026959D01*
X0205231Y0027934D01*
X0205231Y0034066D01*
X0204257Y0035041D01*
X0204257Y0037459D01*
X0205231Y0038434D01*
X0205231Y0042059D01*
X0205769Y0041522D01*
X0205769Y0038434D01*
X0206764Y0037438D01*
X0211322Y0037438D01*
X0212318Y0038434D01*
X0212318Y0044566D01*
X0211322Y0045562D01*
X0209300Y0045562D01*
X0209300Y0046977D01*
X0215185Y0046977D01*
X0215708Y0047500D01*
X0216747Y0047500D01*
X0223047Y0041200D01*
X0229182Y0041200D01*
X0229182Y0040434D01*
X0230157Y0039459D01*
X0230157Y0038491D01*
X0232100Y0036547D01*
X0233447Y0035200D01*
X0246753Y0035200D01*
X0248253Y0036700D01*
X0249600Y0038047D01*
X0249600Y0039538D01*
X0249636Y0039538D01*
X0250631Y0040534D01*
X0250631Y0046666D01*
X0249657Y0047641D01*
X0249657Y0050059D01*
X0250631Y0051034D01*
X0250631Y0057166D01*
X0249636Y0058162D01*
X0245078Y0058162D01*
X0244082Y0057166D01*
X0244082Y0051034D01*
X0245057Y0050059D01*
X0245057Y0047641D01*
X0244082Y0046666D01*
X0244082Y0040534D01*
X0244816Y0039800D01*
X0242184Y0039800D01*
X0242818Y0040434D01*
X0242818Y0046566D01*
X0241843Y0047541D01*
X0241843Y0049959D01*
X0242818Y0050934D01*
X0242818Y0057066D01*
X0241822Y0058062D01*
X0237264Y0058062D01*
X0236269Y0057066D01*
X0236269Y0050934D01*
X0237243Y0049959D01*
X0237243Y0047541D01*
X0236269Y0046566D01*
X0236269Y0040434D01*
X0236902Y0039800D01*
X0235353Y0039800D01*
X0235225Y0039927D01*
X0235731Y0040434D01*
X0235731Y0046566D01*
X0234736Y0047562D01*
X0230178Y0047562D01*
X0229182Y0046566D01*
X0229182Y0045800D01*
X0224953Y0045800D01*
X0220000Y0050753D01*
X0218653Y0052100D01*
X0215627Y0052100D01*
X0215185Y0052543D01*
X0209300Y0052543D01*
X0209300Y0054457D01*
X0215185Y0054457D01*
X0216181Y0055453D01*
X0216181Y0058050D01*
X0217400Y0059269D01*
X0217400Y0067847D01*
X0218153Y0068600D01*
X0220102Y0068600D01*
X0220434Y0068269D01*
X0226566Y0068269D01*
X0227562Y0069264D01*
X0227562Y0073822D01*
X0227284Y0074100D01*
X0229800Y0074100D01*
X0230079Y0073821D01*
X0229944Y0073686D01*
X0229586Y0073150D01*
X0229339Y0072554D01*
X0229226Y0071986D01*
X0232099Y0071986D01*
X0232099Y0071214D01*
X0229226Y0071214D01*
X0229339Y0070646D01*
X0229586Y0070050D01*
X0229944Y0069514D01*
X0230079Y0069379D01*
X0229542Y0068842D01*
X0229013Y0067566D01*
X0229013Y0066185D01*
X0229542Y0064909D01*
X0230157Y0064294D01*
X0230157Y0058041D01*
X0229182Y0057066D01*
X0229182Y0050934D01*
X0230178Y0049938D01*
X0234736Y0049938D01*
X0235731Y0050934D01*
X0235731Y0057066D01*
X0234757Y0058041D01*
X0234757Y0064238D01*
X0235428Y0064909D01*
X0235957Y0066185D01*
X0235957Y0067566D01*
X0235428Y0068842D01*
X0234891Y0069379D01*
X0235026Y0069514D01*
X0235384Y0070050D01*
X0235631Y0070646D01*
X0235744Y0071214D01*
X0232871Y0071214D01*
X0232871Y0071986D01*
X0235744Y0071986D01*
X0235631Y0072554D01*
X0235384Y0073150D01*
X0235026Y0073686D01*
X0234891Y0073821D01*
X0235428Y0074358D01*
X0235957Y0075634D01*
X0235957Y0077015D01*
X0235428Y0078291D01*
X0234452Y0079268D01*
X0233176Y0079796D01*
X0231794Y0079796D01*
X0230519Y0079268D01*
X0229951Y0078700D01*
X0224747Y0078700D01*
X0223400Y0077353D01*
X0221200Y0075153D01*
X0221200Y0074818D01*
X0220434Y0074818D01*
X0220016Y0074400D01*
X0199401Y0074400D01*
X0198700Y0075101D01*
X0198700Y0104677D01*
X0198258Y0105743D01*
X0197443Y0106558D01*
X0195458Y0108543D01*
X0194643Y0109358D01*
X0193577Y0109800D01*
X0189706Y0109800D01*
X0189485Y0110021D01*
X0188132Y0110581D01*
X0186668Y0110581D01*
X0185315Y0110021D01*
X0184279Y0108985D01*
X0183719Y0107632D01*
X0183719Y0106168D01*
X0184279Y0104815D01*
X0185315Y0103779D01*
X0186668Y0103219D01*
X0188132Y0103219D01*
X0189485Y0103779D01*
X0189706Y0104000D01*
X0191799Y0104000D01*
X0192900Y0102899D01*
X0192900Y0073323D01*
X0193691Y0071908D02*
X0187802Y0071908D01*
X0187802Y0070909D02*
X0194690Y0070909D01*
X0195688Y0069911D02*
X0187802Y0069911D01*
X0187802Y0068912D02*
X0196870Y0068912D01*
X0195741Y0069857D02*
X0195741Y0069857D01*
X0198898Y0074903D02*
X0221200Y0074903D01*
X0221949Y0075902D02*
X0198700Y0075902D01*
X0198700Y0076900D02*
X0222948Y0076900D01*
X0223946Y0077899D02*
X0198700Y0077899D01*
X0198700Y0078897D02*
X0230148Y0078897D01*
X0234822Y0078897D02*
X0244059Y0078897D01*
X0244115Y0078954D02*
X0243714Y0078553D01*
X0243399Y0078081D01*
X0243182Y0077558D01*
X0243072Y0077002D01*
X0243072Y0076907D01*
X0245761Y0076907D01*
X0245761Y0079596D01*
X0245666Y0079596D01*
X0245110Y0079485D01*
X0244586Y0079269D01*
X0244115Y0078954D01*
X0243324Y0077899D02*
X0235591Y0077899D01*
X0235957Y0076900D02*
X0245761Y0076900D01*
X0245761Y0076907D02*
X0245761Y0076529D01*
X0243238Y0076529D01*
X0242800Y0076646D01*
X0240277Y0075970D01*
X0238430Y0074123D01*
X0237754Y0071600D01*
X0238430Y0069077D01*
X0240277Y0067230D01*
X0242800Y0066554D01*
X0243238Y0066671D01*
X0245761Y0066671D01*
X0245761Y0066293D01*
X0246139Y0066293D01*
X0246139Y0066671D01*
X0248828Y0066671D01*
X0248828Y0066765D01*
X0248717Y0067321D01*
X0248500Y0067845D01*
X0248185Y0068316D01*
X0247784Y0068717D01*
X0247313Y0069032D01*
X0247174Y0069090D01*
X0247846Y0071600D01*
X0247174Y0074110D01*
X0247313Y0074168D01*
X0247784Y0074483D01*
X0248185Y0074884D01*
X0248500Y0075355D01*
X0248717Y0075879D01*
X0248828Y0076435D01*
X0248828Y0076529D01*
X0246139Y0076529D01*
X0246139Y0076907D01*
X0248828Y0076907D01*
X0248828Y0077002D01*
X0248717Y0077558D01*
X0248500Y0078081D01*
X0248185Y0078553D01*
X0247784Y0078954D01*
X0247313Y0079269D01*
X0246789Y0079485D01*
X0246233Y0079596D01*
X0246139Y0079596D01*
X0246139Y0076907D01*
X0245761Y0076907D01*
X0246139Y0076900D02*
X0259206Y0076900D01*
X0259206Y0075902D02*
X0248722Y0075902D01*
X0248198Y0074903D02*
X0259206Y0074903D01*
X0259206Y0073905D02*
X0247229Y0073905D01*
X0247496Y0072906D02*
X0259206Y0072906D01*
X0259206Y0071908D02*
X0247764Y0071908D01*
X0247846Y0071600D02*
X0247846Y0071600D01*
X0247661Y0070909D02*
X0259206Y0070909D01*
X0259206Y0069911D02*
X0247394Y0069911D01*
X0247493Y0068912D02*
X0259206Y0068912D01*
X0259206Y0067914D02*
X0256692Y0067914D01*
X0256485Y0068121D02*
X0257521Y0067085D01*
X0258081Y0065732D01*
X0258081Y0064268D01*
X0257521Y0062915D01*
X0256743Y0062137D01*
X0256743Y0058141D01*
X0257718Y0057166D01*
X0257718Y0051034D01*
X0256743Y0050059D01*
X0256743Y0047641D01*
X0257718Y0046666D01*
X0257718Y0040534D01*
X0256722Y0039538D01*
X0252164Y0039538D01*
X0251169Y0040534D01*
X0251169Y0046666D01*
X0252143Y0047641D01*
X0252143Y0050059D01*
X0251169Y0051034D01*
X0251169Y0057166D01*
X0252143Y0058141D01*
X0252143Y0062051D01*
X0251279Y0062915D01*
X0250719Y0064268D01*
X0250719Y0065732D01*
X0251279Y0067085D01*
X0252315Y0068121D01*
X0253668Y0068681D01*
X0255132Y0068681D01*
X0256485Y0068121D01*
X0257591Y0066915D02*
X0259206Y0066915D01*
X0259206Y0065917D02*
X0258005Y0065917D01*
X0258081Y0064918D02*
X0259206Y0064918D01*
X0259206Y0063920D02*
X0257937Y0063920D01*
X0257523Y0062921D02*
X0259206Y0062921D01*
X0259206Y0061923D02*
X0256743Y0061923D01*
X0256743Y0060924D02*
X0259206Y0060924D01*
X0259206Y0059926D02*
X0256743Y0059926D01*
X0256743Y0058927D02*
X0259206Y0058927D01*
X0259206Y0057929D02*
X0256956Y0057929D01*
X0257718Y0056930D02*
X0259206Y0056930D01*
X0259206Y0055932D02*
X0257718Y0055932D01*
X0257718Y0054933D02*
X0259206Y0054933D01*
X0259206Y0053934D02*
X0257718Y0053934D01*
X0257718Y0052936D02*
X0259206Y0052936D01*
X0259206Y0051937D02*
X0257718Y0051937D01*
X0257623Y0050939D02*
X0259206Y0050939D01*
X0259206Y0049940D02*
X0256743Y0049940D01*
X0256743Y0048942D02*
X0259206Y0048942D01*
X0259206Y0047943D02*
X0256743Y0047943D01*
X0257440Y0046945D02*
X0259206Y0046945D01*
X0259206Y0045946D02*
X0257718Y0045946D01*
X0257718Y0044948D02*
X0259206Y0044948D01*
X0259206Y0043949D02*
X0257718Y0043949D01*
X0257718Y0042951D02*
X0259206Y0042951D01*
X0259206Y0041952D02*
X0257718Y0041952D01*
X0257718Y0040954D02*
X0259206Y0040954D01*
X0259206Y0039955D02*
X0257140Y0039955D01*
X0259206Y0038957D02*
X0249600Y0038957D01*
X0249511Y0037958D02*
X0259206Y0037958D01*
X0259206Y0036960D02*
X0248512Y0036960D01*
X0247514Y0035961D02*
X0259206Y0035961D01*
X0259206Y0034963D02*
X0204335Y0034963D01*
X0204257Y0035961D02*
X0232686Y0035961D01*
X0231687Y0036960D02*
X0204257Y0036960D01*
X0204756Y0037958D02*
X0206244Y0037958D01*
X0205769Y0038957D02*
X0205231Y0038957D01*
X0205231Y0039955D02*
X0205769Y0039955D01*
X0205769Y0040954D02*
X0205231Y0040954D01*
X0205231Y0041952D02*
X0205338Y0041952D01*
X0209300Y0045946D02*
X0218301Y0045946D01*
X0219299Y0044948D02*
X0211937Y0044948D01*
X0212318Y0043949D02*
X0220298Y0043949D01*
X0221296Y0042951D02*
X0212318Y0042951D01*
X0212318Y0041952D02*
X0222295Y0041952D01*
X0224806Y0045946D02*
X0229182Y0045946D01*
X0229560Y0046945D02*
X0223808Y0046945D01*
X0222809Y0047943D02*
X0237243Y0047943D01*
X0237243Y0048942D02*
X0221811Y0048942D01*
X0220812Y0049940D02*
X0230175Y0049940D01*
X0229182Y0050939D02*
X0219814Y0050939D01*
X0218815Y0051937D02*
X0229182Y0051937D01*
X0229182Y0052936D02*
X0209300Y0052936D01*
X0209300Y0053934D02*
X0229182Y0053934D01*
X0229182Y0054933D02*
X0215660Y0054933D01*
X0216181Y0055932D02*
X0229182Y0055932D01*
X0229182Y0056930D02*
X0216181Y0056930D01*
X0216181Y0057929D02*
X0230044Y0057929D01*
X0230157Y0058927D02*
X0217058Y0058927D01*
X0217400Y0059926D02*
X0230157Y0059926D01*
X0230157Y0060924D02*
X0217400Y0060924D01*
X0217400Y0061923D02*
X0219976Y0061923D01*
X0219937Y0061961D02*
X0220217Y0061682D01*
X0220559Y0061484D01*
X0220940Y0061382D01*
X0223213Y0061382D01*
X0223213Y0064169D01*
X0223787Y0064169D01*
X0223787Y0061382D01*
X0226060Y0061382D01*
X0226441Y0061484D01*
X0226783Y0061682D01*
X0227062Y0061961D01*
X0227260Y0062303D01*
X0227362Y0062684D01*
X0227362Y0064169D01*
X0223787Y0064169D01*
X0223787Y0064744D01*
X0223213Y0064744D01*
X0223213Y0067531D01*
X0220940Y0067531D01*
X0220559Y0067429D01*
X0220217Y0067232D01*
X0219937Y0066953D01*
X0219740Y0066610D01*
X0219638Y0066229D01*
X0219638Y0064744D01*
X0223213Y0064744D01*
X0223213Y0064169D01*
X0219638Y0064169D01*
X0219638Y0062684D01*
X0219740Y0062303D01*
X0219937Y0061961D01*
X0219638Y0062921D02*
X0217400Y0062921D01*
X0217400Y0063920D02*
X0219638Y0063920D01*
X0219638Y0064918D02*
X0217400Y0064918D01*
X0217400Y0065917D02*
X0219638Y0065917D01*
X0219916Y0066915D02*
X0217400Y0066915D01*
X0217466Y0067914D02*
X0229157Y0067914D01*
X0229013Y0066915D02*
X0227084Y0066915D01*
X0227062Y0066953D02*
X0226783Y0067232D01*
X0226441Y0067429D01*
X0226060Y0067531D01*
X0223787Y0067531D01*
X0223787Y0064744D01*
X0227362Y0064744D01*
X0227362Y0066229D01*
X0227260Y0066610D01*
X0227062Y0066953D01*
X0227362Y0065917D02*
X0229125Y0065917D01*
X0229538Y0064918D02*
X0227362Y0064918D01*
X0227362Y0063920D02*
X0230157Y0063920D01*
X0230157Y0062921D02*
X0227362Y0062921D01*
X0227024Y0061923D02*
X0230157Y0061923D01*
X0234757Y0061923D02*
X0252143Y0061923D01*
X0252143Y0060924D02*
X0234757Y0060924D01*
X0234757Y0059926D02*
X0252143Y0059926D01*
X0252143Y0058927D02*
X0234757Y0058927D01*
X0234869Y0057929D02*
X0237131Y0057929D01*
X0236269Y0056930D02*
X0235731Y0056930D01*
X0235731Y0055932D02*
X0236269Y0055932D01*
X0236269Y0054933D02*
X0235731Y0054933D01*
X0235731Y0053934D02*
X0236269Y0053934D01*
X0236269Y0052936D02*
X0235731Y0052936D01*
X0235731Y0051937D02*
X0236269Y0051937D01*
X0236269Y0050939D02*
X0235731Y0050939D01*
X0234738Y0049940D02*
X0237243Y0049940D01*
X0236647Y0046945D02*
X0235353Y0046945D01*
X0235731Y0045946D02*
X0236269Y0045946D01*
X0236269Y0044948D02*
X0235731Y0044948D01*
X0235731Y0043949D02*
X0236269Y0043949D01*
X0236269Y0042951D02*
X0235731Y0042951D01*
X0235731Y0041952D02*
X0236269Y0041952D01*
X0236269Y0040954D02*
X0235731Y0040954D01*
X0235253Y0039955D02*
X0236747Y0039955D01*
X0242340Y0039955D02*
X0244660Y0039955D01*
X0244082Y0040954D02*
X0242818Y0040954D01*
X0242818Y0041952D02*
X0244082Y0041952D01*
X0244082Y0042951D02*
X0242818Y0042951D01*
X0242818Y0043949D02*
X0244082Y0043949D01*
X0244082Y0044948D02*
X0242818Y0044948D01*
X0242818Y0045946D02*
X0244082Y0045946D01*
X0244360Y0046945D02*
X0242440Y0046945D01*
X0241843Y0047943D02*
X0245057Y0047943D01*
X0245057Y0048942D02*
X0241843Y0048942D01*
X0241843Y0049940D02*
X0245057Y0049940D01*
X0244177Y0050939D02*
X0242818Y0050939D01*
X0242818Y0051937D02*
X0244082Y0051937D01*
X0244082Y0052936D02*
X0242818Y0052936D01*
X0242818Y0053934D02*
X0244082Y0053934D01*
X0244082Y0054933D02*
X0242818Y0054933D01*
X0242818Y0055932D02*
X0244082Y0055932D01*
X0244082Y0056930D02*
X0242818Y0056930D01*
X0241956Y0057929D02*
X0244844Y0057929D01*
X0249869Y0057929D02*
X0251931Y0057929D01*
X0251169Y0056930D02*
X0250631Y0056930D01*
X0250631Y0055932D02*
X0251169Y0055932D01*
X0251169Y0054933D02*
X0250631Y0054933D01*
X0250631Y0053934D02*
X0251169Y0053934D01*
X0251169Y0052936D02*
X0250631Y0052936D01*
X0250631Y0051937D02*
X0251169Y0051937D01*
X0251263Y0050939D02*
X0250537Y0050939D01*
X0249657Y0049940D02*
X0252143Y0049940D01*
X0252143Y0048942D02*
X0249657Y0048942D01*
X0249657Y0047943D02*
X0252143Y0047943D01*
X0251447Y0046945D02*
X0250353Y0046945D01*
X0250631Y0045946D02*
X0251169Y0045946D01*
X0251169Y0044948D02*
X0250631Y0044948D01*
X0250631Y0043949D02*
X0251169Y0043949D01*
X0251169Y0042951D02*
X0250631Y0042951D01*
X0250631Y0041952D02*
X0251169Y0041952D01*
X0251169Y0040954D02*
X0250631Y0040954D01*
X0250053Y0039955D02*
X0251747Y0039955D01*
X0259206Y0033964D02*
X0212003Y0033964D01*
X0212016Y0033941D02*
X0211818Y0034283D01*
X0211539Y0034562D01*
X0211197Y0034760D01*
X0210816Y0034862D01*
X0209331Y0034862D01*
X0209331Y0031287D01*
X0212118Y0031287D01*
X0212118Y0033560D01*
X0212016Y0033941D01*
X0212118Y0032966D02*
X0259206Y0032966D01*
X0259206Y0031967D02*
X0251632Y0031967D01*
X0253823Y0030969D02*
X0259206Y0030969D01*
X0259206Y0029970D02*
X0255553Y0029970D01*
X0256598Y0028972D02*
X0259206Y0028972D01*
X0259206Y0027973D02*
X0257597Y0027973D01*
X0258450Y0026975D02*
X0259206Y0026975D01*
X0259206Y0025976D02*
X0259027Y0025976D01*
X0242620Y0031967D02*
X0212118Y0031967D01*
X0212118Y0030713D02*
X0209331Y0030713D01*
X0209331Y0031287D01*
X0208756Y0031287D01*
X0208756Y0030713D01*
X0205969Y0030713D01*
X0205969Y0028440D01*
X0206071Y0028059D01*
X0206268Y0027717D01*
X0206547Y0027437D01*
X0206890Y0027240D01*
X0207271Y0027138D01*
X0208756Y0027138D01*
X0208756Y0030713D01*
X0209331Y0030713D01*
X0209331Y0027138D01*
X0210816Y0027138D01*
X0211197Y0027240D01*
X0211539Y0027437D01*
X0211818Y0027717D01*
X0212016Y0028059D01*
X0212118Y0028440D01*
X0212118Y0030713D01*
X0212118Y0029970D02*
X0238699Y0029970D01*
X0237654Y0028972D02*
X0212118Y0028972D01*
X0211966Y0027973D02*
X0236655Y0027973D01*
X0235802Y0026975D02*
X0204273Y0026975D01*
X0204257Y0025976D02*
X0235225Y0025976D01*
X0234649Y0024978D02*
X0204257Y0024978D01*
X0204819Y0023979D02*
X0206464Y0023979D01*
X0206547Y0024062D02*
X0206268Y0023783D01*
X0206071Y0023441D01*
X0205969Y0023060D01*
X0205968Y0020787D01*
X0208756Y0020787D01*
X0208756Y0020213D01*
X0205969Y0020213D01*
X0205969Y0017940D01*
X0206071Y0017559D01*
X0206268Y0017217D01*
X0206547Y0016938D01*
X0206890Y0016740D01*
X0207271Y0016638D01*
X0208756Y0016638D01*
X0208756Y0020213D01*
X0209331Y0020213D01*
X0209331Y0020787D01*
X0212118Y0020787D01*
X0212118Y0023060D01*
X0212016Y0023441D01*
X0211818Y0023783D01*
X0211539Y0024062D01*
X0211197Y0024260D01*
X0210816Y0024362D01*
X0209331Y0024362D01*
X0209331Y0020787D01*
X0208756Y0020787D01*
X0208756Y0024362D01*
X0207271Y0024362D01*
X0206890Y0024260D01*
X0206547Y0024062D01*
X0205969Y0022981D02*
X0205231Y0022981D01*
X0205231Y0021982D02*
X0205969Y0021982D01*
X0205969Y0020984D02*
X0205231Y0020984D01*
X0205231Y0019985D02*
X0205969Y0019985D01*
X0205969Y0018987D02*
X0205231Y0018987D01*
X0205231Y0017988D02*
X0205969Y0017988D01*
X0206495Y0016990D02*
X0204787Y0016990D01*
X0208756Y0016990D02*
X0209331Y0016990D01*
X0209331Y0016638D02*
X0210816Y0016638D01*
X0211197Y0016740D01*
X0211539Y0016938D01*
X0211818Y0017217D01*
X0212016Y0017559D01*
X0212118Y0017940D01*
X0212118Y0020213D01*
X0209331Y0020213D01*
X0209331Y0016638D01*
X0209331Y0017988D02*
X0208756Y0017988D01*
X0208756Y0018987D02*
X0209331Y0018987D01*
X0209331Y0019985D02*
X0208756Y0019985D01*
X0208756Y0020984D02*
X0209331Y0020984D01*
X0209331Y0021982D02*
X0208756Y0021982D01*
X0208756Y0022981D02*
X0209331Y0022981D01*
X0209331Y0023979D02*
X0208756Y0023979D01*
X0211622Y0023979D02*
X0234124Y0023979D01*
X0233856Y0022981D02*
X0212118Y0022981D01*
X0212118Y0021982D02*
X0233589Y0021982D01*
X0233321Y0020984D02*
X0212118Y0020984D01*
X0212118Y0019985D02*
X0233221Y0019985D01*
X0233221Y0018987D02*
X0212118Y0018987D01*
X0212118Y0017988D02*
X0233221Y0017988D01*
X0233221Y0016990D02*
X0211591Y0016990D01*
X0199126Y0016990D02*
X0186379Y0016990D01*
X0186944Y0017555D02*
X0186944Y0017555D01*
X0187124Y0017988D02*
X0198682Y0017988D01*
X0198682Y0018987D02*
X0187537Y0018987D01*
X0187802Y0019985D02*
X0198682Y0019985D01*
X0198682Y0020984D02*
X0187802Y0020984D01*
X0187802Y0021982D02*
X0198682Y0021982D01*
X0198682Y0022981D02*
X0187802Y0022981D01*
X0187802Y0023979D02*
X0199095Y0023979D01*
X0199657Y0024978D02*
X0187802Y0024978D01*
X0187802Y0025976D02*
X0199657Y0025976D01*
X0199641Y0026975D02*
X0187802Y0026975D01*
X0187802Y0027973D02*
X0198682Y0027973D01*
X0198682Y0028972D02*
X0187802Y0028972D01*
X0187802Y0029970D02*
X0198682Y0029970D01*
X0198682Y0030969D02*
X0187802Y0030969D01*
X0187802Y0031967D02*
X0198682Y0031967D01*
X0198682Y0032966D02*
X0187802Y0032966D01*
X0187802Y0033964D02*
X0198682Y0033964D01*
X0199578Y0034963D02*
X0187802Y0034963D01*
X0187802Y0035961D02*
X0199657Y0035961D01*
X0199657Y0036960D02*
X0187802Y0036960D01*
X0187802Y0037958D02*
X0199157Y0037958D01*
X0198682Y0038957D02*
X0187802Y0038957D01*
X0187802Y0039955D02*
X0198682Y0039955D01*
X0198682Y0040954D02*
X0187802Y0040954D01*
X0187802Y0041952D02*
X0198682Y0041952D01*
X0198682Y0042951D02*
X0187802Y0042951D01*
X0187802Y0043949D02*
X0198682Y0043949D01*
X0199063Y0044948D02*
X0187802Y0044948D01*
X0187802Y0045946D02*
X0199581Y0045946D01*
X0199581Y0046945D02*
X0187802Y0046945D01*
X0187802Y0047943D02*
X0197849Y0047943D01*
X0197819Y0048942D02*
X0187802Y0048942D01*
X0187802Y0049940D02*
X0197819Y0049940D01*
X0197819Y0050939D02*
X0187802Y0050939D01*
X0187802Y0051937D02*
X0198095Y0051937D01*
X0198019Y0052936D02*
X0187802Y0052936D01*
X0187802Y0053934D02*
X0189964Y0053934D01*
X0188761Y0054933D02*
X0187802Y0054933D01*
X0187802Y0055932D02*
X0188241Y0055932D01*
X0188019Y0056930D02*
X0187802Y0056930D01*
X0187802Y0057929D02*
X0188019Y0057929D01*
X0187802Y0058927D02*
X0188431Y0058927D01*
X0187802Y0059926D02*
X0189220Y0059926D01*
X0187802Y0060924D02*
X0212550Y0060924D01*
X0212800Y0061923D02*
X0187802Y0061923D01*
X0187802Y0062921D02*
X0212800Y0062921D01*
X0212800Y0063920D02*
X0187802Y0063920D01*
X0187802Y0064918D02*
X0212800Y0064918D01*
X0212800Y0065917D02*
X0187802Y0065917D01*
X0187802Y0066915D02*
X0212800Y0066915D01*
X0212800Y0067914D02*
X0187802Y0067914D01*
X0194180Y0059926D02*
X0198718Y0059926D01*
X0198019Y0053934D02*
X0193436Y0053934D01*
X0205045Y0059926D02*
X0208955Y0059926D01*
X0206674Y0058927D02*
X0205944Y0058927D01*
X0209300Y0046945D02*
X0217302Y0046945D01*
X0212318Y0040954D02*
X0229182Y0040954D01*
X0229660Y0039955D02*
X0212318Y0039955D01*
X0212318Y0038957D02*
X0230157Y0038957D01*
X0230689Y0037958D02*
X0211843Y0037958D01*
X0208756Y0034862D02*
X0207271Y0034862D01*
X0206890Y0034760D01*
X0206547Y0034562D01*
X0206268Y0034283D01*
X0206071Y0033941D01*
X0205969Y0033560D01*
X0205968Y0031287D01*
X0208756Y0031287D01*
X0208756Y0034862D01*
X0208756Y0033964D02*
X0209331Y0033964D01*
X0209331Y0032966D02*
X0208756Y0032966D01*
X0208756Y0031967D02*
X0209331Y0031967D01*
X0209331Y0030969D02*
X0240429Y0030969D01*
X0233478Y0015991D02*
X0185380Y0015991D01*
X0178950Y0015991D02*
X0174144Y0015991D01*
X0174600Y0016990D02*
X0177952Y0016990D01*
X0177387Y0017555D02*
X0177387Y0017555D01*
X0177207Y0017988D02*
X0174600Y0017988D01*
X0174600Y0018987D02*
X0176794Y0018987D01*
X0176528Y0019985D02*
X0174600Y0019985D01*
X0174600Y0020984D02*
X0176528Y0020984D01*
X0176528Y0021982D02*
X0174600Y0021982D01*
X0174600Y0022981D02*
X0176528Y0022981D01*
X0176528Y0023979D02*
X0174600Y0023979D01*
X0174600Y0024978D02*
X0176528Y0024978D01*
X0176528Y0025976D02*
X0174600Y0025976D01*
X0174600Y0026975D02*
X0176528Y0026975D01*
X0176528Y0027973D02*
X0174600Y0027973D01*
X0174600Y0028972D02*
X0176528Y0028972D01*
X0176528Y0029970D02*
X0174600Y0029970D01*
X0174600Y0030969D02*
X0176528Y0030969D01*
X0176528Y0031967D02*
X0174600Y0031967D01*
X0174600Y0032966D02*
X0176528Y0032966D01*
X0176528Y0033964D02*
X0174600Y0033964D01*
X0174600Y0034963D02*
X0176528Y0034963D01*
X0176528Y0035961D02*
X0174600Y0035961D01*
X0174600Y0036960D02*
X0176528Y0036960D01*
X0176528Y0037958D02*
X0174600Y0037958D01*
X0174600Y0038957D02*
X0176528Y0038957D01*
X0176528Y0039955D02*
X0174600Y0039955D01*
X0174600Y0040954D02*
X0176528Y0040954D01*
X0176528Y0041952D02*
X0174600Y0041952D01*
X0174600Y0042951D02*
X0176528Y0042951D01*
X0176528Y0043949D02*
X0174600Y0043949D01*
X0174600Y0044948D02*
X0176528Y0044948D01*
X0176528Y0045946D02*
X0174600Y0045946D01*
X0170000Y0041952D02*
X0160818Y0041952D01*
X0160818Y0042913D02*
X0158031Y0042913D01*
X0158031Y0039338D01*
X0159516Y0039338D01*
X0159897Y0039440D01*
X0160239Y0039638D01*
X0160518Y0039917D01*
X0160716Y0040259D01*
X0160818Y0040640D01*
X0160818Y0042913D01*
X0160818Y0040954D02*
X0170000Y0040954D01*
X0170000Y0039955D02*
X0160541Y0039955D01*
X0158031Y0039955D02*
X0157456Y0039955D01*
X0157456Y0040954D02*
X0158031Y0040954D01*
X0158031Y0041952D02*
X0157456Y0041952D01*
X0157456Y0043949D02*
X0158031Y0043949D01*
X0158031Y0044948D02*
X0157456Y0044948D01*
X0157456Y0045946D02*
X0158031Y0045946D01*
X0158031Y0046945D02*
X0157456Y0046945D01*
X0154669Y0041952D02*
X0153931Y0041952D01*
X0153931Y0040954D02*
X0154669Y0040954D01*
X0154946Y0039955D02*
X0153753Y0039955D01*
X0152957Y0038957D02*
X0170000Y0038957D01*
X0170000Y0037958D02*
X0152957Y0037958D01*
X0152957Y0036960D02*
X0170000Y0036960D01*
X0170000Y0035961D02*
X0154196Y0035961D01*
X0154787Y0034963D02*
X0170000Y0034963D01*
X0170000Y0033964D02*
X0154787Y0033964D01*
X0154787Y0032966D02*
X0170000Y0032966D01*
X0170000Y0031967D02*
X0154760Y0031967D01*
X0153967Y0030969D02*
X0170000Y0030969D01*
X0170000Y0029970D02*
X0154579Y0029970D01*
X0154587Y0028972D02*
X0156987Y0028972D01*
X0154821Y0027973D02*
X0154587Y0027973D01*
X0154587Y0028761D02*
X0150725Y0028761D01*
X0154587Y0028761D01*
X0150725Y0028761D02*
X0150725Y0028761D01*
X0156333Y0022981D02*
X0157121Y0022981D01*
X0157459Y0021929D02*
X0157117Y0021732D01*
X0156838Y0021453D01*
X0156640Y0021110D01*
X0156538Y0020729D01*
X0156538Y0019244D01*
X0160113Y0019244D01*
X0160113Y0022031D01*
X0157840Y0022031D01*
X0157459Y0021929D01*
X0157656Y0021982D02*
X0155335Y0021982D01*
X0154409Y0020984D02*
X0156606Y0020984D01*
X0156538Y0019985D02*
X0154787Y0019985D01*
X0154787Y0018987D02*
X0160113Y0018987D01*
X0160113Y0019244D02*
X0160113Y0018669D01*
X0160687Y0018669D01*
X0160687Y0015882D01*
X0162960Y0015882D01*
X0163341Y0015984D01*
X0163683Y0016182D01*
X0163962Y0016461D01*
X0164160Y0016803D01*
X0164262Y0017184D01*
X0164262Y0018669D01*
X0160687Y0018669D01*
X0160687Y0019244D01*
X0160113Y0019244D01*
X0160687Y0019244D02*
X0160687Y0022031D01*
X0162960Y0022031D01*
X0163341Y0021929D01*
X0163683Y0021732D01*
X0163962Y0021453D01*
X0164160Y0021110D01*
X0164262Y0020729D01*
X0164262Y0019244D01*
X0160687Y0019244D01*
X0160687Y0018987D02*
X0170000Y0018987D01*
X0170000Y0019985D02*
X0164262Y0019985D01*
X0164194Y0020984D02*
X0170000Y0020984D01*
X0170000Y0021982D02*
X0163144Y0021982D01*
X0163679Y0022981D02*
X0170000Y0022981D01*
X0170000Y0023979D02*
X0164462Y0023979D01*
X0164462Y0024978D02*
X0170000Y0024978D01*
X0170000Y0025976D02*
X0164462Y0025976D01*
X0164462Y0026975D02*
X0170000Y0026975D01*
X0170000Y0027973D02*
X0164462Y0027973D01*
X0163813Y0028972D02*
X0170000Y0028972D01*
X0160687Y0021982D02*
X0160113Y0021982D01*
X0160113Y0020984D02*
X0160687Y0020984D01*
X0160687Y0019985D02*
X0160113Y0019985D01*
X0160113Y0018669D02*
X0156538Y0018669D01*
X0156538Y0017184D01*
X0156640Y0016803D01*
X0156838Y0016461D01*
X0157117Y0016182D01*
X0157459Y0015984D01*
X0157840Y0015882D01*
X0160113Y0015882D01*
X0160113Y0018669D01*
X0160113Y0017988D02*
X0160687Y0017988D01*
X0160687Y0016990D02*
X0160113Y0016990D01*
X0160113Y0015991D02*
X0160687Y0015991D01*
X0163353Y0015991D02*
X0167638Y0015991D01*
X0168637Y0016990D02*
X0164210Y0016990D01*
X0164262Y0017988D02*
X0169635Y0017988D01*
X0173145Y0014993D02*
X0233745Y0014993D01*
X0234013Y0013994D02*
X0172147Y0013994D01*
X0171148Y0012996D02*
X0234410Y0012996D01*
X0234986Y0011997D02*
X0170150Y0011997D01*
X0169151Y0010999D02*
X0235563Y0010999D01*
X0236241Y0010000D02*
X0128006Y0010000D01*
X0128897Y0010999D02*
X0142349Y0010999D01*
X0141350Y0011997D02*
X0129310Y0011997D01*
X0129381Y0012996D02*
X0140352Y0012996D01*
X0139353Y0013994D02*
X0129231Y0013994D01*
X0128813Y0014993D02*
X0139000Y0014993D01*
X0139000Y0015991D02*
X0127815Y0015991D01*
X0123585Y0015991D02*
X0115800Y0015991D01*
X0115645Y0014993D02*
X0122587Y0014993D01*
X0122169Y0013994D02*
X0114647Y0013994D01*
X0113648Y0012996D02*
X0122019Y0012996D01*
X0121544Y0011997D02*
X0095203Y0011997D01*
X0076250Y0022981D02*
X0070033Y0022981D01*
X0071032Y0023979D02*
X0076250Y0023979D01*
X0076250Y0024978D02*
X0073981Y0024978D01*
X0074982Y0025976D02*
X0076250Y0025976D01*
X0076250Y0026975D02*
X0075418Y0026975D01*
X0075581Y0027973D02*
X0076250Y0027973D01*
X0076250Y0028972D02*
X0075523Y0028972D01*
X0075110Y0029970D02*
X0076250Y0029970D01*
X0076250Y0030969D02*
X0074237Y0030969D01*
X0085750Y0030969D02*
X0098469Y0030969D01*
X0097355Y0031967D02*
X0085750Y0031967D01*
X0085750Y0032966D02*
X0097282Y0032966D01*
X0097282Y0033964D02*
X0085750Y0033964D01*
X0085750Y0034963D02*
X0100069Y0034963D01*
X0100069Y0035087D02*
X0097282Y0035087D01*
X0097282Y0037360D01*
X0097384Y0037741D01*
X0097582Y0038083D01*
X0097861Y0038362D01*
X0098203Y0038560D01*
X0098584Y0038662D01*
X0100069Y0038662D01*
X0100069Y0035087D01*
X0100069Y0035961D02*
X0100644Y0035961D01*
X0100644Y0036960D02*
X0100069Y0036960D01*
X0100069Y0037958D02*
X0100644Y0037958D01*
X0097509Y0037958D02*
X0085750Y0037958D01*
X0085750Y0036960D02*
X0097282Y0036960D01*
X0097282Y0035961D02*
X0085750Y0035961D01*
X0103431Y0033964D02*
X0104169Y0033964D01*
X0104169Y0032966D02*
X0103431Y0032966D01*
X0103358Y0031967D02*
X0104169Y0031967D01*
X0116906Y0045946D02*
X0147382Y0045946D01*
X0153024Y0055932D02*
X0170000Y0055932D01*
X0170000Y0056930D02*
X0153024Y0056930D01*
X0153024Y0057929D02*
X0170000Y0057929D01*
X0170000Y0058927D02*
X0153024Y0058927D01*
X0153024Y0059926D02*
X0170000Y0059926D01*
X0170000Y0060924D02*
X0153024Y0060924D01*
X0153024Y0061923D02*
X0170000Y0061923D01*
X0170000Y0062921D02*
X0153406Y0062921D01*
X0153918Y0063920D02*
X0170000Y0063920D01*
X0170000Y0064918D02*
X0153918Y0064918D01*
X0153918Y0065917D02*
X0170000Y0065917D01*
X0170000Y0066915D02*
X0153918Y0066915D01*
X0153918Y0067914D02*
X0170000Y0067914D01*
X0170000Y0068912D02*
X0153918Y0068912D01*
X0153574Y0069911D02*
X0170000Y0069911D01*
X0170000Y0070909D02*
X0152943Y0070909D01*
X0152943Y0071908D02*
X0170000Y0071908D01*
X0170000Y0072906D02*
X0152991Y0072906D01*
X0153918Y0073905D02*
X0170000Y0073905D01*
X0170000Y0074903D02*
X0153918Y0074903D01*
X0153918Y0075902D02*
X0170000Y0075902D01*
X0170000Y0076900D02*
X0153918Y0076900D01*
X0153918Y0077899D02*
X0170000Y0077899D01*
X0170000Y0078897D02*
X0153918Y0078897D01*
X0153918Y0079896D02*
X0170000Y0079896D01*
X0170000Y0080894D02*
X0152990Y0080894D01*
X0148296Y0080894D02*
X0145904Y0080894D01*
X0145900Y0081893D02*
X0170000Y0081893D01*
X0169356Y0082891D02*
X0146444Y0082891D01*
X0146831Y0079896D02*
X0147369Y0079896D01*
X0147369Y0078897D02*
X0146831Y0078897D01*
X0146831Y0077899D02*
X0147369Y0077899D01*
X0147369Y0076900D02*
X0146831Y0076900D01*
X0146831Y0075902D02*
X0147369Y0075902D01*
X0147369Y0074903D02*
X0146831Y0074903D01*
X0146831Y0073905D02*
X0147369Y0073905D01*
X0148296Y0072906D02*
X0145904Y0072906D01*
X0140282Y0079896D02*
X0132500Y0079896D01*
X0132500Y0080894D02*
X0141210Y0080894D01*
X0141300Y0081893D02*
X0132500Y0081893D01*
X0132500Y0082891D02*
X0141300Y0082891D01*
X0141300Y0083890D02*
X0132500Y0083890D01*
X0132500Y0084888D02*
X0141936Y0084888D01*
X0142934Y0085887D02*
X0132500Y0085887D01*
X0132500Y0086885D02*
X0143933Y0086885D01*
X0144931Y0087884D02*
X0132500Y0087884D01*
X0132245Y0088882D02*
X0192900Y0088882D01*
X0192900Y0087884D02*
X0170869Y0087884D01*
X0171867Y0086885D02*
X0192900Y0086885D01*
X0192900Y0085887D02*
X0172866Y0085887D01*
X0175032Y0090879D02*
X0192900Y0090879D01*
X0192900Y0089881D02*
X0125224Y0089881D01*
X0124100Y0088500D02*
X0124100Y0085974D01*
X0115732Y0085974D01*
X0114985Y0086721D01*
X0114328Y0086993D01*
X0115094Y0087759D01*
X0115475Y0088678D01*
X0115475Y0088700D01*
X0116074Y0088700D01*
X0116074Y0092650D01*
X0116174Y0092650D01*
X0116174Y0088700D01*
X0117270Y0088700D01*
X0117470Y0088500D01*
X0124100Y0088500D01*
X0124100Y0087884D02*
X0115146Y0087884D01*
X0114588Y0086885D02*
X0124100Y0086885D01*
X0116174Y0088882D02*
X0116074Y0088882D01*
X0116074Y0089881D02*
X0116174Y0089881D01*
X0116174Y0090879D02*
X0116074Y0090879D01*
X0116074Y0091878D02*
X0116174Y0091878D01*
X0116174Y0092876D02*
X0116074Y0092876D01*
X0116074Y0093875D02*
X0116174Y0093875D01*
X0116174Y0094873D02*
X0116074Y0094873D01*
X0116074Y0095872D02*
X0116174Y0095872D01*
X0115972Y0096870D02*
X0117440Y0096870D01*
X0116970Y0097869D02*
X0174500Y0097869D01*
X0174500Y0098868D02*
X0117969Y0098868D01*
X0118967Y0099866D02*
X0174500Y0099866D01*
X0174500Y0100865D02*
X0119966Y0100865D01*
X0120640Y0101863D02*
X0174500Y0101863D01*
X0174500Y0102862D02*
X0127844Y0102862D01*
X0127818Y0102817D02*
X0128016Y0103159D01*
X0128118Y0103540D01*
X0128118Y0105813D01*
X0125331Y0105813D01*
X0125331Y0106387D01*
X0128118Y0106387D01*
X0128118Y0108660D01*
X0128016Y0109041D01*
X0127818Y0109383D01*
X0127539Y0109662D01*
X0127197Y0109860D01*
X0126816Y0109962D01*
X0125331Y0109962D01*
X0125331Y0106387D01*
X0124756Y0106387D01*
X0124756Y0105813D01*
X0121969Y0105813D01*
X0121969Y0103540D01*
X0122071Y0103159D01*
X0122268Y0102817D01*
X0122547Y0102537D01*
X0122890Y0102340D01*
X0123271Y0102238D01*
X0124756Y0102238D01*
X0124756Y0105813D01*
X0125331Y0105813D01*
X0125331Y0102238D01*
X0126816Y0102238D01*
X0127197Y0102340D01*
X0127539Y0102537D01*
X0127818Y0102817D01*
X0128118Y0103860D02*
X0157734Y0103860D01*
X0156736Y0104859D02*
X0128118Y0104859D01*
X0128118Y0106856D02*
X0156119Y0106856D01*
X0156169Y0107854D02*
X0128118Y0107854D01*
X0128066Y0108853D02*
X0156583Y0108853D01*
X0156900Y0109851D02*
X0127212Y0109851D01*
X0125331Y0109851D02*
X0124756Y0109851D01*
X0124756Y0109962D02*
X0123271Y0109962D01*
X0122890Y0109860D01*
X0122547Y0109662D01*
X0122268Y0109383D01*
X0122071Y0109041D01*
X0121969Y0108660D01*
X0121968Y0106387D01*
X0124756Y0106387D01*
X0124756Y0109962D01*
X0124756Y0108853D02*
X0125331Y0108853D01*
X0125331Y0107854D02*
X0124756Y0107854D01*
X0124756Y0106856D02*
X0125331Y0106856D01*
X0125331Y0105857D02*
X0156289Y0105857D01*
X0156900Y0110850D02*
X0120857Y0110850D01*
X0120857Y0111848D02*
X0131024Y0111848D01*
X0129752Y0112847D02*
X0120857Y0112847D01*
X0120857Y0113845D02*
X0128754Y0113845D01*
X0127755Y0114844D02*
X0120857Y0114844D01*
X0120857Y0115842D02*
X0126757Y0115842D01*
X0125758Y0116841D02*
X0120857Y0116841D01*
X0120857Y0117839D02*
X0124760Y0117839D01*
X0123761Y0118838D02*
X0120857Y0118838D01*
X0120857Y0119836D02*
X0122763Y0119836D01*
X0122219Y0120835D02*
X0120857Y0120835D01*
X0120857Y0121833D02*
X0122100Y0121833D01*
X0122100Y0122832D02*
X0120857Y0122832D01*
X0120857Y0123830D02*
X0122100Y0123830D01*
X0122100Y0124829D02*
X0120857Y0124829D01*
X0120857Y0125827D02*
X0122100Y0125827D01*
X0122100Y0126826D02*
X0120857Y0126826D01*
X0120857Y0127824D02*
X0122100Y0127824D01*
X0122100Y0128823D02*
X0120857Y0128823D01*
X0120857Y0129821D02*
X0122100Y0129821D01*
X0122100Y0130820D02*
X0120857Y0130820D01*
X0120857Y0131818D02*
X0122100Y0131818D01*
X0122100Y0132817D02*
X0120857Y0132817D01*
X0120857Y0133815D02*
X0122100Y0133815D01*
X0122100Y0134814D02*
X0120857Y0134814D01*
X0120857Y0135812D02*
X0122100Y0135812D01*
X0122100Y0136811D02*
X0120857Y0136811D01*
X0120857Y0137809D02*
X0122100Y0137809D01*
X0122100Y0138808D02*
X0120857Y0138808D01*
X0120857Y0139806D02*
X0122100Y0139806D01*
X0122100Y0140805D02*
X0120857Y0140805D01*
X0120857Y0141803D02*
X0122100Y0141803D01*
X0122100Y0142802D02*
X0120857Y0142802D01*
X0120857Y0143801D02*
X0122051Y0143801D01*
X0121052Y0144799D02*
X0120857Y0144799D01*
X0115057Y0144799D02*
X0052400Y0144799D01*
X0052400Y0143801D02*
X0115057Y0143801D01*
X0115057Y0142802D02*
X0052400Y0142802D01*
X0052400Y0141803D02*
X0115057Y0141803D01*
X0115057Y0140805D02*
X0052400Y0140805D01*
X0052400Y0139806D02*
X0115057Y0139806D01*
X0115057Y0138808D02*
X0053329Y0138808D01*
X0054327Y0137809D02*
X0115057Y0137809D01*
X0115057Y0136811D02*
X0054900Y0136811D01*
X0054900Y0135812D02*
X0115057Y0135812D01*
X0115057Y0134814D02*
X0054900Y0134814D01*
X0054900Y0133815D02*
X0115057Y0133815D01*
X0115057Y0132817D02*
X0054900Y0132817D01*
X0053955Y0131818D02*
X0115057Y0131818D01*
X0115057Y0130820D02*
X0052957Y0130820D01*
X0052315Y0129821D02*
X0115057Y0129821D01*
X0115057Y0128823D02*
X0053314Y0128823D01*
X0054312Y0127824D02*
X0067118Y0127824D01*
X0071682Y0127824D02*
X0115057Y0127824D01*
X0115057Y0126826D02*
X0072587Y0126826D01*
X0073000Y0125827D02*
X0115057Y0125827D01*
X0115057Y0124829D02*
X0073081Y0124829D01*
X0072941Y0123830D02*
X0115057Y0123830D01*
X0115057Y0122832D02*
X0091574Y0122832D01*
X0092484Y0121833D02*
X0115057Y0121833D01*
X0115057Y0120835D02*
X0092897Y0120835D01*
X0092981Y0119836D02*
X0115057Y0119836D01*
X0115057Y0118838D02*
X0092844Y0118838D01*
X0092431Y0117839D02*
X0115057Y0117839D01*
X0115057Y0116841D02*
X0091600Y0116841D01*
X0091600Y0115842D02*
X0115057Y0115842D01*
X0115057Y0114844D02*
X0091600Y0114844D01*
X0091600Y0113845D02*
X0115057Y0113845D01*
X0115057Y0112847D02*
X0091600Y0112847D01*
X0091600Y0111848D02*
X0115057Y0111848D01*
X0115057Y0110850D02*
X0091600Y0110850D01*
X0091600Y0109851D02*
X0115057Y0109851D01*
X0114682Y0108853D02*
X0108883Y0108853D01*
X0109950Y0107854D02*
X0114682Y0107854D01*
X0114682Y0106856D02*
X0110700Y0106856D01*
X0110700Y0105857D02*
X0114682Y0105857D01*
X0114682Y0104859D02*
X0110700Y0104859D01*
X0110700Y0103860D02*
X0114682Y0103860D01*
X0113760Y0102862D02*
X0110700Y0102862D01*
X0110700Y0101863D02*
X0112762Y0101863D01*
X0111763Y0100865D02*
X0110700Y0100865D01*
X0110765Y0099866D02*
X0110470Y0099866D01*
X0110220Y0098868D02*
X0109324Y0098868D01*
X0110100Y0097869D02*
X0108546Y0097869D01*
X0108509Y0096870D02*
X0110100Y0096870D01*
X0109875Y0095872D02*
X0109775Y0095872D01*
X0109775Y0094873D02*
X0109875Y0094873D01*
X0109875Y0093875D02*
X0109775Y0093875D01*
X0109775Y0092876D02*
X0109875Y0092876D01*
X0107024Y0099600D02*
X0107024Y0103600D01*
X0107024Y0107600D01*
X0105166Y0108853D02*
X0099434Y0108853D01*
X0097576Y0107600D02*
X0097576Y0103600D01*
X0097576Y0099600D01*
X0096054Y0097869D02*
X0054268Y0097869D01*
X0054900Y0096870D02*
X0097052Y0096870D01*
X0097576Y0095872D02*
X0054900Y0095872D01*
X0054900Y0094873D02*
X0097576Y0094873D01*
X0097576Y0093875D02*
X0054900Y0093875D01*
X0054900Y0092876D02*
X0097576Y0092876D01*
X0097576Y0091878D02*
X0059440Y0091878D01*
X0057960Y0091878D02*
X0054015Y0091878D01*
X0053016Y0090879D02*
X0056174Y0090879D01*
X0055412Y0089881D02*
X0052018Y0089881D01*
X0051900Y0088882D02*
X0055019Y0088882D01*
X0055019Y0087884D02*
X0051900Y0087884D01*
X0051900Y0086885D02*
X0055260Y0086885D01*
X0055807Y0085887D02*
X0052998Y0085887D01*
X0053662Y0084888D02*
X0056400Y0084888D01*
X0056400Y0083890D02*
X0053662Y0083890D01*
X0053662Y0082891D02*
X0056400Y0082891D01*
X0056400Y0081893D02*
X0053662Y0081893D01*
X0053662Y0080894D02*
X0056400Y0080894D01*
X0056400Y0079896D02*
X0052894Y0079896D01*
X0052901Y0078897D02*
X0056400Y0078897D01*
X0056400Y0077899D02*
X0053662Y0077899D01*
X0053662Y0076900D02*
X0056400Y0076900D01*
X0056400Y0075902D02*
X0053662Y0075902D01*
X0053662Y0074903D02*
X0056400Y0074903D01*
X0056400Y0073905D02*
X0053662Y0073905D01*
X0052991Y0072906D02*
X0056400Y0072906D01*
X0057140Y0071908D02*
X0051900Y0071908D01*
X0051900Y0070909D02*
X0058138Y0070909D01*
X0059137Y0069911D02*
X0051900Y0069911D01*
X0052894Y0068912D02*
X0060135Y0068912D01*
X0062191Y0064918D02*
X0053429Y0064918D01*
X0053781Y0065917D02*
X0069595Y0065917D01*
X0069519Y0064918D02*
X0065409Y0064918D01*
X0066686Y0063920D02*
X0069663Y0063920D01*
X0070077Y0062921D02*
X0067237Y0062921D01*
X0067481Y0061923D02*
X0071072Y0061923D01*
X0075328Y0061923D02*
X0091470Y0061923D01*
X0090351Y0062921D02*
X0076323Y0062921D01*
X0076737Y0063920D02*
X0090300Y0063920D01*
X0090300Y0064918D02*
X0076881Y0064918D01*
X0070908Y0067914D02*
X0053499Y0067914D01*
X0053781Y0066915D02*
X0070009Y0066915D01*
X0073843Y0073905D02*
X0061648Y0073905D01*
X0061000Y0074903D02*
X0072844Y0074903D01*
X0072000Y0075902D02*
X0061000Y0075902D01*
X0061000Y0076900D02*
X0072000Y0076900D01*
X0072000Y0077899D02*
X0061000Y0077899D01*
X0061000Y0078897D02*
X0072000Y0078897D01*
X0072000Y0079896D02*
X0061000Y0079896D01*
X0061000Y0080894D02*
X0072000Y0080894D01*
X0071106Y0081893D02*
X0061000Y0081893D01*
X0061000Y0082891D02*
X0070692Y0082891D01*
X0070619Y0083890D02*
X0061000Y0083890D01*
X0061000Y0084888D02*
X0070766Y0084888D01*
X0071181Y0085887D02*
X0061593Y0085887D01*
X0062140Y0086885D02*
X0072180Y0086885D01*
X0076420Y0086885D02*
X0090300Y0086885D01*
X0090300Y0085887D02*
X0077419Y0085887D01*
X0077834Y0084888D02*
X0090300Y0084888D01*
X0090300Y0083890D02*
X0077981Y0083890D01*
X0077908Y0082891D02*
X0090300Y0082891D01*
X0090300Y0081893D02*
X0077494Y0081893D01*
X0076600Y0080894D02*
X0090300Y0080894D01*
X0090300Y0079896D02*
X0076600Y0079896D01*
X0076600Y0078897D02*
X0090300Y0078897D01*
X0090300Y0077899D02*
X0076600Y0077899D01*
X0077352Y0076900D02*
X0090300Y0076900D01*
X0090300Y0087884D02*
X0062381Y0087884D01*
X0062381Y0088882D02*
X0090555Y0088882D01*
X0097576Y0089881D02*
X0061988Y0089881D01*
X0061226Y0090879D02*
X0097576Y0090879D01*
X0095276Y0098868D02*
X0053269Y0098868D01*
X0052271Y0099866D02*
X0094130Y0099866D01*
X0093900Y0100865D02*
X0053001Y0100865D01*
X0054000Y0101863D02*
X0093900Y0101863D01*
X0093900Y0102862D02*
X0087714Y0102862D01*
X0088713Y0103860D02*
X0093900Y0103860D01*
X0093900Y0104859D02*
X0089711Y0104859D01*
X0090710Y0105857D02*
X0093900Y0105857D01*
X0093900Y0106856D02*
X0091600Y0106856D01*
X0091600Y0107854D02*
X0094650Y0107854D01*
X0095717Y0108853D02*
X0091600Y0108853D01*
X0087000Y0108853D02*
X0083509Y0108853D01*
X0083681Y0109851D02*
X0087000Y0109851D01*
X0087000Y0110850D02*
X0083632Y0110850D01*
X0083219Y0111848D02*
X0087000Y0111848D01*
X0087000Y0112847D02*
X0082359Y0112847D01*
X0087000Y0113845D02*
X0054700Y0113845D01*
X0054700Y0112847D02*
X0077641Y0112847D01*
X0083060Y0107854D02*
X0086201Y0107854D01*
X0087000Y0114844D02*
X0050000Y0114844D01*
X0054700Y0115842D02*
X0087000Y0115842D01*
X0087000Y0116841D02*
X0054700Y0116841D01*
X0054015Y0117839D02*
X0086169Y0117839D01*
X0085756Y0118838D02*
X0053016Y0118838D01*
X0052018Y0119836D02*
X0085619Y0119836D01*
X0085703Y0120835D02*
X0052971Y0120835D01*
X0053970Y0121833D02*
X0067261Y0121833D01*
X0071539Y0121833D02*
X0086116Y0121833D01*
X0087026Y0122832D02*
X0072528Y0122832D01*
X0052400Y0145798D02*
X0115057Y0145798D01*
X0115057Y0146796D02*
X0052400Y0146796D01*
X0052400Y0147795D02*
X0115057Y0147795D01*
X0115057Y0148793D02*
X0052400Y0148793D01*
X0052400Y0149792D02*
X0115057Y0149792D01*
X0115057Y0150790D02*
X0052400Y0150790D01*
X0052400Y0151789D02*
X0115053Y0151789D01*
X0115053Y0152787D02*
X0052400Y0152787D01*
X0052400Y0153786D02*
X0115053Y0153786D01*
X0115053Y0154784D02*
X0052400Y0154784D01*
X0052400Y0155783D02*
X0115053Y0155783D01*
X0115053Y0156781D02*
X0052400Y0156781D01*
X0052400Y0157780D02*
X0115053Y0157780D01*
X0115053Y0158778D02*
X0052400Y0158778D01*
X0052400Y0159777D02*
X0115053Y0159777D01*
X0115053Y0160775D02*
X0052400Y0160775D01*
X0052400Y0161774D02*
X0115053Y0161774D01*
X0115053Y0162772D02*
X0052400Y0162772D01*
X0052400Y0163771D02*
X0115053Y0163771D01*
X0115053Y0164769D02*
X0052400Y0164769D01*
X0052400Y0165768D02*
X0115053Y0165768D01*
X0115053Y0166766D02*
X0052400Y0166766D01*
X0052400Y0167765D02*
X0115053Y0167765D01*
X0115053Y0168763D02*
X0052400Y0168763D01*
X0052400Y0169762D02*
X0115053Y0169762D01*
X0115053Y0170760D02*
X0052400Y0170760D01*
X0052400Y0171759D02*
X0115053Y0171759D01*
X0115053Y0172757D02*
X0052400Y0172757D01*
X0052400Y0173756D02*
X0115053Y0173756D01*
X0115053Y0174754D02*
X0052400Y0174754D01*
X0052400Y0175753D02*
X0115053Y0175753D01*
X0115053Y0176751D02*
X0052400Y0176751D01*
X0052400Y0177750D02*
X0115053Y0177750D01*
X0115053Y0178748D02*
X0052400Y0178748D01*
X0052400Y0179747D02*
X0115053Y0179747D01*
X0115053Y0180745D02*
X0052400Y0180745D01*
X0052400Y0181744D02*
X0115053Y0181744D01*
X0115053Y0182742D02*
X0052400Y0182742D01*
X0052400Y0183741D02*
X0115053Y0183741D01*
X0115053Y0184739D02*
X0052400Y0184739D01*
X0052400Y0185738D02*
X0115053Y0185738D01*
X0115053Y0186737D02*
X0052400Y0186737D01*
X0052400Y0187735D02*
X0115053Y0187735D01*
X0115053Y0188734D02*
X0052004Y0188734D01*
X0051069Y0189732D02*
X0115053Y0189732D01*
X0115053Y0190731D02*
X0050071Y0190731D01*
X0045862Y0186737D02*
X0015562Y0186737D01*
X0015562Y0186264D02*
X0015562Y0190210D01*
X0015853Y0190500D01*
X0015994Y0190500D01*
X0016815Y0189679D01*
X0018168Y0189119D01*
X0019632Y0189119D01*
X0020985Y0189679D01*
X0022021Y0190715D01*
X0022581Y0192068D01*
X0022581Y0193532D01*
X0022021Y0194885D01*
X0020985Y0195921D01*
X0019632Y0196481D01*
X0018168Y0196481D01*
X0016815Y0195921D01*
X0015994Y0195100D01*
X0013947Y0195100D01*
X0012600Y0193753D01*
X0010665Y0191818D01*
X0008434Y0191818D01*
X0007438Y0190822D01*
X0007438Y0186264D01*
X0008434Y0185269D01*
X0014566Y0185269D01*
X0015562Y0186264D01*
X0015036Y0185738D02*
X0046600Y0185738D01*
X0046600Y0184739D02*
X0006700Y0184739D01*
X0006700Y0183741D02*
X0007443Y0183741D01*
X0007438Y0183736D02*
X0007438Y0179178D01*
X0008434Y0178182D01*
X0009200Y0178182D01*
X0009200Y0173696D01*
X0008434Y0173696D01*
X0007438Y0172700D01*
X0007438Y0166567D01*
X0008434Y0165572D01*
X0014566Y0165572D01*
X0015562Y0166567D01*
X0015562Y0172700D01*
X0014566Y0173696D01*
X0013800Y0173696D01*
X0013800Y0178182D01*
X0014566Y0178182D01*
X0015562Y0179178D01*
X0015562Y0183736D01*
X0014566Y0184731D01*
X0008434Y0184731D01*
X0007438Y0183736D01*
X0007438Y0182742D02*
X0006700Y0182742D01*
X0006700Y0181744D02*
X0007438Y0181744D01*
X0007438Y0180745D02*
X0006700Y0180745D01*
X0006700Y0179747D02*
X0007438Y0179747D01*
X0007867Y0178748D02*
X0006700Y0178748D01*
X0006700Y0177750D02*
X0009200Y0177750D01*
X0009200Y0176751D02*
X0006700Y0176751D01*
X0006700Y0175753D02*
X0009200Y0175753D01*
X0009200Y0174754D02*
X0006700Y0174754D01*
X0006700Y0173756D02*
X0009200Y0173756D01*
X0007495Y0172757D02*
X0006700Y0172757D01*
X0006700Y0171759D02*
X0007438Y0171759D01*
X0007438Y0170760D02*
X0006700Y0170760D01*
X0006700Y0169762D02*
X0007438Y0169762D01*
X0007438Y0168763D02*
X0006700Y0168763D01*
X0006700Y0167765D02*
X0007438Y0167765D01*
X0007438Y0166766D02*
X0006700Y0166766D01*
X0006700Y0165768D02*
X0008238Y0165768D01*
X0008559Y0165126D02*
X0008217Y0164929D01*
X0007937Y0164649D01*
X0007740Y0164307D01*
X0007638Y0163926D01*
X0007638Y0161866D01*
X0011000Y0161866D01*
X0011000Y0160866D01*
X0012000Y0160866D01*
X0012000Y0157504D01*
X0014060Y0157504D01*
X0014441Y0157606D01*
X0014783Y0157804D01*
X0015062Y0158083D01*
X0015260Y0158425D01*
X0015362Y0158806D01*
X0015362Y0160866D01*
X0012000Y0160866D01*
X0012000Y0161866D01*
X0015362Y0161866D01*
X0015362Y0163926D01*
X0015260Y0164307D01*
X0015062Y0164649D01*
X0014783Y0164929D01*
X0014441Y0165126D01*
X0014060Y0165228D01*
X0012000Y0165228D01*
X0012000Y0161866D01*
X0011000Y0161866D01*
X0011000Y0165228D01*
X0008940Y0165228D01*
X0008559Y0165126D01*
X0008057Y0164769D02*
X0006700Y0164769D01*
X0006700Y0163771D02*
X0007638Y0163771D01*
X0007638Y0162772D02*
X0006700Y0162772D01*
X0006700Y0161774D02*
X0011000Y0161774D01*
X0011000Y0160866D02*
X0007638Y0160866D01*
X0007638Y0158806D01*
X0007740Y0158425D01*
X0007937Y0158083D01*
X0008217Y0157804D01*
X0008559Y0157606D01*
X0008940Y0157504D01*
X0011000Y0157504D01*
X0011000Y0160866D01*
X0011000Y0160775D02*
X0012000Y0160775D01*
X0012000Y0159777D02*
X0011000Y0159777D01*
X0011000Y0158778D02*
X0012000Y0158778D01*
X0012000Y0157780D02*
X0011000Y0157780D01*
X0008258Y0157780D02*
X0006700Y0157780D01*
X0006700Y0158778D02*
X0007645Y0158778D01*
X0007638Y0159777D02*
X0006700Y0159777D01*
X0006700Y0160775D02*
X0007638Y0160775D01*
X0011000Y0162772D02*
X0012000Y0162772D01*
X0012000Y0161774D02*
X0046600Y0161774D01*
X0046600Y0162772D02*
X0015362Y0162772D01*
X0015362Y0163771D02*
X0046600Y0163771D01*
X0046600Y0164769D02*
X0014943Y0164769D01*
X0014762Y0165768D02*
X0046600Y0165768D01*
X0046600Y0166766D02*
X0015562Y0166766D01*
X0015562Y0167765D02*
X0046600Y0167765D01*
X0046600Y0168763D02*
X0015562Y0168763D01*
X0015562Y0169762D02*
X0046600Y0169762D01*
X0046600Y0170760D02*
X0015562Y0170760D01*
X0015562Y0171759D02*
X0046600Y0171759D01*
X0046600Y0172757D02*
X0015505Y0172757D01*
X0013800Y0173756D02*
X0046600Y0173756D01*
X0046600Y0174754D02*
X0013800Y0174754D01*
X0013800Y0175753D02*
X0046600Y0175753D01*
X0046600Y0176751D02*
X0013800Y0176751D01*
X0013800Y0177750D02*
X0046600Y0177750D01*
X0046600Y0178748D02*
X0015133Y0178748D01*
X0015562Y0179747D02*
X0046600Y0179747D01*
X0046600Y0180745D02*
X0015562Y0180745D01*
X0015562Y0181744D02*
X0046600Y0181744D01*
X0046600Y0182742D02*
X0015562Y0182742D01*
X0015557Y0183741D02*
X0046600Y0183741D01*
X0044864Y0187735D02*
X0015562Y0187735D01*
X0015562Y0188734D02*
X0043865Y0188734D01*
X0042867Y0189732D02*
X0021038Y0189732D01*
X0022027Y0190731D02*
X0041868Y0190731D01*
X0040870Y0191729D02*
X0022441Y0191729D01*
X0022581Y0192728D02*
X0039871Y0192728D01*
X0039741Y0192857D02*
X0039741Y0192857D01*
X0038873Y0193726D02*
X0022501Y0193726D01*
X0022087Y0194725D02*
X0037874Y0194725D01*
X0036876Y0195723D02*
X0021183Y0195723D01*
X0024083Y0198719D02*
X0035053Y0198719D01*
X0035053Y0199717D02*
X0025846Y0199717D01*
X0027467Y0200716D02*
X0035053Y0200716D01*
X0035053Y0201714D02*
X0028465Y0201714D01*
X0029464Y0202713D02*
X0034862Y0202713D01*
X0033863Y0203711D02*
X0030227Y0203711D01*
X0030804Y0204710D02*
X0033362Y0204710D01*
X0032953Y0205708D02*
X0031380Y0205708D01*
X0031839Y0206707D02*
X0032953Y0206707D01*
X0032960Y0207705D02*
X0032106Y0207705D01*
X0032374Y0208704D02*
X0033374Y0208704D01*
X0033891Y0209702D02*
X0032641Y0209702D01*
X0032684Y0210701D02*
X0034890Y0210701D01*
X0034877Y0212698D02*
X0032684Y0212698D01*
X0032684Y0211699D02*
X0036943Y0211699D01*
X0038963Y0211699D02*
X0046943Y0211699D01*
X0048963Y0211699D02*
X0066943Y0211699D01*
X0068963Y0211699D02*
X0076943Y0211699D01*
X0076829Y0211375D02*
X0076110Y0211141D01*
X0075437Y0210798D01*
X0074826Y0210354D01*
X0074292Y0209820D01*
X0073847Y0209209D01*
X0073504Y0208535D01*
X0073271Y0207817D01*
X0073154Y0207079D01*
X0077567Y0207079D01*
X0077567Y0211492D01*
X0076829Y0211375D01*
X0077567Y0210701D02*
X0078339Y0210701D01*
X0078339Y0211492D02*
X0079077Y0211375D01*
X0079795Y0211141D01*
X0080468Y0210798D01*
X0081080Y0210354D01*
X0081614Y0209820D01*
X0082058Y0209209D01*
X0082401Y0208535D01*
X0082635Y0207817D01*
X0082751Y0207079D01*
X0078339Y0207079D01*
X0078339Y0206307D01*
X0082751Y0206307D01*
X0082635Y0205569D01*
X0082401Y0204850D01*
X0082058Y0204177D01*
X0081614Y0203566D01*
X0081080Y0203032D01*
X0080468Y0202588D01*
X0079795Y0202245D01*
X0079077Y0202011D01*
X0078339Y0201894D01*
X0078339Y0206307D01*
X0077567Y0206307D01*
X0077567Y0201894D01*
X0076829Y0202011D01*
X0076110Y0202245D01*
X0075437Y0202588D01*
X0074826Y0203032D01*
X0074292Y0203566D01*
X0073847Y0204177D01*
X0073504Y0204850D01*
X0073271Y0205569D01*
X0073154Y0206307D01*
X0077567Y0206307D01*
X0077567Y0207079D01*
X0078339Y0207079D01*
X0078339Y0211492D01*
X0078963Y0211699D02*
X0086943Y0211699D01*
X0086958Y0211693D02*
X0085120Y0210932D01*
X0083714Y0209525D01*
X0082953Y0207687D01*
X0082953Y0205698D01*
X0083714Y0203861D01*
X0085120Y0202454D01*
X0086958Y0201693D01*
X0088947Y0201693D01*
X0090785Y0202454D01*
X0092192Y0203861D01*
X0092953Y0205698D01*
X0093714Y0203861D01*
X0095120Y0202454D01*
X0096958Y0201693D01*
X0098947Y0201693D01*
X0100785Y0202454D01*
X0102192Y0203861D01*
X0102953Y0205698D01*
X0103714Y0203861D01*
X0105120Y0202454D01*
X0106958Y0201693D01*
X0108947Y0201693D01*
X0110785Y0202454D01*
X0112192Y0203861D01*
X0112953Y0205698D01*
X0112953Y0207687D01*
X0112192Y0209525D01*
X0110785Y0210932D01*
X0108947Y0211693D01*
X0106958Y0211693D01*
X0105120Y0210932D01*
X0103714Y0209525D01*
X0102953Y0207687D01*
X0102953Y0205698D01*
X0102953Y0207687D01*
X0102192Y0209525D01*
X0100785Y0210932D01*
X0098947Y0211693D01*
X0096958Y0211693D01*
X0095120Y0210932D01*
X0093714Y0209525D01*
X0092953Y0207687D01*
X0092953Y0205698D01*
X0092953Y0207687D01*
X0092192Y0209525D01*
X0090785Y0210932D01*
X0088947Y0211693D01*
X0086958Y0211693D01*
X0088963Y0211699D02*
X0106943Y0211699D01*
X0108963Y0211699D02*
X0116943Y0211699D01*
X0118963Y0211699D02*
X0136943Y0211699D01*
X0138963Y0211699D02*
X0146943Y0211699D01*
X0148963Y0211699D02*
X0156943Y0211699D01*
X0156829Y0211375D02*
X0156110Y0211141D01*
X0155437Y0210798D01*
X0154826Y0210354D01*
X0154292Y0209820D01*
X0153847Y0209209D01*
X0153504Y0208535D01*
X0153271Y0207817D01*
X0153154Y0207079D01*
X0157567Y0207079D01*
X0157567Y0211492D01*
X0156829Y0211375D01*
X0157567Y0210701D02*
X0158339Y0210701D01*
X0158339Y0211492D02*
X0159077Y0211375D01*
X0159795Y0211141D01*
X0160468Y0210798D01*
X0161080Y0210354D01*
X0161614Y0209820D01*
X0162058Y0209209D01*
X0162401Y0208535D01*
X0162635Y0207817D01*
X0162751Y0207079D01*
X0158339Y0207079D01*
X0158339Y0206307D01*
X0162751Y0206307D01*
X0162635Y0205569D01*
X0162401Y0204850D01*
X0162058Y0204177D01*
X0161614Y0203566D01*
X0161080Y0203032D01*
X0160468Y0202588D01*
X0159795Y0202245D01*
X0159077Y0202011D01*
X0158339Y0201894D01*
X0158339Y0206307D01*
X0157567Y0206307D01*
X0157567Y0201894D01*
X0156829Y0202011D01*
X0156110Y0202245D01*
X0155437Y0202588D01*
X0154826Y0203032D01*
X0154292Y0203566D01*
X0153847Y0204177D01*
X0153504Y0204850D01*
X0153271Y0205569D01*
X0153154Y0206307D01*
X0157567Y0206307D01*
X0157567Y0207079D01*
X0158339Y0207079D01*
X0158339Y0211492D01*
X0158963Y0211699D02*
X0166943Y0211699D01*
X0166958Y0211693D02*
X0165120Y0210932D01*
X0163714Y0209525D01*
X0162953Y0207687D01*
X0162953Y0205698D01*
X0163714Y0203861D01*
X0165120Y0202454D01*
X0166958Y0201693D01*
X0168947Y0201693D01*
X0170785Y0202454D01*
X0172192Y0203861D01*
X0172953Y0205698D01*
X0173714Y0203861D01*
X0175120Y0202454D01*
X0176958Y0201693D01*
X0178947Y0201693D01*
X0180785Y0202454D01*
X0182192Y0203861D01*
X0182953Y0205698D01*
X0183714Y0203861D01*
X0185120Y0202454D01*
X0186958Y0201693D01*
X0188947Y0201693D01*
X0190785Y0202454D01*
X0192192Y0203861D01*
X0192953Y0205698D01*
X0193714Y0203861D01*
X0195120Y0202454D01*
X0196958Y0201693D01*
X0198947Y0201693D01*
X0200785Y0202454D01*
X0202192Y0203861D01*
X0202953Y0205698D01*
X0203714Y0203861D01*
X0205120Y0202454D01*
X0206958Y0201693D01*
X0208947Y0201693D01*
X0210785Y0202454D01*
X0212192Y0203861D01*
X0212953Y0205698D01*
X0212953Y0207687D01*
X0212192Y0209525D01*
X0210785Y0210932D01*
X0208947Y0211693D01*
X0206958Y0211693D01*
X0205120Y0210932D01*
X0203714Y0209525D01*
X0202953Y0207687D01*
X0202953Y0205698D01*
X0202953Y0207687D01*
X0202192Y0209525D01*
X0200785Y0210932D01*
X0198947Y0211693D01*
X0196958Y0211693D01*
X0195120Y0210932D01*
X0193714Y0209525D01*
X0192953Y0207687D01*
X0192953Y0205698D01*
X0192953Y0207687D01*
X0192192Y0209525D01*
X0190785Y0210932D01*
X0188947Y0211693D01*
X0186958Y0211693D01*
X0185120Y0210932D01*
X0183714Y0209525D01*
X0182953Y0207687D01*
X0182953Y0205698D01*
X0182953Y0207687D01*
X0182192Y0209525D01*
X0180785Y0210932D01*
X0178947Y0211693D01*
X0176958Y0211693D01*
X0175120Y0210932D01*
X0173714Y0209525D01*
X0172953Y0207687D01*
X0172953Y0205698D01*
X0172953Y0207687D01*
X0172192Y0209525D01*
X0170785Y0210932D01*
X0168947Y0211693D01*
X0166958Y0211693D01*
X0168963Y0211699D02*
X0186943Y0211699D01*
X0188963Y0211699D02*
X0206943Y0211699D01*
X0208963Y0211699D02*
X0216943Y0211699D01*
X0218963Y0211699D02*
X0220500Y0211699D01*
X0225500Y0211699D02*
X0226943Y0211699D01*
X0227567Y0210701D02*
X0228339Y0210701D01*
X0228339Y0209702D02*
X0227567Y0209702D01*
X0227567Y0208704D02*
X0228339Y0208704D01*
X0228339Y0207705D02*
X0227567Y0207705D01*
X0228339Y0206707D02*
X0234067Y0206707D01*
X0233799Y0207705D02*
X0232652Y0207705D01*
X0232315Y0208704D02*
X0233532Y0208704D01*
X0233264Y0209702D02*
X0231699Y0209702D01*
X0230603Y0210701D02*
X0233221Y0210701D01*
X0233221Y0211699D02*
X0228963Y0211699D01*
X0231029Y0212698D02*
X0233221Y0212698D01*
X0233268Y0213696D02*
X0232027Y0213696D01*
X0232537Y0214695D02*
X0233535Y0214695D01*
X0233803Y0215693D02*
X0232951Y0215693D01*
X0232953Y0216692D02*
X0234070Y0216692D01*
X0234533Y0217690D02*
X0232952Y0217690D01*
X0232538Y0218689D02*
X0235109Y0218689D01*
X0235686Y0219687D02*
X0232029Y0219687D01*
X0231031Y0220686D02*
X0236455Y0220686D01*
X0237453Y0221684D02*
X0228968Y0221684D01*
X0226938Y0221684D02*
X0225500Y0221684D01*
X0225216Y0222683D02*
X0238452Y0222683D01*
X0240081Y0223681D02*
X0224354Y0223681D01*
X0223356Y0224680D02*
X0241871Y0224680D01*
X0249889Y0225678D02*
X0222274Y0225678D01*
X0214875Y0220686D02*
X0211031Y0220686D01*
X0212029Y0219687D02*
X0213876Y0219687D01*
X0213368Y0218689D02*
X0212538Y0218689D01*
X0212952Y0217690D02*
X0212954Y0217690D01*
X0212953Y0216692D02*
X0212953Y0216692D01*
X0212951Y0215693D02*
X0212955Y0215693D01*
X0213368Y0214695D02*
X0212537Y0214695D01*
X0212027Y0213696D02*
X0213878Y0213696D01*
X0214877Y0212698D02*
X0211029Y0212698D01*
X0211016Y0210701D02*
X0214890Y0210701D01*
X0213891Y0209702D02*
X0212014Y0209702D01*
X0212532Y0208704D02*
X0213374Y0208704D01*
X0212960Y0207705D02*
X0212945Y0207705D01*
X0212953Y0206707D02*
X0212953Y0206707D01*
X0212953Y0205708D02*
X0212953Y0205708D01*
X0212543Y0204710D02*
X0213362Y0204710D01*
X0213863Y0203711D02*
X0212042Y0203711D01*
X0211044Y0202713D02*
X0214862Y0202713D01*
X0216907Y0201714D02*
X0208999Y0201714D01*
X0206907Y0201714D02*
X0198999Y0201714D01*
X0196907Y0201714D02*
X0188999Y0201714D01*
X0186907Y0201714D02*
X0178999Y0201714D01*
X0176907Y0201714D02*
X0168999Y0201714D01*
X0166907Y0201714D02*
X0148999Y0201714D01*
X0146907Y0201714D02*
X0138999Y0201714D01*
X0136907Y0201714D02*
X0128999Y0201714D01*
X0126907Y0201714D02*
X0120853Y0201714D01*
X0120853Y0200716D02*
X0220500Y0200716D01*
X0220500Y0201714D02*
X0218999Y0201714D01*
X0220500Y0199717D02*
X0120853Y0199717D01*
X0120853Y0198719D02*
X0220500Y0198719D01*
X0220500Y0197720D02*
X0120853Y0197720D01*
X0120853Y0196722D02*
X0220500Y0196722D01*
X0220500Y0195723D02*
X0120853Y0195723D01*
X0120853Y0194725D02*
X0220500Y0194725D01*
X0220500Y0193726D02*
X0164147Y0193726D01*
X0164168Y0193704D02*
X0163173Y0194700D01*
X0156253Y0194700D01*
X0155257Y0193704D01*
X0155257Y0182296D01*
X0156253Y0181300D01*
X0163173Y0181300D01*
X0164168Y0182296D01*
X0164168Y0193704D01*
X0164168Y0192728D02*
X0220500Y0192728D01*
X0225500Y0192728D02*
X0230700Y0192728D01*
X0230700Y0192894D02*
X0230700Y0187384D01*
X0229782Y0186466D01*
X0229782Y0180334D01*
X0230700Y0179416D01*
X0230700Y0177002D01*
X0229922Y0176224D01*
X0229922Y0166941D01*
X0230918Y0165946D01*
X0232872Y0165946D01*
X0232009Y0165082D01*
X0232009Y0160918D01*
X0232427Y0160500D01*
X0232009Y0160082D01*
X0232009Y0155918D01*
X0232427Y0155500D01*
X0232009Y0155082D01*
X0232009Y0150918D01*
X0232872Y0150054D01*
X0230918Y0150054D01*
X0229922Y0149058D01*
X0229922Y0139776D01*
X0230918Y0138780D01*
X0235082Y0138780D01*
X0235346Y0139044D01*
X0235346Y0128818D01*
X0234534Y0128818D01*
X0233538Y0127822D01*
X0233538Y0123264D01*
X0234534Y0122269D01*
X0240666Y0122269D01*
X0241662Y0123264D01*
X0241662Y0127822D01*
X0240666Y0128818D01*
X0239946Y0128818D01*
X0239946Y0149922D01*
X0242287Y0149922D01*
X0243283Y0150918D01*
X0243283Y0155082D01*
X0242865Y0155500D01*
X0243006Y0155641D01*
X0244938Y0153710D01*
X0244938Y0153264D01*
X0245934Y0152269D01*
X0252066Y0152269D01*
X0252423Y0152625D01*
X0253000Y0152047D01*
X0253000Y0100406D01*
X0252179Y0099585D01*
X0251619Y0098232D01*
X0251619Y0096768D01*
X0252179Y0095415D01*
X0253215Y0094379D01*
X0254568Y0093819D01*
X0256032Y0093819D01*
X0257385Y0094379D01*
X0258421Y0095415D01*
X0258981Y0096768D01*
X0258981Y0098232D01*
X0258421Y0099585D01*
X0257600Y0100406D01*
X0257600Y0153953D01*
X0255100Y0156453D01*
X0253753Y0157800D01*
X0253062Y0157800D01*
X0253062Y0157822D01*
X0252066Y0158818D01*
X0246335Y0158818D01*
X0246200Y0158953D01*
X0244853Y0160300D01*
X0243065Y0160300D01*
X0242865Y0160500D01*
X0243065Y0160700D01*
X0244938Y0160700D01*
X0244938Y0160678D01*
X0245934Y0159682D01*
X0252066Y0159682D01*
X0253062Y0160678D01*
X0253062Y0165236D01*
X0252066Y0166231D01*
X0245934Y0166231D01*
X0245002Y0165300D01*
X0243065Y0165300D01*
X0242287Y0166078D01*
X0235214Y0166078D01*
X0236078Y0166941D01*
X0236078Y0176224D01*
X0235300Y0177002D01*
X0235300Y0179338D01*
X0235336Y0179338D01*
X0236331Y0180334D01*
X0236331Y0186466D01*
X0235336Y0187462D01*
X0235300Y0187462D01*
X0235300Y0192894D01*
X0236121Y0193715D01*
X0236681Y0195068D01*
X0236681Y0196532D01*
X0236121Y0197885D01*
X0235085Y0198921D01*
X0233732Y0199481D01*
X0232268Y0199481D01*
X0230915Y0198921D01*
X0229879Y0197885D01*
X0229319Y0196532D01*
X0229319Y0195068D01*
X0229879Y0193715D01*
X0230700Y0192894D01*
X0230700Y0191729D02*
X0225500Y0191729D01*
X0225500Y0190731D02*
X0230700Y0190731D01*
X0230700Y0189732D02*
X0225181Y0189732D01*
X0224269Y0188734D02*
X0230700Y0188734D01*
X0230700Y0187735D02*
X0223271Y0187735D01*
X0225500Y0193726D02*
X0229875Y0193726D01*
X0229461Y0194725D02*
X0225500Y0194725D01*
X0225500Y0195723D02*
X0229319Y0195723D01*
X0229397Y0196722D02*
X0225500Y0196722D01*
X0225500Y0197720D02*
X0229811Y0197720D01*
X0230713Y0198719D02*
X0225500Y0198719D01*
X0225500Y0199717D02*
X0240059Y0199717D01*
X0238439Y0200716D02*
X0225500Y0200716D01*
X0225500Y0201714D02*
X0237440Y0201714D01*
X0236442Y0202713D02*
X0230641Y0202713D01*
X0231720Y0203711D02*
X0235678Y0203711D01*
X0235102Y0204710D02*
X0232329Y0204710D01*
X0232657Y0205708D02*
X0234525Y0205708D01*
X0228339Y0205708D02*
X0227567Y0205708D01*
X0227567Y0204710D02*
X0228339Y0204710D01*
X0228339Y0203711D02*
X0227567Y0203711D01*
X0227567Y0202713D02*
X0228339Y0202713D01*
X0235287Y0198719D02*
X0241823Y0198719D01*
X0236603Y0196722D02*
X0259206Y0196722D01*
X0259206Y0197720D02*
X0236189Y0197720D01*
X0236681Y0195723D02*
X0259206Y0195723D01*
X0259206Y0194725D02*
X0236539Y0194725D01*
X0236125Y0193726D02*
X0259206Y0193726D01*
X0259206Y0192728D02*
X0235300Y0192728D01*
X0235300Y0191729D02*
X0259206Y0191729D01*
X0259206Y0190731D02*
X0235300Y0190731D01*
X0235300Y0189732D02*
X0259206Y0189732D01*
X0259206Y0188734D02*
X0235300Y0188734D01*
X0235300Y0187735D02*
X0259206Y0187735D01*
X0259206Y0186737D02*
X0242865Y0186737D01*
X0242918Y0186683D02*
X0242639Y0186962D01*
X0242297Y0187160D01*
X0241916Y0187262D01*
X0240431Y0187262D01*
X0240431Y0183687D01*
X0243218Y0183687D01*
X0243218Y0185960D01*
X0243116Y0186341D01*
X0242918Y0186683D01*
X0243218Y0185738D02*
X0259206Y0185738D01*
X0259206Y0184739D02*
X0243218Y0184739D01*
X0243218Y0183741D02*
X0259206Y0183741D01*
X0259206Y0182742D02*
X0243218Y0182742D01*
X0243218Y0183113D02*
X0240431Y0183113D01*
X0240431Y0183687D01*
X0239856Y0183687D01*
X0239856Y0183113D01*
X0237069Y0183113D01*
X0237069Y0180840D01*
X0237171Y0180459D01*
X0237368Y0180117D01*
X0237647Y0179837D01*
X0237990Y0179640D01*
X0238371Y0179538D01*
X0239856Y0179538D01*
X0239856Y0183113D01*
X0240431Y0183113D01*
X0240431Y0179538D01*
X0241916Y0179538D01*
X0242297Y0179640D01*
X0242639Y0179837D01*
X0242918Y0180117D01*
X0243116Y0180459D01*
X0243218Y0180840D01*
X0243218Y0183113D01*
X0243218Y0181744D02*
X0259206Y0181744D01*
X0259206Y0180745D02*
X0243193Y0180745D01*
X0242482Y0179747D02*
X0259206Y0179747D01*
X0259206Y0178748D02*
X0235300Y0178748D01*
X0235300Y0177750D02*
X0259206Y0177750D01*
X0259206Y0176751D02*
X0235550Y0176751D01*
X0236078Y0175753D02*
X0259206Y0175753D01*
X0259206Y0174754D02*
X0236078Y0174754D01*
X0236078Y0173756D02*
X0259206Y0173756D01*
X0259206Y0172757D02*
X0252344Y0172757D01*
X0252283Y0172818D02*
X0251941Y0173016D01*
X0251560Y0173118D01*
X0249287Y0173118D01*
X0249287Y0170331D01*
X0248713Y0170331D01*
X0248713Y0173118D01*
X0246440Y0173118D01*
X0246059Y0173016D01*
X0245717Y0172818D01*
X0245437Y0172539D01*
X0245240Y0172197D01*
X0245138Y0171816D01*
X0245138Y0170331D01*
X0248713Y0170331D01*
X0248713Y0169756D01*
X0249287Y0169756D01*
X0249287Y0166969D01*
X0251560Y0166969D01*
X0251941Y0167071D01*
X0252283Y0167268D01*
X0252562Y0167547D01*
X0252760Y0167890D01*
X0252862Y0168271D01*
X0252862Y0169756D01*
X0249287Y0169756D01*
X0249287Y0170331D01*
X0252862Y0170331D01*
X0252862Y0171816D01*
X0252760Y0172197D01*
X0252562Y0172539D01*
X0252283Y0172818D01*
X0252862Y0171759D02*
X0259206Y0171759D01*
X0259206Y0170760D02*
X0252862Y0170760D01*
X0252862Y0168763D02*
X0259206Y0168763D01*
X0259206Y0167765D02*
X0252688Y0167765D01*
X0252530Y0165768D02*
X0259206Y0165768D01*
X0259206Y0166766D02*
X0235903Y0166766D01*
X0236078Y0167765D02*
X0245312Y0167765D01*
X0245240Y0167890D02*
X0245437Y0167547D01*
X0245717Y0167268D01*
X0246059Y0167071D01*
X0246440Y0166969D01*
X0248713Y0166968D01*
X0248713Y0169756D01*
X0245138Y0169756D01*
X0245138Y0168271D01*
X0245240Y0167890D01*
X0245138Y0168763D02*
X0236078Y0168763D01*
X0236078Y0169762D02*
X0248713Y0169762D01*
X0249287Y0169762D02*
X0259206Y0169762D01*
X0259206Y0164769D02*
X0253062Y0164769D01*
X0253062Y0163771D02*
X0259206Y0163771D01*
X0259206Y0162772D02*
X0253062Y0162772D01*
X0253062Y0161774D02*
X0259206Y0161774D01*
X0259206Y0160775D02*
X0253062Y0160775D01*
X0252161Y0159777D02*
X0259206Y0159777D01*
X0259206Y0158778D02*
X0252106Y0158778D01*
X0253773Y0157780D02*
X0259206Y0157780D01*
X0259206Y0156781D02*
X0254772Y0156781D01*
X0255770Y0155783D02*
X0259206Y0155783D01*
X0259206Y0154784D02*
X0256769Y0154784D01*
X0257600Y0153786D02*
X0259206Y0153786D01*
X0259206Y0152787D02*
X0257600Y0152787D01*
X0257600Y0151789D02*
X0259206Y0151789D01*
X0259206Y0150790D02*
X0257600Y0150790D01*
X0257600Y0149792D02*
X0259206Y0149792D01*
X0259206Y0148793D02*
X0257600Y0148793D01*
X0257600Y0147795D02*
X0259206Y0147795D01*
X0259206Y0146796D02*
X0257600Y0146796D01*
X0257600Y0145798D02*
X0259206Y0145798D01*
X0259206Y0144799D02*
X0257600Y0144799D01*
X0257600Y0143801D02*
X0259206Y0143801D01*
X0259206Y0142802D02*
X0257600Y0142802D01*
X0257600Y0141803D02*
X0259206Y0141803D01*
X0259206Y0140805D02*
X0257600Y0140805D01*
X0257600Y0139806D02*
X0259206Y0139806D01*
X0259206Y0138808D02*
X0257600Y0138808D01*
X0257600Y0137809D02*
X0259206Y0137809D01*
X0259206Y0136811D02*
X0257600Y0136811D01*
X0257600Y0135812D02*
X0259206Y0135812D01*
X0259206Y0134814D02*
X0257600Y0134814D01*
X0257600Y0133815D02*
X0259206Y0133815D01*
X0259206Y0132817D02*
X0257600Y0132817D01*
X0257600Y0131818D02*
X0259206Y0131818D01*
X0259206Y0130820D02*
X0257600Y0130820D01*
X0257600Y0129821D02*
X0259206Y0129821D01*
X0259206Y0128823D02*
X0257600Y0128823D01*
X0257600Y0127824D02*
X0259206Y0127824D01*
X0259206Y0126826D02*
X0257600Y0126826D01*
X0257600Y0125827D02*
X0259206Y0125827D01*
X0259206Y0124829D02*
X0257600Y0124829D01*
X0257600Y0123830D02*
X0259206Y0123830D01*
X0259206Y0122832D02*
X0257600Y0122832D01*
X0257600Y0121833D02*
X0259206Y0121833D01*
X0259206Y0120835D02*
X0257600Y0120835D01*
X0257600Y0119836D02*
X0259206Y0119836D01*
X0259206Y0118838D02*
X0257600Y0118838D01*
X0257600Y0117839D02*
X0259206Y0117839D01*
X0259206Y0116841D02*
X0257600Y0116841D01*
X0257600Y0115842D02*
X0259206Y0115842D01*
X0259206Y0114844D02*
X0257600Y0114844D01*
X0257600Y0113845D02*
X0259206Y0113845D01*
X0259206Y0112847D02*
X0257600Y0112847D01*
X0257600Y0111848D02*
X0259206Y0111848D01*
X0259206Y0110850D02*
X0257600Y0110850D01*
X0257600Y0109851D02*
X0259206Y0109851D01*
X0259206Y0108853D02*
X0257600Y0108853D01*
X0257600Y0107854D02*
X0259206Y0107854D01*
X0259206Y0106856D02*
X0257600Y0106856D01*
X0257600Y0105857D02*
X0259206Y0105857D01*
X0259206Y0104859D02*
X0257600Y0104859D01*
X0257600Y0103860D02*
X0259206Y0103860D01*
X0259206Y0102862D02*
X0257600Y0102862D01*
X0257600Y0101863D02*
X0259206Y0101863D01*
X0259206Y0100865D02*
X0257600Y0100865D01*
X0258140Y0099866D02*
X0259206Y0099866D01*
X0259206Y0098868D02*
X0258718Y0098868D01*
X0258981Y0097869D02*
X0259206Y0097869D01*
X0259206Y0096870D02*
X0258981Y0096870D01*
X0259206Y0095872D02*
X0258610Y0095872D01*
X0259206Y0094873D02*
X0257879Y0094873D01*
X0259206Y0093875D02*
X0256168Y0093875D01*
X0254432Y0093875D02*
X0198700Y0093875D01*
X0198700Y0094873D02*
X0252721Y0094873D01*
X0251990Y0095872D02*
X0198700Y0095872D01*
X0198700Y0096870D02*
X0251619Y0096870D01*
X0251619Y0097869D02*
X0198700Y0097869D01*
X0198700Y0098868D02*
X0251882Y0098868D01*
X0252460Y0099866D02*
X0198700Y0099866D01*
X0198700Y0100865D02*
X0253000Y0100865D01*
X0253000Y0101863D02*
X0198700Y0101863D01*
X0198700Y0102862D02*
X0253000Y0102862D01*
X0253000Y0103860D02*
X0198700Y0103860D01*
X0198625Y0104859D02*
X0253000Y0104859D01*
X0253000Y0105857D02*
X0198144Y0105857D01*
X0197443Y0106558D02*
X0197443Y0106558D01*
X0197146Y0106856D02*
X0202101Y0106856D01*
X0202182Y0106717D02*
X0202461Y0106437D01*
X0202803Y0106240D01*
X0203184Y0106138D01*
X0204669Y0106138D01*
X0204669Y0109713D01*
X0201882Y0109713D01*
X0201882Y0107440D01*
X0201984Y0107059D01*
X0202182Y0106717D01*
X0201882Y0107854D02*
X0196147Y0107854D01*
X0195458Y0108543D02*
X0195458Y0108543D01*
X0195149Y0108853D02*
X0201882Y0108853D01*
X0201882Y0110287D02*
X0204669Y0110287D01*
X0204669Y0109713D01*
X0205244Y0109713D01*
X0205244Y0110287D01*
X0208031Y0110287D01*
X0208031Y0112560D01*
X0207929Y0112941D01*
X0207732Y0113283D01*
X0207453Y0113562D01*
X0207110Y0113760D01*
X0206729Y0113862D01*
X0205244Y0113862D01*
X0205244Y0110287D01*
X0204669Y0110287D01*
X0204669Y0113862D01*
X0203184Y0113862D01*
X0202803Y0113760D01*
X0202461Y0113562D01*
X0202182Y0113283D01*
X0201984Y0112941D01*
X0201882Y0112560D01*
X0201882Y0110287D01*
X0201882Y0110850D02*
X0179100Y0110850D01*
X0179100Y0111848D02*
X0201882Y0111848D01*
X0201959Y0112847D02*
X0179100Y0112847D01*
X0179100Y0113845D02*
X0203121Y0113845D01*
X0204669Y0113845D02*
X0205244Y0113845D01*
X0205244Y0112847D02*
X0204669Y0112847D01*
X0204669Y0111848D02*
X0205244Y0111848D01*
X0205244Y0110850D02*
X0204669Y0110850D01*
X0204669Y0109851D02*
X0189655Y0109851D01*
X0185145Y0109851D02*
X0179100Y0109851D01*
X0179100Y0108853D02*
X0184224Y0108853D01*
X0183811Y0107854D02*
X0179100Y0107854D01*
X0179100Y0106856D02*
X0183719Y0106856D01*
X0183848Y0105857D02*
X0179100Y0105857D01*
X0179100Y0104859D02*
X0184261Y0104859D01*
X0185234Y0103860D02*
X0179100Y0103860D01*
X0179100Y0102862D02*
X0192900Y0102862D01*
X0192900Y0101863D02*
X0179100Y0101863D01*
X0179100Y0100865D02*
X0192900Y0100865D01*
X0192900Y0099866D02*
X0179100Y0099866D01*
X0179100Y0098868D02*
X0192900Y0098868D01*
X0192900Y0097869D02*
X0179100Y0097869D01*
X0179100Y0096870D02*
X0192900Y0096870D01*
X0192900Y0095872D02*
X0179100Y0095872D01*
X0179026Y0094873D02*
X0192900Y0094873D01*
X0192900Y0093875D02*
X0178028Y0093875D01*
X0177029Y0092876D02*
X0192900Y0092876D01*
X0192900Y0091878D02*
X0176031Y0091878D01*
X0173519Y0095872D02*
X0125224Y0095872D01*
X0124257Y0096870D02*
X0174500Y0096870D01*
X0174500Y0103860D02*
X0162066Y0103860D01*
X0163039Y0104859D02*
X0174500Y0104859D01*
X0174500Y0105857D02*
X0163452Y0105857D01*
X0163581Y0106856D02*
X0174500Y0106856D01*
X0174500Y0107854D02*
X0163489Y0107854D01*
X0163076Y0108853D02*
X0174500Y0108853D01*
X0174500Y0109851D02*
X0162700Y0109851D01*
X0162700Y0110850D02*
X0164500Y0110850D01*
X0164347Y0110937D02*
X0164690Y0110740D01*
X0165071Y0110638D01*
X0166556Y0110638D01*
X0166556Y0114213D01*
X0163769Y0114213D01*
X0163769Y0111940D01*
X0163871Y0111559D01*
X0164068Y0111217D01*
X0164347Y0110937D01*
X0163793Y0111848D02*
X0163031Y0111848D01*
X0163031Y0112847D02*
X0163769Y0112847D01*
X0163769Y0113845D02*
X0163031Y0113845D01*
X0163031Y0114844D02*
X0163769Y0114844D01*
X0163768Y0114787D02*
X0166556Y0114787D01*
X0166556Y0114213D01*
X0167131Y0114213D01*
X0167131Y0114787D01*
X0169918Y0114787D01*
X0169918Y0117060D01*
X0169816Y0117441D01*
X0169618Y0117783D01*
X0169339Y0118062D01*
X0168997Y0118260D01*
X0168616Y0118362D01*
X0167131Y0118362D01*
X0167131Y0114787D01*
X0166556Y0114787D01*
X0166556Y0118362D01*
X0165071Y0118362D01*
X0164690Y0118260D01*
X0164347Y0118062D01*
X0164068Y0117783D01*
X0163871Y0117441D01*
X0163769Y0117060D01*
X0163768Y0114787D01*
X0163769Y0115842D02*
X0163031Y0115842D01*
X0163031Y0116841D02*
X0163769Y0116841D01*
X0164124Y0117839D02*
X0162759Y0117839D01*
X0162657Y0118838D02*
X0174985Y0118838D01*
X0174500Y0117839D02*
X0169562Y0117839D01*
X0169918Y0116841D02*
X0174500Y0116841D01*
X0174500Y0115842D02*
X0169918Y0115842D01*
X0169918Y0114844D02*
X0174500Y0114844D01*
X0174500Y0113845D02*
X0169918Y0113845D01*
X0169918Y0114213D02*
X0167131Y0114213D01*
X0167131Y0110638D01*
X0168616Y0110638D01*
X0168997Y0110740D01*
X0169339Y0110937D01*
X0169618Y0111217D01*
X0169816Y0111559D01*
X0169918Y0111940D01*
X0169918Y0114213D01*
X0169918Y0112847D02*
X0174500Y0112847D01*
X0174500Y0111848D02*
X0169893Y0111848D01*
X0169187Y0110850D02*
X0174500Y0110850D01*
X0179100Y0114844D02*
X0209743Y0114844D01*
X0209743Y0114041D02*
X0208769Y0113066D01*
X0208769Y0106934D01*
X0209764Y0105938D01*
X0214322Y0105938D01*
X0215318Y0106934D01*
X0215318Y0107700D01*
X0216985Y0107700D01*
X0216985Y0107587D01*
X0217981Y0106591D01*
X0222539Y0106591D01*
X0223535Y0107587D01*
X0223535Y0112539D01*
X0222539Y0113535D01*
X0217981Y0113535D01*
X0216985Y0112539D01*
X0216985Y0112300D01*
X0215318Y0112300D01*
X0215318Y0113066D01*
X0214343Y0114041D01*
X0214343Y0116459D01*
X0215318Y0117434D01*
X0215318Y0123566D01*
X0214322Y0124562D01*
X0209764Y0124562D01*
X0208769Y0123566D01*
X0208769Y0117434D01*
X0209743Y0116459D01*
X0209743Y0114041D01*
X0209547Y0113845D02*
X0206792Y0113845D01*
X0207955Y0112847D02*
X0208769Y0112847D01*
X0208769Y0111848D02*
X0208031Y0111848D01*
X0208031Y0110850D02*
X0208769Y0110850D01*
X0208769Y0109851D02*
X0205244Y0109851D01*
X0205244Y0109713D02*
X0208031Y0109713D01*
X0208031Y0107440D01*
X0207929Y0107059D01*
X0207732Y0106717D01*
X0207453Y0106437D01*
X0207110Y0106240D01*
X0206729Y0106138D01*
X0205244Y0106138D01*
X0205244Y0109713D01*
X0205244Y0108853D02*
X0204669Y0108853D01*
X0204669Y0107854D02*
X0205244Y0107854D01*
X0205244Y0106856D02*
X0204669Y0106856D01*
X0207812Y0106856D02*
X0208847Y0106856D01*
X0208769Y0107854D02*
X0208031Y0107854D01*
X0208031Y0108853D02*
X0208769Y0108853D01*
X0215240Y0106856D02*
X0217717Y0106856D01*
X0222803Y0106856D02*
X0225728Y0106856D01*
X0225586Y0106894D02*
X0225968Y0106791D01*
X0227453Y0106791D01*
X0227453Y0109776D01*
X0224665Y0109776D01*
X0224665Y0108094D01*
X0224768Y0107712D01*
X0224965Y0107370D01*
X0225244Y0107091D01*
X0225586Y0106894D01*
X0224730Y0107854D02*
X0223535Y0107854D01*
X0223535Y0108853D02*
X0224665Y0108853D01*
X0224665Y0110350D02*
X0227453Y0110350D01*
X0227453Y0109776D01*
X0228028Y0109776D01*
X0228028Y0110350D01*
X0230815Y0110350D01*
X0230815Y0112032D01*
X0230713Y0112414D01*
X0230515Y0112756D01*
X0230236Y0113035D01*
X0229894Y0113232D01*
X0229512Y0113335D01*
X0228028Y0113335D01*
X0228028Y0110350D01*
X0227453Y0110350D01*
X0227453Y0113335D01*
X0225968Y0113335D01*
X0225586Y0113232D01*
X0225244Y0113035D01*
X0224965Y0112756D01*
X0224768Y0112414D01*
X0224665Y0112032D01*
X0224665Y0110350D01*
X0224665Y0110850D02*
X0223535Y0110850D01*
X0223535Y0111848D02*
X0224665Y0111848D01*
X0225056Y0112847D02*
X0223227Y0112847D01*
X0221721Y0114859D02*
X0226279Y0114859D01*
X0227275Y0115855D01*
X0227275Y0116157D01*
X0233559Y0116157D01*
X0234534Y0115182D01*
X0240666Y0115182D01*
X0241641Y0116157D01*
X0243459Y0116157D01*
X0244434Y0115182D01*
X0250566Y0115182D01*
X0251562Y0116178D01*
X0251562Y0120736D01*
X0250566Y0121731D01*
X0244434Y0121731D01*
X0243459Y0120757D01*
X0241641Y0120757D01*
X0240666Y0121731D01*
X0234534Y0121731D01*
X0233559Y0120757D01*
X0227275Y0120757D01*
X0227275Y0120807D01*
X0226279Y0121802D01*
X0221721Y0121802D01*
X0220725Y0120807D01*
X0220725Y0115855D01*
X0221721Y0114859D01*
X0220738Y0115842D02*
X0214343Y0115842D01*
X0214343Y0114844D02*
X0253000Y0114844D01*
X0253000Y0115842D02*
X0251227Y0115842D01*
X0251562Y0116841D02*
X0253000Y0116841D01*
X0253000Y0117839D02*
X0251562Y0117839D01*
X0251562Y0118838D02*
X0253000Y0118838D01*
X0253000Y0119836D02*
X0251562Y0119836D01*
X0251463Y0120835D02*
X0253000Y0120835D01*
X0253000Y0121833D02*
X0215318Y0121833D01*
X0215318Y0120835D02*
X0220753Y0120835D01*
X0220725Y0119836D02*
X0215318Y0119836D01*
X0215318Y0118838D02*
X0220725Y0118838D01*
X0220725Y0117839D02*
X0215318Y0117839D01*
X0214725Y0116841D02*
X0220725Y0116841D01*
X0217293Y0112847D02*
X0215318Y0112847D01*
X0214539Y0113845D02*
X0253000Y0113845D01*
X0253000Y0112847D02*
X0230424Y0112847D01*
X0230815Y0111848D02*
X0253000Y0111848D01*
X0253000Y0110850D02*
X0230815Y0110850D01*
X0230815Y0109776D02*
X0228028Y0109776D01*
X0228028Y0106791D01*
X0229512Y0106791D01*
X0229894Y0106894D01*
X0230236Y0107091D01*
X0230515Y0107370D01*
X0230713Y0107712D01*
X0230815Y0108094D01*
X0230815Y0109776D01*
X0230815Y0108853D02*
X0253000Y0108853D01*
X0253000Y0109851D02*
X0228028Y0109851D01*
X0227453Y0109851D02*
X0223535Y0109851D01*
X0227453Y0108853D02*
X0228028Y0108853D01*
X0228028Y0107854D02*
X0227453Y0107854D01*
X0227453Y0106856D02*
X0228028Y0106856D01*
X0229752Y0106856D02*
X0253000Y0106856D01*
X0253000Y0107854D02*
X0230751Y0107854D01*
X0228028Y0110850D02*
X0227453Y0110850D01*
X0227453Y0111848D02*
X0228028Y0111848D01*
X0228028Y0112847D02*
X0227453Y0112847D01*
X0227262Y0115842D02*
X0233873Y0115842D01*
X0233637Y0120835D02*
X0227247Y0120835D01*
X0233538Y0123830D02*
X0215054Y0123830D01*
X0215318Y0122832D02*
X0233970Y0122832D01*
X0233538Y0124829D02*
X0164168Y0124829D01*
X0164168Y0125827D02*
X0233538Y0125827D01*
X0233538Y0126826D02*
X0164168Y0126826D01*
X0164168Y0127824D02*
X0233540Y0127824D01*
X0235346Y0128823D02*
X0164168Y0128823D01*
X0164168Y0129821D02*
X0235346Y0129821D01*
X0235346Y0130820D02*
X0164168Y0130820D01*
X0164168Y0131818D02*
X0235346Y0131818D01*
X0235346Y0132817D02*
X0164168Y0132817D01*
X0164168Y0133815D02*
X0235346Y0133815D01*
X0235346Y0134814D02*
X0163216Y0134814D01*
X0156209Y0134814D02*
X0153216Y0134814D01*
X0153173Y0134857D02*
X0146253Y0134857D01*
X0145257Y0133862D01*
X0145257Y0122453D01*
X0146253Y0121457D01*
X0153173Y0121457D01*
X0154168Y0122453D01*
X0154168Y0133862D01*
X0153173Y0134857D01*
X0154168Y0133815D02*
X0155257Y0133815D01*
X0155257Y0132817D02*
X0154168Y0132817D01*
X0154168Y0131818D02*
X0155257Y0131818D01*
X0155257Y0130820D02*
X0154168Y0130820D01*
X0154168Y0129821D02*
X0155257Y0129821D01*
X0155257Y0128823D02*
X0154168Y0128823D01*
X0154168Y0127824D02*
X0155257Y0127824D01*
X0155257Y0126826D02*
X0154168Y0126826D01*
X0154168Y0125827D02*
X0155257Y0125827D01*
X0155257Y0124829D02*
X0154168Y0124829D01*
X0154168Y0123830D02*
X0155257Y0123830D01*
X0155257Y0122832D02*
X0154168Y0122832D01*
X0153548Y0121833D02*
X0155877Y0121833D01*
X0156857Y0120835D02*
X0129966Y0120835D01*
X0128968Y0121833D02*
X0135877Y0121833D01*
X0136253Y0121457D02*
X0143173Y0121457D01*
X0144168Y0122453D01*
X0144168Y0133862D01*
X0143173Y0134857D01*
X0142100Y0134857D01*
X0142100Y0141994D01*
X0142921Y0142815D01*
X0143481Y0144168D01*
X0143481Y0145632D01*
X0142921Y0146985D01*
X0141885Y0148021D01*
X0140532Y0148581D01*
X0139068Y0148581D01*
X0137715Y0148021D01*
X0136679Y0146985D01*
X0136119Y0145632D01*
X0136119Y0144168D01*
X0136679Y0142815D01*
X0137500Y0141994D01*
X0137500Y0134857D01*
X0136253Y0134857D01*
X0135257Y0133862D01*
X0135257Y0122453D01*
X0136253Y0121457D01*
X0135257Y0122832D02*
X0127969Y0122832D01*
X0127900Y0123830D02*
X0135257Y0123830D01*
X0135257Y0124829D02*
X0127900Y0124829D01*
X0127900Y0125827D02*
X0135257Y0125827D01*
X0135257Y0126826D02*
X0127900Y0126826D01*
X0127900Y0127824D02*
X0135257Y0127824D01*
X0135257Y0128823D02*
X0127900Y0128823D01*
X0127900Y0129821D02*
X0135257Y0129821D01*
X0135257Y0130820D02*
X0127900Y0130820D01*
X0127900Y0131818D02*
X0135257Y0131818D01*
X0135257Y0132817D02*
X0127900Y0132817D01*
X0127900Y0133815D02*
X0135257Y0133815D01*
X0136209Y0134814D02*
X0127900Y0134814D01*
X0127900Y0135812D02*
X0137500Y0135812D01*
X0137500Y0136811D02*
X0127900Y0136811D01*
X0127900Y0137809D02*
X0137500Y0137809D01*
X0137500Y0138808D02*
X0127900Y0138808D01*
X0127900Y0139806D02*
X0137500Y0139806D01*
X0137500Y0140805D02*
X0127900Y0140805D01*
X0127900Y0141803D02*
X0137500Y0141803D01*
X0136692Y0142802D02*
X0127900Y0142802D01*
X0127900Y0143801D02*
X0136271Y0143801D01*
X0136119Y0144799D02*
X0127900Y0144799D01*
X0127789Y0145798D02*
X0136187Y0145798D01*
X0136601Y0146796D02*
X0127258Y0146796D01*
X0126259Y0147795D02*
X0137489Y0147795D01*
X0142111Y0147795D02*
X0216370Y0147795D01*
X0216054Y0148793D02*
X0125261Y0148793D01*
X0124262Y0149792D02*
X0216054Y0149792D01*
X0217369Y0146796D02*
X0142999Y0146796D01*
X0143413Y0145798D02*
X0218367Y0145798D01*
X0219366Y0144799D02*
X0143481Y0144799D01*
X0143329Y0143801D02*
X0219922Y0143801D01*
X0219922Y0142802D02*
X0142908Y0142802D01*
X0142100Y0141803D02*
X0219922Y0141803D01*
X0219922Y0140805D02*
X0142100Y0140805D01*
X0142100Y0139806D02*
X0219922Y0139806D01*
X0220890Y0138808D02*
X0142100Y0138808D01*
X0142100Y0137809D02*
X0235346Y0137809D01*
X0235346Y0136811D02*
X0142100Y0136811D01*
X0142100Y0135812D02*
X0235346Y0135812D01*
X0235346Y0138808D02*
X0235110Y0138808D01*
X0230890Y0138808D02*
X0225110Y0138808D01*
X0226078Y0139806D02*
X0229922Y0139806D01*
X0229922Y0140805D02*
X0226078Y0140805D01*
X0226078Y0141803D02*
X0229922Y0141803D01*
X0229922Y0142802D02*
X0226078Y0142802D01*
X0226078Y0143801D02*
X0229922Y0143801D01*
X0229922Y0144799D02*
X0226078Y0144799D01*
X0226078Y0145798D02*
X0229922Y0145798D01*
X0229922Y0146796D02*
X0226078Y0146796D01*
X0226078Y0147795D02*
X0229922Y0147795D01*
X0229922Y0148793D02*
X0226078Y0148793D01*
X0225345Y0149792D02*
X0230655Y0149792D01*
X0232136Y0150790D02*
X0223864Y0150790D01*
X0223991Y0151789D02*
X0232009Y0151789D01*
X0232009Y0152787D02*
X0223991Y0152787D01*
X0223991Y0153786D02*
X0232009Y0153786D01*
X0232009Y0154784D02*
X0223991Y0154784D01*
X0223856Y0155783D02*
X0232144Y0155783D01*
X0232009Y0156781D02*
X0223991Y0156781D01*
X0223991Y0157780D02*
X0232009Y0157780D01*
X0232009Y0158778D02*
X0223991Y0158778D01*
X0223991Y0159777D02*
X0232009Y0159777D01*
X0232151Y0160775D02*
X0223849Y0160775D01*
X0223991Y0161774D02*
X0232009Y0161774D01*
X0232009Y0162772D02*
X0223991Y0162772D01*
X0223991Y0163771D02*
X0232009Y0163771D01*
X0232009Y0164769D02*
X0223991Y0164769D01*
X0223306Y0165768D02*
X0232694Y0165768D01*
X0230097Y0166766D02*
X0225903Y0166766D01*
X0226078Y0167765D02*
X0229922Y0167765D01*
X0229922Y0168763D02*
X0226078Y0168763D01*
X0226078Y0169762D02*
X0229922Y0169762D01*
X0229922Y0170760D02*
X0226078Y0170760D01*
X0226078Y0171759D02*
X0229922Y0171759D01*
X0229922Y0172757D02*
X0226078Y0172757D01*
X0226078Y0173756D02*
X0229922Y0173756D01*
X0229922Y0174754D02*
X0226078Y0174754D01*
X0226078Y0175753D02*
X0229922Y0175753D01*
X0230450Y0176751D02*
X0225550Y0176751D01*
X0220450Y0176751D02*
X0210700Y0176751D01*
X0210700Y0175753D02*
X0219922Y0175753D01*
X0219922Y0174754D02*
X0210700Y0174754D01*
X0210700Y0173756D02*
X0219922Y0173756D01*
X0219922Y0172757D02*
X0210700Y0172757D01*
X0210700Y0171759D02*
X0219922Y0171759D01*
X0219922Y0170760D02*
X0210700Y0170760D01*
X0210700Y0169762D02*
X0219922Y0169762D01*
X0219922Y0168763D02*
X0210700Y0168763D01*
X0210700Y0167765D02*
X0219922Y0167765D01*
X0220097Y0166766D02*
X0210700Y0166766D01*
X0211817Y0165768D02*
X0213403Y0165768D01*
X0212717Y0159777D02*
X0211275Y0159777D01*
X0211141Y0158929D02*
X0210760Y0159031D01*
X0208487Y0159031D01*
X0208487Y0156244D01*
X0207913Y0156244D01*
X0207913Y0159031D01*
X0205640Y0159031D01*
X0205259Y0158929D01*
X0204917Y0158732D01*
X0204637Y0158453D01*
X0204440Y0158110D01*
X0204338Y0157729D01*
X0204338Y0156244D01*
X0207913Y0156244D01*
X0207913Y0155669D01*
X0208487Y0155669D01*
X0208487Y0152882D01*
X0210760Y0152882D01*
X0211141Y0152984D01*
X0211483Y0153182D01*
X0211762Y0153461D01*
X0211960Y0153803D01*
X0212062Y0154184D01*
X0212062Y0155669D01*
X0208487Y0155669D01*
X0208487Y0156244D01*
X0212062Y0156244D01*
X0212062Y0157729D01*
X0211960Y0158110D01*
X0211762Y0158453D01*
X0211483Y0158732D01*
X0211141Y0158929D01*
X0211403Y0158778D02*
X0212717Y0158778D01*
X0212717Y0157780D02*
X0212049Y0157780D01*
X0212062Y0156781D02*
X0212717Y0156781D01*
X0212853Y0155783D02*
X0208487Y0155783D01*
X0207913Y0155783D02*
X0120853Y0155783D01*
X0120853Y0156781D02*
X0204338Y0156781D01*
X0204351Y0157780D02*
X0128686Y0157780D01*
X0128485Y0157579D02*
X0129406Y0158500D01*
X0146853Y0158500D01*
X0148200Y0159847D01*
X0152000Y0163647D01*
X0152000Y0181300D01*
X0153173Y0181300D01*
X0154168Y0182296D01*
X0154168Y0193704D01*
X0153173Y0194700D01*
X0146253Y0194700D01*
X0145257Y0193704D01*
X0145257Y0182296D01*
X0146253Y0181300D01*
X0147400Y0181300D01*
X0147400Y0165553D01*
X0144947Y0163100D01*
X0129206Y0163100D01*
X0128485Y0163821D01*
X0127132Y0164381D01*
X0125668Y0164381D01*
X0124315Y0163821D01*
X0123279Y0162785D01*
X0122719Y0161432D01*
X0122719Y0159968D01*
X0123279Y0158615D01*
X0124315Y0157579D01*
X0125668Y0157019D01*
X0127132Y0157019D01*
X0128485Y0157579D01*
X0124114Y0157780D02*
X0120853Y0157780D01*
X0120853Y0158778D02*
X0123212Y0158778D01*
X0122798Y0159777D02*
X0120853Y0159777D01*
X0120853Y0160775D02*
X0122719Y0160775D01*
X0122860Y0161774D02*
X0120853Y0161774D01*
X0120853Y0162772D02*
X0123274Y0162772D01*
X0124265Y0163771D02*
X0120853Y0163771D01*
X0120853Y0164769D02*
X0146617Y0164769D01*
X0147400Y0165768D02*
X0120853Y0165768D01*
X0120853Y0166766D02*
X0147400Y0166766D01*
X0147400Y0167765D02*
X0120853Y0167765D01*
X0120853Y0168763D02*
X0147400Y0168763D01*
X0147400Y0169762D02*
X0120853Y0169762D01*
X0120853Y0170760D02*
X0147400Y0170760D01*
X0147400Y0171759D02*
X0120853Y0171759D01*
X0120853Y0172757D02*
X0147400Y0172757D01*
X0147400Y0173756D02*
X0120853Y0173756D01*
X0120853Y0174754D02*
X0147400Y0174754D01*
X0147400Y0175753D02*
X0120853Y0175753D01*
X0120853Y0176751D02*
X0147400Y0176751D01*
X0147400Y0177750D02*
X0120853Y0177750D01*
X0120853Y0178748D02*
X0147400Y0178748D01*
X0147400Y0179747D02*
X0120853Y0179747D01*
X0120853Y0180745D02*
X0147400Y0180745D01*
X0145809Y0181744D02*
X0143293Y0181744D01*
X0143390Y0181800D02*
X0143669Y0182079D01*
X0143866Y0182421D01*
X0143968Y0182803D01*
X0143968Y0187500D01*
X0140213Y0187500D01*
X0140213Y0188500D01*
X0143968Y0188500D01*
X0143968Y0193197D01*
X0143866Y0193579D01*
X0143669Y0193921D01*
X0143390Y0194200D01*
X0143047Y0194398D01*
X0142666Y0194500D01*
X0140213Y0194500D01*
X0140213Y0188500D01*
X0139213Y0188500D01*
X0139213Y0194500D01*
X0136759Y0194500D01*
X0136378Y0194398D01*
X0136036Y0194200D01*
X0135756Y0193921D01*
X0135559Y0193579D01*
X0135457Y0193197D01*
X0135457Y0188500D01*
X0139213Y0188500D01*
X0139213Y0187500D01*
X0140213Y0187500D01*
X0140213Y0181500D01*
X0142666Y0181500D01*
X0143047Y0181602D01*
X0143390Y0181800D01*
X0143952Y0182742D02*
X0145257Y0182742D01*
X0145257Y0183741D02*
X0143968Y0183741D01*
X0143968Y0184739D02*
X0145257Y0184739D01*
X0145257Y0185738D02*
X0143968Y0185738D01*
X0143968Y0186737D02*
X0145257Y0186737D01*
X0145257Y0187735D02*
X0140213Y0187735D01*
X0140213Y0186737D02*
X0139213Y0186737D01*
X0139213Y0187500D02*
X0139213Y0181500D01*
X0136759Y0181500D01*
X0136378Y0181602D01*
X0136036Y0181800D01*
X0135756Y0182079D01*
X0135559Y0182421D01*
X0135457Y0182803D01*
X0135457Y0187500D01*
X0139213Y0187500D01*
X0139213Y0187735D02*
X0120853Y0187735D01*
X0120853Y0186737D02*
X0135457Y0186737D01*
X0135457Y0185738D02*
X0120853Y0185738D01*
X0120853Y0184739D02*
X0135457Y0184739D01*
X0135457Y0183741D02*
X0120853Y0183741D01*
X0120853Y0182742D02*
X0135473Y0182742D01*
X0136132Y0181744D02*
X0120853Y0181744D01*
X0120853Y0188734D02*
X0135457Y0188734D01*
X0135457Y0189732D02*
X0120853Y0189732D01*
X0120853Y0190731D02*
X0135457Y0190731D01*
X0135457Y0191729D02*
X0120853Y0191729D01*
X0120853Y0192728D02*
X0135457Y0192728D01*
X0135644Y0193726D02*
X0120853Y0193726D01*
X0115053Y0191729D02*
X0113741Y0191729D01*
X0111972Y0197720D02*
X0043081Y0197720D01*
X0042083Y0198719D02*
X0112970Y0198719D01*
X0113969Y0199717D02*
X0041084Y0199717D01*
X0040853Y0200716D02*
X0114967Y0200716D01*
X0115053Y0201714D02*
X0108999Y0201714D01*
X0106907Y0201714D02*
X0098999Y0201714D01*
X0096907Y0201714D02*
X0088999Y0201714D01*
X0086907Y0201714D02*
X0068999Y0201714D01*
X0066907Y0201714D02*
X0058999Y0201714D01*
X0056907Y0201714D02*
X0048999Y0201714D01*
X0046907Y0201714D02*
X0040853Y0201714D01*
X0041044Y0202713D02*
X0044862Y0202713D01*
X0043863Y0203711D02*
X0042042Y0203711D01*
X0042543Y0204710D02*
X0043362Y0204710D01*
X0042953Y0205708D02*
X0042953Y0205708D01*
X0042953Y0206707D02*
X0042953Y0206707D01*
X0042945Y0207705D02*
X0042960Y0207705D01*
X0043374Y0208704D02*
X0042532Y0208704D01*
X0042014Y0209702D02*
X0043891Y0209702D01*
X0044890Y0210701D02*
X0041016Y0210701D01*
X0041029Y0212698D02*
X0044877Y0212698D01*
X0043878Y0213696D02*
X0042027Y0213696D01*
X0042029Y0219687D02*
X0043876Y0219687D01*
X0044875Y0220686D02*
X0041031Y0220686D01*
X0038968Y0221684D02*
X0045591Y0221684D01*
X0046247Y0222683D02*
X0027454Y0222683D01*
X0028452Y0221684D02*
X0036938Y0221684D01*
X0034875Y0220686D02*
X0029451Y0220686D01*
X0030220Y0219687D02*
X0033876Y0219687D01*
X0033368Y0218689D02*
X0030796Y0218689D01*
X0031373Y0217690D02*
X0032954Y0217690D01*
X0032953Y0216692D02*
X0031835Y0216692D01*
X0032103Y0215693D02*
X0032955Y0215693D01*
X0033368Y0214695D02*
X0032370Y0214695D01*
X0032638Y0213696D02*
X0033878Y0213696D01*
X0025824Y0223681D02*
X0047246Y0223681D01*
X0048244Y0224680D02*
X0024035Y0224680D01*
X0016017Y0225678D02*
X0049326Y0225678D01*
X0051321Y0220686D02*
X0055282Y0220686D01*
X0054195Y0219687D02*
X0052029Y0219687D01*
X0052538Y0218689D02*
X0053583Y0218689D01*
X0053251Y0217690D02*
X0052952Y0217690D01*
X0052953Y0216692D02*
X0057567Y0216692D01*
X0058339Y0216692D02*
X0062953Y0216692D01*
X0062954Y0217690D02*
X0062655Y0217690D01*
X0062323Y0218689D02*
X0063368Y0218689D01*
X0063876Y0219687D02*
X0061710Y0219687D01*
X0060623Y0220686D02*
X0064875Y0220686D01*
X0062955Y0215693D02*
X0062654Y0215693D01*
X0062322Y0214695D02*
X0063368Y0214695D01*
X0063878Y0213696D02*
X0061709Y0213696D01*
X0060620Y0212698D02*
X0064877Y0212698D01*
X0064890Y0210701D02*
X0061016Y0210701D01*
X0062014Y0209702D02*
X0063891Y0209702D01*
X0063374Y0208704D02*
X0062532Y0208704D01*
X0062945Y0207705D02*
X0062960Y0207705D01*
X0062953Y0206707D02*
X0062953Y0206707D01*
X0062953Y0205708D02*
X0062953Y0205708D01*
X0062543Y0204710D02*
X0063362Y0204710D01*
X0063863Y0203711D02*
X0062042Y0203711D01*
X0061044Y0202713D02*
X0064862Y0202713D01*
X0071044Y0202713D02*
X0075265Y0202713D01*
X0074186Y0203711D02*
X0072042Y0203711D01*
X0072543Y0204710D02*
X0073576Y0204710D01*
X0073249Y0205708D02*
X0072953Y0205708D01*
X0072953Y0206707D02*
X0077567Y0206707D01*
X0078339Y0206707D02*
X0082953Y0206707D01*
X0082960Y0207705D02*
X0082652Y0207705D01*
X0082315Y0208704D02*
X0083374Y0208704D01*
X0083891Y0209702D02*
X0081699Y0209702D01*
X0080603Y0210701D02*
X0084890Y0210701D01*
X0084877Y0212698D02*
X0081029Y0212698D01*
X0082027Y0213696D02*
X0083878Y0213696D01*
X0083368Y0214695D02*
X0082537Y0214695D01*
X0082951Y0215693D02*
X0082955Y0215693D01*
X0082953Y0216692D02*
X0082953Y0216692D01*
X0082952Y0217690D02*
X0082954Y0217690D01*
X0083368Y0218689D02*
X0082538Y0218689D01*
X0082029Y0219687D02*
X0083876Y0219687D01*
X0084875Y0220686D02*
X0081031Y0220686D01*
X0074875Y0220686D02*
X0071031Y0220686D01*
X0072029Y0219687D02*
X0073876Y0219687D01*
X0073368Y0218689D02*
X0072538Y0218689D01*
X0072952Y0217690D02*
X0072954Y0217690D01*
X0072953Y0216692D02*
X0072953Y0216692D01*
X0072951Y0215693D02*
X0072955Y0215693D01*
X0073368Y0214695D02*
X0072537Y0214695D01*
X0072027Y0213696D02*
X0073878Y0213696D01*
X0074877Y0212698D02*
X0071029Y0212698D01*
X0071016Y0210701D02*
X0075303Y0210701D01*
X0074206Y0209702D02*
X0072014Y0209702D01*
X0072532Y0208704D02*
X0073590Y0208704D01*
X0073253Y0207705D02*
X0072945Y0207705D01*
X0077567Y0207705D02*
X0078339Y0207705D01*
X0078339Y0208704D02*
X0077567Y0208704D01*
X0077567Y0209702D02*
X0078339Y0209702D01*
X0078339Y0205708D02*
X0077567Y0205708D01*
X0077567Y0204710D02*
X0078339Y0204710D01*
X0078339Y0203711D02*
X0077567Y0203711D01*
X0077567Y0202713D02*
X0078339Y0202713D01*
X0080641Y0202713D02*
X0084862Y0202713D01*
X0083863Y0203711D02*
X0081720Y0203711D01*
X0082329Y0204710D02*
X0083362Y0204710D01*
X0082953Y0205708D02*
X0082657Y0205708D01*
X0091044Y0202713D02*
X0094862Y0202713D01*
X0093863Y0203711D02*
X0092042Y0203711D01*
X0092543Y0204710D02*
X0093362Y0204710D01*
X0092953Y0205708D02*
X0092953Y0205708D01*
X0092953Y0206707D02*
X0092953Y0206707D01*
X0092945Y0207705D02*
X0092960Y0207705D01*
X0093374Y0208704D02*
X0092532Y0208704D01*
X0092014Y0209702D02*
X0093891Y0209702D01*
X0094890Y0210701D02*
X0091016Y0210701D01*
X0091029Y0212698D02*
X0095285Y0212698D01*
X0094197Y0213696D02*
X0092027Y0213696D01*
X0092537Y0214695D02*
X0093584Y0214695D01*
X0093251Y0215693D02*
X0092951Y0215693D01*
X0092953Y0216692D02*
X0097567Y0216692D01*
X0098339Y0216692D02*
X0102953Y0216692D01*
X0102954Y0217690D02*
X0102655Y0217690D01*
X0102323Y0218689D02*
X0103368Y0218689D01*
X0103876Y0219687D02*
X0101710Y0219687D01*
X0100623Y0220686D02*
X0104875Y0220686D01*
X0102955Y0215693D02*
X0102654Y0215693D01*
X0102322Y0214695D02*
X0103368Y0214695D01*
X0103878Y0213696D02*
X0101709Y0213696D01*
X0100620Y0212698D02*
X0104877Y0212698D01*
X0104890Y0210701D02*
X0101016Y0210701D01*
X0102014Y0209702D02*
X0103891Y0209702D01*
X0103374Y0208704D02*
X0102532Y0208704D01*
X0102945Y0207705D02*
X0102960Y0207705D01*
X0102953Y0206707D02*
X0102953Y0206707D01*
X0102953Y0205708D02*
X0102953Y0205708D01*
X0102543Y0204710D02*
X0103362Y0204710D01*
X0103863Y0203711D02*
X0102042Y0203711D01*
X0101044Y0202713D02*
X0104862Y0202713D01*
X0111044Y0202713D02*
X0114862Y0202713D01*
X0113863Y0203711D02*
X0112042Y0203711D01*
X0112543Y0204710D02*
X0113362Y0204710D01*
X0112953Y0205708D02*
X0112953Y0205708D01*
X0112953Y0206707D02*
X0112953Y0206707D01*
X0112945Y0207705D02*
X0112960Y0207705D01*
X0113374Y0208704D02*
X0112532Y0208704D01*
X0112014Y0209702D02*
X0113891Y0209702D01*
X0114890Y0210701D02*
X0111016Y0210701D01*
X0111029Y0212698D02*
X0114877Y0212698D01*
X0113878Y0213696D02*
X0112027Y0213696D01*
X0112537Y0214695D02*
X0113368Y0214695D01*
X0112955Y0215693D02*
X0112951Y0215693D01*
X0112953Y0216692D02*
X0112953Y0216692D01*
X0112952Y0217690D02*
X0112954Y0217690D01*
X0113368Y0218689D02*
X0112538Y0218689D01*
X0112029Y0219687D02*
X0113876Y0219687D01*
X0114875Y0220686D02*
X0111031Y0220686D01*
X0121031Y0220686D02*
X0125282Y0220686D01*
X0124195Y0219687D02*
X0122029Y0219687D01*
X0122538Y0218689D02*
X0123583Y0218689D01*
X0123251Y0217690D02*
X0122952Y0217690D01*
X0122953Y0216692D02*
X0127567Y0216692D01*
X0128339Y0216692D02*
X0132953Y0216692D01*
X0132954Y0217690D02*
X0132655Y0217690D01*
X0132323Y0218689D02*
X0133368Y0218689D01*
X0133876Y0219687D02*
X0131710Y0219687D01*
X0130623Y0220686D02*
X0134875Y0220686D01*
X0132955Y0215693D02*
X0132654Y0215693D01*
X0132322Y0214695D02*
X0133368Y0214695D01*
X0133878Y0213696D02*
X0131709Y0213696D01*
X0130620Y0212698D02*
X0134877Y0212698D01*
X0134890Y0210701D02*
X0131016Y0210701D01*
X0132014Y0209702D02*
X0133891Y0209702D01*
X0133374Y0208704D02*
X0132532Y0208704D01*
X0132945Y0207705D02*
X0132960Y0207705D01*
X0132953Y0206707D02*
X0132953Y0206707D01*
X0132953Y0205708D02*
X0132953Y0205708D01*
X0132543Y0204710D02*
X0133362Y0204710D01*
X0133863Y0203711D02*
X0132042Y0203711D01*
X0131044Y0202713D02*
X0134862Y0202713D01*
X0141044Y0202713D02*
X0144862Y0202713D01*
X0143863Y0203711D02*
X0142042Y0203711D01*
X0142543Y0204710D02*
X0143362Y0204710D01*
X0142953Y0205708D02*
X0142953Y0205708D01*
X0142953Y0206707D02*
X0142953Y0206707D01*
X0142945Y0207705D02*
X0142960Y0207705D01*
X0143374Y0208704D02*
X0142532Y0208704D01*
X0142014Y0209702D02*
X0143891Y0209702D01*
X0144890Y0210701D02*
X0141016Y0210701D01*
X0141029Y0212698D02*
X0144877Y0212698D01*
X0143878Y0213696D02*
X0142027Y0213696D01*
X0142537Y0214695D02*
X0143368Y0214695D01*
X0142955Y0215693D02*
X0142951Y0215693D01*
X0142953Y0216692D02*
X0142953Y0216692D01*
X0142952Y0217690D02*
X0142954Y0217690D01*
X0143368Y0218689D02*
X0142538Y0218689D01*
X0142029Y0219687D02*
X0143876Y0219687D01*
X0144875Y0220686D02*
X0141031Y0220686D01*
X0151031Y0220686D02*
X0154875Y0220686D01*
X0153876Y0219687D02*
X0152029Y0219687D01*
X0152538Y0218689D02*
X0153368Y0218689D01*
X0152954Y0217690D02*
X0152952Y0217690D01*
X0152953Y0216692D02*
X0152953Y0216692D01*
X0152951Y0215693D02*
X0152955Y0215693D01*
X0153368Y0214695D02*
X0152537Y0214695D01*
X0152027Y0213696D02*
X0153878Y0213696D01*
X0154877Y0212698D02*
X0151029Y0212698D01*
X0151016Y0210701D02*
X0155303Y0210701D01*
X0154206Y0209702D02*
X0152014Y0209702D01*
X0152532Y0208704D02*
X0153590Y0208704D01*
X0153253Y0207705D02*
X0152945Y0207705D01*
X0152953Y0206707D02*
X0157567Y0206707D01*
X0158339Y0206707D02*
X0162953Y0206707D01*
X0162960Y0207705D02*
X0162652Y0207705D01*
X0162315Y0208704D02*
X0163374Y0208704D01*
X0163891Y0209702D02*
X0161699Y0209702D01*
X0160603Y0210701D02*
X0164890Y0210701D01*
X0164877Y0212698D02*
X0161029Y0212698D01*
X0162027Y0213696D02*
X0163878Y0213696D01*
X0163368Y0214695D02*
X0162537Y0214695D01*
X0162951Y0215693D02*
X0162955Y0215693D01*
X0162953Y0216692D02*
X0162953Y0216692D01*
X0162952Y0217690D02*
X0162954Y0217690D01*
X0163368Y0218689D02*
X0162538Y0218689D01*
X0162029Y0219687D02*
X0163876Y0219687D01*
X0164875Y0220686D02*
X0161031Y0220686D01*
X0171031Y0220686D02*
X0175282Y0220686D01*
X0174195Y0219687D02*
X0172029Y0219687D01*
X0172538Y0218689D02*
X0173583Y0218689D01*
X0173251Y0217690D02*
X0172952Y0217690D01*
X0172953Y0216692D02*
X0177567Y0216692D01*
X0178339Y0216692D02*
X0182953Y0216692D01*
X0182954Y0217690D02*
X0182655Y0217690D01*
X0182323Y0218689D02*
X0183368Y0218689D01*
X0183876Y0219687D02*
X0181710Y0219687D01*
X0180623Y0220686D02*
X0184875Y0220686D01*
X0182955Y0215693D02*
X0182654Y0215693D01*
X0182322Y0214695D02*
X0183368Y0214695D01*
X0183878Y0213696D02*
X0181709Y0213696D01*
X0180620Y0212698D02*
X0184877Y0212698D01*
X0184890Y0210701D02*
X0181016Y0210701D01*
X0182014Y0209702D02*
X0183891Y0209702D01*
X0183374Y0208704D02*
X0182532Y0208704D01*
X0182945Y0207705D02*
X0182960Y0207705D01*
X0182953Y0206707D02*
X0182953Y0206707D01*
X0182953Y0205708D02*
X0182953Y0205708D01*
X0182543Y0204710D02*
X0183362Y0204710D01*
X0183863Y0203711D02*
X0182042Y0203711D01*
X0181044Y0202713D02*
X0184862Y0202713D01*
X0191044Y0202713D02*
X0194862Y0202713D01*
X0193863Y0203711D02*
X0192042Y0203711D01*
X0192543Y0204710D02*
X0193362Y0204710D01*
X0192953Y0205708D02*
X0192953Y0205708D01*
X0192953Y0206707D02*
X0192953Y0206707D01*
X0192945Y0207705D02*
X0192960Y0207705D01*
X0193374Y0208704D02*
X0192532Y0208704D01*
X0192014Y0209702D02*
X0193891Y0209702D01*
X0194890Y0210701D02*
X0191016Y0210701D01*
X0191029Y0212698D02*
X0195285Y0212698D01*
X0194197Y0213696D02*
X0192027Y0213696D01*
X0192537Y0214695D02*
X0193584Y0214695D01*
X0193251Y0215693D02*
X0192951Y0215693D01*
X0192953Y0216692D02*
X0197567Y0216692D01*
X0198339Y0216692D02*
X0202953Y0216692D01*
X0202954Y0217690D02*
X0202655Y0217690D01*
X0202323Y0218689D02*
X0203368Y0218689D01*
X0203876Y0219687D02*
X0201710Y0219687D01*
X0200623Y0220686D02*
X0204875Y0220686D01*
X0202955Y0215693D02*
X0202654Y0215693D01*
X0202322Y0214695D02*
X0203368Y0214695D01*
X0203878Y0213696D02*
X0201709Y0213696D01*
X0200620Y0212698D02*
X0204877Y0212698D01*
X0204890Y0210701D02*
X0201016Y0210701D01*
X0202014Y0209702D02*
X0203891Y0209702D01*
X0203374Y0208704D02*
X0202532Y0208704D01*
X0202945Y0207705D02*
X0202960Y0207705D01*
X0202953Y0206707D02*
X0202953Y0206707D01*
X0202953Y0205708D02*
X0202953Y0205708D01*
X0202543Y0204710D02*
X0203362Y0204710D01*
X0203863Y0203711D02*
X0202042Y0203711D01*
X0201044Y0202713D02*
X0204862Y0202713D01*
X0198339Y0212698D02*
X0197567Y0212698D01*
X0197567Y0213696D02*
X0198339Y0213696D01*
X0198339Y0214695D02*
X0197567Y0214695D01*
X0197567Y0215693D02*
X0198339Y0215693D01*
X0193251Y0217690D02*
X0192952Y0217690D01*
X0192538Y0218689D02*
X0193583Y0218689D01*
X0194195Y0219687D02*
X0192029Y0219687D01*
X0191031Y0220686D02*
X0195282Y0220686D01*
X0178339Y0215693D02*
X0177567Y0215693D01*
X0177567Y0214695D02*
X0178339Y0214695D01*
X0178339Y0213696D02*
X0177567Y0213696D01*
X0177567Y0212698D02*
X0178339Y0212698D01*
X0175285Y0212698D02*
X0171029Y0212698D01*
X0172027Y0213696D02*
X0174197Y0213696D01*
X0173584Y0214695D02*
X0172537Y0214695D01*
X0172951Y0215693D02*
X0173251Y0215693D01*
X0174890Y0210701D02*
X0171016Y0210701D01*
X0172014Y0209702D02*
X0173891Y0209702D01*
X0173374Y0208704D02*
X0172532Y0208704D01*
X0172945Y0207705D02*
X0172960Y0207705D01*
X0172953Y0206707D02*
X0172953Y0206707D01*
X0172953Y0205708D02*
X0172953Y0205708D01*
X0172543Y0204710D02*
X0173362Y0204710D01*
X0173863Y0203711D02*
X0172042Y0203711D01*
X0171044Y0202713D02*
X0174862Y0202713D01*
X0164862Y0202713D02*
X0160641Y0202713D01*
X0161720Y0203711D02*
X0163863Y0203711D01*
X0163362Y0204710D02*
X0162329Y0204710D01*
X0162657Y0205708D02*
X0162953Y0205708D01*
X0158339Y0205708D02*
X0157567Y0205708D01*
X0157567Y0204710D02*
X0158339Y0204710D01*
X0158339Y0203711D02*
X0157567Y0203711D01*
X0157567Y0202713D02*
X0158339Y0202713D01*
X0155265Y0202713D02*
X0151044Y0202713D01*
X0152042Y0203711D02*
X0154186Y0203711D01*
X0153576Y0204710D02*
X0152543Y0204710D01*
X0152953Y0205708D02*
X0153249Y0205708D01*
X0157567Y0207705D02*
X0158339Y0207705D01*
X0158339Y0208704D02*
X0157567Y0208704D01*
X0157567Y0209702D02*
X0158339Y0209702D01*
X0155279Y0193726D02*
X0154147Y0193726D01*
X0154168Y0192728D02*
X0155257Y0192728D01*
X0155257Y0191729D02*
X0154168Y0191729D01*
X0154168Y0190731D02*
X0155257Y0190731D01*
X0155257Y0189732D02*
X0154168Y0189732D01*
X0154168Y0188734D02*
X0155257Y0188734D01*
X0155257Y0187735D02*
X0154168Y0187735D01*
X0154168Y0186737D02*
X0155257Y0186737D01*
X0155257Y0185738D02*
X0154168Y0185738D01*
X0154168Y0184739D02*
X0155257Y0184739D01*
X0155257Y0183741D02*
X0154168Y0183741D01*
X0154168Y0182742D02*
X0155257Y0182742D01*
X0155809Y0181744D02*
X0153617Y0181744D01*
X0152000Y0180745D02*
X0205700Y0180745D01*
X0205700Y0179747D02*
X0152000Y0179747D01*
X0152000Y0178748D02*
X0205700Y0178748D01*
X0205700Y0177750D02*
X0152000Y0177750D01*
X0152000Y0176751D02*
X0205700Y0176751D01*
X0205700Y0175753D02*
X0152000Y0175753D01*
X0152000Y0174754D02*
X0205700Y0174754D01*
X0205700Y0173756D02*
X0152000Y0173756D01*
X0152000Y0172757D02*
X0205700Y0172757D01*
X0205700Y0171759D02*
X0152000Y0171759D01*
X0152000Y0170760D02*
X0205700Y0170760D01*
X0205700Y0169762D02*
X0152000Y0169762D01*
X0152000Y0168763D02*
X0205700Y0168763D01*
X0205700Y0167765D02*
X0152000Y0167765D01*
X0152000Y0166766D02*
X0205700Y0166766D01*
X0204583Y0165768D02*
X0152000Y0165768D01*
X0152000Y0164769D02*
X0204138Y0164769D01*
X0204138Y0163771D02*
X0152000Y0163771D01*
X0151125Y0162772D02*
X0204138Y0162772D01*
X0204138Y0161774D02*
X0150126Y0161774D01*
X0149128Y0160775D02*
X0204138Y0160775D01*
X0205125Y0159777D02*
X0148129Y0159777D01*
X0147131Y0158778D02*
X0204997Y0158778D01*
X0207913Y0158778D02*
X0208487Y0158778D01*
X0208487Y0157780D02*
X0207913Y0157780D01*
X0207913Y0156781D02*
X0208487Y0156781D01*
X0207913Y0155669D02*
X0204338Y0155669D01*
X0204338Y0154184D01*
X0204440Y0153803D01*
X0204637Y0153461D01*
X0204917Y0153182D01*
X0205259Y0152984D01*
X0205640Y0152882D01*
X0207913Y0152882D01*
X0207913Y0155669D01*
X0207913Y0154784D02*
X0208487Y0154784D01*
X0208487Y0153786D02*
X0207913Y0153786D01*
X0204450Y0153786D02*
X0120853Y0153786D01*
X0120853Y0154784D02*
X0204338Y0154784D01*
X0211950Y0153786D02*
X0212717Y0153786D01*
X0212717Y0154784D02*
X0212062Y0154784D01*
X0212717Y0152787D02*
X0121267Y0152787D01*
X0122265Y0151789D02*
X0212717Y0151789D01*
X0212845Y0150790D02*
X0123264Y0150790D01*
X0128535Y0163771D02*
X0145618Y0163771D01*
X0140213Y0181744D02*
X0139213Y0181744D01*
X0139213Y0182742D02*
X0140213Y0182742D01*
X0140213Y0183741D02*
X0139213Y0183741D01*
X0139213Y0184739D02*
X0140213Y0184739D01*
X0140213Y0185738D02*
X0139213Y0185738D01*
X0139213Y0188734D02*
X0140213Y0188734D01*
X0140213Y0189732D02*
X0139213Y0189732D01*
X0139213Y0190731D02*
X0140213Y0190731D01*
X0140213Y0191729D02*
X0139213Y0191729D01*
X0139213Y0192728D02*
X0140213Y0192728D01*
X0140213Y0193726D02*
X0139213Y0193726D01*
X0143781Y0193726D02*
X0145279Y0193726D01*
X0145257Y0192728D02*
X0143968Y0192728D01*
X0143968Y0191729D02*
X0145257Y0191729D01*
X0145257Y0190731D02*
X0143968Y0190731D01*
X0143968Y0189732D02*
X0145257Y0189732D01*
X0145257Y0188734D02*
X0143968Y0188734D01*
X0163617Y0181744D02*
X0205700Y0181744D01*
X0205700Y0182742D02*
X0164168Y0182742D01*
X0164168Y0183741D02*
X0205700Y0183741D01*
X0205700Y0184739D02*
X0164168Y0184739D01*
X0164168Y0185738D02*
X0205700Y0185738D01*
X0205700Y0186737D02*
X0164168Y0186737D01*
X0164168Y0187735D02*
X0205923Y0187735D01*
X0206698Y0188734D02*
X0164168Y0188734D01*
X0164168Y0189732D02*
X0207697Y0189732D01*
X0208695Y0190731D02*
X0164168Y0190731D01*
X0164168Y0191729D02*
X0209990Y0191729D01*
X0211772Y0186737D02*
X0230052Y0186737D01*
X0229782Y0185738D02*
X0210774Y0185738D01*
X0210700Y0184739D02*
X0229782Y0184739D01*
X0229782Y0183741D02*
X0210700Y0183741D01*
X0210700Y0182742D02*
X0229782Y0182742D01*
X0229782Y0181744D02*
X0210700Y0181744D01*
X0210700Y0180745D02*
X0229782Y0180745D01*
X0230369Y0179747D02*
X0210700Y0179747D01*
X0210700Y0178748D02*
X0230700Y0178748D01*
X0230700Y0177750D02*
X0210700Y0177750D01*
X0235745Y0179747D02*
X0237804Y0179747D01*
X0237094Y0180745D02*
X0236331Y0180745D01*
X0236331Y0181744D02*
X0237069Y0181744D01*
X0237069Y0182742D02*
X0236331Y0182742D01*
X0236331Y0183741D02*
X0237069Y0183741D01*
X0237068Y0183687D02*
X0239856Y0183687D01*
X0239856Y0187262D01*
X0238371Y0187262D01*
X0237990Y0187160D01*
X0237647Y0186962D01*
X0237368Y0186683D01*
X0237171Y0186341D01*
X0237069Y0185960D01*
X0237068Y0183687D01*
X0237069Y0184739D02*
X0236331Y0184739D01*
X0236331Y0185738D02*
X0237069Y0185738D01*
X0237421Y0186737D02*
X0236061Y0186737D01*
X0239856Y0186737D02*
X0240431Y0186737D01*
X0240431Y0185738D02*
X0239856Y0185738D01*
X0239856Y0184739D02*
X0240431Y0184739D01*
X0240431Y0183741D02*
X0239856Y0183741D01*
X0239856Y0182742D02*
X0240431Y0182742D01*
X0240431Y0181744D02*
X0239856Y0181744D01*
X0239856Y0180745D02*
X0240431Y0180745D01*
X0240431Y0179747D02*
X0239856Y0179747D01*
X0236078Y0172757D02*
X0245656Y0172757D01*
X0245138Y0171759D02*
X0236078Y0171759D01*
X0236078Y0170760D02*
X0245138Y0170760D01*
X0248713Y0170760D02*
X0249287Y0170760D01*
X0249287Y0171759D02*
X0248713Y0171759D01*
X0248713Y0172757D02*
X0249287Y0172757D01*
X0249287Y0168763D02*
X0248713Y0168763D01*
X0248713Y0167765D02*
X0249287Y0167765D01*
X0245470Y0165768D02*
X0242597Y0165768D01*
X0245376Y0159777D02*
X0245839Y0159777D01*
X0243863Y0154784D02*
X0243283Y0154784D01*
X0243283Y0153786D02*
X0244862Y0153786D01*
X0245415Y0152787D02*
X0243283Y0152787D01*
X0243283Y0151789D02*
X0253000Y0151789D01*
X0252283Y0151232D02*
X0251941Y0151429D01*
X0251560Y0151531D01*
X0249287Y0151531D01*
X0249287Y0148744D01*
X0248713Y0148744D01*
X0248713Y0151531D01*
X0246440Y0151531D01*
X0246059Y0151429D01*
X0245717Y0151232D01*
X0245437Y0150953D01*
X0245240Y0150610D01*
X0245138Y0150229D01*
X0245138Y0148744D01*
X0248713Y0148744D01*
X0248713Y0148169D01*
X0249287Y0148169D01*
X0249287Y0145382D01*
X0251560Y0145382D01*
X0251941Y0145484D01*
X0252283Y0145682D01*
X0252562Y0145961D01*
X0252760Y0146303D01*
X0252862Y0146684D01*
X0252862Y0148169D01*
X0249287Y0148169D01*
X0249287Y0148744D01*
X0252862Y0148744D01*
X0252862Y0150229D01*
X0252760Y0150610D01*
X0252562Y0150953D01*
X0252283Y0151232D01*
X0252656Y0150790D02*
X0253000Y0150790D01*
X0253000Y0149792D02*
X0252862Y0149792D01*
X0252862Y0148793D02*
X0253000Y0148793D01*
X0253000Y0147795D02*
X0252862Y0147795D01*
X0252862Y0146796D02*
X0253000Y0146796D01*
X0253000Y0145798D02*
X0252399Y0145798D01*
X0253000Y0144799D02*
X0239946Y0144799D01*
X0239946Y0143801D02*
X0253000Y0143801D01*
X0253000Y0142802D02*
X0239946Y0142802D01*
X0239946Y0141803D02*
X0253000Y0141803D01*
X0253000Y0140805D02*
X0239946Y0140805D01*
X0239946Y0139806D02*
X0253000Y0139806D01*
X0253000Y0138808D02*
X0239946Y0138808D01*
X0239946Y0137809D02*
X0253000Y0137809D01*
X0253000Y0136811D02*
X0239946Y0136811D01*
X0239946Y0135812D02*
X0253000Y0135812D01*
X0253000Y0134814D02*
X0239946Y0134814D01*
X0239946Y0133815D02*
X0253000Y0133815D01*
X0253000Y0132817D02*
X0239946Y0132817D01*
X0239946Y0131818D02*
X0253000Y0131818D01*
X0253000Y0130820D02*
X0239946Y0130820D01*
X0239946Y0129821D02*
X0253000Y0129821D01*
X0253000Y0128823D02*
X0239946Y0128823D01*
X0241660Y0127824D02*
X0243813Y0127824D01*
X0243740Y0127697D02*
X0243638Y0127316D01*
X0243638Y0125831D01*
X0247213Y0125831D01*
X0247213Y0128618D01*
X0244940Y0128618D01*
X0244559Y0128516D01*
X0244217Y0128318D01*
X0243937Y0128039D01*
X0243740Y0127697D01*
X0243638Y0126826D02*
X0241662Y0126826D01*
X0241662Y0125827D02*
X0247213Y0125827D01*
X0247213Y0125831D02*
X0247213Y0125256D01*
X0247787Y0125256D01*
X0247787Y0122469D01*
X0250060Y0122469D01*
X0250441Y0122571D01*
X0250783Y0122768D01*
X0251062Y0123047D01*
X0251260Y0123390D01*
X0251362Y0123771D01*
X0251362Y0125256D01*
X0247787Y0125256D01*
X0247787Y0125831D01*
X0247213Y0125831D01*
X0247787Y0125831D02*
X0247787Y0128618D01*
X0250060Y0128618D01*
X0250441Y0128516D01*
X0250783Y0128318D01*
X0251062Y0128039D01*
X0251260Y0127697D01*
X0251362Y0127316D01*
X0251362Y0125831D01*
X0247787Y0125831D01*
X0247787Y0125827D02*
X0253000Y0125827D01*
X0253000Y0124829D02*
X0251362Y0124829D01*
X0251362Y0123830D02*
X0253000Y0123830D01*
X0253000Y0122832D02*
X0250847Y0122832D01*
X0247787Y0122832D02*
X0247213Y0122832D01*
X0247213Y0122468D02*
X0244940Y0122469D01*
X0244559Y0122571D01*
X0244217Y0122768D01*
X0243937Y0123047D01*
X0243740Y0123390D01*
X0243638Y0123771D01*
X0243638Y0125256D01*
X0247213Y0125256D01*
X0247213Y0122468D01*
X0247213Y0123830D02*
X0247787Y0123830D01*
X0247787Y0124829D02*
X0247213Y0124829D01*
X0247213Y0126826D02*
X0247787Y0126826D01*
X0247787Y0127824D02*
X0247213Y0127824D01*
X0251187Y0127824D02*
X0253000Y0127824D01*
X0253000Y0126826D02*
X0251362Y0126826D01*
X0243638Y0124829D02*
X0241662Y0124829D01*
X0241662Y0123830D02*
X0243638Y0123830D01*
X0244153Y0122832D02*
X0241230Y0122832D01*
X0241563Y0120835D02*
X0243537Y0120835D01*
X0243773Y0115842D02*
X0241327Y0115842D01*
X0259206Y0092876D02*
X0198700Y0092876D01*
X0198700Y0091878D02*
X0259206Y0091878D01*
X0259206Y0090879D02*
X0198700Y0090879D01*
X0198700Y0089881D02*
X0259206Y0089881D01*
X0259206Y0088882D02*
X0198700Y0088882D01*
X0198700Y0087884D02*
X0259206Y0087884D01*
X0259206Y0086885D02*
X0198700Y0086885D01*
X0198700Y0085887D02*
X0259206Y0085887D01*
X0259206Y0084888D02*
X0198700Y0084888D01*
X0198700Y0083890D02*
X0259206Y0083890D01*
X0259206Y0082891D02*
X0198700Y0082891D01*
X0198700Y0081893D02*
X0259206Y0081893D01*
X0259206Y0080894D02*
X0198700Y0080894D01*
X0198700Y0079896D02*
X0259206Y0079896D01*
X0259206Y0078897D02*
X0247840Y0078897D01*
X0248576Y0077899D02*
X0259206Y0077899D01*
X0252108Y0067914D02*
X0248454Y0067914D01*
X0248798Y0066915D02*
X0251209Y0066915D01*
X0250795Y0065917D02*
X0248771Y0065917D01*
X0248717Y0065642D02*
X0248828Y0066198D01*
X0248828Y0066293D01*
X0246139Y0066293D01*
X0246139Y0063604D01*
X0246233Y0063604D01*
X0246789Y0063715D01*
X0247313Y0063931D01*
X0247784Y0064246D01*
X0248185Y0064647D01*
X0248500Y0065119D01*
X0248717Y0065642D01*
X0248366Y0064918D02*
X0250719Y0064918D01*
X0250863Y0063920D02*
X0247284Y0063920D01*
X0246139Y0063920D02*
X0245761Y0063920D01*
X0245761Y0063604D02*
X0245761Y0066293D01*
X0243072Y0066293D01*
X0243072Y0066198D01*
X0243182Y0065642D01*
X0243399Y0065119D01*
X0243714Y0064647D01*
X0244115Y0064246D01*
X0244586Y0063931D01*
X0245110Y0063715D01*
X0245666Y0063604D01*
X0245761Y0063604D01*
X0244615Y0063920D02*
X0234757Y0063920D01*
X0234757Y0062921D02*
X0251277Y0062921D01*
X0246139Y0064918D02*
X0245761Y0064918D01*
X0245761Y0065917D02*
X0246139Y0065917D01*
X0243533Y0064918D02*
X0235432Y0064918D01*
X0235845Y0065917D02*
X0243128Y0065917D01*
X0242800Y0066554D02*
X0242800Y0066554D01*
X0241450Y0066915D02*
X0235957Y0066915D01*
X0235813Y0067914D02*
X0239593Y0067914D01*
X0240277Y0067230D02*
X0240277Y0067230D01*
X0238594Y0068912D02*
X0235358Y0068912D01*
X0235291Y0069911D02*
X0238206Y0069911D01*
X0238430Y0069077D02*
X0238430Y0069077D01*
X0237939Y0070909D02*
X0235683Y0070909D01*
X0235485Y0072906D02*
X0238104Y0072906D01*
X0237836Y0071908D02*
X0232871Y0071908D01*
X0232099Y0071908D02*
X0227562Y0071908D01*
X0227562Y0072906D02*
X0229485Y0072906D01*
X0229995Y0073905D02*
X0227480Y0073905D01*
X0227562Y0070909D02*
X0229287Y0070909D01*
X0229679Y0069911D02*
X0227562Y0069911D01*
X0227210Y0068912D02*
X0229612Y0068912D01*
X0223787Y0066915D02*
X0223213Y0066915D01*
X0223213Y0065917D02*
X0223787Y0065917D01*
X0223787Y0064918D02*
X0223213Y0064918D01*
X0223213Y0063920D02*
X0223787Y0063920D01*
X0223787Y0062921D02*
X0223213Y0062921D01*
X0223213Y0061923D02*
X0223787Y0061923D01*
X0234975Y0073905D02*
X0238371Y0073905D01*
X0238430Y0074123D02*
X0238430Y0074123D01*
X0239210Y0074903D02*
X0235654Y0074903D01*
X0235957Y0075902D02*
X0240208Y0075902D01*
X0240277Y0075970D02*
X0240277Y0075970D01*
X0242800Y0076646D02*
X0242800Y0076646D01*
X0245761Y0077899D02*
X0246139Y0077899D01*
X0246139Y0078897D02*
X0245761Y0078897D01*
X0237754Y0071600D02*
X0237754Y0071600D01*
X0206084Y0033964D02*
X0205231Y0033964D01*
X0205231Y0032966D02*
X0205969Y0032966D01*
X0205969Y0031967D02*
X0205231Y0031967D01*
X0205231Y0030969D02*
X0208756Y0030969D01*
X0208756Y0029970D02*
X0209331Y0029970D01*
X0209331Y0028972D02*
X0208756Y0028972D01*
X0208756Y0027973D02*
X0209331Y0027973D01*
X0206120Y0027973D02*
X0205231Y0027973D01*
X0205231Y0028972D02*
X0205969Y0028972D01*
X0205969Y0029970D02*
X0205231Y0029970D01*
X0237240Y0009001D02*
X0125054Y0009001D01*
X0124056Y0008003D02*
X0238238Y0008003D01*
X0239712Y0007004D02*
X0026194Y0007004D01*
X0032160Y0014993D02*
X0044544Y0014993D01*
X0043690Y0015991D02*
X0032428Y0015991D01*
X0047213Y0015991D02*
X0047787Y0015991D01*
X0047787Y0014993D02*
X0047213Y0014993D01*
X0047213Y0016990D02*
X0047787Y0016990D01*
X0023142Y0040954D02*
X0013575Y0040954D01*
X0013700Y0041079D02*
X0013898Y0041421D01*
X0014000Y0041803D01*
X0014000Y0044750D01*
X0011250Y0044750D01*
X0011250Y0045250D01*
X0010750Y0045250D01*
X0010750Y0049500D01*
X0009303Y0049500D01*
X0008921Y0049398D01*
X0008579Y0049200D01*
X0008300Y0048921D01*
X0008102Y0048579D01*
X0008000Y0048197D01*
X0008000Y0045250D01*
X0010750Y0045250D01*
X0010750Y0044750D01*
X0008000Y0044750D01*
X0008000Y0041803D01*
X0008102Y0041421D01*
X0008300Y0041079D01*
X0008579Y0040800D01*
X0008921Y0040602D01*
X0009303Y0040500D01*
X0010750Y0040500D01*
X0010750Y0044750D01*
X0011250Y0044750D01*
X0011250Y0040500D01*
X0012697Y0040500D01*
X0013079Y0040602D01*
X0013421Y0040800D01*
X0013700Y0041079D01*
X0014000Y0041952D02*
X0022800Y0041952D01*
X0022800Y0042951D02*
X0014000Y0042951D01*
X0014000Y0043949D02*
X0022800Y0043949D01*
X0022800Y0044948D02*
X0011250Y0044948D01*
X0011250Y0045250D02*
X0014000Y0045250D01*
X0014000Y0048197D01*
X0013898Y0048579D01*
X0013700Y0048921D01*
X0013421Y0049200D01*
X0013079Y0049398D01*
X0012697Y0049500D01*
X0011250Y0049500D01*
X0011250Y0045250D01*
X0010750Y0044948D02*
X0006700Y0044948D01*
X0006700Y0045946D02*
X0008000Y0045946D01*
X0008000Y0046945D02*
X0006700Y0046945D01*
X0006700Y0047943D02*
X0008000Y0047943D01*
X0008321Y0048942D02*
X0006700Y0048942D01*
X0006700Y0049940D02*
X0023700Y0049940D01*
X0023700Y0050939D02*
X0006700Y0050939D01*
X0006700Y0051937D02*
X0023700Y0051937D01*
X0023700Y0052936D02*
X0006700Y0052936D01*
X0006700Y0053934D02*
X0023700Y0053934D01*
X0023700Y0054933D02*
X0006700Y0054933D01*
X0006700Y0055932D02*
X0023700Y0055932D01*
X0023700Y0056930D02*
X0006700Y0056930D01*
X0006700Y0057929D02*
X0023700Y0057929D01*
X0023700Y0058927D02*
X0006700Y0058927D01*
X0006700Y0059926D02*
X0023700Y0059926D01*
X0023700Y0060924D02*
X0006700Y0060924D01*
X0006700Y0061923D02*
X0023700Y0061923D01*
X0023175Y0062921D02*
X0013542Y0062921D01*
X0013421Y0062800D02*
X0013700Y0063079D01*
X0013898Y0063421D01*
X0014000Y0063803D01*
X0014000Y0066750D01*
X0011250Y0066750D01*
X0011250Y0067250D01*
X0010750Y0067250D01*
X0010750Y0071500D01*
X0009303Y0071500D01*
X0008921Y0071398D01*
X0008579Y0071200D01*
X0008300Y0070921D01*
X0008102Y0070579D01*
X0008000Y0070197D01*
X0008000Y0067250D01*
X0010750Y0067250D01*
X0010750Y0066750D01*
X0008000Y0066750D01*
X0008000Y0063803D01*
X0008102Y0063421D01*
X0008300Y0063079D01*
X0008579Y0062800D01*
X0008921Y0062602D01*
X0009303Y0062500D01*
X0010750Y0062500D01*
X0010750Y0066750D01*
X0011250Y0066750D01*
X0011250Y0062500D01*
X0012697Y0062500D01*
X0013079Y0062602D01*
X0013421Y0062800D01*
X0014000Y0063920D02*
X0022800Y0063920D01*
X0022800Y0064918D02*
X0014000Y0064918D01*
X0014000Y0065917D02*
X0022800Y0065917D01*
X0022800Y0066915D02*
X0011250Y0066915D01*
X0011250Y0067250D02*
X0014000Y0067250D01*
X0014000Y0070197D01*
X0013898Y0070579D01*
X0013700Y0070921D01*
X0013421Y0071200D01*
X0013079Y0071398D01*
X0012697Y0071500D01*
X0011250Y0071500D01*
X0011250Y0067250D01*
X0010750Y0066915D02*
X0006700Y0066915D01*
X0006700Y0065917D02*
X0008000Y0065917D01*
X0008000Y0064918D02*
X0006700Y0064918D01*
X0006700Y0063920D02*
X0008000Y0063920D01*
X0008458Y0062921D02*
X0006700Y0062921D01*
X0010750Y0062921D02*
X0011250Y0062921D01*
X0011250Y0063920D02*
X0010750Y0063920D01*
X0010750Y0064918D02*
X0011250Y0064918D01*
X0011250Y0065917D02*
X0010750Y0065917D01*
X0010750Y0067914D02*
X0011250Y0067914D01*
X0011250Y0068912D02*
X0010750Y0068912D01*
X0010750Y0069911D02*
X0011250Y0069911D01*
X0011250Y0070909D02*
X0010750Y0070909D01*
X0008293Y0070909D02*
X0006700Y0070909D01*
X0006700Y0069911D02*
X0008000Y0069911D01*
X0008000Y0068912D02*
X0006700Y0068912D01*
X0006700Y0067914D02*
X0008000Y0067914D01*
X0006700Y0071908D02*
X0023700Y0071908D01*
X0023700Y0072906D02*
X0006700Y0072906D01*
X0006700Y0073905D02*
X0023700Y0073905D01*
X0023700Y0074903D02*
X0006700Y0074903D01*
X0006700Y0075902D02*
X0023700Y0075902D01*
X0023700Y0076900D02*
X0006700Y0076900D01*
X0006700Y0077899D02*
X0023700Y0077899D01*
X0023700Y0078897D02*
X0006700Y0078897D01*
X0006700Y0079896D02*
X0023700Y0079896D01*
X0023855Y0080894D02*
X0024142Y0080894D01*
X0024904Y0081893D02*
X0025140Y0081893D01*
X0025682Y0082891D02*
X0026139Y0082891D01*
X0026096Y0083890D02*
X0026700Y0083890D01*
X0026700Y0084888D02*
X0026385Y0084888D01*
X0026385Y0085887D02*
X0026700Y0085887D01*
X0026700Y0086885D02*
X0026385Y0086885D01*
X0026385Y0087884D02*
X0026700Y0087884D01*
X0026700Y0088882D02*
X0026385Y0088882D01*
X0026385Y0089881D02*
X0026700Y0089881D01*
X0026700Y0090879D02*
X0026385Y0090879D01*
X0026385Y0091878D02*
X0026700Y0091878D01*
X0026700Y0092876D02*
X0026385Y0092876D01*
X0026385Y0093875D02*
X0026700Y0093875D01*
X0026700Y0094873D02*
X0026385Y0094873D01*
X0026385Y0095872D02*
X0026700Y0095872D01*
X0026700Y0096870D02*
X0026385Y0096870D01*
X0026385Y0097869D02*
X0026700Y0097869D01*
X0026700Y0098868D02*
X0026385Y0098868D01*
X0026385Y0099866D02*
X0026700Y0099866D01*
X0026700Y0100865D02*
X0026385Y0100865D01*
X0026385Y0101863D02*
X0026700Y0101863D01*
X0026700Y0102862D02*
X0026385Y0102862D01*
X0026385Y0103860D02*
X0026700Y0103860D01*
X0026700Y0104859D02*
X0026385Y0104859D01*
X0026385Y0105857D02*
X0026700Y0105857D01*
X0026700Y0106856D02*
X0026385Y0106856D01*
X0026385Y0107854D02*
X0026700Y0107854D01*
X0026700Y0108853D02*
X0026385Y0108853D01*
X0026385Y0109851D02*
X0026700Y0109851D01*
X0026700Y0110850D02*
X0026385Y0110850D01*
X0026385Y0111848D02*
X0026700Y0111848D01*
X0026700Y0112847D02*
X0026385Y0112847D01*
X0026385Y0113845D02*
X0027492Y0113845D01*
X0028491Y0114844D02*
X0026385Y0114844D01*
X0026385Y0115842D02*
X0029490Y0115842D01*
X0030488Y0116841D02*
X0026385Y0116841D01*
X0026385Y0117839D02*
X0034702Y0117839D01*
X0035701Y0118838D02*
X0026385Y0118838D01*
X0026385Y0119836D02*
X0036700Y0119836D01*
X0036028Y0120835D02*
X0026385Y0120835D01*
X0026385Y0121833D02*
X0035030Y0121833D01*
X0034100Y0122832D02*
X0026385Y0122832D01*
X0026385Y0123830D02*
X0034100Y0123830D01*
X0034100Y0124829D02*
X0026385Y0124829D01*
X0026385Y0125827D02*
X0034100Y0125827D01*
X0034100Y0126826D02*
X0026385Y0126826D01*
X0026385Y0127824D02*
X0034688Y0127824D01*
X0035686Y0128823D02*
X0026385Y0128823D01*
X0026385Y0129821D02*
X0036685Y0129821D01*
X0036043Y0130820D02*
X0026385Y0130820D01*
X0026385Y0131818D02*
X0035045Y0131818D01*
X0034100Y0132817D02*
X0026385Y0132817D01*
X0026385Y0133815D02*
X0034100Y0133815D01*
X0034100Y0134814D02*
X0026385Y0134814D01*
X0026385Y0135812D02*
X0034100Y0135812D01*
X0034100Y0136811D02*
X0026385Y0136811D01*
X0026385Y0137809D02*
X0034673Y0137809D01*
X0035671Y0138808D02*
X0026385Y0138808D01*
X0026385Y0139806D02*
X0036670Y0139806D01*
X0042330Y0139806D02*
X0046600Y0139806D01*
X0046600Y0140805D02*
X0026385Y0140805D01*
X0026385Y0141803D02*
X0046600Y0141803D01*
X0046600Y0142802D02*
X0026385Y0142802D01*
X0026385Y0143801D02*
X0046600Y0143801D01*
X0046600Y0144799D02*
X0026385Y0144799D01*
X0026385Y0145798D02*
X0046600Y0145798D01*
X0046600Y0146796D02*
X0026008Y0146796D01*
X0025594Y0147795D02*
X0046600Y0147795D01*
X0046600Y0148793D02*
X0024691Y0148793D01*
X0023340Y0149792D02*
X0046600Y0149792D01*
X0046600Y0150790D02*
X0006700Y0150790D01*
X0006700Y0151789D02*
X0046600Y0151789D01*
X0046600Y0152787D02*
X0006700Y0152787D01*
X0006700Y0153786D02*
X0046600Y0153786D01*
X0046600Y0154784D02*
X0006700Y0154784D01*
X0006700Y0155783D02*
X0046600Y0155783D01*
X0046600Y0156781D02*
X0006700Y0156781D01*
X0014742Y0157780D02*
X0046600Y0157780D01*
X0046600Y0158778D02*
X0015355Y0158778D01*
X0015362Y0159777D02*
X0046600Y0159777D01*
X0046600Y0160775D02*
X0015362Y0160775D01*
X0012000Y0163771D02*
X0011000Y0163771D01*
X0011000Y0164769D02*
X0012000Y0164769D01*
X0007964Y0185738D02*
X0006700Y0185738D01*
X0006700Y0186737D02*
X0007438Y0186737D01*
X0007438Y0187735D02*
X0006700Y0187735D01*
X0006700Y0188734D02*
X0007438Y0188734D01*
X0007438Y0189732D02*
X0006700Y0189732D01*
X0006700Y0190731D02*
X0007438Y0190731D01*
X0006700Y0191729D02*
X0008345Y0191729D01*
X0006700Y0192728D02*
X0011575Y0192728D01*
X0012573Y0193726D02*
X0006700Y0193726D01*
X0006700Y0194725D02*
X0013572Y0194725D01*
X0016617Y0195723D02*
X0006700Y0195723D01*
X0006700Y0196722D02*
X0035877Y0196722D01*
X0035239Y0197720D02*
X0006700Y0197720D01*
X0006700Y0198719D02*
X0013476Y0198719D01*
X0011713Y0199717D02*
X0006700Y0199717D01*
X0006700Y0200716D02*
X0010093Y0200716D01*
X0009094Y0201714D02*
X0006700Y0201714D01*
X0006700Y0202713D02*
X0008095Y0202713D01*
X0007332Y0203711D02*
X0006700Y0203711D01*
X0006700Y0204710D02*
X0006755Y0204710D01*
X0015562Y0189732D02*
X0016762Y0189732D01*
X0009107Y0221684D02*
X0008866Y0221684D01*
X0009591Y0222683D02*
X0010105Y0222683D01*
X0010903Y0223681D02*
X0011735Y0223681D01*
X0012347Y0224680D02*
X0013524Y0224680D01*
X0051029Y0212698D02*
X0055285Y0212698D01*
X0054197Y0213696D02*
X0052027Y0213696D01*
X0052537Y0214695D02*
X0053584Y0214695D01*
X0053251Y0215693D02*
X0052951Y0215693D01*
X0057567Y0215693D02*
X0058339Y0215693D01*
X0058339Y0214695D02*
X0057567Y0214695D01*
X0057567Y0213696D02*
X0058339Y0213696D01*
X0058339Y0212698D02*
X0057567Y0212698D01*
X0054890Y0210701D02*
X0051016Y0210701D01*
X0052014Y0209702D02*
X0053891Y0209702D01*
X0053374Y0208704D02*
X0052532Y0208704D01*
X0052945Y0207705D02*
X0052960Y0207705D01*
X0052953Y0206707D02*
X0052953Y0206707D01*
X0052953Y0205708D02*
X0052953Y0205708D01*
X0052543Y0204710D02*
X0053362Y0204710D01*
X0053863Y0203711D02*
X0052042Y0203711D01*
X0051044Y0202713D02*
X0054862Y0202713D01*
X0091031Y0220686D02*
X0095282Y0220686D01*
X0094195Y0219687D02*
X0092029Y0219687D01*
X0092538Y0218689D02*
X0093583Y0218689D01*
X0093251Y0217690D02*
X0092952Y0217690D01*
X0097567Y0215693D02*
X0098339Y0215693D01*
X0098339Y0214695D02*
X0097567Y0214695D01*
X0097567Y0213696D02*
X0098339Y0213696D01*
X0098339Y0212698D02*
X0097567Y0212698D01*
X0121029Y0212698D02*
X0125285Y0212698D01*
X0124197Y0213696D02*
X0122027Y0213696D01*
X0122537Y0214695D02*
X0123584Y0214695D01*
X0123251Y0215693D02*
X0122951Y0215693D01*
X0127567Y0215693D02*
X0128339Y0215693D01*
X0128339Y0214695D02*
X0127567Y0214695D01*
X0127567Y0213696D02*
X0128339Y0213696D01*
X0128339Y0212698D02*
X0127567Y0212698D01*
X0124890Y0210701D02*
X0121016Y0210701D01*
X0122014Y0209702D02*
X0123891Y0209702D01*
X0123374Y0208704D02*
X0122532Y0208704D01*
X0122945Y0207705D02*
X0122960Y0207705D01*
X0122953Y0206707D02*
X0122953Y0206707D01*
X0122953Y0205708D02*
X0122953Y0205708D01*
X0122543Y0204710D02*
X0123362Y0204710D01*
X0123863Y0203711D02*
X0122042Y0203711D01*
X0121044Y0202713D02*
X0124862Y0202713D01*
X0143216Y0134814D02*
X0146209Y0134814D01*
X0145257Y0133815D02*
X0144168Y0133815D01*
X0144168Y0132817D02*
X0145257Y0132817D01*
X0145257Y0131818D02*
X0144168Y0131818D01*
X0144168Y0130820D02*
X0145257Y0130820D01*
X0145257Y0129821D02*
X0144168Y0129821D01*
X0144168Y0128823D02*
X0145257Y0128823D01*
X0145257Y0127824D02*
X0144168Y0127824D01*
X0144168Y0126826D02*
X0145257Y0126826D01*
X0145257Y0125827D02*
X0144168Y0125827D01*
X0144168Y0124829D02*
X0145257Y0124829D01*
X0145257Y0123830D02*
X0144168Y0123830D01*
X0144168Y0122832D02*
X0145257Y0122832D01*
X0145877Y0121833D02*
X0143548Y0121833D01*
X0132962Y0117839D02*
X0156755Y0117839D01*
X0156857Y0118838D02*
X0131963Y0118838D01*
X0130965Y0119836D02*
X0156857Y0119836D01*
X0162657Y0119836D02*
X0175984Y0119836D01*
X0176982Y0120835D02*
X0162657Y0120835D01*
X0163548Y0121833D02*
X0177981Y0121833D01*
X0180492Y0117839D02*
X0201682Y0117839D01*
X0202275Y0116841D02*
X0179493Y0116841D01*
X0179100Y0115842D02*
X0209743Y0115842D01*
X0209361Y0116841D02*
X0207639Y0116841D01*
X0208231Y0117839D02*
X0208769Y0117839D01*
X0208769Y0118838D02*
X0208231Y0118838D01*
X0208231Y0119836D02*
X0208769Y0119836D01*
X0208769Y0120835D02*
X0208231Y0120835D01*
X0208231Y0121833D02*
X0208769Y0121833D01*
X0208769Y0122832D02*
X0208231Y0122832D01*
X0207968Y0123830D02*
X0209032Y0123830D01*
X0201946Y0123830D02*
X0164168Y0123830D01*
X0164168Y0122832D02*
X0201682Y0122832D01*
X0191939Y0103860D02*
X0189566Y0103860D01*
X0167131Y0110850D02*
X0166556Y0110850D01*
X0166556Y0111848D02*
X0167131Y0111848D01*
X0167131Y0112847D02*
X0166556Y0112847D01*
X0166556Y0113845D02*
X0167131Y0113845D01*
X0167131Y0114844D02*
X0166556Y0114844D01*
X0166556Y0115842D02*
X0167131Y0115842D01*
X0167131Y0116841D02*
X0166556Y0116841D01*
X0166556Y0117839D02*
X0167131Y0117839D01*
X0125331Y0104859D02*
X0124756Y0104859D01*
X0124756Y0105857D02*
X0121231Y0105857D01*
X0121231Y0104859D02*
X0121969Y0104859D01*
X0121969Y0103860D02*
X0121231Y0103860D01*
X0121059Y0102862D02*
X0122242Y0102862D01*
X0124756Y0102862D02*
X0125331Y0102862D01*
X0125331Y0103860D02*
X0124756Y0103860D01*
X0121969Y0106856D02*
X0121231Y0106856D01*
X0121231Y0107854D02*
X0121969Y0107854D01*
X0122020Y0108853D02*
X0121231Y0108853D01*
X0120857Y0109851D02*
X0122874Y0109851D01*
X0102300Y0108850D02*
X0102300Y0103600D01*
X0102300Y0099600D01*
X0102300Y0103600D02*
X0102300Y0103600D01*
X0102300Y0103860D02*
X0102300Y0103860D01*
X0102300Y0104859D02*
X0102300Y0104859D01*
X0102300Y0105857D02*
X0102300Y0105857D01*
X0102300Y0106856D02*
X0102300Y0106856D01*
X0132500Y0078897D02*
X0134745Y0078897D01*
X0133746Y0077899D02*
X0132500Y0077899D01*
X0132500Y0076900D02*
X0132748Y0076900D01*
X0113025Y0057929D02*
X0112925Y0057929D01*
X0112925Y0056930D02*
X0113025Y0056930D01*
X0113025Y0055932D02*
X0112925Y0055932D01*
X0112925Y0054933D02*
X0113025Y0054933D01*
X0116974Y0053934D02*
X0105800Y0053934D01*
X0105800Y0052936D02*
X0116974Y0052936D01*
X0117310Y0051937D02*
X0106615Y0051937D01*
X0096873Y0059926D02*
X0095978Y0059926D01*
X0095874Y0058927D02*
X0094980Y0058927D01*
X0094876Y0057929D02*
X0093981Y0057929D01*
X0093877Y0056930D02*
X0092983Y0056930D01*
X0096800Y0060924D02*
X0097576Y0060924D01*
X0097576Y0061923D02*
X0096800Y0061923D01*
X0060914Y0063920D02*
X0052725Y0063920D01*
X0051079Y0062921D02*
X0060363Y0062921D01*
X0046299Y0078897D02*
X0046155Y0078897D01*
X0046306Y0079896D02*
X0045157Y0079896D01*
X0045538Y0080894D02*
X0044158Y0080894D01*
X0043160Y0081893D02*
X0045538Y0081893D01*
X0045538Y0082891D02*
X0042161Y0082891D01*
X0041562Y0083890D02*
X0045538Y0083890D01*
X0045538Y0084888D02*
X0041562Y0084888D01*
X0040598Y0085887D02*
X0046202Y0085887D01*
X0047300Y0086885D02*
X0031300Y0086885D01*
X0031300Y0085887D02*
X0034402Y0085887D01*
X0036982Y0089881D02*
X0031300Y0089881D01*
X0031300Y0090879D02*
X0035984Y0090879D01*
X0034985Y0091878D02*
X0031300Y0091878D01*
X0031300Y0092876D02*
X0034100Y0092876D01*
X0034100Y0093875D02*
X0031300Y0093875D01*
X0031300Y0094873D02*
X0034100Y0094873D01*
X0034100Y0095872D02*
X0031300Y0095872D01*
X0031300Y0096870D02*
X0034100Y0096870D01*
X0034732Y0097869D02*
X0031300Y0097869D01*
X0031300Y0098868D02*
X0035731Y0098868D01*
X0036729Y0099866D02*
X0031300Y0099866D01*
X0031300Y0100865D02*
X0035999Y0100865D01*
X0035000Y0101863D02*
X0031300Y0101863D01*
X0031300Y0102862D02*
X0034100Y0102862D01*
X0034100Y0103860D02*
X0031300Y0103860D01*
X0031300Y0104859D02*
X0034100Y0104859D01*
X0034100Y0105857D02*
X0031300Y0105857D01*
X0031300Y0106856D02*
X0034100Y0106856D01*
X0034717Y0107854D02*
X0031300Y0107854D01*
X0031300Y0108853D02*
X0035716Y0108853D01*
X0036714Y0109851D02*
X0031300Y0109851D01*
X0031300Y0110850D02*
X0036014Y0110850D01*
X0035015Y0111848D02*
X0032001Y0111848D01*
X0044015Y0091878D02*
X0044985Y0091878D01*
X0045984Y0090879D02*
X0043016Y0090879D01*
X0042018Y0089881D02*
X0046982Y0089881D01*
X0047300Y0088882D02*
X0031300Y0088882D01*
X0031300Y0087884D02*
X0047300Y0087884D01*
X0023005Y0070909D02*
X0013707Y0070909D01*
X0014000Y0069911D02*
X0022800Y0069911D01*
X0022800Y0068912D02*
X0014000Y0068912D01*
X0014000Y0067914D02*
X0022800Y0067914D01*
X0023038Y0048942D02*
X0013679Y0048942D01*
X0014000Y0047943D02*
X0022800Y0047943D01*
X0022800Y0046945D02*
X0014000Y0046945D01*
X0014000Y0045946D02*
X0022800Y0045946D01*
X0011250Y0045946D02*
X0010750Y0045946D01*
X0010750Y0046945D02*
X0011250Y0046945D01*
X0011250Y0047943D02*
X0010750Y0047943D01*
X0010750Y0048942D02*
X0011250Y0048942D01*
X0011250Y0043949D02*
X0010750Y0043949D01*
X0010750Y0042951D02*
X0011250Y0042951D01*
X0011250Y0041952D02*
X0010750Y0041952D01*
X0010750Y0040954D02*
X0011250Y0040954D01*
X0008425Y0040954D02*
X0006700Y0040954D01*
X0006700Y0041952D02*
X0008000Y0041952D01*
X0008000Y0042951D02*
X0006700Y0042951D01*
X0006700Y0043949D02*
X0008000Y0043949D01*
X0006700Y0031967D02*
X0014273Y0031967D01*
X0012082Y0030969D02*
X0006700Y0030969D01*
X0006700Y0029970D02*
X0010353Y0029970D01*
X0009307Y0028972D02*
X0006700Y0028972D01*
X0006700Y0027973D02*
X0008309Y0027973D01*
X0007455Y0026975D02*
X0006700Y0026975D01*
X0006700Y0025976D02*
X0006879Y0025976D01*
X0044327Y0137809D02*
X0044673Y0137809D01*
X0045671Y0138808D02*
X0043329Y0138808D01*
X0145098Y0016990D02*
X0145958Y0016990D01*
X0143862Y0015991D02*
X0157447Y0015991D01*
X0156590Y0016990D02*
X0154546Y0016990D01*
X0154787Y0017988D02*
X0156538Y0017988D01*
X0245717Y0145682D02*
X0246059Y0145484D01*
X0246440Y0145382D01*
X0248713Y0145382D01*
X0248713Y0148169D01*
X0245138Y0148169D01*
X0245138Y0146684D01*
X0245240Y0146303D01*
X0245437Y0145961D01*
X0245717Y0145682D01*
X0245601Y0145798D02*
X0239946Y0145798D01*
X0239946Y0146796D02*
X0245138Y0146796D01*
X0245138Y0147795D02*
X0239946Y0147795D01*
X0239946Y0148793D02*
X0245138Y0148793D01*
X0245138Y0149792D02*
X0239946Y0149792D01*
X0243155Y0150790D02*
X0245344Y0150790D01*
X0248713Y0150790D02*
X0249287Y0150790D01*
X0249287Y0149792D02*
X0248713Y0149792D01*
X0248713Y0148793D02*
X0249287Y0148793D01*
X0249287Y0147795D02*
X0248713Y0147795D01*
X0248713Y0146796D02*
X0249287Y0146796D01*
X0249287Y0145798D02*
X0248713Y0145798D01*
X0252429Y0198719D02*
X0259206Y0198719D01*
X0259206Y0199717D02*
X0254193Y0199717D01*
X0255813Y0200716D02*
X0259206Y0200716D01*
X0259206Y0201714D02*
X0256811Y0201714D01*
X0257810Y0202713D02*
X0259206Y0202713D01*
X0259206Y0203711D02*
X0258574Y0203711D01*
X0259150Y0204710D02*
X0259206Y0204710D01*
X0257040Y0221684D02*
X0256799Y0221684D01*
X0256314Y0222683D02*
X0255800Y0222683D01*
X0255003Y0223681D02*
X0254171Y0223681D01*
X0253559Y0224680D02*
X0252381Y0224680D01*
D22*
X0011500Y0169634D03*
X0011500Y0161366D03*
D23*
X0011000Y0067000D03*
X0026000Y0067000D03*
X0026000Y0045000D03*
X0011000Y0045000D03*
D24*
X0039500Y0095000D03*
X0039500Y0105000D03*
X0039500Y0115000D03*
X0049500Y0115000D03*
X0049500Y0105000D03*
X0049500Y0095000D03*
X0049500Y0125000D03*
X0049500Y0135000D03*
X0039500Y0135000D03*
X0039500Y0125000D03*
D25*
X0141276Y0033682D03*
X0141276Y0028761D03*
X0141276Y0023839D03*
X0141276Y0018918D03*
X0150724Y0018918D03*
X0150724Y0023839D03*
X0150724Y0028761D03*
X0150724Y0033682D03*
D26*
X0218354Y0153000D03*
X0218354Y0158000D03*
X0218354Y0163000D03*
X0237646Y0163000D03*
X0237646Y0158000D03*
X0237646Y0153000D03*
D27*
X0233000Y0144417D03*
X0223000Y0144417D03*
X0223000Y0171583D03*
X0233000Y0171583D03*
D28*
X0224000Y0118331D03*
X0220260Y0110063D03*
X0227740Y0110063D03*
D29*
X0245950Y0076718D03*
X0245950Y0066482D03*
D30*
X0232485Y0066876D03*
X0232485Y0071600D03*
X0232485Y0076324D03*
D31*
X0212119Y0057240D03*
X0212119Y0049760D03*
X0201881Y0049760D03*
X0201881Y0053500D03*
X0201881Y0057240D03*
D32*
X0201841Y0057200D01*
X0191700Y0057200D01*
X0201881Y0049760D02*
X0201881Y0041575D01*
X0201957Y0041500D01*
X0201957Y0031000D01*
X0201957Y0020500D01*
X0209043Y0041500D02*
X0207000Y0043543D01*
X0207000Y0056000D01*
X0208240Y0057240D01*
X0212119Y0057240D01*
X0215100Y0060222D01*
X0215100Y0068800D01*
X0217800Y0071500D01*
X0223500Y0071543D02*
X0223500Y0074200D01*
X0225700Y0076400D01*
X0232409Y0076400D01*
X0232485Y0076324D01*
X0232485Y0066876D02*
X0232457Y0066847D01*
X0232457Y0054000D01*
X0239543Y0054000D02*
X0239543Y0043500D01*
X0234400Y0037500D02*
X0245800Y0037500D01*
X0247300Y0039000D01*
X0247300Y0043543D01*
X0247357Y0043600D01*
X0247357Y0054100D01*
X0254443Y0054100D02*
X0254443Y0064957D01*
X0254400Y0065000D01*
X0254443Y0054100D02*
X0254443Y0043600D01*
X0234400Y0037500D02*
X0232457Y0039443D01*
X0232457Y0043500D01*
X0224000Y0043500D01*
X0217700Y0049800D01*
X0212159Y0049800D01*
X0212119Y0049760D01*
X0172300Y0017400D02*
X0167600Y0012700D01*
X0143900Y0012700D01*
X0141300Y0015300D01*
X0141300Y0018894D01*
X0141276Y0018918D01*
X0113574Y0018918D01*
X0113551Y0018941D01*
X0113500Y0018890D01*
X0113500Y0016100D01*
X0112100Y0014700D01*
X0092700Y0014700D01*
X0107443Y0024065D02*
X0107449Y0024059D01*
X0107443Y0024065D02*
X0107443Y0034800D01*
X0107443Y0047830D01*
X0107457Y0047843D01*
X0107513Y0047900D01*
X0111700Y0047900D01*
X0116400Y0043200D01*
X0150657Y0043200D01*
X0150724Y0043268D01*
X0150724Y0066419D01*
X0150643Y0066500D01*
X0150643Y0076900D01*
X0143600Y0076943D02*
X0143557Y0076900D01*
X0136000Y0076900D01*
X0133325Y0074225D01*
X0128300Y0074225D01*
X0128225Y0074300D01*
X0114900Y0074300D01*
X0112800Y0072200D01*
X0110600Y0072200D01*
X0108175Y0077375D02*
X0104700Y0073900D01*
X0108175Y0077375D02*
X0128300Y0077375D01*
X0128275Y0077400D01*
X0128300Y0077375D02*
X0128325Y0077400D01*
X0128276Y0080500D02*
X0105900Y0080500D01*
X0104900Y0081500D01*
X0112900Y0083600D02*
X0112974Y0083674D01*
X0128300Y0083674D01*
X0128300Y0080524D02*
X0128276Y0080500D01*
X0128324Y0071100D02*
X0116300Y0071100D01*
X0110800Y0065600D01*
X0103600Y0058974D02*
X0103526Y0058900D01*
X0103500Y0058874D01*
X0103500Y0051800D01*
X0107457Y0047843D01*
X0103500Y0051600D02*
X0103500Y0051800D01*
X0103500Y0051600D02*
X0100900Y0049000D01*
X0043200Y0049000D01*
X0038900Y0044700D01*
X0038900Y0048100D01*
X0037500Y0049500D01*
X0037500Y0075557D01*
X0037457Y0082600D02*
X0037500Y0082643D01*
X0039157Y0082643D01*
X0045900Y0075900D01*
X0049557Y0075900D01*
X0049600Y0075857D01*
X0049600Y0067000D01*
X0050100Y0066500D01*
X0058700Y0073600D02*
X0061224Y0071076D01*
X0094500Y0071076D01*
X0094476Y0071100D01*
X0094500Y0067926D02*
X0076126Y0067926D01*
X0073200Y0065000D01*
X0066700Y0058700D02*
X0063800Y0061600D01*
X0066700Y0058700D02*
X0091500Y0058700D01*
X0094500Y0061700D01*
X0094500Y0064776D01*
X0099100Y0058900D02*
X0093900Y0053700D01*
X0044100Y0053700D01*
X0038900Y0044700D02*
X0038900Y0027600D01*
X0041457Y0025043D01*
X0047500Y0025043D01*
X0047591Y0024953D01*
X0056374Y0024953D01*
X0061000Y0022000D02*
X0061984Y0021016D01*
X0065626Y0021016D01*
X0065626Y0019047D02*
X0065700Y0018973D01*
X0065700Y0011300D01*
X0067600Y0009400D01*
X0122200Y0009400D01*
X0125700Y0012900D01*
X0113551Y0024059D02*
X0113500Y0024110D01*
X0113500Y0033600D01*
X0113551Y0024059D02*
X0141056Y0024059D01*
X0141276Y0023839D01*
X0146100Y0020100D02*
X0146100Y0032800D01*
X0146900Y0033600D01*
X0150643Y0033600D01*
X0150724Y0033682D01*
X0150657Y0033750D01*
X0150657Y0043200D01*
X0143600Y0058000D02*
X0143600Y0066457D01*
X0143557Y0066500D01*
X0138100Y0066500D01*
X0133500Y0071100D01*
X0128324Y0071100D01*
X0128300Y0071076D01*
X0128300Y0064776D02*
X0121724Y0064776D01*
X0119800Y0066700D01*
X0119274Y0058900D02*
X0119274Y0053226D01*
X0122300Y0050200D01*
X0130000Y0057000D02*
X0128100Y0058900D01*
X0122424Y0058900D01*
X0143600Y0076943D02*
X0143600Y0083300D01*
X0146000Y0085700D01*
X0169800Y0085700D01*
X0172300Y0083200D01*
X0172300Y0017400D01*
X0160400Y0026043D02*
X0160357Y0026000D01*
X0156100Y0026000D01*
X0153939Y0023839D01*
X0150724Y0023839D01*
X0150724Y0018918D02*
X0147282Y0018918D01*
X0146100Y0020100D01*
X0100376Y0058900D02*
X0099100Y0058900D01*
X0094700Y0074100D02*
X0094575Y0074225D01*
X0094500Y0074225D01*
X0076775Y0074225D01*
X0074300Y0076700D01*
X0074300Y0083800D01*
X0058700Y0088200D02*
X0058700Y0073600D01*
X0049600Y0082943D02*
X0049600Y0094900D01*
X0049500Y0095000D01*
X0049500Y0105000D02*
X0049600Y0105100D01*
X0086700Y0105100D01*
X0089300Y0107700D01*
X0089300Y0119900D01*
X0080000Y0110000D02*
X0043900Y0110000D01*
X0039500Y0105600D01*
X0039500Y0105000D01*
X0039500Y0115000D02*
X0031900Y0115000D01*
X0029000Y0112100D01*
X0029000Y0082500D01*
X0029100Y0082600D01*
X0037457Y0082600D01*
X0029000Y0082500D02*
X0026000Y0079500D01*
X0026000Y0067000D01*
X0026000Y0045000D01*
X0065626Y0024953D02*
X0068753Y0024953D01*
X0071900Y0028100D01*
X0100376Y0092700D02*
X0100400Y0092724D01*
X0100400Y0096776D01*
X0097576Y0099600D01*
X0103500Y0096400D02*
X0103500Y0092726D01*
X0103526Y0092700D01*
X0103500Y0096400D02*
X0103824Y0096400D01*
X0107024Y0099600D01*
X0122424Y0092700D02*
X0173600Y0092700D01*
X0176800Y0095900D01*
X0176800Y0117400D01*
X0179900Y0120500D01*
X0204957Y0120500D01*
X0204857Y0120400D01*
X0212043Y0120500D02*
X0212043Y0110000D01*
X0220197Y0110000D01*
X0220260Y0110063D01*
X0224000Y0118331D02*
X0224126Y0118457D01*
X0237600Y0118457D01*
X0247500Y0118457D01*
X0237646Y0125589D02*
X0237600Y0125543D01*
X0237646Y0125589D02*
X0237646Y0153000D01*
X0237646Y0158000D02*
X0243900Y0158000D01*
X0246357Y0155543D01*
X0249000Y0155543D01*
X0249043Y0155500D01*
X0252800Y0155500D01*
X0255300Y0153000D01*
X0255300Y0097500D01*
X0223000Y0144417D02*
X0218354Y0149063D01*
X0218354Y0153000D01*
X0237646Y0163000D02*
X0248957Y0163000D01*
X0249000Y0162957D01*
X0233000Y0171583D02*
X0233000Y0183343D01*
X0233057Y0183400D01*
X0233000Y0183457D01*
X0233000Y0195800D01*
X0149713Y0188000D02*
X0149700Y0187987D01*
X0149700Y0164600D01*
X0145900Y0160800D01*
X0126500Y0160800D01*
X0126400Y0160700D01*
X0139800Y0144900D02*
X0139800Y0128245D01*
X0139713Y0128157D01*
X0139670Y0128200D01*
X0069400Y0124900D02*
X0049600Y0124900D01*
X0049500Y0125000D01*
X0011500Y0169634D02*
X0011500Y0181457D01*
X0011543Y0188500D02*
X0011500Y0188543D01*
X0011500Y0189400D01*
X0014900Y0192800D01*
X0018900Y0192800D01*
D33*
X0018900Y0192800D03*
X0069400Y0124900D03*
X0080000Y0110000D03*
X0089300Y0119900D03*
X0105200Y0134400D03*
X0126400Y0160700D03*
X0139800Y0144900D03*
X0159800Y0107000D03*
X0159900Y0106900D03*
X0187400Y0106900D03*
X0143600Y0058000D03*
X0130000Y0057000D03*
X0122300Y0050200D03*
X0112800Y0052500D03*
X0110800Y0065600D03*
X0110600Y0072200D03*
X0104700Y0073900D03*
X0104900Y0081500D03*
X0112900Y0083600D03*
X0119800Y0066700D03*
X0113500Y0033600D03*
X0092700Y0026300D03*
X0092700Y0014700D03*
X0071900Y0028100D03*
X0044100Y0053700D03*
X0050100Y0066500D03*
X0063800Y0061600D03*
X0073200Y0065000D03*
X0074300Y0083800D03*
X0058700Y0088200D03*
X0125700Y0012900D03*
X0159500Y0034900D03*
X0191700Y0057200D03*
X0254400Y0065000D03*
X0255300Y0097500D03*
X0233000Y0195800D03*
D34*
X0159757Y0128113D02*
X0159713Y0128157D01*
X0159757Y0128113D02*
X0159757Y0114500D01*
X0132200Y0114500D01*
X0125000Y0121700D01*
X0125000Y0144953D01*
X0117957Y0151996D01*
X0117953Y0152000D01*
X0117953Y0199600D01*
X0112853Y0194500D01*
X0042200Y0194500D01*
X0049500Y0187200D01*
X0049500Y0135000D01*
X0113000Y0098000D02*
X0113000Y0092725D01*
X0112975Y0092700D01*
X0113000Y0098000D02*
X0117953Y0102953D01*
X0117953Y0106096D01*
X0117957Y0106100D01*
X0117957Y0151996D01*
X0159757Y0114500D02*
X0159800Y0114457D01*
X0159800Y0107000D01*
X0187400Y0106900D02*
X0193000Y0106900D01*
X0195800Y0104100D01*
X0195800Y0073900D01*
X0198200Y0071500D01*
X0217800Y0071500D01*
X0223457Y0071500D01*
X0223500Y0071543D01*
X0117953Y0199600D02*
X0117953Y0206693D01*
X0042200Y0194500D02*
X0041750Y0194950D01*
X0037953Y0198747D01*
X0037953Y0206693D01*
D35*
X0037953Y0216693D02*
X0047953Y0216693D01*
X0047953Y0220853D01*
X0050600Y0223500D01*
X0221000Y0223500D01*
X0223000Y0221500D01*
X0223000Y0191000D01*
X0221300Y0189300D01*
X0211000Y0189300D01*
X0210900Y0189400D01*
X0208200Y0186700D01*
X0208200Y0163043D01*
X0218311Y0163043D01*
X0218354Y0163000D01*
X0218354Y0158000D01*
X0218354Y0153000D01*
X0218354Y0163000D02*
X0218300Y0163054D01*
X0112975Y0092700D02*
X0112975Y0089175D01*
X0111300Y0087500D01*
X0108100Y0087500D01*
X0102600Y0087500D01*
X0100400Y0085300D01*
X0100400Y0068000D01*
X0103500Y0064900D01*
X0103500Y0058926D01*
X0103526Y0058900D01*
X0108100Y0087500D02*
X0106700Y0088900D01*
X0106700Y0092676D01*
X0106676Y0092700D01*
M02*
